<?xml version="1.0" encoding="UTF-8"?>
<!DOCTYPE svg PUBLIC "-//W3C//DTD SVG 1.1//EN" "http://www.w3.org/Graphics/SVG/1.1/DTD/svg11.dtd">
<!-- Creator: CorelDRAW 2021 (64-Bit) -->
<svg xmlns="http://www.w3.org/2000/svg" xml:space="preserve" width="0.402705in" height="0.354331in" version="1.1" style="shape-rendering:geometricPrecision; text-rendering:geometricPrecision; image-rendering:optimizeQuality; fill-rule:evenodd; clip-rule:evenodd"
viewBox="0 0 37.5 33"
 xmlns:xlink="http://www.w3.org/1999/xlink"
 xmlns:xodm="http://www.corel.com/coreldraw/odm/2003">
 <defs>
  <style type="text/css">
   <![CDATA[
    .fil0 {fill:#00A0E3}
   ]]>
  </style>
 </defs>
 <g id="Layer_x0020_1">
  <metadata id="CorelCorpID_0Corel-Layer"/>
  <g id="_1771963576080">
   <path class="fil0" d="M17.38 16.8c-0.62,0.14 -0.61,0.48 -0.61,1.22 -0.22,-0.06 -0.7,-0.44 -0.97,-0.62 -1.52,-1.03 -3.28,-2.37 -4.77,-3.36l-1.92 -1.35c-1.42,-1.05 -3.34,-2.28 -4.74,-3.32 -0.34,-0.25 -0.62,-0.51 -1.13,-0.51 -1.32,-0 -2.97,1.75 -3.22,3.21 -0.04,0.25 -0.02,0.61 0.16,0.88 0.09,0.14 0.11,0.14 0.22,0.24l11.91 7.71c0.3,0.19 0.72,0.55 1.05,0.62 0.42,-0.79 0.92,-1.33 1.81,-1.68 2.14,-0.85 6.42,-1.03 8.2,0.64 0.28,0.27 0.67,0.64 0.78,1.05 0.31,-0.07 0.7,-0.4 1.01,-0.58l6.92 -4.48c0.94,-0.63 5.03,-3.06 5.29,-3.6 0.47,-0.98 -0.49,-2.24 -1,-2.8l-0.15 -0.16c-0.01,-0.01 -0.03,-0.03 -0.04,-0.04 -0.09,-0.08 -0.11,-0.1 -0.2,-0.18 -0.79,-0.75 -1.75,-1.15 -2.73,-0.41l-12.01 8.44c-0.18,0.14 -0.28,0.25 -0.52,0.32 0,-1 -0.01,-0.93 -0.68,-1.29l0 -12.32c-0.41,-0.2 -2.42,-0.48 -2.62,0.19 -0.12,0.38 -0.04,11.52 -0.04,12.2z"/>
   <path class="fil0" d="M3.54 30.56c0,1.25 1.36,2.43 2.59,2.43 0.55,0 0.96,-0.39 1.34,-0.64 0.23,-0.15 0.38,-0.22 0.61,-0.38l2.45 -1.58c0.56,-0.36 5.3,-3.36 5.49,-3.63 -0.27,-0.07 -0.71,-0.39 -0.96,-0.56 -0.78,-0.56 -1.84,-1.65 -1.93,-2.71 -0.28,0.07 -0.98,0.61 -1.25,0.8 -0.42,0.31 -0.79,0.53 -1.21,0.85l-6.75 4.73c-0.16,0.13 -0.38,0.4 -0.38,0.69z"/>
   <path class="fil0" d="M13.96 22.73c0,1.34 0.57,2.04 1.72,2.84 0.69,0.48 2.17,1.19 3,1.19 1.1,0 2.48,-0.69 3.15,-1.18 0.44,-0.32 0.79,-0.61 1.16,-1.04 1.04,-1.22 0.8,-3.03 -0.89,-3.86 -2.01,-0.99 -8.14,-1.08 -8.14,2.05z"/>
   <path class="fil0" d="M21.48 26.76c0.16,0.23 0.81,0.59 1.16,0.82 2.37,1.58 4.99,3.17 7.34,4.74 0.55,0.37 0.8,0.67 1.54,0.67 1.34,0 3.22,-2.11 2.1,-3.08l-5.49 -3.87c-0.51,-0.35 -3.47,-2.49 -3.76,-2.55 -0.03,1.27 -2.03,3.07 -2.89,3.27z"/>
   <path class="fil0" d="M15.93 1.82c0,1.03 0.7,1.51 0.91,1.82 1.17,-0.27 1.94,-0.47 3.2,-0.15 0.41,0.11 0.49,0.21 0.78,-0.05 1.33,-1.2 0.91,-3.45 -1.84,-3.45 -1.07,0 -2.14,0.06 -2.75,0.97 -0.09,0.14 -0.29,0.67 -0.29,0.85z"/>
  </g>
 </g>
</svg>
