<?xml version="1.0" encoding="UTF-8"?>
<!DOCTYPE svg PUBLIC "-//W3C//DTD SVG 1.1//EN" "http://www.w3.org/Graphics/SVG/1.1/DTD/svg11.dtd">
<!-- Creator: CorelDRAW 2021 (64-Bit) -->
<svg xmlns="http://www.w3.org/2000/svg" xml:space="preserve" width="0.358268in" height="0.358039in" version="1.1" style="shape-rendering:geometricPrecision; text-rendering:geometricPrecision; image-rendering:optimizeQuality; fill-rule:evenodd; clip-rule:evenodd"
viewBox="0 0 9.29 9.28"
 xmlns:xlink="http://www.w3.org/1999/xlink"
 xmlns:xodm="http://www.corel.com/coreldraw/odm/2003">
 <defs>
  <style type="text/css">
   <![CDATA[
    .str0 {stroke:#00A0E3;stroke-width:0.1;stroke-miterlimit:2.61313}
    .fil0 {fill:#00A0E3}
   ]]>
  </style>
 </defs>
 <g id="Layer_x0020_1">
  <metadata id="CorelCorpID_0Corel-Layer"/>
  <path class="fil0 str0" d="M3.76 8.42c0.16,0.06 0.27,0.21 0.27,0.39 0,0.23 -0.19,0.42 -0.42,0.42 -0.23,0 -0.42,-0.19 -0.42,-0.42 0,-0.19 0.12,-0.34 0.29,-0.4 -0.01,-0.51 -0,-1.29 0,-1.78 0,-0.24 -0.16,-0.4 -0.26,-0.59 -0.04,-0.08 -0.15,-0.06 -0.23,-0.06 -0.4,0 -0.81,0 -1.21,0l0 -0c-0.4,0 -0.8,-0 -1.19,0 -0.22,0 -0.38,-0.1 -0.48,-0.29 -0.1,-0.18 -0.02,-0.34 0.1,-0.49 0.29,-0.34 0.64,-0.54 1.09,-0.54 0.63,-0.01 1.26,0.01 1.88,0.11 0.11,0.02 0.21,-0.01 0.29,-0.09 0.17,-0.16 0.37,-0.26 0.59,-0.31 0.11,-0.03 0.15,-0.1 0.15,-0.2 0,-0.67 0,-1.34 0,-2.01 0,-0.07 -0.01,-0.14 -0.06,-0.2 -0.23,-0.3 -0.43,-0.63 -0.61,-0.96 -0.11,-0.21 -0.2,-0.43 -0.21,-0.67 -0.01,-0.19 0.06,-0.27 0.25,-0.27 0.71,-0 1.42,-0 2.14,0 0.2,0 0.27,0.08 0.25,0.28 -0.03,0.32 -0.15,0.61 -0.33,0.87 -0.16,0.25 -0.29,0.52 -0.49,0.74 -0.05,0.06 -0.06,0.13 -0.06,0.2 0,0.66 0,1.33 0,2 0,0.13 0.07,0.17 0.18,0.24 0.38,0.23 0.61,0.02 0.87,-0.23 0.41,-0.4 0.84,-0.77 1.27,-1.14 0.32,-0.28 0.69,-0.34 1.1,-0.25 0.1,0.02 0.2,0.04 0.3,0.07 0.23,0.05 0.41,0.2 0.43,0.39l0 0c0.03,0.23 -0.11,0.38 -0.29,0.49 -0.85,0.52 -1.71,1.04 -2.57,1.55 -0.03,0.01 -0.05,0.03 -0.07,0.05 -0.06,0.06 -0.17,0.08 -0.15,0.2 0.02,0.11 0.12,0.14 0.21,0.17 0.44,0.17 0.87,0.35 1.3,0.53 0.14,0.06 0.28,0.09 0.41,0.16 0.19,0.11 0.3,0.28 0.27,0.46 -0.03,0.17 -0.17,0.3 -0.38,0.34 -0.17,0.03 -0.34,0.07 -0.51,0.1 -0.44,0.07 -0.8,-0.1 -1.14,-0.35 -0.14,-0.1 -0.29,-0.2 -0.44,-0.3 -0.08,-0.06 -0.16,-0.05 -0.25,-0 -0.53,0.31 -1.1,0.28 -1.67,0.14 -0.14,-0.04 -0.2,0 -0.2,0.13 -0,0.4 -0,1.08 -0,1.51zm-0.57 -3.11c-0.02,0.26 -0.15,0.39 -0.41,0.39 -0.33,0 -0.66,0 -1,0 0,0 0,0 0,0 -0.38,0 -0.76,0 -1.14,0 -0.1,0 -0.21,0.01 -0.26,-0.1 -0.06,-0.12 0.02,-0.2 0.1,-0.28 0.23,-0.25 0.5,-0.4 0.86,-0.38 0.54,0.02 1.08,-0.01 1.62,0.07 0.23,0.03 0.26,0.07 0.24,0.3l-0 -0zm0.5 -4.63c-0.11,-0.26 -0.06,-0.35 0.23,-0.34 0.25,0 0.5,0 0.75,0 0.27,0 0.53,-0 0.8,0 0.2,0 0.26,0.08 0.19,0.27 -0.13,0.37 -0.37,0.67 -0.57,1 -0.02,0.03 -0.06,0.06 -0.1,0.07 -0.22,0.03 -0.44,0.03 -0.65,-0 -0.04,-0 -0.07,-0.04 -0.1,-0.07 -0.19,-0.3 -0.4,-0.59 -0.54,-0.92zm1.13 2.49c0,0.33 0,0.65 0,0.98 0,0.11 -0.01,0.22 -0.17,0.22 -0.14,-0.01 -0.15,-0.11 -0.15,-0.22 0,-0.65 -0,-1.3 0,-1.95 0,-0.1 0,-0.21 0.15,-0.22 0.15,-0.01 0.17,0.1 0.17,0.21 0,0.33 0,0.65 0,0.98l0 -0 0 -0zm-1.3 1.94c0.14,-0.28 0.35,-0.46 0.68,-0.46 0.33,0 0.65,0 0.98,0 0.07,0 0.17,0 0.19,0.09 0.02,0.08 -0.03,0.14 -0.09,0.2 -0.22,0.25 -0.46,0.32 -0.79,0.31 -0.3,-0.01 -0.55,0.03 -0.79,0.1 -0.07,0.02 -0.15,0.04 -0.2,-0.03 -0.05,-0.07 -0.03,-0.15 0.01,-0.22l0 0zm2.3 0.82c-0.09,0.36 -0.43,0.64 -0.8,0.66 -0.24,0.01 -0.48,-0.01 -0.71,0 -0.36,0.01 -0.71,-0.3 -0.81,-0.64 -0.05,-0.15 -0.02,-0.24 0.15,-0.3 0.33,-0.12 0.68,-0.11 1.01,-0.12 0.35,-0.01 0.69,-0.01 1.02,0.11 0.15,0.06 0.19,0.14 0.15,0.29l0 0zm0.51 0.05c0.44,0.18 0.88,0.35 1.32,0.52 0.08,0.03 0.16,0.06 0.25,0.1 0.09,0.04 0.16,0.1 0.16,0.19 0,0.1 -0.09,0.12 -0.16,0.14 -0.2,0.08 -0.42,0.08 -0.63,0.1 -0.33,0.03 -0.57,-0.16 -0.82,-0.33 -0.12,-0.08 -0.23,-0.17 -0.35,-0.25 -0.16,-0.1 -0.12,-0.23 -0.06,-0.36 0.06,-0.13 0.15,-0.19 0.3,-0.13l0 0zm2.51 -2.51c-0.57,0.35 -1.14,0.69 -1.72,1.04 -0.37,0.23 -0.75,0.46 -1.12,0.69 -0.13,0.08 -0.26,0.17 -0.43,0.15 -0.06,-0.01 -0.12,-0.03 -0.14,-0.09 -0.02,-0.07 0.01,-0.11 0.06,-0.15 0.7,-0.62 1.39,-1.25 2.1,-1.87 0.16,-0.14 0.36,-0.24 0.52,-0.22 0.28,0.02 0.49,0.04 0.69,0.12 0.07,0.03 0.15,0.06 0.15,0.16 0,0.08 -0.04,0.14 -0.11,0.19l-0 -0zm-5.23 5.22c0.07,0 0.13,0.06 0.13,0.13 0,0.07 -0.06,0.13 -0.13,0.13 -0.07,0 -0.13,-0.06 -0.13,-0.13 0,-0.07 0.06,-0.13 0.13,-0.13z"/>
 </g>
</svg>
