<?xml version="1.0" encoding="UTF-8"?>
<!DOCTYPE svg PUBLIC "-//W3C//DTD SVG 1.1//EN" "http://www.w3.org/Graphics/SVG/1.1/DTD/svg11.dtd">
<!-- Creator: CorelDRAW 2021 (64-Bit) -->
<svg xmlns="http://www.w3.org/2000/svg" xml:space="preserve" width="0.374016in" height="0.374016in" version="1.1" style="shape-rendering:geometricPrecision; text-rendering:geometricPrecision; image-rendering:optimizeQuality; fill-rule:evenodd; clip-rule:evenodd"
viewBox="0 0 16.97 16.97"
 xmlns:xlink="http://www.w3.org/1999/xlink"
 xmlns:xodm="http://www.corel.com/coreldraw/odm/2003">
 <defs>
  <style type="text/css">
   <![CDATA[
    .str0 {stroke:#00A0E3;stroke-width:0.89;stroke-miterlimit:22.9256}
    .str1 {stroke:#00A0E3;stroke-width:0.32;stroke-linecap:round;stroke-linejoin:round;stroke-miterlimit:2.61313}
    .fil0 {fill:none}
    .fil1 {fill:black}
    .fil2 {fill:#FCFCFC}
   ]]>
  </style>
 </defs>
 <g id="Layer_x0020_1">
  <metadata id="CorelCorpID_0Corel-Layer"/>
  <g id="_1771889938032">
   <circle class="fil0 str0" cx="8.48" cy="8.48" r="8.04"/>
   <path class="fil1 str1" d="M5.55 9.41l0.17 0.32c0.16,0.44 0.3,0.63 0.63,0.92 -0.16,0.21 -1.15,0.72 -1.46,0.9 -0.51,0.29 -1.18,0.77 -1.61,0.07 -0.64,-1.03 1.26,-1.41 2.27,-2.22zm2.33 1.22c-1.56,-0.39 -1.64,-1.35 -1.47,-2.56 -0.39,0.18 -0.91,0.51 -1.31,0.74 -0.58,0.35 -2.16,1.11 -2.44,1.6 -0.3,0.52 -0.33,1.04 -0.05,1.57 0.21,0.39 0.67,0.76 1.32,0.75 0.67,-0.01 2.05,-0.96 2.69,-1.32l1.26 -0.79z"/>
   <path class="fil1 str1" d="M10.64 10.66c0.33,-0.29 0.58,-0.66 0.73,-1.25 0.39,0.15 1.12,0.62 1.53,0.86 0.41,0.24 1.28,0.61 0.82,1.36 -0.42,0.67 -1.11,0.23 -1.62,-0.07 -0.33,-0.19 -1.29,-0.7 -1.45,-0.9zm2.46 -1.14l-2.53 -1.45c0.27,1.59 -0.18,2.15 -1.46,2.56 0.15,0.19 1.09,0.69 1.29,0.8 0.44,0.25 0.85,0.49 1.27,0.73 0.44,0.26 0.85,0.61 1.5,0.57 0.57,-0.03 1.02,-0.4 1.22,-0.79 0.27,-0.52 0.19,-1.2 -0.11,-1.61 -0.27,-0.36 -0.76,-0.58 -1.17,-0.82z"/>
   <path class="fil1 str1" d="M7.75 5.7c-0.04,-0.64 -0.01,-1.33 -0.01,-1.97 -0,-0.66 0.07,-1.18 0.78,-1.16 0.68,0.02 0.73,0.6 0.73,1.22 -0,0.59 0.04,1.35 -0.01,1.91 -0.61,-0.16 -0.87,-0.15 -1.49,0zm-0.74 1.33c0.36,-0.26 0.78,-0.68 1.45,-0.7 0.75,-0.01 1.07,0.41 1.53,0.69 0,-1.12 -0,-2.24 0,-3.36 0.01,-2.21 -1.96,-2.13 -2.63,-1.34 -0.31,0.37 -0.37,0.74 -0.37,1.34 0,0.99 -0.09,2.43 0.02,3.36z"/>
   <path class="fil1 str1" d="M7.76 8.79c-0.25,-1 1.23,-1.32 1.46,-0.4 0.25,1.03 -1.23,1.32 -1.46,0.4zm0.36 -1.64c-1.98,0.53 -1.13,3.39 0.75,2.89 0.7,-0.18 1.32,-0.88 1.07,-1.84 -0.18,-0.71 -0.92,-1.3 -1.82,-1.06z"/>
   <path class="fil2 str1" d="M10.64 10.66c0.16,0.2 1.13,0.7 1.45,0.9 0.51,0.3 1.2,0.75 1.62,0.07 0.47,-0.75 -0.41,-1.12 -0.82,-1.36 -0.41,-0.24 -1.13,-0.71 -1.53,-0.86 -0.15,0.59 -0.39,0.96 -0.73,1.25z"/>
   <path class="fil2 str1" d="M7.75 5.7c0.61,-0.15 0.87,-0.16 1.49,0 0.06,-0.57 0.01,-1.32 0.01,-1.91 0,-0.62 -0.05,-1.2 -0.73,-1.22 -0.71,-0.02 -0.78,0.5 -0.78,1.16 0,0.64 -0.03,1.34 0.01,1.97z"/>
   <path class="fil2 str1" d="M5.55 9.41c-1.01,0.81 -2.91,1.18 -2.27,2.22 0.43,0.7 1.1,0.22 1.61,-0.07 0.32,-0.18 1.3,-0.69 1.46,-0.9 -0.33,-0.3 -0.47,-0.48 -0.63,-0.92l-0.17 -0.32z"/>
   <path class="fil2 str1" d="M7.76 8.79c0.23,0.92 1.71,0.63 1.46,-0.4 -0.23,-0.92 -1.71,-0.6 -1.46,0.4z"/>
  </g>
 </g>
</svg>
