<?xml version="1.0" encoding="UTF-8"?>
<!DOCTYPE svg PUBLIC "-//W3C//DTD SVG 1.1//EN" "http://www.w3.org/Graphics/SVG/1.1/DTD/svg11.dtd">
<!-- Creator: CorelDRAW 2021 (64-Bit) -->
<svg xmlns="http://www.w3.org/2000/svg" xml:space="preserve" width="0.375134in" height="0.354327in" version="1.1" style="shape-rendering:geometricPrecision; text-rendering:geometricPrecision; image-rendering:optimizeQuality; fill-rule:evenodd; clip-rule:evenodd"
viewBox="0 0 21.09 19.92"
 xmlns:xlink="http://www.w3.org/1999/xlink"
 xmlns:xodm="http://www.corel.com/coreldraw/odm/2003">
 <defs>
  <style type="text/css">
   <![CDATA[
    .fil0 {fill:#00A0E3}
   ]]>
  </style>
 </defs>
 <g id="Layer_x0020_1">
  <metadata id="CorelCorpID_0Corel-Layer"/>
  <g id="_1771874691680">
   <path class="fil0" d="M11.48 11.01c0.01,-0.26 0.14,-0.45 0.15,-0.78 0.02,-0.39 -0.08,-0.57 -0.1,-0.88 0.16,-0.14 0.23,-0.25 0.38,-0.38 0.36,-0.31 1.03,-0.94 1.55,-0.89 0.9,0.08 1.94,0.24 2.84,0.39 1.11,0.18 3.02,0.49 4.05,0.84 0.34,0.12 1.04,0.35 0.62,0.74 -0.69,0.63 -3.74,1.34 -4.88,1.65 -0.41,0.11 -2.3,0.6 -2.63,0.6 -0.47,-0 -1.58,-0.88 -1.98,-1.28z"/>
   <path class="fil0" d="M3.59 19.91c-0.61,-0.84 1.65,-7.77 1.77,-7.91 0.32,-0.34 1.59,-1 2.3,-1 0.12,0.37 0.61,0.84 0.98,1 0.35,0.15 0.29,0.15 0.37,0.59 0.05,0.28 0.08,0.63 0.09,0.93 0.02,0.67 -0.09,0.55 -0.65,1.33 -0.56,0.78 -1.22,1.51 -1.77,2.24 -0.12,0.16 -0.32,0.39 -0.45,0.52 -0.48,0.51 -0.89,1.04 -1.43,1.57 -0.22,0.22 -0.87,0.85 -1.22,0.72z"/>
   <path class="fil0" d="M7.82 8.99c-0.56,-0.08 -1.35,-0.57 -1.79,-0.91 -0.24,-0.18 -0.2,-0.32 -0.29,-0.63 -0.48,-1.73 -1.13,-4.05 -1.38,-5.83 -0.27,-1.94 0.08,-1.99 1.16,-0.92 0.47,0.46 1.21,1.4 1.65,1.93 0.26,0.31 0.52,0.68 0.78,1.01 0.26,0.34 0.52,0.69 0.78,1.06 0.26,0.38 1.02,1.22 1.01,1.65 -0.01,0.31 -0.12,1.3 -0.25,1.55 -0.09,0.18 -0.47,0.18 -0.67,0.25 -0.41,0.14 -0.87,0.5 -1,0.83z"/>
   <path class="fil0" d="M9.77 8.43c2.29,0.32 1.72,3.73 -0.49,3.36 -2.2,-0.37 -1.69,-3.67 0.49,-3.36z"/>
   <path class="fil0" d="M2.73 9.21c-0.14,-0.14 -0.32,-0.46 -0.44,-0.63 -0.14,-0.2 -0.27,-0.44 -0.42,-0.62 -0.33,0.96 -0.39,2.44 -0.2,3.51 0.13,0.76 0.7,2.43 1.09,2.84 -0.09,0.06 -0.19,0.14 -0.32,0.18 -0.47,-0.55 -1.02,-2.17 -1.15,-3.02 -0.1,-0.67 -0.11,-1.26 -0.08,-1.96 0.03,-0.7 0.21,-1.14 0.3,-1.74l-1.5 0.1c0.07,-0.11 -0,-0.02 0.07,-0.1l2.16 -1.91c0.19,-0.16 0.62,-0.59 0.78,-0.67l-0.28 4.01z"/>
   <path class="fil0" d="M16.76 14.33c-0.42,0.86 -1.42,1.9 -2.08,2.39 -0.46,0.34 -0.85,0.58 -1.37,0.85 -0.65,0.34 -1.36,0.51 -1.6,0.63l0.85 1.23c-0.11,0.01 -3.51,-1.05 -3.87,-1.2 0.34,-0.22 2.09,-1.07 2.67,-1.36 0.27,-0.14 0.68,-0.37 0.93,-0.45l-0.64 1.37c1.58,-0.35 2.82,-1.27 3.9,-2.39 0.18,-0.19 0.75,-0.93 0.86,-1.22 0.19,0.05 0.19,0.1 0.36,0.15z"/>
   <path class="fil0" d="M15.3 4.03c0.12,-0.12 0.51,-1.1 0.62,-1.35 0.11,0.14 0.23,0.76 0.28,0.95 0.14,0.57 0.71,2.69 0.72,2.96 -0.21,-0.16 -0.57,-0.35 -0.83,-0.52l-2.61 -1.61c0.26,-0.05 1.3,-0.05 1.48,-0.22 -0.86,-0.7 -1.77,-1.34 -2.93,-1.71 -0.33,-0.11 -1.03,-0.22 -1.27,-0.32l0.02 -0.29c0.08,-0.04 0.03,-0.04 0.16,-0.04 0.48,-0.02 2.02,0.59 2.37,0.77 0.84,0.44 1.43,0.88 1.99,1.38z"/>
  </g>
 </g>
</svg>
