<?xml version="1.0" encoding="UTF-8"?>
<!DOCTYPE svg PUBLIC "-//W3C//DTD SVG 1.1//EN" "http://www.w3.org/Graphics/SVG/1.1/DTD/svg11.dtd">
<!-- Creator: CorelDRAW 2021 (64-Bit) -->
<svg xmlns="http://www.w3.org/2000/svg" xml:space="preserve" width="0.391752in" height="0.354335in" version="1.1" style="shape-rendering:geometricPrecision; text-rendering:geometricPrecision; image-rendering:optimizeQuality; fill-rule:evenodd; clip-rule:evenodd"
viewBox="0 0 30.01 27.15"
 xmlns:xlink="http://www.w3.org/1999/xlink"
 xmlns:xodm="http://www.corel.com/coreldraw/odm/2003">
 <defs>
  <style type="text/css">
   <![CDATA[
    .fil0 {fill:#00A0E3}
   ]]>
  </style>
 </defs>
 <g id="Layer_x0020_1">
  <metadata id="CorelCorpID_0Corel-Layer"/>
  <g id="_1771889244944">
   <path class="fil0" d="M9.07 1.76c-0.55,-2.33 11.68,-2.32 11.24,-0.14l-1.78 8.9c-2.66,-1.71 -5.1,-1.5 -7.4,0l-2.07 -8.76z"/>
   <path class="fil0" d="M14.94 11.75c1.9,0 3.44,1.54 3.44,3.44 0,1.9 -1.54,3.44 -3.44,3.44 -1.9,0 -3.44,-1.54 -3.44,-3.44 0,-1.9 1.54,-3.44 3.44,-3.44z"/>
   <path class="fil0" d="M29.5 16.83c2.3,0.69 -3.83,11.27 -5.5,9.81l-6.82 -5.99c2.81,-1.45 3.85,-3.67 3.7,-6.41l8.63 2.59z"/>
   <path class="fil0" d="M6.18 26.97c-1.75,1.65 -7.85,-8.96 -5.74,-9.67l8.6 -2.91c-0.15,3.16 1.25,5.17 3.7,6.41l-6.55 6.18z"/>
  </g>
 </g>
</svg>
