<?xml version="1.0" encoding="UTF-8"?>
<!DOCTYPE svg PUBLIC "-//W3C//DTD SVG 1.1//EN" "http://www.w3.org/Graphics/SVG/1.1/DTD/svg11.dtd">
<!-- Creator: CorelDRAW 2021 (64-Bit) -->
<svg xmlns="http://www.w3.org/2000/svg" xml:space="preserve" width="0.393638in" height="0.354331in" version="1.1" style="shape-rendering:geometricPrecision; text-rendering:geometricPrecision; image-rendering:optimizeQuality; fill-rule:evenodd; clip-rule:evenodd"
viewBox="0 0 43.77 39.4"
 xmlns:xlink="http://www.w3.org/1999/xlink"
 xmlns:xodm="http://www.corel.com/coreldraw/odm/2003">
 <defs>
  <style type="text/css">
   <![CDATA[
    .fil0 {fill:#00A0E3}
   ]]>
  </style>
 </defs>
 <g id="Layer_x0020_1">
  <metadata id="CorelCorpID_0Corel-Layer"/>
  <g id="_1771894636272">
   <path class="fil0" d="M14.1 5.58c0,2.9 0.64,8.85 1.64,10.75 0.4,-0.11 0.28,-0.14 0.58,-0.4 2.4,-2.08 6.33,-2.41 9.21,-1.16l1.85 1.11c0.32,0.26 0.25,0.25 0.64,0.45 0.79,-1.49 2.5,-10.35 1.13,-13.52 -0.31,-0.72 -0.94,-1.43 -1.6,-1.8 -1.91,-1.04 -3.14,-0.81 -4.9,-0.91 -0.46,-0.03 -0.39,-0.1 -0.77,-0.1l-3.07 0.21c-1.75,0.19 -3.43,0.92 -4.17,2.52 -0.33,0.71 -0.55,1.8 -0.55,2.85z"/>
   <path class="fil0" d="M19.14 31.57c-0.97,-0.47 -1.19,-0.34 -2.41,-1.21 -2.94,-2.08 -4.47,-5.67 -3.62,-9.32 -1.42,0 -4.37,1.2 -5.56,1.68 -0.44,0.18 -0.83,0.33 -1.24,0.52 -2.61,1.17 -6.8,2.93 -6.27,6.49 0.27,1.83 1.38,3.81 2.19,5.16 2.07,3.46 4.16,6.17 8.87,3.34 0.41,-0.24 0.7,-0.4 1.09,-0.67 1.7,-1.13 2.66,-1.94 4.19,-3.15 0.61,-0.48 2.59,-2.21 2.76,-2.84z"/>
   <path class="fil0" d="M30.88 22.68c0,3.21 -1.32,6.02 -3.77,7.63 -0.67,0.44 -1.65,1.05 -2.48,1.25 0.26,0.96 2.66,2.7 3.54,3.48 0.81,0.73 3.24,2.37 4.16,2.97 4.51,2.91 6.98,0.88 9.33,-3.34 3.31,-5.94 3.21,-8.09 -3.76,-11.22 -1.4,-0.63 -5.46,-2.41 -7.24,-2.41 0.12,0.52 0.22,0.99 0.22,1.64z"/>
   <path class="fil0" d="M14.1 22.57c0,3.34 1.59,6.29 4.54,7.52 3.07,1.28 6.35,0.79 8.7,-1.52 3.78,-3.7 2.86,-10.13 -1.99,-12.55 -2.15,-1.08 -4.73,-1.12 -6.87,-0.04 -1.61,0.81 -2.82,1.97 -3.62,3.62 -0.35,0.71 -0.76,1.91 -0.76,2.96z"/>
  </g>
 </g>
</svg>
