<?xml version="1.0" encoding="UTF-8"?>
<!DOCTYPE svg PUBLIC "-//W3C//DTD SVG 1.1//EN" "http://www.w3.org/Graphics/SVG/1.1/DTD/svg11.dtd">
<!-- Creator: CorelDRAW 2021 (64-Bit) -->
<svg xmlns="http://www.w3.org/2000/svg" xml:space="preserve" width="0.38848in" height="0.354335in" version="1.1" style="shape-rendering:geometricPrecision; text-rendering:geometricPrecision; image-rendering:optimizeQuality; fill-rule:evenodd; clip-rule:evenodd"
viewBox="0 0 76.98 70.21"
 xmlns:xlink="http://www.w3.org/1999/xlink"
 xmlns:xodm="http://www.corel.com/coreldraw/odm/2003">
 <defs>
  <style type="text/css">
   <![CDATA[
    .fil0 {fill:#00A0E3}
   ]]>
  </style>
 </defs>
 <g id="Layer_x0020_1">
  <metadata id="CorelCorpID_0Corel-Layer"/>
  <g id="_1771885898816">
   <path class="fil0" d="M55.09 41.99c0,4.78 -1.09,7.97 -3.68,11.18 -1.66,2.05 -4.27,3.99 -6.76,4.97 -0.53,0.21 -0.85,0.26 -1.29,0.47 0.69,2.97 6.27,7.45 9.39,9 2.32,1.15 4.15,1.88 6.84,2.35 1.2,0.21 4.1,0.32 5.65,0.16 7.89,-0.8 13.58,-7.65 11.2,-15.65 -0.51,-1.71 -1.06,-2.93 -1.85,-4.41 -1.35,-2.53 -3.57,-4.75 -5.86,-6.46 -1.21,-0.9 -2.49,-1.74 -3.85,-2.41 -3.42,-1.67 -6.24,-2.34 -10.17,-2.34 0.09,1.12 0.39,1.75 0.39,3.13z"/>
   <path class="fil0" d="M24 17.94c0,5.62 0.6,8.11 2.93,12.52 0.65,-0.17 1.15,-0.88 2.26,-1.65 1.47,-1.01 3.8,-1.97 5.64,-2.38 9.12,-2.03 14.23,3.78 15.17,4.03 2.32,-4.39 2.93,-6.92 2.93,-12.52 0,-4.51 -2.08,-9.61 -4.08,-12.15 -10.28,-13.08 -24.86,-1.77 -24.86,12.15z"/>
   <path class="fil0" d="M33.58 58.61c-1.58,-0.76 -1.96,-0.52 -4.46,-2.19 -1.39,-0.93 -2.56,-1.98 -3.59,-3.26 -2.59,-3.21 -3.68,-6.4 -3.68,-11.18 0,-1.37 0.3,-2.01 0.39,-3.13 -5.38,0 -9.54,1.5 -13.8,4.58 -0.71,0.51 -1.07,0.89 -1.73,1.4 -0.66,0.51 -1.09,0.88 -1.62,1.51 -1.92,2.29 -3.54,4.56 -4.49,7.83 -2.07,7.16 1.43,13.09 8.22,15.31 1.58,0.52 3.6,0.78 5.32,0.71 6.6,-0.26 12.71,-3.04 16.95,-7.83 0.67,-0.75 2.27,-2.78 2.49,-3.76z"/>
   <path class="fil0" d="M24 42.19c0,15.13 18.2,20.05 26.21,9 0.53,-0.73 0.86,-1.32 1.31,-2.21 5.68,-11.39 -5.84,-25.03 -18.83,-19.61 -4.71,1.97 -8.68,7.12 -8.68,12.83z"/>
  </g>
 </g>
</svg>
