<?xml version="1.0" encoding="UTF-8"?>
<!DOCTYPE svg PUBLIC "-//W3C//DTD SVG 1.1//EN" "http://www.w3.org/Graphics/SVG/1.1/DTD/svg11.dtd">
<!-- Creator: CorelDRAW 2021 (64-Bit) -->
<svg xmlns="http://www.w3.org/2000/svg" xml:space="preserve" width="0.354331in" height="0.354331in" version="1.1" style="shape-rendering:geometricPrecision; text-rendering:geometricPrecision; image-rendering:optimizeQuality; fill-rule:evenodd; clip-rule:evenodd"
viewBox="0 0 357.18 357.18"
 xmlns:xlink="http://www.w3.org/1999/xlink"
 xmlns:xodm="http://www.corel.com/coreldraw/odm/2003">
 <defs>
  <style type="text/css">
   <![CDATA[
    .fil0 {fill:#00A0E3}
   ]]>
  </style>
 </defs>
 <g id="Layer_x0020_1">
  <metadata id="CorelCorpID_0Corel-Layer"/>
  <g id="_1771985237008">
   <path class="fil0" d="M240.68 199.52c0,12.32 -5.02,25.85 -11.29,35.46 -4.5,6.9 -17.78,19.91 -25.69,21.75 0.75,2.82 14.99,15.57 17.04,17.15 2.39,1.85 3.74,4.39 6.68,5.18l0 1.39c-8.64,2.01 -16.57,13.26 -53.02,13.26 -12.52,0 -15.19,-2.79 -23.02,-2.79 -7.87,0 -14.7,13.09 -4.2,19.54 6.07,3.73 25.26,4.87 34.89,4.87 20.72,0 42.02,-8.22 58.9,-19.24l3.19 -2.39 14.99 11.52c1.72,1.46 1.14,0.16 1.75,2.44 -1.8,0.48 -10.77,7.53 -16.74,10.46 -11.47,5.63 -16.24,8.5 -29.59,12.26 -30.42,8.57 -59.45,6.31 -87.91,-4.98 -6.57,-2.61 -11.56,-6.73 -18.28,-2.14 -4.92,3.37 -6.12,11.06 -0.82,16.35 2.88,2.88 20.58,9.37 24.89,10.69 14.01,4.28 29,6.62 44.06,6.89l5.76 0c20.26,-0.36 40.41,-4.5 58.18,-12.79 13.39,-6.24 23.37,-12.1 35.11,-21.4 1.01,-0.8 1.74,-1.6 2.68,-2.28 4.48,-3.22 5.37,5.07 28.71,5.07 26.25,0 50.23,-23.98 50.23,-50.23 0,-20.31 -6.57,-33.88 -20.44,-45.14 -2.34,-1.9 -4.86,-3.46 -7.69,-4.87 -16.62,-8.28 -34.04,-15.41 -51.84,-21.41 -6.24,-2.1 -11.7,-4.14 -18.13,-6.28l-19.1 -6.02c0,3.81 0.7,4.81 0.7,7.67z"/>
   <path class="fil0" d="M22.32 196.73c0,11.48 0.42,21.93 2.79,32.09l-7.2 5.36c-12.08,10.08 -17.91,24.51 -17.91,41.39 0,26.24 23.98,50.23 50.23,50.23 16.89,0 22.83,-3.13 34.88,-11.16 16.17,-10.77 31.83,-24.81 46.85,-36.87l16.46 -14.93c1.93,-1.93 4.31,-3.3 5.06,-6.11 -9.24,-2.15 -19.85,-13.5 -25.32,-20.72 -6.37,-8.42 -11.66,-23.4 -11.66,-34.38 0,-3.5 0.7,-4.29 0.7,-8.37l-23.42 7.27c-3.03,0.86 -5.1,1.83 -7.97,2.5 0,-21.69 2.01,-27.45 8.97,-44.75 2.19,-5.44 6.46,-11.87 9.96,-16.55 3.46,-4.64 11.07,-11.21 11.07,-16.14 0,-5.97 -8.33,-18.42 -20.42,-5.77 -20.3,21.23 -31.2,50.8 -31.2,81.11 0,4.64 0.7,6.04 0.7,10.47 -4.14,0.35 -15.72,6.62 -20.23,7.67 0,-14.65 -1.81,-17.2 -0.06,-35.64 0.96,-10.21 3.91,-22.34 7.53,-31.54 9.93,-25.24 22.97,-43.53 43.67,-60.28 4.29,-3.47 12.35,-7.09 12.35,-14.16 0,-8.13 -8.2,-13.17 -15.33,-9.76 -3.16,1.51 -13.39,9.72 -16.24,12.37 -1.61,1.49 -2.25,1.65 -3.85,3.13 -1.32,1.22 -2.19,2.2 -3.48,3.5 -6.72,6.72 -14.39,15.89 -19.57,23.68 -16.42,24.74 -27.34,54.42 -27.34,86.37z"/>
   <path class="fil0" d="M126.97 49.53c0,13.35 0.49,17.26 2.4,30.39l10.15 57.52c0.68,2.77 1.79,9.04 2.8,11.15 17.61,-11.79 35.72,-16.81 56.72,-8.59 8.08,3.16 9.44,4.31 15.83,8.59 1.18,-2.46 6.89,-28.3 6.97,-32.09 7.84,0.65 26.29,18.78 32.93,28.47 1.33,1.94 1.95,2.42 3.12,4.55 9.45,17.13 7.93,19.37 11.59,26.78 4.63,9.37 20.03,6.77 20.03,-5.38 0,-7.84 -10.58,-28.68 -15.94,-36.38 -8.6,-12.37 -14.43,-17.57 -25.43,-26.9 -4.77,-4.04 -10.79,-7.24 -16.31,-10.2 -2.21,-1.19 -3.65,-2.12 -5.81,-3.26 0,-6.58 2.65,-14.47 2.79,-20.93 12.66,6.7 21.41,9.17 34.67,20.44 9.31,7.92 19.6,18.37 26.45,28.67 12.69,19.09 19.82,36.65 22.73,60.29 0.63,5.16 0.84,16.87 11.03,16.87 13.27,0 11.09,-13.58 10.08,-20.54 -4.96,-34.07 -18.66,-64.43 -43.04,-88.81 -2.89,-2.89 -5.4,-5.64 -8.36,-8.38 -11.69,-10.81 -26.06,-18.97 -40.29,-25.99 -3.73,-1.84 -8.14,-3.08 -11.87,-4.87 0,-26.76 -22.33,-50.93 -48.83,-50.93 -16.59,0 -28.75,4.67 -39.25,15.17 -7.11,7.11 -15.17,20.45 -15.17,34.36z"/>
   <path class="fil0" d="M137.43 197.43c0,14.08 2.19,22.46 11.49,32.46 2.56,2.75 7.71,6.51 11.28,8.25 18.45,8.99 40.08,2.39 51.47,-13.91 1.61,-2.3 2.72,-4.13 3.91,-6.56 7.37,-15.07 5.23,-33.71 -6.1,-46.25l-2 -2.18c-0.1,-0.1 -0.25,-0.24 -0.36,-0.34 -3.78,-3.62 -6.2,-5.66 -11.49,-8.05 -11.72,-5.29 -23.69,-5.43 -35.19,0.29 -5.18,2.58 -7.04,4.65 -10.98,8.55 -1.89,1.88 -3.06,2.94 -4.51,5.26 -4.12,6.63 -7.52,13.79 -7.52,22.47z"/>
  </g>
 </g>
</svg>
