<?xml version="1.0" encoding="UTF-8"?>
<!DOCTYPE svg PUBLIC "-//W3C//DTD SVG 1.1//EN" "http://www.w3.org/Graphics/SVG/1.1/DTD/svg11.dtd">
<!-- Creator: CorelDRAW 2021 (64-Bit) -->
<svg xmlns="http://www.w3.org/2000/svg" xml:space="preserve" width="0.297331in" height="0.354335in" version="1.1" style="shape-rendering:geometricPrecision; text-rendering:geometricPrecision; image-rendering:optimizeQuality; fill-rule:evenodd; clip-rule:evenodd"
viewBox="0 0 6.11 7.28"
 xmlns:xlink="http://www.w3.org/1999/xlink"
 xmlns:xodm="http://www.corel.com/coreldraw/odm/2003">
 <defs>
  <style type="text/css">
   <![CDATA[
    .fil0 {fill:#00A0E3;fill-rule:nonzero}
   ]]>
  </style>
 </defs>
 <g id="Layer_x0020_1">
  <metadata id="CorelCorpID_0Corel-Layer"/>
  <path class="fil0" d="M0.09 4.9c0.01,0.01 0.02,0.01 0.04,0.02 0.1,0.02 0.12,0.09 0.12,0.18 -0,0.24 -0,0.48 0,0.72 0,0.12 -0.04,0.21 -0.11,0.29 -0.17,0.18 -0.16,0.33 0.03,0.5 0.14,0.12 0.29,0.11 0.44,-0.04 0.13,-0.12 0.14,-0.29 0.02,-0.42 -0.04,-0.05 -0.1,-0.09 -0.13,-0.16 -0.06,-0.15 -0,-0.24 0.16,-0.24 0.08,0 0.17,0 0.25,0 0.12,-0 0.17,0.04 0.17,0.17 -0,0.18 -0,0.36 -0,0.54 0,0.1 -0.04,0.17 -0.1,0.24 -0.18,0.18 -0.16,0.35 0.03,0.51 0.14,0.11 0.28,0.1 0.41,-0.04 0.13,-0.13 0.16,-0.3 0.04,-0.41 -0.14,-0.13 -0.17,-0.27 -0.16,-0.44 0.01,-0.14 0,-0.27 0,-0.41 -0,-0.1 0.04,-0.18 0.13,-0.23 0.22,-0.12 0.33,-0.31 0.34,-0.56 0.01,-0.09 0.01,-0.19 0.08,-0.26 0.03,-0.04 0.05,-0.11 0.11,-0.08 0.06,0.02 0.05,0.09 0.05,0.14 0,0.24 -0,0.49 0,0.73 0.01,0.21 -0,0.4 -0.17,0.57 -0.1,0.09 -0.08,0.23 0.01,0.34 0.11,0.14 0.24,0.2 0.36,0.14 0.27,-0.13 0.33,-0.37 0.13,-0.56 -0.06,-0.06 -0.11,-0.13 -0.11,-0.22 0,-0.39 0,-0.78 0,-1.17 0,-0.1 0.06,-0.14 0.15,-0.13 0.22,0.02 0.38,0.13 0.52,0.28 0.06,0.07 0.06,0.17 0.02,0.26 -0.03,0.08 -0.11,0.05 -0.17,0.06 -0.05,0 -0.09,0.01 -0.14,0.01 -0.05,0.01 -0.09,0.03 -0.12,0.09 -0.08,0.22 0.03,0.57 0.23,0.71 0.36,0.26 0.81,0.04 0.9,-0.38 0.07,-0.32 -0,-0.41 -0.31,-0.44 -0.06,-0 -0.12,-0.01 -0.14,-0.08 -0.02,-0.09 -0.03,-0.19 0.04,-0.25 0.13,-0.13 0.29,-0.22 0.48,-0.26 0.15,-0.03 0.19,0.01 0.19,0.16 0,0.36 -0,0.72 0,1.07 0,0.13 -0.03,0.23 -0.13,0.31 -0.04,0.04 -0.07,0.08 -0.09,0.14 -0.04,0.15 0.05,0.31 0.21,0.39 0.14,0.06 0.29,0.01 0.4,-0.14 0.09,-0.12 0.08,-0.27 -0.04,-0.38 -0.1,-0.1 -0.14,-0.21 -0.14,-0.35 0.01,-0.22 0,-0.44 0,-0.66 0,-0.09 0,-0.18 0,-0.27 0,-0.04 0.01,-0.09 0.06,-0.1 0.04,-0.01 0.06,0.03 0.09,0.06 0.07,0.09 0.1,0.19 0.1,0.3 0.02,0.24 0.12,0.43 0.34,0.55 0.1,0.05 0.14,0.13 0.13,0.24 -0,0.17 -0.01,0.34 0,0.51 0,0.11 -0.03,0.2 -0.11,0.28 -0.06,0.06 -0.11,0.12 -0.12,0.2 -0.02,0.14 0.09,0.31 0.23,0.37 0.14,0.05 0.29,-0.01 0.39,-0.17 0.08,-0.12 0.07,-0.26 -0.05,-0.37 -0.1,-0.09 -0.14,-0.2 -0.13,-0.33 0,-0.08 -0,-0.15 -0,-0.23 0,-0.48 -0.03,-0.41 0.42,-0.41 0.06,0 0.14,-0.01 0.17,0.06 0.03,0.07 0.02,0.15 -0.03,0.21 -0.04,0.06 -0.1,0.1 -0.13,0.16 -0.08,0.12 -0.06,0.25 0.05,0.37 0.12,0.13 0.26,0.16 0.38,0.09 0.24,-0.14 0.27,-0.35 0.08,-0.55 -0.06,-0.07 -0.11,-0.14 -0.11,-0.24 0,-0.26 0,-0.52 0,-0.78 0,-0.08 0.02,-0.15 0.11,-0.17 0.08,-0.02 0.11,-0.08 0.11,-0.16 0,-0.11 0,-0.23 0,-0.34 -0,-0.09 -0.04,-0.15 -0.13,-0.18 -0.06,-0.02 -0.1,-0.06 -0.1,-0.12 0,-0.07 0.03,-0.12 0.1,-0.13 0.09,-0.02 0.12,-0.08 0.12,-0.17 0,-0.31 0.01,-0.61 -0,-0.92 -0,-0.16 -0.19,-0.31 -0.34,-0.3 -0.15,0 -0.33,0.15 -0.34,0.29 -0.02,0.31 -0.02,0.63 -0,0.95 0,0.06 0.03,0.12 0.1,0.14 0.07,0.02 0.13,0.06 0.13,0.14 -0,0.08 -0.06,0.1 -0.13,0.13 -0.16,0.08 -0.09,0.24 -0.1,0.37 -0.01,0.1 -0.05,0.24 0.1,0.29 0.1,0.04 0.14,0.1 0.13,0.2 -0,0.08 -0,0.17 0,0.25 0.01,0.11 -0.04,0.17 -0.16,0.16 -0.16,-0 -0.33,0 -0.49,-0 -0.23,-0.01 -0.4,-0.17 -0.42,-0.4 -0.02,-0.29 -0.15,-0.51 -0.38,-0.67 -0.14,-0.1 -0.13,-0.29 0.02,-0.36 0.04,-0.02 0.08,-0.04 0.09,-0.08 0.04,-0.17 0.04,-0.34 0,-0.52 -0.01,-0.04 -0.05,-0.07 -0.09,-0.08 -0.07,-0.02 -0.12,-0.06 -0.12,-0.14 0,-0.07 0.04,-0.11 0.11,-0.13 0.09,-0.02 0.12,-0.09 0.12,-0.17 0,-0.29 0.01,-0.58 0,-0.87 -0,-0.18 -0.18,-0.34 -0.34,-0.34 -0.17,0 -0.34,0.17 -0.35,0.35 -0.01,0.28 -0,0.56 -0,0.83 0,0.1 0.03,0.19 0.14,0.21 0.06,0.01 0.08,0.06 0.08,0.12 0,0.06 -0.02,0.11 -0.09,0.13 -0.11,0.03 -0.14,0.12 -0.14,0.22 -0,0.09 -0,0.18 -0,0.27 0,0.1 0.02,0.18 0.13,0.21 0.08,0.02 0.1,0.08 0.09,0.15 -0.01,0.08 -0.07,0.1 -0.13,0.1 -0.14,0.01 -0.26,0.07 -0.39,0.12 -0.16,0.07 -0.19,0.05 -0.19,-0.13 0,-1.06 0,-2.12 -0,-3.18 -0,-0.18 0.06,-0.28 0.21,-0.35 0.24,-0.12 0.35,-0.33 0.37,-0.59 0.01,-0.17 -0.05,-0.23 -0.22,-0.24 -0.32,-0 -0.64,0 -0.96,0 -0.17,0 -0.23,0.07 -0.21,0.24 0.03,0.28 0.15,0.5 0.41,0.61 0.14,0.06 0.18,0.15 0.18,0.3 -0.01,0.52 -0,1.05 -0,1.57l0 0c0,0.47 0,0.93 0,1.4 0,0.1 0,0.2 -0.01,0.3 -0.01,0.09 -0.04,0.14 -0.14,0.09 -0.14,-0.07 -0.28,-0.13 -0.44,-0.14 -0.07,-0.01 -0.12,-0.04 -0.12,-0.11 -0.01,-0.08 0.02,-0.13 0.1,-0.15 0.1,-0.02 0.13,-0.11 0.13,-0.19 -0.02,-0.16 0.07,-0.33 -0.08,-0.47 -0.01,-0.01 -0.02,-0.01 -0.04,-0.02 -0.06,-0.02 -0.1,-0.06 -0.1,-0.13 0,-0.07 0.04,-0.11 0.11,-0.13 0.08,-0.02 0.12,-0.08 0.12,-0.16 0,-0.31 0.01,-0.61 -0,-0.92 -0.01,-0.16 -0.19,-0.32 -0.35,-0.31 -0.16,0 -0.33,0.15 -0.33,0.33 -0.01,0.3 -0,0.59 -0,0.89 0,0.08 0.03,0.15 0.12,0.17 0.07,0.02 0.1,0.06 0.1,0.13 0,0.07 -0.04,0.1 -0.1,0.13 -0.14,0.06 -0.19,0.56 -0.06,0.66 0.02,0.01 0.03,0.02 0.05,0.02 0.14,0.07 0.16,0.27 0.02,0.36 -0.24,0.16 -0.36,0.38 -0.38,0.67 -0,0.09 -0.04,0.16 -0.09,0.23 -0.06,0.08 -0.13,0.16 -0.24,0.16 -0.23,0.01 -0.46,0.05 -0.69,-0.02 -0.1,-0.03 -0.07,-0.54 0.03,-0.57 0.12,-0.04 0.15,-0.12 0.14,-0.23 -0,-0.09 0,-0.19 0,-0.28 -0,-0.09 -0.03,-0.16 -0.12,-0.18 -0.07,-0.02 -0.1,-0.06 -0.1,-0.13 0,-0.07 0.04,-0.11 0.11,-0.13 0.09,-0.02 0.12,-0.09 0.12,-0.17 0,-0.3 0.01,-0.59 0,-0.89 -0,-0.17 -0.17,-0.32 -0.34,-0.32 -0.16,-0 -0.34,0.15 -0.34,0.32 -0.01,0.3 -0,0.6 -0,0.9 0,0.08 0.03,0.15 0.12,0.17 0.07,0.02 0.11,0.05 0.11,0.13 0,0.07 -0.04,0.11 -0.1,0.13 -0.1,0.02 -0.13,0.1 -0.12,0.18 0.02,0.16 -0.07,0.34 0.07,0.48l0 -0zm5.67 1.55c-0.07,-0 -0.1,-0.04 -0.1,-0.11 0,-0.07 0.03,-0.11 0.11,-0.11 0.08,0 0.11,0.04 0.11,0.11 -0,0.08 -0.05,0.11 -0.12,0.1l0 0zm0 -3.63c0.08,-0 0.12,0.04 0.12,0.12 0,0.08 -0.05,0.1 -0.12,0.11 -0.07,0 -0.12,-0.03 -0.11,-0.11 0,-0.07 0.03,-0.12 0.11,-0.12l0 0zm-0.11 0.84c-0.01,-0.09 -0,-0.18 -0,-0.27 0,-0.08 0.05,-0.12 0.13,-0.11 0.07,0 0.11,0.05 0.11,0.12 0,0.04 0,0.08 0,0.13l0 0c0,0.04 0,0.08 0,0.13 -0,0.07 -0.04,0.1 -0.11,0.1 -0.07,0 -0.12,-0.02 -0.13,-0.1l0 0zm-0.01 0.92c0,-0.08 0.04,-0.12 0.12,-0.12 0.08,-0 0.12,0.04 0.12,0.12 0,0.08 -0.04,0.12 -0.12,0.13 -0.09,0 -0.13,-0.04 -0.13,-0.13l0 0zm-0.7 2.25c0.07,0 0.1,0.04 0.1,0.11 0,0.08 -0.04,0.11 -0.12,0.11 -0.07,-0 -0.1,-0.05 -0.09,-0.11 0,-0.07 0.04,-0.1 0.11,-0.1zm-0.94 -0.37c-0.07,0 -0.11,-0.03 -0.11,-0.1 -0,-0.07 0.02,-0.12 0.1,-0.12 0.07,-0 0.11,0.03 0.11,0.1 0,0.07 -0.02,0.12 -0.1,0.12l0 0zm-0.01 -4.45c0.08,0 0.12,0.05 0.12,0.12 0,0.08 -0.05,0.1 -0.12,0.1 -0.07,-0 -0.11,-0.04 -0.11,-0.11 0,-0.07 0.04,-0.11 0.11,-0.11l0 0zm-0.12 0.77c0,-0.03 0,-0.06 0,-0.09 0.02,-0.08 -0.05,-0.22 0.12,-0.22 0.18,0 0.11,0.14 0.13,0.24 0,0.03 0,0.06 0,0.08 -0,0.08 -0.02,0.15 -0.12,0.15 -0.11,0 -0.13,-0.07 -0.13,-0.16l-0 0zm0 0.98c0,-0.08 0.04,-0.12 0.12,-0.12 0.09,-0 0.12,0.05 0.12,0.13 0,0.08 -0.05,0.12 -0.13,0.11 -0.08,-0 -0.12,-0.04 -0.12,-0.12l0 0zm-0.63 1.64c0.15,0 0.19,0.06 0.16,0.21 -0.04,0.15 -0.18,0.27 -0.34,0.27 -0.16,0 -0.31,-0.11 -0.36,-0.26 -0.04,-0.15 0,-0.21 0.16,-0.22 0.07,-0 0.13,0 0.2,0l0 0c0.06,0 0.12,0 0.18,0l-0 0zm-0.64 -5.02c-0.03,-0.1 -0,-0.16 0.11,-0.16 0.12,-0 0.24,0 0.35,0l0 0c0.11,0 0.22,-0 0.32,0 0.12,0 0.16,0.06 0.12,0.17 -0.07,0.18 -0.26,0.31 -0.46,0.31 -0.19,-0 -0.37,-0.13 -0.44,-0.32l0 -0zm-0.5 6.07c-0.07,0 -0.1,-0.04 -0.1,-0.1 0,-0.07 0.04,-0.11 0.11,-0.11 0.07,0 0.1,0.03 0.1,0.1 -0,0.07 -0.04,0.11 -0.11,0.11l0 0zm0.01 -4.45c0.09,0 0.12,0.05 0.12,0.13 0,0.08 -0.05,0.1 -0.12,0.1 -0.07,-0 -0.12,-0.03 -0.11,-0.11 0.01,-0.07 0.04,-0.11 0.11,-0.12l0 0zm-0.13 0.7c0.02,-0.09 -0.04,-0.23 0.12,-0.24 0.18,-0 0.12,0.14 0.12,0.24 0,0.09 0.05,0.23 -0.11,0.23 -0.18,0 -0.11,-0.14 -0.13,-0.24l-0 0zm0 1.06c0,-0.08 0.04,-0.12 0.12,-0.12 0.08,-0 0.12,0.03 0.12,0.12 0,0.09 -0.04,0.13 -0.12,0.13 -0.08,0 -0.12,-0.04 -0.12,-0.12l0 -0zm-0.81 3.07c0.07,0 0.1,0.04 0.1,0.11 0,0.07 -0.03,0.11 -0.1,0.11 -0.07,0 -0.11,-0.04 -0.11,-0.11 0,-0.08 0.04,-0.11 0.12,-0.11l0 -0zm-0.73 -0.48c-0,0.08 -0.05,0.11 -0.12,0.1 -0.07,-0 -0.1,-0.05 -0.1,-0.11 0,-0.08 0.05,-0.11 0.12,-0.1 0.07,0 0.1,0.04 0.1,0.11l0 -0zm-0.1 -3.52c0.07,0 0.11,0.05 0.11,0.11 0.01,0.08 -0.04,0.11 -0.11,0.11 -0.07,0 -0.12,-0.02 -0.12,-0.1 0,-0.08 0.03,-0.12 0.12,-0.12l-0 0zm-0.12 0.77c0,-0.02 0,-0.05 0,-0.09 0.02,-0.08 -0.05,-0.23 0.13,-0.23 0.16,0 0.11,0.14 0.12,0.24 0,0.03 0,0.06 0,0.08 -0,0.08 -0.02,0.15 -0.12,0.15 -0.11,0 -0.13,-0.07 -0.12,-0.16l0 -0zm0.12 0.86c0.08,0 0.12,0.04 0.12,0.12 0,0.08 -0.04,0.12 -0.12,0.12 -0.08,0 -0.12,-0.04 -0.12,-0.12 0,-0.08 0.03,-0.12 0.12,-0.12z"/>
 </g>
</svg>
