<?xml version="1.0" encoding="UTF-8"?>
<!DOCTYPE svg PUBLIC "-//W3C//DTD SVG 1.1//EN" "http://www.w3.org/Graphics/SVG/1.1/DTD/svg11.dtd">
<!-- Creator: CorelDRAW 2021 (64-Bit) -->
<svg xmlns="http://www.w3.org/2000/svg" xml:space="preserve" width="0.32876in" height="0.314965in" version="1.1" style="shape-rendering:geometricPrecision; text-rendering:geometricPrecision; image-rendering:optimizeQuality; fill-rule:evenodd; clip-rule:evenodd"
viewBox="0 0 8.36 8.01"
 xmlns:xlink="http://www.w3.org/1999/xlink"
 xmlns:xodm="http://www.corel.com/coreldraw/odm/2003">
 <defs>
  <style type="text/css">
   <![CDATA[
    .fil0 {fill:#00A0E3;fill-rule:nonzero}
   ]]>
  </style>
 </defs>
 <g id="Layer_x0020_1">
  <metadata id="CorelCorpID_0Corel-Layer"/>
  <path class="fil0" d="M6.49 7.07c0.58,0 1.16,0 1.74,0 0.12,0 0.14,-0.01 0.13,-0.13 -0.05,-0.78 -0.34,-1.42 -1.02,-1.85 -0.05,-0.03 -0.11,-0.05 -0.17,-0.05 -0.45,0 -0.91,0 -1.36,0 -0.07,0 -0.12,0.02 -0.18,0.05 -0.51,0.31 -0.8,0.78 -0.94,1.34 -0.04,0.17 -0.06,0.34 -0.07,0.52 -0,0.11 0.01,0.12 0.12,0.12 0.59,0 1.17,0 1.76,0l0 -0zm1.3 -0.59c0,0.06 -0.01,0.09 -0.06,0.1 -0.05,0.01 -0.09,-0.02 -0.1,-0.06 -0.04,-0.1 -0.08,-0.21 -0.13,-0.3 -0.12,-0.22 -0.27,-0.4 -0.44,-0.58 -0.04,-0.04 -0.05,-0.09 -0,-0.13 0.04,-0.04 0.09,-0.02 0.12,0.01 0.24,0.25 0.45,0.52 0.57,0.85 0.02,0.04 0.03,0.09 0.04,0.12l-0 0zm-5.92 0.59c0.59,0 1.17,0 1.76,0 0.08,0 0.12,-0.02 0.12,-0.11 -0.04,-0.73 -0.3,-1.34 -0.89,-1.79 -0.12,-0.09 -0.25,-0.14 -0.41,-0.14 -0.42,0.01 -0.83,0 -1.25,0 -0.07,0 -0.13,0.01 -0.19,0.05 -0.53,0.33 -0.82,0.82 -0.96,1.41 -0.03,0.15 -0.05,0.3 -0.05,0.45 0,0.11 0.01,0.12 0.12,0.12 0.59,0 1.17,0 1.76,0zm1.3 -0.59c0,0.06 -0.01,0.09 -0.06,0.11 -0.05,0.01 -0.08,-0.01 -0.1,-0.05 -0.04,-0.08 -0.06,-0.17 -0.1,-0.25 -0.12,-0.24 -0.29,-0.44 -0.46,-0.64 -0.04,-0.04 -0.06,-0.09 -0.01,-0.14 0.05,-0.04 0.09,-0.02 0.13,0.02 0.23,0.25 0.44,0.51 0.56,0.83 0.02,0.05 0.03,0.09 0.04,0.12l-0 0zm3.32 -1.61c0.19,0 0.38,-0 0.58,0 0.08,0 0.09,-0.03 0.08,-0.1 -0.05,-0.25 -0.19,-0.44 -0.44,-0.53 -0.08,-0.03 -0.12,-0.07 -0.13,-0.16 -0.04,-0.32 -0.22,-0.54 -0.49,-0.71 -0.52,-0.32 -1.2,-0.28 -1.67,0.11 -0.08,0.07 -0.15,0.14 -0.21,0.23 -0.03,0.05 -0.04,0.06 -0.08,0.01 -0.34,-0.47 -0.81,-0.61 -1.37,-0.53 -0.2,0.03 -0.39,0.1 -0.55,0.22 -0.25,0.17 -0.42,0.41 -0.45,0.72 -0.01,0.06 -0.03,0.09 -0.09,0.11 -0.26,0.09 -0.41,0.26 -0.47,0.53 -0.02,0.1 -0.02,0.11 0.08,0.11 0.38,0.02 0.77,0 1.15,0.01 0.1,0 0.11,-0.02 0.09,-0.12 -0.06,-0.26 -0.21,-0.45 -0.48,-0.53 -0.06,-0.02 -0.08,-0.05 -0.08,-0.11 0.02,-0.18 0.11,-0.32 0.24,-0.44 0.42,-0.4 1.2,-0.4 1.62,0 0.14,0.13 0.23,0.29 0.24,0.49 0,0.07 0.02,0.13 0.11,0.13 0.09,0 0.1,-0.06 0.11,-0.13 0.02,-0.26 0.16,-0.45 0.36,-0.59 0.43,-0.29 1.04,-0.27 1.44,0.05 0.16,0.13 0.26,0.29 0.3,0.5 0.01,0.05 -0,0.08 -0.06,0.1 -0.28,0.08 -0.44,0.26 -0.5,0.54 -0.02,0.09 -0.01,0.11 0.09,0.11 0.2,0 0.39,0 0.59,0l-0 0 -0 -0zm-2.41 -2.74c0,0.41 0,0.81 0,1.21 0,0.03 0,0.05 0,0.08 0,0.05 0.04,0.09 0.09,0.09 0.05,0.01 0.09,-0.03 0.11,-0.07 0.01,-0.03 0.01,-0.07 0.01,-0.1 0,-0.81 0,-1.61 0,-2.42 0,-0.12 0,-0.12 0.12,-0.12 0.15,-0 0.29,0.01 0.44,-0.01 0.13,-0.02 0.22,-0.09 0.28,-0.22 0.06,-0.14 0.13,-0.29 0.19,-0.43 0.04,-0.1 0.02,-0.13 -0.08,-0.13 -0.7,0 -1.4,0 -2.11,0 -0.1,0 -0.11,0.03 -0.08,0.12 0.07,0.16 0.14,0.32 0.21,0.47 0.07,0.14 0.2,0.19 0.35,0.2 0.12,0 0.24,0.01 0.37,0 0.08,-0 0.11,0.02 0.11,0.1 -0,0.41 -0,0.82 -0,1.23l0 -0zm-2.21 5.11c-0.2,0 -0.4,0 -0.59,0 -0.13,0 -0.15,0.02 -0.13,0.15 0.05,0.28 0.21,0.49 0.48,0.58 0.26,0.09 0.5,0.04 0.71,-0.14 0.15,-0.12 0.22,-0.28 0.25,-0.47 0.01,-0.11 -0.01,-0.13 -0.11,-0.13 -0.2,0 -0.4,0 -0.6,0zm4.61 0c-0.2,0 -0.41,0 -0.61,0 -0.09,0 -0.11,0.02 -0.11,0.11 0.02,0.36 0.35,0.66 0.72,0.66 0.36,0 0.69,-0.29 0.72,-0.64 0.01,-0.11 -0.01,-0.13 -0.12,-0.13 -0.2,0 -0.4,0 -0.6,0l-0 0z"/>
 </g>
</svg>
