<?xml version="1.0" encoding="UTF-8"?>
<!DOCTYPE svg PUBLIC "-//W3C//DTD SVG 1.1//EN" "http://www.w3.org/Graphics/SVG/1.1/DTD/svg11.dtd">
<!-- Creator: CorelDRAW 2021 (64-Bit) -->
<svg xmlns="http://www.w3.org/2000/svg" xml:space="preserve" width="0.314925in" height="0.317961in" version="1.1" style="shape-rendering:geometricPrecision; text-rendering:geometricPrecision; image-rendering:optimizeQuality; fill-rule:evenodd; clip-rule:evenodd"
viewBox="0 0 8.75 8.83"
 xmlns:xlink="http://www.w3.org/1999/xlink"
 xmlns:xodm="http://www.corel.com/coreldraw/odm/2003">
 <defs>
  <style type="text/css">
   <![CDATA[
    .str0 {stroke:#00A0E3;stroke-width:0.08;stroke-miterlimit:2.61313}
    .fil0 {fill:#00A0E3;fill-rule:nonzero}
   ]]>
  </style>
 </defs>
 <g id="Layer_x0020_1">
  <metadata id="CorelCorpID_0Corel-Layer"/>
  <path class="fil0 str0" d="M8.21 1.51c-0.04,-0.04 -0.05,-0.04 -0.09,0 -0.04,0.04 -0.09,0.09 -0.13,0.13 -0.23,0.23 -0.46,0.46 -0.69,0.69 -0.28,0.29 -0.56,0.57 -0.85,0.86 -0.3,0.31 -0.61,0.61 -0.91,0.92 -0.28,0.28 -0.55,0.56 -0.82,0.84 -0.27,0.27 -0.53,0.53 -0.8,0.8 -0.18,0.18 -0.35,0.36 -0.53,0.53 -0.23,0.23 -0.45,0.45 -0.68,0.68 -0.35,0.35 -0.7,0.71 -1.05,1.06 -0.05,0.06 -0.11,0.11 -0.16,0.17 -0.02,0.02 -0.05,0.04 -0.02,0.07 0.04,0.04 0.07,0.08 0.11,0.11 0.02,0.02 0.05,0.03 0.08,0 0.03,-0.03 0.06,-0.06 0.09,-0.09 0.25,-0.25 0.49,-0.5 0.73,-0.74 0.34,-0.35 0.69,-0.69 1.03,-1.04 0.2,-0.2 0.4,-0.4 0.59,-0.6 0.21,-0.22 0.43,-0.43 0.64,-0.65 0.18,-0.18 0.35,-0.36 0.53,-0.53 0.21,-0.22 0.43,-0.43 0.64,-0.65 0.35,-0.35 0.69,-0.7 1.04,-1.05 0.23,-0.23 0.46,-0.46 0.69,-0.69 0.21,-0.21 0.42,-0.43 0.64,-0.64 0.02,-0.02 0.03,-0.03 0.03,-0.06 -0,-0.02 -0.02,-0.03 -0.03,-0.04 -0.03,-0.03 -0.06,-0.05 -0.08,-0.08l0 0zm-7.67 5.81c0.04,0.04 0.06,0.03 0.09,-0 0.06,-0.06 0.11,-0.12 0.17,-0.18 0.21,-0.22 0.43,-0.43 0.64,-0.65 0.26,-0.27 0.53,-0.53 0.79,-0.8 0.25,-0.26 0.51,-0.51 0.76,-0.77 0.19,-0.19 0.38,-0.39 0.57,-0.58 0.21,-0.21 0.43,-0.43 0.64,-0.64 0.29,-0.29 0.58,-0.59 0.87,-0.88 0.29,-0.29 0.58,-0.59 0.87,-0.88 0.43,-0.43 0.86,-0.87 1.29,-1.3 0.02,-0.02 0.03,-0.03 0.04,-0.06 -0.01,-0.01 -0.01,-0.01 -0.02,-0.02 -0.03,-0.03 -0.06,-0.07 -0.1,-0.1 -0.04,-0.04 -0.06,-0.04 -0.1,0 -0.06,0.07 -0.13,0.13 -0.19,0.2 -0.32,0.32 -0.64,0.65 -0.96,0.97 -0.36,0.37 -0.73,0.74 -1.09,1.1 -0.33,0.33 -0.65,0.66 -0.98,0.99 -0.2,0.2 -0.39,0.4 -0.59,0.59 -0.31,0.31 -0.61,0.62 -0.92,0.93 -0.3,0.3 -0.6,0.61 -0.9,0.91 -0.24,0.24 -0.48,0.48 -0.71,0.72 -0.09,0.09 -0.18,0.18 -0.27,0.28 -0.03,0.03 -0.03,0.06 -0,0.09 0.03,0.03 0.06,0.06 0.09,0.09l-0 -0zm8.13 -6.02c-0.18,-0.18 -0.35,-0.36 -0.53,-0.54 -0.2,-0.21 -0.41,-0.41 -0.61,-0.62 -0.03,-0.03 -0.05,-0.06 -0.09,-0.08 -0.05,-0.03 -0.11,-0.04 -0.19,0.05 -0.13,0.12 -0.1,0.19 0,0.29 0.22,0.21 0.43,0.43 0.64,0.65 0.17,0.17 0.34,0.34 0.51,0.51 0.06,0.06 0.13,0.06 0.19,0 0.03,-0.03 0.05,-0.05 0.08,-0.08 0.03,-0.03 0.03,-0.06 0.04,-0.09 -0,-0.03 -0.01,-0.06 -0.04,-0.09l-0 -0zm-8.16 6.14c-0.06,-0.06 -0.12,-0.13 -0.19,-0.19 -0.04,-0.03 -0.08,-0.03 -0.12,-0 -0.05,0.03 -0.09,0.08 -0.13,0.13 -0.03,0.04 -0.02,0.11 0.01,0.15 0.13,0.13 0.26,0.26 0.39,0.4 0.14,0.14 0.27,0.27 0.41,0.41 0.14,0.14 0.28,0.28 0.42,0.42 0.05,0.05 0.12,0.05 0.18,-0 0.03,-0.03 0.06,-0.06 0.08,-0.09 0.02,-0.02 0.03,-0.06 0.03,-0.09 0,-0.05 -0.03,-0.09 -0.06,-0.12 -0.34,-0.34 -0.67,-0.68 -1.01,-1.02zm3.85 -2.59c-0.13,-0.14 -0.27,-0.28 -0.41,-0.41 -0.08,-0.07 -0.21,-0.07 -0.28,0 -0.13,0.12 -0.26,0.25 -0.38,0.38 -0.11,0.11 -0.1,0.24 0,0.35 0.12,0.12 0.24,0.24 0.35,0.36 0.09,0.09 0.23,0.1 0.32,0.01 0.13,-0.13 0.26,-0.26 0.39,-0.39 0.04,-0.04 0.06,-0.09 0.06,-0.15 0.01,-0.05 -0.02,-0.1 -0.05,-0.14l0 -0zm-0.15 0.22c-0.08,0.08 -0.16,0.16 -0.24,0.25 -0.03,0.03 -0.07,0.07 -0.1,0.1 -0.03,0.03 -0.07,0.04 -0.1,0.01 -0.12,-0.12 -0.25,-0.25 -0.37,-0.37 -0.04,-0.04 -0.04,-0.07 0,-0.11 0.05,-0.05 0.1,-0.1 0.14,-0.15 0.06,-0.06 0.13,-0.13 0.19,-0.19 0.07,-0.07 0.09,-0.07 0.16,0 0.09,0.09 0.17,0.18 0.26,0.26 0.02,0.02 0.05,0.05 0.07,0.07 0.02,0.02 0.03,0.04 0.03,0.06 -0,0.04 -0.03,0.06 -0.05,0.08l0 0zm-1.68 1.6c0.09,0.09 0.24,0.09 0.33,-0.01 0.11,-0.11 0.23,-0.23 0.34,-0.34 0.05,-0.05 0.09,-0.1 0.09,-0.18 0,-0.06 -0.02,-0.12 -0.06,-0.16 -0.12,-0.13 -0.25,-0.25 -0.37,-0.38 -0.1,-0.1 -0.24,-0.1 -0.34,0 -0.11,0.11 -0.22,0.23 -0.33,0.34 -0.12,0.12 -0.13,0.25 -0.01,0.36 0.12,0.12 0.24,0.24 0.36,0.36l-0 -0zm-0.26 -0.58c0.09,-0.11 0.2,-0.2 0.3,-0.31 0.02,-0.02 0.04,-0.04 0.07,-0.07 0.04,-0.04 0.08,-0.04 0.12,0 0.11,0.11 0.23,0.23 0.34,0.35 0.02,0.02 0.04,0.04 0.04,0.07 0,0.03 -0.02,0.05 -0.04,0.07 -0.11,0.12 -0.23,0.23 -0.34,0.35 -0.03,0.03 -0.08,0.03 -0.11,0 -0.12,-0.12 -0.25,-0.25 -0.37,-0.38 -0.03,-0.03 -0.03,-0.06 -0,-0.09l0 0zm-0.54 0.65c-0.04,-0.04 -0.1,-0.07 -0.17,-0.07 -0.06,-0 -0.11,0.02 -0.15,0.06 -0.13,0.13 -0.26,0.26 -0.38,0.39 -0.08,0.09 -0.09,0.21 0.01,0.31 0.12,0.13 0.24,0.25 0.37,0.37 0.1,0.1 0.23,0.1 0.33,0 0.12,-0.12 0.24,-0.24 0.36,-0.37 0.1,-0.11 0.09,-0.24 -0,-0.33 -0.12,-0.12 -0.24,-0.25 -0.36,-0.37l0 -0zm0.23 0.61c-0.11,0.11 -0.21,0.22 -0.32,0.32 -0.06,0.06 -0.08,0.06 -0.14,0 -0.11,-0.11 -0.22,-0.22 -0.33,-0.33 -0.02,-0.02 -0.04,-0.04 -0.04,-0.06 -0,-0.05 0.03,-0.07 0.05,-0.09 0.11,-0.12 0.23,-0.23 0.34,-0.34 0.04,-0.04 0.08,-0.03 0.11,0 0.11,0.11 0.22,0.22 0.34,0.34 0.06,0.06 0.06,0.09 -0,0.16l0 -0zm5.39 -5.23c0.15,-0.13 0.29,-0.27 0.42,-0.42 0.07,-0.08 0.06,-0.2 -0.01,-0.28 -0.12,-0.13 -0.25,-0.26 -0.38,-0.38 -0.11,-0.11 -0.24,-0.1 -0.34,0.01 -0.11,0.11 -0.22,0.22 -0.33,0.33 -0.05,0.05 -0.09,0.11 -0.09,0.16 0,0.09 0.02,0.14 0.06,0.18 0.12,0.13 0.25,0.26 0.38,0.38 0.08,0.08 0.21,0.09 0.3,0.02l0 0zm-0.56 -0.6c0.08,-0.09 0.17,-0.18 0.26,-0.26 0.04,-0.04 0.07,-0.07 0.11,-0.11 0.03,-0.03 0.07,-0.04 0.1,-0.01 0.13,0.13 0.26,0.25 0.38,0.38 0.02,0.03 0.02,0.05 -0,0.08 -0.13,0.13 -0.25,0.26 -0.38,0.39 -0.01,0.01 -0.03,0.02 -0.04,0.02 -0.04,0 -0.06,-0.02 -0.08,-0.04 -0.12,-0.12 -0.23,-0.24 -0.35,-0.36 -0.03,-0.03 -0.03,-0.06 -0,-0.09l-0 0zm-0.56 1.73c0.13,-0.12 0.26,-0.25 0.38,-0.38 0.1,-0.1 0.1,-0.23 -0,-0.33 -0.12,-0.12 -0.24,-0.25 -0.37,-0.37 -0.09,-0.09 -0.24,-0.08 -0.32,0 -0.13,0.13 -0.25,0.26 -0.38,0.39 -0.04,0.04 -0.06,0.09 -0.06,0.14 -0,0.06 0.02,0.11 0.06,0.16 0.12,0.13 0.25,0.26 0.37,0.38 0.08,0.08 0.21,0.1 0.31,0.01l0 -0zm-0.59 -0.54c0,-0.04 0.03,-0.06 0.05,-0.08 0.11,-0.11 0.22,-0.22 0.34,-0.34 0.04,-0.04 0.08,-0.04 0.12,0 0.11,0.11 0.22,0.22 0.34,0.33 0.06,0.06 0.06,0.09 0,0.15 -0.11,0.11 -0.22,0.22 -0.33,0.34 -0.05,0.05 -0.08,0.05 -0.13,-0 -0.11,-0.11 -0.22,-0.22 -0.33,-0.33 -0.02,-0.02 -0.05,-0.04 -0.05,-0.07l-0 0zm-0.69 1.74c0.06,0 0.1,-0.02 0.14,-0.06 0.13,-0.12 0.26,-0.25 0.38,-0.38 0.1,-0.11 0.1,-0.23 0,-0.33 -0.12,-0.13 -0.25,-0.25 -0.37,-0.37 -0.09,-0.09 -0.22,-0.09 -0.31,-0 -0.13,0.13 -0.26,0.26 -0.39,0.39 -0.08,0.08 -0.08,0.21 0,0.29 0.12,0.13 0.25,0.26 0.38,0.39 0.04,0.04 0.1,0.07 0.17,0.07l0 0zm-0.41 -0.67c0.12,-0.12 0.24,-0.24 0.35,-0.36 0.03,-0.03 0.07,-0.03 0.1,-0 0.12,0.12 0.25,0.25 0.37,0.37 0.01,0.01 0.02,0.03 0.02,0.05 0,0.02 -0.01,0.04 -0.03,0.06 -0.12,0.12 -0.24,0.24 -0.36,0.36 -0.05,0.05 -0.07,0.04 -0.11,-0 -0.11,-0.12 -0.23,-0.23 -0.34,-0.35 -0.05,-0.05 -0.05,-0.07 -0,-0.13l0 0zm3.72 -3.05c0.02,0.02 0.03,0.02 0.05,0 0.11,-0.11 0.21,-0.22 0.32,-0.33 0.01,-0.01 0.01,-0.01 0.01,-0.03 -0.01,-0.01 -0.01,-0.03 -0.03,-0.04 -0.07,-0.07 -0.15,-0.15 -0.22,-0.22 -0.02,-0.02 -0.04,-0.02 -0.06,0 -0.11,0.11 -0.21,0.22 -0.32,0.32 -0.02,0.02 -0.01,0.03 0,0.05 0.08,0.08 0.16,0.16 0.24,0.24l0 0zm-7.76 7.37c-0.01,-0.01 -0.02,-0.02 -0.04,-0.02 -0.01,-0 -0.02,0.01 -0.03,0.02 -0.02,0.02 -0.04,0.04 -0.05,0.06 -0.08,0.09 -0.17,0.17 -0.25,0.26 -0.03,0.03 -0.02,0.05 0,0.08 0.07,0.07 0.15,0.15 0.22,0.22 0.02,0.02 0.04,0.02 0.06,-0 0.1,-0.1 0.2,-0.21 0.31,-0.31 0.03,-0.03 0.03,-0.05 0,-0.07 -0.07,-0.07 -0.15,-0.15 -0.22,-0.22l0 -0zm3.31 -3.3c-0.1,0 -0.18,0.08 -0.18,0.18 -0,0.11 0.07,0.18 0.17,0.18 0.1,0 0.19,-0.09 0.18,-0.18 0,-0.1 -0.08,-0.18 -0.18,-0.18zm-1.13 1.5c0.09,0 0.18,-0.08 0.17,-0.18 0.01,-0.11 -0.1,-0.19 -0.18,-0.18 -0.09,0 -0.18,0.07 -0.17,0.18 0,0.1 0.08,0.18 0.18,0.18l0 -0zm-1.13 0.78c-0.1,0 -0.18,0.08 -0.18,0.17 0,0.11 0.08,0.19 0.18,0.19 0.1,0 0.18,-0.08 0.18,-0.19 0,-0.1 -0.08,-0.18 -0.17,-0.18l0 0zm5.82 -5.52c0,-0.1 -0.08,-0.18 -0.17,-0.18 -0.1,-0 -0.18,0.08 -0.18,0.18 -0,0.1 0.08,0.18 0.18,0.18 0.1,-0 0.18,-0.08 0.17,-0.18l0 0zm-1.13 1.14c0,-0.1 -0.08,-0.19 -0.18,-0.18 -0.09,0 -0.18,0.07 -0.18,0.18 -0.01,0.11 0.09,0.18 0.17,0.19 0.1,0 0.18,-0.08 0.18,-0.18l0 0zm-1.13 1.14c0,-0.1 -0.07,-0.18 -0.18,-0.18 -0.1,-0 -0.18,0.07 -0.18,0.17 0,0.11 0.07,0.19 0.17,0.19 0.1,0 0.18,-0.08 0.18,-0.18l0 0z"/>
 </g>
</svg>
