<?xml version="1.0" encoding="UTF-8"?>
<!DOCTYPE svg PUBLIC "-//W3C//DTD SVG 1.1//EN" "http://www.w3.org/Graphics/SVG/1.1/DTD/svg11.dtd">
<!-- Creator: CorelDRAW 2021 (64-Bit) -->
<svg xmlns="http://www.w3.org/2000/svg" xml:space="preserve" width="0.400638in" height="0.155457in" version="1.1" style="shape-rendering:geometricPrecision; text-rendering:geometricPrecision; image-rendering:optimizeQuality; fill-rule:evenodd; clip-rule:evenodd"
viewBox="0 0 16.3 6.33"
 xmlns:xlink="http://www.w3.org/1999/xlink"
 xmlns:xodm="http://www.corel.com/coreldraw/odm/2003">
 <defs>
  <style type="text/css">
   <![CDATA[
    .str0 {stroke:#00A0E3;stroke-width:0.28;stroke-linecap:round;stroke-linejoin:round;stroke-miterlimit:2.61313}
    .fil0 {fill:none}
   ]]>
  </style>
 </defs>
 <g id="Layer_x0020_1">
  <metadata id="CorelCorpID_0Corel-Layer"/>
  <path class="fil0 str0" d="M4.62 5.66c0.18,0 0.33,-0.15 0.33,-0.33 0,-0.18 -0.15,-0.33 -0.33,-0.33 -0.18,0 -0.33,0.15 -0.33,0.33 0,0.18 0.15,0.33 0.33,0.33zm-0.48 -0.87l1.02 0 0 0.5 0.09 0 0 0.09 -0.09 0 0 0.5 -1.09 0 0 -0.5 -0.09 0 0 -0.09 0.09 0 0 -0.5 0.06 0zm0.89 0.13l-0.83 0 0 0.83 0.83 0 0 -0.83zm2.54 0.74c0.18,0 0.33,-0.15 0.33,-0.33 0,-0.18 -0.15,-0.33 -0.33,-0.33 -0.18,0 -0.33,0.15 -0.33,0.33 0,0.18 0.15,0.33 0.33,0.33zm-0.48 -0.87l1.02 0 0 0.5 0.09 0 0 0.09 -0.09 0 0 0.5 -1.09 0 0 -0.5 -0.09 0 0 -0.09 0.09 0 0 -0.5 0.06 0zm0.89 0.13l-0.83 0 0 0.83 0.83 0 0 -0.83zm2.54 0.74c0.18,0 0.33,-0.15 0.33,-0.33 0,-0.18 -0.15,-0.33 -0.33,-0.33 -0.18,0 -0.33,0.15 -0.33,0.33 0,0.18 0.15,0.33 0.33,0.33zm-0.48 -0.87l1.02 0 0 0.5 0.09 0 0 0.09 -0.09 0 0 0.5 -1.09 0 0 -0.5 -0.09 0 0 -0.09 0.09 0 0 -0.5 0.06 0zm0.89 0.13l-0.83 0 0 0.83 0.83 0 0 -0.83zm2.54 0.74c0.18,0 0.33,-0.15 0.33,-0.33 0,-0.18 -0.15,-0.33 -0.33,-0.33 -0.18,0 -0.33,0.15 -0.33,0.33 0,0.18 0.15,0.33 0.33,0.33zm-0.48 -0.87l1.02 0 0 0.5 0.09 0 0 0.09 -0.09 0 0 0.5 -1.09 0 0 -0.5 -0.09 0 0 -0.09 0.09 0 0 -0.5 0.06 0zm0.89 0.13l-0.83 0 0 0.83 0.83 0 0 -0.83zm-12.23 0.74c0.18,0 0.33,-0.15 0.33,-0.33 0,-0.18 -0.15,-0.33 -0.33,-0.33 -0.18,0 -0.33,0.15 -0.33,0.33 0,0.18 0.15,0.33 0.33,0.33zm-0.48 -0.87l1.02 0 0 0.5 0.09 0 0 0.09 -0.09 0 0 0.5 -1.09 0 0 -0.5 -0.09 0 0 -0.09 0.09 0 0 -0.5 0.06 0zm0.89 0.13l-0.83 0 0 0.83 0.83 0 0 -0.83zm1.76 -1.43c0.18,0 0.33,-0.15 0.33,-0.33 0,-0.18 -0.15,-0.33 -0.33,-0.33 -0.18,0 -0.33,0.15 -0.33,0.33 0,0.18 0.15,0.33 0.33,0.33zm-0.48 -0.87l1.02 0 0 0.5 0.09 0 0 0.09 -0.09 0 0 0.5 -1.09 0 0 -0.5 -0.09 0 0 -0.09 0.09 0 0 -0.5 0.06 0zm0.89 0.13l-0.83 0 0 0.83 0.83 0 0 -0.83zm2.54 0.74c0.18,0 0.33,-0.15 0.33,-0.33 0,-0.18 -0.15,-0.33 -0.33,-0.33 -0.18,0 -0.33,0.15 -0.33,0.33 0,0.18 0.15,0.33 0.33,0.33zm-0.48 -0.87l1.02 0 0 0.5 0.09 0 0 0.09 -0.09 0 0 0.5 -1.09 0 0 -0.5 -0.09 0 0 -0.09 0.09 0 0 -0.5 0.06 0zm0.89 0.13l-0.83 0 0 0.83 0.83 0 0 -0.83zm2.54 0.74c0.18,0 0.33,-0.15 0.33,-0.33 0,-0.18 -0.15,-0.33 -0.33,-0.33 -0.18,0 -0.33,0.15 -0.33,0.33 0,0.18 0.15,0.33 0.33,0.33zm-0.48 -0.87l1.02 0 0 0.5 0.09 0 0 0.09 -0.09 0 0 0.5 -1.09 0 0 -0.5 -0.09 0 0 -0.09 0.09 0 0 -0.5 0.06 0zm0.89 0.13l-0.83 0 0 0.83 0.83 0 0 -0.83zm2.54 0.74c0.18,0 0.33,-0.15 0.33,-0.33 0,-0.18 -0.15,-0.33 -0.33,-0.33 -0.18,0 -0.33,0.15 -0.33,0.33 0,0.18 0.15,0.33 0.33,0.33zm-0.48 -0.87l1.02 0 0 0.5 0.09 0 0 0.09 -0.09 0 0 0.5 -1.09 0 0 -0.5 -0.09 0 0 -0.09 0.09 0 0 -0.5 0.06 0zm0.89 0.13l-0.83 0 0 0.83 0.83 0 0 -0.83zm-8.07 -1.43c0.18,0 0.33,-0.15 0.33,-0.33 0,-0.18 -0.15,-0.33 -0.33,-0.33 -0.18,0 -0.33,0.15 -0.33,0.33 0,0.18 0.15,0.33 0.33,0.33zm-0.48 -0.87l1.02 0 0 0.5 0.09 0 0 0.09 -0.09 0 0 0.5 -1.09 0 0 -0.5 -0.09 0 0 -0.09 0.09 0 0 -0.5 0.06 0zm0.89 0.13l-0.83 0 0 0.83 0.83 0 0 -0.83zm2.54 0.74c0.18,0 0.33,-0.15 0.33,-0.33 0,-0.18 -0.15,-0.33 -0.33,-0.33 -0.18,0 -0.33,0.15 -0.33,0.33 0,0.18 0.15,0.33 0.33,0.33zm-0.48 -0.87l1.02 0 0 0.5 0.09 0 0 0.09 -0.09 0 0 0.5 -1.09 0 0 -0.5 -0.09 0 0 -0.09 0.09 0 0 -0.5 0.06 0zm0.89 0.13l-0.83 0 0 0.83 0.83 0 0 -0.83zm2.54 0.74c0.18,0 0.33,-0.15 0.33,-0.33 0,-0.18 -0.15,-0.33 -0.33,-0.33 -0.18,0 -0.33,0.15 -0.33,0.33 0,0.18 0.15,0.33 0.33,0.33zm-0.48 -0.87l1.02 0 0 0.5 0.09 0 0 0.09 -0.09 0 0 0.5 -1.09 0 0 -0.5 -0.09 0 0 -0.09 0.09 0 0 -0.5 0.06 0zm0.89 0.13l-0.83 0 0 0.83 0.83 0 0 -0.83zm-8.37 3.44c-0.51,0 -0.98,-0.13 -1.31,-0.33 -0.35,-0.21 -0.57,-0.51 -0.57,-0.84l0 -1.54c0,-0.33 0.22,-0.63 0.57,-0.84 0.34,-0.2 0.8,-0.33 1.31,-0.33l9.87 0 0 0.16 -9.87 0c-0.48,0 -0.92,0.12 -1.23,0.31 -0.3,0.18 -0.49,0.43 -0.49,0.7 0,0.26 0.17,0.5 0.45,0.67 0.16,-0.09 0.35,-0.17 0.56,-0.22 0.22,-0.05 0.46,-0.08 0.71,-0.08l9.87 0 0 0.16 -9.87 0c-0.24,0 -0.46,0.03 -0.67,0.08 -0.16,0.04 -0.3,0.09 -0.43,0.16 0.3,0.15 0.68,0.24 1.1,0.24l11.28 0c0.51,0 0.98,0.13 1.31,0.33 0.35,0.21 0.57,0.51 0.57,0.84l0 1.54c0,0.33 -0.22,0.63 -0.57,0.84 -0.34,0.2 -0.8,0.33 -1.31,0.33l-14.14 0 0 -0.16 14.14 0c0.48,0 0.92,-0.12 1.23,-0.31 0.3,-0.18 0.49,-0.43 0.49,-0.7l0 -1.06c-0.1,0.14 -0.24,0.26 -0.4,0.36 -0.34,0.2 -0.8,0.33 -1.31,0.33l-14.14 0 0 -0.16 14.14 0c0.42,0 0.8,-0.09 1.1,-0.24 -0.13,-0.06 -0.28,-0.12 -0.43,-0.16 -0.21,-0.05 -0.43,-0.08 -0.67,-0.08l-11.28 0zm-1.72 -1.17c0,0.27 0.19,0.52 0.49,0.7 0.31,0.19 0.75,0.31 1.23,0.31l11.28 0c0.25,0 0.49,0.03 0.71,0.08 0.21,0.05 0.4,0.13 0.56,0.22 0.28,-0.18 0.45,-0.42 0.45,-0.67 0,-0.27 -0.19,-0.52 -0.49,-0.7 -0.31,-0.19 -0.75,-0.31 -1.23,-0.31l-11.28 0c-0.51,0 -0.98,-0.13 -1.31,-0.33 -0.17,-0.1 -0.31,-0.22 -0.4,-0.36l0 1.06z"/>
 </g>
</svg>
