<?xml version="1.0" encoding="UTF-8"?>
<!DOCTYPE svg PUBLIC "-//W3C//DTD SVG 1.1//EN" "http://www.w3.org/Graphics/SVG/1.1/DTD/svg11.dtd">
<!-- Creator: CorelDRAW 2021 (64-Bit) -->
<svg xmlns="http://www.w3.org/2000/svg" xml:space="preserve" width="0.24176in" height="0.358264in" version="1.1" style="shape-rendering:geometricPrecision; text-rendering:geometricPrecision; image-rendering:optimizeQuality; fill-rule:evenodd; clip-rule:evenodd"
viewBox="0 0 7.2 10.68"
 xmlns:xlink="http://www.w3.org/1999/xlink"
 xmlns:xodm="http://www.corel.com/coreldraw/odm/2003">
 <defs>
  <style type="text/css">
   <![CDATA[
    .str0 {stroke:#00A0E3;stroke-width:0.12;stroke-miterlimit:2.61313}
    .fil0 {fill:#00A0E3;fill-rule:nonzero}
   ]]>
  </style>
 </defs>
 <g id="Layer_x0020_1">
  <metadata id="CorelCorpID_0Corel-Layer"/>
  <path class="fil0 str0" d="M6.86 3.2c-0.39,-0.97 -0.78,-1.95 -1.19,-2.91 -0.08,-0.18 -0.18,-0.24 -0.36,-0.23 -0.15,0.01 -0.3,0 -0.45,0 -0.98,0 -1.95,0 -2.93,0 -0.14,0 -0.29,-0.01 -0.36,0.16 -0.06,0.16 -0.13,0.31 -0.2,0.47 -0.2,0.48 -0.4,0.95 -0.6,1.43 -0.23,0.56 -0.46,1.12 -0.68,1.68 -0.08,0.19 -0.01,0.3 0.2,0.32 0.1,0.01 0.19,0.01 0.29,0.01 0.73,0 1.46,0 2.19,0 0.31,0 0.33,0.02 0.33,0.32 0,0.31 0,0.61 0,0.92 0,0.15 0.02,0.3 0.06,0.45 0.15,0.61 0.49,1.07 1.02,1.4 0.32,0.2 0.51,0.5 0.44,0.9 -0.06,0.33 -0.28,0.55 -0.59,0.64 -0.39,0.1 -0.69,0.28 -0.85,0.66 -0.06,0.16 -0.18,0.2 -0.34,0.2 -0.46,-0.01 -0.93,0 -1.39,0 -0.38,0 -0.65,0.18 -0.82,0.51 -0.16,0.31 -0.07,0.49 0.28,0.49 0.89,0 1.79,0 2.68,0 0.91,0 1.82,0 2.72,0 0.32,0 0.42,-0.16 0.28,-0.45 -0.16,-0.36 -0.44,-0.55 -0.83,-0.55 -0.19,-0 -0.38,0 -0.57,-0 -0.08,0 -0.18,0.02 -0.22,-0.07 -0.05,-0.1 0.06,-0.14 0.11,-0.19 0.88,-0.89 0.65,-2.27 -0.31,-2.86 -0.47,-0.29 -0.72,-0.69 -0.67,-1.26 0.02,-0.22 0,-0.45 0,-0.68 0,-0.42 0,-0.43 0.44,-0.42 0.77,0 1.54,0.01 2.31,0.01 0.3,0 0.36,-0.12 0.24,-0.39 -0.08,-0.18 -0.16,-0.36 -0.23,-0.54l0 0.01zm-1.09 6.74c0.16,0 0.3,0.03 0.4,0.16 0.08,0.1 0.06,0.16 -0.06,0.19 -0.06,0.02 -0.12,0.01 -0.18,0.01 -0.78,0 -1.55,0 -2.33,0 0,0 0,0 0,0 -0.78,0 -1.55,0 -2.33,0 -0.1,0 -0.26,0.04 -0.28,-0.1 -0.02,-0.14 0.12,-0.21 0.26,-0.24 0.07,-0.02 0.13,-0.02 0.2,-0.02 1.44,0 2.88,0 4.31,0l0 -0zm-1.23 -3.23c0.49,0.31 0.76,0.74 0.78,1.5 0.02,0.39 -0.4,1.06 -1,1.26 -0.22,0.07 -0.42,0.16 -0.65,0.14 -0.18,-0.02 -0.22,-0.09 -0.11,-0.24 0.1,-0.15 0.25,-0.24 0.43,-0.28 0.4,-0.09 0.7,-0.31 0.87,-0.7 0.2,-0.47 0.05,-1.03 -0.38,-1.33 -0.3,-0.21 -0.59,-0.41 -0.79,-0.73 -0.15,-0.24 -0.26,-0.5 -0.27,-0.78 -0.01,-0.4 -0.01,-0.79 -0.01,-1.19 0,-0.12 0.03,-0.22 0.18,-0.21 0.15,0 0.18,0.1 0.18,0.22 0,0.35 0,0.7 0.01,1.04 0.01,0.57 0.27,1 0.76,1.3l-0 -0zm1.86 -2.89c-0.94,0 -1.87,0 -2.8,0l0 -0c-0.94,0 -1.88,0 -2.82,0 -0.29,0 -0.33,-0.08 -0.22,-0.35 0.39,-0.96 0.79,-1.91 1.18,-2.87 0.06,-0.14 0.15,-0.21 0.29,-0.21 1.05,0 2.1,0 3.15,0 0.12,0 0.22,0.04 0.27,0.15 0.24,0.58 0.48,1.16 0.71,1.74 0.14,0.35 0.28,0.71 0.43,1.06 0.02,0.05 0.05,0.1 0.06,0.15 0.1,0.28 0.06,0.33 -0.24,0.33l-0 -0z"/>
 </g>
</svg>
