<?xml version="1.0" encoding="UTF-8"?>
<!DOCTYPE svg PUBLIC "-//W3C//DTD SVG 1.1//EN" "http://www.w3.org/Graphics/SVG/1.1/DTD/svg11.dtd">
<!-- Creator: CorelDRAW 2021 (64-Bit) -->
<svg xmlns="http://www.w3.org/2000/svg" xml:space="preserve" width="0.358264in" height="0.358272in" version="1.1" style="shape-rendering:geometricPrecision; text-rendering:geometricPrecision; image-rendering:optimizeQuality; fill-rule:evenodd; clip-rule:evenodd"
viewBox="0 0 19.29 19.29"
 xmlns:xlink="http://www.w3.org/1999/xlink"
 xmlns:xodm="http://www.corel.com/coreldraw/odm/2003">
 <defs>
  <style type="text/css">
   <![CDATA[
    .str0 {stroke:#00A0E3;stroke-width:0.21;stroke-miterlimit:2.61313}
    .fil0 {fill:#00A0E3;fill-rule:nonzero}
   ]]>
  </style>
 </defs>
 <g id="Layer_x0020_1">
  <metadata id="CorelCorpID_0Corel-Layer"/>
  <path class="fil0 str0" d="M16.83 2.95c-0.32,-0.21 -0.44,-0.43 -0.43,-0.78 0,-0.52 0,-1.04 0,-1.55 0,-0.33 -0.16,-0.51 -0.49,-0.51 -0.9,-0 -1.8,-0 -2.7,0 -0.28,0 -0.46,0.14 -0.45,0.42 0.02,0.42 -0.19,0.52 -0.56,0.55 -1.57,0.13 -3.09,0.53 -4.49,1.25 -1.84,0.95 -3.35,2.3 -4.47,4.04 -1.27,1.96 -1.89,4.13 -1.9,6.47 -0,0.86 -0.02,1.73 0.01,2.59 0.02,0.47 -0.13,0.77 -0.55,1.01 -0.6,0.34 -0.84,1.13 -0.59,1.71 0.29,0.68 0.81,1.04 1.55,1.04 1.04,0 2.07,0 3.11,0 0,0 0,0 0,0 1.07,0 2.15,0.01 3.22,0 0.78,-0.01 1.47,-0.66 1.51,-1.4 0.05,-0.78 -0.53,-1.52 -1.33,-1.6 -0.38,-0.04 -0.51,-0.19 -0.51,-0.56 -0,-0.65 -0.08,-0.71 -0.74,-0.71 -0.09,0 -0.17,0 -0.26,0 -0.72,-0 -0.78,0.04 -0.79,0.77 -0.01,0.35 -0.15,0.48 -0.5,0.47 -0.62,-0.02 -1.23,-0.02 -1.85,0 -0.35,0.01 -0.49,-0.12 -0.48,-0.47 0.01,-1.04 0.02,-2.07 0,-3.11 -0.02,-0.93 0.14,-1.83 0.41,-2.7 0.45,-1.45 1.18,-2.75 2.23,-3.86 0.93,-0.99 2.02,-1.75 3.26,-2.31 0.75,-0.34 1.53,-0.53 2.32,-0.72 0.19,-0.05 0.45,-0.15 0.55,0.03 0.1,0.18 -0.14,0.33 -0.28,0.46 -1.23,1.11 -1.72,2.51 -1.66,4.14 0.01,0.31 0.18,0.47 0.49,0.47 0.42,0.01 0.84,0.04 1.26,0 0.52,-0.05 0.79,0.14 0.97,0.62 0.29,0.76 1.13,1.28 1.94,1.22 0.85,-0.06 1.51,-0.47 1.85,-1.26 0.18,-0.42 0.41,-0.63 0.89,-0.58 0.43,0.04 0.86,0.01 1.3,0.01 0.32,0 0.51,-0.15 0.52,-0.49 0.05,-1.97 -0.66,-3.56 -2.34,-4.65l-0 -0.01zm-9.96 12.54c0.21,0 0.31,0.11 0.31,0.32 0,0.21 -0.1,0.32 -0.31,0.32 -0.23,0 -0.34,-0.11 -0.33,-0.34 0.01,-0.22 0.13,-0.3 0.33,-0.3l0 -0zm0.93 1.22c0.31,0 0.64,-0.02 0.9,0.25 0.31,0.32 0.42,0.66 0.27,1.03 -0.14,0.35 -0.51,0.6 -0.93,0.6 -1.06,0 -2.12,0 -3.18,0l0 0.01c-1.06,0 -2.12,0.01 -3.18,0 -0.59,-0.01 -0.99,-0.39 -1,-0.91 -0.01,-0.48 0.32,-0.89 0.8,-0.95 0.29,-0.03 0.59,-0.02 0.89,-0.02 1.81,-0 3.62,-0.01 5.43,-0l-0 -0zm1.09 -13.57c-1.5,0.67 -2.79,1.59 -3.85,2.85 -0.97,1.16 -1.67,2.47 -2.08,3.92 -0.28,1.01 -0.43,2.05 -0.4,3.11 0.02,0.89 0.01,1.78 0,2.66 0,0.14 0.02,0.3 -0.13,0.4 -0.23,0.16 -0.51,0 -0.52,-0.33 -0.01,-0.7 -0,-1.41 -0,-2.11 -0.03,-1.16 0.02,-2.31 0.29,-3.45 0.32,-1.39 0.91,-2.65 1.71,-3.82 0.87,-1.26 1.97,-2.3 3.27,-3.11 1.01,-0.63 2.09,-1.09 3.26,-1.35 0.59,-0.13 1.17,-0.3 1.79,-0.28 0.22,0.01 0.47,-0.05 0.5,0.28 0.02,0.31 -0.21,0.35 -0.44,0.37 -1.17,0.13 -2.3,0.36 -3.39,0.85l0 -0.01zm7.05 5.37c-0.29,0.5 -0.7,0.81 -1.3,0.84 -0.63,0.03 -1.09,-0.26 -1.42,-0.77 -0.2,-0.31 -0.12,-0.46 0.24,-0.48 0.37,-0.02 0.74,-0.01 1.11,-0.01 0,0 0,0 0,0 0.38,0 0.76,-0.01 1.14,0 0.28,0.01 0.38,0.14 0.23,0.41l0 0zm2.17 -1.01c-1.18,0 -2.37,0 -3.55,0l0 0c-1.17,0 -2.34,0 -3.51,0 -0.44,0 -0.53,-0.09 -0.51,-0.52 0.08,-1.55 0.77,-2.76 2.09,-3.56 0.5,-0.3 0.76,-0.64 0.69,-1.24 -0.05,-0.38 -0.01,-0.76 -0.01,-1.14 0,-0.24 0.11,-0.36 0.36,-0.36 0.59,0 1.18,0 1.77,0 0.27,0 0.38,0.13 0.37,0.39 0,0.51 0.01,1.01 0,1.51 -0,0.3 0.09,0.49 0.38,0.64 1.48,0.81 2.3,2.07 2.38,3.77 0.02,0.43 -0.04,0.5 -0.48,0.5l0.01 -0z"/>
 </g>
</svg>
