<?xml version="1.0" encoding="UTF-8"?>
<!DOCTYPE svg PUBLIC "-//W3C//DTD SVG 1.1//EN" "http://www.w3.org/Graphics/SVG/1.1/DTD/svg11.dtd">
<!-- Creator: CorelDRAW 2021 (64-Bit) -->
<svg xmlns="http://www.w3.org/2000/svg" xml:space="preserve" width="0.314961in" height="0.314961in" version="1.1" style="shape-rendering:geometricPrecision; text-rendering:geometricPrecision; image-rendering:optimizeQuality; fill-rule:evenodd; clip-rule:evenodd"
viewBox="0 0 28.66 28.66"
 xmlns:xlink="http://www.w3.org/1999/xlink"
 xmlns:xodm="http://www.corel.com/coreldraw/odm/2003">
 <defs>
  <style type="text/css">
   <![CDATA[
    .fil0 {fill:#00A0E3;fill-rule:nonzero}
   ]]>
  </style>
 </defs>
 <g id="Layer_x0020_1">
  <metadata id="CorelCorpID_0Corel-Layer"/>
  <g id="_1808170986720">
   <path class="fil0" d="M14.33 15.25c0.86,0 1.58,-0.59 1.78,-1.39l-3.57 0c0.21,0.8 0.92,1.39 1.78,1.39z"/>
   <polygon class="fil0" points="13.87,16.64 14.79,16.64 14.79,18.49 13.87,18.49 "/>
   <polygon class="fil0" points="16.31,16.04 16.96,15.39 18.35,16.77 17.7,17.43 "/>
   <polygon class="fil0" points="10.3,16.77 11.69,15.39 12.34,16.04 10.95,17.43 "/>
   <polygon class="fil0" points="5.55,11.09 6.47,11.09 6.47,13.87 5.55,13.87 "/>
   <path class="fil0" d="M6.01 25.42c0.86,0 1.58,-0.59 1.78,-1.39l-3.57 0c0.21,0.8 0.92,1.39 1.78,1.39z"/>
   <polygon class="fil0" points="5.55,26.81 6.47,26.81 6.47,28.66 5.55,28.66 "/>
   <polygon class="fil0" points="7.99,26.21 8.64,25.55 10.03,26.94 9.38,27.59 "/>
   <polygon class="fil0" points="1.98,26.94 3.37,25.55 4.02,26.21 2.63,27.59 "/>
   <polygon class="fil0" points="22.19,11.09 23.11,11.09 23.11,13.87 22.19,13.87 "/>
   <path class="fil0" d="M22.65 25.42c0.86,0 1.58,-0.59 1.78,-1.39l-3.57 0c0.21,0.8 0.92,1.39 1.78,1.39z"/>
   <polygon class="fil0" points="22.19,26.81 23.11,26.81 23.11,28.66 22.19,28.66 "/>
   <polygon class="fil0" points="24.63,26.21 25.28,25.56 26.67,26.94 26.01,27.6 "/>
   <polygon class="fil0" points="18.62,26.94 20,25.56 20.66,26.21 19.27,27.6 "/>
   <polygon class="fil0" points="-0,0 -0,0.92 5.55,0.92 5.55,9.24 6.47,9.24 6.47,0.92 13.87,0.92 13.87,3.7 14.79,3.7 14.79,0.92 22.19,0.92 22.19,9.24 23.11,9.24 23.11,0.92 28.66,0.92 28.66,0 "/>
   <polygon class="fil0" points="12.73,7.4 15.93,7.4 14.33,4.99 "/>
   <path class="fil0" d="M9.29 12.56c-0.03,0.04 -0.04,0.09 -0.04,0.14 0,0.14 0.11,0.25 0.25,0.25l9.67 0c0.14,0 0.25,-0.11 0.25,-0.25 0,-0.05 -0.01,-0.1 -0.04,-0.14l-2.82 -4.24 -4.44 0 -2.82 4.24z"/>
   <polygon class="fil0" points="7.61,17.56 6.01,15.16 4.41,17.56 "/>
   <path class="fil0" d="M8.23 18.49l-4.44 0 -2.82 4.24c-0.03,0.04 -0.04,0.09 -0.04,0.14 0,0.14 0.11,0.25 0.25,0.25l9.67 0c0.14,0 0.25,-0.11 0.25,-0.25 0,-0.05 -0.01,-0.1 -0.04,-0.14l-2.83 -4.24z"/>
   <path class="fil0" d="M24.87 18.49l-4.44 0 -2.83 4.24c-0.03,0.04 -0.04,0.09 -0.04,0.14 0,0.14 0.11,0.25 0.25,0.25l9.67 0c0.14,0 0.25,-0.11 0.25,-0.25 0,-0.05 -0.01,-0.1 -0.04,-0.14l-2.82 -4.24z"/>
   <polygon class="fil0" points="24.25,17.56 22.65,15.16 21.05,17.56 "/>
  </g>
 </g>
</svg>
