<?xml version="1.0" encoding="UTF-8"?>
<!DOCTYPE svg PUBLIC "-//W3C//DTD SVG 1.1//EN" "http://www.w3.org/Graphics/SVG/1.1/DTD/svg11.dtd">
<!-- Creator: CorelDRAW 2021 (64-Bit) -->
<svg xmlns="http://www.w3.org/2000/svg" xml:space="preserve" width="0.31026in" height="0.315748in" version="1.1" style="shape-rendering:geometricPrecision; text-rendering:geometricPrecision; image-rendering:optimizeQuality; fill-rule:evenodd; clip-rule:evenodd"
viewBox="0 0 51.14 52.05"
 xmlns:xlink="http://www.w3.org/1999/xlink"
 xmlns:xodm="http://www.corel.com/coreldraw/odm/2003">
 <defs>
  <style type="text/css">
   <![CDATA[
    .str0 {stroke:#00A0E3;stroke-width:0.49;stroke-miterlimit:2.61313}
    .fil1 {fill:none;fill-rule:nonzero}
    .fil0 {fill:#00A0E3}
   ]]>
  </style>
 </defs>
 <g id="Layer_x0020_1">
  <metadata id="CorelCorpID_0Corel-Layer"/>
  <g>
   <path class="fil0" d="M16.61 33.76l17.93 0c0.86,0 1.57,0.7 1.57,1.57l0 10.12c0,0.86 -0.7,1.57 -1.57,1.57l-17.93 0c-0.86,0 -1.57,-0.7 -1.57,-1.57l0 -10.12c0,-0.86 0.7,-1.57 1.57,-1.57zm1.72 3.87l14.49 0c0.36,0 0.65,0.29 0.65,0.65l0 4.21c0,0.36 -0.29,0.65 -0.65,0.65l-14.49 0c-0.36,0 -0.65,-0.29 -0.65,-0.65l0 -4.21c0,-0.36 0.29,-0.65 0.65,-0.65zm4.97 -10.3l4.56 0c0.26,0 0.47,0.21 0.47,0.47l0 3.73c0,0.26 -0.21,0.47 -0.47,0.47l-4.56 0c-0.26,0 -0.47,-0.21 -0.47,-0.47l0 -3.73c0,-0.26 0.21,-0.47 0.47,-0.47zm-14.36 -27.27l33.29 0c1,0 1.82,0.69 1.82,1.53l0 9.09c0,0.91 0.74,1.65 1.65,1.65l0.96 0c1.22,0 2.33,0.5 3.13,1.3l0 0c0.8,0.8 1.3,1.91 1.3,3.13l0 30.79c0,1.22 -0.5,2.33 -1.3,3.13l-0 0c-0.8,0.8 -1.91,1.3 -3.13,1.3l-21.07 0 -21.07 0c-1.22,0 -2.33,-0.5 -3.14,-1.3 -0.8,-0.8 -1.3,-1.91 -1.3,-3.14l0 -30.79c0,-1.22 0.5,-2.33 1.3,-3.14 0.8,-0.8 1.91,-1.3 3.14,-1.3l0.96 0c0.91,0 1.65,-0.74 1.65,-1.65l0 -9.09c0,-0.84 0.82,-1.53 1.82,-1.53zm35.1 15.54l0 9.09c0,0.84 -0.82,1.53 -1.82,1.53l-33.29 0c-1,0 -1.82,-0.69 -1.82,-1.53l0 -9.09c0,-0.91 -0.74,-1.65 -1.65,-1.65l-0.96 0c-0.77,0 -1.47,0.31 -1.97,0.82 -0.51,0.51 -0.82,1.21 -0.82,1.97l0 30.79c0,0.77 0.31,1.47 0.82,1.97 0.51,0.51 1.21,0.82 1.97,0.82l21.07 0 21.07 0c0.77,0 1.47,-0.31 1.97,-0.82l0 -0c0.5,-0.5 0.82,-1.2 0.82,-1.97l0 -30.79c0,-0.77 -0.31,-1.47 -0.82,-1.97l-0 -0c-0.5,-0.5 -1.2,-0.82 -1.97,-0.82l-0.96 0c-0.91,0 -1.65,0.74 -1.65,1.65zm-22.55 -5.73l8.18 0 6.83 -5.03c0.21,-0.15 0.28,-0.39 0.18,-0.61 -0.1,-0.22 -0.34,-0.36 -0.61,-0.36l-20.97 0c-0.28,0 -0.52,0.14 -0.61,0.36 -0.1,0.22 -0.03,0.45 0.18,0.61l6.83 5.03zm9.17 0.73l0 5.06 7.05 5.19c0.2,0.15 0.46,0.18 0.7,0.09 0.24,-0.09 0.39,-0.28 0.39,-0.5l0 -14.62c0,-0.22 -0.15,-0.41 -0.39,-0.5 -0.24,-0.09 -0.51,-0.06 -0.7,0.09l-7.05 5.19zm-0.99 5.79l-8.18 0 -6.83 5.03c-0.21,0.15 -0.28,0.39 -0.18,0.61 0.1,0.22 0.34,0.36 0.61,0.36l20.97 0c0.28,0 0.52,-0.14 0.61,-0.36 0.1,-0.22 0.03,-0.45 -0.18,-0.61l-6.83 -5.03zm-9.17 -0.73l0 -5.06 -7.05 -5.19c-0.2,-0.15 -0.46,-0.18 -0.7,-0.09 -0.24,0.09 -0.39,0.28 -0.39,0.5l0 14.62c0,0.22 0.15,0.41 0.39,0.5 0.24,0.09 0.51,0.06 0.7,-0.09l7.05 -5.19z"/>
   <path id="_1" class="fil1 str0" d="M16.61 33.76l17.93 0c0.86,0 1.57,0.7 1.57,1.57l0 10.12c0,0.86 -0.7,1.57 -1.57,1.57l-17.93 0c-0.86,0 -1.57,-0.7 -1.57,-1.57l0 -10.12c0,-0.86 0.7,-1.57 1.57,-1.57zm1.72 3.87l14.49 0c0.36,0 0.65,0.29 0.65,0.65l0 4.21c0,0.36 -0.29,0.65 -0.65,0.65l-14.49 0c-0.36,0 -0.65,-0.29 -0.65,-0.65l0 -4.21c0,-0.36 0.29,-0.65 0.65,-0.65zm4.97 -10.3l4.56 0c0.26,0 0.47,0.21 0.47,0.47l0 3.73c0,0.26 -0.21,0.47 -0.47,0.47l-4.56 0c-0.26,0 -0.47,-0.21 -0.47,-0.47l0 -3.73c0,-0.26 0.21,-0.47 0.47,-0.47zm-14.36 -27.27l33.29 0c1,0 1.82,0.69 1.82,1.53l0 9.09c0,0.91 0.74,1.65 1.65,1.65l0.96 0c1.22,0 2.33,0.5 3.13,1.3l0 0c0.8,0.8 1.3,1.91 1.3,3.13l0 30.79c0,1.22 -0.5,2.33 -1.3,3.13l-0 0c-0.8,0.8 -1.91,1.3 -3.13,1.3l-21.07 0 -21.07 0c-1.22,0 -2.33,-0.5 -3.14,-1.3 -0.8,-0.8 -1.3,-1.91 -1.3,-3.14l0 -30.79c0,-1.22 0.5,-2.33 1.3,-3.14 0.8,-0.8 1.91,-1.3 3.14,-1.3l0.96 0c0.91,0 1.65,-0.74 1.65,-1.65l0 -9.09c0,-0.84 0.82,-1.53 1.82,-1.53zm35.1 15.54l0 9.09c0,0.84 -0.82,1.53 -1.82,1.53l-33.29 0c-1,0 -1.82,-0.69 -1.82,-1.53l0 -9.09c0,-0.91 -0.74,-1.65 -1.65,-1.65l-0.96 0c-0.77,0 -1.47,0.31 -1.97,0.82 -0.51,0.51 -0.82,1.21 -0.82,1.97l0 30.79c0,0.77 0.31,1.47 0.82,1.97 0.51,0.51 1.21,0.82 1.97,0.82l21.07 0 21.07 0c0.77,0 1.47,-0.31 1.97,-0.82l0 -0c0.5,-0.5 0.82,-1.2 0.82,-1.97l0 -30.79c0,-0.77 -0.31,-1.47 -0.82,-1.97l-0 -0c-0.5,-0.5 -1.2,-0.82 -1.97,-0.82l-0.96 0c-0.91,0 -1.65,0.74 -1.65,1.65zm-22.55 -5.73l8.18 0 6.83 -5.03c0.21,-0.15 0.28,-0.39 0.18,-0.61 -0.1,-0.22 -0.34,-0.36 -0.61,-0.36l-20.97 0c-0.28,0 -0.52,0.14 -0.61,0.36 -0.1,0.22 -0.03,0.45 0.18,0.61l6.83 5.03zm9.17 0.73l0 5.06 7.05 5.19c0.2,0.15 0.46,0.18 0.7,0.09 0.24,-0.09 0.39,-0.28 0.39,-0.5l0 -14.62c0,-0.22 -0.15,-0.41 -0.39,-0.5 -0.24,-0.09 -0.51,-0.06 -0.7,0.09l-7.05 5.19zm-0.99 5.79l-8.18 0 -6.83 5.03c-0.21,0.15 -0.28,0.39 -0.18,0.61 0.1,0.22 0.34,0.36 0.61,0.36l20.97 0c0.28,0 0.52,-0.14 0.61,-0.36 0.1,-0.22 0.03,-0.45 -0.18,-0.61l-6.83 -5.03zm-9.17 -0.73l0 -5.06 -7.05 -5.19c-0.2,-0.15 -0.46,-0.18 -0.7,-0.09 -0.24,0.09 -0.39,0.28 -0.39,0.5l0 14.62c0,0.22 0.15,0.41 0.39,0.5 0.24,0.09 0.51,0.06 0.7,-0.09l7.05 -5.19z"/>
  </g>
 </g>
</svg>
