<?xml version="1.0" encoding="UTF-8"?>
<!DOCTYPE svg PUBLIC "-//W3C//DTD SVG 1.1//EN" "http://www.w3.org/Graphics/SVG/1.1/DTD/svg11.dtd">
<!-- Creator: CorelDRAW 2021 (64-Bit) -->
<svg xmlns="http://www.w3.org/2000/svg" xml:space="preserve" width="0.379693in" height="0.315748in" version="1.1" style="shape-rendering:geometricPrecision; text-rendering:geometricPrecision; image-rendering:optimizeQuality; fill-rule:evenodd; clip-rule:evenodd"
viewBox="0 0 382.54 318.12"
 xmlns:xlink="http://www.w3.org/1999/xlink"
 xmlns:xodm="http://www.corel.com/coreldraw/odm/2003">
 <defs>
  <style type="text/css">
   <![CDATA[
    .str0 {stroke:#00A0E3;stroke-width:3.02;stroke-miterlimit:2.61313}
    .fil1 {fill:none;fill-rule:nonzero}
    .fil0 {fill:#00A0E3}
   ]]>
  </style>
 </defs>
 <g id="Layer_x0020_1">
  <metadata id="CorelCorpID_0Corel-Layer"/>
  <g>
   <path class="fil0" d="M68.72 0.4l245.1 0c7.37,0 13.39,6.03 13.39,13.39l0 202.9c0,7.37 -6.03,13.39 -13.39,13.39l-245.1 0c-7.37,0 -13.39,-6.03 -13.39,-13.39l0 -202.9c0,-7.37 6.03,-13.39 13.39,-13.39zm92.44 86.22l60.21 0 50.3 -44.2c1.54,-1.36 2.06,-3.42 1.33,-5.34 -0.73,-1.92 -2.47,-3.13 -4.53,-3.13l-154.42 0c-2.05,0 -3.8,1.21 -4.52,3.13 -0.73,1.92 -0.21,3.98 1.33,5.34l50.3 44.2zm67.51 6.42l0 44.41 51.91 45.61c1.46,1.28 3.42,1.57 5.19,0.77 1.77,-0.8 2.84,-2.46 2.84,-4.41l0 -128.36c0,-1.95 -1.07,-3.61 -2.84,-4.41 -1.77,-0.81 -3.73,-0.51 -5.19,0.77l-51.91 45.61zm-7.3 50.83l-60.21 0 -50.3 44.2c-1.54,1.36 -2.06,3.42 -1.33,5.34 0.72,1.92 2.47,3.13 4.52,3.13l154.42 0c2.05,0 3.8,-1.21 4.53,-3.13 0.73,-1.92 0.21,-3.98 -1.33,-5.34l-50.3 -44.2zm-67.51 -6.42l0 -44.41 -51.91 -45.61c-1.46,-1.28 -3.42,-1.57 -5.19,-0.77 -1.77,0.8 -2.84,2.46 -2.84,4.41l0 128.36c0,1.94 1.07,3.61 2.84,4.41 1.77,0.81 3.73,0.51 5.19,-0.77l51.91 -45.61zm-119.16 -61.06l5.72 0c3.15,0 5.72,2.57 5.72,5.72l0 45.12c0,3.15 -2.57,5.72 -5.72,5.72l-5.72 0c-6.3,0 -11.45,-5.15 -11.45,-11.44l0 -9.33 -2.28 0c-2.34,0 -4.47,0.94 -5.99,2.47 -1.54,1.56 -2.49,3.68 -2.49,6.02l0 176.48c0,2.35 0.94,4.47 2.47,5.99l0.02 0.02c1.52,1.53 3.65,2.47 5.99,2.47l170.29 0 170.29 0c2.34,0 4.47,-0.94 5.99,-2.47l0.02 -0.02c1.53,-1.52 2.47,-3.65 2.47,-5.99l0 -176.48c0,-2.33 -0.96,-4.45 -2.49,-6.02 -1.52,-1.53 -3.65,-2.47 -5.99,-2.47l-2.28 0 0 9.33c0,6.29 -5.15,11.44 -11.45,11.44l-5.72 0c-3.15,0 -5.72,-2.57 -5.72,-5.72l0 -45.12c0,-3.15 2.57,-5.72 5.72,-5.72l5.72 0c6.3,0 11.45,5.15 11.45,11.44l0 12.25 2.28 0c5.65,0 10.8,2.32 14.55,6.04 3.72,3.72 6.04,8.87 6.04,14.55l0 176.48c0,5.64 -2.31,10.79 -6.04,14.52l-0.02 0.02c-3.74,3.72 -8.88,6.04 -14.52,6.04l-170.29 0 -170.29 0c-5.64,0 -10.79,-2.31 -14.52,-6.04l-0.02 -0.02c-3.72,-3.73 -6.04,-8.88 -6.04,-14.52l0 -176.48c0,-5.67 2.31,-10.82 6.04,-14.55 3.75,-3.72 8.9,-6.04 14.55,-6.04l2.28 0 0 -12.25c0,-6.29 5.15,-11.44 11.45,-11.44z"/>
   <path id="_1" class="fil1 str0" d="M68.72 0.4l245.1 0c7.37,0 13.39,6.03 13.39,13.39l0 202.9c0,7.37 -6.03,13.39 -13.39,13.39l-245.1 0c-7.37,0 -13.39,-6.03 -13.39,-13.39l0 -202.9c0,-7.37 6.03,-13.39 13.39,-13.39zm92.44 86.22l60.21 0 50.3 -44.2c1.54,-1.36 2.06,-3.42 1.33,-5.34 -0.73,-1.92 -2.47,-3.13 -4.53,-3.13l-154.42 0c-2.05,0 -3.8,1.21 -4.52,3.13 -0.73,1.92 -0.21,3.98 1.33,5.34l50.3 44.2zm67.51 6.42l0 44.41 51.91 45.61c1.46,1.28 3.42,1.57 5.19,0.77 1.77,-0.8 2.84,-2.46 2.84,-4.41l0 -128.36c0,-1.95 -1.07,-3.61 -2.84,-4.41 -1.77,-0.81 -3.73,-0.51 -5.19,0.77l-51.91 45.61zm-7.3 50.83l-60.21 0 -50.3 44.2c-1.54,1.36 -2.06,3.42 -1.33,5.34 0.72,1.92 2.47,3.13 4.52,3.13l154.42 0c2.05,0 3.8,-1.21 4.53,-3.13 0.73,-1.92 0.21,-3.98 -1.33,-5.34l-50.3 -44.2zm-67.51 -6.42l0 -44.41 -51.91 -45.61c-1.46,-1.28 -3.42,-1.57 -5.19,-0.77 -1.77,0.8 -2.84,2.46 -2.84,4.41l0 128.36c0,1.94 1.07,3.61 2.84,4.41 1.77,0.81 3.73,0.51 5.19,-0.77l51.91 -45.61zm-119.16 -61.06l5.72 0c3.15,0 5.72,2.57 5.72,5.72l0 45.12c0,3.15 -2.57,5.72 -5.72,5.72l-5.72 0c-6.3,0 -11.45,-5.15 -11.45,-11.44l0 -9.33 -2.28 0c-2.34,0 -4.47,0.94 -5.99,2.47 -1.54,1.56 -2.49,3.68 -2.49,6.02l0 176.48c0,2.35 0.94,4.47 2.47,5.99l0.02 0.02c1.52,1.53 3.65,2.47 5.99,2.47l170.29 0 170.29 0c2.34,0 4.47,-0.94 5.99,-2.47l0.02 -0.02c1.53,-1.52 2.47,-3.65 2.47,-5.99l0 -176.48c0,-2.33 -0.96,-4.45 -2.49,-6.02 -1.52,-1.53 -3.65,-2.47 -5.99,-2.47l-2.28 0 0 9.33c0,6.29 -5.15,11.44 -11.45,11.44l-5.72 0c-3.15,0 -5.72,-2.57 -5.72,-5.72l0 -45.12c0,-3.15 2.57,-5.72 5.72,-5.72l5.72 0c6.3,0 11.45,5.15 11.45,11.44l0 12.25 2.28 0c5.65,0 10.8,2.32 14.55,6.04 3.72,3.72 6.04,8.87 6.04,14.55l0 176.48c0,5.64 -2.31,10.79 -6.04,14.52l-0.02 0.02c-3.74,3.72 -8.88,6.04 -14.52,6.04l-170.29 0 -170.29 0c-5.64,0 -10.79,-2.31 -14.52,-6.04l-0.02 -0.02c-3.72,-3.73 -6.04,-8.88 -6.04,-14.52l0 -176.48c0,-5.67 2.31,-10.82 6.04,-14.55 3.75,-3.72 8.9,-6.04 14.55,-6.04l2.28 0 0 -12.25c0,-6.29 5.15,-11.44 11.45,-11.44z"/>
  </g>
 </g>
</svg>
