<?xml version="1.0" encoding="UTF-8"?>
<!DOCTYPE svg PUBLIC "-//W3C//DTD SVG 1.1//EN" "http://www.w3.org/Graphics/SVG/1.1/DTD/svg11.dtd">
<!-- Creator: CorelDRAW 2021 (64-Bit) -->
<svg xmlns="http://www.w3.org/2000/svg" xml:space="preserve" width="0.242488in" height="0.314961in" version="1.1" style="shape-rendering:geometricPrecision; text-rendering:geometricPrecision; image-rendering:optimizeQuality; fill-rule:evenodd; clip-rule:evenodd"
viewBox="0 0 44.04 57.2"
 xmlns:xlink="http://www.w3.org/1999/xlink"
 xmlns:xodm="http://www.corel.com/coreldraw/odm/2003">
 <defs>
  <style type="text/css">
   <![CDATA[
    .fil0 {fill:#00A0E3;fill-rule:nonzero}
   ]]>
  </style>
 </defs>
 <g id="Layer_x0020_1">
  <metadata id="CorelCorpID_0Corel-Layer"/>
  <path class="fil0" d="M36.51 20.07c-2.13,-3.69 -2.8,-7.68 -3.19,-11.9 -0.23,-2.44 -0.03,-5.03 -1.66,-7.19 -0.97,-1.28 -1.89,-1.33 -2.86,-0.08 -2.09,2.69 -2.65,5.84 -2.66,9.16 0,1.24 0.42,2.17 1.48,2.91 3.36,2.35 6.14,5.36 8.44,8.69 1.93,2.78 3.74,5.54 4.95,8.63 0.99,2.51 2.12,5.07 1.73,7.94 -0.22,1.61 -1.18,2.37 -2.76,1.93 -1.29,-0.36 -2.31,-1.18 -3.25,-2.1 -5.72,-5.53 -8.77,-12.49 -10.57,-20.08 -1.18,-4.95 -1.79,-9.92 0.16,-14.85 0.16,-0.41 0.26,-0.97 -0.15,-1.25 -0.6,-0.42 -0.88,0.24 -1.19,0.58 -3.21,3.5 -6.44,7.01 -9.61,10.55 -0.82,0.91 -1.72,1.88 -1.53,3.27 0.54,3.95 1.87,7.68 3.99,11 3.64,5.71 8.09,10.77 13.31,15.14 3.17,2.66 4.69,2.83 8.32,0.88 0.21,-0.11 0.44,-0.23 0.66,-0.33 2.59,-1.07 4.07,-2.76 3.9,-5.57 -0.25,-4.13 -1.68,-7.17 -3.3,-10.35 -0.97,-1.91 -3.01,-5.21 -4.22,-6.99zm-34.02 25.19c0.53,-0.1 1.07,-0.13 1.57,-0.44 1.74,-1.1 2.73,-2.78 3.37,-4.62 0.7,-1.98 1.48,-3.91 2.86,-5.49 0.74,-0.85 1.71,-2.03 3,-1.32 1.3,0.73 2.6,0.93 4.01,0.87 0.68,-0.03 1.24,0.18 1.84,0.49 2.12,1.1 2.4,3.02 2.37,4.75 -0.2,4.3 4.18,7.27 8.08,5.86 1.4,-0.51 1.63,-1.61 0.41,-2.57 -3.45,-2.75 -6.45,-5.94 -9.17,-9.38 -2.91,-3.68 -5.43,-7.6 -6.97,-12.08 -0.35,-1.02 -1.27,-1.32 -2.23,-0.69 -0.54,0.35 -1.07,0.75 -1.54,1.19 -1.62,1.46 -1.82,2.75 -0.77,4.64 0.68,1.22 1.33,2.45 2.02,3.66 0.48,0.84 0.58,1.79 -0.24,2.28 -2.7,1.63 -3.59,4.41 -4.68,7.04 -0.88,2.09 -1.84,3.95 -4.15,4.7 -0.38,0.13 -0.68,0.28 -0.54,0.73 0.1,0.34 0.45,0.44 0.74,0.39l0.01 -0.01zm37.12 -8.03c0.75,0 0.61,-0.75 0.69,-1.4 -0.16,-0.75 -0.2,-1.69 -0.55,-2.5 -1.35,-3.09 -2.75,-6.16 -4.65,-8.96 -1.79,-2.63 -3.63,-5.25 -5.98,-7.44 -0.34,-0.31 -0.71,-0.69 -1.14,-0.25 -0.44,0.45 0.03,0.78 0.3,1.12 0.97,1.22 2.12,2.26 3.1,3.46 2.32,2.87 4.21,6.03 5.86,9.31 0.84,1.69 1.93,3.4 1.86,5.46 -0.01,0.46 -0.15,1.19 0.54,1.19l-0.01 0.01zm-19.42 12l0 -10.13c0,-2.15 -1.76,-3.91 -3.91,-3.91 -2.15,0 -3.91,1.76 -3.91,3.91l0 10.13c0,0.79 -0.64,1.43 -1.43,1.43l-7.68 0c-1.8,0 -3.27,1.47 -3.27,3.27l0 2.09c0,0.65 0.53,1.18 1.18,1.18l30.95 0c0.65,0 1.18,-0.53 1.18,-1.18l0 -2.09c0,-1.8 -1.47,-3.27 -3.27,-3.27l-8.42 0c-0.79,0 -1.43,-0.64 -1.43,-1.43zm-3.91 -8.55c0.62,0 1.13,-0.51 1.13,-1.13 0,-0.62 -0.51,-1.13 -1.13,-1.13 -0.62,0 -1.13,0.51 -1.13,1.13 0,0.62 0.51,1.13 1.13,1.13z"/>
 </g>
</svg>
