<?xml version="1.0" encoding="UTF-8"?>
<!DOCTYPE svg PUBLIC "-//W3C//DTD SVG 1.1//EN" "http://www.w3.org/Graphics/SVG/1.1/DTD/svg11.dtd">
<!-- Creator: CorelDRAW 2021 (64-Bit) -->
<svg xmlns="http://www.w3.org/2000/svg" xml:space="preserve" width="0.235787in" height="0.354327in" version="1.1" style="shape-rendering:geometricPrecision; text-rendering:geometricPrecision; image-rendering:optimizeQuality; fill-rule:evenodd; clip-rule:evenodd"
viewBox="0 0 19.06 28.64"
 xmlns:xlink="http://www.w3.org/1999/xlink"
 xmlns:xodm="http://www.corel.com/coreldraw/odm/2003">
 <defs>
  <style type="text/css">
   <![CDATA[
    .fil0 {fill:#00A0E3;fill-rule:nonzero}
   ]]>
  </style>
 </defs>
 <g id="Layer_x0020_1">
  <metadata id="CorelCorpID_0Corel-Layer"/>
  <path class="fil0" d="M1.46 4.33c1.02,0 1.29,0.44 1.71,1.26l3.62 6.13c0.47,0.78 0.66,1.31 0.63,2.23l0 10.68c0,0.91 0.2,1.1 1.12,1.11 0.58,0.01 1.16,-0.01 1.74,0 1.16,0.02 1.42,-0.22 1.42,-1.4l0 -10.4c0,-1.71 0.94,-3.07 1.83,-4.49 0.72,-1.17 1.46,-2.33 2.08,-3.55 0.4,-0.8 0.88,-1.42 1.66,-1.56 0.34,-0.01 0.73,0 1.09,0 0.3,0.06 0.56,-0.02 0.68,-0.32 0.13,-0.33 -0.1,-0.52 -0.32,-0.7 -1.87,-1.54 -4,-2.59 -6.37,-3.03 -2.62,-0.49 -5.24,-0.35 -7.77,0.58 -1.59,0.59 -3.01,1.46 -4.35,2.49 -0.24,0.18 -0.25,0.42 -0.2,0.68 0.06,0.33 0.3,0.3 0.56,0.3l0.88 0zm3.22 0l9.76 0c1.04,0.05 1.22,0.34 0.69,1.22l-2.99 5c-0.34,0.59 -0.63,1.62 -1.48,1.62l-2.32 0c-0.61,0 -1.05,-1.01 -1.54,-1.83l-2.83 -4.76c-0.19,-0.32 -0.44,-0.6 -0.24,-0.91 0.11,-0.18 0.19,-0.34 0.95,-0.34zm5.79 6.53c0.31,-0.22 0.55,-0.55 0.72,-0.89 0.6,-1.23 1.15,-2.48 1.74,-3.71 0.1,-0.22 0.21,-0.5 0.03,-0.62 -0.27,-0.19 -0.37,0.15 -0.48,0.32 -0.89,1.42 -1.46,2.99 -2.28,4.45 -0.11,0.2 -0.05,0.4 0.26,0.47l0 -0.01zm-3.66 15.44l5.2 0c0.44,0 0.79,0.36 0.79,0.79l0 0.75c0,0.44 -0.36,0.79 -0.79,0.79l-5.2 0c-0.44,0 -0.79,-0.36 -0.79,-0.79l0 -0.75c0,-0.44 0.36,-0.79 0.79,-0.79z"/>
 </g>
</svg>
