<?xml version="1.0" encoding="UTF-8"?>
<!DOCTYPE svg PUBLIC "-//W3C//DTD SVG 1.1//EN" "http://www.w3.org/Graphics/SVG/1.1/DTD/svg11.dtd">
<!-- Creator: CorelDRAW 2021 (64-Bit) -->
<svg xmlns="http://www.w3.org/2000/svg" xml:space="preserve" width="0.169358in" height="0.314965in" version="1.1" style="shape-rendering:geometricPrecision; text-rendering:geometricPrecision; image-rendering:optimizeQuality; fill-rule:evenodd; clip-rule:evenodd"
viewBox="0 0 2.31 4.29"
 xmlns:xlink="http://www.w3.org/1999/xlink"
 xmlns:xodm="http://www.corel.com/coreldraw/odm/2003">
 <defs>
  <style type="text/css">
   <![CDATA[
    .fil0 {fill:#00A0E3}
   ]]>
  </style>
 </defs>
 <g id="Layer_x0020_1">
  <metadata id="CorelCorpID_0Corel-Layer"/>
  <g id="_1807686449904">
   <path class="fil0" d="M1.5 3.65c0.01,0 0.01,-0.01 0.01,0.02l-0 0.1c-0.04,0.01 -0.72,0.01 -0.77,0 -0.01,-0.03 -0.01,-0.1 0,-0.12l0.75 -0c0.01,0 0.01,0 0.01,0zm-0.76 -0.21l0.76 -0 0 0.12 -0.76 0 -0 -0.12zm-0.13 -2.55c-0.01,0.01 -0.1,0.07 -0.12,0.07l-0.02 0.02c-0.04,0.03 -0.07,0.06 -0.11,0.1 -0.22,0.23 -0.32,0.57 -0.27,0.9 0.02,0.12 0.06,0.28 0.11,0.37 0.01,0.03 0.05,0.08 0.05,0.11 0.01,0.01 0,0 0.01,0.01l0.03 0.04c0.02,0.04 0.09,0.14 0.1,0.16 0.03,0.02 0.06,0.14 0.07,0.19 0.03,0.15 0.03,0.33 0.08,0.44 0.04,0.09 0.07,0.1 0.12,0.14 0.01,0.13 -0.01,0.41 0,0.5 0.01,0.05 0.02,0.07 0.05,0.09l0.01 0.01c0,0 0.07,0.03 0.07,0.03 0.01,0.01 0.03,0.05 0.03,0.06 0.02,-0.02 0.01,0.03 0.01,-0.01 0,0 0,0 0,0.01l0.01 -0.01c-0,-0.01 0.02,-0.03 -0,-0.08 -0.04,0 -0.03,-0.01 -0.03,0.03l-0.01 -0.01c-0,-0 -0,-0 -0,-0 -0.01,-0.01 0,-0 -0.01,-0.01 -0,0.01 0.01,0.02 0.01,0.03l-0.02 -0.01c-0.02,-0.01 -0.02,-0 -0.02,-0.03 0.03,-0.01 0,-0.01 0.03,-0.01 0.02,-0 0.02,-0 0.02,-0.02 -0,-0 -0.02,-0.01 -0.02,-0.01l-0.01 -0.01c-0,-0 -0,-0 -0,-0l-0.01 -0.02c-0.01,-0.01 -0.01,0 -0.01,-0.01 -0.02,-0.02 -0.02,-0.07 -0.01,-0.1l0.76 -0c0.02,0.11 -0.03,0.12 -0.04,0.13 0,0.01 0,0.01 0,0.01 0,0.01 0,0 0,-0 0,-0 0,-0 0,-0l-0 0 -0 0 -0.03 0.01c0.02,0 0.01,0.02 0.02,0.03 0.05,0 0.02,0 0.05,-0.02 0.02,-0.02 0.01,-0 0.04,-0 0.06,-0.02 0.05,-0.22 0.05,-0.27 0,-0.09 -0.01,-0.23 0,-0.32 0.05,-0.03 0.07,-0.04 0.11,-0.11 0.07,-0.14 0.05,-0.36 0.11,-0.54 0.04,-0.12 0.09,-0.18 0.15,-0.29 0.04,-0.08 0.08,-0.14 0.11,-0.22 0.01,-0.02 0.02,-0.07 0.03,-0.08l-0 -0c0.01,-0.05 0.03,-0.1 0.04,-0.16 0.01,-0.05 0.02,-0.12 0.02,-0.17 0.03,-0.72 -0.54,-1.19 -1.26,-1.07 -0.17,0.03 -0.19,0.06 -0.3,0.1z"/>
   <path class="fil0" d="M1.83 0.84c0.02,0 0.03,0.02 0.06,0.03 0.26,0.11 0.52,-0.35 0.39,-0.69 -0.03,-0.07 -0.05,-0.08 -0.07,-0.12l-0.05 -0.04c-0.07,-0.04 -0.16,-0.03 -0.22,0.01 -0.07,0.04 -0.13,0.12 -0.17,0.21 -0.07,0.16 -0.08,0.42 0.05,0.56 0.01,0.01 0.02,0.02 0.02,0.03z"/>
   <path class="fil0" d="M1.11 0.29c-0.01,0.12 0.01,0.22 0.08,0.29 0.03,0.03 0.07,0.06 0.13,0.05 0.06,-0.01 0.08,-0.05 0.11,-0.08l-0 0c0.01,-0.03 0.03,-0.05 0.04,-0.08 0.01,-0.03 0.02,-0.07 0.02,-0.1 0,-0.08 -0.01,-0.13 -0.03,-0.2 -0.04,-0.07 -0.12,-0.16 -0.22,-0.1 -0.08,0.04 -0.1,0.13 -0.12,0.23z"/>
   <path class="fil0" d="M0.72 0.57l0.02 0.02c0.03,0.04 0.03,0.03 0.06,0.05l0 0c0.06,0.01 0.12,0.03 0.17,-0.06 0,-0.01 0.01,-0.02 0.01,-0.03l0.01 -0.02c0.01,-0.01 -0,-0 0.01,-0.01 -0.01,-0.07 0.02,-0.14 -0.04,-0.26 -0.06,-0.11 -0.12,-0.11 -0.19,-0.12 -0,0.01 -0,0 -0.01,0.01 -0.01,0.01 -0.02,0.01 -0.03,0.02 -0.01,0.01 -0.02,0.03 -0.03,0.04 -0.02,0.03 -0.03,0.07 -0.03,0.12 -0.01,0.13 0.05,0.18 0.06,0.24z"/>
   <path class="fil0" d="M0.29 0.58c0.01,0.03 0.03,0.07 0.05,0.1 0.01,0.02 0.02,0.03 0.04,0.04 0.01,0.01 0.03,0.02 0.04,0.03 0.04,-0 0.06,0 0.09,-0.02 0.02,-0.02 0.03,-0.03 0.04,-0.06 0.02,-0.08 0.02,-0.13 -0,-0.2 -0.02,-0.05 -0.05,-0.1 -0.1,-0.13 -0.14,-0.07 -0.2,0.13 -0.16,0.25z"/>
   <path class="fil0" d="M0.05 0.88c0,0 0,0 0.01,0 0.01,0.01 0,0.01 0.01,0.01 0.02,0.01 0.13,0.1 0.17,-0.06 0.05,-0.2 -0.17,-0.37 -0.23,-0.19 -0.03,0.1 0.01,0.17 0.04,0.23z"/>
   <path class="fil0" d="M0.82 4.14c0.01,0.01 0.01,0.01 0.02,0.02 0.01,0.02 0.01,0.02 0.03,0.02 -0.02,-0.03 -0,-0 0,-0.01 0,0 0.01,0.01 0.01,0.01 0.02,0.01 0.01,0.01 0.03,0.01 -0,-0.02 -0,-0.04 -0.03,-0.04l0.01 -0 -0 -0.02c0,-0 0,-0 0,-0 0,-0 -0,-0 0,-0 0,0.02 -0,-0 0.03,0.02 -0.01,-0.02 -0.03,-0.03 -0.03,-0.05 0.12,0 0.35,-0.01 0.46,-0 0.03,0 0.02,-0 0.03,0.01 0.04,-0.01 0.02,-0.02 0.06,-0.02 0.06,0 0,-0.01 0.06,-0.02 0.01,0.01 0.01,-0 0,0.02 0.02,-0 0.02,-0.01 0.04,-0.02 0,-0 0.01,-0.01 0.01,-0.01 0.01,-0.01 0.01,-0 0.01,-0.02 -0.03,0 -0.02,-0.02 -0.04,0 -0.03,0.02 0.01,0.02 -0.05,0.02 -0.01,-0.01 -0,-0.03 -0.02,-0.03l0.03 -0.02c-0,0 0,0.02 -0.01,-0.01 -0.08,0.01 -0.62,0.01 -0.68,-0 0,0 0,0 0,0l0.01 0.01c0,0 0.02,0.01 0.02,0.01 -0.01,0.02 -0.01,0.02 -0.02,0.02 -0.03,0 -0,-0.01 -0.03,0.01 0.01,0.02 0,0.02 0.02,0.03l0.02 0.01c-0,-0.01 -0.01,-0.01 -0.01,-0.03 0.02,0.01 0,-0 0.01,0.01 0,0 0,0 0,0l0.01 0.01c-0.01,-0.03 -0.02,-0.03 0.03,-0.03 0.02,0.05 0,0.07 0,0.08l-0.01 0.01c-0,-0 -0,-0 -0,-0.01 -0,0.04 0.01,-0 -0.01,0.01z"/>
   <path class="fil0" d="M1.37 4.09c-0.01,0.01 -0.02,0.03 -0.04,0.04 -0.01,0.01 -0.03,0.02 -0.05,0.03 -0.03,0.02 -0.08,0.03 -0.12,0.04 -0.17,0.01 -0.22,-0.06 -0.24,-0.07 -0.03,-0.02 -0.03,0 -0.03,-0.02 -0,0 -0,0 -0,0 0,0 -0,0 -0,0l0 0.02 -0.01 0c0.02,0.01 0.02,0.02 0.03,0.04 -0.02,0 -0.02,0 -0.03,-0.01 -0,-0 -0.01,-0.01 -0.01,-0.01 -0.01,0.01 -0.02,-0.01 -0,0.01 0.01,0.04 0.09,0.08 0.15,0.09 0.06,0.02 0.15,0.02 0.21,0.01 0.06,-0.01 0.12,-0.04 0.16,-0.08 0.09,-0.08 0.07,-0.11 0.1,-0.14 0.01,-0.02 0.01,-0 -0,-0.02 -0.05,0.01 0,0.02 -0.06,0.02 -0.04,-0 -0.02,0 -0.06,0.02z"/>
   <path class="fil0" d="M1.13 0.43l0.08 0 0 -0.04c-0.02,-0 -0.02,-0 -0.04,-0.01l0 -0.08c-0.02,0 -0.04,-0 -0.04,0.01l0 0.01c0,0.02 0.01,-0.02 0,0.01 -0,0 -0.01,0.02 -0.01,0.02 0.01,0.03 0.01,0.03 0.01,0.06z"/>
  </g>
 </g>
</svg>
