<?xml version="1.0" encoding="UTF-8"?>
<!DOCTYPE svg PUBLIC "-//W3C//DTD SVG 1.1//EN" "http://www.w3.org/Graphics/SVG/1.1/DTD/svg11.dtd">
<!-- Creator: CorelDRAW 2021 (64-Bit) -->
<svg xmlns="http://www.w3.org/2000/svg" xml:space="preserve" width="0.228079in" height="0.357846in" version="1.1" style="shape-rendering:geometricPrecision; text-rendering:geometricPrecision; image-rendering:optimizeQuality; fill-rule:evenodd; clip-rule:evenodd"
viewBox="0 0 3.73 5.85"
 xmlns:xlink="http://www.w3.org/1999/xlink"
 xmlns:xodm="http://www.corel.com/coreldraw/odm/2003">
 <defs>
  <style type="text/css">
   <![CDATA[
    .str1 {stroke:#2B2A29;stroke-width:0.05;stroke-miterlimit:22.9256}
    .str0 {stroke:black;stroke-width:0.05;stroke-miterlimit:22.9256}
    .fil0 {fill:#00A0E3}
   ]]>
  </style>
 </defs>
 <g id="Layer_x0020_1">
  <metadata id="CorelCorpID_0Corel-Layer"/>
  <g id="_1771798011920">
   <g>
    <path class="fil0 str0" d="M0.81 5.07c0.18,-0.14 0.48,-0.29 0.68,-0.41 0.24,-0.14 0.45,-0.27 0.7,-0.4 0.24,-0.12 1.23,-0.76 1.39,-0.78l0 0.65 -2.5 1.43 -0.27 -0.49zm-0.43 -0.81c1.44,-0.87 1.09,-0.77 2.93,-0.83 -0.01,0.01 -0.02,0.02 -0.02,0.02l-1.18 0.7c-0.14,0.06 -1.51,0.12 -1.73,0.1zm-0.22 -0.68c0.21,-0.16 0.61,-0.37 0.84,-0.5 0.51,-0.29 2.21,-1.31 2.57,-1.47l-0 0.65c-0.21,0.16 -0.61,0.37 -0.84,0.5 -0.41,0.23 -2.33,1.37 -2.57,1.47l0 -0.64zm0.32 -1.25c0.01,-0.01 0.01,-0.01 0.02,-0.02 0.05,-0.03 0.03,-0.02 0.09,-0.05l1.03 -0.6c0.13,-0.05 1.52,-0.12 1.73,-0.1 -0.4,0.22 -0.78,0.46 -1.18,0.69 -0.2,0.11 -1.41,0.13 -1.75,0.14l0.06 -0.06zm2.18 -2.07l0.28 0.51c-0.19,0.07 -0.49,0.27 -0.7,0.39 -0.35,0.2 -1.98,1.16 -2.08,1.18l-0 -0.65 2.51 -1.43zm0.17 -0.07c-0.24,-0.06 0.2,0.11 -0.08,-0.05 -0.14,-0.07 -0.3,0.09 -0.61,0.26 -0.3,0.17 -2.09,1.18 -2.11,1.25l0 0.89 1.76 -0.09c-0.1,0.06 -0.31,0.19 -0.42,0.26l-1.34 0.76 -0 0.94 1.74 -0.09 -1.13 0.68c0.05,0.17 0.11,0.12 -0.06,0.22 -0.1,0.06 -0.14,0.05 -0.22,0.14l0.05 0.09 0.34 -0.18 0.14 0.22 -0.33 0.21 0.07 0.11 0.32 -0.18c0.08,0.06 0.04,0.06 0.13,0.09 0.31,-0.18 2.55,-1.44 2.64,-1.56l-0.01 -0.89 -1.75 0.09 1.75 -1.03 0.01 -0.93 -1.74 0.08c0.08,-0.1 1,-0.62 1.15,-0.67l-0.05 -0.17c0.08,-0.03 0.42,-0.16 0.3,-0.27 -0.1,-0.04 -0.27,0.11 -0.37,0.15l-0.14 -0.21c0.07,-0.07 0.09,-0.07 0.18,-0.12 0.12,-0.07 0.13,-0.07 0.14,-0.14 -0.07,-0.06 -0.12,-0.08 -0.35,0.12z"/>
    <path class="fil0 str0" d="M0.16 3.58l-0 0.64c0.24,-0.1 2.16,-1.24 2.57,-1.47 0.24,-0.13 0.63,-0.34 0.84,-0.5l0 -0.65c-0.36,0.16 -2.06,1.19 -2.57,1.47 -0.23,0.13 -0.64,0.34 -0.84,0.5z"/>
    <path class="fil0 str0" d="M0.15 1.7l0 0.65c0.11,-0.02 1.74,-0.98 2.08,-1.18 0.2,-0.12 0.5,-0.32 0.7,-0.39l-0.28 -0.51 -2.51 1.43z"/>
    <path class="fil0 str0" d="M0.81 5.07l0.27 0.49 2.5 -1.43 -0 -0.65c-0.15,0.02 -1.15,0.66 -1.39,0.78 -0.24,0.13 -0.46,0.26 -0.7,0.4 -0.2,0.12 -0.51,0.26 -0.68,0.41z"/>
    <path class="fil0 str0" d="M0.38 4.26c0.23,0.01 1.59,-0.04 1.73,-0.1l1.18 -0.7c0.01,-0.01 0.01,-0.01 0.02,-0.02 -1.85,0.05 -1.49,-0.05 -2.93,0.83z"/>
    <path class="fil0 str0" d="M0.42 2.39c0.34,-0.01 1.55,-0.02 1.75,-0.14 0.4,-0.22 0.78,-0.46 1.18,-0.69 -0.21,-0.02 -1.6,0.05 -1.73,0.1l-1.03 0.6c-0.05,0.03 -0.04,0.02 -0.09,0.05 -0.01,0.01 -0.01,0.01 -0.02,0.02l-0.06 0.06z"/>
   </g>
   <circle class="fil0 str1" cx="1.42" cy="5.05" r="0.13"/>
   <circle class="fil0 str1" cx="3.17" cy="3.99" r="0.13"/>
   <circle class="fil0 str1" cx="0.84" cy="3.53" r="0.13"/>
   <circle class="fil0 str1" cx="3.19" cy="2.13" r="0.13"/>
   <circle class="fil0 str1" cx="2.1" cy="2.78" r="0.13"/>
   <circle class="fil0 str1" cx="1.88" cy="1.98" r="0.13"/>
   <circle class="fil0 str1" cx="1.98" cy="3.76" r="0.13"/>
   <circle class="fil0 str1" cx="0.9" cy="1.62" r="0.13"/>
   <circle class="fil0 str1" cx="2.43" cy="0.69" r="0.13"/>
  </g>
 </g>
</svg>
