<?xml version="1.0" encoding="UTF-8"?>
<!DOCTYPE svg PUBLIC "-//W3C//DTD SVG 1.1//EN" "http://www.w3.org/Graphics/SVG/1.1/DTD/svg11.dtd">
<!-- Creator: CorelDRAW 2021 (64-Bit) -->
<svg xmlns="http://www.w3.org/2000/svg" xml:space="preserve" width="0.334646in" height="0.232795in" version="1.1" style="shape-rendering:geometricPrecision; text-rendering:geometricPrecision; image-rendering:optimizeQuality; fill-rule:evenodd; clip-rule:evenodd"
viewBox="0 0 7.26 5.05"
 xmlns:xlink="http://www.w3.org/1999/xlink"
 xmlns:xodm="http://www.corel.com/coreldraw/odm/2003">
 <defs>
  <style type="text/css">
   <![CDATA[
    .fil0 {fill:#00A0E3;fill-rule:nonzero}
   ]]>
  </style>
 </defs>
 <g id="Layer_x0020_1">
  <metadata id="CorelCorpID_0Corel-Layer"/>
  <g id="fluorescent_5001205.svg">
   <g id="Flourescent">
    <path class="fil0" d="M3.79 4.11l0 0.79c0,0.09 -0.07,0.16 -0.16,0.16 -0.09,0 -0.16,-0.07 -0.16,-0.16l0 -0.79c0,-0.09 0.07,-0.16 0.16,-0.16 0.09,0 0.16,0.07 0.16,0.16l0 0zm-1.05 -0.3c-0.02,-0.01 -0.04,-0.01 -0.06,-0.01 -0.06,0 -0.12,0.04 -0.15,0.1l-0.32 0.79c-0.01,0.02 -0.01,0.04 -0.01,0.06 0,0.09 0.07,0.16 0.16,0.16 0.06,0 0.12,-0.04 0.15,-0.1l0.32 -0.79c0.01,-0.02 0.01,-0.04 0.01,-0.06 0,-0.06 -0.04,-0.12 -0.1,-0.15l0 0zm1.98 0.09c-0.02,-0.06 -0.08,-0.1 -0.15,-0.1 -0.09,0 -0.16,0.07 -0.16,0.16 0,0.02 0,0.04 0.01,0.06l0.32 0.79c0.02,0.06 0.08,0.1 0.15,0.1 0.09,0 0.16,-0.07 0.16,-0.16 0,-0.02 -0,-0.04 -0.01,-0.06l-0.32 -0.79zm2.54 -1.84l0 0.95c-0,0.26 -0.21,0.47 -0.47,0.47l-6.32 0c-0.26,-0 -0.47,-0.21 -0.47,-0.47l0 -0.95c0,-0.26 0.21,-0.47 0.47,-0.47l6.32 0c0.26,0 0.47,0.21 0.47,0.47l0 0zm-6 -0.16l0 1.26 4.74 0 0 -1.26 -4.74 0zm-0.79 1.26l0.47 0 0 -1.26 -0.47 0c-0.09,0 -0.16,0.07 -0.16,0.16l0 0.95c0,0.09 0.07,0.16 0.16,0.16l0 0zm6.47 -1.11c-0,-0.09 -0.07,-0.16 -0.16,-0.16l-0.47 -0 0 1.26 0.47 0c0.09,-0 0.16,-0.07 0.16,-0.16l0 -0.95zm-3.32 -0.95c0.09,0 0.16,-0.07 0.16,-0.16l0 -0.79c0,-0.09 -0.07,-0.16 -0.16,-0.16 -0.09,0 -0.16,0.07 -0.16,0.16l0 0.79c0,0.09 0.07,0.16 0.16,0.16l0 0zm-1.09 0.06c0.02,0.06 0.08,0.1 0.15,0.1 0.09,0 0.16,-0.07 0.16,-0.16 0,-0.02 -0,-0.04 -0.01,-0.06l-0.32 -0.79c-0.02,-0.06 -0.08,-0.1 -0.15,-0.1 -0.09,0 -0.16,0.07 -0.16,0.16 0,0.02 0,0.04 0.01,0.06l0.32 0.79zm1.98 0.09c0.02,0.01 0.04,0.01 0.06,0.01 0.06,0 0.12,-0.04 0.15,-0.1l0.32 -0.79c0.01,-0.02 0.01,-0.04 0.01,-0.06 0,-0.09 -0.07,-0.16 -0.16,-0.16 -0.06,0 -0.12,0.04 -0.15,0.1l-0.32 0.79c-0.01,0.02 -0.01,0.04 -0.01,0.06 0,0.06 0.04,0.12 0.1,0.15l0 -0z"/>
   </g>
  </g>
 </g>
</svg>
