<?xml version="1.0" encoding="UTF-8"?>
<!DOCTYPE svg PUBLIC "-//W3C//DTD SVG 1.1//EN" "http://www.w3.org/Graphics/SVG/1.1/DTD/svg11.dtd">
<!-- Creator: CorelDRAW 2021 (64-Bit) -->
<svg xmlns="http://www.w3.org/2000/svg" xml:space="preserve" width="0.19076in" height="0.362382in" version="1.1" style="shape-rendering:geometricPrecision; text-rendering:geometricPrecision; image-rendering:optimizeQuality; fill-rule:evenodd; clip-rule:evenodd"
viewBox="0 0 193.63 367.82"
 xmlns:xlink="http://www.w3.org/1999/xlink"
 xmlns:xodm="http://www.corel.com/coreldraw/odm/2003">
 <defs>
  <style type="text/css">
   <![CDATA[
    .str0 {stroke:#00A0E3;stroke-width:7.99;stroke-miterlimit:22.9256}
    .fil1 {fill:none}
    .fil0 {fill:#00A0E3}
   ]]>
  </style>
 </defs>
 <g id="Layer_x0020_1">
  <metadata id="CorelCorpID_0Corel-Layer"/>
  <g id="_1807915486288">
   <g>
    <path class="fil0" d="M29.83 241.43c3.58,-3.02 24.73,-5.77 31.14,-6.39 11.86,-1.16 23.82,-1.68 35.83,-1.7 17.46,-0.03 46.3,1.27 63.73,6.65 1.03,0.32 2.63,0.79 3.33,1.57 -27.5,9.72 -113.56,12.88 -134.04,-0.13zm84.3 -118.18l10.45 7c7.43,6.43 13.44,13.01 18.59,21.72 2.43,4.11 4.81,8.35 6.73,13.11 7.48,18.56 12.79,43.6 15.43,64.87 -4.44,-1.04 -8.45,-2.43 -13.42,-3.36 -42.24,-7.96 -82.1,-4.77 -123.6,3.33 1.86,-17.34 9.5,-53.25 16.98,-68.19 7.19,-14.35 15.3,-25.76 28.72,-35.13 3.07,-2.14 4.12,-3.34 7.28,-3.32 3.55,0.02 7.11,-0.04 10.65,0.01l22.18 -0.02zm-30.73 -11c-0.4,-2.65 -0.09,-27.92 -0.09,-32.93 0,-15.65 -1.75,-19.58 13.48,-19.59 6.12,0 10.09,-0.5 12.64,4.14 1.8,3.26 1.07,11.19 1.07,15.45 0,4.73 0.53,30.61 -0.22,32.97l-26.89 -0.04zm35.7 147.61c15.4,-1.56 42.83,-2.72 53.78,-10.85 3.95,-2.93 4.58,-5.7 4.13,-12.24 -0.33,-4.92 -0.87,-9.67 -1.54,-14.53 -3.25,-23.55 -10.97,-55.8 -22.19,-74.8 -4.52,-7.65 -5.7,-8.34 -10.05,-14.13l-5.75 -6.34c-3.66,-3.43 -12.43,-10.94 -15.95,-12.25 -0.43,-6.71 -0.07,-14.61 -0.07,-21.46 0,-7.13 0,-14.26 0,-21.39 0,-7.01 -0.63,-12.5 -4.71,-16.55 -1.98,-1.97 -2.76,-3.08 -5.92,-4.62 -2.94,-1.43 -4.88,-1.72 -8.47,-2l-0.04 -44.71 -10.89 0 -0.06 44.55c-4.35,1.27 -8.93,0.45 -14.37,6.66 -3.83,4.38 -4.72,9.32 -4.72,16.68 0,13.99 0.39,28.55 -0.03,42.46 -1.03,1.02 -4.11,2.86 -5.45,3.79 -6.78,4.69 -14.02,12.2 -19.15,18.68 -16.56,20.91 -23.28,49.54 -28.1,76.95 -0.96,5.41 -1.76,10.93 -2.35,16.51 -0.61,5.81 -1.96,12.51 1.29,16.6 4.74,5.93 18.37,8.6 28.02,10.13 24.1,3.81 47.92,3.63 72.57,2.86z"/>
    <path id="_1" class="fil1 str0" d="M29.83 241.43c3.58,-3.02 24.73,-5.77 31.14,-6.39 11.86,-1.16 23.82,-1.68 35.83,-1.7 17.46,-0.03 46.3,1.27 63.73,6.65 1.03,0.32 2.63,0.79 3.33,1.57 -27.5,9.72 -113.56,12.88 -134.04,-0.13zm84.3 -118.18l10.45 7c7.43,6.43 13.44,13.01 18.59,21.72 2.43,4.11 4.81,8.35 6.73,13.11 7.48,18.56 12.79,43.6 15.43,64.87 -4.44,-1.04 -8.45,-2.43 -13.42,-3.36 -42.24,-7.96 -82.1,-4.77 -123.6,3.33 1.86,-17.34 9.5,-53.25 16.98,-68.19 7.19,-14.35 15.3,-25.76 28.72,-35.13 3.07,-2.14 4.12,-3.34 7.28,-3.32 3.55,0.02 7.11,-0.04 10.65,0.01m-8.54 -11.03c-0.4,-2.65 -0.09,-27.92 -0.09,-32.93 0,-15.65 -1.75,-19.58 13.48,-19.59 6.12,0 10.09,-0.5 12.64,4.14 1.8,3.26 1.07,11.19 1.07,15.45 0,4.73 0.53,30.61 -0.22,32.97l-26.89 -0.04zm35.7 147.61c15.4,-1.56 42.83,-2.72 53.78,-10.85 3.95,-2.93 4.58,-5.7 4.13,-12.24 -0.33,-4.92 -0.87,-9.67 -1.54,-14.53 -3.25,-23.55 -10.97,-55.8 -22.19,-74.8 -4.52,-7.65 -5.7,-8.34 -10.05,-14.13l-5.75 -6.34c-3.66,-3.43 -12.43,-10.94 -15.95,-12.25 -0.43,-6.71 -0.07,-14.61 -0.07,-21.46 0,-7.13 0,-14.26 0,-21.39 0,-7.01 -0.63,-12.5 -4.71,-16.55 -1.98,-1.97 -2.76,-3.08 -5.92,-4.62 -2.94,-1.43 -4.88,-1.72 -8.47,-2l-0.04 -44.71 -10.89 0 -0.06 44.55c-4.35,1.27 -8.93,0.45 -14.37,6.66 -3.83,4.38 -4.72,9.32 -4.72,16.68 0,13.99 0.39,28.55 -0.03,42.46 -1.03,1.02 -4.11,2.86 -5.45,3.79 -6.78,4.69 -14.02,12.2 -19.15,18.68 -16.56,20.91 -23.28,49.54 -28.1,76.95 -0.96,5.41 -1.76,10.93 -2.35,16.51 -0.61,5.81 -1.96,12.51 1.29,16.6 4.74,5.93 18.37,8.6 28.02,10.13 24.1,3.81 47.92,3.63 72.57,2.86z"/>
   </g>
   <path class="fil0 str0" d="M139.59 363.37c2.24,-2.97 4.26,-1.55 1.61,-9.51l-19.65 -58.76c-2.37,-7.3 -1.74,-5.16 -5.57,-7.58 -2.49,0.68 -3.25,0.38 -4.65,2.23 -1.3,1.73 -1.18,3.52 -0.51,5.53l10.5 31.35c2.24,6.83 4.46,13.81 6.91,20.67 1.39,3.88 3.78,13.15 5.78,14.99 2.05,1.88 3.2,1.02 5.58,1.08z"/>
   <path class="fil0 str0" d="M51.3 357.42c-1.04,5.51 3.75,5.87 6.4,6.23l0.41 -0.29c0.06,-0.04 0.14,-0.1 0.2,-0.14l1.45 -1.07c0.72,-0.66 0.99,-1.06 1.36,-2.04 0.61,-1.63 1.05,-3.2 1.62,-4.88 1.16,-3.38 2.21,-6.6 3.34,-10 2.18,-6.57 4.35,-13.23 6.61,-19.73 2.29,-6.57 4.38,-13.14 6.61,-19.74 1.13,-3.34 2.19,-6.7 3.33,-9.99 2.23,-6.45 -1.67,-6.89 -3.83,-8.24 -4.78,1.32 -4.56,1.22 -6.19,5.97 -6.12,17.79 -18.41,48.5 -21.31,63.93z"/>
   <path class="fil0 str0" d="M37.97 273.3c-2.54,0.87 -3.72,3.46 -5.68,6.53l-23.94 36.5c-1.03,1.61 -4.23,5.79 -4.34,7.86 -0.18,3.55 3.37,6.52 7.02,5.07 2.39,-0.95 8.53,-11.22 10.28,-13.93l19.17 -29.2c0.98,-1.42 4.15,-5.8 4.23,-7.83 0.13,-3.63 -3.06,-6.25 -6.72,-5z"/>
   <path class="fil0 str0" d="M182.97 329.43c3.89,0.45 7.06,-1.56 6.62,-5.55 -0.2,-1.77 -3.48,-6.28 -4.43,-7.75l-18.93 -28.8c-1.56,-2.39 -2.99,-4.74 -4.68,-7.12l-3.56 -5.42c-0.77,-0.93 -0.93,-0.59 -1.61,-1.57 -1.78,-0.03 -3.32,-0.58 -4.99,0.47 -5.41,3.38 -0.18,9.41 1.55,12.04l19.53 29.75c0.98,1.51 7.64,11.91 8.79,12.91 0.8,0.69 0.92,0.49 1.72,1.05z"/>
  </g>
 </g>
</svg>
