<?xml version="1.0" encoding="UTF-8"?>
<!DOCTYPE svg PUBLIC "-//W3C//DTD SVG 1.1//EN" "http://www.w3.org/Graphics/SVG/1.1/DTD/svg11.dtd">
<!-- Creator: CorelDRAW 2021 (64-Bit) -->
<svg xmlns="http://www.w3.org/2000/svg" xml:space="preserve" width="0.368976in" height="0.354335in" version="1.1" style="shape-rendering:geometricPrecision; text-rendering:geometricPrecision; image-rendering:optimizeQuality; fill-rule:evenodd; clip-rule:evenodd"
viewBox="0 0 31.24 30"
 xmlns:xlink="http://www.w3.org/1999/xlink"
 xmlns:xodm="http://www.corel.com/coreldraw/odm/2003">
 <defs>
  <style type="text/css">
   <![CDATA[
    .str0 {stroke:#00A0E3;stroke-width:1.67;stroke-miterlimit:22.9256}
    .fil1 {fill:none}
    .fil0 {fill:#00A0E3}
   ]]>
  </style>
 </defs>
 <g id="Layer_x0020_1">
  <metadata id="CorelCorpID_0Corel-Layer"/>
  <path class="fil0" d="M12.29 10.07l-0.59 0.23c-0.23,0.09 -0.47,0.2 -0.69,0.3 -0.02,0.01 -0.04,0.02 -0.05,0.02l-0.28 0.14c-0.07,0.04 -0.15,0.07 -0.22,0.11 -0.45,0.23 -0.89,0.48 -1.32,0.74l-0.15 0.09c-0.16,0.1 -0.77,0.47 -0.91,0.58l-1.17 0.81c-0.03,0.03 -0.06,0.05 -0.09,0.07 -0.07,0.05 -0.12,0.09 -0.19,0.14 -0.03,0.03 -0.06,0.04 -0.1,0.07l-2.21 1.75c-0.03,0.02 -0.06,0.05 -0.09,0.08 -0.03,0.03 -0.05,0.04 -0.08,0.07l-0.36 0.3c-0.21,0.17 -0.42,0.36 -0.63,0.53l-0.31 0.26c-0.02,0.02 -0.03,0.03 -0.05,0.04 -0.03,0.03 -0.06,0.04 -0.09,0.07 -0.15,0.12 -0.29,0.27 -0.44,0.39 -0.06,0.05 -0.12,0.11 -0.18,0.16l-0.79 0.69c-0.02,0.01 -0.02,0.02 -0.04,0.04l-0.21 0.18c-0,0 -0,0 -0.01,0.01l-0.1 0.08c-0.1,0.08 -0.27,0.25 -0.39,0.35 -0.18,0.15 -0.35,0.33 -0.53,0.47 -0.02,0.02 -0.03,0.04 -0.04,0.06l0 0.23 31.23 0c0,-0.38 0.05,-0.23 -0.15,-0.44l-0.74 -0.69c-0.03,-0.03 -0.05,-0.05 -0.08,-0.08l-0.42 -0.39c-0.13,-0.1 -0.29,-0.29 -0.41,-0.38l-1.17 -1.08c-0.03,-0.03 -0.05,-0.04 -0.08,-0.07l-0.58 -0.54c-0.03,-0.03 -0.05,-0.04 -0.08,-0.07 -0.17,-0.18 -0.58,-0.5 -0.77,-0.68l-0.61 -0.51c-0.04,-0.03 -0.05,-0.05 -0.09,-0.08 -0.03,-0.02 -0.06,-0.05 -0.09,-0.07l-1.16 -0.92c-0.24,-0.19 -0.49,-0.37 -0.74,-0.55 -0.06,-0.05 -0.12,-0.08 -0.19,-0.13l-0.57 -0.39c-0.23,-0.16 -0.56,-0.34 -0.79,-0.5 -0.11,-0.07 -0.23,-0.13 -0.35,-0.2l-0.89 -0.49 -0.87 -0.42c-0.04,-0.02 -0.07,-0.03 -0.11,-0.05l-0.22 -0.09c-0.04,-0.02 -0.08,-0.03 -0.12,-0.05 -0.04,-0.01 -0.08,-0.03 -0.11,-0.04l-0.23 -0.09c-0.03,-0.01 -0.09,-0.04 -0.12,-0.04 0,-0.79 0,-1.58 0,-2.37 0,-0.36 0.01,-0.5 -0.02,-0.86 -0.03,-0.37 -0.19,-0.79 -0.39,-1.11l-0.11 -0.18c-0.04,-0.07 -0.09,-0.11 -0.13,-0.17l-0.36 -0.38c-0.02,-0.01 -0.02,-0.02 -0.04,-0.03 -0.02,-0.02 -0.02,-0.02 -0.04,-0.03 -0.06,-0.05 -0.11,-0.09 -0.16,-0.14l-0.46 -0.29c-0.31,-0.15 -0.52,-0.23 -0.85,-0.33 -0.22,-0.07 -0.68,-0.12 -0.92,-0.13l-0.04 0c-0.27,0 -0.43,0.01 -0.71,0.05 -0.18,0.02 -0.32,0.06 -0.49,0.11 -0.2,0.05 -0.45,0.15 -0.64,0.25l-0.29 0.16c-0.19,0.1 -0.34,0.24 -0.51,0.37 -0.18,0.15 -0.43,0.42 -0.56,0.64 -0.02,0.04 -0.04,0.06 -0.06,0.1 -0.14,0.21 -0.24,0.47 -0.32,0.71 -0.01,0.05 -0.02,0.08 -0.03,0.13 -0.1,0.35 -0.07,0.75 -0.07,1.11 0,0.79 0,1.59 0,2.38z"/>
  <path class="fil0" d="M9.85 19.83c0,0.04 -0.02,0.04 -0.04,0.08l0.25 0.35c0.1,0.12 0.18,0.22 0.27,0.34l0.56 0.67c0.2,0.21 0.39,0.41 0.6,0.62l0.82 0.71c0.4,0.3 0.52,0.37 0.92,0.61 0.14,0.08 0.26,0.14 0.41,0.21 0.15,0.07 0.27,0.12 0.44,0.18 0.49,0.16 0.47,0.14 1,0.23 0.39,0.07 0.74,0.02 1.12,-0.03 0.47,-0.06 1.01,-0.24 1.41,-0.44 0.44,-0.22 0.75,-0.41 1.14,-0.69l0.21 -0.17c0.19,-0.15 0.32,-0.28 0.45,-0.38 0.51,-0.4 1.33,-1.35 1.78,-1.92 0.31,-0.4 0.18,-0.19 0.18,-0.42l-11.55 0 0 0.06z"/>
  <path class="fil0" d="M18.31 26.09c0,0.18 0.08,0.36 0.12,0.5l0.15 0.5c0.02,0.08 0.05,0.15 0.07,0.23 0.12,0.46 0.34,1.08 0.45,1.48 0.03,0.1 0.04,0.16 0.07,0.25 0.08,0.25 0.12,0.71 0.56,0.71 0.24,0 0.45,-0.2 0.45,-0.45 0,-0.17 -0.08,-0.37 -0.12,-0.5l-0.74 -2.47c-0.08,-0.29 -0.15,-0.71 -0.57,-0.71 -0.23,0 -0.45,0.22 -0.45,0.45z"/>
  <path class="fil0" d="M23.64 22.75c0,0.27 0.06,0.3 0.27,0.51l1.06 0.99c0.39,0.39 0.74,0.7 1.12,1.06l0.03 0.02c0.21,0.21 0.19,0.2 0.5,0.2 0.24,0 0.52,-0.39 0.28,-0.73l-2.48 -2.35c-0.32,-0.3 -0.77,0.01 -0.77,0.3z"/>
  <path class="fil0" d="M4.24 25.69c0,0.32 0.11,0.53 0.48,0.53 0.28,0 0.56,-0.43 0.76,-0.62l0.83 -0.88c0.06,-0.07 0.12,-0.11 0.17,-0.18 0.16,-0.2 0.32,-0.32 0.5,-0.55 0.25,-0.3 0.44,-0.29 0.44,-0.71 0,-0.23 -0.17,-0.38 -0.39,-0.41 -0.3,-0.04 -0.47,0.23 -0.71,0.47l-0.38 0.42c-0.09,0.12 -0.28,0.28 -0.39,0.41l-1.16 1.24c-0.07,0.08 -0.15,0.16 -0.15,0.28z"/>
  <path class="fil0" d="M11.28 29.55c0,0.21 0.18,0.45 0.37,0.45l0.02 0c0.45,-0 0.49,-0.16 0.59,-0.63l0.21 -0.89c0.02,-0.09 0.05,-0.17 0.07,-0.28 0.02,-0.09 0.04,-0.22 0.06,-0.31l0.35 -1.46c0.08,-0.31 -0.13,-0.59 -0.44,-0.59 -0.41,0 -0.45,0.36 -0.53,0.7 -0.08,0.33 -0.15,0.65 -0.23,1l-0.47 2.02z"/>
  <line class="fil1 str0" x1="15.95" y1="4.61" x2="15.94" y2= "0" />
 </g>
</svg>
