<?xml version="1.0" encoding="UTF-8"?>
<!DOCTYPE svg PUBLIC "-//W3C//DTD SVG 1.1//EN" "http://www.w3.org/Graphics/SVG/1.1/DTD/svg11.dtd">
<!-- Creator: CorelDRAW 2021 (64-Bit) -->
<svg xmlns="http://www.w3.org/2000/svg" xml:space="preserve" width="0.280957in" height="0.354331in" version="1.1" style="shape-rendering:geometricPrecision; text-rendering:geometricPrecision; image-rendering:optimizeQuality; fill-rule:evenodd; clip-rule:evenodd"
viewBox="0 0 6.98 8.81"
 xmlns:xlink="http://www.w3.org/1999/xlink"
 xmlns:xodm="http://www.corel.com/coreldraw/odm/2003">
 <defs>
  <style type="text/css">
   <![CDATA[
    .fil0 {fill:#00A0E3}
   ]]>
  </style>
 </defs>
 <g id="Layer_x0020_1">
  <metadata id="CorelCorpID_0Corel-Layer"/>
  <g id="_1772140932336">
   <path class="fil0" d="M1.46 3.46c0,0.12 0.02,0.28 0.04,0.39 0.07,0.43 0.22,0.6 0.42,0.93 0.23,0.38 0.42,0.85 0.46,1.32 0.23,-0.05 0.5,-0.03 0.74,-0.03l-0.05 -0.82c-0.02,-0.26 -0.05,-0.56 -0.07,-0.83 -0.26,0 -0.37,0.01 -0.54,-0.1 -0.32,-0.2 -0.33,-0.77 0.08,-0.95 0.35,-0.16 0.69,0.07 0.76,0.38 0.01,0.05 0.03,0.25 0.03,0.3l0.34 0c0.02,-0.2 0.02,-0.46 0.2,-0.6 0.39,-0.31 0.91,-0.09 0.91,0.44 0,0.16 -0.09,0.3 -0.18,0.37 -0.19,0.16 -0.35,0.14 -0.6,0.14 0,0.15 -0.01,0.27 -0.02,0.41 -0.02,0.3 -0.09,0.98 -0.09,1.24 0.35,0 0.4,0.01 0.74,0.03 0,-0.18 0.1,-0.54 0.16,-0.69 0.08,-0.21 0.17,-0.38 0.27,-0.57 0.3,-0.56 0.46,-0.7 0.46,-1.43 0,-0.27 -0.1,-0.6 -0.19,-0.79 -0.07,-0.14 -0.18,-0.32 -0.28,-0.44 -0.04,-0.05 -0.08,-0.08 -0.13,-0.13 -0.5,-0.5 -1.2,-0.7 -1.9,-0.53 -0.75,0.18 -1.3,0.77 -1.49,1.5 -0.02,0.07 -0.03,0.14 -0.04,0.2 -0.01,0.07 -0.02,0.18 -0.02,0.24z"/>
   <path class="fil0" d="M2.2 7.6c0,0.17 0.12,0.29 0.29,0.29l2 0c0.38,0 0.41,-0.57 -0.03,-0.57l-1.93 0c-0.1,0 -0.16,0.02 -0.22,0.07 -0.05,0.05 -0.11,0.11 -0.11,0.2z"/>
   <path class="fil0" d="M2.2 6.68c0,0.2 0.13,0.31 0.33,0.31l1.93 0c0.43,0 0.42,-0.57 0.03,-0.57l-2 0c-0.07,0 -0.16,0.04 -0.2,0.07 -0.03,0.03 -0.09,0.13 -0.09,0.19z"/>
   <path class="fil0" d="M3.44 8.81c0.18,0 0.3,-0.02 0.44,-0.16 0.1,-0.1 0.16,-0.23 0.16,-0.39l-1.1 0c0,0.17 0.06,0.28 0.14,0.37 0.07,0.08 0.22,0.18 0.36,0.18z"/>
   <path class="fil0" d="M-0 3.49c0,0.26 0.42,0.19 0.67,0.19 0.07,0 0.13,-0.01 0.17,-0.04 0.17,-0.1 0.08,-0.34 -0.08,-0.34l-0.58 0c-0.1,0 -0.17,0.09 -0.17,0.19z"/>
   <path class="fil0" d="M6.06 3.49c0,0.26 0.42,0.19 0.67,0.19 0.37,0 0.29,-0.38 0.09,-0.38l-0.58 0c-0.1,0 -0.17,0.09 -0.17,0.19z"/>
   <path class="fil0" d="M5.69 4.82c0,0.22 0.08,0.2 0.4,0.39 0.05,0.03 0.18,0.11 0.24,0.12 0.19,0.03 0.29,-0.24 0.1,-0.36 -0.07,-0.05 -0.46,-0.29 -0.54,-0.29 -0.12,0 -0.21,0.07 -0.21,0.14z"/>
   <path class="fil0" d="M1.65 0.62c0,0.09 0.21,0.43 0.29,0.56 0.11,0.2 0.37,0.11 0.37,-0.07 0,-0.08 -0.21,-0.42 -0.26,-0.5 -0.19,-0.33 -0.39,-0.1 -0.39,0.02z"/>
   <path class="fil0" d="M4.68 1.08c0,0.23 0.26,0.28 0.36,0.1 0.03,-0.06 0.06,-0.11 0.1,-0.18 0.06,-0.1 0.19,-0.29 0.19,-0.39 0,-0.13 -0.21,-0.33 -0.39,-0.03 -0.04,0.07 -0.27,0.44 -0.27,0.49z"/>
   <path class="fil0" d="M0.45 1.82c0,0.15 0.06,0.15 0.17,0.22 0.08,0.05 0.15,0.09 0.23,0.13 0.06,0.03 0.18,0.11 0.24,0.12 0.16,0.02 0.2,-0.11 0.2,-0.23 0,-0.1 -0.32,-0.25 -0.45,-0.33 -0.09,-0.06 -0.11,-0.09 -0.22,-0.09 -0.1,0 -0.17,0.08 -0.17,0.17z"/>
   <path class="fil0" d="M0.45 5.13c0,0.14 0.09,0.21 0.19,0.2 0.09,-0 0.38,-0.2 0.47,-0.25 0.17,-0.09 0.18,-0.1 0.18,-0.26 0,-0.07 -0.14,-0.2 -0.3,-0.11l-0.44 0.25c-0.06,0.03 -0.11,0.08 -0.11,0.17z"/>
   <path class="fil0" d="M3.3 0.21l0 0.53c0,0.24 0.38,0.24 0.38,0l0 -0.53c0,-0.12 -0.08,-0.19 -0.16,-0.21l-0.06 0c-0.08,0.01 -0.16,0.08 -0.16,0.21z"/>
   <path class="fil0" d="M5.69 2.06c0,0.12 0.04,0.24 0.19,0.24 0.08,-0 0.38,-0.2 0.47,-0.25 0.17,-0.09 0.18,-0.1 0.18,-0.26 0,-0.07 -0.14,-0.2 -0.3,-0.11l-0.41 0.24c-0.05,0.03 -0.13,0.08 -0.13,0.14z"/>
   <path class="fil0" d="M3.48 6.07l0.1 -0.83c0.01,-0.12 0.03,-0.29 0.03,-0.41 0,-0.12 0.01,-0.33 0.03,-0.43l-0.31 0c0.03,0.14 0.06,1.04 0.1,1.25 0.01,0.07 0.01,0.14 0.02,0.21 0.01,0.06 0.02,0.17 0.02,0.22z"/>
   <path class="fil0" d="M2.75 4.04l0.19 0c0,-0.15 0.04,-0.38 -0.19,-0.38 -0.24,0 -0.24,0.38 0,0.38z"/>
   <path class="fil0" d="M4.04 3.84l0 0.21c0.13,0 0.35,0.03 0.37,-0.18 0.02,-0.25 -0.37,-0.26 -0.37,-0.03z"/>
  </g>
 </g>
</svg>
