<?xml version="1.0" encoding="UTF-8"?>
<!DOCTYPE svg PUBLIC "-//W3C//DTD SVG 1.1//EN" "http://www.w3.org/Graphics/SVG/1.1/DTD/svg11.dtd">
<!-- Creator: CorelDRAW 2021 (64-Bit) -->
<svg xmlns="http://www.w3.org/2000/svg" xml:space="preserve" width="0.357327in" height="0.357331in" version="1.1" style="shape-rendering:geometricPrecision; text-rendering:geometricPrecision; image-rendering:optimizeQuality; fill-rule:evenodd; clip-rule:evenodd"
viewBox="0 0 21.48 21.48"
 xmlns:xlink="http://www.w3.org/1999/xlink"
 xmlns:xodm="http://www.corel.com/coreldraw/odm/2003">
 <defs>
  <style type="text/css">
   <![CDATA[
    .str0 {stroke:#00A0E3;stroke-width:0.18;stroke-miterlimit:22.9256}
    .fil0 {fill:#00A0E3}
   ]]>
  </style>
 </defs>
 <g id="Layer_x0020_1">
  <metadata id="CorelCorpID_0Corel-Layer"/>
  <g id="_1807992532608">
   <ellipse class="fil0 str0" cx="10.74" cy="10.74" rx="3.04" ry="2.84"/>
   <g>
    <path class="fil0 str0" d="M10.72 0.09l0 0c0.51,0 0.94,0.41 0.94,0.9l0 4.44c0,0.5 -0.42,0.9 -0.94,0.9l0 0c-0.51,0 -0.94,-0.41 -0.94,-0.9l0 -4.44c0,-0.5 0.42,-0.9 0.94,-0.9z"/>
    <path class="fil0 str0" d="M18.02 3.27l0 0c0.37,0.34 0.39,0.92 0.04,1.28l-3.15 3.23c-0.35,0.36 -0.95,0.38 -1.32,0.04l0 0c-0.37,-0.34 -0.39,-0.92 -0.04,-1.28l3.15 -3.23c0.35,-0.36 0.95,-0.38 1.32,-0.04z"/>
    <path class="fil0 str0" d="M21.39 10.94l0 0c-0.02,0.5 -0.45,0.89 -0.97,0.87l-4.59 -0.15c-0.51,-0.02 -0.92,-0.44 -0.9,-0.94l0 0c0.02,-0.5 0.45,-0.89 0.97,-0.87l4.59 0.15c0.51,0.02 0.92,0.44 0.9,0.94z"/>
    <path class="fil0 str0" d="M6.55 10.97l0 0c-0.02,0.5 -0.45,0.89 -0.97,0.87l-4.59 -0.15c-0.51,-0.02 -0.92,-0.44 -0.9,-0.94l0 0c0.02,-0.5 0.45,-0.89 0.97,-0.87l4.59 0.15c0.51,0.02 0.92,0.44 0.9,0.94z"/>
    <path class="fil0 str0" d="M7.63 7.5l0 0c-0.36,0.35 -0.96,0.36 -1.32,0l-3.26 -3.13c-0.37,-0.35 -0.37,-0.93 -0.01,-1.28l0 -0c0.36,-0.35 0.96,-0.36 1.32,-0l3.26 3.13c0.37,0.35 0.37,0.93 0,1.28z"/>
    <path class="fil0 str0" d="M10.7 21.39l0 0c0.51,0 0.94,-0.41 0.94,-0.9l0 -4.44c0,-0.5 -0.42,-0.9 -0.94,-0.9l0 0c-0.51,0 -0.94,0.41 -0.94,0.9l0 4.44c0,0.5 0.42,0.9 0.94,0.9z"/>
    <path class="fil0 str0" d="M17.99 18.21l0 0c0.37,-0.34 0.39,-0.92 0.04,-1.28l-3.15 -3.23c-0.35,-0.36 -0.95,-0.38 -1.32,-0.04l0 0c-0.37,0.34 -0.39,0.92 -0.04,1.28l3.15 3.23c0.35,0.36 0.95,0.38 1.32,0.04z"/>
    <path class="fil0 str0" d="M7.6 13.98l0 0c-0.36,-0.35 -0.96,-0.36 -1.32,-0l-3.26 3.13c-0.37,0.35 -0.37,0.93 -0,1.28l0 0c0.36,0.35 0.96,0.36 1.32,0l3.26 -3.13c0.37,-0.35 0.37,-0.93 0,-1.28z"/>
   </g>
  </g>
 </g>
</svg>
