<?xml version="1.0" encoding="UTF-8"?>
<!DOCTYPE svg PUBLIC "-//W3C//DTD SVG 1.1//EN" "http://www.w3.org/Graphics/SVG/1.1/DTD/svg11.dtd">
<!-- Creator: CorelDRAW 2021 (64-Bit) -->
<svg xmlns="http://www.w3.org/2000/svg" xml:space="preserve" width="0.224386in" height="0.354331in" version="1.1" style="shape-rendering:geometricPrecision; text-rendering:geometricPrecision; image-rendering:optimizeQuality; fill-rule:evenodd; clip-rule:evenodd"
viewBox="0 0 28.03 44.26"
 xmlns:xlink="http://www.w3.org/1999/xlink"
 xmlns:xodm="http://www.corel.com/coreldraw/odm/2003">
 <defs>
  <style type="text/css">
   <![CDATA[
    .fil0 {fill:#00A0E3}
   ]]>
  </style>
 </defs>
 <g id="Layer_x0020_1">
  <metadata id="CorelCorpID_0Corel-Layer"/>
  <path class="fil0" d="M14.71 42.12c0.24,0.75 -1.25,1.09 -1.41,0.18 -0.04,-0.23 0.05,-0.2 0.3,-0.21 0.35,-0.02 0.77,-0.02 1.11,0.04zm4.46 -2.33c-0.21,0.96 -1.15,0.79 -2.31,0.8 -1.92,0.02 -4.29,0.04 -6.19,-0.01 -0.43,-0.01 -1.1,0.03 -1.42,-0.19 -0.29,-0.2 -0.51,-0.65 -0.38,-1.18 0.06,-0.26 0.24,-0.55 0.43,-0.7 0.15,-0.12 0.1,-0.09 0.32,-0.09l4.7 0.01c1.04,-0.01 2.08,-0 3.12,0 0.92,0 1.07,-0.12 1.38,0.2 0.26,0.27 0.46,0.64 0.34,1.15zm0 -3.75c-0.07,0.35 -0.35,0.82 -0.73,0.84 -0.5,0.02 -1.08,-0 -1.58,-0 -2.28,0 -4.75,-0.04 -7,-0 -0.4,0.01 -0.4,0.05 -0.61,-0.17 -0.74,-0.79 -0.42,-1.83 0.42,-1.94 0.74,-0.09 3.79,-0.05 4.66,-0.06 1.03,-0 2.08,-0.01 3.12,0.01 0.44,0.01 1.04,-0.04 1.36,0.19 0.27,0.19 0.47,0.65 0.37,1.13zm-0.04 -3.57c-0.11,0.51 -0.32,0.63 -0.86,0.69 -0.47,0.06 -1.03,0.05 -1.51,0.06 -1.92,0.02 -4.28,0.03 -6.19,-0.02 -0.39,-0.01 -1.11,-0 -1.39,-0.2 -0.54,-0.39 -0.48,-1.9 0.49,-1.97 1.16,-0.08 6.53,-0.05 7.81,-0.02 0.48,0.01 1.03,-0.02 1.34,0.25 0.3,0.27 0.42,0.66 0.31,1.2zm-6.57 -17l2.93 0 -0 13.98c-0.03,0.07 0.09,0.08 -0.3,0.08 -0.57,-0.01 -2.35,0.03 -2.64,-0.02 -0.08,-0.31 -0.03,-10.81 -0.03,-12.31l0 -1.63c0.01,-0.07 0.03,-0.08 0.04,-0.11zm-1.47 -1.47c-0.63,-0 -1.51,0.11 -1.93,-0.25 -0.43,-0.38 -0.4,-1.21 -0.03,-1.65 0.33,-0.39 1.27,-0.36 1.63,-0 0.39,0.38 0.28,1.11 0.32,1.9zm5.09 -0c0,-0.64 -0.04,-1.48 0.32,-1.89 0.27,-0.3 1.88,-0.72 1.93,0.81 0.05,1.34 -1.31,1.09 -2.25,1.09zm-5.11 1.49l0 14.01 -1.48 -0c0.01,-0.98 0.04,-2.07 -0.03,-3.03 -0.04,-0.6 -0.18,-0.66 -0.58,-0.91 -0.92,-0.56 -1.29,-0.65 -2.38,-1.41 -0.81,-0.56 -1.36,-1.13 -2.01,-1.83 -0.9,-0.98 -1.71,-2.24 -2.3,-3.75 -0.68,-1.76 -0.86,-3.23 -0.79,-5.3 0.22,-6.47 5.8,-11.91 12.51,-11.8 4.1,0.07 6.55,1.5 8.72,3.44 0.29,0.26 0.46,0.49 0.72,0.77 1.82,1.99 2.99,4.76 3.07,7.59 0.06,2.07 -0.06,3.52 -0.77,5.27 -0.29,0.73 -0.61,1.41 -1,2.03l-0.96 1.35c-0.06,0.07 -0.09,0.13 -0.16,0.2 -1.15,1.27 -1.98,2.02 -3.59,2.91 -1.12,0.62 -1.52,0.59 -1.57,1.45 -0.04,0.64 0.06,2.61 -0.05,3.02l-1.43 -0 -0.02 -14.03c0.8,-0.04 1.12,-0.04 1.67,-0.43 0.34,-0.24 0.78,-0.68 1,-1.08 0.6,-1.07 0.15,-2.22 -0.7,-3 -1.15,-1.05 -3.21,-0.72 -3.97,1.08 -0.23,0.55 -0.17,1.29 -0.17,1.94l-2.23 -0c-0.02,-0.65 -0.03,-1.37 -0.23,-1.94 -0.09,-0.26 -0.26,-0.53 -0.4,-0.68 -0.63,-0.67 -1.21,-1.11 -2.3,-0.98 -1.06,0.12 -2.04,1.13 -2.2,2.17 -0.18,1.17 0.62,2.32 1.63,2.72 0.48,0.19 1.44,0.18 2.01,0.2zm2.71 28.77l0.51 0c0.52,-0.25 0.63,-0.04 1.3,-0.73 0.44,-0.45 0.45,-0.75 0.66,-1.41 1.92,-0.22 2.65,0.25 3.79,-1.05 0.34,-0.39 0.65,-1.04 0.59,-1.76 -0.07,-0.84 -0.45,-1.15 -0.79,-1.65 0.23,-0.49 0.78,-0.77 0.79,-1.85 0.01,-0.85 -0.45,-1.36 -0.77,-1.85 0.11,-0.27 0.54,-0.6 0.72,-1.39 0.14,-0.61 -0.05,-1.34 -0.33,-1.77 -0.2,-0.31 -0.29,-0.2 -0.32,-0.72l-0.02 -3.25c0.05,-0.11 -0,-0.04 0.09,-0.11 0.01,-0.01 0.1,-0.06 0.11,-0.07 0.91,-0.51 1.71,-0.92 2.55,-1.61 0.1,-0.08 0.12,-0.09 0.2,-0.16 0.09,-0.07 0.13,-0.12 0.22,-0.19 0.16,-0.13 0.25,-0.24 0.4,-0.36 0.86,-0.75 1.99,-2.11 2.68,-3.37 2.67,-4.89 2.57,-10.46 -0.84,-15.09 -0.51,-0.69 -0.83,-1.04 -1.41,-1.62l-0.77 -0.76c-1.33,-1.08 -1.86,-1.59 -3.71,-2.35 -2.9,-1.19 -4.43,-0.97 -4.94,-1.13l-1.12 0c-0.2,0.06 -1.02,0.1 -1.32,0.15 -1.23,0.2 -2.38,0.52 -3.5,1.02 -1.71,0.76 -3.18,1.76 -4.46,3.08l-1.04 1.17c-0.11,0.14 -0.22,0.27 -0.34,0.43 -0.2,0.28 -0.42,0.6 -0.61,0.92 -3.18,5.18 -2.61,11.4 1,15.95 0.96,1.21 1.82,1.98 3.12,2.93 0.58,0.43 1.25,0.73 1.92,1.1 0,0.72 0,1.44 -0,2.16 -0,0.35 0,0.71 -0.01,1.06 -0.03,0.56 -0.06,0.46 -0.28,0.8 -1.11,1.64 0.22,2.93 0.34,3.2 -0.46,0.73 -1.18,1.69 -0.52,2.93 0.09,0.16 0.16,0.25 0.25,0.38 0.12,0.16 0.21,0.21 0.32,0.35 -0.09,0.18 -0.35,0.47 -0.49,0.69 -0.98,1.52 0.31,3.48 1.73,3.69 0.69,0.1 1.61,0.1 2.32,0.12 0.18,0.47 0.05,0.77 0.65,1.42 0.55,0.59 0.98,0.56 1.34,0.73z"/>
 </g>
</svg>
