<?xml version="1.0" encoding="UTF-8"?>
<!DOCTYPE svg PUBLIC "-//W3C//DTD SVG 1.1//EN" "http://www.w3.org/Graphics/SVG/1.1/DTD/svg11.dtd">
<!-- Creator: CorelDRAW 2021 (64-Bit) -->
<svg xmlns="http://www.w3.org/2000/svg" xml:space="preserve" width="0.240083in" height="0.354331in" version="1.1" style="shape-rendering:geometricPrecision; text-rendering:geometricPrecision; image-rendering:optimizeQuality; fill-rule:evenodd; clip-rule:evenodd"
viewBox="0 0 11.62 17.15"
 xmlns:xlink="http://www.w3.org/1999/xlink"
 xmlns:xodm="http://www.corel.com/coreldraw/odm/2003">
 <defs>
  <style type="text/css">
   <![CDATA[
    .fil0 {fill:#00A0E3}
   ]]>
  </style>
 </defs>
 <g id="Layer_x0020_1">
  <metadata id="CorelCorpID_0Corel-Layer"/>
  <path class="fil0" d="M4.5 15.81l2.62 -0.01c-0.09,1.01 -2.48,1.05 -2.62,0.01zm0.62 -7.24c-0.03,-0.68 0.05,-1.17 -0.29,-1.71 -0.11,-0.18 -0.31,-0.38 -0.59,-0.42 -1.44,-0.23 -1.53,2 0.42,2.46l-0 3.65 -1.14 0c0.03,-0.99 -0.48,-2.02 -1.12,-2.62 -0.24,-0.22 -0.4,-0.38 -0.62,-0.65 -0.73,-0.88 -1.27,-2.28 -1.15,-3.81 0.21,-2.64 2.42,-4.84 5.18,-4.84 2.78,0 4.96,2.18 5.19,4.84 0.15,1.8 -0.62,3.47 -1.76,4.45 -0.71,0.62 -1.12,1.58 -1.14,2.63l-1.13 0.01 0.01 -3.68c0.14,0 0.54,-0.22 0.68,-0.29 0.62,-0.32 0.99,-1.05 0.72,-1.63 -0.15,-0.33 -0.59,-0.57 -0.98,-0.51 -0.28,0.04 -0.48,0.23 -0.6,0.41 -0.36,0.57 -0.26,1 -0.3,1.71 -0.52,0.11 -0.87,0.08 -1.39,0.02zm1.39 0.47l0 3.5 -1.39 0.01 0 -3.51c0.3,0.06 1,0.07 1.39,-0zm0.45 -0.64c0.01,-0.4 -0.03,-1.57 0.61,-1.51 0.32,0.03 0.49,0.26 0.42,0.61 -0.08,0.42 -0.64,0.82 -1.03,0.9zm-3.43 6.78l0 -0.68c0.26,-0.07 4.02,-0.04 4.57,-0l0 0.68c-0.12,0.03 -4.2,0.03 -4.57,0.01zm-0.33 -2.01l5.22 -0.01 0 0.7 -5.22 0.01 -0.01 -0.7zm1.47 -4.77c-0.5,-0.14 -1.45,-0.88 -0.93,-1.37 0.21,-0.19 0.58,-0.26 0.79,0.23 0.16,0.37 0.12,0.72 0.14,1.14zm4.04 6.01c0.43,-0.34 0.49,-1.35 0.11,-1.69 -0.14,-0.13 -0.14,-0.2 -0.1,-0.58 0.05,-0.4 0.2,-0.8 0.39,-1.11 0.1,-0.16 0.19,-0.3 0.31,-0.42 0.37,-0.38 0.76,-0.73 1.06,-1.16 0.68,-0.95 1.09,-2.08 1.14,-3.32 0.16,-4.38 -4.32,-7.4 -8.23,-5.58 -0.58,0.27 -1.29,0.77 -1.72,1.23 -0.9,0.97 -1.7,2.37 -1.66,4.29 0.02,0.86 0.24,1.75 0.57,2.42 0.17,0.34 0.36,0.67 0.56,0.93l1.06 1.16c0.43,0.51 0.7,1.18 0.73,1.88 -0.02,0.04 -0.87,1.22 0,1.93 -0,0.51 -0.13,1.19 0.43,1.37 0.17,0.05 0.37,0.01 0.55,0.03 0.05,0.53 0.27,0.83 0.56,1.05 0.5,0.38 2.22,0.38 2.71,0 0.29,-0.22 0.51,-0.52 0.56,-1.05 0.19,-0.03 0.38,0.02 0.57,-0.04 0.53,-0.18 0.41,-0.83 0.41,-1.36z"/>
 </g>
</svg>
