<?xml version="1.0" encoding="UTF-8"?>
<!DOCTYPE svg PUBLIC "-//W3C//DTD SVG 1.1//EN" "http://www.w3.org/Graphics/SVG/1.1/DTD/svg11.dtd">
<!-- Creator: CorelDRAW 2021 (64-Bit) -->
<svg xmlns="http://www.w3.org/2000/svg" xml:space="preserve" width="0.354331in" height="0.16674in" version="1.1" style="shape-rendering:geometricPrecision; text-rendering:geometricPrecision; image-rendering:optimizeQuality; fill-rule:evenodd; clip-rule:evenodd"
viewBox="0 0 11.76 5.54"
 xmlns:xlink="http://www.w3.org/1999/xlink"
 xmlns:xodm="http://www.corel.com/coreldraw/odm/2003">
 <defs>
  <style type="text/css">
   <![CDATA[
    .fil0 {fill:#00A0E3}
   ]]>
  </style>
 </defs>
 <g id="Layer_x0020_1">
  <metadata id="CorelCorpID_0Corel-Layer"/>
  <g id="_1771746343536">
   <path class="fil0" d="M5.9 1.3l-2.1 0c0,1.48 0.94,2.68 2.1,2.68 1.16,0 2.1,-1.2 2.1,-2.68l-2.1 0zm0.02 0.7l1.26 0c0,0.74 -0.56,1.34 -1.26,1.34 -0.7,0 -1.26,-0.6 -1.26,-1.34l1.26 0z"/>
   <path class="fil0" d="M5.88 0c3.25,0 5.88,0.4 5.88,0.89 0,0.49 -2.63,0.89 -5.88,0.89 -3.25,0 -5.88,-0.4 -5.88,-0.89 0,-0.49 2.63,-0.89 5.88,-0.89zm0.02 0.41c2.78,0 5.04,0.2 5.04,0.45 0,0.25 -2.26,0.45 -5.04,0.45 -2.78,0 -5.04,-0.2 -5.04,-0.45 0,-0.25 2.26,-0.45 5.04,-0.45z"/>
   <path class="fil0" d="M3.46 2.03l-0.92 0.09c-0.07,0.01 -0.13,-0.05 -0.14,-0.12l0 -0c-0.01,-0.07 0.05,-0.14 0.11,-0.14l0.92 -0.09c0.07,-0.01 0.13,0.05 0.14,0.12l0 0c0.01,0.07 -0.05,0.14 -0.11,0.15z"/>
   <path class="fil0" d="M3.64 2.65l-0.87 0.34c-0.07,0.03 -0.14,-0.01 -0.16,-0.08l0 -0c-0.02,-0.07 0.01,-0.15 0.08,-0.17l0.87 -0.34c0.07,-0.03 0.14,0.01 0.16,0.08l0 0c0.02,0.07 -0.01,0.15 -0.08,0.17z"/>
   <path class="fil0" d="M3.97 3.19l-0.71 0.63c-0.05,0.05 -0.13,0.04 -0.18,-0.02l0 -0c-0.04,-0.06 -0.04,-0.14 0.02,-0.19l0.71 -0.63c0.05,-0.05 0.13,-0.04 0.18,0.02l0 0c0.04,0.06 0.04,0.14 -0.02,0.19z"/>
   <path class="fil0" d="M4.42 3.77l-0.46 0.85c-0.03,0.06 -0.11,0.09 -0.17,0.05l0 0c-0.06,-0.04 -0.08,-0.12 -0.05,-0.18l0.46 -0.85c0.03,-0.06 0.11,-0.09 0.17,-0.05l0 0c0.06,0.04 0.08,0.12 0.05,0.18z"/>
   <path class="fil0" d="M5.03 4.14l-0.16 0.97c-0.01,0.07 -0.08,0.12 -0.15,0.11l-0 0c-0.07,-0.01 -0.11,-0.08 -0.1,-0.15l0.16 -0.97c0.01,-0.07 0.08,-0.12 0.15,-0.11l0 0c0.07,0.01 0.11,0.08 0.1,0.15z"/>
   <path class="fil0" d="M8.34 2.03l0.92 0.09c0.07,0.01 0.13,-0.05 0.14,-0.12l0 -0c0.01,-0.07 -0.05,-0.14 -0.11,-0.15l-0.92 -0.09c-0.07,-0.01 -0.13,0.05 -0.14,0.12l0 0c-0.01,0.07 0.05,0.14 0.11,0.14z"/>
   <path class="fil0" d="M8.15 2.58l0.87 0.34c0.07,0.03 0.14,-0.01 0.16,-0.08l0 -0c0.02,-0.07 -0.01,-0.15 -0.08,-0.17l-0.87 -0.34c-0.07,-0.03 -0.14,0.01 -0.16,0.08l-0 0c-0.02,0.07 0.01,0.15 0.08,0.17z"/>
   <path class="fil0" d="M7.82 3.17l0.71 0.63c0.05,0.05 0.13,0.04 0.18,-0.02l0 -0c0.04,-0.06 0.04,-0.14 -0.02,-0.19l-0.71 -0.63c-0.05,-0.05 -0.13,-0.04 -0.18,0.02l-0 0c-0.04,0.06 -0.04,0.14 0.02,0.19z"/>
   <path class="fil0" d="M7.31 3.78l0.46 0.85c0.03,0.06 0.11,0.09 0.17,0.05l0 0c0.06,-0.04 0.08,-0.12 0.05,-0.18l-0.46 -0.85c-0.03,-0.06 -0.11,-0.09 -0.17,-0.05l0 0c-0.06,0.04 -0.08,0.12 -0.05,0.18z"/>
   <path class="fil0" d="M6.69 4.18l0.16 0.97c0.01,0.07 0.08,0.12 0.15,0.11l0 0c0.07,-0.01 0.11,-0.08 0.1,-0.15l-0.16 -0.97c-0.01,-0.07 -0.08,-0.12 -0.15,-0.11l-0 0c-0.07,0.01 -0.11,0.08 -0.1,0.15z"/>
   <path class="fil0" d="M5.76 4.42l0 0.98c0,0.07 0.06,0.13 0.13,0.13l0 0c0.07,0 0.13,-0.06 0.13,-0.13l0 -0.98c0,-0.07 -0.06,-0.13 -0.13,-0.13l-0 0c-0.07,0 -0.13,0.06 -0.13,0.13z"/>
  </g>
 </g>
</svg>
