<?xml version="1.0" encoding="UTF-8"?>
<!DOCTYPE svg PUBLIC "-//W3C//DTD SVG 1.1//EN" "http://www.w3.org/Graphics/SVG/1.1/DTD/svg11.dtd">
<!-- Creator: CorelDRAW 2021 (64-Bit) -->
<svg xmlns="http://www.w3.org/2000/svg" xml:space="preserve" width="0.37924in" height="0.354335in" version="1.1" style="shape-rendering:geometricPrecision; text-rendering:geometricPrecision; image-rendering:optimizeQuality; fill-rule:evenodd; clip-rule:evenodd"
viewBox="0 0 14.64 13.68"
 xmlns:xlink="http://www.w3.org/1999/xlink"
 xmlns:xodm="http://www.corel.com/coreldraw/odm/2003">
 <defs>
  <style type="text/css">
   <![CDATA[
    .fil0 {fill:#00A0E3}
   ]]>
  </style>
 </defs>
 <g id="Layer_x0020_1">
  <metadata id="CorelCorpID_0Corel-Layer"/>
  <g id="_1771741122016">
   <path class="fil0" d="M6.48 12.37l1.87 0c-0.17,0.33 -0.61,0.53 -0.94,0.53 -0.35,-0 -0.87,-0.27 -0.94,-0.53zm-0.2 -0.97l2.27 0 0 0.2 -2.27 0 0 -0.2zm2.37 -0.77l-2.51 0c-0.04,-0.54 -0.72,-1.17 -0.96,-1.47 -1.8,-2.27 0.27,-5.26 2.83,-4.7 2.26,0.49 3.05,3.24 1.5,4.83 -0.07,0.07 -0.07,0.09 -0.13,0.17 -0.28,0.34 -0.62,0.71 -0.73,1.18zm-4.91 -3.58c0,0.95 0.08,1.49 0.63,2.31 0.65,0.98 1.14,0.81 1.14,2.5 -0,1.65 2.41,2.6 3.5,0.93 0.55,-0.83 0.14,-1.39 0.43,-2.08 0.39,-0.9 1.65,-1.44 1.65,-3.47 0,-1.99 -1.65,-3.64 -3.74,-3.64 -1.35,0 -2.44,0.76 -3.07,1.74 -0.06,0.09 -0.13,0.21 -0.17,0.29 -0.16,0.34 -0.37,0.92 -0.37,1.4z"/>
   <path class="fil0" d="M-0 7.39c0,0.22 0.13,0.4 0.33,0.4l2.17 0c0.48,0 0.5,-0.77 -0.07,-0.77l-2.07 0c-0.2,0 -0.37,0.17 -0.37,0.37z"/>
   <path class="fil0" d="M2.11 12.27c0,0.17 0.21,0.37 0.37,0.37 0.28,0 0.71,-0.52 0.98,-0.79 0.47,-0.47 1.07,-0.88 0.7,-1.25 -0.37,-0.38 -0.77,0.22 -1.24,0.69 -0.16,0.16 -0.29,0.29 -0.45,0.45 -0.15,0.15 -0.36,0.26 -0.36,0.54z"/>
   <path class="fil0" d="M10.53 3.85c0,0.18 0.19,0.37 0.37,0.37 0.27,0 0.47,-0.29 0.63,-0.44 0.17,-0.17 1.02,-0.99 1.09,-1.11 0.21,-0.34 -0.09,-0.62 -0.32,-0.62 -0.22,0 -0.39,0.24 -0.51,0.36l-0.9 0.9c-0.15,0.15 -0.36,0.26 -0.36,0.54z"/>
   <path class="fil0" d="M2.11 2.42c0,0.29 0.52,0.71 0.81,0.99 0.15,0.15 0.28,0.28 0.43,0.43 0.15,0.15 0.47,0.59 0.8,0.25 0.3,-0.3 -0.03,-0.58 -0.24,-0.79l-0.89 -0.89c-0.12,-0.12 -0.32,-0.38 -0.53,-0.38 -0.2,0 -0.4,0.17 -0.4,0.37z"/>
   <path class="fil0" d="M7.02 0.44l0 1.77c0,0.61 0.8,0.61 0.8,0l0 -1.77c0,-0.59 -0.8,-0.6 -0.8,0z"/>
   <path class="fil0" d="M10.53 10.84c0,0.28 0.19,0.38 0.34,0.53l0.9 0.9c0.13,0.12 0.31,0.38 0.53,0.38 0.3,0 0.48,-0.33 0.33,-0.6l-1.06 -1.08c-0.12,-0.12 -0.43,-0.49 -0.61,-0.49 -0.23,0 -0.43,0.15 -0.43,0.37z"/>
   <path class="fil0" d="M11.96 7.39c0,0.21 0.16,0.4 0.37,0.4l1.97 0c0.44,0 0.46,-0.77 -0.03,-0.77l-1.87 0c-0.14,0 -0.22,0.03 -0.29,0.11 -0.05,0.05 -0.14,0.18 -0.14,0.26z"/>
   <path class="fil0" d="M6.95 5.26c0,0.67 0.7,0.19 1.49,0.78 0.29,0.22 0.26,0.29 0.52,0.29 0.25,0 0.85,-0.44 -0.36,-1.11 -0.27,-0.15 -1.65,-0.67 -1.65,0.04z"/>
  </g>
 </g>
</svg>
