<?xml version="1.0" encoding="UTF-8"?>
<!DOCTYPE svg PUBLIC "-//W3C//DTD SVG 1.1//EN" "http://www.w3.org/Graphics/SVG/1.1/DTD/svg11.dtd">
<!-- Creator: CorelDRAW 2021 (64-Bit) -->
<svg xmlns="http://www.w3.org/2000/svg" xml:space="preserve" width="0.357323in" height="0.190469in" version="1.1" style="shape-rendering:geometricPrecision; text-rendering:geometricPrecision; image-rendering:optimizeQuality; fill-rule:evenodd; clip-rule:evenodd"
viewBox="0 0 16.98 9.05"
 xmlns:xlink="http://www.w3.org/1999/xlink"
 xmlns:xodm="http://www.corel.com/coreldraw/odm/2003">
 <defs>
  <style type="text/css">
   <![CDATA[
    .str0 {stroke:#00A0E3;stroke-width:0.14;stroke-miterlimit:22.9256}
    .fil0 {fill:#00A0E3}
   ]]>
  </style>
 </defs>
 <g id="Layer_x0020_1">
  <metadata id="CorelCorpID_0Corel-Layer"/>
  <g id="_1771798684576">
   <path class="fil0 str0" d="M5.18 0.93l-0 0c-0.01,0.38 -0.36,0.69 -0.76,0.67l-3.63 -0.12c-0.41,-0.01 -0.73,-0.34 -0.71,-0.72l0 0c0.01,-0.38 0.36,-0.69 0.76,-0.67l3.63 0.12c0.41,0.01 0.73,0.34 0.71,0.72z"/>
   <path class="fil0 str0" d="M8.5 0.14l-2.84 0.07c0.04,1.41 1.3,2.53 2.84,2.53 1.57,0 2.84,-1.16 2.84,-2.6l-2.84 0z"/>
   <path class="fil0 str0" d="M16.91 0.91l0 0c-0.01,0.38 -0.36,0.69 -0.76,0.67l-3.63 -0.12c-0.41,-0.01 -0.73,-0.34 -0.71,-0.72l0 0c0.01,-0.38 0.36,-0.69 0.76,-0.67l3.63 0.12c0.41,0.01 0.73,0.34 0.71,0.72z"/>
   <path class="fil0 str0" d="M8.46 8.98l0 0c0.41,0 0.74,-0.31 0.74,-0.7l0 -3.43c0,-0.38 -0.33,-0.7 -0.74,-0.7l0 0c-0.41,0 -0.74,0.31 -0.74,0.7l0 3.43c0,0.38 0.33,0.7 0.74,0.7z"/>
   <path class="fil0 str0" d="M14.22 6.52l0 0c0.3,-0.26 0.31,-0.71 0.03,-0.99l-2.49 -2.5c-0.28,-0.28 -0.75,-0.29 -1.05,-0.03l0 0c-0.3,0.26 -0.31,0.71 -0.03,0.99l2.49 2.5c0.28,0.28 0.75,0.29 1.05,0.03z"/>
   <path class="fil0 str0" d="M6.01 3.26l0 0c-0.29,-0.27 -0.76,-0.27 -1.05,-0l-2.58 2.42c-0.29,0.27 -0.29,0.72 -0,0.99l0 0c0.29,0.27 0.76,0.27 1.05,0l2.58 -2.42c0.29,-0.27 0.29,-0.72 0,-0.99z"/>
  </g>
 </g>
</svg>
