<?xml version="1.0" encoding="UTF-8"?>
<!DOCTYPE svg PUBLIC "-//W3C//DTD SVG 1.1//EN" "http://www.w3.org/Graphics/SVG/1.1/DTD/svg11.dtd">
<!-- Creator: CorelDRAW 2021 (64-Bit) -->
<svg xmlns="http://www.w3.org/2000/svg" xml:space="preserve" width="0.354331in" height="0.287134in" version="1.1" style="shape-rendering:geometricPrecision; text-rendering:geometricPrecision; image-rendering:optimizeQuality; fill-rule:evenodd; clip-rule:evenodd"
viewBox="0 0 13.8 11.18"
 xmlns:xlink="http://www.w3.org/1999/xlink"
 xmlns:xodm="http://www.corel.com/coreldraw/odm/2003">
 <defs>
  <style type="text/css">
   <![CDATA[
    .fil0 {fill:#00A0E3}
   ]]>
  </style>
 </defs>
 <g id="Layer_x0020_1">
  <metadata id="CorelCorpID_0Corel-Layer"/>
  <g id="_1771793460128">
   <path class="fil0" d="M6.78 10.27l0.45 0.06c1.06,-0.16 1.7,-0.89 1.91,-1.99l0.34 0c0,0.74 -0.47,1.3 -0.81,1.65 -1.51,1.56 -4.38,0.37 -4.39,-1.65l4.59 -0c-0.01,0.58 -0.4,1.04 -0.68,1.29 -0.29,0.26 -0.63,0.42 -1.03,0.47 -0.48,0.05 -0.34,0.03 -0.39,0.17zm0.07 -6.16c0.27,0.09 3.84,2.43 4.42,2.8l1.45 0.95 -11.65 0.01c0.36,-0.3 0.98,-0.67 1.43,-0.94l2.91 -1.88c0.5,-0.31 0.98,-0.6 1.44,-0.94zm6.96 4.1l0 -0.2c-0.47,-0.42 -6.63,-4.23 -6.69,-4.36 -0.04,-0.75 0.1,-3.18 -0.07,-3.63 -0.44,-0.07 -0.41,0.09 -0.41,0.51l-0 3.2c-0.15,0.05 -6.34,3.99 -6.63,4.24l0.02 0.32c0.74,0.2 3.31,-0.14 3.77,0.09 0,0 0.37,2.81 3.11,2.8 0.91,-0 1.65,-0.39 2.11,-0.86 0.59,-0.6 0.77,-0.91 0.97,-1.98 0.61,-0.04 1.3,-0.01 1.92,-0.01 0.52,0 1.59,0.15 1.89,-0.14z"/>
   <path class="fil0" d="M2.56 7.48c0.28,-0 1.92,-1.14 2.3,-1.37l1.93 -1.24c0.22,-0.14 0.19,-0.03 0.2,-0.27 -0.2,-0.09 -0.37,0.08 -0.55,0.2 -0.2,0.14 -0.39,0.24 -0.58,0.37l-3.12 2c-0.17,0.1 -0.19,0.07 -0.18,0.31z"/>
  </g>
 </g>
</svg>
