<?xml version="1.0" encoding="UTF-8"?>
<!DOCTYPE svg PUBLIC "-//W3C//DTD SVG 1.1//EN" "http://www.w3.org/Graphics/SVG/1.1/DTD/svg11.dtd">
<!-- Creator: CorelDRAW 2021 (64-Bit) -->
<svg xmlns="http://www.w3.org/2000/svg" xml:space="preserve" width="0.246933in" height="0.354331in" version="1.1" style="shape-rendering:geometricPrecision; text-rendering:geometricPrecision; image-rendering:optimizeQuality; fill-rule:evenodd; clip-rule:evenodd"
viewBox="0 0 17.97 25.78"
 xmlns:xlink="http://www.w3.org/1999/xlink"
 xmlns:xodm="http://www.corel.com/coreldraw/odm/2003">
 <defs>
  <style type="text/css">
   <![CDATA[
    .fil0 {fill:#00A0E3}
   ]]>
  </style>
 </defs>
 <g id="Layer_x0020_1">
  <metadata id="CorelCorpID_0Corel-Layer"/>
  <g id="_1807579803312">
   <path class="fil0" d="M9.05 0c9.27,0 12.03,11.16 4.86,16.54 -0.54,0.41 -1.11,0.83 -1.4,1.46 -0.18,0.37 -0.17,0.86 -0.17,1.27l-6.62 0c0,-0.55 0.03,-0.86 -0.24,-1.37 -0.3,-0.58 -0.82,-0.99 -1.36,-1.42 -2.41,-1.91 -4.11,-4.25 -4.11,-7.44 -0.01,-5.01 4.02,-9.03 9.05,-9.03zm1.97 17.74c0.58,-1.39 0.74,-1.43 1.86,-2.29 1.67,-1.29 3.86,-3.41 3.67,-6.86 -0.22,-3.98 -3.53,-7.08 -7.51,-7.08 -0.06,0 -0.12,0 -0.18,0 -3.89,0.09 -7.04,3.15 -7.3,7.02 -0.19,2.9 1.2,4.84 3.3,6.56 0.87,0.71 1.76,1.44 2.23,2.65l3.93 0z"/>
   <path class="fil0" d="M6.78 23.62l4.59 0c0.09,0 0.17,0.08 0.17,0.17 0.01,0.49 -0.16,0.93 -0.49,1.27 -0.45,0.46 -1.18,0.73 -2,0.73 -0.84,0 -1.6,-0.29 -2.04,-0.76 -0.31,-0.34 -0.45,-0.77 -0.41,-1.24 0.01,-0.09 0.08,-0.16 0.17,-0.16z"/>
   <path class="fil0" d="M6.3 20.43l5.38 -0.49c0.29,-0.03 0.53,0.19 0.55,0.48l0 0c0.02,0.29 -0.21,0.54 -0.49,0.57l-5.38 0.49c-0.29,0.03 -0.53,-0.19 -0.55,-0.48l0 0c-0.02,-0.29 0.21,-0.54 0.49,-0.57z"/>
   <path class="fil0" d="M6.48 22.25l5.02 -0.48c0.29,-0.03 0.53,0.19 0.55,0.47l0 0c0.01,0.29 -0.21,0.54 -0.49,0.57l-5.02 0.48c-0.29,0.03 -0.53,-0.19 -0.55,-0.47l0 0c-0.01,-0.29 0.21,-0.54 0.49,-0.57z"/>
   <path class="fil0" d="M6.45 10.23l0 0c-0.23,0.23 -0.23,0.62 0,0.85l2.06 2.05c-0,0.02 -0,0.04 -0,0.05l0 3.15c0,0.33 0.27,0.6 0.6,0.6l0 0c0.33,0 0.6,-0.27 0.6,-0.6l0 -3.15c0,-0.02 -0,-0.04 -0,-0.05l2.05 -2.05c0.23,-0.23 0.23,-0.62 0,-0.85l0 0c-0.23,-0.23 -0.62,-0.23 -0.85,0l-1.8 1.8 -1.8 -1.8c-0.23,-0.23 -0.62,-0.23 -0.85,0z"/>
  </g>
 </g>
</svg>
