<?xml version="1.0" encoding="UTF-8"?>
<!DOCTYPE svg PUBLIC "-//W3C//DTD SVG 1.1//EN" "http://www.w3.org/Graphics/SVG/1.1/DTD/svg11.dtd">
<!-- Creator: CorelDRAW 2021 (64-Bit) -->
<svg xmlns="http://www.w3.org/2000/svg" xml:space="preserve" width="0.138638in" height="0.354327in" version="1.1" style="shape-rendering:geometricPrecision; text-rendering:geometricPrecision; image-rendering:optimizeQuality; fill-rule:evenodd; clip-rule:evenodd"
viewBox="0 0 13.36 34.14"
 xmlns:xlink="http://www.w3.org/1999/xlink"
 xmlns:xodm="http://www.corel.com/coreldraw/odm/2003">
 <defs>
  <style type="text/css">
   <![CDATA[
    .fil0 {fill:#00A0E3}
   ]]>
  </style>
 </defs>
 <g id="Layer_x0020_1">
  <metadata id="CorelCorpID_0Corel-Layer"/>
  <g id="_1771796802016">
   <path class="fil0" d="M7.11 24.9c-1.82,0.11 -4.96,-0.35 -5.33,0.53 -0.16,0.38 -0.15,2.42 -0.09,2.91 0.14,1.16 0.97,0.96 2.06,0.95 1.92,-0.02 3.85,-0.01 5.78,-0 1.19,0.01 1.88,0.18 1.96,-1.08 0.27,-4.06 -0.58,-3.11 -1.87,-3.31 0.2,-3.04 3.59,-2.27 3.73,-3.82 0.21,-2.29 -3.25,-1.22 -4.62,0.41 -1.2,1.43 -0.91,1.56 -1.62,3.41z"/>
   <path class="fil0" d="M2.27 21.08c0.9,0.83 1.13,1.73 1.19,3.23l2.35 -0c0.12,-1.89 -0.47,-2.83 -1.17,-4.16 0.45,-0.3 5.79,-2.17 6.29,-2.36 1.16,-0.42 2.39,-0.59 1.73,-2.11 -0.53,-1.23 -1.99,-0.3 -3.08,0.08 -2.16,0.76 -4.21,1.57 -6.39,2.34 -0.71,0.25 -2.77,0.79 -3.03,1.3 -0.27,0.51 0.01,1.39 0.38,1.7 0.6,0.49 0.98,-0.07 1.74,-0.01z"/>
   <path class="fil0" d="M11.44 3.2c-2.36,0.67 -4.68,1.73 -7.05,2.53 -1.17,0.4 -2.42,0.82 -3.55,1.28 -1.55,0.63 -0.71,2.63 0.66,2.28 0.94,-0.24 2.48,-0.88 3.46,-1.25l7.09 -2.58c1.55,-0.61 0.64,-2.62 -0.6,-2.27z"/>
   <path class="fil0" d="M11.54 11.07l-10.59 3.84c-0.65,0.24 -1.08,0.51 -0.87,1.36 0.47,1.95 2.34,0.62 4.78,-0.26l7.09 -2.59c1.79,-0.67 0.58,-2.61 -0.41,-2.36z"/>
   <path class="fil0" d="M11.22 7.25c-3.04,1.14 -7.68,2.61 -10.53,3.78 -0.76,0.31 -0.8,0.71 -0.52,1.53 0.27,0.81 0.66,0.96 1.58,0.6 2.29,-0.88 4.68,-1.72 6.99,-2.55 1.12,-0.4 2.35,-0.8 3.45,-1.25 1.18,-0.48 0.72,-2.76 -0.98,-2.13z"/>
   <path class="fil0" d="M7.92 0.07c-1.61,0.54 -3.13,1.09 -4.68,1.68 -0.73,0.28 -1.91,0.43 -2.02,1.22 -0.13,0.92 0.46,1.79 1.49,1.5 1.4,-0.39 3.22,-1.18 4.63,-1.69 0.75,-0.27 1.92,-0.47 2.05,-1.2 0.15,-0.85 -0.44,-1.86 -1.47,-1.51z"/>
   <path class="fil0" d="M2.83 31.42c-0.63,1.51 0.86,1.09 3.74,1.09 2.74,0 4.62,0.44 3.88,-1.09 -0.46,-0.15 -7.14,-0.15 -7.62,0z"/>
   <path class="fil0" d="M2.82 29.81c-0.63,1.47 0.86,1.08 3.75,1.08 0.85,0 1.7,-0.01 2.55,0 1.25,0.01 1.62,0.26 1.4,-1.13 -0.84,-0.09 -7.17,-0.14 -7.7,0.04z"/>
   <path class="fil0" d="M5.36 34.13l2.55 -0c0.59,-0 0.53,0.1 0.68,-0.32 0.43,-1.17 -1.29,-0.85 -1.89,-0.85 -0.32,0 -1.6,-0.06 -1.8,0.05 -0.28,0.15 -0.6,1.13 0.46,1.13z"/>
  </g>
 </g>
</svg>
