<?xml version="1.0" encoding="UTF-8"?>
<!DOCTYPE svg PUBLIC "-//W3C//DTD SVG 1.1//EN" "http://www.w3.org/Graphics/SVG/1.1/DTD/svg11.dtd">
<!-- Creator: CorelDRAW 2021 (64-Bit) -->
<svg xmlns="http://www.w3.org/2000/svg" xml:space="preserve" width="0.128433in" height="0.354331in" version="1.1" style="shape-rendering:geometricPrecision; text-rendering:geometricPrecision; image-rendering:optimizeQuality; fill-rule:evenodd; clip-rule:evenodd"
viewBox="0 0 5.45 15.05"
 xmlns:xlink="http://www.w3.org/1999/xlink"
 xmlns:xodm="http://www.corel.com/coreldraw/odm/2003">
 <defs>
  <style type="text/css">
   <![CDATA[
    .fil0 {fill:#00A0E3}
   ]]>
  </style>
 </defs>
 <g id="Layer_x0020_1">
  <metadata id="CorelCorpID_0Corel-Layer"/>
  <g id="_1807996405200">
   <path class="fil0" d="M0.55 9.45l0.63 -0c-0.01,-0.69 -0.07,-7.3 0.05,-7.7 0.46,-1.51 2.49,-1.5 2.97,-0.06 0.15,0.45 0.08,1.93 0.08,2.51 0,1.74 0.03,3.51 -0.01,5.25l0.62 -0c0.03,-1.93 0,-3.89 0,-5.82 0,-0.92 0.12,-1.9 -0.32,-2.61 -0.82,-1.35 -2.9,-1.4 -3.72,0.02 -0.44,0.75 -0.32,1.66 -0.32,2.59 0,1.91 0.06,3.92 0,5.81z"/>
   <path class="fil0" d="M1.26 12.89l2.93 -0.01c-0.02,-1.13 -0.11,-0.81 0.55,-1.7 0.77,-1.03 0.78,-0.55 0.66,-1.25 -0.22,-0.05 -5.17,-0.06 -5.28,-0 -0.14,0.08 -0.15,0.37 -0.08,0.51 0.12,0.25 0.07,-0.01 0.32,0.27l0.78 1.04c0.2,0.28 0.14,0.7 0.12,1.13z"/>
   <path class="fil0" d="M1.77 9.46l0.64 -0.01 -0 -7c0,-0.44 0.04,-0.61 0.5,-0.57 0.27,0.44 0.15,1.2 0.15,1.76l-0 5.81 0.63 0c-0.06,-1.54 -0.01,-5.2 -0.01,-6.61 0,-0.72 0.06,-1.16 -0.45,-1.47 -0.53,-0.33 -1.12,-0.05 -1.33,0.36 -0.26,0.5 -0.11,6.63 -0.12,7.73z"/>
   <path class="fil0" d="M1.4 14.97c0.22,0.13 2.5,0.09 2.62,0 0.17,-0.16 0.13,-0.47 0.05,-0.68 -0.29,-0.13 -2.52,-0.08 -2.6,-0.05 -0.25,0.1 -0.18,0.56 -0.07,0.73z"/>
   <path class="fil0" d="M1.42 13.87c0.18,0.16 2.43,0.15 2.66,0 0.13,-0.3 0.11,-0.68 -0.23,-0.72l-2.17 -0.01c-0.63,0.01 -0.31,0.68 -0.27,0.72z"/>
  </g>
 </g>
</svg>
