<?xml version="1.0" encoding="UTF-8"?>
<!DOCTYPE svg PUBLIC "-//W3C//DTD SVG 1.1//EN" "http://www.w3.org/Graphics/SVG/1.1/DTD/svg11.dtd">
<!-- Creator: CorelDRAW 2021 (64-Bit) -->
<svg xmlns="http://www.w3.org/2000/svg" xml:space="preserve" width="0.33772in" height="0.314961in" version="1.1" style="shape-rendering:geometricPrecision; text-rendering:geometricPrecision; image-rendering:optimizeQuality; fill-rule:evenodd; clip-rule:evenodd"
viewBox="0 0 191.19 178.31"
 xmlns:xlink="http://www.w3.org/1999/xlink"
 xmlns:xodm="http://www.corel.com/coreldraw/odm/2003">
 <defs>
  <style type="text/css">
   <![CDATA[
    .fil0 {fill:#00A0E3}
   ]]>
  </style>
 </defs>
 <g id="Layer_x0020_1">
  <metadata id="CorelCorpID_0Corel-Layer"/>
  <path class="fil0" d="M51.22 162.92c-1.49,-7.48 -0.43,-28.77 -0.43,-37.75 0,-11.79 -1.46,-23.73 4.32,-33.01 11.35,-18.23 35,-13.6 60.69,-13.6 24.44,0 49.9,-4.64 60.72,13.59 5.95,10.02 4.29,20.8 4.29,33.86 0,12.42 -0.03,24.85 0.01,37.27 -20.62,4.6 -42.8,5.3 -65.02,5.3 -14.27,0 -53.34,-0.54 -64.57,-5.67zm-19.99 -79.87c3.84,5.84 6.07,10.49 11.07,13.24 -1.64,14.91 -1.23,29.76 -1.16,45.03 -18.46,-5.73 -10.85,-35.08 -24.21,-58.18l-3.41 -5c-0.99,-1.6 -0.02,0.56 -0.82,-1.59l6.62 -6.01c4.74,3.74 8.31,7.05 11.91,12.51zm46.38 -14.48c0.5,-5.53 7,-11.26 12.5,-12.71 4.67,-1.23 46.61,-1.24 51.37,0 5.59,1.46 12.23,7.24 12.59,12.75l-76.46 -0.04zm-14.67 3.85c-0.01,-32.06 -7.21,-62.06 24.31,-61.97 85.22,0.24 82.89,-10.08 81.33,61.88 -4.37,-1.45 -3.43,-0.77 -4.58,-5.46 -1.84,-7.49 -6.04,-13.56 -12.74,-17.42 -9.8,-5.65 -23.09,-3.95 -35.47,-3.95 -16.96,0 -36.19,-3.09 -45.67,14.71 -5.36,10.06 0.44,9.71 -7.18,12.23zm-36.18 70.85c3.84,3.92 7.66,6.72 14.36,8.45 0.02,13.46 -2.65,18.15 10.48,21.72 24.06,6.54 92.63,5.81 119.25,1.81 9.39,-1.41 19.44,-2.52 19.82,-12.26 0.45,-11.34 1.18,-53.88 -0.86,-62.77 -0.65,-5.21 -3.29,-11.12 -5.9,-14.66 -5.17,-7.02 -5.72,-3.64 -5.64,-14.9 0.08,-13.34 0.5,-27.91 -0.01,-41.14 -0.49,-12.81 -8.01,-21.27 -16.08,-25.41 -10.49,-5.38 -25.52,-3.5 -38.02,-3.5 -28.43,0 -55.46,-5.31 -67.06,15.59 -6.09,10.99 -3.68,41.79 -3.77,58.7 -0.03,5.05 -3.75,9.79 -7.33,12.43 -3.32,-3.62 -6.15,-9.68 -9.55,-13.7 -17.38,-20.57 -19.96,-15.64 -26.28,-8.77 -13.6,14.77 -11.84,11.55 -4.87,18.96 13.78,14.66 8.16,45.57 21.45,59.44z"/>
 </g>
</svg>
