<?xml version="1.0" encoding="UTF-8"?>
<!DOCTYPE svg PUBLIC "-//W3C//DTD SVG 1.1//EN" "http://www.w3.org/Graphics/SVG/1.1/DTD/svg11.dtd">
<!-- Creator: CorelDRAW 2021 (64-Bit) -->
<svg xmlns="http://www.w3.org/2000/svg" xml:space="preserve" width="0.393705in" height="0.314965in" version="1.1" style="shape-rendering:geometricPrecision; text-rendering:geometricPrecision; image-rendering:optimizeQuality; fill-rule:evenodd; clip-rule:evenodd"
viewBox="0 0 52.48 41.99"
 xmlns:xlink="http://www.w3.org/1999/xlink"
 xmlns:xodm="http://www.corel.com/coreldraw/odm/2003">
 <defs>
  <style type="text/css">
   <![CDATA[
    .fil1 {fill:#00A0E3}
    .fil0 {fill:#00A0E3;fill-rule:nonzero}
   ]]>
  </style>
 </defs>
 <g id="Layer_x0020_1">
  <metadata id="CorelCorpID_0Corel-Layer"/>
  <g id="_1808575187344">
   <path class="fil0" d="M11.71 37.14c1.54,0 2.94,-0.63 3.95,-1.64l0 -0c1.01,-1.01 1.64,-2.41 1.64,-3.95 0,-1.13 -0.33,-2.18 -0.91,-3.06 -0.59,-0.9 -1.44,-1.63 -2.45,-2.06 -0.14,-0.06 -0.28,-0.12 -0.43,-0.17l0 1.57c0.67,0.33 1.25,0.83 1.66,1.46 0.42,0.65 0.67,1.42 0.67,2.26 0,1.14 -0.46,2.17 -1.21,2.92 -0.75,0.75 -1.78,1.21 -2.92,1.21 -1.14,0 -2.17,-0.46 -2.92,-1.21 -0.75,-0.75 -1.21,-1.78 -1.21,-2.92 0,-0.84 0.25,-1.62 0.67,-2.27 0.41,-0.62 0.98,-1.12 1.65,-1.45l0 -1.57c-0.14,0.05 -0.28,0.1 -0.41,0.16 -1.01,0.43 -1.86,1.16 -2.46,2.07 -0.58,0.88 -0.92,1.94 -0.92,3.06 0,1.54 0.63,2.94 1.64,3.95l0 0c1.01,1.01 2.41,1.64 3.95,1.64zm-0.96 -5.53l1.91 0 0 -6.68 -1.91 0 0 6.68z"/>
   <path class="fil1" d="M1.06 23.63l50.3 0.23c0.15,19.18 1.84,15.48 -14.09,15.45l-28.71 -0c-8.16,-0.01 -7.65,3.19 -7.51,-15.68zm6.08 -20.42c1.96,-1.5 24.83,-0.55 28.94,-0.55 7.06,0 9.44,-2.35 12.04,5.93 3.06,9.75 4.85,12.93 1.15,12.87l-47.5 -0.15c-1.31,-0.96 -0.44,-3.46 0.12,-5.3 1.55,-5.01 3.3,-11.31 5.26,-12.8zm0.34 -2.73c-2.6,1.22 -3.52,4.98 -4.83,9.12 -1.49,4.73 -2.67,6.34 -2.66,14.06 0.04,22 0.01,18.04 9.76,18.04 11.86,-0 23.72,-0 35.58,0 2.44,0 6,1.58 6.87,-3.78 0.34,-2.11 0.34,-16.71 0.09,-19.26 -0.26,-2.59 -2.78,-9.92 -3.53,-12.25 -1.46,-4.5 -2.8,-6.21 -6.11,-6.17 -4.74,0.04 -33.17,-0.71 -35.18,0.23z"/>
   <g>
    <path class="fil0" d="M32.52 27.78l2.22 3.84 0 0 2.75 4.76 -11 0 2.75 -4.76 0 0 2.75 -4.76 0.53 0.92zm1.16 4.46l-0 0 -1.69 -2.93 -1.69 2.93 0 0 -1.69 2.92 6.76 0 -1.69 -2.93z"/>
    <path class="fil0" d="M40.85 35.47l2.22 -3.84 0 -0 2.75 -4.76 -11 0 2.75 4.76 0 -0 2.75 4.76 0.53 -0.92zm1.16 -4.46l-0 -0 -1.69 2.93 -1.69 -2.93 0 -0 -1.69 -2.93 6.76 0 -1.69 2.93z"/>
   </g>
  </g>
 </g>
</svg>
