<?xml version="1.0" encoding="UTF-8"?>
<!DOCTYPE svg PUBLIC "-//W3C//DTD SVG 1.1//EN" "http://www.w3.org/Graphics/SVG/1.1/DTD/svg11.dtd">
<!-- Creator: CorelDRAW 2021 (64-Bit) -->
<svg xmlns="http://www.w3.org/2000/svg" xml:space="preserve" width="0.319244in" height="0.314965in" version="1.1" style="shape-rendering:geometricPrecision; text-rendering:geometricPrecision; image-rendering:optimizeQuality; fill-rule:evenodd; clip-rule:evenodd"
viewBox="0 0 24.8 24.47"
 xmlns:xlink="http://www.w3.org/1999/xlink"
 xmlns:xodm="http://www.corel.com/coreldraw/odm/2003">
 <defs>
  <style type="text/css">
   <![CDATA[
    .fil0 {fill:#00A0E3}
   ]]>
  </style>
 </defs>
 <g id="Layer_x0020_1">
  <metadata id="CorelCorpID_0Corel-Layer"/>
  <g id="_1808577915488">
   <path class="fil0" d="M1.2 22.27l-0.01 -9.22c0,-5.26 -0.56,-4.56 4.74,-4.56 4.66,0 9.33,0 13.99,0 4.41,0 3.67,-0.4 3.67,5.58 0,1.55 0,3.11 0,4.66 0,5.32 0.55,4.56 -4.79,4.56l-13.99 0c-1.41,0 -3.43,0.38 -3.61,-1.01zm2.34 -14.95c0.06,-1.17 2.23,-1.16 2.25,0l-2.25 0zm16.75 -6.37c0.78,-0.56 1.22,1.09 -0.03,0.67l0.03 -0.67zm-17.74 6.38c-2.16,0 -2.55,1.47 -2.55,3.19l-0 11.05c0,3.32 2.26,2.89 5.12,2.89l15.81 0c3.58,0 3.85,-0.55 3.85,-4.1 0,-2.64 0,-5.27 0,-7.91 0,-2.83 0.42,-5.13 -2.84,-5.12l-13.79 0c-1.41,0 -1.43,0.17 -1.55,-0.46 0.38,-0.25 8.1,-2.82 9.2,-3.19 0.77,-0.26 1.5,-0.51 2.26,-0.78 2.37,-0.84 1.43,-0.52 2.36,-0.37 0.94,0.15 1.65,-0.63 1.44,-1.56 -0.18,-0.8 -1.23,-1.31 -2.03,-0.67 -0.76,0.62 0.44,0.61 -1.71,1.34l-11.63 3.97c-1.5,0.55 -1.09,-0.35 -2.46,0.07 -1.06,0.32 -1.02,0.85 -1.48,1.65z"/>
   <path class="fil0" d="M20.63 10.56c0.01,0.03 0.03,0.06 0.04,0.08l0.01 2.36c-0.5,0.11 -1.8,0.04 -2.49,0.05 -0.89,0.01 -0.62,-0.01 -0.68,-0.17l0 -2.31 3.12 -0.01zm-3.95 0.05l-0 2.32c-0.2,0.16 -0.2,0.11 -0.71,0.1 -2.92,-0.03 -10.09,0.14 -11.83,-0.03 -0.14,-0.47 -0.14,-2.01 -0,-2.48 1.86,-0.17 4.42,-0.02 6.36,-0.02l5.97 0.01c0.22,0.04 0.09,0.02 0.21,0.1zm-13.26 3.01c0.28,0.36 1.15,0.21 2.01,0.21 2.36,0 14.94,0.1 15.95,-0.05 0.2,-0.51 0.21,-3.51 -0,-4 -0.97,-0.17 -14.36,-0.05 -16.56,-0.05 -1.43,-0 -1.53,-0.27 -1.52,1.19 0.01,0.59 -0.16,2.35 0.12,2.71z"/>
   <path class="fil0" d="M18.45 17.1c2.18,-0.78 3.07,2.54 1.03,3.22 -2,0.67 -3.32,-2.4 -1.03,-3.22zm-0.2 -0.82c-3.31,1.06 -1.72,5.76 1.44,4.85 3.14,-0.91 1.78,-5.88 -1.44,-4.85z"/>
   <polygon class="fil0" points="9.17,20.85 10.01,20.85 10.01,16.19 9.17,16.19 "/>
   <polygon class="fil0" points="4.49,20.85 5.32,20.85 5.32,16.7 5.32,16.19 4.82,16.19 4.49,16.19 "/>
   <polygon class="fil0" points="6.84,20.45 6.84,20.85 7.68,20.85 7.68,16.29 7.68,16.19 6.84,16.19 "/>
   <polygon class="fil0" points="11.53,16.49 11.53,20.83 12.01,20.86 12.34,20.85 12.34,16.19 11.53,16.2 "/>
   <path class="fil0" d="M16.67 12.94l-12.51 0 0 -2.33 12.51 0c-0.11,-0.07 0.01,-0.06 -0.21,-0.1l-5.97 -0.01c-1.94,0 -4.5,-0.14 -6.36,0.02 -0.13,0.47 -0.13,2.01 0,2.48 1.74,0.17 8.91,-0.01 11.83,0.03 0.51,0.01 0.5,0.05 0.71,-0.1z"/>
   <path class="fil0" d="M17.51 12.88c0.07,0.16 -0.2,0.19 0.68,0.17 0.69,-0.01 1.99,0.06 2.49,-0.05l-0.01 -2.36c-0.01,-0.02 -0.03,-0.05 -0.04,-0.08l0 2.38c-0.75,0.01 -2.49,0.1 -3.12,-0.07z"/>
  </g>
 </g>
</svg>
