<?xml version="1.0" encoding="UTF-8"?>
<!DOCTYPE svg PUBLIC "-//W3C//DTD SVG 1.1//EN" "http://www.w3.org/Graphics/SVG/1.1/DTD/svg11.dtd">
<!-- Creator: CorelDRAW 2021 (64-Bit) -->
<svg xmlns="http://www.w3.org/2000/svg" xml:space="preserve" width="0.203319in" height="0.295965in" version="1.1" style="shape-rendering:geometricPrecision; text-rendering:geometricPrecision; image-rendering:optimizeQuality; fill-rule:evenodd; clip-rule:evenodd"
viewBox="0 0 14.64 21.32"
 xmlns:xlink="http://www.w3.org/1999/xlink"
 xmlns:xodm="http://www.corel.com/coreldraw/odm/2003">
 <defs>
  <style type="text/css">
   <![CDATA[
    .str0 {stroke:#00A0E3;stroke-width:0.22;stroke-miterlimit:22.9256}
    .fil0 {fill:#00A0E3}
   ]]>
  </style>
 </defs>
 <g id="Layer_x0020_1">
  <metadata id="CorelCorpID_0Corel-Layer"/>
  <g id="_1808341046800">
   <path class="fil0 str0" d="M0.83 18.76c0.75,-0.77 0.96,-0.48 1.96,0.1 0.95,0.55 1.38,0.64 1.06,1.65 -0.67,-0.31 -0.08,-0.21 -0.59,-0.62 -0.56,-0.46 -0.5,-0.03 -0.91,-0.27 -0.43,-0.25 0.03,-0.3 -0.6,-0.62 -0.65,-0.33 -0.29,0.21 -0.92,-0.24zm6.22 -7.81l0.46 0.28 -4.2 7.28 -0.48 -0.3 4.22 -7.26zm0.86 -0.14l-0.71 -0.42 0.41 -2.64 2.41 1.39 -2.1 1.67zm-0.14 -3.63c0.68,-1.35 1.6,-2.79 2.36,-4.12 0.84,-1.46 1.27,-3.05 2.96,-2.07 1.69,0.98 0.53,2.14 -0.31,3.6 -0.76,1.32 -1.56,2.85 -2.4,4.13l-2.61 -1.54zm-5.43 10.78c-0.87,-0.42 -1.87,-0.07 -2.22,0.97 0.33,0.37 0.85,0.73 1.34,0.56l0.06 0.13c0.1,0.15 -0.01,0.03 0.14,0.2l1.17 0.51c0.02,-0 0.05,-0.01 0.07,-0.01 0.07,0.36 0.03,0.31 0.4,0.55 0.25,0.16 0.54,0.28 0.75,0.33 0.72,-0.83 0.52,-1.86 -0.28,-2.41 0.57,-0.97 3.95,-7.13 4.54,-7.63 2.36,-2.02 1.8,-0.85 3.38,-3.58 0.5,-0.87 1.01,-1.75 1.51,-2.62 1.07,-1.86 2.27,-3.22 0.16,-4.44 -2.08,-1.19 -2.64,0.43 -3.71,2.27 -0.5,0.87 -1.01,1.75 -1.51,2.62 -1.44,2.49 -1,1.72 -1.46,4.73 -0.13,0.82 -3.78,6.83 -4.35,7.82z"/>
   <path class="fil0 str0" d="M12.14 1.97c0.14,-0.03 0.27,-0.02 0.37,0.06l0.12 0.12 0.09 0.15c-0.53,2.35 -2.35,1.35 -0.59,-0.32zm-1.15 1.1c-0.16,0.58 0.46,1.19 1.07,0.98 0.34,-0.12 0.95,-1.04 1.04,-1.51 0.21,-1.09 -1.52,-1.63 -2.11,0.53z"/>
  </g>
 </g>
</svg>
