<?xml version="1.0" encoding="UTF-8"?>
<!DOCTYPE svg PUBLIC "-//W3C//DTD SVG 1.1//EN" "http://www.w3.org/Graphics/SVG/1.1/DTD/svg11.dtd">
<!-- Creator: CorelDRAW 2021 (64-Bit) -->
<svg xmlns="http://www.w3.org/2000/svg" xml:space="preserve" width="0.371252in" height="0.357331in" version="1.1" style="shape-rendering:geometricPrecision; text-rendering:geometricPrecision; image-rendering:optimizeQuality; fill-rule:evenodd; clip-rule:evenodd"
viewBox="0 0 11.27 10.85"
 xmlns:xlink="http://www.w3.org/1999/xlink"
 xmlns:xodm="http://www.corel.com/coreldraw/odm/2003">
 <defs>
  <style type="text/css">
   <![CDATA[
    .str0 {stroke:#00A0E3;stroke-width:0.09;stroke-miterlimit:22.9256}
    .fil0 {fill:#00A0E3}
   ]]>
  </style>
 </defs>
 <g id="Layer_x0020_1">
  <metadata id="CorelCorpID_0Corel-Layer"/>
  <g id="hl.svg">
   <path class="fil0 str0" d="M5.24 9.76l-1.01 0c-0.03,0 -0.05,-0.02 -0.05,-0.06 0,-0.12 0.05,-0.24 0.13,-0.33 0.31,-0.34 0.93,-1.06 1.59,-2.06l1.58 0c0.18,0 0.33,-0.15 0.33,-0.33l0 -0.38c0,-0.18 -0.15,-0.33 -0.33,-0.33l-0.45 0c-0.13,-0.07 -0.26,-0.14 -0.38,-0.21 0.29,-0.54 0.55,-1.08 0.77,-1.62l0.23 0c0.33,0.83 0.72,1.63 1.16,2.37 0.03,0.05 0.08,0.08 0.14,0.08 0.03,0 0.06,-0.01 0.08,-0.02 0.08,-0.05 0.1,-0.15 0.06,-0.22 -0.43,-0.71 -0.81,-1.48 -1.12,-2.28 0.05,-0.05 0.07,-0.11 0.07,-0.18l0 -0.45c0,-0.22 -0.14,-0.41 -0.34,-0.48l0 -3.05c0,-0.09 -0.07,-0.16 -0.16,-0.16 -0.09,0 -0.16,0.07 -0.16,0.16l0 3.05c-0.2,0.07 -0.34,0.26 -0.34,0.48l0 0.45c0,0.07 0.03,0.13 0.07,0.18 -0.21,0.51 -0.45,1.02 -0.73,1.53 -0.78,-0.48 -1.45,-1.03 -1.97,-1.63 0.02,-0.04 0.03,-0.08 0.03,-0.13l0 -0.45c0,-0.22 -0.14,-0.41 -0.34,-0.48l0 -3c0,-0.09 -0.07,-0.16 -0.16,-0.16 -0.09,0 -0.16,0.07 -0.16,0.16l0 3c-0.2,0.07 -0.34,0.26 -0.34,0.48l0 0.45c0,0.04 0.01,0.09 0.03,0.12 -0.83,0.93 -2.01,1.65 -2.65,2.01l-0.43 0c-0.18,0 -0.33,0.15 -0.33,0.33l0 0.38c0,0.18 0.15,0.33 0.33,0.33l2.69 0c0.08,0.41 0.43,0.71 0.86,0.71 0.42,0 0.78,-0.3 0.86,-0.71l0.72 0c-0.61,0.89 -1.15,1.53 -1.44,1.84 -0.14,0.15 -0.22,0.35 -0.22,0.56 0,0.21 0.17,0.38 0.38,0.38l1.01 0c0.09,0 0.16,-0.07 0.16,-0.16 0,-0.09 -0.07,-0.16 -0.16,-0.16zm2.12 -6.03c0,-0.1 0.08,-0.18 0.18,-0.18 0.1,0 0.18,0.08 0.18,0.18l0 0.39 -0.35 0 0 -0.39 -0 0zm-3.61 -0.05c0,-0.1 0.08,-0.18 0.18,-0.18 0.1,0 0.18,0.08 0.18,0.18l0 0.39 -0.35 0 -0 -0.39zm-3.38 3.29l0 -0.38c0,-0 0,-0 0,-0l2.13 0c0.09,0 0.16,-0.07 0.16,-0.16 0,-0.09 -0.07,-0.16 -0.16,-0.16l-1.05 0c0.7,-0.43 1.63,-1.08 2.31,-1.87l0.32 0c0.58,0.69 1.36,1.33 2.27,1.87l-3.1 0c-0.09,0 -0.16,0.07 -0.16,0.16 0,0.09 0.07,0.16 0.16,0.16l4.22 0c0,0 0,0 0,0l0 0.38c0,0 -0,0 -0,0l-7.1 0c-0,0 -0,-0 -0,-0zm3.56 0.71c-0.24,0 -0.45,-0.16 -0.52,-0.38l1.04 0c-0.07,0.22 -0.28,0.38 -0.52,0.38z"/>
   <path class="fil0 str0" d="M10.99 9.14c-0.23,-0.24 -0.84,-0.86 -1.51,-1.86 -0.05,-0.07 -0.15,-0.1 -0.23,-0.04 -0.07,0.05 -0.1,0.15 -0.04,0.23 0.68,1.02 1.31,1.66 1.54,1.9 0.09,0.09 0.14,0.22 0.14,0.35 0,0.03 -0.02,0.05 -0.05,0.05l-4.85 0c-0.09,0 -0.16,0.07 -0.16,0.16 0,0.09 0.07,0.16 0.16,0.16l0.69 0c0.08,0.41 0.43,0.71 0.86,0.71 0.42,0 0.78,-0.3 0.86,-0.71l2.45 0c0.21,0 0.38,-0.17 0.38,-0.38 0,-0.21 -0.08,-0.42 -0.23,-0.57zm-3.46 1.34c-0.24,0 -0.45,-0.16 -0.52,-0.38l1.04 0c-0.07,0.22 -0.28,0.38 -0.52,0.38z"/>
  </g>
 </g>
</svg>
