<?xml version="1.0" encoding="UTF-8"?>
<!DOCTYPE svg PUBLIC "-//W3C//DTD SVG 1.1//EN" "http://www.w3.org/Graphics/SVG/1.1/DTD/svg11.dtd">
<!-- Creator: CorelDRAW 2021 (64-Bit) -->
<svg xmlns="http://www.w3.org/2000/svg" xml:space="preserve" width="0.401575in" height="0.354331in" version="1.1" style="shape-rendering:geometricPrecision; text-rendering:geometricPrecision; image-rendering:optimizeQuality; fill-rule:evenodd; clip-rule:evenodd"
viewBox="0 0 11.71 10.33"
 xmlns:xlink="http://www.w3.org/1999/xlink"
 xmlns:xodm="http://www.corel.com/coreldraw/odm/2003">
 <defs>
  <style type="text/css">
   <![CDATA[
    .fil0 {fill:#00A0E3;fill-rule:nonzero}
   ]]>
  </style>
 </defs>
 <g id="Layer_x0020_1">
  <metadata id="CorelCorpID_0Corel-Layer"/>
  <g id="_1807929575392">
   <path id="lamps2C-celing2C-chandelier2C-room2C-bulbs2C-light" class="fil0" d="M2.95 7.79c0.07,-0.18 0.27,-0.26 0.45,-0.19 0.18,0.07 0.26,0.27 0.19,0.45l-0.69 1.72c-0.07,0.18 -0.27,0.26 -0.45,0.19 -0.18,-0.07 -0.26,-0.27 -0.19,-0.45l0.69 -1.72z"/>
   <path id="lamps2C-celing2C-chandelier2C-room2C-bulbs2C-light_0" class="fil0" d="M8.12 8.05c-0.07,-0.18 0.02,-0.38 0.19,-0.45 0.18,-0.07 0.38,0.02 0.45,0.19l0.69 1.72c0.07,0.18 -0.02,0.38 -0.19,0.45 -0.18,0.07 -0.38,-0.02 -0.45,-0.19l-0.69 -1.72z"/>
   <path id="lamps2C-celing2C-chandelier2C-room2C-bulbs2C-light_1" class="fil0" d="M5.51 8.26c0,-0.19 0.15,-0.34 0.34,-0.34 0.19,0 0.34,0.15 0.34,0.34l0 1.72c0,0.19 -0.15,0.34 -0.34,0.34 -0.19,0 -0.34,-0.15 -0.34,-0.34l0 -1.72z"/>
   <path id="lamps2C-celing2C-chandelier2C-room2C-bulbs2C-light_2" class="fil0" d="M9.81 0.69l0 1.72 0.52 0c0.19,0 0.34,0.15 0.34,0.34l0 3.44c0,0.19 -0.15,0.34 -0.34,0.34l-1.72 0c-0.19,0 -0.34,-0.15 -0.34,-0.34l0 -3.44c0,-0.19 0.15,-0.34 0.34,-0.34l0.52 0 0 -1.72 -2.93 0 0 1.72 0.52 0c0.19,0 0.34,0.15 0.34,0.34l0 3.44c0,0.19 -0.15,0.34 -0.34,0.34l-1.72 0c-0.19,0 -0.34,-0.15 -0.34,-0.34l0 -3.44c0,-0.19 0.15,-0.34 0.34,-0.34l0.52 0 0 -1.72 -2.93 0 0 1.72 0.52 0c0.19,0 0.34,0.15 0.34,0.34l0 3.44c0,0.19 -0.15,0.34 -0.34,0.34l-1.72 0c-0.19,0 -0.34,-0.15 -0.34,-0.34l0 -3.44c0,-0.19 0.15,-0.34 0.34,-0.34l0.52 0 0 -1.72 -1.55 0c-0.19,0 -0.34,-0.15 -0.34,-0.34 0,-0.19 0.15,-0.34 0.34,-0.34l11.02 0c0.19,0 0.34,0.15 0.34,0.34 0,0.19 -0.15,0.34 -0.34,0.34l-1.55 0z"/>
  </g>
 </g>
</svg>
