<?xml version="1.0" encoding="UTF-8"?>
<!DOCTYPE svg PUBLIC "-//W3C//DTD SVG 1.1//EN" "http://www.w3.org/Graphics/SVG/1.1/DTD/svg11.dtd">
<!-- Creator: CorelDRAW 2021 (64-Bit) -->
<svg xmlns="http://www.w3.org/2000/svg" xml:space="preserve" width="0.354563in" height="0.354331in" version="1.1" style="shape-rendering:geometricPrecision; text-rendering:geometricPrecision; image-rendering:optimizeQuality; fill-rule:evenodd; clip-rule:evenodd"
viewBox="0 0 8.17 8.16"
 xmlns:xlink="http://www.w3.org/1999/xlink"
 xmlns:xodm="http://www.corel.com/coreldraw/odm/2003">
 <defs>
  <style type="text/css">
   <![CDATA[
    .fil0 {fill:#00A0E3;fill-rule:nonzero}
   ]]>
  </style>
 </defs>
 <g id="Layer_x0020_1">
  <metadata id="CorelCorpID_0Corel-Layer"/>
  <g id="_1771886724000">
   <circle class="fil0" cx="7.16" cy="7.69" r="0.1"/>
   <circle class="fil0" cx="0.99" cy="7.69" r="0.1"/>
   <path class="fil0" d="M8.08 7.99l-3.49 0 0 -0.9c0.17,0.05 0.32,0.14 0.44,0.26 0.06,0.06 0.17,0 0.15,-0.08l-0.14 -0.79c0.36,0.06 0.6,0.29 0.8,0.77 0.03,0.07 0.13,0.07 0.16,0.01 0.22,-0.42 0.39,-0.7 0.8,-0.77l-0.14 0.79c-0.02,0.08 0.09,0.14 0.15,0.08 0.15,-0.15 0.32,-0.25 0.53,-0.29 -0.03,0.07 -0.08,0.16 -0.12,0.26 -0.05,0.1 0.12,0.17 0.16,0.07 0.1,-0.22 0.19,-0.39 0.19,-0.39 0.03,-0.06 -0.02,-0.14 -0.08,-0.13 -0.24,0.02 -0.44,0.08 -0.61,0.2l0.12 -0.67c0.01,-0.05 -0.04,-0.11 -0.09,-0.1 -0.52,0.05 -0.75,0.32 -0.97,0.73 -0.23,-0.47 -0.54,-0.69 -0.98,-0.73 -0.05,-0.01 -0.1,0.05 -0.09,0.1l0.12 0.67c-0.11,-0.08 -0.24,-0.13 -0.38,-0.16l0 -1.1c0,-0.05 -0.04,-0.09 -0.09,-0.09l-0.34 0 0 -0.72c0.21,-0.04 0.38,-0.21 0.42,-0.42l2.27 0c0.05,0 0.09,-0.04 0.09,-0.09l0 -0.5 0.4 0c0.15,0 0.28,-0.11 0.3,-0.26l0.18 -1.46 0.14 -0c0.07,0 0.1,-0.07 0.09,-0.13 0,-0.34 -0.27,-0.61 -0.61,-0.61 -0.02,-0.3 -0.27,-0.54 -0.58,-0.54 -0.3,0 -0.55,0.24 -0.58,0.54 -0.34,0 -0.61,0.27 -0.61,0.61 -0.01,0.06 0.02,0.13 0.09,0.13l0.14 0 0.18 1.46c0.02,0.15 0.15,0.26 0.3,0.26l0.4 0 0 0.41 -2.18 0c-0.04,-0.21 -0.2,-0.37 -0.41,-0.41l0 -0.99 0.4 0c0.15,0 0.28,-0.11 0.3,-0.26l0.18 -1.46 0.14 0c0.07,0 0.1,-0.07 0.09,-0.13 0,-0.34 -0.27,-0.61 -0.61,-0.61 -0.02,-0.3 -0.27,-0.54 -0.58,-0.54 -0.3,0 -0.55,0.24 -0.58,0.54 -0.34,0 -0.61,0.27 -0.61,0.61 -0.01,0.06 0.02,0.13 0.09,0.13l0.14 0 0.18 1.46c0.02,0.15 0.15,0.26 0.3,0.26l0.4 0 0 0.99c-0.21,0.04 -0.38,0.2 -0.41,0.41l-2.18 0 0 -0.41 0.4 0c0.15,0 0.28,-0.11 0.3,-0.26l0.18 -1.46 0.14 -0c0.07,0 0.1,-0.07 0.09,-0.13 0,-0.34 -0.27,-0.61 -0.61,-0.61 -0.02,-0.3 -0.27,-0.54 -0.58,-0.54 -0.3,0 -0.55,0.24 -0.58,0.54 -0.34,0 -0.61,0.27 -0.61,0.61 -0.01,0.06 0.02,0.13 0.09,0.13l0.14 0 0.18 1.46c0.02,0.15 0.15,0.26 0.3,0.26l0.4 0 0 0.5c0,0.05 0.04,0.09 0.09,0.09l2.27 0c0.03,0.21 0.2,0.38 0.42,0.42l0 0.72 -0.34 0c-0.05,0 -0.09,0.04 -0.09,0.09l0 1.09c-0.14,0.03 -0.27,0.09 -0.39,0.17l0.12 -0.67c0.01,-0.05 -0.04,-0.11 -0.09,-0.1 -0.44,0.03 -0.75,0.26 -0.98,0.73 -0.22,-0.4 -0.45,-0.68 -0.97,-0.73 -0.06,-0.01 -0.1,0.05 -0.09,0.1l0.12 0.67c-0.18,-0.12 -0.38,-0.18 -0.61,-0.2 -0.07,-0.01 -0.12,0.07 -0.08,0.13 0,0 0.09,0.17 0.19,0.39 0.04,0.1 0.21,0.03 0.16,-0.07 -0.04,-0.1 -0.09,-0.19 -0.12,-0.26 0.21,0.04 0.38,0.13 0.53,0.29 0.06,0.06 0.17,0 0.15,-0.08l-0.14 -0.79c0.41,0.08 0.58,0.35 0.8,0.77 0.03,0.07 0.13,0.06 0.16,-0.01 0.2,-0.48 0.43,-0.71 0.8,-0.77l-0.14 0.79c-0.02,0.08 0.09,0.14 0.15,0.08 0.13,-0.13 0.28,-0.22 0.45,-0.27l0 0.9 -3.49 0c-0.05,0 -0.09,0.04 -0.09,0.09 0,0.05 0.04,0.09 0.09,0.09l7.99 0c0.05,0 0.09,-0.04 0.09,-0.09 0,-0.05 -0.04,-0.09 -0.09,-0.09zm-1.22 -6.82c0.21,0 0.38,0.16 0.4,0.36l-0.8 0c0.02,-0.2 0.19,-0.36 0.4,-0.36l0 0zm-0.78 1.1l1.57 0 -0.13 1.02 -0.57 0 0 -0.66c0,-0.05 -0.04,-0.09 -0.09,-0.09 -0.05,0 -0.09,0.04 -0.09,0.09l0 0.66 -0.57 0 -0.13 -1.02zm-4.76 -1.1c0.21,0 0.38,0.16 0.4,0.36l-0.8 0c0.02,-0.2 0.19,-0.36 0.4,-0.36zm-0.78 1.1l1.57 0 -0.13 1.02 -0.57 0 0 -0.66c0,-0.05 -0.04,-0.09 -0.09,-0.09 -0.05,0 -0.09,0.04 -0.09,0.09l0 0.66 -0.57 0 -0.13 -1.02zm3.56 -2.1c0.21,0 0.38,0.16 0.4,0.36l-0.8 0c0.02,-0.2 0.19,-0.36 0.4,-0.36l0 0zm-0.78 1.1l1.57 0 -0.13 1.02 -0.57 0 0 -0.66c0,-0.05 -0.04,-0.09 -0.09,-0.09 -0.05,0 -0.09,0.04 -0.09,0.09l0 0.66 -0.57 0 -0.13 -1.02z"/>
   <path class="fil0" d="M3.53 4.03c-0.02,0 -0.04,-0.01 -0.06,-0.03l-0.15 -0.15c-0.03,-0.03 -0.03,-0.09 0,-0.12 0.03,-0.03 0.09,-0.03 0.12,0l0.15 0.15c0.06,0.05 0.01,0.15 -0.06,0.15l0 0z"/>
   <path class="fil0" d="M3.37 5.29c-0.07,0 -0.12,-0.1 -0.06,-0.15l0.15 -0.15c0.03,-0.03 0.09,-0.03 0.12,0 0.03,0.03 0.03,0.09 0,0.12l-0.15 0.15c-0.02,0.02 -0.04,0.03 -0.06,0.03l0 -0z"/>
   <path class="fil0" d="M4.79 5.29c-0.02,0 -0.04,-0.01 -0.06,-0.03l-0.15 -0.15c-0.03,-0.03 -0.03,-0.09 0,-0.12 0.03,-0.03 0.09,-0.03 0.12,0l0.15 0.15c0.06,0.05 0.01,0.15 -0.06,0.15l0 0z"/>
   <path class="fil0" d="M4.64 4.03c-0.07,0 -0.12,-0.1 -0.06,-0.15l0.15 -0.15c0.03,-0.03 0.09,-0.03 0.12,-0 0.03,0.03 0.03,0.09 0,0.12l-0.15 0.15c-0.02,0.02 -0.04,0.03 -0.06,0.03l0 0z"/>
  </g>
 </g>
</svg>
