<?xml version="1.0" encoding="UTF-8"?>
<!DOCTYPE svg PUBLIC "-//W3C//DTD SVG 1.1//EN" "http://www.w3.org/Graphics/SVG/1.1/DTD/svg11.dtd">
<!-- Creator: CorelDRAW 2021 (64-Bit) -->
<svg xmlns="http://www.w3.org/2000/svg" xml:space="preserve" width="0.351445in" height="0.354331in" version="1.1" style="shape-rendering:geometricPrecision; text-rendering:geometricPrecision; image-rendering:optimizeQuality; fill-rule:evenodd; clip-rule:evenodd"
viewBox="0 0 24.35 24.55"
 xmlns:xlink="http://www.w3.org/1999/xlink"
 xmlns:xodm="http://www.corel.com/coreldraw/odm/2003">
 <defs>
  <style type="text/css">
   <![CDATA[
    .fil0 {fill:#00A0E3}
   ]]>
  </style>
 </defs>
 <g id="Layer_x0020_1">
  <metadata id="CorelCorpID_0Corel-Layer"/>
  <path class="fil0" d="M12.98 12.77c-1.18,-1.52 1.06,-1.71 0.42,-3.25 -0.45,-1.09 -0.71,0.05 -0.71,-1.6 0,-1.66 0.29,-0.51 0.71,-1.59 0.14,-0.36 0.15,-0.65 0.01,-1.02 -0.39,-1.07 -0.68,0.38 -0.71,-2.49l1.81 -0.01 -0 -2.8 -4.76 0.01 0.01 2.8 1.79 0c0,0.34 0.04,1.22 -0.02,1.5 -0.16,0.67 -0.36,0.31 -0.64,0.88 -0.59,1.19 0.6,1.61 0.66,2.13 0.25,1.93 -0.45,1.41 -0.73,2.31 -0.37,1.21 0.6,1.2 0.73,2.04 0.19,1.18 -0.84,1.16 -0.79,2.23 0.05,1.16 0.78,0.43 0.79,2.1l-1.72 -0.01 -1.02 5.06 2.65 -0 -0.95 0.81c-2.31,1.54 -5.95,3.4 -6.81,-0.8l3.01 -0.03 -1.17 -5.02 -4.53 -0.01 -1.03 5.06c3.29,-0 2.86,-0.2 3.16,0.63 0.09,0.24 0.13,0.43 0.23,0.67 1.59,3.79 6.29,1.31 8.37,-0.43 0.12,0.84 -0.1,1.97 0.18,2.62 0.96,-0.19 0.5,-0.61 0.59,-2.61l2.18 1.39c0.83,0.44 1.65,0.87 2.74,1.02 3.5,0.47 3.23,-2.71 4.12,-3.29l2.77 -0.01 -1.08 -5.05 -4.6 0.02 -1.07 5.03 2.98 0.01c-0.7,3.51 -3.49,2.82 -5.89,1.39 -0.22,-0.13 -1.72,-1.04 -1.78,-1.29 -0.02,-0.06 -0.06,-0.06 -0.09,-0.1l2.71 -0.01 -1.08 -5.05 -1.73 0c0.01,-1.86 1.7,-1.39 0.26,-3.23z"/>
 </g>
</svg>
