<?xml version="1.0" encoding="UTF-8"?>
<!DOCTYPE svg PUBLIC "-//W3C//DTD SVG 1.1//EN" "http://www.w3.org/Graphics/SVG/1.1/DTD/svg11.dtd">
<!-- Creator: CorelDRAW 2021 (64-Bit) -->
<svg xmlns="http://www.w3.org/2000/svg" xml:space="preserve" width="0.216169in" height="0.357331in" version="1.1" style="shape-rendering:geometricPrecision; text-rendering:geometricPrecision; image-rendering:optimizeQuality; fill-rule:evenodd; clip-rule:evenodd"
viewBox="0 0 4.84 7.99"
 xmlns:xlink="http://www.w3.org/1999/xlink"
 xmlns:xodm="http://www.corel.com/coreldraw/odm/2003">
 <defs>
  <style type="text/css">
   <![CDATA[
    .str0 {stroke:#00A0E3;stroke-width:0.07;stroke-miterlimit:22.9256}
    .fil0 {fill:#00A0E3}
   ]]>
  </style>
 </defs>
 <g id="Layer_x0020_1">
  <metadata id="CorelCorpID_0Corel-Layer"/>
  <path class="fil0 str0" d="M0.61 7.54c0.16,-0.04 0.39,0.04 0.51,-0.05l0.49 -0.34c0.04,-0.01 1.24,-0.01 1.38,-0.01 0.06,0 0.23,-0.01 0.27,0.01l0.49 0.34c0.12,0.09 0.34,0.01 0.51,0.05l-0 0.22 -3.63 0 -0.01 -0.23zm1.68 -5.08l0.27 -0 0 4.52 -0.27 0 -0 -4.52zm1.3 1.19c0.01,0.01 0.27,0.42 0.28,0.49l-0.55 -0c0.01,-0.07 0.22,-0.43 0.27,-0.49zm-2.25 -3.45l2.16 -0 1.01 2.08 -4.19 0 1.01 -2.08zm-1.29 2.26l2.06 0c-0,0.11 0.02,4.43 -0.01,4.53 -0.16,-0 -0.35,-0.01 -0.51,-0 -0.08,0 -0.08,0.02 -0.17,0.09l-0.3 0.22c-0.05,0.04 -0.09,0.09 -0.18,0.09 -0.17,0 -0.34,-0.01 -0.51,0l-0 0.58 3.98 0 0 -0.58c-0.16,-0.02 -0.35,0 -0.51,-0 -0.09,-0 -0.22,-0.12 -0.32,-0.2 -0.07,-0.05 -0.24,-0.2 -0.31,-0.21 -0.16,-0.01 -0.36,0 -0.53,0l-0 -4.52 0.78 0 0 0.96c-0,0.07 -0.01,0.05 -0.04,0.09 -0.03,0.05 -0.07,0.12 -0.1,0.17l-0.2 0.35c-0.02,0.05 -0.01,0.21 -0,0.27l0.88 -0c0.04,-0.29 -0.03,-0.32 -0.2,-0.62 -0.03,-0.05 -0.07,-0.13 -0.1,-0.17 -0.03,-0.04 -0.04,-0.03 -0.05,-0.09l0 -0.97 1.1 -0c-0.01,-0.03 -1.11,-2.32 -1.18,-2.43l-2.38 0c-0.05,0.09 -0.1,0.21 -0.15,0.3 -0.05,0.1 -0.1,0.2 -0.15,0.3 -0.1,0.21 -0.2,0.41 -0.3,0.61l-0.58 1.21z"/>
 </g>
</svg>
