<?xml version="1.0" encoding="UTF-8"?>
<!DOCTYPE svg PUBLIC "-//W3C//DTD SVG 1.1//EN" "http://www.w3.org/Graphics/SVG/1.1/DTD/svg11.dtd">
<!-- Creator: CorelDRAW 2021 (64-Bit) -->
<svg xmlns="http://www.w3.org/2000/svg" xml:space="preserve" width="0.210331in" height="0.354331in" version="1.1" style="shape-rendering:geometricPrecision; text-rendering:geometricPrecision; image-rendering:optimizeQuality; fill-rule:evenodd; clip-rule:evenodd"
viewBox="0 0 5.47 9.22"
 xmlns:xlink="http://www.w3.org/1999/xlink"
 xmlns:xodm="http://www.corel.com/coreldraw/odm/2003">
 <defs>
  <style type="text/css">
   <![CDATA[
    .fil0 {fill:#00A0E3}
   ]]>
  </style>
 </defs>
 <g id="Layer_x0020_1">
  <metadata id="CorelCorpID_0Corel-Layer"/>
  <g id="_1771739820864">
   <path class="fil0" d="M1.18 5.95c-0.01,-1.52 0,-2.55 -0,-4.08 -0,-0.73 0.15,-1.31 0.88,-1.37 0.79,-0.07 1.4,-0.04 1.67,0.58 -0.01,0.01 -0.03,0.02 -0.03,0.03l-0.2 0.14c-0.09,0.06 -0.13,0.08 -0.19,0.13 -0.15,0.11 -0.24,0.17 -0.35,0.29 -0.23,0.26 -0.33,0.49 -0.33,0.98l0.92 0.01c0.13,0.25 0.1,0.48 0.53,0.47 0.39,-0.01 0.35,-0.23 0.48,-0.47l0.92 -0c-0,-0.93 -0.5,-1.16 -1.1,-1.53 -0.38,-0.23 -0.35,-1.01 -1.46,-1.08 -0.52,-0.04 -1.07,-0.04 -1.49,0.2 -0.91,0.52 -0.7,1.53 -0.7,2.76l-0 2.97 0.46 0z"/>
   <path class="fil0" d="M-0 9.22l1.91 0 0 -0.48c-0.18,-0 -0.13,0.03 -0.25,-0.05 0,-0.48 0,-0.95 0,-1.43 0,-0.46 0.17,-1.13 -0.33,-1.13 -1.29,0 -1.08,-0.08 -1.08,1.13 0,1.68 0.09,1.48 -0.25,1.48l0 0.48z"/>
  </g>
 </g>
</svg>
