<?xml version="1.0" encoding="UTF-8"?>
<!DOCTYPE svg PUBLIC "-//W3C//DTD SVG 1.1//EN" "http://www.w3.org/Graphics/SVG/1.1/DTD/svg11.dtd">
<!-- Creator: CorelDRAW 2021 (64-Bit) -->
<svg xmlns="http://www.w3.org/2000/svg" xml:space="preserve" width="0.32748in" height="0.354331in" version="1.1" style="shape-rendering:geometricPrecision; text-rendering:geometricPrecision; image-rendering:optimizeQuality; fill-rule:evenodd; clip-rule:evenodd"
viewBox="0 0 16.19 17.52"
 xmlns:xlink="http://www.w3.org/1999/xlink"
 xmlns:xodm="http://www.corel.com/coreldraw/odm/2003">
 <defs>
  <style type="text/css">
   <![CDATA[
    .fil0 {fill:#00A0E3}
   ]]>
  </style>
 </defs>
 <g id="Layer_x0020_1">
  <metadata id="CorelCorpID_0Corel-Layer"/>
  <g id="_1771886169952">
   <path class="fil0" d="M7.85 0.39c-0.41,0.65 -0.07,0.48 -0.07,1.42 -0.36,-0.19 -0.51,-0.33 -0.94,-0.54 -0.77,-0.38 -0.27,-0.03 -0.7,-0.59 -0.58,-0.76 -1.14,-0.63 -2.14,-0.63 -2.07,0.01 -3.64,-0.5 -4,1.47 1.1,-0.05 1.4,-0.05 2.18,-0.05 4.14,0.04 5.51,-0.66 5.6,2.64 -0.01,1.81 0.12,9.51 -0.07,10.62 -0.21,0.15 -0.44,0.36 -0.73,0.53 -1.12,0.64 -1.23,-0.06 -1.22,2.24l4.7 0.01c0,-1.87 0.13,-1.58 -1.16,-2.2 -1.03,-0.5 -0.89,-0.99 -0.89,-2.31 0.01,-2.15 -0,-4.3 -0,-6.46 -0,-6.34 -0.71,-4.84 7.79,-5.01 -0.43,-1.92 -1.52,-1.48 -4.02,-1.49 -2.87,-0.01 -0.83,0.33 -3.78,1.77 0.02,-0.9 0.55,-1.46 -0.55,-1.43z"/>
   <path class="fil0" d="M10.17 1.75c0.61,1.36 0.71,1.18 2.87,1.19 1.56,0 2.26,0.19 2.73,-1.2l-5.59 0.01z"/>
   <path class="fil0" d="M0.42 1.76c0.31,1.05 0.88,1.17 2.14,1.17 1.88,0 3.07,0.28 3.45,-1.19l-5.58 0.01z"/>
  </g>
 </g>
</svg>
