<?xml version="1.0" encoding="UTF-8"?>
<!DOCTYPE svg PUBLIC "-//W3C//DTD SVG 1.1//EN" "http://www.w3.org/Graphics/SVG/1.1/DTD/svg11.dtd">
<!-- Creator: CorelDRAW 2021 (64-Bit) -->
<svg xmlns="http://www.w3.org/2000/svg" xml:space="preserve" width="0.404449in" height="0.318409in" version="1.1" style="shape-rendering:geometricPrecision; text-rendering:geometricPrecision; image-rendering:optimizeQuality; fill-rule:evenodd; clip-rule:evenodd"
viewBox="0 0 37.84 29.79"
 xmlns:xlink="http://www.w3.org/1999/xlink"
 xmlns:xodm="http://www.corel.com/coreldraw/odm/2003">
 <defs>
  <style type="text/css">
   <![CDATA[
    .str0 {stroke:#00A0E3;stroke-width:0.28;stroke-miterlimit:22.9256}
    .str1 {stroke:#00A0E3;stroke-width:0.65;stroke-linecap:round;stroke-linejoin:round;stroke-miterlimit:2.61313}
    .fil0 {fill:#00A0E3}
   ]]>
  </style>
 </defs>
 <g id="Layer_x0020_1">
  <metadata id="CorelCorpID_0Corel-Layer"/>
  <g id="_1771798050800">
   <path class="fil0 str0" d="M30.98 17.16c0.04,0.06 0.02,-0.04 0.08,0.17 0.01,0.05 0.02,0.14 0.02,0.2 0.12,1.78 -0.48,3.64 -1.33,5.13 -0.65,1.13 -2.25,3.06 -3.43,3.45l4.66 -8.94zm0.07 -1.79l-5.12 9.77c-0.56,1.08 -0.96,2.42 -1.94,2.51 -0.57,0.05 -1.81,-0.66 -2.03,-0.97 -0.65,-0.9 0.26,-1.96 0.87,-3.13l3.08 -5.86c0.35,-0.65 0.67,-1.3 1.02,-1.96 0.34,-0.63 0.67,-1.38 1.03,-1.95 0.55,-0.87 1.38,-0.55 2.02,-0.2 0.38,0.2 0.63,0.3 0.88,0.58 0.26,0.29 0.37,0.75 0.2,1.2zm-13.32 -4.44c0,2.75 -2.99,3.47 -4.37,1.75 -0.47,-0.58 -0.54,-1.2 -0.53,-2.1l0 -7.94c0,-1.69 -0.17,-1.71 0.94,-1.71l3.27 0c0.7,0 0.7,0.18 0.7,0.84l0 9.17zm-6.25 9.22c-0.46,-0.16 -2.47,-1.28 -3.12,-1.61 -0.52,-0.26 -1.01,-0.52 -1.53,-0.8 -0.35,-0.19 -1.25,-0.57 -1.47,-0.82 -0.58,-0.07 -1.88,-1.06 -2.33,-1.45 -0.57,-0.5 -1.16,-1.3 -1.55,-2.19 -0.88,-1.97 -0.66,-4.31 0.34,-6.05 0.82,-1.43 2.31,-2.74 4.35,-3.19 1.14,-0.25 2.25,-0.2 3.32,0.11 0.66,0.19 2.04,0.84 2.55,1.19 0.08,1.7 0.01,3.58 0.01,5.3 -0,4.24 4.1,4.5 5.66,2.61 1.06,-1.28 0.76,-2.61 0.79,-4.49 0.33,0.07 1.85,0.93 2.24,1.14 0.74,0.4 1.45,0.77 2.18,1.15 0.98,0.51 3.57,1.82 4.37,2.3l-6.23 11.83c-0.27,-0.06 -9.52,-4.97 -9.58,-5.03zm0.56 -15.73c-0.25,-0.05 -0.78,-0.39 -1.06,-0.53 -4.73,-2.25 -10.06,0.56 -10.78,5.79 -0.27,1.99 0.4,3.95 1.3,5.2 1.01,1.4 1.96,1.99 3.72,2.88 1.54,0.78 2.87,1.5 4.33,2.27 2.88,1.54 5.79,3.01 8.66,4.54 0.71,0.38 1.41,0.77 2.14,1.13 0.81,0.4 0.43,0.13 0.71,0.92 0.44,1.22 3.3,2.88 4.55,0.76 0.18,-0.31 0.16,-0.23 0.52,-0.36 3.48,-1.25 6.52,-6.67 5.55,-10.56 -0.18,-0.72 0.08,-0.53 0.19,-1.22 0.08,-0.49 -0.04,-0.99 -0.25,-1.35 -0.39,-0.67 -2.15,-1.78 -3.32,-1.35 -0.58,0.22 -0.27,0.28 -1.17,-0.19l-8.64 -4.54c-0.01,-1.54 -0,-3.08 -0,-4.62 0,-1.67 0.36,-3.08 -1.53,-3.07 -0.76,0 -1.52,0 -2.28,0 -1.96,0 -2.64,-0.24 -2.64,1.96 0,0.73 0.04,1.6 -0.01,2.31z"/>
   <path class="fil0 str0" d="M31.73 28.7c-0.07,-0.07 -0.14,-0.13 -0.21,-0.2 -0.07,-0.07 -0.13,-0.13 -0.2,-0.2 -0.21,-0.19 -0.43,-0.43 -0.62,-0.6l-0.42 -0.4c-0.17,-0.16 -0.91,-0.91 -1.03,-0.99 -0.04,0.03 -0.06,0.06 -0.1,0.09 0.01,0.04 0.16,0.16 0.2,0.21 0.25,0.25 0.58,0.55 0.83,0.8l1.86 1.8c0.07,0.07 0.14,0.13 0.21,0.2 0.06,0.06 0.15,0.15 0.21,0.2l0.1 -0.09c-0.02,-0.05 -0.07,-0.07 -0.1,-0.11 -0.04,-0.04 -0.06,-0.06 -0.1,-0.1l-0.42 -0.4c-0.07,-0.06 -0.13,-0.13 -0.2,-0.2z"/>
   <path class="fil0 str0" d="M33.16 19.65l4.51 0.91c0.02,-0.04 0.04,-0.1 0.03,-0.14l-4.51 -0.91 -0.03 0.14z"/>
   <path class="fil0 str1" d="M5.48 14.98c0.13,-0.28 0.52,0.02 0.71,0.13l4.25 2.23c0.32,0.16 0.54,0.14 0.51,0.54 -0.29,0.18 -0.4,0.01 -0.72,-0.15l-3.53 -1.84c-0.27,-0.14 -0.45,-0.24 -0.73,-0.39 -0.19,-0.1 -0.64,-0.21 -0.5,-0.51zm-0.25 1.03c0.44,0.15 0.96,0.49 1.39,0.71l2.76 1.44c0.5,0.27 0.91,0.6 1.57,0.58 0.18,-0.11 0.86,-0.24 0.78,-1.09 -0.05,-0.57 -0.47,-0.76 -0.91,-0.98 -0.84,-0.43 -1.65,-0.89 -2.49,-1.31 -0.43,-0.21 -2.18,-1.21 -2.52,-1.25 -0.58,-0.07 -1,0.28 -1.12,0.74 -0.19,0.77 0.45,1.07 0.53,1.18z"/>
   <path class="fil0 str1" d="M9.17 14.35c-0.5,-0.26 -0.93,-0.48 -1.42,-0.74 -0.5,-0.27 -1.42,-0.59 -1.06,-0.88 0.22,-0.18 2.53,1.16 2.88,1.34 0.48,0.25 0.94,0.49 1.42,0.75 0.25,0.14 1.51,0.63 1.04,0.91 -0.2,0.12 -2.54,-1.2 -2.86,-1.37zm-3.32 -1.27c0.11,0.61 1.09,0.98 1.64,1.26l3.83 2.01c0.84,0.44 1.73,-0.06 1.58,-0.99 -0.11,-0.67 -1.09,-1 -1.64,-1.29l-3.83 -2.01c-0.84,-0.45 -1.75,0.09 -1.58,1.02z"/>
   <path class="fil0 str1" d="M15.05 10.22c0.95,-0.31 1.45,1.1 0.52,1.48 -0.99,0.4 -1.61,-1.12 -0.52,-1.48zm-0.17 -0.76c-0.72,0.19 -1.39,0.92 -1.14,1.89 0.19,0.74 0.96,1.41 1.96,1.12 1.92,-0.55 1.18,-3.53 -0.83,-3.02z"/>
  </g>
 </g>
</svg>
