<?xml version="1.0" encoding="UTF-8"?>
<!DOCTYPE svg PUBLIC "-//W3C//DTD SVG 1.1//EN" "http://www.w3.org/Graphics/SVG/1.1/DTD/svg11.dtd">
<!-- Creator: CorelDRAW 2021 (64-Bit) -->
<svg xmlns="http://www.w3.org/2000/svg" xml:space="preserve" width="0.354331in" height="0.320043in" version="1.1" style="shape-rendering:geometricPrecision; text-rendering:geometricPrecision; image-rendering:optimizeQuality; fill-rule:evenodd; clip-rule:evenodd"
viewBox="0 0 21.11 19.07"
 xmlns:xlink="http://www.w3.org/1999/xlink"
 xmlns:xodm="http://www.corel.com/coreldraw/odm/2003">
 <defs>
  <style type="text/css">
   <![CDATA[
    .fil0 {fill:#00A0E3}
   ]]>
  </style>
 </defs>
 <g id="Layer_x0020_1">
  <metadata id="CorelCorpID_0Corel-Layer"/>
  <g id="_1807987306992">
   <path class="fil0" d="M7.71 7.1l13.4 0c-0.02,-1.04 -1.38,-4.15 -1.91,-5.6 -0.24,-0.66 -0.4,-1.5 -1.13,-1.5l-7.71 0c-0.87,0 -1.41,2.12 -1.94,3.54 -0.73,1.92 -1.76,3.57 -0.69,3.57z"/>
   <path class="fil0" d="M-0 11.57c1.7,-0.04 2.81,-0.92 3.86,-1.62 0,2.61 -0.34,4.71 0.76,6.54 1.91,3.18 7.28,3.79 9.53,-0.31 0.98,-1.78 0.67,-4.41 0.67,-7.04 0.82,-0.22 0.99,-0.61 1.01,-1.62l-2.84 0c-1.07,0 -0.37,1.36 0.61,1.62 0,3.16 0.52,6.34 -1.86,7.88 -2.69,1.75 -5.34,0.38 -6.27,-1.58 -1.31,-2.77 0.68,-8.56 -1.21,-11.58 -0.76,-1.22 -2.25,-2.23 -4.26,-2.23l0 9.95z"/>
   <path class="fil0" d="M7.51 10.35c0.94,0.2 0.72,0 1.63,-0.4 0.83,-0.37 1.12,-0.14 1.21,-1.23 -0.94,-0.2 -0.72,-0 -1.63,0.4 -0.83,0.37 -1.12,0.14 -1.21,1.23z"/>
   <path class="fil0" d="M17.86 13.19c0.64,-0.77 -0.68,-2.48 -1.22,-2.84 -0.84,0.47 -0.53,0.69 -0.05,1.46 0.47,0.76 0.4,1.15 1.26,1.38z"/>
   <path class="fil0" d="M10.35 13.19c0.91,-0.61 2.26,-2.84 1.22,-2.84 -0.66,0 -0.75,0.76 -1.11,1.34 -0.57,0.93 -0.68,0.66 -0.11,1.51z"/>
   <path class="fil0" d="M17.86 9.54c0.91,0.21 2.41,1.53 2.61,0.58 0.18,-0.89 -1.81,-1.39 -2.61,-1.39l0 0.81z"/>
  </g>
 </g>
</svg>
