<?xml version="1.0" encoding="UTF-8"?>
<!DOCTYPE svg PUBLIC "-//W3C//DTD SVG 1.1//EN" "http://www.w3.org/Graphics/SVG/1.1/DTD/svg11.dtd">
<!-- Creator: CorelDRAW 2021 (64-Bit) -->
<svg xmlns="http://www.w3.org/2000/svg" xml:space="preserve" width="0.283106in" height="0.354331in" version="1.1" style="shape-rendering:geometricPrecision; text-rendering:geometricPrecision; image-rendering:optimizeQuality; fill-rule:evenodd; clip-rule:evenodd"
viewBox="0 0 10.55 13.21"
 xmlns:xlink="http://www.w3.org/1999/xlink"
 xmlns:xodm="http://www.corel.com/coreldraw/odm/2003">
 <defs>
  <style type="text/css">
   <![CDATA[
    .fil0 {fill:#00A0E3}
   ]]>
  </style>
 </defs>
 <g id="Layer_x0020_1">
  <metadata id="CorelCorpID_0Corel-Layer"/>
  <g id="_1771786441872">
   <path class="fil0" d="M3.86 9.49l6.7 0c-0.01,-0.52 -0.69,-2.07 -0.96,-2.8 -0.12,-0.33 -0.2,-0.75 -0.57,-0.75l-3.86 0c-0.43,0 -0.7,1.06 -0.97,1.77 -0.37,0.96 -0.88,1.78 -0.35,1.78z"/>
   <path class="fil0" d="M-0 3.75c0.85,0.02 1.4,0.46 1.93,0.81 0,-1.3 -0.17,-2.35 0.38,-3.27 0.95,-1.59 3.64,-1.9 4.76,0.16 0.49,0.89 0.33,2.2 0.33,3.52 0.41,0.11 0.5,0.31 0.51,0.81l-1.42 0c-0.53,0 -0.19,-0.68 0.3,-0.81 0,-1.58 0.26,-3.17 -0.93,-3.94 -1.34,-0.88 -2.67,-0.19 -3.14,0.79 -0.65,1.38 0.34,4.28 -0.61,5.79 -0.38,0.61 -1.12,1.12 -2.13,1.12l0 -4.97z"/>
   <path class="fil0" d="M3.76 11.11c0.47,0.1 0.36,0 0.81,-0.2 0.41,-0.18 0.56,-0.07 0.61,-0.61 -0.47,-0.1 -0.36,-0 -0.81,0.2 -0.41,0.18 -0.56,0.07 -0.61,0.61z"/>
   <path class="fil0" d="M8.93 12.53c0.32,-0.39 -0.34,-1.24 -0.61,-1.42 -0.42,0.24 -0.26,0.35 -0.02,0.73 0.24,0.38 0.2,0.58 0.63,0.69z"/>
   <path class="fil0" d="M5.18 12.53c0.45,-0.3 1.13,-1.42 0.61,-1.42 -0.33,0 -0.38,0.38 -0.55,0.67 -0.28,0.46 -0.34,0.33 -0.06,0.75z"/>
   <path class="fil0" d="M8.93 10.71c0.46,0.11 1.21,0.77 1.31,0.29 0.09,-0.45 -0.91,-0.7 -1.31,-0.7l0 0.41z"/>
   <path class="fil0" d="M7.2 13.21c0.24,-0.49 0.27,-1.8 -0.18,-1.53 -0.29,0.16 -0.14,0.52 -0.15,0.86 -0.01,0.54 -0.13,0.45 0.33,0.68z"/>
  </g>
 </g>
</svg>
