<?xml version="1.0" encoding="UTF-8"?>
<!DOCTYPE svg PUBLIC "-//W3C//DTD SVG 1.1//EN" "http://www.w3.org/Graphics/SVG/1.1/DTD/svg11.dtd">
<!-- Creator: CorelDRAW 2021 (64-Bit) -->
<svg xmlns="http://www.w3.org/2000/svg" xml:space="preserve" width="0.434236in" height="0.354331in" version="1.1" style="shape-rendering:geometricPrecision; text-rendering:geometricPrecision; image-rendering:optimizeQuality; fill-rule:evenodd; clip-rule:evenodd"
viewBox="0 0 17.8 14.53"
 xmlns:xlink="http://www.w3.org/1999/xlink"
 xmlns:xodm="http://www.corel.com/coreldraw/odm/2003">
 <defs>
  <style type="text/css">
   <![CDATA[
    .fil0 {fill:#00A0E3}
   ]]>
  </style>
 </defs>
 <g id="Layer_x0020_1">
  <metadata id="CorelCorpID_0Corel-Layer"/>
  <path class="fil0" d="M1 9.45l5.54 0c-0.51,2.18 -4.04,2.79 -5.36,0.45 -0.11,-0.19 -0.1,-0.28 -0.18,-0.45zm10.26 0l5.54 0c-0.14,0.29 -0.21,0.5 -0.4,0.78 -0.18,0.25 -0.37,0.42 -0.6,0.59 -1.82,1.3 -4.17,0.23 -4.54,-1.36zm-9.54 -8.63l6.72 0 0 10.99c0,2.18 -3.64,2.67 -4.18,0.36 1.34,-0.11 2.43,-1.04 2.97,-2.21 0.09,-0.2 0.16,-0.38 0.22,-0.59 0.07,-0.25 0.06,-0.51 0.17,-0.74l-7.63 0c0.04,1.72 1.7,3.54 3.45,3.54 0.13,1.54 2.36,3.13 4.39,1.94 0.34,-0.2 0.86,-0.65 0.97,-1.03l0.18 0c0.23,0.87 2.4,2.3 4.38,0.74 0.37,-0.29 0.93,-1.07 0.98,-1.65 1.78,0 3.41,-1.76 3.45,-3.54l-7.63 0c0.12,0.26 0.07,0.35 0.15,0.67 0.37,1.49 1.79,2.84 3.21,2.87 -0.55,2.38 -4.18,1.83 -4.18,-0.36l0 -10.99 6.72 0 0 -0.82 -14.35 0 0 0.82z"/>
 </g>
</svg>
