<?xml version="1.0" encoding="UTF-8"?>
<!DOCTYPE svg PUBLIC "-//W3C//DTD SVG 1.1//EN" "http://www.w3.org/Graphics/SVG/1.1/DTD/svg11.dtd">
<!-- Creator: CorelDRAW 2021 (64-Bit) -->
<svg xmlns="http://www.w3.org/2000/svg" xml:space="preserve" width="0.392154in" height="0.362181in" version="1.1" style="shape-rendering:geometricPrecision; text-rendering:geometricPrecision; image-rendering:optimizeQuality; fill-rule:evenodd; clip-rule:evenodd"
viewBox="0 0 43.45 40.13"
 xmlns:xlink="http://www.w3.org/1999/xlink"
 xmlns:xodm="http://www.corel.com/coreldraw/odm/2003">
 <defs>
  <style type="text/css">
   <![CDATA[
    .str0 {stroke:#00A0E3;stroke-width:0.87;stroke-miterlimit:22.9256}
    .fil1 {fill:none}
    .fil0 {fill:#00A0E3}
   ]]>
  </style>
 </defs>
 <g id="Layer_x0020_1">
  <metadata id="CorelCorpID_0Corel-Layer"/>
  <g id="_1807690483440">
   <g>
    <path class="fil0" d="M40.57 30.77c0.1,1.41 0.02,2.55 -1.13,2.99 -1.18,0.44 -2.5,-0.3 -2.57,-1.32 -0.15,-0.24 -0.17,-1.42 -0.04,-1.71 0.41,-0.05 2.2,-0.02 2.84,-0.02 0.16,0 0.32,0 0.48,-0 0.31,-0 0.28,-0.03 0.43,0.06zm-37.7 0c0.19,-0.11 0.67,-0.06 0.91,-0.06 0.64,0 2.43,-0.04 2.84,0.02 0.13,0.29 0.12,1.47 -0.04,1.71 -0.07,1.01 -1.39,1.76 -2.57,1.32 -1.16,-0.44 -1.23,-1.56 -1.14,-2.99zm-1.59 -2.34l6.92 -0.02 -0.36 1.57 -6.15 0.01c-0.16,-0.26 -0.35,-1.2 -0.4,-1.56zm33.95 -0.01l6.93 -0.01c-0.06,0.39 -0.23,1.29 -0.4,1.56l-6.16 0.01 -0.37 -1.57zm1.02 -9.04l4.9 -0.01c0.11,0.25 1.01,7.49 1.05,8.29l-7.04 -0c0.15,-1.4 0.34,-2.77 0.52,-4.17 0.05,-0.37 0.42,-3.86 0.56,-4.11zm-33.97 0.01l4.9 -0.02c0.12,0.22 0.26,1.69 0.3,2.05 0.09,0.69 0.17,1.38 0.26,2.07 0.18,1.39 0.38,2.78 0.52,4.16l-7.04 0.01c0.04,-0.77 0.94,-8.03 1.05,-8.27zm24.03 8.02c-0.03,0.88 -0.77,1.6 -1.41,1.87 -0.68,0.29 -2.33,0.17 -3.18,0.17 -0.81,0 -2.49,0.1 -3.14,-0.15 -0.67,-0.26 -1.42,-1 -1.45,-1.89 -0.16,-0.28 -0.1,-1.5 -0.05,-1.89l9.19 -0.02 0.1 0.02c0.05,0.39 0.11,1.62 -0.05,1.89zm-4.9 -20.18c2.67,-0.43 3.37,3.69 0.64,4.14 -2.71,0.45 -3.44,-3.68 -0.64,-4.14zm-2.08 17.55c-0.15,-0.05 -0.12,-0.02 -0.2,-0.4 -0.03,-0.18 -0.06,-0.29 -0.13,-0.47 -0.11,-0.3 -0.24,-0.59 -0.41,-0.84 -0.32,-0.49 -0.75,-0.91 -1.24,-1.21 -2.35,-1.44 -5.62,0.03 -5.9,2.93 -0.07,0.69 -0.02,8.93 -0.02,9.87 0,1.93 -0.13,2.78 -1.29,3.67 -1.06,0.81 -2.6,0.81 -3.71,0.02 -1.11,-0.8 -1.4,-1.94 -1.3,-3.69 0.24,-0.14 1.23,-0.17 1.86,-1.21 0.5,-0.82 0.4,-1.61 0.39,-2.68 1.11,-0.14 0.96,0.4 1.35,-1.27 0.23,-0.99 0.38,-1.15 0.24,-2.26 -0.19,-1.56 -0.38,-3.12 -0.58,-4.67l-0.44 -3.52c-0.08,-0.52 -0.37,-0.42 -0.89,-0.42 -1.71,0.01 -3.61,-0.08 -5.3,0.01 -0.33,0.29 -0.28,0.69 -0.37,1.44l-0.63 5.09c-0.39,3.07 -0.53,2.18 0.12,4.89 0.22,0.89 0.26,0.65 1.21,0.69 0.02,1.68 -0.2,3.35 2.25,3.86 0.15,1.71 -0.18,2.13 0.77,3.47 0.52,0.74 1.44,1.45 2.72,1.58 1.39,0.15 2.53,-0.44 3.19,-1.11 0.75,-0.76 1.15,-1.65 1.15,-3.13 0,-1.87 0,-3.75 0,-5.62 0,-1.16 -0.14,-4.58 0.12,-5.47 0.38,-1.3 1.59,-2.41 3.3,-2.28 1.38,0.1 2.79,1.37 2.81,2.72 -0.4,0 -0.79,0 -1.19,0 -0.95,-0 -1.06,-0.21 -0.89,2.7 0.63,3.12 3.06,2.74 5.07,2.74 0.87,0 1.76,0.02 2.63,-0 1.53,-0.03 2.62,-1.07 2.95,-2.29 0.18,-0.64 0.11,-1.83 0.11,-2.54 -0,-0.81 -0.47,-0.6 -2.1,-0.6 0.01,-0.41 0.28,-1.09 0.52,-1.39 0.64,-0.82 1.43,-1.33 2.53,-1.34 1.07,-0.02 2.1,0.57 2.46,1.18 0.24,0.04 0.58,0.96 0.63,1.16 0.22,0.8 0.11,8.02 0.11,9.37 0,1.14 -0.13,2.47 0.27,3.47 1.17,2.89 5.09,3.5 6.98,0.58 0.7,-1.08 0.46,-1.85 0.57,-3.19 2.46,-0.52 2.24,-2.21 2.25,-3.86 1.15,-0.04 1.01,0.18 1.28,-0.93 0.57,-2.36 0.46,-1.45 0.15,-3.9 -0.09,-0.67 -0.16,-1.33 -0.25,-2.01 -0.17,-1.36 -0.33,-2.68 -0.51,-4.04 -0.19,-1.48 0.39,-1.24 -3.31,-1.24 -3.68,0 -3.13,-0.25 -3.31,1.17 -0.17,1.35 -0.34,2.69 -0.51,4.04 -0.16,1.27 -0.43,2.81 -0.51,4.06 -0.02,0.38 0.29,1.47 0.39,1.89 0.3,1.25 0.13,0.83 1.28,0.98 -0.02,1.38 -0.11,3.06 1.64,3.7 0.22,0.08 0.43,0.09 0.61,0.19 0.08,1.3 -0.04,2.35 -0.71,3.14 -1.43,1.7 -4.01,1.4 -5.06,-0.26 -0.63,-0.98 -0.53,-1.96 -0.53,-3.3 0,-2.55 0,-5.1 0,-7.66 0,-1.91 -0,-3.64 -1.94,-4.76 -0.79,-0.46 -1.8,-0.63 -2.69,-0.46 -1.42,0.28 -2.51,1.27 -2.97,2.64 -0.2,0.59 -0.03,0.68 -0.29,0.78 -0.11,-0.47 -0.51,-3.7 -0.46,-4.07 -0.16,-0.26 -0.23,-1.55 -0.28,-1.97l-0.8 -6.73c2.16,-0.76 2.59,-3.3 1.18,-4.68 -0.53,-0.52 -0.75,-0.59 -1.65,-0.86 -0,-0.81 0.07,-5.45 -0.05,-5.8 -0.06,-0.12 -0.72,-0.67 -0.71,0.61l-0 5.19c-0.87,0.25 -1.11,0.33 -1.65,0.86 -1.41,1.38 -0.66,4 1.5,4.77l-1.86 12.68zm0.86 -0.04l0.66 -5.8c-0.07,-0.44 0.29,-2.84 0.37,-3.46 0.07,-0.56 0.14,-1.14 0.2,-1.7 0.03,-0.3 0.07,-0.57 0.1,-0.87 0.04,-0.35 0.01,-0.66 0.2,-0.76 0.19,0.1 0.16,0.43 0.2,0.79 0.23,1.84 1.21,10.05 1.48,11.78l-3.21 0.02z"/>
    <path id="_1" class="fil1 str0" d="M40.57 30.77c0.1,1.41 0.02,2.55 -1.13,2.99 -1.18,0.44 -2.5,-0.3 -2.57,-1.32 -0.15,-0.24 -0.17,-1.42 -0.04,-1.71 0.41,-0.05 2.2,-0.02 2.84,-0.02 0.16,0 0.32,0 0.48,-0 0.31,-0 0.28,-0.03 0.43,0.06zm-37.7 0c0.19,-0.11 0.67,-0.06 0.91,-0.06 0.64,0 2.43,-0.04 2.84,0.02 0.13,0.29 0.12,1.47 -0.04,1.71 -0.07,1.01 -1.39,1.76 -2.57,1.32 -1.16,-0.44 -1.23,-1.56 -1.14,-2.99zm-1.59 -2.34l6.92 -0.02 -0.36 1.57 -6.15 0.01c-0.16,-0.26 -0.35,-1.2 -0.4,-1.56zm33.95 -0.01l6.93 -0.01c-0.06,0.39 -0.23,1.29 -0.4,1.56l-6.16 0.01 -0.37 -1.57zm1.02 -9.04l4.9 -0.01c0.11,0.25 1.01,7.49 1.05,8.29l-7.04 -0c0.15,-1.4 0.34,-2.77 0.52,-4.17 0.05,-0.37 0.42,-3.86 0.56,-4.11zm-33.97 0.01l4.9 -0.02c0.12,0.22 0.26,1.69 0.3,2.05 0.09,0.69 0.17,1.38 0.26,2.07 0.18,1.39 0.38,2.78 0.52,4.16l-7.04 0.01c0.04,-0.77 0.94,-8.03 1.05,-8.27zm24.03 8.02c-0.03,0.88 -0.77,1.6 -1.41,1.87 -0.68,0.29 -2.33,0.17 -3.18,0.17 -0.81,0 -2.49,0.1 -3.14,-0.15 -0.67,-0.26 -1.42,-1 -1.45,-1.89 -0.16,-0.28 -0.1,-1.5 -0.05,-1.89l9.19 -0.02 0.1 0.02c0.05,0.39 0.11,1.62 -0.05,1.89zm-4.9 -20.18c2.67,-0.43 3.37,3.69 0.64,4.14 -2.71,0.45 -3.44,-3.68 -0.64,-4.14zm-2.08 17.55c-0.15,-0.05 -0.12,-0.02 -0.2,-0.4 -0.03,-0.18 -0.06,-0.29 -0.13,-0.47 -0.11,-0.3 -0.24,-0.59 -0.41,-0.84 -0.32,-0.49 -0.75,-0.91 -1.24,-1.21 -2.35,-1.44 -5.62,0.03 -5.9,2.93 -0.07,0.69 -0.02,8.93 -0.02,9.87 0,1.93 -0.13,2.78 -1.29,3.67 -1.06,0.81 -2.6,0.81 -3.71,0.02 -1.11,-0.8 -1.4,-1.94 -1.3,-3.69 0.24,-0.14 1.23,-0.17 1.86,-1.21 0.5,-0.82 0.4,-1.61 0.39,-2.68 1.11,-0.14 0.96,0.4 1.35,-1.27 0.23,-0.99 0.38,-1.15 0.24,-2.26 -0.19,-1.56 -0.38,-3.12 -0.58,-4.67l-0.44 -3.52c-0.08,-0.52 -0.37,-0.42 -0.89,-0.42 -1.71,0.01 -3.61,-0.08 -5.3,0.01 -0.33,0.29 -0.28,0.69 -0.37,1.44l-0.63 5.09c-0.39,3.07 -0.53,2.18 0.12,4.89 0.22,0.89 0.26,0.65 1.21,0.69 0.02,1.68 -0.2,3.35 2.25,3.86 0.15,1.71 -0.18,2.13 0.77,3.47 0.52,0.74 1.44,1.45 2.72,1.58 1.39,0.15 2.53,-0.44 3.19,-1.11 0.75,-0.76 1.15,-1.65 1.15,-3.13 0,-1.87 0,-3.75 0,-5.62 0,-1.16 -0.14,-4.58 0.12,-5.47 0.38,-1.3 1.59,-2.41 3.3,-2.28 1.38,0.1 2.79,1.37 2.81,2.72 -0.4,0 -0.79,0 -1.19,0 -0.95,-0 -1.06,-0.21 -0.89,2.7 0.63,3.12 3.06,2.74 5.07,2.74 0.87,0 1.76,0.02 2.63,-0 1.53,-0.03 2.62,-1.07 2.95,-2.29 0.18,-0.64 0.11,-1.83 0.11,-2.54 -0,-0.81 -0.47,-0.6 -2.1,-0.6 0.01,-0.41 0.28,-1.09 0.52,-1.39 0.64,-0.82 1.43,-1.33 2.53,-1.34 1.07,-0.02 2.1,0.57 2.46,1.18 0.24,0.04 0.58,0.96 0.63,1.16 0.22,0.8 0.11,8.02 0.11,9.37 0,1.14 -0.13,2.47 0.27,3.47 1.17,2.89 5.09,3.5 6.98,0.58 0.7,-1.08 0.46,-1.85 0.57,-3.19 2.46,-0.52 2.24,-2.21 2.25,-3.86 1.15,-0.04 1.01,0.18 1.28,-0.93 0.57,-2.36 0.46,-1.45 0.15,-3.9 -0.09,-0.67 -0.16,-1.33 -0.25,-2.01 -0.17,-1.36 -0.33,-2.68 -0.51,-4.04 -0.19,-1.48 0.39,-1.24 -3.31,-1.24 -3.68,0 -3.13,-0.25 -3.31,1.17 -0.17,1.35 -0.34,2.69 -0.51,4.04 -0.16,1.27 -0.43,2.81 -0.51,4.06 -0.02,0.38 0.29,1.47 0.39,1.89 0.3,1.25 0.13,0.83 1.28,0.98 -0.02,1.38 -0.11,3.06 1.64,3.7 0.22,0.08 0.43,0.09 0.61,0.19 0.08,1.3 -0.04,2.35 -0.71,3.14 -1.43,1.7 -4.01,1.4 -5.06,-0.26 -0.63,-0.98 -0.53,-1.96 -0.53,-3.3 0,-2.55 0,-5.1 0,-7.66 0,-1.91 -0,-3.64 -1.94,-4.76 -0.79,-0.46 -1.8,-0.63 -2.69,-0.46 -1.42,0.28 -2.51,1.27 -2.97,2.64 -0.2,0.59 -0.03,0.68 -0.29,0.78 -0.11,-0.47 -0.51,-3.7 -0.46,-4.07 -0.16,-0.26 -0.23,-1.55 -0.28,-1.97l-0.8 -6.73c2.16,-0.76 2.59,-3.3 1.18,-4.68 -0.53,-0.52 -0.75,-0.59 -1.65,-0.86 -0,-0.81 0.07,-5.45 -0.05,-5.8 -0.06,-0.12 -0.72,-0.67 -0.71,0.61l-0 5.19c-0.87,0.25 -1.11,0.33 -1.65,0.86 -1.41,1.38 -0.66,4 1.5,4.77m-1 12.64l0.66 -5.8c-0.07,-0.44 0.29,-2.84 0.37,-3.46 0.07,-0.56 0.14,-1.14 0.2,-1.7 0.03,-0.3 0.07,-0.57 0.1,-0.87 0.04,-0.35 0.01,-0.66 0.2,-0.76 0.19,0.1 0.16,0.43 0.2,0.79 0.23,1.84 1.21,10.05 1.48,11.78"/>
   </g>
   <path class="fil0 str0" d="M6.58 32.43c0.16,-0.24 0.17,-1.42 0.04,-1.71 -0.41,-0.05 -2.2,-0.02 -2.84,-0.02 -0.24,0 -0.72,-0.05 -0.91,0.06l3.73 -0 -0.02 1.67z"/>
  </g>
 </g>
</svg>
