<?xml version="1.0" encoding="UTF-8"?>
<!DOCTYPE svg PUBLIC "-//W3C//DTD SVG 1.1//EN" "http://www.w3.org/Graphics/SVG/1.1/DTD/svg11.dtd">
<!-- Creator: CorelDRAW 2021 (64-Bit) -->
<svg xmlns="http://www.w3.org/2000/svg" xml:space="preserve" width="0.400646in" height="0.276937in" version="1.1" style="shape-rendering:geometricPrecision; text-rendering:geometricPrecision; image-rendering:optimizeQuality; fill-rule:evenodd; clip-rule:evenodd"
viewBox="0 0 81.37 56.25"
 xmlns:xlink="http://www.w3.org/1999/xlink"
 xmlns:xodm="http://www.corel.com/coreldraw/odm/2003">
 <defs>
  <style type="text/css">
   <![CDATA[
    .str0 {stroke:#00A0E3;stroke-width:1.41;stroke-miterlimit:22.9256}
    .fil0 {fill:#00A0E3}
   ]]>
  </style>
 </defs>
 <g id="Layer_x0020_1">
  <metadata id="CorelCorpID_0Corel-Layer"/>
  <path class="fil0 str0" d="M61.66 51.22l7.21 0c-0.37,1.6 -1.67,3 -3.55,3.02 -1.91,0.03 -3.3,-1.38 -3.66,-3.03zm-23.31 -0.1l7.19 -0c-0.26,1.59 -1.81,3.07 -3.62,3.04 -1.87,-0.04 -3.28,-1.41 -3.57,-3.04zm-23.64 0.02l7.18 -0.02c-0.26,1.61 -1.79,3.03 -3.63,3.04 -1.84,0 -3.25,-1.47 -3.55,-3.02zm59.97 -1.25l-18.3 -0c-0.14,-8.33 10.68,-11.8 15.5,-6.41 0.5,0.56 0.35,0.2 1.08,1.18 1.03,1.37 1.8,3.38 1.72,5.24zm-23.29 -0.1l-18.36 -0c0.2,-2.83 1.27,-4.94 2.69,-6.35 5.52,-5.47 15.31,-2.1 15.67,6.36zm-23.65 0l-18.34 -0c0.16,-5.04 4.06,-8.98 9.12,-9.01 5.11,-0.02 9.05,3.98 9.22,9.01zm51.55 -47.68c0.01,1.98 0.27,3.57 -1.22,4.3 -0.99,0.49 -3.75,0.28 -5.04,0.28l-64.61 0c-1.21,0 -4.27,0.23 -5.14,-0.31 -1.43,-0.9 -1.16,-2.37 -1.15,-4.28l77.17 0.01zm-57.56 52.12c0.27,-0.52 0.63,-0.75 0.95,-1.37 0.27,-0.54 0.5,-1.14 0.62,-1.75 1.2,0.04 4.75,0.18 5.58,-0.16 0.47,-1.2 -0.01,-3.39 -0.44,-4.58 -0.88,-2.44 -2.6,-4.42 -4.94,-5.7 -1.38,-0.75 -2.53,-0.97 -4.23,-1.22l-0.04 -31.38 22.29 -0.04c0.23,5.04 0.02,10.59 0.02,15.69 0,2.13 0.15,14.8 -0.07,15.76 -1.6,0.11 -2.89,0.53 -4.15,1.18 -1.39,0.73 -2.01,1.32 -3.06,2.39 -1.27,1.3 -3.25,5.4 -2.38,7.97 1.22,0.26 3.55,0.06 4.98,0.12 0.23,0.35 0.31,0.89 0.51,1.32 0.25,0.54 0.51,0.79 0.66,1.27 0.5,0.17 2.31,2.67 5.49,1.52 1.8,-0.65 2.97,-2.04 3.43,-4.12 1.07,0.04 4.55,0.13 5.42,-0.07 0.59,-0.71 0.36,-2.24 0.12,-3.33 -0.18,-0.86 -0.93,-2.42 -0.96,-2.82l-1.54 -2c-0.42,-0.52 -1.16,-1.15 -1.84,-1.62 -2.38,-1.62 -3.32,-1.3 -5.18,-1.85 -0.23,-0.57 -0.18,-28.4 -0.08,-31.38l21.97 -0.02 0 31.47c-1.43,0.42 -2.19,0.32 -3.65,0.97 -1.29,0.58 -1.97,1.19 -2.94,1.85 -0.03,0.31 -0.58,0.67 -1.24,1.56 -1.36,1.82 -2.72,6.07 -1.83,7.09 0.69,0.57 4.01,0.26 5.09,0.25 0.79,5.66 9.03,5.86 9.95,0.02 5.33,-0.22 6.09,1.01 5.75,-2.29 -0.08,-0.8 -0.27,-1.58 -0.5,-2.29 -0.4,-1.23 -1.36,-2.81 -1.97,-3.47 -1.91,-2.07 -4.25,-3.41 -7.32,-3.61l0 -31.55c3.44,0.08 7.4,0.13 10.83,0.01 1.57,-0.06 2.75,-0.96 3.26,-2.06 0.45,-0.96 0.49,-4.01 0.21,-5.01 -1.02,-0.42 -35.59,-0.19 -39.77,-0.19l-29.91 0c-1.81,0 -8.74,-0.2 -9.9,0.15 -0.35,1.26 -0.25,4.37 0.42,5.42 0.99,1.52 2.14,1.7 4.42,1.69 4.03,-0 8.12,0.07 12.14,-0.01l0 31.25c-0.27,0.35 -0.51,0.24 -1.05,0.32 -3.7,0.54 -6.95,3.28 -8.2,6.84 -0.46,1.31 -0.86,3.29 -0.41,4.58 1.07,0.31 3.68,0.06 5.05,0.15 0.34,1.19 0.47,1.49 1.07,2.39 1.28,1.92 4.45,2.72 6.81,1.01 0.37,-0.27 0.17,-0.21 0.57,-0.31z"/>
 </g>
</svg>
