<?xml version="1.0" encoding="UTF-8"?>
<!DOCTYPE svg PUBLIC "-//W3C//DTD SVG 1.1//EN" "http://www.w3.org/Graphics/SVG/1.1/DTD/svg11.dtd">
<!-- Creator: CorelDRAW 2021 (64-Bit) -->
<svg xmlns="http://www.w3.org/2000/svg" xml:space="preserve" width="0.354831in" height="0.354327in" version="1.1" style="shape-rendering:geometricPrecision; text-rendering:geometricPrecision; image-rendering:optimizeQuality; fill-rule:evenodd; clip-rule:evenodd"
viewBox="0 0 357.68 357.17"
 xmlns:xlink="http://www.w3.org/1999/xlink"
 xmlns:xodm="http://www.corel.com/coreldraw/odm/2003">
 <defs>
  <style type="text/css">
   <![CDATA[
    .fil0 {fill:#00A0E3}
   ]]>
  </style>
 </defs>
 <g id="Layer_x0020_1">
  <metadata id="CorelCorpID_0Corel-Layer"/>
  <path class="fil0" d="M211.34 333.38l53.19 0c-1.55,6.66 -4.09,12.6 -11.2,12.6l-31.49 0c-6.2,0 -7.56,-5.85 -8.64,-8.16l-1.86 -4.44zm41.64 23.79l-25.54 0c-20.29,0 -21.14,-8.79 -26.13,-19.35 -0.93,-1.96 -1.36,-2.27 -1.86,-4.44 -8.92,0 -13.39,-3.35 -17.11,-8.78 -3.64,-5.31 -13.93,-50.15 -16.56,-59.02l-15.86 -60.42c-0.99,-3.85 -4.98,-17.2 -5.05,-20.14 -15.73,0 -26.59,-11.88 -26.59,-25.19 0,-14.06 13.58,-14.65 15.91,-16.28 2.6,-1.83 14.81,-16.08 17.58,-19.51l15.9 -20.49c5.57,-7.69 14.14,-24.04 15.89,-26.11 2.85,-3.36 7.68,-7.44 13.1,-7.89 0,-7.54 0.59,-12.93 6.09,-18.41l4.01 -2.99c0.06,-0.21 0.28,-0.19 0.4,-0.3 -8.63,0 -17.26,0 -25.89,0 -10.17,0 -15.28,-0.99 -22.64,2.55 -13.45,6.47 -15.95,15.74 -22.38,28.71 -12.74,25.7 -34.88,36.62 -64.85,36.62 -1.87,8.02 -12.1,14.7 -23.79,14.7 0,20.95 1.44,34.48 -12.75,50.94 -1.13,1.31 -1.54,2.19 -2.93,3.37 -4.49,3.76 -9.6,8.91 -16.85,9.68 -6.65,0.71 -15.05,-5.1 -15.05,-10.8l0 -113.37c0,-4.29 8.67,-5.5 9.75,0.75l0.04 101.43c-0.01,5.14 -0.92,11.2 4.2,11.2 6,0 22.39,-16.32 22.39,-33.59l0 -108.47c0,-8.29 -10.91,-6.3 -19.59,-6.3 -9.7,0 -6.18,13.62 -7.16,17.33 -1.45,5.48 -9.63,4.4 -9.63,0.17l0 -15.2c0.5,-3.22 1.89,-5.82 5.31,-8.88l0.76 -0.64c6.44,-5.13 13.6,-3.97 22.62,-3.97 10.7,0 18.89,8.58 18.89,17.49l0 25.19c7.67,0 11.06,0.42 17.04,5.36 3.04,2.52 6.51,6.69 7.46,10.74 34.29,0 33.76,-21.09 43.52,-36.26 24.88,-38.66 57.18,-32.32 99.25,-32.32 1.01,-4.32 1.28,-5.91 4.25,-9.05 6.54,-6.92 15.41,-4.94 27.95,-4.94 15.64,0 15.27,21.55 17.1,33.99 2.69,18.23 0.88,9.14 8.99,16.91 4.78,4.58 6.81,9.32 6.81,18.39 12.96,3.02 14.58,11.52 20.51,21.47l8.28 12.72c2.98,4.06 5.42,7.64 8.59,11.7l24.38 28.11c2.01,1.34 5.4,1.39 7.89,2.6 14.66,7.16 7.87,31.56 -8.14,37.39 -8.16,2.96 -9.2,-0.93 -10.66,4.04l-8.78 33.91c-8.31,28 -15.53,62.44 -23.79,90.27 -2.7,9.1 -3.61,18.92 -17.19,21.3 -6.33,1.11 -3.61,0.04 -8.54,10.35 -4.68,9.79 -10.7,12.9 -19.49,13.75zm-96.92 -172.15l37.09 0c0,4.74 10.78,63.99 11.6,68.88 1.97,11.9 4.03,22.78 6,34.59 0.95,5.73 1.97,11.1 3,17.3 0.54,3.27 2.37,15.36 3.2,17.1 -7.19,0 -18.02,1.43 -22.83,-1.66 -4.39,-2.83 -5.4,-11.41 -7.11,-18.08 -3.42,-13.32 -6.95,-25.79 -10.36,-39.33l-15.54 -58.64c-1.59,-6.42 -4.23,-13.85 -5.04,-20.16zm118.97 137.86l-15.39 0c0.3,-13.61 9.63,-30.79 -1.4,-30.79 -6.75,0 -6.56,11.25 -8.29,21.8 -0.51,3.1 -1.44,6.05 -1.5,9l-20.99 0c0,-4.76 -4.54,-27.94 -5.6,-34.29 -1.86,-11.18 -17.49,-96.9 -17.49,-103.57l67.88 0 -15.33 88.3c-1.81,10.37 6.7,10.1 9.35,6.5 1.23,-1.68 1.35,-3.91 1.69,-6.02l10.99 -63.19c1.58,-8.75 2.6,-17.44 4.49,-25.6l37.09 0 -33.59 126.67c-1.81,7.4 -2.58,11.2 -11.9,11.2zm55.99 -148.36l-185.46 0c-9.82,0 -18.12,-6.5 -15.39,-18.2 1.57,-0.37 1.61,-0.7 3.5,-0.7l209.95 0c6.93,0 3.02,18.89 -12.6,18.89zm-130.17 -94.48l74.88 0c8.61,0 10.68,8.57 14.22,14.47 1.99,3.32 3.67,5.83 5.6,9.1 4.39,7.46 15.8,22.07 21.63,28.76l6.74 7.96c1.37,1.69 2.4,2.3 3.6,4.1l-178.46 0c0.89,-3.32 4.37,-5.19 6.3,-7.7 12.38,-16.07 23.04,-27.12 33.36,-46.42 2.2,-4.12 4.02,-10.27 12.12,-10.27zm-153.26 39.89l0 -42.69c8.33,0 14.7,5.43 14.7,11.2 0,13.85 2.08,21.87 -4.35,27.85 -2.64,2.46 -5.88,3.27 -10.35,3.64zm170.05 -63.68l40.59 0c5.41,0 10.5,4.06 10.5,9.1l0 3.5 -61.58 0c0,-7.54 3.08,-12.6 10.5,-12.6zm14 -45.49c22.83,0 16.86,-3.24 21.7,25.2 0.45,2.67 1.34,7.08 1.4,9.79l-32.9 0 3.87 -29.72c0.69,-3.48 2.11,-5.27 5.93,-5.27zm-19.59 25.89l-42.69 0c-10.57,0 -21.35,6.25 -26.78,11.71 -1.64,1.65 -3.46,3.24 -4.83,4.96 -1.35,1.7 -2.73,3.96 -3.95,5.85 -5.5,8.51 -7.67,22.7 -23.5,34.58 -12.93,9.71 -21.51,10.78 -36.81,10.78l0 -11.2c17.51,0 27.55,-3.4 38.9,-17.79 4.28,-5.42 5.86,-10.08 8.7,-16.49 7.37,-16.64 22.82,-29.82 42.46,-33.12 10.59,-1.78 36.85,-0.48 49.9,-0.48 -0.75,3.24 -1.4,7.21 -1.4,11.2z"/>
 </g>
</svg>
