<?xml version="1.0" encoding="UTF-8"?>
<!DOCTYPE svg PUBLIC "-//W3C//DTD SVG 1.1//EN" "http://www.w3.org/Graphics/SVG/1.1/DTD/svg11.dtd">
<!-- Creator: CorelDRAW 2021 (64-Bit) -->
<svg xmlns="http://www.w3.org/2000/svg" xml:space="preserve" width="0.320638in" height="0.354331in" version="1.1" style="shape-rendering:geometricPrecision; text-rendering:geometricPrecision; image-rendering:optimizeQuality; fill-rule:evenodd; clip-rule:evenodd"
viewBox="0 0 7.09 7.84"
 xmlns:xlink="http://www.w3.org/1999/xlink"
 xmlns:xodm="http://www.corel.com/coreldraw/odm/2003">
 <defs>
  <style type="text/css">
   <![CDATA[
    .fil0 {fill:#00A0E3}
   ]]>
  </style>
 </defs>
 <g id="Layer_x0020_1">
  <metadata id="CorelCorpID_0Corel-Layer"/>
  <path class="fil0" d="M1.07 7.34c0,-0.24 0.17,-0.37 0.42,-0.37l2.76 0c0.4,0 0.42,0.24 0.42,0.48l-3.59 0 0 -0.11zm-0.44 -2.89c-0.33,0 -0.31,-0.48 0,-0.48 0.31,0 0.32,0.48 0,0.48zm5.1 -1.14c-0.23,0 -0.25,-0.01 -0.44,-0.11 0.04,-0.06 0.82,-0.87 0.92,-0.9 0.32,0.61 -0.18,1.01 -0.48,1.01zm-1.36 0.22c-0.02,-0.09 -0.1,-0.22 -0.13,-0.31 -0.19,-0.52 -0.02,-1.24 0.39,-1.64 0.23,-0.23 0.68,-0.45 1.01,-0.45 0.38,0 0.57,0.01 0.92,0.2 -0.03,0.1 -0.43,0.47 -0.53,0.56 -0.21,0.21 -1.55,1.58 -1.66,1.65zm-1.03 -2.63c0,-0.2 0.04,-0.34 0.23,-0.45 0.15,-0.08 0.32,-0.06 0.45,0.02 0.04,0.02 0.59,0.55 0.61,0.58 -0.05,0.06 -0.37,0.24 -0.59,0.66 -0.15,-0.1 -0.26,-0.23 -0.39,-0.36 -0.12,-0.12 -0.31,-0.24 -0.31,-0.45zm-0.18 0.55l-2.22 2.21c-0.98,-0.43 -1.33,0.99 -0.46,1.18 0.13,0.03 0.18,0 0.28,0.01 0.04,0 0.13,0.16 0.15,0.21 0.13,0.21 0.91,1.43 0.93,1.52 -0.39,0 -0.57,-0.03 -0.84,0.12 -0.37,0.21 -0.34,0.6 -0.34,0.95 0,0.09 0.07,0.2 0.15,0.2l4.05 0c0.32,0 0.18,-0.67 0.13,-0.79 -0.13,-0.37 -0.45,-0.48 -0.88,-0.48 -0.6,0 -1.2,0 -1.8,0 -0.39,-0.58 -0.84,-1.39 -1.23,-1.97 0.2,-0.14 0.15,-0.44 0.11,-0.64l2.24 -2.25 0.41 0.39c-0.14,0.3 -0.11,0.8 -0.03,1.12 0.05,0.19 0.11,0.31 0.19,0.47 0.04,0.08 0.08,0.13 0.13,0.2 0.22,0.33 0.36,0.01 0.77,-0.34 0.04,-0.03 0.04,-0.04 0.08,-0.07 0.36,0.19 0.29,0.22 0.74,0.22 0.26,0 0.55,-0.17 0.67,-0.31 0.4,-0.44 0.36,-0.93 0.05,-1.4 0.05,-0.03 0.61,-0.55 0.61,-0.68 0,-0.19 -0.25,-0.3 -0.5,-0.42 -0.35,-0.17 -0.61,-0.17 -0.99,-0.17 -0.24,0 -0.4,0.09 -0.59,0.13 -0.16,-0.11 -0.35,-0.37 -0.52,-0.51 -0.19,-0.15 -0.33,-0.35 -0.7,-0.35 -0.18,0 -0.36,0.08 -0.48,0.16 -0.34,0.22 -0.47,0.69 -0.27,1.09 0.04,0.08 0.08,0.13 0.13,0.2z"/>
 </g>
</svg>
