<?xml version="1.0" encoding="UTF-8"?>
<!DOCTYPE svg PUBLIC "-//W3C//DTD SVG 1.1//EN" "http://www.w3.org/Graphics/SVG/1.1/DTD/svg11.dtd">
<!-- Creator: CorelDRAW 2021 (64-Bit) -->
<svg xmlns="http://www.w3.org/2000/svg" xml:space="preserve" width="0.272087in" height="0.354331in" version="1.1" style="shape-rendering:geometricPrecision; text-rendering:geometricPrecision; image-rendering:optimizeQuality; fill-rule:evenodd; clip-rule:evenodd"
viewBox="0 0 5.75 7.49"
 xmlns:xlink="http://www.w3.org/1999/xlink"
 xmlns:xodm="http://www.corel.com/coreldraw/odm/2003">
 <defs>
  <style type="text/css">
   <![CDATA[
    .fil0 {fill:#00A0E3}
   ]]>
  </style>
 </defs>
 <g id="Layer_x0020_1">
  <metadata id="CorelCorpID_0Corel-Layer"/>
  <g id="_1771746309984">
   <path class="fil0" d="M-0 2.18l5.75 0c-0.04,-0.65 -0.04,-1.65 -0.3,-2.18l-5.15 0.01 -0.31 2.18z"/>
   <path class="fil0" d="M2.07 2.35l0.54 2.57 0.49 -0.01 0.6 -2.55c-0.3,0.01 -0.22,-0.06 -0.33,0.32l-0.38 1.57 -0.12 -1.91c-0.21,0.28 -0.1,1.3 -0.12,1.91l-0.38 -1.56c-0.1,-0.33 -0.03,-0.24 -0.3,-0.34z"/>
   <polygon class="fil0" points="1.52,7.49 4.25,7.49 4.23,6.94 1.51,6.89 "/>
   <path class="fil0" d="M2.74 6.42c0.07,0.37 0.04,0.19 0.14,0.29 0.1,-0.11 0.07,0.05 0.14,-0.29 0.03,0.4 0.04,0.18 0.27,0.3 -0.06,-0.3 -0.08,-0.71 -0.24,-0.96l-0.34 0c-0.17,0.25 -0.18,0.59 -0.25,0.96 0.28,-0.12 0.23,0.1 0.28,-0.3z"/>
   <polygon class="fil0" points="2.63,5.6 3.13,5.6 3.14,5.07 2.61,5.07 "/>
  </g>
 </g>
</svg>
