<?xml version="1.0" encoding="UTF-8"?>
<!DOCTYPE svg PUBLIC "-//W3C//DTD SVG 1.1//EN" "http://www.w3.org/Graphics/SVG/1.1/DTD/svg11.dtd">
<!-- Creator: CorelDRAW 2021 (64-Bit) -->
<svg xmlns="http://www.w3.org/2000/svg" xml:space="preserve" width="0.213114in" height="0.354331in" version="1.1" style="shape-rendering:geometricPrecision; text-rendering:geometricPrecision; image-rendering:optimizeQuality; fill-rule:evenodd; clip-rule:evenodd"
viewBox="0 0 4.04 6.72"
 xmlns:xlink="http://www.w3.org/1999/xlink"
 xmlns:xodm="http://www.corel.com/coreldraw/odm/2003">
 <defs>
  <style type="text/css">
   <![CDATA[
    .fil0 {fill:#00A0E3}
   ]]>
  </style>
 </defs>
 <g id="Layer_x0020_1">
  <metadata id="CorelCorpID_0Corel-Layer"/>
  <g id="_1771893686960">
   <path class="fil0" d="M-0 2.76l4.04 -0c-0.16,-0.53 -0.94,-2.35 -1.19,-2.76l-1.69 0 -1.16 2.76z"/>
   <path class="fil0" d="M2.12 3.83c0.05,0.05 0.1,-0.04 0.19,0.44 0.07,0.37 0.05,0.71 -0.02,1.07l-0.18 0.45 0.01 -1.95zm-0.34 1.69c-0.15,-0.51 -0.14,-1.25 0.14,-1.72l-0 2 -0.14 -0.28zm0.73 -2.53c-0.15,-0.11 -0.24,-0.05 -0.29,-0.04l-0.44 -0c-0.02,-0 -0.1,0 -0.15,0.01l0.23 0.38c-0.18,0.6 -0.41,0.72 -0.36,1.54 0.05,0.91 0.41,1.13 0.09,1.5l0.85 -0.01c-0.21,-0.24 -0.15,-0.35 -0.04,-0.7 0.08,-0.25 0.13,-0.58 0.14,-0.85 0.02,-0.75 -0.17,-0.94 -0.38,-1.47l0.35 -0.34z"/>
   <path class="fil0" d="M2.11 5.78l0.18 -0.45c0.07,-0.36 0.08,-0.7 0.02,-1.07 -0.08,-0.47 -0.14,-0.38 -0.19,-0.44l-0.01 1.95z"/>
   <path class="fil0" d="M1.92 5.8l0 -2c-0.29,0.47 -0.29,1.21 -0.14,1.72l0.14 0.28z"/>
   <path class="fil0" d="M1.99 6.51c-0.93,-0 -0.64,-0.06 -0.74,0.13 0.21,0.11 1.33,0.12 1.55,0 -0.12,-0.22 -0.05,-0.12 -0.81,-0.13z"/>
  </g>
 </g>
</svg>
