<?xml version="1.0" encoding="UTF-8"?>
<!DOCTYPE svg PUBLIC "-//W3C//DTD SVG 1.1//EN" "http://www.w3.org/Graphics/SVG/1.1/DTD/svg11.dtd">
<!-- Creator: CorelDRAW 2021 (64-Bit) -->
<svg xmlns="http://www.w3.org/2000/svg" xml:space="preserve" width="0.411039in" height="0.321902in" version="1.1" style="shape-rendering:geometricPrecision; text-rendering:geometricPrecision; image-rendering:optimizeQuality; fill-rule:evenodd; clip-rule:evenodd"
viewBox="0 0 11.59 9.07"
 xmlns:xlink="http://www.w3.org/1999/xlink"
 xmlns:xodm="http://www.corel.com/coreldraw/odm/2003">
 <defs>
  <style type="text/css">
   <![CDATA[
    .str0 {stroke:#00A0E3;stroke-width:0.2;stroke-miterlimit:22.9256}
    .fil0 {fill:#00A0E3}
   ]]>
  </style>
 </defs>
 <g id="Layer_x0020_1">
  <metadata id="CorelCorpID_0Corel-Layer"/>
  <g id="_1771789175824">
   <path class="fil0 str0" d="M5.16 8.52c0.19,-0.37 0.3,-0.39 0.46,-0.95l0.34 0.01c0.08,0.17 0.12,0.34 0.21,0.5 0.1,0.18 0.17,0.27 0.26,0.44l-1.27 -0zm5.88 -1.38l-10.47 -0.01 -0.09 0.18 -0.26 0.02c0,-1.19 0,-2.38 0,-3.57l0 -2.92c-0.08,-1.44 -0.1,2.85 -0.1,3.11l0 2.8c0,0.3 -0.08,0.66 0.14,0.8 0.14,0.07 4.39,-0.05 4.9,0.03 -0.36,1.06 -0.81,0.95 -1.42,0.95l-0.01 0.45 4.15 -0 -0 -0.45c-0.48,0 -0.72,0.07 -1,-0.19 -0.16,-0.15 -0.35,-0.48 -0.43,-0.77l4.71 0c0.45,-0 0.33,-0.32 0.33,-1.24l-0 -6.04c-0.04,-0.16 0.01,-0.07 -0.12,-0.13 -0.04,0.04 -0.02,0.02 -0.05,0.06l-0.1 0.16c-0.02,0.09 0.12,-0.09 -0.01,0.04l-0.09 0.06c-0.01,-0.01 -0.02,0.02 -0.03,0.02 0.11,0.28 0.04,2.8 0.04,3.33 0,0.21 0.04,3.05 -0.03,3.25l-0.04 0.07z"/>
   <path class="fil0 str0" d="M1.26 1.64l0.02 -0.17 8.94 0 0.02 4.82 -0.19 0 -8.79 -0 0 -4.65zm-0.1 4.96c1.33,-0 8.66,0.05 9.36,-0.02 0.1,-0.6 0.03,-4.27 0.03,-5.16 0,-0.19 -0.04,-0.25 -0.24,-0.25l-9.04 0c-0.44,0 -0.32,0.03 -0.32,1.19l0 3.67c-0,0.26 -0.08,0.57 0.21,0.57z"/>
   <path class="fil0 str0" d="M0.21 0.84l-0 2.92c0,1.19 0,2.38 0,3.57l0.26 -0.02 0.09 -0.18 -0.01 -6.58 10.48 0 0 6.6 0.04 -0.07c0.07,-0.2 0.03,-3.04 0.03,-3.25 0,-0.53 0.07,-3.05 -0.04,-3.33 0.01,-0.01 0.03,-0.03 0.03,-0.02l0.09 -0.06c0.13,-0.13 -0.01,0.05 0.01,-0.04l0.1 -0.16c0.03,-0.04 0.02,-0.02 0.05,-0.06 -0.12,-0.09 -8.94,-0.03 -10.65,-0.04 -0.81,-0 -0.36,0.38 -0.49,0.73z"/>
   <polygon class="fil0 str0" points="5.64,6.92 5.97,6.95 5.97,6.63 5.92,6.63 5.64,6.64 "/>
  </g>
 </g>
</svg>
