<?xml version="1.0" encoding="UTF-8"?>
<!DOCTYPE svg PUBLIC "-//W3C//DTD SVG 1.1//EN" "http://www.w3.org/Graphics/SVG/1.1/DTD/svg11.dtd">
<!-- Creator: CorelDRAW 2021 (64-Bit) -->
<svg xmlns="http://www.w3.org/2000/svg" xml:space="preserve" width="0.434433in" height="0.322835in" version="1.1" style="shape-rendering:geometricPrecision; text-rendering:geometricPrecision; image-rendering:optimizeQuality; fill-rule:evenodd; clip-rule:evenodd"
viewBox="0 0 14.48 10.76"
 xmlns:xlink="http://www.w3.org/1999/xlink"
 xmlns:xodm="http://www.corel.com/coreldraw/odm/2003">
 <defs>
  <style type="text/css">
   <![CDATA[
    .str0 {stroke:#00A0E3;stroke-width:0.26;stroke-miterlimit:22.9256}
    .fil0 {fill:#00A0E3}
   ]]>
  </style>
 </defs>
 <g id="Layer_x0020_1">
  <metadata id="CorelCorpID_0Corel-Layer"/>
  <path class="fil0 str0" d="M0.74 0.13l13 0c0.34,0 0.61,0.28 0.61,0.61l0 7.79c0,0.34 -0.28,0.61 -0.61,0.61l-6.07 0 0 0.91 3.31 0 0 0.58 -7.49 0 0 -0.58 3.31 0 0 -0.91 -6.07 0c-0.34,0 -0.61,-0.28 -0.61,-0.61l0 -7.79c0,-0.34 0.28,-0.61 0.61,-0.61zm6.93 8.5c0,-0.24 -0.19,-0.43 -0.43,-0.43 -0.24,0 -0.43,0.19 -0.43,0.43 0,0.24 0.19,0.43 0.43,0.43 0.24,0 0.43,-0.19 0.43,-0.43zm-6.42 -7.36l11.98 0 0 6.78 -11.98 0 0 -6.78z"/>
 </g>
</svg>
