<?xml version="1.0" encoding="UTF-8"?>
<!DOCTYPE svg PUBLIC "-//W3C//DTD SVG 1.1//EN" "http://www.w3.org/Graphics/SVG/1.1/DTD/svg11.dtd">
<!-- Creator: CorelDRAW 2021 (64-Bit) -->
<svg xmlns="http://www.w3.org/2000/svg" xml:space="preserve" width="0.200394in" height="0.357331in" version="1.1" style="shape-rendering:geometricPrecision; text-rendering:geometricPrecision; image-rendering:optimizeQuality; fill-rule:evenodd; clip-rule:evenodd"
viewBox="0 0 3.58 6.38"
 xmlns:xlink="http://www.w3.org/1999/xlink"
 xmlns:xodm="http://www.corel.com/coreldraw/odm/2003">
 <defs>
  <style type="text/css">
   <![CDATA[
    .str0 {stroke:#00A0E3;stroke-width:0.05;stroke-miterlimit:22.9256}
    .fil0 {fill:#00A0E3}
   ]]>
  </style>
 </defs>
 <g id="Layer_x0020_1">
  <metadata id="CorelCorpID_0Corel-Layer"/>
  <g id="_1772059529008">
   <path class="fil0 str0" d="M0.13 6.08l3.32 0c-0.01,0.1 -0.11,0.17 -0.22,0.17l-2.87 0c-0.11,0 -0.21,-0.07 -0.22,-0.17zm-0 -3.79l3.33 -0 0 3.69 -3.33 0 0 -3.69zm3.33 -0.75l0 0.65 -0.65 -0 -2.68 -0c0,-0.57 0,-1.14 0,-1.7 0,-0.06 -0.01,-0.15 0.01,-0.2 0.06,-0.2 0.31,-0.15 0.49,-0.15l2.54 0c0.07,0 0.13,-0 0.18,0.03 0.04,0.02 0.08,0.07 0.09,0.12 0.02,0.06 0.01,0.72 0.01,0.84 0,0.13 0.01,0.28 -0,0.41zm-3.16 -1.5c-0.09,0.01 -0.15,0.06 -0.19,0.11 -0.05,0.07 -0.07,0.13 -0.07,0.24l0 5.53c0,0.11 -0.01,0.18 0.04,0.27 0.03,0.06 0.09,0.11 0.17,0.14 0.09,0.03 0.48,0.02 0.6,0.02 0.72,0 1.44,0 2.16,0 0.08,0 0.23,0.01 0.3,-0.01 0.09,-0.02 0.15,-0.06 0.19,-0.11 0.05,-0.06 0.07,-0.14 0.07,-0.24 -0.01,-1.84 0,-3.69 0,-5.53 0,-0.1 0.01,-0.19 -0.04,-0.27 -0.04,-0.06 -0.09,-0.11 -0.17,-0.14 -0.1,-0.03 -0.47,-0.02 -0.6,-0.02 -0.72,0 -1.44,0 -2.16,0 -0.08,0 -0.23,-0.01 -0.3,0z"/>
   <path class="fil0 str0" d="M0.35 3.09l0 -0.05c0,-0.15 -0,-0.33 0,-0.49 0,-0.13 0.15,-0.13 0.15,0l-0 0.48 0 0.06 -0 0.19 0 0.06c-0,0.13 0.03,0.3 -0.08,0.29 -0.04,-0 -0.06,-0.03 -0.07,-0.06 -0.01,-0.04 0,-0.41 -0,-0.49zm0.25 0.19l0 -0.19c0,-0.13 0,-0.27 0,-0.4 0,-0.15 0.02,-0.25 -0.09,-0.31 -0.12,-0.06 -0.23,0.02 -0.25,0.12 -0.01,0.05 -0,0.9 -0,1.01 -0,0.08 0,0.12 0.04,0.16 0.05,0.07 0.2,0.09 0.27,-0.02 0.05,-0.07 0.03,-0.28 0.03,-0.38z"/>
   <path class="fil0 str0" d="M0.35 1.74c-0,-0.05 -0.01,-0.48 0.01,-0.51 0.02,-0.04 0.07,-0.06 0.11,-0.02 0.04,0.03 0.03,0.1 0.03,0.15l-0 0.52c-0,0.05 0.01,0.08 -0.02,0.11 -0.03,0.02 -0.08,0.02 -0.1,0 -0.04,-0.04 -0.02,-0.18 -0.02,-0.25zm0.04 -0.65c-0.1,0.02 -0.14,0.09 -0.14,0.2 0,0.1 -0.01,0.63 0,0.68 0.04,0.18 0.34,0.2 0.34,-0.07 0,-0.1 0.01,-0.63 -0,-0.68 -0.02,-0.08 -0.1,-0.15 -0.2,-0.13z"/>
  </g>
 </g>
</svg>
