<?xml version="1.0" encoding="UTF-8"?>
<!DOCTYPE svg PUBLIC "-//W3C//DTD SVG 1.1//EN" "http://www.w3.org/Graphics/SVG/1.1/DTD/svg11.dtd">
<!-- Creator: CorelDRAW 2021 (64-Bit) -->
<svg xmlns="http://www.w3.org/2000/svg" xml:space="preserve" width="0.294339in" height="0.357327in" version="1.1" style="shape-rendering:geometricPrecision; text-rendering:geometricPrecision; image-rendering:optimizeQuality; fill-rule:evenodd; clip-rule:evenodd"
viewBox="0 0 8.89 10.8"
 xmlns:xlink="http://www.w3.org/1999/xlink"
 xmlns:xodm="http://www.corel.com/coreldraw/odm/2003">
 <defs>
  <style type="text/css">
   <![CDATA[
    .str0 {stroke:#00A0E3;stroke-width:0.09;stroke-miterlimit:22.9256}
    .fil0 {fill:#00A0E3}
   ]]>
  </style>
 </defs>
 <g id="Layer_x0020_1">
  <metadata id="CorelCorpID_0Corel-Layer"/>
  <g id="_1807853474224">
   <path class="fil0 str0" d="M8.58 2.23c-0.02,0.24 -0,0.54 -0,0.78l0 5.42c0,0.52 0.02,1.04 -0,1.55 -0.01,0.23 -0.15,0.38 -0.31,0.45 -0.16,0.07 -0.53,0.04 -0.73,0.04l-6.21 0c-0.21,0 -0.56,0.03 -0.73,-0.05 -0.16,-0.08 -0.28,-0.23 -0.29,-0.47 -0.01,-0.51 0,-1.03 0,-1.54l0 -4.65c0,-0.49 0.02,-1.05 -0,-1.54l8.26 0.01zm-8.26 -0.28c0.03,-0.69 -0.21,-1.61 0.52,-1.63 0.24,-0.01 0.48,-0 0.72,-0 1.92,0 3.85,0 5.77,0 0.24,0 0.48,-0.01 0.72,0 0.24,0.01 0.37,0.12 0.46,0.26 0.12,0.2 0.06,1.07 0.07,1.37 -0.16,0.04 -0.83,0.01 -1.04,0.01 -1.72,0 -3.44,0 -5.16,0 -0.28,0 -1.93,0.02 -2.06,-0.01zm0.38 -1.88c-0.32,0.06 -0.55,0.29 -0.62,0.59 -0.05,0.23 -0.02,0.92 -0.02,1.2l0 7.31c0,0.63 -0.16,1.58 0.85,1.58 0.45,-0 7.1,0.02 7.3,-0.01 0.31,-0.05 0.55,-0.29 0.62,-0.59 0.05,-0.2 0.02,-3.48 0.02,-3.63 0,-1.62 0,-3.25 0,-4.87 0,-0.62 0.17,-1.58 -0.85,-1.58l-6.09 0c-0.31,0 -0.93,-0.03 -1.2,0.01z"/>
   <path class="fil0 str0" d="M2.42 6.65c0.19,1.5 2.03,2.31 3.27,1.33 0.28,-0.22 0.61,-0.59 0.73,-1.09 -0.34,-0.09 -0.58,-0.3 -0.93,-0.34 -0.49,-0.05 -0.65,0.06 -1.01,0.23 -0.34,0.15 -0.67,0.2 -1.09,0.17 -0.19,-0.01 -0.35,-0.05 -0.52,-0.11 -0.15,-0.05 -0.32,-0.16 -0.45,-0.2z"/>
   <path class="fil0 str0" d="M2.47 5.8l0.44 0.19c1.18,0.56 1.27,-0.34 2.59,-0.24 0.19,0.02 0.35,0.05 0.52,0.11 0.16,0.06 0.3,0.15 0.45,0.2 -0.08,-0.91 -0.94,-1.68 -1.87,-1.75 -1.08,-0.08 -1.91,0.66 -2.13,1.49z"/>
   <path class="fil0 str0" d="M1.92 7.36c0.02,-0.2 0.04,-0.01 -0.03,-0.26 -0.03,-0.09 -0.05,-0.17 -0.06,-0.27 -0.22,-1.25 0.45,-2.45 1.64,-2.94 0.72,-0.29 1.52,-0.23 2.18,0.1 0.54,0.27 1.03,0.77 1.28,1.4 0.14,0.36 0.21,0.73 0.18,1.15 -0.02,0.37 -0.08,0.5 -0.18,0.81 -0.06,0.21 -0.37,0.67 -0.52,0.81 -0.07,0.07 -0.1,0.1 -0.17,0.17 -0.03,0.04 -0.13,0.11 -0.18,0.14 -0.21,0.16 -0.39,0.26 -0.64,0.37 -0.88,0.35 -1.87,0.18 -2.6,-0.37 -0.23,-0.17 -0.49,-0.45 -0.64,-0.7 -0.02,-0.03 -0.04,-0.07 -0.06,-0.1 -0.11,-0.17 -0.04,-0.06 -0.12,-0.22 -0.04,-0.1 -0.01,-0.04 -0.09,-0.08zm-0.38 -0.72c0.12,1.51 1.51,2.78 3.18,2.63 1.53,-0.14 2.79,-1.49 2.64,-3.19 -0.04,-0.42 -0.17,-0.81 -0.34,-1.13 -0.09,-0.17 -0.19,-0.3 -0.3,-0.44l-0.17 -0.2c-0.11,-0.11 -0.26,-0.24 -0.39,-0.34 -0.53,-0.4 -1.31,-0.6 -1.99,-0.54 -0.9,0.09 -1.57,0.52 -2.09,1.2 -0.42,0.56 -0.6,1.28 -0.54,2z"/>
   <path class="fil0 str0" d="M2.47 5.8c0.22,-0.83 1.06,-1.57 2.13,-1.49 0.93,0.07 1.78,0.84 1.87,1.75 -0.15,-0.05 -0.29,-0.14 -0.45,-0.2 -0.17,-0.06 -0.33,-0.09 -0.52,-0.11 -1.32,-0.11 -1.41,0.79 -2.59,0.24l-0.44 -0.19zm-0.31 0.21c0.08,0.04 0.2,0.05 0.29,0.07 0.09,0.03 0.18,0.07 0.26,0.1 0.17,0.08 0.31,0.16 0.52,0.21 1.09,0.22 1.22,-0.56 2.44,-0.35 0.43,0.07 0.65,0.32 1.09,0.37 0.01,-0.32 -0.06,-0.67 -0.17,-0.93 -0.09,-0.22 -0.27,-0.53 -0.44,-0.68 -0.05,-0.04 -0.09,-0.09 -0.14,-0.14 -0.13,-0.13 -0.31,-0.26 -0.49,-0.35 -1.06,-0.55 -2.31,-0.21 -2.95,0.69 -0.18,0.26 -0.38,0.66 -0.41,1.01z"/>
   <path class="fil0 str0" d="M2.42 6.65c0.13,0.04 0.3,0.15 0.45,0.2 0.16,0.06 0.33,0.09 0.52,0.11 0.41,0.03 0.75,-0.02 1.09,-0.17 0.36,-0.16 0.52,-0.28 1.01,-0.23 0.35,0.04 0.59,0.25 0.93,0.34 -0.12,0.5 -0.45,0.87 -0.73,1.09 -1.24,0.98 -3.08,0.17 -3.27,-1.33zm-0.29 -0.35c0.02,0.53 0.09,0.87 0.37,1.31 0.06,0.09 0.19,0.26 0.25,0.32 0.1,0.09 0.17,0.18 0.28,0.26 1.15,0.85 2.67,0.55 3.41,-0.66 0.12,-0.2 0.27,-0.56 0.29,-0.84 -0.47,-0.04 -0.68,-0.29 -1.08,-0.37 -0.48,-0.09 -0.83,-0 -1.21,0.19 -0.33,0.17 -0.8,0.24 -1.22,0.16 -0.43,-0.08 -0.67,-0.33 -1.09,-0.37z"/>
   <path class="fil0 str0" d="M1.1 1.34c-0.01,-0.07 -0,-0.23 -0,-0.3 -0,-0.1 0,-0.18 0.09,-0.22 0.07,-0.03 1.05,-0.01 1.21,-0.01 0.19,0 0.45,-0.05 0.47,0.14 0.08,0.66 -0.13,0.52 -0.68,0.52 -0.2,0 -0.41,0 -0.61,0 -0.17,0 -0.45,0.05 -0.48,-0.13zm-0.26 0.03c0.04,0.29 0.27,0.36 0.52,0.36 0.29,-0 0.58,-0 0.87,-0 0.55,0 1.03,0.12 0.91,-0.83 -0.02,-0.13 -0.1,-0.23 -0.17,-0.28 -0.1,-0.08 -0.2,-0.08 -0.35,-0.08 -0.29,0 -0.58,0 -0.87,0 -0.25,0 -0.6,-0.06 -0.77,0.11 -0.07,0.07 -0.13,0.15 -0.14,0.29 -0.01,0.1 -0.01,0.34 0,0.43z"/>
   <path class="fil0 str0" d="M6.66 1.22c-0.12,0.33 -0.58,0.13 -0.46,-0.17 0.12,-0.3 0.57,-0.12 0.46,0.17zm-0.73 0c0.08,0.64 1.09,0.53 1.01,-0.14 -0.09,-0.65 -1.1,-0.55 -1.01,0.14z"/>
   <path class="fil0 str0" d="M5.24 0.91c0.3,-0.11 0.45,0.36 0.15,0.46 -0.3,0.1 -0.48,-0.34 -0.15,-0.46zm-0.43 0.29c0.05,0.63 1.08,0.57 1.01,-0.11 -0.06,-0.64 -1.07,-0.59 -1.01,0.11z"/>
   <path class="fil0 str0" d="M7.79 1.22c-0.12,0.32 -0.58,0.14 -0.46,-0.17 0.11,-0.29 0.57,-0.13 0.46,0.17zm-0.74 -0.02c0.03,0.26 0.26,0.47 0.55,0.45 0.66,-0.05 0.58,-1.09 -0.11,-1.01 -0.26,0.03 -0.47,0.27 -0.44,0.56z"/>
  </g>
 </g>
</svg>
