<?xml version="1.0" encoding="UTF-8"?>
<!DOCTYPE svg PUBLIC "-//W3C//DTD SVG 1.1//EN" "http://www.w3.org/Graphics/SVG/1.1/DTD/svg11.dtd">
<!-- Creator: CorelDRAW 2021 (64-Bit) -->
<svg xmlns="http://www.w3.org/2000/svg" xml:space="preserve" width="0.361276in" height="0.230457in" version="1.1" style="shape-rendering:geometricPrecision; text-rendering:geometricPrecision; image-rendering:optimizeQuality; fill-rule:evenodd; clip-rule:evenodd"
viewBox="0 0 15.85 10.11"
 xmlns:xlink="http://www.w3.org/1999/xlink"
 xmlns:xodm="http://www.corel.com/coreldraw/odm/2003">
 <defs>
  <style type="text/css">
   <![CDATA[
    .str0 {stroke:#00A0E3;stroke-width:0.3;stroke-miterlimit:22.9256}
    .fil0 {fill:none}
   ]]>
  </style>
 </defs>
 <g id="Layer_x0020_1">
  <metadata id="CorelCorpID_0Corel-Layer"/>
  <g id="_1771967851424">
   <path class="fil0 str0" d="M1.4 0.15l13.04 0c0.69,0 1.25,0.56 1.25,1.25l0 3.74c0,0.69 -0.56,1.25 -1.25,1.25l-13.04 0c-0.69,0 -1.25,-0.56 -1.25,-1.25l0 -3.74c0,-0.69 0.56,-1.25 1.25,-1.25z"/>
   <polygon class="fil0 str0" points="12.48,1.4 13.88,1.4 13.88,2.79 12.48,2.79 "/>
   <g>
    <polygon class="fil0 str0" points="0.92,4.11 14.94,4.11 14.94,4.63 0.92,4.63 "/>
    <polygon class="fil0 str0" points="0.92,5.22 14.94,5.22 14.94,4.63 0.92,4.63 "/>
   </g>
   <path class="fil0 str0" d="M7.62 7.21c0.26,0.3 0.53,0.6 0.52,0.84 -0,0.24 -0.28,0.42 -0.42,0.66 -0.14,0.24 -0.14,0.55 -0.03,0.77 0.11,0.22 0.32,0.35 0.43,0.42 0.11,0.07 0.11,0.07 0.11,0.07"/>
   <path class="fil0 str0" d="M11.79 7.21c0.26,0.3 0.53,0.6 0.52,0.84 -0.01,0.24 -0.28,0.42 -0.42,0.66 -0.14,0.24 -0.14,0.55 -0.03,0.77 0.11,0.22 0.32,0.35 0.43,0.42 0.11,0.07 0.11,0.07 0.11,0.07"/>
   <path class="fil0 str0" d="M3.44 7.21c0.26,0.3 0.53,0.6 0.52,0.84 -0.01,0.24 -0.28,0.42 -0.42,0.66 -0.14,0.24 -0.14,0.55 -0.03,0.77 0.11,0.22 0.32,0.35 0.43,0.42 0.11,0.07 0.11,0.07 0.11,0.07"/>
  </g>
 </g>
</svg>
