<?xml version="1.0" encoding="UTF-8"?>
<!DOCTYPE svg PUBLIC "-//W3C//DTD SVG 1.1//EN" "http://www.w3.org/Graphics/SVG/1.1/DTD/svg11.dtd">
<!-- Creator: CorelDRAW 2021 (64-Bit) -->
<svg xmlns="http://www.w3.org/2000/svg" xml:space="preserve" width="0.383858in" height="0.194433in" version="1.1" style="shape-rendering:geometricPrecision; text-rendering:geometricPrecision; image-rendering:optimizeQuality; fill-rule:evenodd; clip-rule:evenodd"
viewBox="0 0 22.06 11.17"
 xmlns:xlink="http://www.w3.org/1999/xlink"
 xmlns:xodm="http://www.corel.com/coreldraw/odm/2003">
 <defs>
  <style type="text/css">
   <![CDATA[
    .fil0 {fill:#00A0E3}
   ]]>
  </style>
 </defs>
 <g id="Layer_x0020_1">
  <metadata id="CorelCorpID_0Corel-Layer"/>
  <g id="_1807992290272">
   <path class="fil0" d="M4.06 7.59c-1.21,0 -1.86,0.19 -1.74,-0.5l17.42 0.02c0.12,0.68 -0.66,0.49 -1.82,0.48l-13.86 -0zm0 -0.95c-1.32,-0 -1.83,0.2 -1.75,-0.49l17.44 0.01c0.06,0.47 -0.19,0.49 -0.64,0.49l-15.05 -0.01zm-1.2 -0.91c-0.42,-0.01 -0.64,-0.02 -0.53,-0.49l17.41 0c0.11,0.53 -0.15,0.49 -0.62,0.48 -5.3,-0 -11.04,0.07 -16.25,0zm8.17 -4.04c0.84,0 1.72,-0.26 1.62,0.7 -0.45,0.35 -0.87,0.23 -1.62,0.23 -0.82,-0 -0.99,0.11 -1.63,-0.23 -0.04,-0.88 0.28,-0.71 1.63,-0.71zm-9 6.44l18.01 0.02c0.47,-2.64 0.07,-5.61 0.05,-8.02 -0.32,-0.12 -16.9,-0.19 -18.09,-0.05 -0.14,1.74 -0.39,6.53 0.03,8.06z"/>
   <path class="fil0" d="M20.29 8.14c2.08,0.08 1.74,0.16 1.75,-3.98 0,-4.64 0.26,-4.01 -1.74,-4.13 -0,1.35 0.18,2.72 0.18,4.13 -0,1.39 -0.18,2.68 -0.19,3.98z"/>
   <path class="fil0" d="M0.02 2.21l0 4.34c-0,1.58 0.04,1.72 1.75,1.59 -0.27,-4.87 -0.22,-3.27 -0.01,-8.1 -2.05,0.14 -1.74,0.01 -1.74,2.18z"/>
   <path class="fil0" d="M10.41 10.2c-0.2,0.13 -0.32,0.05 -0.48,0.17 0.28,0.22 0.84,0.68 1.1,0.8 0.43,-0.21 0.69,-0.5 1.1,-0.8 -0.14,-0.1 -0.3,-0.05 -0.48,-0.17l0.01 -1.33 -1.29 -0.02 0.03 1.35z"/>
   <path class="fil0" d="M3.21 10.22l-0.52 0.15c0.24,0.24 0.43,0.54 0.77,0.79 0.32,-0.06 1.11,-0.56 1.43,-0.79l-0.43 -0.17c0.12,-0.42 0.41,-0.98 0.42,-1.35l-1.17 0 -0.5 1.37z"/>
   <path class="fil0" d="M6.63 10.24c-0.08,0.02 -0.26,0.03 -0.28,0.04l-0.26 0.09c0.27,0.31 0.54,0.65 0.85,0.79 0.27,-0.09 1.14,-0.62 1.36,-0.79l-0.42 -0.17 0.47 -1.33 -1.24 -0.02 -0.49 1.38z"/>
   <path class="fil0" d="M17.6 10.2c-0.16,0.12 -0.29,0.05 -0.44,0.17 0.29,0.2 1.2,0.75 1.43,0.79 0.26,-0.2 0.54,-0.54 0.78,-0.79 -0.02,-0.01 -0.05,-0.05 -0.06,-0.03l-0.47 -0.12 -0.47 -1.36 -1.19 -0.02c0,0.32 0.3,1.12 0.43,1.36z"/>
   <path class="fil0" d="M13.79 10.46c0.51,0.18 0.85,0.52 1.32,0.71 0.18,-0.09 0.07,-0.02 0.22,-0.15l0.51 -0.71c-0.02,-0 -0.05,-0.02 -0.07,-0.02l-0.36 -0.05 -0.47 -1.39 -1.19 -0.01c0,0.43 0.39,1.02 0.34,1.25 -0.06,0.3 -0.2,0.15 -0.3,0.36z"/>
  </g>
 </g>
</svg>
