<?xml version="1.0" encoding="UTF-8"?>
<!DOCTYPE svg PUBLIC "-//W3C//DTD SVG 1.1//EN" "http://www.w3.org/Graphics/SVG/1.1/DTD/svg11.dtd">
<!-- Creator: CorelDRAW 2021 (64-Bit) -->
<svg xmlns="http://www.w3.org/2000/svg" xml:space="preserve" width="0.20722in" height="0.364736in" version="1.1" style="shape-rendering:geometricPrecision; text-rendering:geometricPrecision; image-rendering:optimizeQuality; fill-rule:evenodd; clip-rule:evenodd"
viewBox="0 0 8.71 15.33"
 xmlns:xlink="http://www.w3.org/1999/xlink"
 xmlns:xodm="http://www.corel.com/coreldraw/odm/2003">
 <defs>
  <style type="text/css">
   <![CDATA[
    .str0 {stroke:#00A0E3;stroke-width:0.44;stroke-miterlimit:22.9256}
    .str1 {stroke:black;stroke-width:0.29;stroke-miterlimit:22.9256}
    .fil0 {fill:#00A0E3}
    .fil2 {fill:#181818}
    .fil1 {fill:#191919}
    .fil3 {fill:#FDFDFD}
   ]]>
  </style>
 </defs>
 <g id="Layer_x0020_1">
  <metadata id="CorelCorpID_0Corel-Layer"/>
  <g id="_1772059551040">
   <path class="fil0 str0" d="M5.32 13.05l0.48 0.01c-0.01,0.37 0.16,1.52 -0.23,1.56 -0.41,0.04 -0.25,-1.26 -0.25,-1.56zm-2.41 0.01l0.48 -0.02c-0,0.31 0.16,1.6 -0.25,1.57 -0.39,-0.03 -0.22,-1.19 -0.23,-1.55zm-0.78 -12.3c0.44,-0.09 4.29,-0.07 4.65,0.05 1.47,0.49 1.18,1.95 1.18,3.6 0,1.6 0,3.19 0,4.79 0,1.18 0.31,3.03 -1.38,3.33 -0.46,0.08 -4.25,0.07 -4.64,-0.04 -0.55,-0.17 -1.02,-0.64 -1.15,-1.25 -0.1,-0.45 -0.04,-6.38 -0.04,-7.12 0,-1.35 -0.31,-3.01 1.39,-3.35zm0.29 12.29c-0.01,0.77 -0.23,2.05 0.7,2.07 0.98,0.02 0.76,-1.19 0.75,-2.06l0.95 0c-0.01,0.86 -0.22,2.02 0.7,2.06 0.99,0.04 0.77,-1.27 0.76,-2.06 0.81,-0.02 1.22,-0.33 1.61,-0.73 0.47,-0.48 0.56,-1.01 0.56,-1.84 -0,-1.6 0,-3.19 0,-4.79 0,-1.17 0.21,-3.58 -0.32,-4.42 -0.8,-1.26 -2,-1.04 -3.78,-1.04 -1.75,0 -2.94,-0.23 -3.75,1 -0.56,0.85 -0.34,3.27 -0.34,4.45 0,1.58 0,3.15 0,4.73 -0,0.8 0.07,1.39 0.53,1.87 0.39,0.41 0.81,0.73 1.64,0.76z"/>
   <path class="fil1 str1" d="M2.58 8.91l3.55 0 0 1.58 -3.56 0 0 -0.53 -0 -1.05zm3.93 -0.42c-0.24,-0.15 -2.92,-0.07 -3.44,-0.07 -0.96,-0 -0.99,-0.18 -0.99,0.78 0,0.5 -0.04,1.3 0.04,1.72 0.31,0.11 4.16,0.11 4.47,0 0.02,-0.13 0.08,-1.99 0.03,-2.24l-0.11 -0.19z"/>
   <path class="fil2 str1" d="M4.2 5.33c0.5,-0.11 0.94,0.25 1.03,0.66 0.13,0.57 -0.24,1.01 -0.65,1.1 -1.22,0.28 -1.61,-1.49 -0.38,-1.76zm-1.23 1.12c0.3,1.78 3.03,1.4 2.77,-0.45 -0.26,-1.79 -3.08,-1.45 -2.77,0.45z"/>
   <path class="fil2 str1" d="M5.2 9.58c0.02,0.23 -0,0.3 -0.21,0.21 -0.09,-0.2 -0,-0.23 0.21,-0.21zm-0.33 -0.47c-0.72,0.24 -0.4,1.52 0.45,1.17 0.71,-0.29 0.38,-1.45 -0.45,-1.17z"/>
   <path class="fil3 str1" d="M5.32 13.05c0,0.3 -0.16,1.6 0.25,1.56 0.39,-0.03 0.22,-1.19 0.23,-1.56l-0.48 -0.01z"/>
   <path class="fil3 str1" d="M2.91 13.07c0.01,0.36 -0.16,1.52 0.23,1.55 0.41,0.04 0.25,-1.26 0.25,-1.57l-0.48 0.02z"/>
   <path class="fil2 str1" d="M3.03 9.82c0.24,0.18 0.94,0.32 0.82,-0.31 -0.31,-0.1 -0.87,-0.2 -0.82,0.31z"/>
  </g>
 </g>
</svg>
