<?xml version="1.0" encoding="UTF-8"?>
<!DOCTYPE svg PUBLIC "-//W3C//DTD SVG 1.1//EN" "http://www.w3.org/Graphics/SVG/1.1/DTD/svg11.dtd">
<!-- Creator: CorelDRAW 2021 (64-Bit) -->
<svg xmlns="http://www.w3.org/2000/svg" xml:space="preserve" width="0.212831in" height="0.364803in" version="1.1" style="shape-rendering:geometricPrecision; text-rendering:geometricPrecision; image-rendering:optimizeQuality; fill-rule:evenodd; clip-rule:evenodd"
viewBox="0 0 13.48 23.11"
 xmlns:xlink="http://www.w3.org/1999/xlink"
 xmlns:xodm="http://www.corel.com/coreldraw/odm/2003">
 <defs>
  <style type="text/css">
   <![CDATA[
    .str0 {stroke:#00A0E3;stroke-width:0.66;stroke-miterlimit:22.9256}
    .fil0 {fill:#00A0E3}
   ]]>
  </style>
 </defs>
 <g id="Layer_x0020_1">
  <metadata id="CorelCorpID_0Corel-Layer"/>
  <g id="_1808002694384">
   <path class="fil0 str0" d="M2.12 15.97l7.37 0 0.88 5.95 -9.15 -0.02 0.9 -5.93zm10.16 -10.18c0.15,0.72 0.03,3.3 0.04,4.25 0,1.76 -0.58,2 -2.32,1.98l0.93 -6.21 1.36 -0.02zm-3.6 9.3l-5.76 0.01 -1.69 -11.38 9.15 -0c-0.08,0.91 -0.29,1.98 -0.42,2.89 -0.14,0.94 -0.28,1.86 -0.42,2.8 -0.2,1.35 -0.64,4.69 -0.86,5.68zm-7.43 -12.26c0.18,-0.83 1.03,-0.97 1.75,-0.96l5.59 0c0.66,-0 1.66,0.12 1.76,0.97l-9.1 -0.01zm-0.72 18c-0.22,2.4 -1.29,1.91 5.12,1.91 0.77,0 5.11,0.13 5.44,-0.08 0.36,-0.24 0.08,-1.12 -0.03,-1.9 -0.11,-0.69 -0.21,-1.38 -0.31,-2.06l-0.47 -3.12c-0.09,-0.49 -0.24,-0.46 -0.72,-0.49l0.43 -2.21c0.37,-0.1 0.75,0.03 1.31,-0.08 1.38,-0.27 1.85,-1.21 1.85,-2.7 -0,-1 0,-2.01 0,-3.01 0,-1 0.17,-2.01 -0.87,-2.15l-1.21 -0.02c-0.01,-0.26 -0.03,-0.12 0.06,-0.22 0.01,-0.73 0.29,-1.24 0.11,-1.96 -0.55,-2.18 -3.03,-1.7 -4.96,-1.7l0 -0.72 -0.88 0.01 -0.02 0.71c-1.68,-0 -3.65,-0.3 -4.5,0.76 -0.42,0.52 -0.61,1.08 -0.48,1.9 0.18,1.11 1.67,10.83 1.68,11.4l-0.58 0.07c-0.32,0.71 -0.69,4.93 -0.94,5.65z"/>
   <path class="fil0 str0" d="M5.37 17.61c0.88,-0.24 1.71,0.27 1.94,0.88 0.34,0.88 -0.36,1.6 -1.04,1.78 -2,0.52 -2.94,-2.1 -0.9,-2.65zm-1.69 1.75c0.57,2.42 4.77,1.83 4.27,-0.78 -0.47,-2.53 -4.9,-1.88 -4.27,0.78z"/>
  </g>
 </g>
</svg>
