<?xml version="1.0" encoding="UTF-8"?>
<!DOCTYPE svg PUBLIC "-//W3C//DTD SVG 1.1//EN" "http://www.w3.org/Graphics/SVG/1.1/DTD/svg11.dtd">
<!-- Creator: CorelDRAW 2021 (64-Bit) -->
<svg xmlns="http://www.w3.org/2000/svg" xml:space="preserve" width="0.398433in" height="0.354323in" version="1.1" style="shape-rendering:geometricPrecision; text-rendering:geometricPrecision; image-rendering:optimizeQuality; fill-rule:evenodd; clip-rule:evenodd"
viewBox="0 0 80.57 71.65"
 xmlns:xlink="http://www.w3.org/1999/xlink"
 xmlns:xodm="http://www.corel.com/coreldraw/odm/2003">
 <defs>
  <style type="text/css">
   <![CDATA[
    .fil0 {fill:#00A0E3}
   ]]>
  </style>
 </defs>
 <g id="Layer_x0020_1">
  <metadata id="CorelCorpID_0Corel-Layer"/>
  <g id="_1807851966992">
   <path class="fil0" d="M10.91 63.47c-0.35,-0.71 -0.36,0.89 -0.29,-0.85l11.95 0.01 -0.07 -2.43 -12.62 -0 0.01 -42.75 60.84 0.1 0.01 42.64 -13.7 0.02 0.14 2.58 12.65 0.04c-1.39,6.03 -5.82,5.13 -12.18,5.13l-34.45 0c-6.85,0 -9.82,1.17 -12.29,-4.48zm63.42 -49.69c2.36,-0.28 2.57,-0.15 2.59,2.18 0.03,5.14 0.97,11.39 -2.59,12.23l0 -10.04 -0.01 -4.37zm-68.04 14.47c-3.15,-1.2 -2.58,-3.76 -2.58,-7.28 0,-1.67 -0.04,-3.38 -0.03,-5.04 0.03,-2.25 0.46,-2.25 2.61,-2.24l0 14.56zm3.85 -14.62c-0.45,-4.29 4.21,-9.54 10.23,-9.87l40.4 0.04c4.93,0.43 9.76,4.76 9.81,9.83l-60.44 0zm-2.53 51.36c1.56,3.32 3.36,5.98 7.64,6.5 2.53,0.3 37.72,0.06 42.09,0.06 4.61,0 8.97,0.65 12.19,-1.74 2.51,-1.87 4.75,-6.54 4.81,-9.36 0.22,-9.31 -0.04,-18.89 -0.01,-28.24 2.53,-1.24 3.8,-1.16 5.26,-3.72 1.29,-2.26 0.93,-4.92 0.93,-7.84 0,-7.38 1.09,-10.53 -6.98,-10.58 -0.9,-3.83 -4.33,-7.03 -7.43,-8.53 -4.15,-2 -9.67,-1.41 -14.72,-1.41 -10.58,0 -21.75,-0.35 -32.26,0.04 -4.54,0.87 -7.95,2.67 -10.39,6.33 -0.68,1.03 -1.32,2.99 -2.14,3.57 -7.93,-0 -6.5,4.06 -6.5,11.2 0,2.99 -0.28,5.36 1.15,7.54 1.55,2.36 4.51,2.83 5.04,3.73l-0 25.37c-0.01,4.48 0.03,3.51 1.33,7.07z"/>
   <path class="fil0" d="M38.93 33.42c3.23,-0.76 5.78,1.02 7.03,2.69 1.78,2.38 1.36,5.68 1.36,8.98 0,17.51 1.38,15.59 -5.01,15.59 -11.32,-0.01 -8.92,2.11 -8.92,-11.83 0,-7.08 -1.4,-13.79 5.55,-15.43zm-9.12 27.02c0.32,1.66 1.96,3.3 3.5,3.68 1.42,0.35 5.13,0.16 6.8,0.16 12.55,0 10.81,-0.31 10.81,-16.99 0,-4.55 0.52,-8.8 -1.46,-12.47 -1.44,-2.67 -4.9,-5.18 -9.03,-5.22 -4.61,-0.05 -7.48,2.47 -9.04,4.91 -2.29,3.57 -1.69,7.48 -1.69,12.16 0,3.16 -0.39,11.17 0.11,13.78z"/>
   <polygon class="fil0" points="35.73,54.25 45.04,54.23 45.05,51.74 35.73,51.66 "/>
   <polygon class="fil0" points="42.7,42.5 42.93,40.07 37.53,40.07 37.58,42.5 "/>
   <path class="fil0" d="M10.91 63.47c0.62,-0.7 -0.85,-0.37 1.3,-0.57l9.43 0.06c1.61,-0.17 0.35,0.04 0.93,-0.32l-11.95 -0.01c-0.07,1.74 -0.07,0.14 0.29,0.85z"/>
   <path class="fil0" d="M42.7 42.5c0.72,-0.28 0.85,-0.48 0.39,-2.59 -1.07,-0.23 -4.54,-0.42 -5.56,0.17l5.4 -0.01 -0.23 2.43z"/>
  </g>
 </g>
</svg>
