<?xml version="1.0" encoding="UTF-8"?>
<!DOCTYPE svg PUBLIC "-//W3C//DTD SVG 1.1//EN" "http://www.w3.org/Graphics/SVG/1.1/DTD/svg11.dtd">
<!-- Creator: CorelDRAW 2021 (64-Bit) -->
<svg xmlns="http://www.w3.org/2000/svg" xml:space="preserve" width="0.361425in" height="0.317957in" version="1.1" style="shape-rendering:geometricPrecision; text-rendering:geometricPrecision; image-rendering:optimizeQuality; fill-rule:evenodd; clip-rule:evenodd"
viewBox="0 0 364.27 320.46"
 xmlns:xlink="http://www.w3.org/1999/xlink"
 xmlns:xodm="http://www.corel.com/coreldraw/odm/2003">
 <defs>
  <style type="text/css">
   <![CDATA[
    .str0 {stroke:#00A0E3;stroke-width:3.02;stroke-miterlimit:22.9256}
    .fil0 {fill:#00A0E3}
   ]]>
  </style>
 </defs>
 <g id="Layer_x0020_1">
  <metadata id="CorelCorpID_0Corel-Layer"/>
  <g id="_1771972461936">
   <path class="fil0 str0" d="M10.65 35.39l24.13 -0.19 -0.02 118.25 -24.07 -0.04 -0.04 -118.02zm32.73 -0.11c31.07,0.48 108.54,3.3 134.01,-3.06 28.97,-7.23 58.26,-37.23 107.21,-13.23 20.14,9.88 24.31,14.98 51.93,16.26 13.84,0.64 16.96,4.04 17.15,17.94l-0.08 69.08c0.01,9.42 2.93,24.16 -5.18,29.02 -4.98,2.98 -40.27,7.04 -54.98,14.19 -22.16,10.77 -17,24.94 -17,51.62 0,22.99 -0.09,45.99 0.02,68.98 0.06,12.33 2.15,22.55 -10.63,24.3 -6.13,0.84 -28.03,0.64 -34.66,0.16 -13.63,-0.99 -13.28,-7.48 -13.21,-20.95 0.13,-23.77 1.53,-88.06 -0.2,-103.59 -5.06,-45.46 -132.34,-32.41 -174.53,-32.49l0.16 -118.24zm-40.54 -7.07c-1.73,11.73 -1.88,123.59 0.24,132.59 24.54,6.73 140.64,-3.96 173.27,4.28 12.71,3.21 37.01,10.52 33.27,27.89 -1.25,5.78 -6.57,2.59 -12.3,5.17 -2.28,9.29 -1.4,20.08 -0.88,29.72l11.71 2.47c0.37,0.12 0.98,0.32 1.43,0.58 0.13,68.57 -8.65,88.31 28.57,88.04 53.28,-0.37 46.8,3.51 46.8,-72.53 0,-16.94 -1.54,-42.65 0.09,-58.53 1.47,-14.28 21.61,-19.71 35.55,-22.78 18.72,-4.11 36.12,-0.11 40.62,-17.95 2.25,-8.91 0.77,-47.39 0.77,-59.37 0,-14.87 3.63,-43.5 -4.66,-53.65 -8.67,-10.63 -30.01,-5.84 -46.89,-11.79 -14.75,-5.19 -22.51,-13.51 -40.63,-17.9 -45.95,-11.13 -67.3,12.6 -93.85,19.32 -32.76,8.29 -149.79,-2.26 -173.1,4.44z"/>
   <path class="fil0 str0" d="M296.83 105.03c-13.8,64.84 -113.44,44.96 -99.1,-21.54 13.78,-63.9 113.2,-44.75 99.1,21.54zm-62.77 -68.21c-76.81,18.37 -49.43,131.48 25.69,115.56 77.05,-16.32 50.54,-133.79 -25.69,-115.56z"/>
   <path class="fil0 str0" d="M267.15 118.73c7.2,-0.54 6.83,-0.68 7.08,-8.36 0.18,-5.41 -0.2,-11.85 -0.2,-17.42 -0.02,-23.35 3.1,-26.05 -6.56,-25.94 -3.81,7.11 -3.1,45.35 -0.32,51.72z"/>
   <path class="fil0 str0" d="M244.51 117.55c0.02,0 -0.86,3.65 4.69,0.32 3.31,-1.97 1.94,-1.53 2.33,-5.79l-0 -34.8c0.07,-9.14 1.45,-9.92 -6.47,-10.38 -2.97,4.98 -2.95,36.28 -1.96,45.03l1.42 5.61z"/>
   <path class="fil0 str0" d="M221.97 117.77c10.49,2.88 6.91,-12.4 6.89,-23.09 -0.04,-23.05 3.04,-26.86 -6.21,-27.96 -3.75,6.03 -2.25,16.57 -2.25,24.51 0,14.42 -1.1,20.51 1.58,26.54z"/>
  </g>
 </g>
</svg>
