<?xml version="1.0" encoding="UTF-8"?>
<!DOCTYPE svg PUBLIC "-//W3C//DTD SVG 1.1//EN" "http://www.w3.org/Graphics/SVG/1.1/DTD/svg11.dtd">
<!-- Creator: CorelDRAW 2021 (64-Bit) -->
<svg xmlns="http://www.w3.org/2000/svg" xml:space="preserve" width="0.390531in" height="0.354331in" version="1.1" style="shape-rendering:geometricPrecision; text-rendering:geometricPrecision; image-rendering:optimizeQuality; fill-rule:evenodd; clip-rule:evenodd"
viewBox="0 0 128.48 116.57"
 xmlns:xlink="http://www.w3.org/1999/xlink"
 xmlns:xodm="http://www.corel.com/coreldraw/odm/2003">
 <defs>
  <style type="text/css">
   <![CDATA[
    .fil0 {fill:#00A0E3}
   ]]>
  </style>
 </defs>
 <g id="Layer_x0020_1">
  <metadata id="CorelCorpID_0Corel-Layer"/>
  <g id="_1771972467936">
   <path class="fil0" d="M62.38 41.35l25.34 -0.12 0 0.49 0 4.78 -0.6 0.01 -24.74 -0.01 -0 -5.14zm46.07 -13.01l1.01 -6.82 2.05 0 0.73 0.28c-0.01,1.13 0.13,3.98 -0.07,4.89 -0.47,2.12 -1.83,1.65 -3.71,1.66zm-100.95 -14.71c-1.48,-10.04 12.6,-7.89 20.36,-7.89l56.4 0c9.39,0 20.51,-2.5 20.78,7.89l-97.54 -0zm113.13 85.78l-1.1 3.65c1.68,-0.06 2.65,-0.3 4.07,0.32 -1,4.46 -0.99,2.43 -2.99,3.82 0.55,0.21 0.47,0.01 1.09,1.24 0.41,0.8 0.53,1.33 0.75,2.18 -11.89,0.5 -24.76,0.05 -36.75,0.05l-74.11 0.02c-8.56,-0.02 -7.4,-8.23 -0.97,-8.48 5.87,-0.23 12.54,0.5 18.46,0l0.11 -3.32c-3.06,-0.82 -6.65,-0.26 -9.85,-0.37 -0.25,-1.23 -0.32,-0.98 -0.2,-2.34l0.59 -2.02c-0.92,-10.71 4.85,-52.26 2.57,-57.88 -8.66,-2.95 -12.44,0.34 -14.39,-18.7l96.49 -0.01c-0.51,5.38 -1.09,11.1 -4,14.45 -3.72,4.27 -8.44,3.59 -15.18,3.59 -12.27,0.01 -24.54,0.13 -36.8,0.12 -9.81,-0.01 -8.12,0.16 -8.12,9.8 0,8.54 -0.62,53.3 0.24,55.14 1.14,2.45 11.97,1.51 16.49,1.5l36.33 -0c5.28,0 13.28,-0.46 18.17,0.09l-68.35 0.15 0.3 -5.08c-0.01,-0.09 -0.33,-1.1 -0.3,-1.62l0.95 -0.4c0.74,-0.12 0.52,-0.1 1.43,-0.08 0.45,0.75 0.72,-1.1 0.23,1.19l0.01 -55.21 11.12 0.03c-0,5.09 -1.45,10.39 3.03,10.85l12.85 0.01 0.01 6.8c-30.49,0.16 -21.28,-4.53 -23.27,20.49 -0.35,-2.72 -0.82,-13.47 0.61,-16.12 0.07,-0.12 0.14,-0.22 0.21,-0.34 0.5,-0.94 0.38,-1.17 0.94,-2.06l22.56 0.03 -0.19 -8.76c-0.06,-1.25 -0.04,-2.49 -1.11,-2.57 -0.73,-0.06 -0.32,-0.1 -0.92,0.04 -2.48,0.58 1.2,0.93 -0.76,0.16 -2.27,-0.89 -2.99,-0.06 -4.76,-0.88l-0.03 -1.43 15.33 -0c-0.24,3.38 0.1,0.76 -2.39,2.49 -0.06,1.58 0.6,1.93 -0.36,2.18 16.68,-0.12 14.65,1.95 14.7,-10.91 8.26,-0.79 10.45,-4.76 13.74,-8.94 9.05,0.03 9.05,-2.39 9.09,-9.68 0.02,-2.66 0.49,-3.93 -1.26,-4.77l-4.83 0c-0.13,-1.58 -0.43,-1.51 0.6,-2.64 -1.05,-18.33 -13.32,-14.93 -30.24,-14.93 -8.75,0 -61.31,-0.51 -67.31,0.06 -6.07,0.57 -10.55,5.29 -11.31,10.99 -0.4,3.01 1.75,16.47 2.78,19.26 3.31,8.96 11.47,9.64 12.33,10.61 0.8,2.22 -2.67,48.51 -3.05,55.39 -3.67,0.35 -10.73,-0.73 -13.33,6.76 -2.09,6.02 2.26,11.64 6.99,12.67 3.85,0.84 90.81,0.28 101.1,0.28 3.97,0 17.08,1.18 19.31,-1.25 1.74,-2.62 -0.77,-12.15 -7.32,-15.62z"/>
   <path class="fil0" d="M55.09 64.55l40.99 0c0,8.46 1.05,16.29 -3.06,22.74 -7.61,11.95 -26.68,12.27 -34.63,0.35 -4.5,-6.75 -3.29,-14.28 -3.29,-23.1zm-5.58 14.86c2.51,11.15 3.68,10.81 9.47,17.24l-13.21 -0.2c0.48,-2.29 0.22,-0.44 -0.23,-1.19 -0.91,-0.03 -0.7,-0.05 -1.43,0.08l-0.95 0.4c-0.04,0.52 0.29,1.53 0.3,1.62l-0.3 5.08 68.35 -0.15c4.61,0.26 7.49,1.92 9.1,4.93 2,-1.39 2,0.64 2.99,-3.82 -1.41,-0.62 -2.39,-0.38 -4.07,-0.32l1.1 -3.65c-6.09,-4.22 -19.81,-2.75 -28.48,-2.73 1.79,-2.65 6.69,-5.02 8.86,-14.34 0.83,-3.58 1.06,-19.63 0.09,-22.65 -3.9,-1.54 -17.26,-0.82 -22.82,-0.77 0,-2.33 -0.21,-4.64 0.36,-6.81 0.97,-0.25 0.3,-0.6 0.36,-2.18 2.49,-1.73 2.15,0.9 2.39,-2.49l-15.33 0 0.03 1.43c1.77,0.82 2.49,-0.01 4.76,0.88 1.96,0.77 -1.72,0.42 0.76,-0.16 0.6,-0.14 0.19,-0.1 0.92,-0.04 1.07,0.09 1.05,1.32 1.11,2.57l0.19 8.76 -22.56 -0.03c-0.57,0.89 -0.44,1.13 -0.94,2.06 -0.07,0.12 -0.14,0.22 -0.21,0.34 -1.42,2.65 -0.96,13.4 -0.61,16.12z"/>
   <polygon class="fil0" points="77.45,28.81 84.14,28.77 84.13,25.1 77.45,24.98 "/>
   <path class="fil0" d="M29.18 98.89c-0.63,-0.88 1.08,-0.61 -1.33,-0.81l-8.36 0 0.23 -3.91 -0.59 2.02c-0.12,1.35 -0.05,1.11 0.2,2.34 3.2,0.11 6.79,-0.45 9.85,0.37z"/>
   <path class="fil0" d="M114.91 17.82l-4.59 -0.49 0.35 -2.14c-1.02,1.13 -0.73,1.06 -0.6,2.64l4.83 -0z"/>
  </g>
 </g>
</svg>
