<?xml version="1.0" encoding="UTF-8"?>
<!DOCTYPE svg PUBLIC "-//W3C//DTD SVG 1.1//EN" "http://www.w3.org/Graphics/SVG/1.1/DTD/svg11.dtd">
<!-- Creator: CorelDRAW 2021 (64-Bit) -->
<svg xmlns="http://www.w3.org/2000/svg" xml:space="preserve" width="0.416421in" height="0.321898in" version="1.1" style="shape-rendering:geometricPrecision; text-rendering:geometricPrecision; image-rendering:optimizeQuality; fill-rule:evenodd; clip-rule:evenodd"
viewBox="0 0 63.38 48.99"
 xmlns:xlink="http://www.w3.org/1999/xlink"
 xmlns:xodm="http://www.corel.com/coreldraw/odm/2003">
 <defs>
  <style type="text/css">
   <![CDATA[
    .str0 {stroke:#00A0E3;stroke-width:1.06;stroke-miterlimit:22.9256}
    .fil0 {fill:#00A0E3}
   ]]>
  </style>
 </defs>
 <g id="Layer_x0020_1">
  <metadata id="CorelCorpID_0Corel-Layer"/>
  <g id="_1808004440848">
   <path class="fil0 str0" d="M13.54 45.96c0.16,-0.28 1.8,-1.85 2.16,-2.22l5.56 -5.56c0.18,-0.18 0.88,-0.95 1.06,-0.98l0.08 0c0.34,1.99 -1.64,5.07 -2.83,6.52 -0.19,0.23 -0.37,0.42 -0.55,0.63 -0.18,0.21 -0.38,0.42 -0.59,0.59 -0.42,0.36 -0.84,0.73 -1.33,1.03 -1.94,1.18 -2.48,0.49 -3.56,-0.02zm-1.33 -1.38c-0.36,-0.34 -0.67,-1 -0.68,-1.68 -0.02,-1.32 0.93,-2.27 1.6,-3.11 0.34,-0.43 0.83,-0.84 1.24,-1.19 1.29,-1.09 4.22,-3.08 6.66,-2.85 -0.1,0.17 -8.42,8.56 -8.82,8.83zm-7.84 -7.79c0.18,-0.29 1.79,-1.85 2.15,-2.21l5.56 -5.56c0.2,-0.2 0.92,-0.99 1.13,-1.05 0.28,2.51 -2.31,6.39 -3.96,7.8 -0.83,0.71 -1.85,1.63 -3.08,1.66 -0.91,0.02 -1.24,-0.36 -1.8,-0.65zm-1.33 -1.37c-1.75,-1.73 0.28,-4.49 1.84,-5.67 0.14,-0.1 0.18,-0.17 0.33,-0.3 1.2,-1.02 4.2,-3.18 6.65,-2.86 -0.16,0.26 -0.8,0.83 -1.06,1.09 -0.39,0.39 -0.73,0.73 -1.11,1.11l-5.51 5.53c-0.35,0.36 -0.76,0.8 -1.14,1.1zm16.73 -20.02c-0.13,-0.73 0.66,-1.28 0.97,-1.6l6.43 -6.42c0.45,-0.44 0.84,-0.83 1.28,-1.29 2.27,-2.33 5.09,-4.1 9.11,-3.62 2.68,0.32 5,1.67 6.73,3.63l1.92 1.91c0.1,0.09 0.21,0.21 0.31,0.31l1.95 1.94c0.14,0.12 0.2,0.21 0.3,0.32l2.88 2.89c0.14,0.13 0.21,0.17 0.36,0.34l4.8 4.79c0.85,0.76 2.11,2.17 2.7,3.13 1.4,2.25 1.91,5.53 0.97,8.4 -0.96,2.95 -2.78,4.33 -4.35,5.93l-6.43 6.42c-0.69,0.68 -1.39,1.76 -2.3,0.74 -0.12,-0.13 -0.18,-0.19 -0.31,-0.31l-0.97 -0.98c-0.11,-0.11 -0.22,-0.18 -0.33,-0.3l-8.08 -8.1c-0.94,-0.86 -2.81,-2.81 -3.86,-3.84l-3.85 -3.86c-0.85,-0.91 -1.7,-1.64 -2.57,-2.57 -1.5,-1.59 -3.66,-3.54 -5.14,-5.14 -0.54,-0.59 -2.44,-2.27 -2.52,-2.7zm0.19 3.12c-1.04,1.11 -2.19,2.2 -3.3,3.29l-3.28 3.3c-1.14,-0.34 -1.57,-0.56 -2.98,-0.34 -0.91,0.14 -1.87,0.48 -2.65,0.83 -1.75,0.79 -2.84,1.64 -4.21,2.81 -1.15,0.98 -2.44,2.55 -2.88,4.07 -0.99,3.45 3.06,7.61 6.6,6.67 2.9,-0.77 5.7,-4.5 6.9,-7.06 0.34,-0.72 0.7,-1.73 0.85,-2.62 0.23,-1.37 0.06,-1.88 -0.31,-3.02 0.53,-0.64 2.54,-2.57 3.28,-3.32 0.55,-0.56 1.08,-1.07 1.64,-1.62l1.68 -1.67c0.32,0.23 0.71,0.69 1,0.97l4.9 4.9c0.42,0.44 1.79,1.68 1.95,2 -0.62,0.46 -5.39,5.47 -6.6,6.57 -0.94,-0.19 -1.1,-0.59 -2.98,-0.32 -2.09,0.3 -4.27,1.57 -5.88,2.81 -3.32,2.57 -5.9,6.16 -2.22,9.87 0.98,0.99 2.76,2.3 4.96,1.69 2.96,-0.81 5.64,-4.45 6.9,-7.07 0.35,-0.73 0.7,-1.75 0.84,-2.63 0.22,-1.39 0.05,-1.82 -0.31,-3.01 0.16,-0.26 0.55,-0.59 0.78,-0.83l2.5 -2.5c0.71,-0.7 2.77,-2.85 3.35,-3.31 0.05,0.09 0.15,0.14 0.25,0.24l2.18 2.2c0.84,0.81 1.67,1.61 2.47,2.46 3.1,3.25 6.71,6.66 9.93,9.94 0.71,0.72 1.58,1.87 3.26,1.64 1.26,-0.18 2.26,-1.49 2.88,-2.11 1.67,-1.67 3.28,-3.31 4.97,-4.97 1.51,-1.49 3.63,-3.44 4.7,-5.23 1.34,-2.24 2.02,-5.11 1.54,-8.08 -0.21,-1.35 -0.65,-2.61 -1.24,-3.69 -0.53,-0.97 -1.31,-2.1 -2.11,-2.9 -3.26,-3.23 -6.68,-6.77 -9.93,-9.93 -0.84,-0.82 -1.65,-1.62 -2.47,-2.46 -0.42,-0.43 -0.82,-0.82 -1.25,-1.25 -0.42,-0.42 -0.81,-0.85 -1.28,-1.22 -1.07,-0.87 -1.51,-1.29 -2.97,-1.96 -3.97,-1.82 -8.36,-1.34 -11.77,0.93 -1.07,0.71 -1.84,1.5 -2.63,2.3 -0.84,0.84 -1.65,1.66 -2.5,2.5 -1.68,1.66 -3.29,3.3 -4.97,4.97 -0.67,0.67 -1.89,1.57 -1.66,3.25 0.22,1.61 1.82,2.3 2.05,2.92z"/>
   <path class="fil0 str0" d="M36.51 8.72c0.01,-0.01 0.03,-0.05 0.04,-0.04l0.3 -0.2c1.06,-0.57 2.37,-0.68 3.52,-0.33 1.4,0.43 2.05,1.27 2.78,2 1.11,1.12 12.85,12.78 13.14,13.19 0.35,0.5 0.39,1.29 0.08,1.87 -0.64,1.2 -2.12,1.28 -3.08,0.3 -3.9,-3.99 -8.04,-7.99 -11.99,-11.98l-3.58 -3.58c-0.35,-0.34 -0.96,-0.89 -1.21,-1.24zm1.84 -2.59c-0.89,0.1 -1.51,0.3 -2.24,0.65 -0.53,0.26 -1.36,0.83 -1.7,1.22 -0.7,0.8 0.15,1.44 0.54,1.83 0.52,0.52 0.95,0.94 1.46,1.45l8.63 8.67c0.23,0.24 0.43,0.41 0.71,0.68 0.27,0.26 0.45,0.47 0.72,0.74l4.34 4.34c0.79,0.77 1.8,2.16 3.5,2.35 3.23,0.37 5.65,-3.48 3.01,-6.36 -0.46,-0.5 -0.94,-0.93 -1.43,-1.42l-10.11 -10.11c-2.13,-2.09 -3.8,-4.44 -7.44,-4.04z"/>
   <path class="fil0 str0" d="M50.44 33.14c-0.31,1.47 -1.8,2.77 -3.57,2.77 -1.68,0 -3.34,-1.3 -3.56,-2.77l7.12 -0.01zm-7.12 -1.85c0.06,-0.69 0.72,-1.58 1.24,-1.96 2.75,-2.01 5.6,0.15 5.87,1.96l-7.1 0zm3.02 -4.6c-2.94,0.33 -5.35,2.78 -5,6.12 0.31,2.87 2.86,5.27 6.13,4.93 3.89,-0.41 6.16,-4.68 4.24,-8.23 -0.97,-1.8 -3.09,-3.07 -5.38,-2.82z"/>
   <path class="fil0 str0" d="M28.25 14.31c-0.36,0.13 -0.6,0.37 -0.63,0.8 -0.04,0.53 0.29,0.73 0.52,0.96l2.88 2.88c0.65,0.66 1.03,1.28 1.78,1.03 0.57,-0.19 0.94,-0.95 0.13,-1.76l-2.88 -2.88c-0.32,-0.33 -1.04,-1.3 -1.79,-1.03z"/>
   <path class="fil0 str0" d="M32.21 13c-0.37,0.11 -0.65,0.43 -0.66,0.87 -0.01,0.61 0.8,1.22 1.37,1.81 0.87,0.89 1.79,0.3 1.78,-0.49 -0,-0.57 -0.84,-1.19 -1.4,-1.77 -0.26,-0.27 -0.53,-0.57 -1.09,-0.41z"/>
   <path class="fil0 str0" d="M27.04 18.22c-0.42,0.09 -0.71,0.4 -0.74,0.85 -0.03,0.64 0.79,1.22 1.38,1.83 0.9,0.94 1.76,0.25 1.78,-0.44 0.01,-0.61 -0.82,-1.23 -1.4,-1.81 -0.22,-0.23 -0.51,-0.54 -1.02,-0.42z"/>
  </g>
 </g>
</svg>
