<?xml version="1.0" encoding="UTF-8"?>
<!DOCTYPE svg PUBLIC "-//W3C//DTD SVG 1.1//EN" "http://www.w3.org/Graphics/SVG/1.1/DTD/svg11.dtd">
<!-- Creator: CorelDRAW 2021 (64-Bit) -->
<svg xmlns="http://www.w3.org/2000/svg" xml:space="preserve" width="0.323976in" height="0.323055in" version="1.1" style="shape-rendering:geometricPrecision; text-rendering:geometricPrecision; image-rendering:optimizeQuality; fill-rule:evenodd; clip-rule:evenodd"
viewBox="0 0 23.84 23.77"
 xmlns:xlink="http://www.w3.org/1999/xlink"
 xmlns:xodm="http://www.corel.com/coreldraw/odm/2003">
 <defs>
  <style type="text/css">
   <![CDATA[
    .str0 {stroke:#00A0E3;stroke-width:0.51;stroke-miterlimit:22.9256}
    .fil0 {fill:#00A0E3}
   ]]>
  </style>
 </defs>
 <g id="Layer_x0020_1">
  <metadata id="CorelCorpID_0Corel-Layer"/>
  <g id="_1771891854864">
   <path class="fil0 str0" d="M16.55 21.66l2.99 -0.02c0,0.92 0.2,0.76 -1.5,0.76 -0.28,0 -0.91,0.04 -1.15,0 -0.47,-0.06 -0.35,-0.24 -0.35,-0.75zm-12.26 -0l2.99 -0.02c-0,0.92 0.22,0.76 -1.5,0.77 -1.12,0 -1.5,0.33 -1.5,-0.74zm-2.72 -1.23c-0.37,-0.72 -0.16,-7.24 -0.16,-8.67 0,-1.44 -0.05,-2.95 -0.01,-4.38 0.03,-0.95 0.54,-0.73 1.43,-0.73 3.02,0.01 18.69,-0.19 19.49,0.13 0.26,0.9 0.1,5.54 0.1,6.88 0,0.83 0.19,6.46 -0.21,6.74 -0.31,0.15 -19.73,0.26 -20.65,0.02zm-1.21 -0.12c0.13,0.56 0.47,1.02 1,1.2 0.54,0.19 1.23,0.06 1.84,0.13 -0.01,2 0.76,1.85 2.59,1.85 1.75,0 2.61,0.15 2.61,-1.82 0.47,-0.13 6.35,-0.11 7.06,-0.03 -0.01,1.01 0.05,1.55 0.97,1.8 0.34,0.1 2.47,0.08 2.95,0.05 1.38,-0.09 1.2,-1.22 1.29,-1.85 1.25,-0.17 2.13,0.18 2.68,-0.88 0.32,-0.62 0.19,-2.48 0.19,-3.31 0,-2.38 0,-4.75 0,-7.13 0,-3.31 0.6,-4.81 -2.35,-4.8l-17.86 0c-1.22,-0 -2.22,-0.13 -2.78,0.79 -0.4,0.67 -0.22,5.78 -0.22,6.96 0,1.39 -0.18,6.04 0.04,7.03z"/>
   <polygon class="fil0 str0" points="3.89,18.57 4.65,18.57 4.65,8.58 3.86,8.57 "/>
   <polygon class="fil0 str0" points="6.84,18.57 7.59,18.57 7.59,8.58 6.81,8.58 "/>
   <polygon class="fil0 str0" points="9.79,18.58 10.51,18.56 10.52,8.59 9.75,8.58 "/>
   <polygon class="fil0 str0" points="12.73,8.63 12.76,18.53 13.42,18.54 13.42,8.66 "/>
   <polygon class="fil0 str0" points="16.35,8.6 15.67,8.63 15.67,18.55 16.33,18.55 "/>
   <path class="fil0 str0" d="M19.09 14.2c0.96,-0.56 1.56,1 0.7,1.4 -0.88,0.41 -1.69,-0.83 -0.7,-1.4zm-1.2 0.97c0.33,1.97 3.4,1.57 3.1,-0.56 -0.11,-0.8 -0.94,-1.44 -1.9,-1.26 -0.74,0.14 -1.36,0.88 -1.21,1.82z"/>
   <path class="fil0 str0" d="M19.07 9.63c0.95,-0.56 1.65,0.97 0.71,1.4 -0.93,0.43 -1.63,-0.86 -0.71,-1.4zm0.06 -0.84c-2.14,0.53 -1.35,3.5 0.71,3.05 0.77,-0.17 1.36,-1.01 1.12,-1.95 -0.18,-0.68 -0.93,-1.32 -1.83,-1.1z"/>
   <path class="fil0 str0" d="M15.36 4.32c0.6,-1.5 -0.32,-1.99 -0.03,-3.72l-0.73 -0.27c-0.52,2.3 0.6,2.48 0.06,3.6 0.18,0.17 0.42,0.3 0.69,0.38z"/>
   <path class="fil0 str0" d="M5.59 4.34c0.62,-1.74 -0.39,-1.99 -0.01,-3.73l-0.74 -0.26c-0.48,1.77 0.39,2.12 0.08,3.65l0.67 0.34z"/>
   <path class="fil0 str0" d="M8.84 4.34c0.27,-0.6 0.3,-1.08 0.1,-1.81 -0.3,-1.08 -0.16,-0.93 -0.14,-1.95l-0.7 -0.2c-0.51,1.75 0.48,2.32 0.07,3.63l0.67 0.33z"/>
   <path class="fil0 str0" d="M12.06 4.31c0.41,-0.46 0.3,-1.21 0.13,-1.8 -0.24,-0.84 -0.28,-0.95 -0.11,-1.9l-0.73 -0.27c-0.43,1.78 0.45,2.4 0.06,3.65l0.65 0.32z"/>
   <path class="fil0 str0" d="M12.73 8.63l0.69 0.03 0 9.88 -0.67 -0 -0.02 -9.9zm0 0c-0.22,0.36 -0.08,9.83 -0.07,9.96l0.81 -0.01c0.11,-0.92 0.12,-9.41 -0.03,-10.02 -0.13,-0.01 -0.32,-0.03 -0.44,-0.02l-0.27 0.09z"/>
   <path class="fil0 str0" d="M16.35 8.6l-0.02 9.94 -0.66 0 0 -9.92 0.68 -0.02zm0 0c-0.02,-0.01 0.06,-0.04 -0.21,-0.07l-0.56 0.04 0.02 10c0.37,0.1 0.44,0.11 0.81,-0 0.02,-0.16 0.14,-8.82 0.02,-9.76 -0.02,-0.18 -0.06,-0.2 -0.07,-0.21z"/>
  </g>
 </g>
</svg>
