<?xml version="1.0" encoding="UTF-8"?>
<!DOCTYPE svg PUBLIC "-//W3C//DTD SVG 1.1//EN" "http://www.w3.org/Graphics/SVG/1.1/DTD/svg11.dtd">
<!-- Creator: CorelDRAW 2021 (64-Bit) -->
<svg xmlns="http://www.w3.org/2000/svg" xml:space="preserve" width="0.361276in" height="0.363177in" version="1.1" style="shape-rendering:geometricPrecision; text-rendering:geometricPrecision; image-rendering:optimizeQuality; fill-rule:evenodd; clip-rule:evenodd"
viewBox="0 0 21.97 22.09"
 xmlns:xlink="http://www.w3.org/1999/xlink"
 xmlns:xodm="http://www.corel.com/coreldraw/odm/2003">
 <defs>
  <style type="text/css">
   <![CDATA[
    .str0 {stroke:#00A0E3;stroke-width:0.42;stroke-miterlimit:22.9256}
    .fil1 {fill:#00A0E3}
    .fil0 {fill:#00A0E3;fill-rule:nonzero}
   ]]>
  </style>
 </defs>
 <g id="Layer_x0020_1">
  <metadata id="CorelCorpID_0Corel-Layer"/>
  <g id="_1771891851264">
   <path class="fil0 str0" d="M6.97 19.35l0 0c0.18,0.26 0.36,0.51 0.36,0.74 -0,0.15 -0.08,0.26 -0.16,0.38 -0.04,0.06 -0.09,0.13 -0.12,0.19 -0.04,0.09 -0.06,0.18 -0.06,0.28 -0,0.1 0.01,0.2 0.04,0.28 0.06,0.15 0.18,0.25 0.25,0.3l0.08 0.06 -0.06 0.13 -0.07 -0.05c-0.08,-0.06 -0.23,-0.17 -0.3,-0.37 -0.04,-0.1 -0.06,-0.23 -0.06,-0.35 0,-0.12 0.03,-0.24 0.08,-0.35 0.04,-0.08 0.08,-0.15 0.13,-0.22 0.07,-0.1 0.13,-0.19 0.13,-0.28 0,-0.17 -0.16,-0.4 -0.33,-0.63l-0 -0 0.09 -0.1z"/>
   <path class="fil0 str0" d="M14.69 19.39l0 0c0.18,0.26 0.36,0.51 0.36,0.74 -0,0.15 -0.08,0.26 -0.16,0.38 -0.04,0.06 -0.09,0.13 -0.12,0.19 -0.04,0.09 -0.06,0.18 -0.06,0.28 -0,0.1 0.01,0.2 0.04,0.28 0.06,0.15 0.18,0.25 0.25,0.3l0.08 0.06 -0.06 0.13 -0.07 -0.05c-0.08,-0.06 -0.23,-0.17 -0.3,-0.37 -0.04,-0.1 -0.06,-0.23 -0.06,-0.35 0,-0.12 0.03,-0.24 0.08,-0.35 0.04,-0.08 0.08,-0.15 0.13,-0.22 0.07,-0.1 0.13,-0.19 0.13,-0.28 0,-0.17 -0.16,-0.4 -0.33,-0.63l-0 -0 0.09 -0.1z"/>
   <path class="fil0 str0" d="M9.69 19.35l0 0c0.18,0.26 0.36,0.51 0.36,0.74 -0,0.15 -0.08,0.26 -0.16,0.38 -0.04,0.06 -0.09,0.13 -0.12,0.19 -0.04,0.09 -0.06,0.18 -0.06,0.28 -0,0.1 0.01,0.2 0.04,0.28 0.06,0.15 0.18,0.25 0.25,0.3l0.08 0.06 -0.06 0.13 -0.07 -0.05c-0.08,-0.06 -0.23,-0.17 -0.3,-0.37 -0.04,-0.1 -0.06,-0.23 -0.06,-0.35 0,-0.12 0.03,-0.24 0.08,-0.35 0.04,-0.08 0.08,-0.15 0.13,-0.22 0.07,-0.1 0.13,-0.19 0.13,-0.28 0,-0.16 -0.16,-0.4 -0.33,-0.63l0.02 -0.03 0.07 -0.08z"/>
   <path class="fil0 str0" d="M17.41 19.39l0 0c0.18,0.26 0.36,0.51 0.36,0.74 -0,0.15 -0.08,0.26 -0.16,0.38 -0.04,0.06 -0.09,0.13 -0.12,0.19 -0.04,0.09 -0.06,0.18 -0.06,0.28 -0,0.1 0.01,0.2 0.04,0.28 0.06,0.15 0.18,0.25 0.25,0.3l0.08 0.06 -0.06 0.13 -0.07 -0.05c-0.08,-0.06 -0.23,-0.17 -0.3,-0.37 -0.04,-0.1 -0.06,-0.23 -0.06,-0.35 0,-0.12 0.03,-0.24 0.08,-0.35 0.04,-0.08 0.08,-0.15 0.13,-0.22 0.07,-0.1 0.13,-0.19 0.13,-0.28 0,-0.17 -0.16,-0.4 -0.33,-0.63l0.02 -0.03 0.07 -0.08z"/>
   <path class="fil0 str0" d="M4.25 19.35l0 0c0.18,0.26 0.36,0.51 0.36,0.74 -0,0.15 -0.08,0.26 -0.16,0.38 -0.04,0.06 -0.09,0.13 -0.12,0.19 -0.04,0.09 -0.06,0.18 -0.06,0.28 -0,0.1 0.01,0.2 0.04,0.28 0.06,0.16 0.19,0.26 0.26,0.31l0.07 0.05 -0.06 0.13 -0.07 -0.05c-0.08,-0.06 -0.23,-0.17 -0.3,-0.37 -0.04,-0.1 -0.06,-0.23 -0.06,-0.35 0,-0.12 0.03,-0.24 0.08,-0.35 0.04,-0.08 0.08,-0.15 0.13,-0.22 0.07,-0.1 0.13,-0.19 0.13,-0.28 0,-0.17 -0.16,-0.4 -0.33,-0.63l-0 -0 0.09 -0.1z"/>
   <path class="fil0 str0" d="M11.97 19.39l0 0c0.18,0.26 0.36,0.51 0.36,0.74 -0,0.15 -0.08,0.26 -0.16,0.38 -0.04,0.06 -0.09,0.13 -0.12,0.19 -0.04,0.09 -0.06,0.18 -0.06,0.28 -0,0.1 0.01,0.2 0.04,0.28 0.06,0.16 0.19,0.26 0.26,0.31l0.07 0.05 -0.06 0.13 -0.07 -0.05c-0.08,-0.06 -0.23,-0.17 -0.3,-0.37 -0.04,-0.1 -0.06,-0.23 -0.06,-0.35 0,-0.12 0.03,-0.24 0.08,-0.35 0.04,-0.08 0.08,-0.15 0.13,-0.22 0.07,-0.1 0.13,-0.19 0.13,-0.28 0,-0.17 -0.16,-0.4 -0.33,-0.63l-0 -0 0.09 -0.1z"/>
   <path class="fil1 str0" d="M0.89 14.39l20.14 -0.01 0.03 3.13 -20.12 0.02 -0.05 -3.14zm5.37 -2.34c0.44,-1.19 1.5,-2.55 1.76,-3.55l5.38 -0.01c0.33,0.31 1.8,3.09 1.95,3.56l-9.1 0zm9.27 -1.29c4.36,0 2.26,-0.1 4.38,1.94 0.44,0.43 0.42,0.3 0.62,0.89l-19.07 0c0.18,-0.48 0.16,-0.38 0.47,-0.76 1.84,-2.28 0.94,-1.89 4.06,-1.9 -0.24,0.83 -0.68,0.92 -0.65,1.85l10.94 0.05c0.05,-1 -0.46,-1.29 -0.74,-2.07zm-7.25 -9.74l5.08 0.02 -0 6.57 -5.12 -0.05 0.05 -6.54zm-1.83 9.07c-2.34,0.25 -2.85,-0.51 -3.79,0.72 -0.71,0.93 -1.41,1.73 -2.12,2.64 -0.47,0.61 -0.3,1.36 -0.3,2.44 -0,3.09 -0.64,2.45 4.35,2.45 1.85,0 16.54,0.23 16.93,-0.15 0.33,-0.36 0.23,-3.53 0.19,-4.01 -0.06,-0.75 -0.88,-1.51 -1.51,-2.31 -0.41,-0.52 -1.2,-1.82 -1.84,-1.92 -0.86,-0.14 -2.37,0.02 -3.32,-0.01 -1.07,-2.05 -1.03,-1.26 -1.03,-4.33 0,-1.29 0.11,-4.34 -0.07,-5.38l-6.26 0.06c-0.17,1.24 -0.06,4.15 -0.05,5.63 0,1.82 0.15,2.23 -1.17,4.18z"/>
   <polygon class="fil0 str0" points="13.38,16.93 13.38,15.12 13.75,15.12 13.75,16.93 "/>
   <polygon class="fil0 str0" points="15.13,16.93 15.13,15.12 15.51,15.12 15.51,16.93 "/>
   <path class="fil0 str0" d="M17.77 15.18c0.2,0 0.37,0.1 0.5,0.26l0 0c0.13,0.16 0.21,0.39 0.21,0.63 0,0.25 -0.08,0.47 -0.21,0.63l-0 0c-0.13,0.16 -0.31,0.26 -0.5,0.26 -0.2,0 -0.37,-0.1 -0.5,-0.26l-0 -0c-0.13,-0.16 -0.21,-0.39 -0.21,-0.63 0,-0.25 0.08,-0.47 0.21,-0.63l0 -0c0.13,-0.16 0.31,-0.26 0.5,-0.26zm0.24 0.59c-0.06,-0.08 -0.15,-0.12 -0.24,-0.12 -0.09,0 -0.18,0.05 -0.24,0.12 -0.06,0.08 -0.1,0.18 -0.1,0.3 0,0.12 0.04,0.23 0.1,0.3 0.06,0.08 0.15,0.12 0.24,0.12 0.09,0 0.18,-0.05 0.24,-0.12 0.06,-0.08 0.1,-0.18 0.1,-0.3 0,-0.12 -0.04,-0.23 -0.1,-0.3z"/>
  </g>
 </g>
</svg>
