<?xml version="1.0" encoding="UTF-8"?>
<!DOCTYPE svg PUBLIC "-//W3C//DTD SVG 1.1//EN" "http://www.w3.org/Graphics/SVG/1.1/DTD/svg11.dtd">
<!-- Creator: CorelDRAW 2021 (64-Bit) -->
<svg xmlns="http://www.w3.org/2000/svg" xml:space="preserve" width="0.426516in" height="0.204724in" version="1.1" style="shape-rendering:geometricPrecision; text-rendering:geometricPrecision; image-rendering:optimizeQuality; fill-rule:evenodd; clip-rule:evenodd"
viewBox="0 0 24.42 11.72"
 xmlns:xlink="http://www.w3.org/1999/xlink"
 xmlns:xodm="http://www.corel.com/coreldraw/odm/2003">
 <defs>
  <style type="text/css">
   <![CDATA[
    .str0 {stroke:#2B2A29;stroke-width:0.45;stroke-miterlimit:22.9256}
    .fil0 {fill:#00A0E3}
   ]]>
  </style>
 </defs>
 <g id="Layer_x0020_1">
  <metadata id="CorelCorpID_0Corel-Layer"/>
  <path class="fil0 str0" d="M4.97 10.53c0.06,0.1 0.1,0.21 0.1,0.34l0 0.02c0,0.34 -0.28,0.62 -0.62,0.62l-1.67 0c-0.34,0 -0.62,-0.28 -0.62,-0.62l0 -0.02c0,-0.12 0.04,-0.24 0.1,-0.34l-0.57 0c-0.81,0 -1.46,-0.66 -1.46,-1.46l0 -7.37c0,-0.81 0.66,-1.46 1.46,-1.46l21.04 0c0.81,0 1.46,0.66 1.46,1.46l0 7.37c0,0.8 -0.65,1.45 -1.44,1.46 0.06,0.09 0.09,0.21 0.09,0.32l0 0.02c0,0.34 -0.28,0.62 -0.62,0.62l-1.67 0c-0.34,0 -0.62,-0.28 -0.62,-0.62l0 -0.02c0,-0.12 0.03,-0.23 0.09,-0.32l-15.06 0zm14.33 -6.82c0.87,0 1.57,0.7 1.57,1.56 0,0.86 -0.7,1.56 -1.57,1.56 -0.87,0 -1.57,-0.7 -1.57,-1.56 0,-0.86 0.7,-1.56 1.57,-1.56zm0 -1.82c1.89,0 3.42,1.52 3.42,3.39 0,1.87 -1.53,3.39 -3.42,3.39 -1.89,0 -3.42,-1.52 -3.42,-3.39 0,-1.87 1.53,-3.39 3.42,-3.39zm-16.29 0.02l0.09 0c0.25,0 0.46,0.21 0.46,0.46l0 5.88c0,0.25 -0.21,0.46 -0.46,0.46l-0.09 0c-0.25,0 -0.46,-0.21 -0.46,-0.46l0 -5.88c0,-0.25 0.21,-0.46 0.46,-0.46zm1.78 0l0.09 0c0.25,0 0.46,0.21 0.46,0.46l0 5.88c0,0.25 -0.21,0.46 -0.46,0.46l-0.09 0c-0.25,0 -0.46,-0.21 -0.46,-0.46l0 -5.88c0,-0.25 0.21,-0.46 0.46,-0.46zm1.78 0l0.09 0c0.25,0 0.46,0.21 0.46,0.46l0 5.88c0,0.25 -0.21,0.46 -0.46,0.46l-0.09 0c-0.25,0 -0.46,-0.21 -0.46,-0.46l0 -5.88c0,-0.25 0.21,-0.46 0.46,-0.46z"/>
 </g>
</svg>
