<?xml version="1.0" encoding="UTF-8"?>
<!DOCTYPE svg PUBLIC "-//W3C//DTD SVG 1.1//EN" "http://www.w3.org/Graphics/SVG/1.1/DTD/svg11.dtd">
<!-- Creator: CorelDRAW 2021 (64-Bit) -->
<svg xmlns="http://www.w3.org/2000/svg" xml:space="preserve" width="0.393705in" height="0.191193in" version="1.1" style="shape-rendering:geometricPrecision; text-rendering:geometricPrecision; image-rendering:optimizeQuality; fill-rule:evenodd; clip-rule:evenodd"
viewBox="0 0 17.11 8.31"
 xmlns:xlink="http://www.w3.org/1999/xlink"
 xmlns:xodm="http://www.corel.com/coreldraw/odm/2003">
 <defs>
  <style type="text/css">
   <![CDATA[
    .fil0 {fill:#00A0E3}
   ]]>
  </style>
 </defs>
 <g id="Layer_x0020_1">
  <metadata id="CorelCorpID_0Corel-Layer"/>
  <path class="fil0" d="M11.03 7.8c0.11,0.58 0.76,0.5 1.32,0.5l3.58 0c0.39,0 1.15,0.1 1.17,-0.63 0.01,-0.53 -0.05,-1.22 -0.08,-1.76l-0.23 -5.13c-0.02,-0.83 -0.54,-0.78 -1.02,-0.78l-3.59 0c-0.68,-0 -0.85,0.23 -0.87,0.91 -0.03,1.15 -0.11,2.32 -0.16,3.48 -0.03,0.56 -0.05,1.13 -0.08,1.69 -0.02,0.38 -0.11,1.42 -0.06,1.73zm1.8 -2.12c-0.28,-1.7 2.18,-2.04 2.47,-0.48 0.15,0.77 -0.38,1.36 -1,1.48 -0.76,0.15 -1.37,-0.4 -1.47,-1zm3.03 -0.03c0.1,-1.01 -0.6,-1.88 -1.58,-2 -1.05,-0.12 -1.9,0.66 -2.01,1.58 -0.12,1.05 0.65,1.91 1.59,2.01 1.04,0.11 1.91,-0.66 2,-1.59zm-1.92 -4.14c0.43,-0.1 0.71,0.19 0.79,0.5 0.11,0.42 -0.2,0.75 -0.49,0.83 -0.85,0.22 -1.26,-1.09 -0.3,-1.33zm-0.12 -0.54c-0.6,0.12 -1.1,0.74 -0.95,1.47 0.32,1.53 2.73,1.11 2.41,-0.52 -0.12,-0.59 -0.72,-1.1 -1.46,-0.95zm-6.8 6.67c-0.05,-0.12 -0.04,-0.31 -0.05,-0.47l3.27 0c-0.01,0.16 0.01,0.35 -0.04,0.47 -0.15,0.05 -3.03,0.05 -3.18,0zm-0.03 -1.02c-0.06,-0.42 -0.01,-1.23 -0.01,-1.69 0,-1.4 -0.12,-1.31 0.4,-1.31 0.58,-0 2.66,-0.04 2.85,0.03 0.04,0.55 0.04,2.41 0.01,2.97l-3.25 -0zm-0.55 0.95c0.04,0.84 1.15,0.63 1.72,0.63 0.43,0 2.02,0.07 2.28,-0.08 0.12,-0.07 0.24,-0.19 0.3,-0.33 0.1,-0.25 0.06,-1.38 0.06,-1.7 -0,-3.12 0.35,-3.03 -1.72,-3.02 -0.43,0 -2.01,-0.07 -2.29,0.09 -0.3,0.17 -0.35,0.42 -0.35,0.85 -0,1.03 -0.04,2.65 0,3.55zm1.44 -2.98l1.47 -0.01 -0 0.73 -1.47 0.02 0.01 -0.74zm-0.34 -0.55c-0.31,0.08 -0.21,0.63 -0.21,0.89 -0,0.3 -0.09,0.85 0.19,0.93 0.09,0.02 2.1,0.03 2.19,0 0.29,-0.08 0.19,-0.62 0.19,-0.9 0,-0.41 0.08,-0.86 -0.19,-0.92 -0.07,-0.02 -2.1,-0.02 -2.16,-0zm-7.52 3.76c0.11,0.58 0.76,0.5 1.32,0.5l3.58 0c0.39,0 1.15,0.1 1.17,-0.63 0.01,-0.53 -0.05,-1.22 -0.08,-1.76l-0.23 -5.13c-0.02,-0.83 -0.54,-0.78 -1.02,-0.78l-3.59 0c-0.68,-0 -0.85,0.23 -0.87,0.91 -0.03,1.15 -0.11,2.32 -0.16,3.48 -0.03,0.56 -0.05,1.13 -0.08,1.69 -0.02,0.38 -0.11,1.42 -0.06,1.73zm1.8 -2.12c-0.28,-1.7 2.18,-2.04 2.47,-0.48 0.15,0.77 -0.38,1.36 -1,1.48 -0.76,0.15 -1.37,-0.4 -1.47,-1zm3.03 -0.03c0.1,-1.01 -0.6,-1.88 -1.58,-2 -1.05,-0.12 -1.9,0.66 -2.01,1.58 -0.12,1.05 0.65,1.91 1.58,2.01 1.04,0.11 1.91,-0.66 2,-1.59zm-1.92 -4.14c0.43,-0.1 0.71,0.19 0.79,0.5 0.11,0.42 -0.2,0.75 -0.49,0.83 -0.85,0.22 -1.26,-1.09 -0.3,-1.33zm-0.12 -0.54c-0.6,0.12 -1.1,0.74 -0.95,1.47 0.32,1.53 2.73,1.11 2.41,-0.52 -0.12,-0.59 -0.72,-1.1 -1.46,-0.95z"/>
 </g>
</svg>
