<?xml version="1.0" encoding="UTF-8"?>
<!DOCTYPE svg PUBLIC "-//W3C//DTD SVG 1.1//EN" "http://www.w3.org/Graphics/SVG/1.1/DTD/svg11.dtd">
<!-- Creator: CorelDRAW 2021 (64-Bit) -->
<svg xmlns="http://www.w3.org/2000/svg" xml:space="preserve" width="0.232945in" height="0.396626in" version="1.1" style="shape-rendering:geometricPrecision; text-rendering:geometricPrecision; image-rendering:optimizeQuality; fill-rule:evenodd; clip-rule:evenodd"
viewBox="0 0 5.09 8.66"
 xmlns:xlink="http://www.w3.org/1999/xlink"
 xmlns:xodm="http://www.corel.com/coreldraw/odm/2003">
 <defs>
  <style type="text/css">
   <![CDATA[
    .str0 {stroke:#00A0E3;stroke-width:0.07;stroke-miterlimit:22.9256}
    .fil0 {fill:#00A0E3}
   ]]>
  </style>
 </defs>
 <g id="Layer_x0020_1">
  <metadata id="CorelCorpID_0Corel-Layer"/>
  <g id="_1807927850720">
   <path class="fil0 str0" d="M3.62 0.84c0,0 0.01,0.01 0.01,0.01 0,0 0.01,0.01 0.01,0.01l0.12 0.16c0.04,0.07 0.08,0.13 0.12,0.21 0.08,0.15 0.15,0.29 0.19,0.46 0.08,0.13 0.17,0.65 0.18,0.83 0.22,2.16 -1.29,3.95 -2.63,2.71 -0.07,-0.07 -0.17,-0.19 -0.24,-0.28 -0.72,-1 -0.75,-2.55 -0.21,-3.67 0.54,-1.11 1.64,-1.37 2.35,-0.57l0.09 0.13zm-2.88 3.23l0.24 0.58c0.24,0.51 0.72,1.06 1.35,1.16 0.99,0.16 1.62,-0.74 1.89,-1.43 0.68,-1.7 -0.02,-4.43 -1.81,-4.35 -0.8,0.11 -1.29,0.76 -1.55,1.44 -0.23,0.61 -0.31,1.28 -0.23,1.95 0.02,0.18 0.11,0.52 0.11,0.65z"/>
   <path class="fil0 str0" d="M2.44 8.42c0.05,-0.03 0.05,0.03 0.04,-0.22l0.03 -1.61c0,-0 0.01,-0.01 0.01,-0.02l-0.01 -0.1c0.08,0.02 0.1,0.02 0.1,0.31l-0 1.65 1.15 -0.01c-0.07,-0.07 -0.41,-0.02 -0.53,-0.02 -0.2,0 -0.39,0 -0.59,0l0 -1.83c0.66,-0.03 1.08,-0.29 1.46,-0.58 0.52,-0.4 0.81,-1.16 0.83,-1.18 0.04,-0.15 0.14,-0.34 0.1,-0.49 -0.21,-0.07 -0.19,0.11 -0.25,0.3 -0.13,0.39 -0.35,0.76 -0.63,1.06 -0.85,0.91 -2.26,0.93 -3.18,0.04 -0.26,-0.25 -0.53,-0.68 -0.66,-1.05 -0.11,-0.31 -0.05,-0.36 -0.22,-0.37 -0.08,0.05 -0.08,0.07 -0.05,0.19 0.14,0.59 0.47,1.08 0.9,1.49 0.37,0.35 0.96,0.58 1.49,0.61l0 1.84z"/>
   <path class="fil0 str0" d="M2.44 8.42c-0.17,-0.04 -0.76,-0.01 -0.97,-0.01 -0.32,0 -0.22,0.19 -0.09,0.21 0.12,0.01 0.37,-0 0.5,-0 0.31,-0 1.81,0.04 1.94,-0.05 0.02,-0.11 0.03,-0.12 -0.05,-0.14l-1.15 0.01 0 -1.65c0,-0.3 -0.01,-0.29 -0.1,-0.31l0.01 0.1c-0,0.01 -0.01,0.01 -0.01,0.02l-0.03 1.61c0,0.25 0,0.2 -0.04,0.22z"/>
   <path class="fil0 str0" d="M3.9 1.9c-0.05,-0.07 -0.05,-0.27 -0.23,-0.58 -0.05,-0.09 -0.11,-0.18 -0.17,-0.25 -0.05,-0.06 -0.16,-0.14 -0.19,-0.21 -0.1,-0.03 -0.31,-0.23 -0.62,-0.26 0.1,0.1 0.33,0.25 0.57,0.51 0.28,0.31 0.44,0.76 0.64,1.12l-0.02 -0.34z"/>
   <path class="fil0 str0" d="M3.32 0.87c0.03,0.07 0.14,0.15 0.19,0.21 0.06,0.06 0.12,0.16 0.17,0.25 0.17,0.31 0.18,0.51 0.23,0.58 0.01,-0.13 0.01,-0.01 0.07,-0.12l0.04 -0.1c0,-0 0.03,0 0.03,0 0.08,0 -0.04,-0.05 0.05,0 -0.04,-0.17 -0.11,-0.31 -0.19,-0.46 -0.04,-0.07 -0.07,-0.14 -0.12,-0.21l-0.12 -0.16c-0,-0 -0.01,-0.01 -0.01,-0.01 -0,-0 -0.01,-0.01 -0.01,-0.01 -0.05,0.05 -0.01,-0.06 -0.03,0.05 -0.02,0.12 0,0.03 0.01,0.06 -0,-0.12 0.01,-0.03 -0.03,-0.03 -0.11,0.02 0.03,0 -0.04,0.01 -0.2,0.03 -0.12,-0.11 -0.12,-0.11 -0.01,0.01 -0.02,0.01 -0.02,0.02 -0.07,0.04 -0.03,0.04 -0.07,0.03z"/>
  </g>
 </g>
</svg>
