<?xml version="1.0" encoding="UTF-8"?>
<!DOCTYPE svg PUBLIC "-//W3C//DTD SVG 1.1//EN" "http://www.w3.org/Graphics/SVG/1.1/DTD/svg11.dtd">
<!-- Creator: CorelDRAW 2021 (64-Bit) -->
<svg xmlns="http://www.w3.org/2000/svg" xml:space="preserve" width="0.267535in" height="0.357327in" version="1.1" style="shape-rendering:geometricPrecision; text-rendering:geometricPrecision; image-rendering:optimizeQuality; fill-rule:evenodd; clip-rule:evenodd"
viewBox="0 0 5.82 7.78"
 xmlns:xlink="http://www.w3.org/1999/xlink"
 xmlns:xodm="http://www.corel.com/coreldraw/odm/2003">
 <defs>
  <style type="text/css">
   <![CDATA[
    .str0 {stroke:#00A0E3;stroke-width:0.07;stroke-miterlimit:22.9256}
    .fil0 {fill:#00A0E3}
   ]]>
  </style>
 </defs>
 <g id="Layer_x0020_1">
  <metadata id="CorelCorpID_0Corel-Layer"/>
  <g id="_1772046771600">
   <path class="fil0 str0" d="M2.9 0.23l0.09 0c1.03,0 1.89,0.9 1.88,1.93 -0,1.06 -0.86,1.93 -1.94,1.93 -1.06,0 -1.91,-0.86 -1.92,-1.91 -0.01,-1.06 0.86,-1.95 1.89,-1.95zm-0.33 -0.18c-0.29,0.1 -0.3,0.04 -0.68,0.25 -0.4,0.22 -0.71,0.57 -0.9,0.98 -0.11,0.23 -0.17,0.48 -0.19,0.77 -0.17,0.05 -0.64,-0.03 -0.73,0.03 -0.04,0.03 -0.13,0.19 0.15,0.19 0.06,-0 0.11,-0 0.17,0 0.09,0.56 0.13,0.9 0.49,1.39 0.22,0.3 0.69,0.75 1.07,0.84 0.05,-0.01 0.01,0.01 0.02,-0.06 -0.06,0.01 -0.06,0.01 -0.11,0.02 0.04,-0.04 0.05,-0.04 0.07,-0.11 -0.12,-0 -0.06,-0.05 -0.08,-0.12 -0.35,-0.17 -0.66,-0.48 -0.85,-0.76 -0.17,-0.26 -0.44,-0.81 -0.4,-1.21 0.31,-0.01 0.15,-0.01 0.26,0.44 0.31,1.2 1.65,1.95 2.92,1.42 0.11,-0.04 0.26,-0.13 0.34,-0.18 0.14,-0.1 0.17,-0.13 0.29,-0.24 0.45,-0.42 0.58,-0.84 0.66,-1.43l0.2 -0c0.02,0.19 -0.08,0.57 -0.15,0.74 -0.1,0.24 -0.2,0.42 -0.33,0.59 -0.27,0.35 -0.57,0.56 -0.96,0.74 -0.01,0 -0.03,0.01 -0.04,0.02l-0.04 0.02c-0,0 -0.01,0.01 -0.01,0.01l0.1 0.04c0,0 0.03,0 0.03,0.02 0.06,0.01 0.05,-0.02 -0.02,0.04l-0.03 0.03c0.07,0 0.02,-0.01 0.04,0.02 0.42,-0.11 0.93,-0.57 1.12,-0.84 0.4,-0.56 0.42,-0.8 0.52,-1.43 0.17,-0.01 0.22,0.03 0.29,-0.07 -0.01,-0.26 -0.36,-0.07 -0.71,-0.14 -0.03,-0.68 -0.4,-1.24 -0.75,-1.51 -0.5,-0.4 -0.93,-0.56 -1.76,-0.48z"/>
   <path class="fil0 str0" d="M1.39 7.51c-0.13,-0.23 0.24,-0.16 0.6,-0.16 0.36,0 2.48,-0.02 2.54,0.01 0.01,0.01 0.16,0.16 -0.17,0.16 -0.43,-0 -2.81,0.02 -2.96,-0.01zm1.46 -2.8l0.2 -0 0 2.43 -0.2 0 0 -2.43zm-0.89 -0.21c0.1,0.1 0.51,0.14 0.68,0.2l0 2.45c-0.33,-0 -0.66,-0 -0.99,-0 -0.16,0 -0.3,-0.02 -0.41,0.07 -0.08,0.08 -0.14,0.22 -0.07,0.36 0.12,0.22 0.52,0.16 0.82,0.16l1.95 0c0.32,0 0.69,0.07 0.8,-0.18 0.07,-0.16 -0.01,-0.29 -0.1,-0.35 -0.11,-0.08 -0.3,-0.06 -0.44,-0.06 -0.3,0 -0.65,0.01 -0.94,-0 -0.02,-0.1 -0.01,-2.39 -0,-2.42 0.02,-0.07 0.48,-0.09 0.61,-0.19 -0.01,-0.03 0.03,-0.02 -0.04,-0.02l0.03 -0.03c0.07,-0.07 0.08,-0.03 0.02,-0.04 -0,-0.02 -0.03,-0.02 -0.03,-0.02l-0.1 -0.04c-0.06,-0 -0.35,0.09 -0.47,0.1 -0.17,0.02 -0.37,0.03 -0.54,0.02 -0.37,-0.03 -0.58,-0.13 -0.88,-0.26 0.02,0.07 -0.04,0.11 0.08,0.12 -0.02,0.07 -0.03,0.07 -0.07,0.11 0.05,-0.01 0.05,-0.01 0.11,-0.02 -0.02,0.06 0.02,0.05 -0.02,0.06z"/>
   <path class="fil0 str0" d="M3.18 0.95c-0.07,0.03 -0.05,0.04 -0.1,0.1l-1.15 1.47c-0.1,0.13 -0.02,0.25 0.1,0.19 0.07,-0.03 1.06,-1.35 1.25,-1.57 0.1,-0.12 0.03,-0.25 -0.1,-0.19z"/>
   <path class="fil0 str0" d="M2.59 0.78c-0.04,0.02 -0.25,0.29 -0.29,0.35l-0.56 0.72c-0.04,0.05 -0.12,0.14 -0.14,0.18 -0.05,0.1 0.03,0.2 0.14,0.14 0.03,-0.02 0.51,-0.63 0.57,-0.71l0.42 -0.54c0.03,-0.09 -0.05,-0.17 -0.13,-0.14z"/>
  </g>
 </g>
</svg>
