<?xml version="1.0" encoding="UTF-8"?>
<!DOCTYPE svg PUBLIC "-//W3C//DTD SVG 1.1//EN" "http://www.w3.org/Graphics/SVG/1.1/DTD/svg11.dtd">
<!-- Creator: CorelDRAW 2021 (64-Bit) -->
<svg xmlns="http://www.w3.org/2000/svg" xml:space="preserve" width="0.238638in" height="0.354331in" version="1.1" style="shape-rendering:geometricPrecision; text-rendering:geometricPrecision; image-rendering:optimizeQuality; fill-rule:evenodd; clip-rule:evenodd"
viewBox="0 0 4.09 6.07"
 xmlns:xlink="http://www.w3.org/1999/xlink"
 xmlns:xodm="http://www.corel.com/coreldraw/odm/2003">
 <defs>
  <style type="text/css">
   <![CDATA[
    .fil0 {fill:#00A0E3}
    .fil1 {fill:#F9FCFD}
    .fil2 {fill:#FDFDFD}
   ]]>
  </style>
 </defs>
 <g id="Layer_x0020_1">
  <metadata id="CorelCorpID_0Corel-Layer"/>
  <g id="_1808002642880">
   <path class="fil0" d="M0.07 5.26c0,0.05 0.21,0.18 0.26,0.2 0.16,0.05 1.09,0.03 1.28,0.03l-0.01 -0.2 -0.93 -0c-0.5,0.01 -0.46,-0.16 -0.46,-0.62l-0 -1.57c-0,-0.28 -0.02,-0.47 0.23,-0.53 0.84,-0.02 1.85,-0 2.72,-0 0.39,0 0.43,0.11 0.43,0.48 -0,0.6 -0,1.2 0,1.79 0,0.39 -0.07,0.45 -0.46,0.45 -0.28,-0 -0.65,-0.02 -0.92,0.01l0.01 0.19c0.18,0.02 0.99,0.03 1.16,0 0.4,-0.06 0.41,-0.38 0.41,-0.79l0 -1.77c-0,-0.24 -0.07,-0.33 -0.14,-0.47 -0.07,-0.02 -0.09,-0.05 -0.09,-0.05 -0.45,-0.12 -1.11,-0.06 -1.61,-0.06 -0.31,0 -1.38,-0.04 -1.6,0.02 -0.48,0.12 -0.35,0.78 -0.35,1.29 0,0.42 -0.05,1.25 0.05,1.61z"/>
   <path class="fil1" d="M2.38 5.6c0.1,0.04 0.08,0.2 0.03,0.24 -0.06,0.06 -0.98,0.02 -0.98,0.02 -0.09,-0.03 -0.08,-0.18 -0.04,-0.23 0.03,-0.03 0.03,-0.03 0.14,-0.04 0.05,-0 0.12,0 0.17,0l0.67 0.01zm-0.14 -0.54l-0.15 0 -0.03 0.43c-0.08,0.01 -0.25,0.04 -0.3,-0.03l-0.01 -0.4 -0.13 -0 0.02 0.14c-0.07,-0.01 -0.06,-0.02 -0.06,-0.02 -0,-0 -0.01,-0.01 -0.02,-0.01l-0.05 -0.08c-0.08,0.08 -0.06,0.02 -0.06,0.1l0.02 0.04c0,-0 0.01,0 0.01,0.01l-1.09 0.02c0.07,0.06 0.1,0.04 0.27,0.04l0.93 0 0.01 0.2c-0.2,0 -1.13,0.03 -1.28,-0.03 -0.14,-0.05 -0.14,-0.12 -0.26,-0.17l-0.01 0.05c-0.02,0.34 0.06,0.26 0.42,0.23 0.14,-0.01 0.34,-0.01 0.51,-0.01l0 0.45c0.38,0 0.12,0.02 0.36,-0.07 -0,0.01 -0.02,0 -0.02,0.02 -0,0.01 -0.01,0.01 -0.02,0.02l-0.02 0.04c-0,0.01 0,0.02 0,0.02 -0,0.01 0,0.02 0,0.03 0.14,-0.09 0.02,-0.03 0.31,-0.04l0.79 0.01c0.01,0 0.02,0 0.02,0l0.06 0c0.07,-0.01 0.08,-0.03 0.22,-0.03 -0.09,0.06 0.01,-0.03 0.03,-0.14 0.01,-0.07 0.01,-0.22 0.01,-0.3l0.45 -0c-0.07,-0.04 -0.79,0.01 -0.92,-0.06l-0.04 -0.02 -0.01 -0.19c0.27,-0.03 0.64,-0.01 0.92,-0.01 0.38,0 0.46,-0.06 0.46,-0.45 -0,-0.6 -0,-1.2 -0,-1.79 0,-0.37 -0.04,-0.48 -0.43,-0.48 -0.87,-0 -1.88,-0.02 -2.72,0 0.05,0.05 0.02,0.03 0.11,0.05l2.78 -0.03c-0.01,0.01 -0.02,0.01 -0.02,0.02l-0.04 0.04c-0.07,0.08 -0.05,0.07 -0.06,0.14 0.1,0.05 0.12,-0.01 0.12,0.1 0,0.01 -0.01,0.05 -0.02,0.06l-0.01 2.17c-0.19,0.06 -0.38,0.04 -0.59,0.04l-0.41 -0.02c-0.07,-0 -0.06,0.05 -0.06,0.05l0.73 -0.01c0.27,-0 0.21,0 0.25,0.06l-0.98 0c-0.06,-0.11 0.03,-0.11 -0.11,-0.08 0.11,-0.01 0.07,0.01 0.11,-0.09z"/>
   <path class="fil2" d="M3.66 2.46c0.07,0.14 0.14,0.23 0.14,0.47l-0 1.77c0,0.41 -0.01,0.74 -0.41,0.79 -0.18,0.03 -0.98,0.02 -1.16,-0l0.04 0.02 0.04 0.02c0.12,0.03 0.95,0.01 1.08,0.01l-0.02 0.02c0,0 -0.03,0.07 0.15,0.06 0.13,-0.01 0.26,-0.09 0.56,-0.03 -0.05,-1.03 -0.01,-2.07 -0.02,-3.1l-0.34 -0.03c-0.15,-0 0,-0.03 -0.07,0.01z"/>
   <path class="fil0" d="M2.29 2.16c0.13,0.07 0.49,0.1 0.66,0.02 0.03,-0.2 0.03,-1.09 0.01,-1.3 -0.02,-0.21 -0.16,-0.18 -0.17,-0.48 -0,-0.36 0.1,-0.44 -0.3,-0.39 -0.01,0.13 0,0.47 -0.03,0.56 -0.06,0.19 -0.15,0.15 -0.15,0.42 -0,0.26 0.04,0.97 -0.02,1.17z"/>
   <path class="fil0" d="M1.35 3.85c0.18,0.01 0.99,0.03 1.13,-0.02 0.01,-0.13 0.05,-0.42 -0.02,-0.51 -0.08,-0.06 -0.92,-0.03 -1.09,-0.02 -0.06,0.13 -0.04,0.4 -0.02,0.54z"/>
   <path class="fil0" d="M0.9 0.67c-0.06,0.33 -0.07,0.72 0.2,0.82l-0.05 0.56c-0.13,0.05 -0.12,0 -0.14,0.08 -0.04,0.14 0.68,0.16 0.49,-0.05l-0.14 -0.02 0 -0.56c0.12,-0.07 0.2,-0.12 0.21,-0.31 0.01,-0.15 0.01,-0.37 -0.02,-0.52l-0.53 -0.01 -0.03 0.01z"/>
   <path class="fil1" d="M1.35 3.85c-0.02,-0.14 -0.04,-0.41 0.02,-0.54 0.18,-0.01 1.01,-0.04 1.09,0.02 0.07,0.08 0.04,0.37 0.02,0.51 -0.14,0.04 -0.95,0.03 -1.13,0.02zm0.42 0.19c0.26,-0.03 0.3,-0.06 0.3,0.18 -0,0.19 -0,0.38 -0,0.56 0.18,0 0.04,0.01 0.09,-0.06 -0.03,-0.15 -0.07,-0.49 0.06,-0.59 0.07,-0.06 0.17,-0.08 0.29,-0.13 0.09,-0.27 0.05,-0.43 0.07,-0.6 0.04,-0.37 0.05,-0.13 -0.11,-0.36 -0.05,-0.07 -0.05,-0.12 -0.15,-0.14 0,0.17 0,0.13 -0.03,0.28l-0.81 -0c-0.08,0 -0.13,0 -0.23,0.07 0,0.11 0,0.22 -0,0.34 -0,0.05 -0,0.12 0,0.17 0.01,0.17 -0.02,0.08 0.06,0.18 -0.07,-0.08 0.02,0.03 -0.03,-0.05l-0.07 -0.1c-0,0.01 -0.01,0.05 -0.01,0.06 -0,0.01 -0,0.02 -0,0.03 0.01,0.19 -0,0.04 0.06,0.09 0,0 0.01,0.01 0.01,0.01 0,0 0.02,0.01 0.02,0.01 0,0 0.01,0.01 0.01,0.01l0.31 0.02c0.01,0 0.02,0 0.02,0.01l0.15 0.01z"/>
   <path class="fil0" d="M1.63 5.06l0.13 0 0.01 0.4 0.29 0 -0 -0.33c0.02,-0.1 -0,-0.04 0.04,-0.08l0.15 -0c0.06,-0.08 0.04,-0.09 0.03,-0.21l-0.21 -0.01 -0 -0.06c-0,-0.19 -0,-0.38 0,-0.56 0,-0.24 -0.03,-0.2 -0.3,-0.18l-0.01 0.79c-0.19,0.03 -0.22,-0.03 -0.21,0.2 0.03,0.02 0.03,0.02 0.08,0.03z"/>
   <path class="fil0" d="M2.34 1.03c0.01,0.01 0.01,0.01 0.01,0.02 0.01,0.04 0.07,0.08 0.12,0.08l0 0.85 0.29 0.02c0,-0.2 0.03,-0.62 0,-0.79 -0.03,-0.23 -0.01,0.01 -0.13,-0.17 -0,-0 -0.03,-0.08 -0.03,-0.08 -0.05,-0.2 0.09,-0.13 0.2,-0.2 -0.09,-0.22 -0.03,-0.37 -0.08,-0.62 -0.11,0.01 -0.06,-0.02 -0.14,0.06l0.01 0.34c-0.02,0.26 -0.22,0.31 -0.25,0.49z"/>
   <path class="fil0" d="M1.4 5.63c-0.05,0.05 -0.05,0.2 0.04,0.23 0,0 0.92,0.04 0.98,-0.02 0.05,-0.04 0.06,-0.21 -0.03,-0.24l-0.67 -0.01c-0.05,-0 -0.12,-0 -0.17,-0 -0.11,0.01 -0.11,0.01 -0.14,0.04z"/>
  </g>
 </g>
</svg>
