<?xml version="1.0" encoding="UTF-8"?>
<!DOCTYPE svg PUBLIC "-//W3C//DTD SVG 1.1//EN" "http://www.w3.org/Graphics/SVG/1.1/DTD/svg11.dtd">
<!-- Creator: CorelDRAW 2021 (64-Bit) -->
<svg xmlns="http://www.w3.org/2000/svg" xml:space="preserve" width="0.300524in" height="0.318894in" version="1.1" style="shape-rendering:geometricPrecision; text-rendering:geometricPrecision; image-rendering:optimizeQuality; fill-rule:evenodd; clip-rule:evenodd"
viewBox="0 0 5.85 6.2"
 xmlns:xlink="http://www.w3.org/1999/xlink"
 xmlns:xodm="http://www.corel.com/coreldraw/odm/2003">
 <defs>
  <style type="text/css">
   <![CDATA[
    .str0 {stroke:#00A0E3;stroke-width:0.15;stroke-miterlimit:22.9256}
    .fil0 {fill:#00A0E3}
   ]]>
  </style>
 </defs>
 <g id="Layer_x0020_1">
  <metadata id="CorelCorpID_0Corel-Layer"/>
  <g id="_1808006082672">
   <path class="fil0" d="M0.32 1.11l0.31 0c0,-0.15 -0.04,-0.43 0.21,-0.48 0.12,-0.03 0.53,-0.01 0.68,-0.01l3.47 0c0.3,0.03 0.23,0.35 0.25,0.48l0.3 0.01 0 -1.11 -5.22 -0 0 1.11z"/>
   <path class="fil0" d="M1.31 0.89c0.17,-0.01 0.1,0.05 0.21,0.14 0.05,0.04 0.01,-0.02 0.06,0.05 -0.07,0.03 -0.09,0.01 -0.16,-0.02l-0 0.74c-0.23,0.12 -0.31,0.15 -0.42,0.4 -0.08,0.19 -0.1,0.51 0.01,0.7l1.04 0.01c0.24,-0.36 -0.06,-1.1 -0.4,-1.09 -0.1,-0.12 -0.01,-0.68 -0.04,-0.76l-0.21 -0.18 0.03 -0.09 -0.23 -0c0.03,0.05 0.07,0.08 0.12,0.11z"/>
   <path class="fil0" d="M2.27 2.37c0.09,0.04 0.07,0.03 0.16,0.12 0,0 0.01,0.01 0.01,0.01 0,0 0.01,0.01 0.01,0.01 0.27,0.27 0.32,0.41 0.57,0.36 0.06,-0.01 0.09,-0.07 0.13,-0.11 0.09,-0.1 0.18,-0.2 0.29,-0.26 -0.01,0.16 -0.02,0.13 -0.23,0.33 -0.05,0.05 -0.05,0.07 -0.07,0.04l0.23 0c0.13,-0.12 0.15,-0.9 -0.41,-1.07 0,-0.21 0,-0.42 0,-0.63 -0,-0.16 -0.02,-0.14 0.07,-0.23 0.06,-0.06 0.09,-0.11 0.16,-0.16l-0.67 -0.01 0.07 0.09c0.15,0.15 0.16,0.09 0.16,0.31 -0,0.19 0.02,0.44 -0.01,0.62 -0.17,0.09 -0.19,0.08 -0.31,0.22 -0.08,0.1 -0.11,0.21 -0.15,0.36z"/>
   <path class="fil0" d="M2.76 2.91l0.63 0 -0.01 -0.03 -0.23 0c0.03,0.03 0.02,0.01 0.07,-0.04 0.21,-0.2 0.22,-0.17 0.23,-0.33 -0.12,0.06 -0.2,0.16 -0.29,0.26 -0.04,0.04 -0.07,0.1 -0.13,0.11 -0.25,0.05 -0.3,-0.09 -0.57,-0.36 -0,-0 -0.01,-0.01 -0.01,-0.01 -0,-0 -0.01,-0.01 -0.01,-0.01 -0.09,-0.09 -0.07,-0.08 -0.16,-0.12 -0.02,0.18 -0.03,0.39 0.06,0.54l0.42 -0z"/>
   <path class="fil0" d="M1.65 1.82l-0.01 -0.83 0.17 -0.13c0.05,-0.05 0.02,-0.01 0.05,-0.08l-0.45 0 -0.03 0.09 0.21 0.18c0.03,0.08 -0.05,0.64 0.04,0.76z"/>
   <path class="fil0" d="M1.31 0.89c0.04,0.06 0.09,0.07 0.11,0.17 0.08,0.03 0.09,0.05 0.16,0.02 -0.05,-0.07 -0,-0.01 -0.06,-0.05 -0.11,-0.09 -0.04,-0.15 -0.21,-0.14z"/>
   <path class="fil0 str0" d="M4.39 1.51c0.18,-0.02 0.34,0.02 0.34,0.19 0.03,0.03 0.01,-0 0.03,0.05 0,0.01 0.01,0.06 0.01,0.07 -0,0.12 0.01,0.07 -0.04,0.09l-0.52 0c0,-0.19 -0,-0.32 0.14,-0.37l0.04 -0.03z"/>
   <path class="fil0 str0" d="M1.24 6.12l0 0c0.1,-0.05 -0.03,0.03 -0,0zm3.52 -4.09l-0 0.57c0.62,0.01 0.33,0.55 0.41,1.34 0.13,0.02 0.38,-0.03 0.46,0.03 0.21,0.07 0.2,0.37 -0.09,0.4l0 1.74 -2.36 0c-0.06,-0.01 -0.04,-0.02 -0.06,-0.03l-0.04 -0.03c-0.05,-0.03 -0.05,-0.01 -0.1,-0.03l0 -0.3 -0.12 -0 -0.11 0c0,0.42 0.01,0.27 -0.09,0.33l-0.07 0.06 -0.28 -0c-0.67,0 -0.44,0.01 -0.55,-0.06 -0,-0 -0.01,-0.01 -0.02,-0.01 -0.04,-0.02 -0.04,-0 -0.09,-0.03l-0 -0.3 -0.23 -0 -0 0.3c-0.06,0.03 -0.05,-0.01 -0.12,0.05 -0,0 -0.01,0.01 -0.01,0.01 -0.02,0.02 -0.03,0.03 -0.04,0.03l-0.83 0c-0.15,-0.01 -0.07,0.02 -0.09,-0.04l-0.01 -1.69 -0.1 -0c-0.06,-0.07 -0.11,-0.06 -0.13,-0.18 -0.01,-0.09 0.03,-0.15 0.06,-0.21 0.05,-0.01 0.02,0.03 0.07,-0.03l3.59 -0.01c0.11,-0.71 -0.24,-1.32 0.41,-1.35l0.01 -0.57 0.54 0z"/>
  </g>
 </g>
</svg>
