<?xml version="1.0" encoding="UTF-8"?>
<!DOCTYPE svg PUBLIC "-//W3C//DTD SVG 1.1//EN" "http://www.w3.org/Graphics/SVG/1.1/DTD/svg11.dtd">
<!-- Creator: CorelDRAW 2021 (64-Bit) -->
<svg xmlns="http://www.w3.org/2000/svg" xml:space="preserve" width="0.193878in" height="0.354331in" version="1.1" style="shape-rendering:geometricPrecision; text-rendering:geometricPrecision; image-rendering:optimizeQuality; fill-rule:evenodd; clip-rule:evenodd"
viewBox="0 0 2.62 4.78"
 xmlns:xlink="http://www.w3.org/1999/xlink"
 xmlns:xodm="http://www.corel.com/coreldraw/odm/2003">
 <defs>
  <style type="text/css">
   <![CDATA[
    .fil0 {fill:#00A0E3}
   ]]>
  </style>
 </defs>
 <g id="Layer_x0020_1">
  <metadata id="CorelCorpID_0Corel-Layer"/>
  <path class="fil0" d="M0.34 4.78l1.93 0c0.19,0 0.34,-0.15 0.34,-0.34l0 -2.68 -2.62 0 0 2.68c0,0.19 0.15,0.34 0.34,0.34zm0.03 -2.86c0.04,0 0.07,0.03 0.07,0.07l0 0.66c0,0.04 -0.03,0.07 -0.07,0.07 -0.04,0 -0.07,-0.03 -0.07,-0.07l0 -0.66c0,-0.04 0.03,-0.07 0.07,-0.07zm0 -1.1c0.04,0 0.07,0.03 0.07,0.07l0 0.36c0,0.04 -0.03,0.07 -0.07,0.07 -0.04,0 -0.07,-0.03 -0.07,-0.07l0 -0.36c0,-0.04 0.03,-0.07 0.07,-0.07zm2.25 0.7l0 -1.18c0,-0.19 -0.15,-0.34 -0.34,-0.34l-1.93 0c-0.19,0 -0.34,0.15 -0.34,0.34l0 1.18 2.62 0z"/>
 </g>
</svg>
