<?xml version="1.0" encoding="UTF-8"?>
<!DOCTYPE svg PUBLIC "-//W3C//DTD SVG 1.1//EN" "http://www.w3.org/Graphics/SVG/1.1/DTD/svg11.dtd">
<!-- Creator: CorelDRAW 2021 (64-Bit) -->
<svg xmlns="http://www.w3.org/2000/svg" xml:space="preserve" width="0.246071in" height="0.354331in" version="1.1" style="shape-rendering:geometricPrecision; text-rendering:geometricPrecision; image-rendering:optimizeQuality; fill-rule:evenodd; clip-rule:evenodd"
viewBox="0 0 4.72 6.79"
 xmlns:xlink="http://www.w3.org/1999/xlink"
 xmlns:xodm="http://www.corel.com/coreldraw/odm/2003">
 <defs>
  <style type="text/css">
   <![CDATA[
    .fil0 {fill:#00A0E3}
   ]]>
  </style>
 </defs>
 <g id="Layer_x0020_1">
  <metadata id="CorelCorpID_0Corel-Layer"/>
  <path class="fil0" d="M2.43 4.06c0.06,0.1 0.1,0.26 0.03,0.42 -0.16,0.4 -0.17,0.83 -0.12,1.25 0.06,0.55 0.43,0.84 0.92,1 0.06,0.02 0.12,0.06 0.2,0.04 -0.02,-0.08 -0.08,-0.12 -0.12,-0.18 -0.21,-0.3 -0.22,-0.67 -0.03,-0.98 0.2,-0.3 0.56,-0.46 0.92,-0.37 0.11,0.03 0.15,0.01 0.15,-0.1 0,-0.41 -0.02,-0.83 -0.11,-1.23 -0.12,-0.53 -0.31,-0.68 -0.97,-0.45 -0.15,0.05 -0.28,0.14 -0.37,0.26 -0.08,0.1 -0.19,0.1 -0.27,0.06 -0.08,-0.04 -0.04,-0.15 -0.02,-0.23 0.07,-0.3 0.25,-0.55 0.42,-0.81 0.28,-0.42 0.63,-0.79 0.88,-1.23 0.14,-0.26 0.23,-0.53 0.17,-0.83 -0.06,-0.32 -0.24,-0.55 -0.56,-0.64 -0.31,-0.09 -0.59,-0.01 -0.83,0.2 -0.21,0.18 -0.31,0.42 -0.38,0.68 -0.35,1.29 -0.69,2.57 -1.04,3.86 -0.09,0.35 -0.18,0.71 -0.29,1.05 -0.05,0.18 -0.21,0.3 -0.32,0.45 -0.04,0.06 -0.14,0.02 -0.22,0.03 -0.2,0.01 -0.37,0.07 -0.45,0.27 -0.06,0.15 -0.02,0.21 0.14,0.21 0.65,0 1.31,0 1.96,0 0.17,0 0.2,-0.04 0.13,-0.21 -0.07,-0.18 -0.23,-0.27 -0.47,-0.28 -0.27,-0 -0.5,-0.3 -0.43,-0.55 0.35,-1.32 0.7,-2.63 1.05,-3.95 0.08,-0.31 0.17,-0.62 0.27,-0.93 0.06,-0.19 0.16,-0.36 0.32,-0.47 0.19,-0.12 0.38,-0.15 0.58,-0.04 0.19,0.11 0.25,0.3 0.24,0.51 -0.02,0.36 -0.23,0.63 -0.43,0.91 -0.32,0.43 -0.67,0.84 -0.91,1.32 -0.15,0.3 -0.23,0.6 -0.05,0.94zm1.59 1.37c-0.35,0.02 -0.65,0.31 -0.65,0.66 0,0.37 0.3,0.67 0.67,0.66 0.38,-0 0.68,-0.3 0.67,-0.67 -0.01,-0.4 -0.36,-0.67 -0.69,-0.65z"/>
 </g>
</svg>
