<?xml version="1.0" encoding="UTF-8"?>
<!DOCTYPE svg PUBLIC "-//W3C//DTD SVG 1.1//EN" "http://www.w3.org/Graphics/SVG/1.1/DTD/svg11.dtd">
<!-- Creator: CorelDRAW 2021 (64-Bit) -->
<svg xmlns="http://www.w3.org/2000/svg" xml:space="preserve" width="0.205638in" height="0.354331in" version="1.1" style="shape-rendering:geometricPrecision; text-rendering:geometricPrecision; image-rendering:optimizeQuality; fill-rule:evenodd; clip-rule:evenodd"
viewBox="0 0 3.77 6.49"
 xmlns:xlink="http://www.w3.org/1999/xlink"
 xmlns:xodm="http://www.corel.com/coreldraw/odm/2003">
 <defs>
  <style type="text/css">
   <![CDATA[
    .fil0 {fill:#00A0E3}
   ]]>
  </style>
 </defs>
 <g id="Layer_x0020_1">
  <metadata id="CorelCorpID_0Corel-Layer"/>
  <path class="fil0" d="M0.21 4.64c-0.06,0.36 -0.15,0.72 -0.2,1.09 -0.04,0.27 0.09,0.4 0.37,0.4 0.36,0 0.73,0 1.09,0l0 0c0.36,0 0.72,0 1.08,0 0.27,0 0.41,-0.14 0.37,-0.4 -0.06,-0.38 -0.13,-0.76 -0.21,-1.14 -0.03,-0.15 -0.15,-0.25 -0.31,-0.25 -0.62,0 -1.24,-0 -1.86,0 -0.19,0 -0.3,0.11 -0.33,0.3zm0.93 0.27c0,-0.18 0.15,-0.31 0.33,-0.31 0.18,0 0.32,0.15 0.32,0.33 -0.01,0.17 -0.15,0.31 -0.32,0.31 -0.18,-0 -0.33,-0.15 -0.33,-0.32zm-0.51 0.85c-0,-0.06 0.03,-0.1 0.1,-0.11l0 0c0.06,0 0.1,0.03 0.11,0.1 0.01,0.07 -0.02,0.12 -0.1,0.13 -0.07,0.01 -0.11,-0.04 -0.11,-0.11zm1.47 -0.01c0,-0.07 0.05,-0.09 0.1,-0.1 0.06,0.01 0.11,0.04 0.11,0.11 0,0.07 -0.04,0.12 -0.11,0.12 -0.07,-0 -0.1,-0.06 -0.1,-0.12zm-0.88 -0.1c0.07,-0 0.11,0.04 0.11,0.13 -0.01,0.05 -0.04,0.1 -0.11,0.1 -0.07,-0 -0.11,-0.05 -0.11,-0.12 0,-0.06 0.05,-0.1 0.11,-0.1zm0.49 0c0.07,0 0.11,0.05 0.12,0.12 -0.01,0.06 -0.05,0.1 -0.11,0.1 -0.07,-0 -0.11,-0.05 -0.11,-0.12 0,-0.07 0.05,-0.1 0.11,-0.1zm-0.46 -0.73c0.01,0.13 0.08,0.2 0.21,0.2 0.13,-0 0.2,-0.07 0.21,-0.21l0 0c-0.01,-0.12 -0.08,-0.2 -0.21,-0.21 -0.12,-0.01 -0.23,0.1 -0.22,0.22zm1.31 1.34c-0.73,-0 -1.47,-0 -2.21,-0 -0.09,0 -0.18,0 -0.19,0.11 -0,0.12 0.09,0.13 0.19,0.13 0.36,-0 0.73,0 1.09,-0 0.37,0 0.74,0 1.11,0 0.1,0 0.19,-0.01 0.19,-0.13 -0,-0.11 -0.11,-0.11 -0.19,-0.11zm-0.39 -2.05c0.23,0 0.41,-0.15 0.43,-0.38 0.07,-0.6 0.14,-1.2 0.21,-1.79 0.02,-0.14 0.03,-0.27 0.05,-0.41 0,-0.04 0.02,-0.07 0.06,-0.09 0.11,-0.07 0.38,-0.08 0.48,-0.01 0.11,0.08 0.14,0.27 0.08,0.44 -0.09,0.25 -0.26,0.46 -0.39,0.69 -0.09,0.16 -0.19,0.32 -0.2,0.52 -0.01,0.09 0,0.18 0.11,0.19 0.1,0.01 0.11,-0.08 0.13,-0.16 0.04,-0.22 0.16,-0.41 0.28,-0.59 0.1,-0.16 0.21,-0.32 0.28,-0.51 0.01,-0.02 0.02,-0.04 0.03,-0.06 0.16,-0.51 -0.14,-0.88 -0.67,-0.81 -0.12,0.02 -0.14,-0.01 -0.13,-0.12 0.02,-0.38 -0.14,-0.55 -0.52,-0.55 -0.16,0 -0.32,0 -0.48,0 -0.15,0 -0.31,0 -0.46,0l-0 0c-0.32,0 -0.64,-0 -0.96,0 -0.34,0 -0.52,0.18 -0.49,0.52 0.07,0.69 0.16,1.37 0.23,2.06 0.02,0.21 0.05,0.42 0.07,0.63 0.02,0.26 0.19,0.42 0.46,0.43 0.47,0 0.94,0 1.41,0zm0.32 -1.44c-0.04,0.31 -0.07,0.63 -0.11,0.94 -0.03,0.21 -0.09,0.27 -0.3,0.27 -0.39,0 -0.77,0 -1.16,0 -0.32,0 -0.36,-0.05 -0.4,-0.37 -0.09,-0.82 -0.19,-1.65 -0.29,-2.47 -0.03,-0.24 0.03,-0.31 0.27,-0.31 0.32,0 0.64,0 0.96,0 0,0 0,0 0,0 0.31,0 0.62,0 0.93,0 0.25,0 0.31,0.07 0.27,0.33 -0.07,0.54 -0.13,1.07 -0.19,1.61zm-1.04 -2.3c0.31,0 0.63,0 0.95,0 0.04,0 0.09,0 0.13,-0.01 0.06,-0.01 0.12,-0.05 0.12,-0.12 -0,-0.08 -0.06,-0.12 -0.13,-0.12 -0.18,-0 -0.35,-0 -0.53,0 -0.08,0 -0.13,-0.01 -0.16,-0.1 -0.02,-0.08 -0.09,-0.12 -0.18,-0.12 -0.12,0 -0.23,0 -0.35,0 -0.1,-0 -0.18,0.03 -0.21,0.13 -0.02,0.09 -0.08,0.09 -0.15,0.09 -0.17,0 -0.33,0 -0.5,0 -0.09,0 -0.17,0.03 -0.17,0.12 0,0.09 0.08,0.12 0.17,0.12 0.34,0 0.68,0 1.01,0z"/>
 </g>
</svg>
