<?xml version="1.0" encoding="UTF-8"?>
<!DOCTYPE svg PUBLIC "-//W3C//DTD SVG 1.1//EN" "http://www.w3.org/Graphics/SVG/1.1/DTD/svg11.dtd">
<!-- Creator: CorelDRAW 2021 (64-Bit) -->
<svg xmlns="http://www.w3.org/2000/svg" xml:space="preserve" width="0.299437in" height="0.354335in" version="1.1" style="shape-rendering:geometricPrecision; text-rendering:geometricPrecision; image-rendering:optimizeQuality; fill-rule:evenodd; clip-rule:evenodd"
viewBox="0 0 9.2 10.89"
 xmlns:xlink="http://www.w3.org/1999/xlink"
 xmlns:xodm="http://www.corel.com/coreldraw/odm/2003">
 <defs>
  <style type="text/css">
   <![CDATA[
    .fil0 {fill:#00A0E3}
   ]]>
  </style>
 </defs>
 <g id="Layer_x0020_1">
  <metadata id="CorelCorpID_0Corel-Layer"/>
  <path class="fil0" d="M4.54 5.15c-0.06,1.46 -0.14,2.91 -0.22,4.36 -0.03,0.55 0.06,0.7 0.55,0.92 0.1,0.04 0.15,0.1 0.21,0.18 0.17,0.23 0.45,0.25 0.61,0.01 0.1,-0.15 0.22,-0.17 0.38,-0.17 0.4,0 0.79,0 1.19,0 0.24,0 0.46,-0.04 0.64,0.24 0.11,0.17 0.37,0.16 0.52,-0.04 0.08,-0.11 0.16,-0.18 0.29,-0.24 0.39,-0.15 0.52,-0.33 0.5,-0.76 -0.04,-1 -0.1,-1.99 -0.15,-2.98 -0.02,-0.44 -0.06,-0.88 -0.05,-1.32 0.02,-1.19 -0.82,-1.66 -1.62,-1.78 -0.33,-0.05 -0.44,-0.16 -0.5,-0.47 -0.16,-0.86 -0.46,-1.67 -1.06,-2.34 -0.96,-1.07 -2.37,-1.02 -3.27,0.12 -0.59,0.74 -0.83,1.61 -0.86,2.54 -0.03,0.9 -0.01,1.8 -0.01,2.7l-0 0c0,0.93 -0,1.86 0,2.8 0,0.18 -0.03,0.27 -0.24,0.27 -0.27,0 -0.44,0.19 -0.51,0.42 -0.07,0.24 -0.18,0.32 -0.43,0.33 -0.36,0.02 -0.55,0.29 -0.51,0.64 0.02,0.13 0.08,0.22 0.2,0.27 0.13,0.05 0.26,0.02 0.34,-0.1 0.13,-0.2 0.22,-0.26 0.39,-0.02 0.14,0.22 0.35,0.2 0.5,-0.02 0.13,-0.18 0.22,-0.2 0.36,0 0.17,0.23 0.36,0.23 0.51,-0 0.14,-0.21 0.22,-0.17 0.35,0 0.18,0.24 0.37,0.23 0.54,-0.02 0.1,-0.16 0.19,-0.17 0.29,-0.03 0.13,0.18 0.27,0.31 0.47,0.16 0.21,-0.16 0.17,-0.38 0.07,-0.58 -0.1,-0.2 -0.27,-0.3 -0.5,-0.29 -0.18,0.01 -0.28,-0.04 -0.35,-0.24 -0.09,-0.29 -0.27,-0.51 -0.62,-0.52 -0.21,-0.01 -0.14,-0.18 -0.14,-0.29 -0.01,-1.18 -0.01,-2.36 0,-3.54 0.01,-0.83 -0.07,-1.67 0.09,-2.5 0.11,-0.61 0.32,-1.17 0.76,-1.63 0.59,-0.63 1.34,-0.64 1.95,-0.04 0.52,0.52 0.75,1.18 0.93,1.87 0.02,0.08 0.02,0.17 0.06,0.25 0.07,0.18 0,0.25 -0.17,0.28 -0.22,0.05 -0.43,0.12 -0.63,0.24 -0.52,0.3 -0.82,0.71 -0.85,1.34zm2.48 1.4c-0.43,0.12 -0.93,-0.08 -1.17,-0.46 -0.26,-0.43 -0.21,-0.94 0.13,-1.3 0.09,-0.09 0.21,-0.26 0.33,-0.15 0.1,0.08 0.09,0.28 -0,0.42 -0.02,0.03 -0.04,0.05 -0.06,0.08 -0.21,0.32 -0.18,0.63 0.08,0.86 0.23,0.2 0.63,0.2 0.85,-0 0.24,-0.22 0.28,-0.58 0.06,-0.87 -0.09,-0.12 -0.14,-0.24 -0.13,-0.38 0,-0.06 -0.03,-0.14 0.05,-0.17 0.07,-0.03 0.12,0.01 0.17,0.05 0.29,0.21 0.48,0.48 0.48,0.86l-0 0c0.01,0.53 -0.28,0.91 -0.79,1.06z"/>
 </g>
</svg>
