<?xml version="1.0" encoding="UTF-8"?>
<!DOCTYPE svg PUBLIC "-//W3C//DTD SVG 1.1//EN" "http://www.w3.org/Graphics/SVG/1.1/DTD/svg11.dtd">
<!-- Creator: CorelDRAW 2021 (64-Bit) -->
<svg xmlns="http://www.w3.org/2000/svg" xml:space="preserve" width="0.203787in" height="0.344472in" version="1.1" style="shape-rendering:geometricPrecision; text-rendering:geometricPrecision; image-rendering:optimizeQuality; fill-rule:evenodd; clip-rule:evenodd"
viewBox="0 0 5.14 8.69"
 xmlns:xlink="http://www.w3.org/1999/xlink"
 xmlns:xodm="http://www.corel.com/coreldraw/odm/2003">
 <defs>
  <style type="text/css">
   <![CDATA[
    .fil0 {fill:#00A0E3}
   ]]>
  </style>
 </defs>
 <g id="Layer_x0020_1">
  <metadata id="CorelCorpID_0Corel-Layer"/>
  <path class="fil0" d="M0.66 5.99c-0.01,0.3 -0,0.6 0,0.9 0,0.3 0.17,0.46 0.47,0.47 0.47,0.01 0.94,0 1.42,0l0 0.01c0.47,0 0.94,0 1.42,0 0.25,0 0.42,-0.1 0.49,-0.35 0.03,-0.12 0.13,-0.17 0.2,-0.25 0.35,-0.33 0.57,-0.71 0.46,-1.21 -0.06,-0.26 -0.21,-0.42 -0.48,-0.44 -0.15,-0.01 -0.24,-0.07 -0.31,-0.2 -0.16,-0.3 -0.38,-0.45 -0.76,-0.43 -0.75,0.03 -1.51,0 -2.26,0.01 -0.32,0 -0.6,0.15 -0.91,0.23 -0.08,0.02 -0.12,0.08 -0.04,0.16 0.31,0.32 0.32,0.71 0.31,1.12zm3.81 0.39c-0,-0.15 0,-0.3 0,-0.45l-0 0c0,-0.13 -0,-0.25 0,-0.38 0,-0.07 -0.03,-0.15 0.05,-0.19 0.08,-0.04 0.15,0.02 0.21,0.07 0.07,0.05 0.12,0.13 0.13,0.21 0.03,0.3 -0.08,0.55 -0.28,0.77 -0.07,0.07 -0.11,0.05 -0.11,-0.04zm-2.74 -2.26c0.64,0 1.29,-0.01 1.93,0.01 0.25,0.01 0.37,-0.1 0.46,-0.31 0.21,-0.54 0.32,-1.1 0.4,-1.67 0.1,-0.63 0.16,-1.26 0.26,-1.89 0.04,-0.24 -0.05,-0.27 -0.24,-0.27 -0.65,0.01 -1.31,0 -1.96,0l0 -0c-0.64,0 -1.27,0.01 -1.91,-0 -0.23,-0 -0.32,0.04 -0.29,0.3 0.12,1.08 0.26,2.15 0.53,3.2 0,0.02 0.01,0.03 0.02,0.05 0.18,0.58 0.19,0.59 0.8,0.58zm2.49 3.52c-1.1,0 -2.2,0 -3.3,0 -0.12,0 -0.21,0.03 -0.3,0.11 -0.23,0.2 -0.42,0.42 -0.55,0.7 -0.1,0.22 -0.09,0.24 0.14,0.24 0.79,0 1.59,0 2.38,0l0 -0c0.78,0 1.56,0 2.33,0 0.26,0 0.26,-0.01 0.15,-0.25 -0.14,-0.29 -0.36,-0.51 -0.59,-0.72 -0.08,-0.07 -0.17,-0.07 -0.27,-0.07z"/>
 </g>
</svg>
