<?xml version="1.0" encoding="UTF-8"?>
<!DOCTYPE svg PUBLIC "-//W3C//DTD SVG 1.1//EN" "http://www.w3.org/Graphics/SVG/1.1/DTD/svg11.dtd">
<!-- Creator: CorelDRAW 2021 (64-Bit) -->
<svg xmlns="http://www.w3.org/2000/svg" xml:space="preserve" width="0.302453in" height="0.33463in" version="1.1" style="shape-rendering:geometricPrecision; text-rendering:geometricPrecision; image-rendering:optimizeQuality; fill-rule:evenodd; clip-rule:evenodd"
viewBox="0 0 13.86 15.34"
 xmlns:xlink="http://www.w3.org/1999/xlink"
 xmlns:xodm="http://www.corel.com/coreldraw/odm/2003">
 <defs>
  <style type="text/css">
   <![CDATA[
    .fil0 {fill:#00A0E3}
   ]]>
  </style>
 </defs>
 <g id="Layer_x0020_1">
  <metadata id="CorelCorpID_0Corel-Layer"/>
  <path class="fil0" d="M10.19 7.7c-0.11,0 -0.24,-0.01 -0.24,-0.16 0,-0.14 0.13,-0.17 0.24,-0.17 0.33,0 0.66,0 0.99,0 0.35,0 0.7,-0 1.05,0 0.12,0 0.22,0.05 0.2,0.19 -0.01,0.11 -0.12,0.13 -0.21,0.13 -0.68,0 -1.37,0 -2.05,0zm-6.85 6.68c-0,-0 -0,-0 -0,-0l0 -0c-0,0 -0,0 -0,0zm10.37 -6.24c0.37,-2.3 0.17,-4.51 -1.32,-6.43 -0.93,-1.19 -2.3,-1.51 -3.69,-1.65 -1.85,-0.19 -3.66,0.01 -5.34,0.9 -0.17,0.09 -0.32,0.1 -0.52,0.01 -0.5,-0.22 -0.75,-0.06 -0.82,0.5 -0.03,0.24 -0.12,0.41 -0.27,0.59 -1.36,1.64 -1.81,3.56 -1.74,5.64 0.03,0.78 0.25,0.98 1.04,1.1 0.18,0.03 0.37,0.06 0.55,0.09 0.11,0.02 0.22,0.01 0.28,0.13 0.17,0.31 -0.05,1.61 -0.31,1.86 -0.93,0.89 -0.96,3.18 -0.06,4.1 0.43,0.44 0.94,0.45 1.36,0.01 0.17,-0.18 0.3,-0.41 0.47,-0.64 0.14,0.21 0.24,0.39 0.37,0.54 0.44,0.54 1.06,0.55 1.51,0.01 0.88,-1.03 0.79,-3.15 -0.18,-4.1 -0.21,-0.21 -0.38,-1.37 -0.22,-1.62 0.14,-0.22 0.37,-0.12 0.56,-0.12 2.04,-0.01 4.08,0 6.11,-0 0.44,0 0.88,-0.08 1.32,-0.12 0.55,-0.05 0.82,-0.35 0.89,-0.82zm-10.24 0.85c0.23,0.01 0.49,-0.04 0.67,0.18 0.13,0.16 0.06,1.43 -0.1,1.55 -0.31,0.23 -0.48,0.55 -0.72,0.88l-0 0c-0.23,-0.62 -0.95,-0.89 -0.86,-1.71 0.12,-1.1 -0.13,-0.95 1.01,-0.9zm6.51 -2.33c-0.02,-0.15 0.1,-0.19 0.21,-0.19 0.35,-0 0.7,0 1.06,0l0 -0.01c0.33,0 0.67,-0 1,0 0.12,0 0.22,0.06 0.2,0.2 -0.01,0.11 -0.11,0.14 -0.21,0.14 -0.68,0 -1.37,0 -2.05,0 -0.09,0 -0.19,-0.03 -0.21,-0.14zm-0.02 -0.94c-0.01,-0.19 0.15,-0.19 0.27,-0.19 0.33,0 0.66,0 0.99,0l-0 -0.01c0.33,0 0.66,0 0.99,0 0.12,0 0.23,0.04 0.25,0.17 0.02,0.15 -0.11,0.19 -0.21,0.19 -0.68,0.01 -1.37,0.01 -2.05,0 -0.1,0 -0.24,-0.01 -0.25,-0.16zm0.15 -1.76c-0.8,0.25 -1.62,0.35 -2.39,0.31l-0 -0c-0.33,0 -0.59,0.02 -0.85,0 -0.92,-0.09 -1.85,-0.16 -2.67,-0.64 -0.54,-0.31 -0.62,-0.84 -0.18,-1.28 0.17,-0.17 0.36,-0.33 0.57,-0.43 1.29,-0.59 2.66,-0.79 4.06,-0.63 0.67,0.07 1.35,0.22 1.95,0.59 0.89,0.55 0.89,1.37 -0.02,1.89 -0.14,0.08 -0.3,0.15 -0.45,0.19zm-8.62 8.17l0 1.64c-0.18,-0.54 -0.18,-1.08 0,-1.64zm3.68 1.67l0 -1.7c0.2,0.58 0.2,1.14 0,1.7zm-3.01 -2.37c0.35,0.53 0.34,2.63 -0.01,3.08 -0.25,-1.03 -0.27,-2.04 0.01,-3.08zm0.78 0.87c0.16,0.47 0.18,0.94 0,1.41l0 -1.41zm0.81 1.39c-0.17,-0.46 -0.16,-0.93 0,-1.4l0 1.4zm0.7 0.82c-0.22,-1.01 -0.25,-2.03 0.03,-3.04 0.23,1.02 0.29,2.03 -0.03,3.04z"/>
 </g>
</svg>
