<?xml version="1.0" encoding="UTF-8"?>
<!DOCTYPE svg PUBLIC "-//W3C//DTD SVG 1.1//EN" "http://www.w3.org/Graphics/SVG/1.1/DTD/svg11.dtd">
<!-- Creator: CorelDRAW 2021 (64-Bit) -->
<svg xmlns="http://www.w3.org/2000/svg" xml:space="preserve" width="0.398972in" height="0.19715in" version="1.1" style="shape-rendering:geometricPrecision; text-rendering:geometricPrecision; image-rendering:optimizeQuality; fill-rule:evenodd; clip-rule:evenodd"
viewBox="0 0 31.09 15.36"
 xmlns:xlink="http://www.w3.org/1999/xlink"
 xmlns:xodm="http://www.corel.com/coreldraw/odm/2003">
 <defs>
  <style type="text/css">
   <![CDATA[
    .fil0 {fill:#00A0E3}
   ]]>
  </style>
 </defs>
 <g id="Layer_x0020_1">
  <metadata id="CorelCorpID_0Corel-Layer"/>
  <path class="fil0" d="M24.41 13.18c0.98,-1.5 2.79,-2.09 4.52,-1.63 1.77,0.47 2.31,0.02 2.12,-1.82 -0.08,-0.84 -0.25,-1.66 -0.69,-2.4 -0.79,-1.36 -2.23,-2.03 -3.7,-1.52 -2.68,0.92 -5.44,1.51 -8.22,1.97 -1.29,0.21 -2.62,0.33 -3.87,-0.24 -0.98,-0.45 -1.31,-1.25 -0.88,-2.25 0.61,-1.41 1.82,-1.92 3.25,-1.98 1.41,-0.07 2.83,0.08 4.24,0.19 1.88,0.17 3.76,0.14 5.59,-0.45 0.5,-0.16 0.89,-0.4 0.94,-0.91 0.05,-0.51 -0.33,-0.87 -0.76,-1.09 -0.94,-0.5 -1.98,-0.62 -3.02,-0.75 -2.58,-0.3 -5.19,-0.45 -7.75,0.03 -3.43,0.65 -6.08,2.75 -8.51,5.12 -2.3,2.25 -4.04,4.93 -5.8,7.6 -0.49,0.74 -0.13,0.83 0.52,0.83 3.5,0 7,0 10.5,0 0,0 0.01,0 0.01,0 3.37,0 6.73,0 10.1,0 0.61,0 1.03,-0.09 1.41,-0.68zm-1.63 1.18c-7.01,0 -14,0 -21.01,-0.02 -0.73,0 -1.3,0.16 -1.77,1.02 0.5,0 0.8,0 1.1,0 7.24,0 14.47,0 21.71,0 0.24,0 0.47,0 0.71,-0.01 0.37,0 0.56,-0.19 0.54,-0.57 -0.02,-0.36 -0.29,-0.41 -0.57,-0.42 -0.24,0 -0.47,0 -0.71,0z"/>
 </g>
</svg>
