<?xml version="1.0" encoding="UTF-8"?>
<!DOCTYPE svg PUBLIC "-//W3C//DTD SVG 1.1//EN" "http://www.w3.org/Graphics/SVG/1.1/DTD/svg11.dtd">
<!-- Creator: CorelDRAW 2021 (64-Bit) -->
<svg xmlns="http://www.w3.org/2000/svg" xml:space="preserve" width="0.354327in" height="0.269327in" version="1.1" style="shape-rendering:geometricPrecision; text-rendering:geometricPrecision; image-rendering:optimizeQuality; fill-rule:evenodd; clip-rule:evenodd"
viewBox="0 0 35.86 27.26"
 xmlns:xlink="http://www.w3.org/1999/xlink"
 xmlns:xodm="http://www.corel.com/coreldraw/odm/2003">
 <defs>
  <style type="text/css">
   <![CDATA[
    .fil0 {fill:#00A0E3}
   ]]>
  </style>
 </defs>
 <g id="Layer_x0020_1">
  <metadata id="CorelCorpID_0Corel-Layer"/>
  <path class="fil0" d="M35.85 24.8c0.01,-7.46 0.01,-14.91 0,-22.37 0,-1.62 -0.71,-2.37 -2.31,-2.38 -10.34,-0.03 -20.68,-0.05 -31.01,-0.05 -1.83,0 -2.52,0.74 -2.52,2.59 0,7.42 -0.01,14.83 0,22.25 0,1.72 0.65,2.38 2.39,2.39 5.19,0.02 10.38,0 15.57,0l0 0.02 -0.01 0.01c5.15,0 10.3,0 15.44,0 1.79,0 2.45,-0.65 2.46,-2.46zm-3.76 0.59c0.74,0 1.34,-0.6 1.34,-1.34 0,-0.67 -0.49,-1.23 -1.14,-1.32l-0.03 -0.08 -0.17 -0.46 -0.17 0.46 -0.03 0.08c-0.64,0.1 -1.14,0.65 -1.14,1.32 0,0.74 0.6,1.34 1.34,1.34zm0 -3.92c0.74,0 1.34,-0.6 1.34,-1.34 0,-0.67 -0.49,-1.23 -1.14,-1.32l-0.03 -0.08 -0.17 -0.46 -0.17 0.46 -0.03 0.08c-0.64,0.1 -1.14,0.65 -1.14,1.32 0,0.74 0.6,1.34 1.34,1.34zm0 -3.92c0.74,0 1.34,-0.6 1.34,-1.34 0,-0.67 -0.49,-1.23 -1.14,-1.32l-0.03 -0.08 -0.17 -0.46 -0.17 0.46 -0.03 0.08c-0.64,0.1 -1.14,0.65 -1.14,1.32 0,0.74 0.6,1.34 1.34,1.34zm0 -3.92c0.74,0 1.34,-0.6 1.34,-1.34 0,-0.67 -0.49,-1.23 -1.14,-1.32l-0.03 -0.08 -0.17 -0.46 -0.17 0.46 -0.03 0.08c-0.64,0.1 -1.14,0.65 -1.14,1.32 0,0.74 0.6,1.34 1.34,1.34zm-10.64 -2.24c-2.64,0.02 -4.9,-2.17 -4.85,-4.72 0.05,-2.58 2.2,-4.64 4.82,-4.61 2.56,0.03 4.61,2.1 4.6,4.64 -0.01,2.59 -2.04,4.67 -4.57,4.69zm-9.5 -4.61c-0.03,2.59 -2.17,4.66 -4.79,4.62 -2.52,-0.04 -4.6,-2.16 -4.6,-4.69l0.01 0c0.01,-2.6 2.13,-4.69 4.73,-4.66 2.63,0.03 4.68,2.11 4.65,4.73zm4.65 13.9c-0.02,-2.57 2.23,-4.8 4.85,-4.77 2.44,0.01 4.58,2.23 4.58,4.74 -0.01,2.55 -2.09,4.62 -4.63,4.62l0.01 0.01c-2.65,0 -4.79,-2.05 -4.81,-4.6zm-9.37 -4.81c2.52,-0.04 4.69,2.15 4.71,4.75l-0.01 0.01c0.02,2.54 -2.07,4.65 -4.6,4.65 -2.65,0.01 -4.74,-2.01 -4.77,-4.61 -0.03,-2.55 2.12,-4.76 4.67,-4.81zm0.05 -6.49c1.56,-0.01 2.76,-1.18 2.74,-2.71 -0.02,-1.48 -1.3,-2.72 -2.78,-2.7 -1.52,0.02 -2.78,1.27 -2.74,2.73 0.03,1.51 1.26,2.69 2.78,2.68zm-0.05 -0.83c-1.03,0 -1.86,-0.85 -1.86,-1.88 0.01,-1.03 0.85,-1.84 1.9,-1.84 1.04,0.01 1.86,0.85 1.86,1.89 -0.01,1.04 -0.82,1.83 -1.9,1.83zm2.75 12.01c-0.03,-1.48 -1.23,-2.64 -2.68,-2.61 -1.65,0.04 -2.85,1.23 -2.8,2.77 0.06,1.48 1.36,2.73 2.82,2.69 1.47,-0.04 2.69,-1.34 2.66,-2.84zm-2.69 -1.79c1.04,0.01 1.86,0.84 1.85,1.89 -0.01,1.02 -0.92,1.9 -1.9,1.87 -1,-0.04 -1.89,-0.96 -1.86,-1.92 0.03,-1.05 0.85,-1.84 1.91,-1.84zm11.3 -12.03c0.05,1.55 1.21,2.67 2.8,2.64 1.54,-0.02 2.74,-1.21 2.73,-2.74 -0.01,-1.47 -1.31,-2.7 -2.81,-2.68l-0.01 0.01c-1.52,0.02 -2.75,1.28 -2.71,2.76zm2.75 1.8c-1.1,-0.01 -1.87,-0.77 -1.89,-1.85 -0.01,-0.99 0.89,-1.85 1.9,-1.85 1.01,0.01 1.9,0.87 1.9,1.87 0.01,0.99 -0.88,1.84 -1.91,1.83zm2.78 12.14c0.05,-1.44 -1.23,-2.72 -2.75,-2.74l-0 -0.01c-1.56,-0.03 -2.73,1.11 -2.75,2.69 -0.03,1.5 1.18,2.76 2.7,2.79 1.42,0.03 2.76,-1.27 2.8,-2.73zm-2.76 -1.88c1.08,0.01 1.91,0.84 1.86,1.86 -0.04,1.02 -0.93,1.88 -1.91,1.87l-0.01 0c-1,-0.02 -1.84,-0.9 -1.84,-1.92 0.01,-1.06 0.81,-1.83 1.9,-1.81z"/>
 </g>
</svg>
