<?xml version="1.0" encoding="UTF-8"?>
<!DOCTYPE svg PUBLIC "-//W3C//DTD SVG 1.1//EN" "http://www.w3.org/Graphics/SVG/1.1/DTD/svg11.dtd">
<!-- Creator: CorelDRAW 2021 (64-Bit) -->
<svg xmlns="http://www.w3.org/2000/svg" xml:space="preserve" width="0.354331in" height="0.220508in" version="1.1" style="shape-rendering:geometricPrecision; text-rendering:geometricPrecision; image-rendering:optimizeQuality; fill-rule:evenodd; clip-rule:evenodd"
viewBox="0 0 65.18 40.56"
 xmlns:xlink="http://www.w3.org/1999/xlink"
 xmlns:xodm="http://www.corel.com/coreldraw/odm/2003">
 <defs>
  <style type="text/css">
   <![CDATA[
    .fil0 {fill:#00A0E3}
   ]]>
  </style>
 </defs>
 <g id="Layer_x0020_1">
  <metadata id="CorelCorpID_0Corel-Layer"/>
  <path class="fil0" d="M44.81 30.69c-0.08,-6.92 -0.09,-13.84 0,-20.76 0.04,-1.9 -0.7,-2.26 -2.4,-2.24 -5.32,0.08 -10.65,0.04 -15.97,0.04l0.02 -0.04c-5.48,0 -10.95,0.02 -16.43,0 -1.37,0 -2.09,0.27 -2.07,1.88 0.09,7 0.13,13.99 0.06,20.99 -0.02,1.92 0.65,2.45 2.51,2.45 10.65,-0.08 21.3,-0.08 31.94,0 1.83,0 2.36,-0.55 2.34,-2.32zm2.7 -21.35c0.04,4.79 0.04,9.56 0,14.36 0,1.29 0.48,1.79 1.73,1.75 2.13,-0.04 4.26,-0.02 6.39,0 1.22,0.02 1.77,-0.42 1.73,-1.75 -0.09,-2.36 -0.02,-4.72 -0.02,-7.05l-0.04 0.02c0,-2.36 -0.04,-4.72 0,-7.05 0.04,-1.35 -0.49,-1.94 -1.86,-1.9 -2.13,0.06 -4.26,0.06 -6.37,0 -1.18,0 -1.58,0.47 -1.56,1.63zm8.06 18.98c-2.11,0 -4.24,0 -6.35,0 -1.88,-0.02 -1.67,1.27 -1.71,2.51 -0.04,1.31 0.17,2.26 1.81,2.15 1.04,-0.08 2.11,0 3.17,0l0.02 -0.02c0.68,0 1.37,0 2.03,0 2.62,0 3,-0.49 2.78,-3.06 -0.09,-1.18 -0.66,-1.58 -1.75,-1.58zm-47.42 -23.77c16.29,-0.04 32.59,-0.02 48.88,0 2.49,0 3.61,1.14 3.61,3.67 0.02,7.91 0.04,15.84 0,23.75 -0.02,3.12 -0.86,3.98 -3.92,3.98 -7.99,0.02 -15.99,0 -23.98,0l0 -0.02c-8.14,0 -16.29,0.02 -24.43,0 -2.93,0 -3.61,-0.65 -3.61,-3.44 -0.02,-8.14 -0.02,-16.29 0.02,-24.43 0.02,-2.51 0.91,-3.5 3.42,-3.5zm24.43 -4.51c-8.21,0 -16.45,0 -24.66,0 -4.7,0 -7.8,2.93 -7.85,7.6 -0.1,8.37 -0.1,16.75 -0.02,25.12 0.04,4.91 3.19,7.78 8.46,7.78 15.15,0.02 30.29,0.02 45.44,0 1.67,0 3.33,0.13 5,-0.21 3.61,-0.72 6.14,-3.44 6.16,-7.15 0.08,-8.67 0.08,-17.36 0,-26.03 -0.04,-4.18 -3.44,-7.15 -7.87,-7.15 -8.21,0 -16.45,0 -24.66,0l0 0.04z"/>
 </g>
</svg>
