<?xml version="1.0" encoding="UTF-8"?>
<!DOCTYPE svg PUBLIC "-//W3C//DTD SVG 1.1//EN" "http://www.w3.org/Graphics/SVG/1.1/DTD/svg11.dtd">
<!-- Creator: CorelDRAW 2021 (64-Bit) -->
<svg xmlns="http://www.w3.org/2000/svg" xml:space="preserve" width="0.238787in" height="0.334646in" version="1.1" style="shape-rendering:geometricPrecision; text-rendering:geometricPrecision; image-rendering:optimizeQuality; fill-rule:evenodd; clip-rule:evenodd"
viewBox="0 0 241.65 338.65"
 xmlns:xlink="http://www.w3.org/1999/xlink"
 xmlns:xodm="http://www.corel.com/coreldraw/odm/2003">
 <defs>
  <style type="text/css">
   <![CDATA[
    .fil0 {fill:#00A0E3}
   ]]>
  </style>
 </defs>
 <g id="Layer_x0020_1">
  <metadata id="CorelCorpID_0Corel-Layer"/>
  <path class="fil0" d="M35.28 0l171.08 0c19.41,0 35.28,15.88 35.28,35.28l0 32.02 -241.65 0 0 -32.02c0,-19.41 15.88,-35.28 35.28,-35.28zm159.72 53.26c5.45,0 9.87,-4.42 9.87,-9.87 0,-5.45 -4.42,-9.86 -9.87,-9.86 -5.45,0 -9.86,4.42 -9.86,9.86 0,5.45 4.42,9.87 9.86,9.87zm-90.97 0c5.45,0 9.86,-4.42 9.86,-9.87 0,-5.45 -4.42,-9.86 -9.86,-9.86 -5.45,0 -9.87,4.42 -9.87,9.86 0,5.45 4.42,9.87 9.87,9.87zm-28.7 0c5.45,0 9.86,-4.42 9.86,-9.87 0,-5.45 -4.41,-9.86 -9.86,-9.86 -5.45,0 -9.86,4.42 -9.86,9.86 0,5.45 4.41,9.87 9.86,9.87zm-28.7 0c5.45,0 9.87,-4.42 9.87,-9.87 0,-5.45 -4.42,-9.86 -9.87,-9.86 -5.45,0 -9.86,4.42 -9.86,9.86 0,5.45 4.42,9.87 9.86,9.87zm195.01 25.79l0 224.33c0,19.41 -15.88,35.28 -35.28,35.28l-171.08 0c-19.41,0 -35.28,-15.88 -35.28,-35.28l0 -224.33 241.65 0zm-120.82 184.24c24.51,0 45.58,-14.69 54.91,-35.74 -3.54,-0.97 -6.16,-4.22 -6.16,-8.06l0 -32.47c0,-3.84 2.62,-7.08 6.16,-8.06 -9.33,-21.05 -30.4,-35.74 -54.91,-35.74 -33.16,0 -60.03,26.88 -60.03,60.03 0,33.16 26.88,60.04 60.03,60.04zm0 17.25c42.69,0 77.28,-34.6 77.28,-77.29 0,-42.68 -34.6,-77.28 -77.28,-77.28 -42.68,0 -77.28,34.6 -77.28,77.28 0,42.69 34.6,77.29 77.28,77.29z"/>
 </g>
</svg>
