<?xml version="1.0" encoding="UTF-8"?>
<!DOCTYPE svg PUBLIC "-//W3C//DTD SVG 1.1//EN" "http://www.w3.org/Graphics/SVG/1.1/DTD/svg11.dtd">
<!-- Creator: CorelDRAW 2021 (64-Bit) -->
<svg xmlns="http://www.w3.org/2000/svg" xml:space="preserve" width="0.314957in" height="0.297488in" version="1.1" style="shape-rendering:geometricPrecision; text-rendering:geometricPrecision; image-rendering:optimizeQuality; fill-rule:evenodd; clip-rule:evenodd"
viewBox="0 0 34.96 33.02"
 xmlns:xlink="http://www.w3.org/1999/xlink"
 xmlns:xodm="http://www.corel.com/coreldraw/odm/2003">
 <defs>
  <style type="text/css">
   <![CDATA[
    .fil0 {fill:#00A0E3}
   ]]>
  </style>
 </defs>
 <g id="Layer_x0020_1">
  <metadata id="CorelCorpID_0Corel-Layer"/>
  <path class="fil0" d="M3.86 25.38c-0.19,1.47 -1.25,2.47 -2.14,3.55 -0.55,0.68 -1.72,1.27 -1.72,2.62l0 1.47 30.91 0 0 -0.7c0,-1.27 -0.46,-2.28 -1.56,-2.52 -0.38,-0.09 -0.79,-0.08 -1.17,-0.08 -2.27,0 -4.55,0 -6.82,0 -1.87,0 -3.33,-0.96 -4.65,-2.13 -3.27,-2.89 -4.56,-6.73 -5.02,-10.91 -0.23,-2.08 -0.09,-4.18 0.24,-6.27 0.15,-0.96 0.52,-1.2 1.43,-1.2 4.59,0.03 9.17,0.01 13.77,0 2.51,0 3.05,-0.56 3.05,-3.09 0,-1.35 0.03,-2.71 0,-4.07 -0.04,-1.32 -0.75,-2.03 -2.05,-2.04 -8.43,-0.02 -16.87,-0.02 -25.3,0 -1.43,0 -2.17,0.75 -2.2,2.18 -0.03,1.53 -0.01,3.05 0,4.59 0.02,1.59 0.77,2.36 2.42,2.44 2,0.11 2.29,0.39 2.2,2.33 -0.2,4.62 -0.81,9.22 -1.4,13.81zm13.58 -18.95c0,0.64 -0.23,0.98 -0.93,0.93 -0.68,0.1 -0.88,-0.25 -0.88,-0.89 0,-0.57 0.17,-0.88 0.81,-0.88 0.6,0 1,0.13 1,0.85zm-3.19 0.09c0,0.7 -0.34,0.92 -0.98,0.85 -0.7,0.09 -0.89,-0.27 -0.89,-0.92 -0.01,-0.7 0.33,-0.88 0.96,-0.88 0.68,0 0.92,0.29 0.92,0.95zm6.44 -0.07c-0.01,0.69 -0.29,0.96 -0.97,0.92l0 -0.01c-0.64,0.11 -0.92,-0.17 -0.89,-0.86 0.02,-0.53 0.07,-0.95 0.75,-0.93 0.61,0.02 1.11,0.04 1.11,0.88zm-7.68 5.17c-0.49,5.69 0.69,10.84 4.96,14.96 1.31,1.25 2.82,2.05 4.71,1.83 0.39,-0.04 0.8,-0.05 1.18,0 4.29,0.58 6.74,-1.91 8.68,-5.2 2.09,-3.55 2.6,-7.44 2.35,-11.49 -0.07,-1 -0.64,-1.08 -1.42,-1.07 -3.19,0.01 -6.37,0 -9.57,0l0 -0.02c-3.18,0 -6.36,0.01 -9.56,-0.01 -0.75,0 -1.26,0.12 -1.34,1z"/>
 </g>
</svg>
