<?xml version="1.0" encoding="UTF-8"?>
<!DOCTYPE svg PUBLIC "-//W3C//DTD SVG 1.1//EN" "http://www.w3.org/Graphics/SVG/1.1/DTD/svg11.dtd">
<!-- Creator: CorelDRAW 2021 (64-Bit) -->
<svg xmlns="http://www.w3.org/2000/svg" xml:space="preserve" width="0.235681in" height="0.354331in" version="1.1" style="shape-rendering:geometricPrecision; text-rendering:geometricPrecision; image-rendering:optimizeQuality; fill-rule:evenodd; clip-rule:evenodd"
viewBox="0 0 12.37 18.59"
 xmlns:xlink="http://www.w3.org/1999/xlink"
 xmlns:xodm="http://www.corel.com/coreldraw/odm/2003">
 <defs>
  <style type="text/css">
   <![CDATA[
    .fil0 {fill:#00A0E3}
   ]]>
  </style>
 </defs>
 <g id="Layer_x0020_1">
  <metadata id="CorelCorpID_0Corel-Layer"/>
  <path class="fil0" d="M2.4 0.59c0.62,0.01 1.24,0.02 1.86,0 0.18,0 0.33,-0.11 0.33,-0.32 0,-0.22 -0.18,-0.26 -0.36,-0.26 -0.32,0 -0.64,0 -0.96,0l-0 0c-0.28,0 -0.56,0 -0.84,0 -0.18,0 -0.36,0.04 -0.36,0.26 0,0.2 0.13,0.31 0.33,0.32zm5.58 -0.58c-0.16,0 -0.31,0.04 -0.32,0.24 -0.01,0.17 0.08,0.32 0.25,0.32 0.69,0.02 1.38,0.02 2.06,0 0.13,0 0.28,-0.13 0.26,-0.31 -0.02,-0.18 -0.16,-0.25 -0.32,-0.25 -0.34,-0.01 -0.69,0 -1.04,0l0.01 0.01c-0.3,0 -0.6,0 -0.91,0zm-6.84 0.84l10.09 0c0.63,0 1.14,0.51 1.14,1.14l0 1.88 -12.37 0 0 -1.88c0,-0.63 0.51,-1.14 1.14,-1.14zm11.23 3.61l0 10.55 -12.37 0 0 -10.55 12.37 0zm0 11.14l0 1.85c0,0.63 -0.51,1.14 -1.14,1.14l-10.09 0c-0.62,0 -1.14,-0.51 -1.14,-1.14l0 -1.85 12.37 0zm-10.7 -8.4l9.04 0 0 6.21 -9.04 0 0 -6.21zm0.7 -4.1c0.32,0 0.59,-0.26 0.59,-0.59 0,-0.33 -0.26,-0.59 -0.59,-0.59 -0.33,0 -0.59,0.26 -0.59,0.59 0,0.33 0.26,0.59 0.59,0.59zm2.1 0c0.33,0 0.59,-0.26 0.59,-0.59 0,-0.33 -0.26,-0.59 -0.59,-0.59 -0.33,0 -0.59,0.26 -0.59,0.59 0,0.33 0.26,0.59 0.59,0.59zm3.43 0c0.32,0 0.59,-0.26 0.59,-0.59 0,-0.33 -0.26,-0.59 -0.59,-0.59 -0.33,0 -0.59,0.26 -0.59,0.59 0,0.33 0.26,0.59 0.59,0.59zm2.1 0c0.33,0 0.59,-0.26 0.59,-0.59 0,-0.33 -0.26,-0.59 -0.59,-0.59 -0.33,0 -0.59,0.26 -0.59,0.59 0,0.33 0.26,0.59 0.59,0.59z"/>
 </g>
</svg>
