<?xml version="1.0" encoding="UTF-8"?>
<!DOCTYPE svg PUBLIC "-//W3C//DTD SVG 1.1//EN" "http://www.w3.org/Graphics/SVG/1.1/DTD/svg11.dtd">
<!-- Creator: CorelDRAW 2021 (64-Bit) -->
<svg xmlns="http://www.w3.org/2000/svg" xml:space="preserve" width="0.222969in" height="0.354331in" version="1.1" style="shape-rendering:geometricPrecision; text-rendering:geometricPrecision; image-rendering:optimizeQuality; fill-rule:evenodd; clip-rule:evenodd"
viewBox="0 0 8.18 13"
 xmlns:xlink="http://www.w3.org/1999/xlink"
 xmlns:xodm="http://www.corel.com/coreldraw/odm/2003">
 <defs>
  <style type="text/css">
   <![CDATA[
    .fil0 {fill:#00A0E3}
   ]]>
  </style>
 </defs>
 <g id="Layer_x0020_1">
  <metadata id="CorelCorpID_0Corel-Layer"/>
  <path class="fil0" d="M3.65 4.99c-0.76,1.14 -1.52,2.29 -2.28,3.44 -0.15,0.23 -0.24,0.42 -0.12,0.73 0.3,0.79 0.07,1.48 -0.57,2.05 -0.5,0.43 -0.47,0.67 0.08,1.03 0.27,0.17 0.55,0.3 0.87,0.36 0.91,0.18 1.54,-0.23 1.78,-1.12 0.35,-1.31 0.83,-2.56 1.49,-3.74 0.17,-0.3 0.39,-0.57 0.69,-0.75 0.37,-0.22 0.72,-0.16 0.97,0.19 0.34,0.47 0.32,0.96 0.05,1.46 -0.41,0.76 -0.99,1.41 -1.5,2.1 -0.35,0.48 -0.64,0.99 -0.81,1.56 -0.06,0.21 -0.15,0.48 0.09,0.63 0.24,0.15 0.49,0.06 0.71,-0.11 0.59,-0.45 1.04,-1.03 1.47,-1.62 0.7,-0.98 1.4,-1.97 1.51,-3.23 0.03,-0.33 0.05,-0.66 0.07,-0.99l0.01 0.01c-0.01,-1.7 -0.51,-3.27 -1.14,-4.82 -0.14,-0.33 -0.28,-0.66 -0.41,-0.99 -0.11,-0.28 -0.22,-0.3 -0.39,-0.04 -0.85,1.29 -1.72,2.57 -2.58,3.86zm-2.55 3.5c0.5,-0.75 1,-1.5 1.5,-2.25 1.16,-1.74 2.32,-3.48 3.48,-5.23 0.19,-0.29 0.43,-0.58 0.16,-1.01 -0.58,0.86 -1.14,1.69 -1.7,2.52 -1.22,1.83 -2.43,3.65 -3.64,5.48 -0.05,0.08 -0.11,0.16 -0.17,0.25 -0.08,0.13 -0.16,0.25 0.02,0.37 0.18,0.11 0.26,-0.01 0.34,-0.13zm0.02 -4.41c0.44,0.07 0.77,0.36 1.14,0.59 0.17,0.11 0.33,0.22 0.49,0.03 0.17,-0.22 -0.02,-0.34 -0.18,-0.44 -0.5,-0.33 -0.98,-0.71 -1.62,-0.72 -0.61,0.01 -1.07,0.54 -0.93,1.08 0.04,0.16 0.1,0.32 0.31,0.28 0.19,-0.03 0.19,-0.18 0.19,-0.33 0.01,-0.41 0.19,-0.56 0.6,-0.49zm0.15 -1.51c0.56,0.39 1.14,0.77 1.71,1.15 0.13,0.09 0.29,0.19 0.41,0 0.12,-0.18 0.04,-0.32 -0.13,-0.43 -0.51,-0.34 -1.03,-0.68 -1.54,-1.02 -0.2,-0.14 -0.39,-0.29 -0.54,-0.49 -0.27,-0.37 -0.22,-0.56 0.2,-0.76 0.14,-0.07 0.27,-0.14 0.24,-0.31 -0.03,-0.18 -0.18,-0.2 -0.34,-0.19l-0 0c-0.45,0 -0.85,0.54 -0.76,1 0.09,0.47 0.38,0.8 0.75,1.06zm1.27 -0.69c0.31,0.37 0.73,0.6 1.12,0.86 0.14,0.09 0.3,0.14 0.41,-0.04 0.1,-0.17 0,-0.3 -0.14,-0.4 -0.29,-0.21 -0.6,-0.39 -0.87,-0.63 -0.47,-0.42 -0.44,-0.69 0.1,-0.99 0.13,-0.08 0.2,-0.17 0.15,-0.31 -0.05,-0.14 -0.18,-0.17 -0.32,-0.16 -0.41,0.02 -0.78,0.44 -0.78,0.92l-0.01 0c0.03,0.26 0.14,0.52 0.33,0.75z"/>
 </g>
</svg>
