<?xml version="1.0" encoding="UTF-8"?>
<!DOCTYPE svg PUBLIC "-//W3C//DTD SVG 1.1//EN" "http://www.w3.org/Graphics/SVG/1.1/DTD/svg11.dtd">
<!-- Creator: CorelDRAW 2021 (64-Bit) -->
<svg xmlns="http://www.w3.org/2000/svg" xml:space="preserve" width="0.456157in" height="0.345in" version="1.1" style="shape-rendering:geometricPrecision; text-rendering:geometricPrecision; image-rendering:optimizeQuality; fill-rule:evenodd; clip-rule:evenodd"
viewBox="0 0 28.04 21.21"
 xmlns:xlink="http://www.w3.org/1999/xlink"
 xmlns:xodm="http://www.corel.com/coreldraw/odm/2003">
 <defs>
  <style type="text/css">
   <![CDATA[
    .fil0 {fill:#00A0E3;fill-rule:nonzero}
   ]]>
  </style>
 </defs>
 <g id="Layer_x0020_1">
  <metadata id="CorelCorpID_0Corel-Layer"/>
  <g id="technology_13421369.svg">
   <g>
    <path class="fil0" d="M27.56 18.55l-27.08 0c-0.27,0 -0.48,-0.22 -0.48,-0.48l0 -8.27c0,-0.27 0.22,-0.48 0.48,-0.48l15.72 0c0.27,0 0.48,0.22 0.48,0.48 0,0.27 -0.22,0.48 -0.48,0.48l-15.24 0 0 7.3 26.12 0 0 -7.3 -2.54 0c-0.27,0 -0.48,-0.22 -0.48,-0.48 0,-0.27 0.22,-0.48 0.48,-0.48l3.03 0c0.27,0 0.48,0.22 0.48,0.48l0 8.27c0,0.27 -0.22,0.48 -0.48,0.48l0 0z"/>
    <path class="fil0" d="M20.37 12.26c-1.36,0 -2.46,-1.1 -2.46,-2.46 0,-1.36 1.1,-2.46 2.46,-2.46 1.36,0 2.46,1.1 2.46,2.46 0,1.36 -1.1,2.46 -2.46,2.46zm0 -3.96c-0.83,0 -1.5,0.67 -1.5,1.5 0,0.83 0.67,1.5 1.5,1.5 0.83,0 1.5,-0.67 1.5,-1.5 0,-0.83 -0.67,-1.5 -1.5,-1.5z"/>
    <path class="fil0" d="M20.37 14.45c-1.24,0 -2.41,-0.48 -3.29,-1.36 -0.88,-0.88 -1.36,-2.04 -1.36,-3.29 0,-1.24 0.48,-2.41 1.36,-3.29 0.88,-0.88 2.04,-1.36 3.29,-1.36 1.24,0 2.41,0.48 3.29,1.36 0.88,0.88 1.36,2.04 1.36,3.29 0,1.24 -0.48,2.41 -1.36,3.29 -0.88,0.88 -2.05,1.36 -3.29,1.36zm0 -8.33c-2.03,0 -3.68,1.65 -3.68,3.68 0,2.03 1.65,3.68 3.68,3.68 2.03,0 3.68,-1.65 3.68,-3.68 0,-2.03 -1.65,-3.68 -3.68,-3.68z"/>
    <path class="fil0" d="M20.37 3.83c-0.27,0 -0.48,-0.22 -0.48,-0.48l0 -2.87c0,-0.27 0.22,-0.48 0.48,-0.48 0.27,0 0.48,0.22 0.48,0.48l0 2.87c0,0.27 -0.22,0.48 -0.48,0.48z"/>
    <path class="fil0" d="M24.93 5.72c-0.12,0 -0.25,-0.05 -0.34,-0.14 -0.19,-0.19 -0.19,-0.49 0,-0.68l2.03 -2.03c0.19,-0.19 0.49,-0.19 0.68,0 0.19,0.19 0.19,0.49 0,0.68l-2.03 2.03c-0.09,0.09 -0.22,0.14 -0.34,0.14z"/>
    <path class="fil0" d="M15.81 5.72c-0.12,0 -0.25,-0.05 -0.34,-0.14l-2.03 -2.03c-0.19,-0.19 -0.19,-0.49 0,-0.68 0.19,-0.19 0.49,-0.19 0.68,0l2.03 2.03c0.19,0.19 0.19,0.49 0,0.68 -0.09,0.09 -0.22,0.14 -0.34,0.14z"/>
    <g>
     <path class="fil0" d="M4.11 21.21l-2.77 0c-0.27,0 -0.48,-0.22 -0.48,-0.48l0 -2.66c0,-0.27 0.22,-0.48 0.48,-0.48l3.6 0c0.15,0 0.3,0.07 0.39,0.2 0.09,0.12 0.12,0.28 0.07,0.43l-0.84 2.66c-0.06,0.2 -0.25,0.34 -0.46,0.34l0 0zm-2.28 -0.96l1.93 0 0.53 -1.7 -2.46 0 0 1.7z"/>
     <path class="fil0" d="M26.69 21.21l-2.77 0c-0.21,0 -0.4,-0.14 -0.46,-0.34l-0.84 -2.66c-0.05,-0.15 -0.02,-0.31 0.07,-0.43 0.09,-0.12 0.23,-0.2 0.39,-0.2l3.6 0c0.27,0 0.48,0.22 0.48,0.48l0 2.66c0,0.27 -0.22,0.48 -0.48,0.48l0 0zm-2.41 -0.96l1.93 0 0 -1.7 -2.46 0 0.53 1.7z"/>
    </g>
    <g>
     <path class="fil0" d="M8.77 12.98l-5.86 0c-0.27,0 -0.48,-0.22 -0.48,-0.48 0,-0.27 0.22,-0.48 0.48,-0.48l5.86 0c0.27,0 0.48,0.22 0.48,0.48 0,0.27 -0.22,0.48 -0.48,0.48l0 0z"/>
     <path class="fil0" d="M8.77 15.85l-5.86 0c-0.27,0 -0.48,-0.22 -0.48,-0.48 0,-0.27 0.22,-0.48 0.48,-0.48l5.86 0c0.27,0 0.48,0.22 0.48,0.48 0,0.27 -0.22,0.48 -0.48,0.48z"/>
    </g>
   </g>
  </g>
 </g>
</svg>
