<?xml version="1.0" encoding="UTF-8"?>
<!DOCTYPE svg PUBLIC "-//W3C//DTD SVG 1.1//EN" "http://www.w3.org/Graphics/SVG/1.1/DTD/svg11.dtd">
<!-- Creator: CorelDRAW 2021 (64-Bit) -->
<svg xmlns="http://www.w3.org/2000/svg" xml:space="preserve" width="0.427429in" height="0.260579in" version="1.1" style="shape-rendering:geometricPrecision; text-rendering:geometricPrecision; image-rendering:optimizeQuality; fill-rule:evenodd; clip-rule:evenodd"
viewBox="0 0 20.25 12.34"
 xmlns:xlink="http://www.w3.org/1999/xlink"
 xmlns:xodm="http://www.corel.com/coreldraw/odm/2003">
 <defs>
  <style type="text/css">
   <![CDATA[
    .fil0 {fill:#00A0E3;fill-rule:nonzero}
   ]]>
  </style>
 </defs>
 <g id="Layer_x0020_1">
  <metadata id="CorelCorpID_0Corel-Layer"/>
  <g id="projector_3606802.svg">
   <g>
    <path class="fil0" d="M13.46 4.4c-1.74,0 -3.16,1.42 -3.16,3.16 0,1.74 1.42,3.16 3.16,3.16 1.74,0 3.16,-1.42 3.16,-3.16 0,-1.74 -1.42,-3.16 -3.16,-3.16zm0 5.72c-1.41,0 -2.56,-1.15 -2.56,-2.56 0,-1.41 1.15,-2.56 2.56,-2.56 1.41,0 2.56,1.15 2.56,2.56 0,1.41 -1.15,2.56 -2.56,2.56z"/>
    <path class="fil0" d="M18.86 6.12l-0.4 0c-0.16,0 -0.3,0.13 -0.3,0.3 0,0.16 0.13,0.3 0.3,0.3l0.4 0c0.16,0 0.3,-0.13 0.3,-0.3 0,-0.16 -0.13,-0.3 -0.3,-0.3z"/>
    <path class="fil0" d="M18.86 7.24l-0.4 0c-0.16,0 -0.3,0.13 -0.3,0.3 0,0.16 0.13,0.3 0.3,0.3l0.4 0c0.16,0 0.3,-0.13 0.3,-0.3 0,-0.16 -0.13,-0.3 -0.3,-0.3l0 0z"/>
    <path class="fil0" d="M18.86 8.36l-0.4 0c-0.16,0 -0.3,0.13 -0.3,0.3 0,0.16 0.13,0.3 0.3,0.3l0.4 0c0.16,0 0.3,-0.13 0.3,-0.3 0,-0.16 -0.13,-0.3 -0.3,-0.3z"/>
    <path class="fil0" d="M13.46 2.49c0.16,0 0.3,-0.13 0.3,-0.3l0 -1.9c0,-0.16 -0.13,-0.3 -0.3,-0.3 -0.16,0 -0.3,0.13 -0.3,0.3l0 1.9c0,0.16 0.13,0.3 0.3,0.3z"/>
    <path class="fil0" d="M10.22 3.31c0.09,0.13 0.28,0.17 0.41,0.07 0.13,-0.09 0.17,-0.28 0.07,-0.41l-1.09 -1.55c-0.09,-0.13 -0.28,-0.17 -0.41,-0.07 -0.13,0.09 -0.17,0.28 -0.07,0.41l1.09 1.55z"/>
    <path class="fil0" d="M16.28 3.38c0.13,0.09 0.32,0.06 0.41,-0.07l1.09 -1.55c0.09,-0.13 0.06,-0.32 -0.07,-0.41 -0.13,-0.09 -0.32,-0.06 -0.41,0.07l-1.09 1.55c-0.09,0.13 -0.06,0.32 0.07,0.41z"/>
    <path class="fil0" d="M15.12 6.69c0,-0.56 -0.46,-1.02 -1.02,-1.02 -0.23,0 -0.45,0.08 -0.62,0.21 -0,-0 -0.01,-0 -0.01,-0 -0.92,0 -1.66,0.75 -1.66,1.66 0,0.92 0.75,1.66 1.66,1.66 0.92,0 1.66,-0.75 1.66,-1.66 0,-0.17 -0.03,-0.33 -0.07,-0.49 0.04,-0.11 0.07,-0.24 0.07,-0.36l0 0zm-0.59 0c0,0.24 -0.2,0.43 -0.43,0.43 -0.24,0 -0.43,-0.19 -0.43,-0.43 0,-0.24 0.19,-0.43 0.43,-0.43 0.24,0 0.43,0.19 0.43,0.43zm-1.06 1.93c-0.59,0 -1.07,-0.48 -1.07,-1.07 0,-0.46 0.29,-0.85 0.69,-1 -0.12,0.8 0.71,1.42 1.45,1.07 0,-0 0,-0 0,-0 -0.04,0.56 -0.5,1 -1.07,1l0 0z"/>
    <path class="fil0" d="M19.95 8.14c0.16,0 0.3,-0.13 0.3,-0.3l0 -2.76c0,-0.6 -0.49,-1.09 -1.09,-1.09l-3.27 0c-0.69,-0.47 -1.53,-0.75 -2.43,-0.75 -0.9,0 -1.73,0.28 -2.43,0.75l-7.57 0c-0.16,0 -0.3,0.13 -0.3,0.3 0,0.16 0.13,0.3 0.3,0.3l6.88 0c-0.74,0.78 -1.18,1.82 -1.18,2.96 0,1.15 0.45,2.19 1.18,2.96 -0.4,0 -8.85,0 -9.25,0 -0.27,0 -0.49,-0.22 -0.49,-0.49l0 -0.38 2.74 0c0.16,0 0.3,-0.13 0.3,-0.3 0,-0.16 -0.13,-0.3 -0.3,-0.3l-2.74 0 0 -0.53 2.74 0c0.16,0 0.3,-0.13 0.3,-0.3 0,-0.16 -0.13,-0.3 -0.3,-0.3l-2.74 0 0 -0.63 2.74 0c0.16,0 0.3,-0.13 0.3,-0.3 0,-0.16 -0.13,-0.3 -0.3,-0.3l-2.74 0 0 -0.63 2.74 0c0.16,0 0.3,-0.13 0.3,-0.3 0,-0.16 -0.13,-0.3 -0.3,-0.3l-2.74 0 0 -0.38c0,-0.27 0.22,-0.49 0.49,-0.49l0.99 0c0.16,0 0.3,-0.13 0.3,-0.3 0,-0.16 -0.13,-0.3 -0.3,-0.3l-0.99 0c-0.6,0 -1.09,0.49 -1.09,1.09l0 4.93c0,0.6 0.49,1.09 1.09,1.09l0.21 0 0 0.58c0,0.36 0.29,0.65 0.65,0.65l1.66 0c0.36,0 0.65,-0.29 0.65,-0.65l0 -0.58 6.77 0c0.69,0.47 1.53,0.75 2.43,0.75 0.9,0 1.73,-0.28 2.43,-0.75l0.1 0 0 0.58c0,0.36 0.29,0.65 0.65,0.65l1.66 0c0.36,0 0.65,-0.29 0.65,-0.65l0 -0.58 0.21 0c0.6,0 1.09,-0.49 1.09,-1.09l0 -0.79c0,-0.16 -0.13,-0.3 -0.3,-0.3 -0.16,0 -0.3,0.13 -0.3,0.3l0 0.79c0,0.27 -0.22,0.49 -0.49,0.49 -0.25,0 -2.31,0 -2.58,0 0.74,-0.78 1.18,-1.83 1.18,-2.96 0,-1.09 -0.41,-2.15 -1.18,-2.96l2.58 0c0.27,0 0.49,0.22 0.49,0.49l0 2.76c0,0.16 0.13,0.3 0.3,0.3l0 0zm-16.28 3.55c0,0.03 -0.03,0.06 -0.06,0.06l-1.66 0c-0.03,0 -0.06,-0.03 -0.06,-0.06l0 -0.58 1.78 0 0 0.58zm6.8 -1.93c-0.46,-0.63 -0.72,-1.4 -0.72,-2.2 0,-2.03 1.65,-3.71 3.71,-3.71 2.04,0 3.71,1.66 3.71,3.71 0,2.04 -1.66,3.71 -3.71,3.71 -1.22,0 -2.31,-0.59 -2.99,-1.51zm7.89 1.35l0 0.58c0,0.03 -0.03,0.06 -0.06,0.06l-1.66 0c-0.03,0 -0.06,-0.03 -0.06,-0.06l0 -0.58 1.78 0z"/>
   </g>
  </g>
 </g>
</svg>
