<?xml version="1.0" encoding="UTF-8"?>
<!DOCTYPE svg PUBLIC "-//W3C//DTD SVG 1.1//EN" "http://www.w3.org/Graphics/SVG/1.1/DTD/svg11.dtd">
<!-- Creator: CorelDRAW 2021 (64-Bit) -->
<svg xmlns="http://www.w3.org/2000/svg" xml:space="preserve" width="0.362465in" height="0.362413in" version="1.1" style="shape-rendering:geometricPrecision; text-rendering:geometricPrecision; image-rendering:optimizeQuality; fill-rule:evenodd; clip-rule:evenodd"
viewBox="0 0 10.73 10.73"
 xmlns:xlink="http://www.w3.org/1999/xlink"
 xmlns:xodm="http://www.corel.com/coreldraw/odm/2003">
 <defs>
  <style type="text/css">
   <![CDATA[
    .fil0 {fill:#00A0E3;fill-rule:nonzero}
   ]]>
  </style>
 </defs>
 <g id="Layer_x0020_1">
  <metadata id="CorelCorpID_0Corel-Layer"/>
  <g id="speaker_2627414.svg">
   <path class="fil0" d="M10.39 5.79c-0.23,-2.34 -9.82,-2.34 -10.05,0 -0.09,0.2 -0.34,0.83 -0.34,1.59 0,0.85 0.31,1.54 0.36,1.65 0.43,1.04 2.39,1.71 5,1.71 2.69,0 4.59,-0.87 5,-1.7 0.02,-0.03 0.37,-0.76 0.37,-1.66 0,-0.76 -0.25,-1.39 -0.34,-1.59l0 0zm-8.25 -0.66c1.77,-0.57 4.67,-0.57 6.44,0 0.9,0.29 1.14,0.61 1.14,0.75 0,0.14 -0.24,0.46 -1.14,0.75 -1.77,0.57 -4.67,0.57 -6.44,0 -0.9,-0.29 -1.14,-0.61 -1.14,-0.75 0,-0.14 0.24,-0.46 1.14,-0.75zm7.61 3.62c-0.23,0.46 -1.76,1.32 -4.4,1.32 -1.2,0 -2.27,-0.15 -3.09,-0.42 -0.7,-0.23 -1.17,-0.55 -1.3,-0.88 -0,-0.01 -0.01,-0.02 -0.01,-0.02 -0,-0.01 -0.3,-0.62 -0.3,-1.36 0,-0.26 0.04,-0.51 0.09,-0.72 1.66,1.41 7.56,1.41 9.22,0 0.05,0.21 0.09,0.46 0.09,0.72 0,0.74 -0.3,1.35 -0.3,1.36l0 0z"/>
   <path class="fil0" d="M6.37 8.89l-2.01 0c-0.19,0 -0.34,0.15 -0.34,0.34 0,0.19 0.15,0.34 0.34,0.34l2.01 0c0.19,0 0.34,-0.15 0.34,-0.34 0,-0.19 -0.15,-0.34 -0.34,-0.34z"/>
   <path class="fil0" d="M5.33 5.53l0.08 0c0.19,0 0.34,-0.15 0.34,-0.34 0,-0.19 -0.15,-0.34 -0.34,-0.34l-0.08 0c-0.19,0 -0.34,0.15 -0.34,0.34 0,0.19 0.15,0.34 0.34,0.34z"/>
   <path class="fil0" d="M5.33 6.88l0.08 0c0.19,0 0.34,-0.15 0.34,-0.34 0,-0.19 -0.15,-0.34 -0.34,-0.34l-0.08 0c-0.19,0 -0.34,0.15 -0.34,0.34 0,0.19 0.15,0.34 0.34,0.34l0 0z"/>
   <path class="fil0" d="M3.1 6.2l0.08 0c0.19,0 0.34,-0.15 0.34,-0.34 0,-0.19 -0.15,-0.34 -0.34,-0.34l-0.08 0c-0.19,0 -0.34,0.15 -0.34,0.34 0,0.19 0.15,0.34 0.34,0.34l0 0z"/>
   <path class="fil0" d="M7.55 6.2l0.08 0c0.19,0 0.34,-0.15 0.34,-0.34 0,-0.19 -0.15,-0.34 -0.34,-0.34l-0.08 0c-0.19,0 -0.34,0.15 -0.34,0.34 0,0.19 0.15,0.34 0.34,0.34l0 0z"/>
   <circle class="fil0" cx="5.36" cy="3.19" r="0.5"/>
   <path class="fil0" d="M6.43 2.45c0.3,0 0.45,-0.36 0.24,-0.57 -0.72,-0.72 -1.89,-0.72 -2.61,0 -0.13,0.13 -0.13,0.34 0,0.47 0.13,0.13 0.34,0.13 0.47,0 0.46,-0.46 1.2,-0.46 1.66,0 0.07,0.07 0.15,0.1 0.24,0.1l0 0z"/>
   <path class="fil0" d="M3.58 1.41c0.98,-0.98 2.57,-0.98 3.56,0 0.13,0.13 0.34,0.13 0.47,0 0.13,-0.13 0.13,-0.34 0,-0.47 -1.24,-1.24 -3.26,-1.24 -4.51,0 -0.13,0.13 -0.13,0.34 0,0.47 0.13,0.13 0.34,0.13 0.47,0z"/>
  </g>
 </g>
</svg>
