<?xml version="1.0" encoding="UTF-8"?>
<!DOCTYPE svg PUBLIC "-//W3C//DTD SVG 1.1//EN" "http://www.w3.org/Graphics/SVG/1.1/DTD/svg11.dtd">
<!-- Creator: CorelDRAW 2021 (64-Bit) -->
<svg xmlns="http://www.w3.org/2000/svg" xml:space="preserve" width="0.26298in" height="0.393701in" version="1.1" style="shape-rendering:geometricPrecision; text-rendering:geometricPrecision; image-rendering:optimizeQuality; fill-rule:evenodd; clip-rule:evenodd"
viewBox="0 0 4.97 7.44"
 xmlns:xlink="http://www.w3.org/1999/xlink"
 xmlns:xodm="http://www.corel.com/coreldraw/odm/2003">
 <defs>
  <style type="text/css">
   <![CDATA[
    .fil0 {fill:#00A0E3}
   ]]>
  </style>
 </defs>
 <g id="Layer_x0020_1">
  <metadata id="CorelCorpID_0Corel-Layer"/>
  <g id="_1808570875312">
   <path class="fil0" d="M0.26 4.11c0.06,0.03 0.06,0.04 0.1,0.07l0.22 0.13c0.04,0.02 0.07,0.04 0.11,0.06 0.48,0.23 1.09,0.32 1.62,0.33 0.08,0 0.09,0.02 0.17,0.02 0.07,0 0.09,-0.01 0.16,-0.02 0.41,-0.01 0.67,-0.03 1.1,-0.14 0.18,-0.05 0.38,-0.11 0.53,-0.18 0.08,-0.04 0.15,-0.08 0.23,-0.12 0.04,-0.02 0.07,-0.04 0.11,-0.07 0.05,-0.04 0.05,-0.05 0.11,-0.08 0,0.15 0.02,2.2 -0.01,2.3 -0.04,0.13 -0.12,0.2 -0.21,0.28 -0.09,0.07 -0.21,0.13 -0.32,0.18 -0.29,0.13 -0.74,0.24 -1.06,0.27 -0.1,0.01 -0.21,0.03 -0.3,0.03 -0.05,0 -0.11,-0 -0.16,-0 -0.08,0 -0.09,0.02 -0.16,0.02 -0.07,0 -0.07,-0.01 -0.14,-0.02 -0.05,-0 -0.11,0 -0.16,0 -0.43,-0.01 -1.31,-0.19 -1.68,-0.47 -0.26,-0.2 -0.24,-0.3 -0.24,-0.59l0 -2.01zm2.02 -4.11l0.41 0c0.5,0.02 0.99,0.11 1.41,0.26 0.34,0.13 0.87,0.42 0.87,0.85l0 5.23c0,0.43 -0.53,0.71 -0.87,0.85 -0.39,0.16 -0.86,0.24 -1.34,0.26l-0.48 0c-0.39,-0.02 -0.77,-0.07 -1.11,-0.16 -0.42,-0.11 -1.18,-0.43 -1.18,-0.94l0 -5.23c0,-0.11 0.06,-0.26 0.11,-0.33 0.02,-0.03 0.03,-0.04 0.05,-0.06 0.02,-0.02 0.03,-0.04 0.05,-0.06 0.15,-0.16 0.44,-0.32 0.66,-0.4 0.42,-0.15 0.91,-0.24 1.41,-0.26zm-2.02 1.63c0.25,0.17 0.35,0.26 0.68,0.37 0.1,0.03 0.17,0.06 0.28,0.09 0.86,0.25 2.26,0.19 3.05,-0.18l0.44 -0.27 0 1.89c0,0.15 0,0.17 -0.05,0.27 -0.04,0.07 -0.09,0.12 -0.15,0.17 -0.9,0.68 -3.17,0.66 -4.04,0 -0.06,-0.05 -0.1,-0.09 -0.15,-0.16 -0.05,-0.08 -0.06,-0.13 -0.06,-0.26l0 -1.9zm0 -0.48c0,-0.24 0.14,-0.36 0.33,-0.48 0.3,-0.18 0.81,-0.32 1.18,-0.36 0.24,-0.03 0.26,-0.04 0.52,-0.04 0.09,0 0.12,-0.02 0.19,-0.02 0.07,0 0.09,0.02 0.17,0.02 0.38,0 0.81,0.06 1.16,0.18 0.27,0.09 0.89,0.3 0.89,0.65 0,0.23 -0.14,0.36 -0.32,0.46 -0.83,0.5 -2.36,0.53 -3.29,0.22 -0.25,-0.08 -0.84,-0.3 -0.84,-0.63z"/>
   <path class="fil0" d="M2.24 1.58c0,0.19 0.13,0.16 0.36,0.16 0.17,0 0.18,-0.26 0,-0.26 -0.11,0 -0.36,-0.03 -0.36,0.1z"/>
   <path class="fil0" d="M0.63 1.09c0,0.19 0.14,0.16 0.33,0.16 0.24,0 0.18,-0.26 0.06,-0.26 -0.12,0 -0.39,-0.03 -0.39,0.1z"/>
   <path class="fil0" d="M3.85 1.1c0,0.17 0.15,0.15 0.33,0.15 0.22,0 0.21,-0.26 0.03,-0.26 -0.16,0 -0.36,-0.04 -0.36,0.12z"/>
   <path class="fil0" d="M2.24 0.61c0,0.16 0.16,0.15 0.29,0.15 0.29,0 0.23,-0.26 0.09,-0.26 -0.19,0 -0.38,-0.04 -0.38,0.12z"/>
   <path class="fil0" d="M0.49 5.46c0,0.1 -0.01,0.25 0.13,0.25 0.19,0 0.16,-0.38 0.03,-0.38 -0.08,0 -0.16,0.02 -0.16,0.13z"/>
   <path class="fil0" d="M4.21 5.46c0,0.1 -0.01,0.25 0.13,0.25 0.19,0 0.16,-0.38 0.03,-0.38 -0.08,0 -0.16,0.02 -0.16,0.13z"/>
   <path class="fil0" d="M2.35 5.36c0,0.14 0,0.22 0.16,0.22 0.12,0 0.13,-0.26 0.07,-0.33 -0.05,-0.06 -0.15,-0.06 -0.2,0 -0.02,0.03 -0.03,0.07 -0.03,0.11z"/>
   <path class="fil0" d="M2.35 6.58l0 0.1c0,0.18 0.26,0.18 0.26,0l0 -0.1c0,-0.18 -0.26,-0.18 -0.26,0z"/>
   <path class="fil0" d="M1.73 5.33c0,0.28 0.26,0.21 0.26,0.06 0,-0.1 0.03,-0.25 -0.13,-0.25 -0.1,0 -0.13,0.09 -0.13,0.19z"/>
   <path class="fil0" d="M3.59 5.77c0,0.27 0.26,0.22 0.26,0.06 0,-0.13 0.02,-0.25 -0.13,-0.25 -0.1,0 -0.13,0.09 -0.13,0.19z"/>
   <path class="fil0" d="M1.12 6.32l0 0.13c0,0.15 0.26,0.2 0.26,-0.06 0,-0.1 -0.02,-0.17 -0.1,-0.19 -0.08,-0.03 -0.16,0.03 -0.16,0.12z"/>
   <path class="fil0" d="M3.59 5.15c0,0.28 0.26,0.2 0.26,0.09 0,-0.08 0.02,-0.28 -0.12,-0.28 -0.11,0 -0.15,0.08 -0.15,0.19z"/>
   <path class="fil0" d="M4.21 4.87c0,0.07 -0.01,0.22 0.13,0.22 0.19,0 0.18,-0.38 0,-0.38 -0.09,0 -0.13,0.07 -0.13,0.16z"/>
   <path class="fil0" d="M0.49 4.87c0,0.07 -0.01,0.22 0.13,0.22 0.19,0 0.18,-0.38 0,-0.38 -0.09,0 -0.13,0.07 -0.13,0.16z"/>
   <path class="fil0" d="M2.98 6.51c0,0.13 -0.02,0.25 0.13,0.25 0.18,0 0.18,-0.38 0,-0.38 -0.07,0 -0.13,0.06 -0.13,0.13z"/>
   <path class="fil0" d="M0.49 6.09c0,0.16 -0.01,0.23 0.16,0.23 0.14,0 0.15,-0.38 -0.03,-0.38 -0.07,0 -0.13,0.07 -0.13,0.15z"/>
   <path class="fil0" d="M4.21 6.09c0,0.16 -0.01,0.23 0.16,0.23 0.14,0 0.15,-0.38 -0.03,-0.38 -0.07,0 -0.13,0.07 -0.13,0.15z"/>
   <path class="fil0" d="M2.35 5.96c0,0.09 -0.01,0.25 0.13,0.25 0.18,0 0.19,-0.38 0,-0.38 -0.07,0 -0.13,0.06 -0.13,0.13z"/>
   <path class="fil0" d="M3.59 6.38c0,0.28 0.26,0.22 0.26,0.07l0 -0.13c0,-0.16 -0.26,-0.19 -0.26,0.06z"/>
   <path class="fil0" d="M1.12 5.7c0,0.07 -0.02,0.26 0.12,0.26 0.2,0 0.2,-0.38 0,-0.38 -0.07,0 -0.12,0.05 -0.12,0.12z"/>
   <path class="fil0" d="M1.12 5.09c0,0.1 -0.03,0.25 0.13,0.25 0.18,0 0.18,-0.38 0,-0.38 -0.07,0 -0.13,0.06 -0.13,0.13z"/>
   <path class="fil0" d="M1.73 5.96c0,0.25 0.26,0.22 0.26,0.06 0,-0.17 0.02,-0.25 -0.16,-0.25 -0.07,0 -0.1,0.11 -0.1,0.19z"/>
   <path class="fil0" d="M1.73 6.57c0,0.26 0.26,0.22 0.26,0.07 0,-0.07 0.02,-0.26 -0.12,-0.26 -0.1,0 -0.15,0.08 -0.15,0.19z"/>
   <path class="fil0" d="M2.98 5.25c0,0.1 -0.03,0.28 0.13,0.28 0.16,0 0.21,-0.38 -0.03,-0.38 -0.04,0 -0.1,0.06 -0.1,0.1z"/>
   <path class="fil0" d="M2.98 5.89l0 0.13c0,0.18 0.26,0.17 0.26,-0.04 0,-0.3 -0.26,-0.22 -0.26,-0.09z"/>
  </g>
 </g>
</svg>
