<?xml version="1.0" encoding="UTF-8"?>
<!DOCTYPE svg PUBLIC "-//W3C//DTD SVG 1.1//EN" "http://www.w3.org/Graphics/SVG/1.1/DTD/svg11.dtd">
<!-- Creator: CorelDRAW 2021 (64-Bit) -->
<svg xmlns="http://www.w3.org/2000/svg" xml:space="preserve" width="0.433079in" height="0.295591in" version="1.1" style="shape-rendering:geometricPrecision; text-rendering:geometricPrecision; image-rendering:optimizeQuality; fill-rule:evenodd; clip-rule:evenodd"
viewBox="0 0 12.84 8.77"
 xmlns:xlink="http://www.w3.org/1999/xlink"
 xmlns:xodm="http://www.corel.com/coreldraw/odm/2003">
 <defs>
  <style type="text/css">
   <![CDATA[
    .fil0 {fill:#00A0E3;fill-rule:nonzero}
   ]]>
  </style>
 </defs>
 <g id="Layer_x0020_1">
  <metadata id="CorelCorpID_0Corel-Layer"/>
  <path class="fil0" d="M6.33 0c1.34,0.01 2.58,0.16 3.77,0.56 0.81,0.28 1.58,0.64 2.18,1.29 0.22,0.24 0.4,0.52 0.49,0.84 0.19,0.67 -0,1.25 -0.45,1.76 -0.44,0.5 -0.99,0.83 -1.59,1.09 -0.36,0.16 -0.74,0.27 -1.11,0.39 -0.22,0.07 -0.44,0.12 -0.67,0.17 -0.02,0.01 -0.05,0.01 -0.07,0.01 -0.03,0 -0.08,0.01 -0.13,0.03 -0.02,-0 -0.03,-0 -0.06,-0 -0.24,0.04 -0.48,0.08 -0.72,0.11 -1.78,0.2 -3.53,0.09 -5.24,-0.47 -0.51,-0.16 -0.99,-0.38 -1.44,-0.67 -0.11,-0.07 -0.49,-0.36 -0.55,-0.42 -0.3,-0.3 -0.56,-0.63 -0.68,-1.05 -0.16,-0.57 -0.03,-1.08 0.31,-1.55 0.38,-0.53 0.91,-0.88 1.49,-1.16 1.02,-0.5 2.1,-0.73 3.21,-0.85 0.44,-0.05 0.89,-0.06 1.25,-0.07l0 0zm5.02 4.46c0.24,-0.18 0.47,-0.37 0.63,-0.63 0.32,-0.5 0.29,-1.01 -0.1,-1.47 -0.51,-0.61 -1.31,-0.98 -2.05,-1.22 -0.9,-0.29 -1.82,-0.44 -2.76,-0.48 -0.82,-0.04 -1.63,-0.01 -2.44,0.11 -0.94,0.14 -1.85,0.38 -2.69,0.83 -0.39,0.21 -0.76,0.47 -1.03,0.83 -0.27,0.38 -0.36,0.78 -0.15,1.21 0.08,0.17 0.19,0.32 0.32,0.45 0.45,0.44 0.99,0.74 1.58,0.96 0.93,0.35 1.89,0.53 2.88,0.59 1.35,0.09 2.69,-0 4,-0.38 0.45,-0.13 0.89,-0.29 1.32,-0.54 0.02,-0.01 0.45,-0.25 0.49,-0.28zm-2.48 4.3c-0.13,0 -0.23,-0.06 -0.29,-0.17 -0.21,-0.41 -0.41,-0.81 -0.61,-1.22 -0.08,-0.16 -0.04,-0.44 0.17,-0.47 0.19,-0.02 0.33,0.04 0.41,0.2 0.2,0.39 0.4,0.78 0.59,1.18 0.11,0.22 -0.02,0.48 -0.27,0.48zm-4.88 0c-0.23,0 -0.4,-0.22 -0.3,-0.43 0.2,-0.42 0.41,-0.84 0.63,-1.26 0.09,-0.17 0.28,-0.21 0.43,-0.13 0.15,0.09 0.21,0.26 0.13,0.43 -0.2,0.41 -0.4,0.81 -0.61,1.22 -0.06,0.11 -0.15,0.16 -0.28,0.17l-0 0zm2.12 -0.92c0,-0.2 -0,-0.4 0,-0.59 0,-0.19 0.14,-0.34 0.31,-0.34 0.18,0 0.32,0.14 0.32,0.33 0.01,0.4 0.01,0.79 0,1.19 -0,0.21 -0.14,0.34 -0.32,0.34 -0.19,0 -0.31,-0.13 -0.31,-0.34 -0,-0.19 0,-0.39 0,-0.58l0 0zm-3.5 -4.17c-0.28,-0.46 -0.21,-0.86 0.2,-1.19 0.42,-0.34 0.92,-0.51 1.44,-0.62 1.54,-0.33 3.08,-0.32 4.6,0.07 0.41,0.11 0.82,0.26 1.15,0.53 0.29,0.23 0.47,0.52 0.36,0.92 -0.07,0.25 -0.24,0.43 -0.45,0.57 -0.44,0.31 -0.95,0.46 -1.47,0.57 -1.49,0.3 -2.98,0.28 -4.46,-0.1 -0.46,-0.12 -0.89,-0.32 -1.27,-0.61 -0.05,-0.07 -0.09,-0.11 -0.1,-0.14zm3.8 0.4c0.76,0 1.51,-0.07 2.25,-0.26 0.33,-0.09 0.64,-0.2 0.92,-0.4 0.22,-0.16 0.22,-0.27 0.01,-0.45 -0.07,-0.06 -0.15,-0.1 -0.23,-0.15 -0.26,-0.14 -0.54,-0.22 -0.82,-0.3 -0.12,-0.03 -0.19,-0.01 -0.28,0.09 -0.6,0.71 -1.36,1.02 -2.29,0.85 -0.58,-0.1 -1.06,-0.41 -1.42,-0.87 -0.04,-0.05 -0.08,-0.11 -0.16,-0.09 -0.4,0.1 -0.8,0.21 -1.14,0.46 -0.22,0.16 -0.22,0.28 -0,0.45 0.19,0.15 0.42,0.24 0.65,0.32 0.82,0.27 1.66,0.34 2.51,0.35l-0 0zm-1.17 -1.72c0.59,0.7 1.87,0.63 2.36,0 -0.79,-0.09 -1.57,-0.09 -2.36,0z"/>
 </g>
</svg>
