<?xml version="1.0" encoding="UTF-8"?>
<!DOCTYPE svg PUBLIC "-//W3C//DTD SVG 1.1//EN" "http://www.w3.org/Graphics/SVG/1.1/DTD/svg11.dtd">
<!-- Creator: CorelDRAW 2021 (64-Bit) -->
<svg xmlns="http://www.w3.org/2000/svg" xml:space="preserve" width="0.404114in" height="0.229598in" version="1.1" style="shape-rendering:geometricPrecision; text-rendering:geometricPrecision; image-rendering:optimizeQuality; fill-rule:evenodd; clip-rule:evenodd"
viewBox="0 0 14.29 8.12"
 xmlns:xlink="http://www.w3.org/1999/xlink"
 xmlns:xodm="http://www.corel.com/coreldraw/odm/2003">
 <defs>
  <style type="text/css">
   <![CDATA[
    .str0 {stroke:#00A0E3;stroke-width:0.37;stroke-miterlimit:22.9256}
    .fil0 {fill:#00A0E3;fill-rule:nonzero}
   ]]>
  </style>
 </defs>
 <g id="Layer_x0020_1">
  <metadata id="CorelCorpID_0Corel-Layer"/>
  <g id="_1808172660576">
   <path class="fil0 str0" d="M14.09 0.31c-0.04,-0.08 -0.12,-0.13 -0.21,-0.13l-13.46 0c-0.13,0 -0.23,0.1 -0.23,0.23 0,0.05 0.02,0.1 0.05,0.14l1.39 1.86c0.04,0.06 0.11,0.09 0.19,0.09l0.07 0c0.66,1.56 2.38,2.32 5.27,2.32 2.89,0 4.61,-0.76 5.27,-2.32l0.07 0c0.07,0 0.14,-0.03 0.19,-0.09l1.39 -1.86c0.05,-0.07 0.06,-0.16 0.02,-0.24zm-6.94 4.05c-2.56,0 -4.12,-0.61 -4.76,-1.86l9.52 0c-0.64,1.25 -2.2,1.86 -4.76,1.86zm5.22 -2.32l-10.44 0 -1.04 -1.39 12.53 0 -1.04 1.39z"/>
   <path class="fil0 str0" d="M7.15 5.62c-0.13,0 -0.23,0.1 -0.23,0.23l0 1.86c0,0.13 0.1,0.23 0.23,0.23 0.13,0 0.23,-0.1 0.23,-0.23l0 -1.86c0,-0.13 -0.1,-0.23 -0.23,-0.23z"/>
   <path class="fil0 str0" d="M10.94 4.77c-0.06,-0.11 -0.2,-0.15 -0.32,-0.09 -0.11,0.06 -0.15,0.21 -0.09,0.32 0,0 0,0 0,0l0.93 1.61c0.04,0.07 0.12,0.12 0.2,0.12 0.13,-0 0.23,-0.1 0.23,-0.23 0,-0.04 -0.01,-0.08 -0.03,-0.12l-0.93 -1.61z"/>
   <path class="fil0 str0" d="M3.67 4.68c-0,0 -0,0 -0,-0 -0.11,-0.06 -0.25,-0.03 -0.32,0.09 0,0 0,0 0,0l-0.93 1.61c-0.06,0.11 -0.03,0.25 0.08,0.32 0.11,0.06 0.25,0.03 0.32,-0.08 0,-0 0,-0 0,-0l0.93 -1.61c0.06,-0.11 0.03,-0.25 -0.08,-0.32z"/>
  </g>
 </g>
</svg>
