<?xml version="1.0" encoding="UTF-8"?>
<svg version="1.1" xmlns="http://www.w3.org/2000/svg" width="64" height="55">
<path d="M0 0 C0.84498047 -0.00128906 1.68996094 -0.00257812 2.56054688 -0.00390625 C3.44935547 -0.00003906 4.33816406 0.00382812 5.25390625 0.0078125 C6.13884766 0.00394531 7.02378906 0.00007813 7.93554688 -0.00390625 C8.78181641 -0.00261719 9.62808594 -0.00132813 10.5 0 C11.27915771 0.00112793 12.05831543 0.00225586 12.86108398 0.00341797 C14.81640625 0.1328125 14.81640625 0.1328125 16.81640625 1.1328125 C16.67622799 4.11234609 16.52954283 7.09130554 16.37890625 10.0703125 C16.33958984 10.92044922 16.30027344 11.77058594 16.25976562 12.64648438 C16.21787109 13.45537109 16.17597656 14.26425781 16.1328125 15.09765625 C16.09615479 15.846521 16.05949707 16.59538574 16.02172852 17.36694336 C15.81640625 19.1328125 15.81640625 19.1328125 14.81640625 20.1328125 C13.40070502 20.21932861 11.98081125 20.23986154 10.5625 20.23046875 C9.70849609 20.22724609 8.85449219 20.22402344 7.97460938 20.22070312 C7.07677734 20.21232422 6.17894531 20.20394531 5.25390625 20.1953125 C4.35220703 20.19080078 3.45050781 20.18628906 2.52148438 20.18164062 C0.28639311 20.16981475 -1.94856812 20.1533347 -4.18359375 20.1328125 C-4.37954051 16.98744482 -4.56393385 13.84150636 -4.74609375 10.6953125 C-4.80216797 9.79748047 -4.85824219 8.89964844 -4.91601562 7.97460938 C-4.96435547 7.12060547 -5.01269531 6.26660156 -5.0625 5.38671875 C-5.10963135 4.59595947 -5.1567627 3.8052002 -5.20532227 2.99047852 C-5.16321495 -0.60946014 -3.04810707 0.00441892 0 0 Z " fill="#EAFAFD" transform="translate(25.18359375,16.8671875)"/>
<path d="M0 0 C2.64 0 5.28 0 8 0 C8 4.95 8 9.9 8 15 C5.36 15 2.72 15 0 15 C0 10.05 0 5.1 0 0 Z " fill="#39A1CE" transform="translate(22,21)"/>
<path d="M0 0 C2.64 0 5.28 0 8 0 C8 4.95 8 9.9 8 15 C5.36 15 2.72 15 0 15 C0 10.05 0 5.1 0 0 Z " fill="#42ACD8" transform="translate(32,21)"/>
<path d="M0 0 C1.32 0 2.64 0 4 0 C4 3.96 4 7.92 4 12 C2.68 12.33 1.36 12.66 0 13 C0 8.71 0 4.42 0 0 Z " fill="#5BC2EE" transform="translate(23,22)"/>
<path d="M0 0 C1.23556641 0.01740234 1.23556641 0.01740234 2.49609375 0.03515625 C3.32238281 0.04417969 4.14867187 0.05320312 5 0.0625 C5.63808594 0.07410156 6.27617187 0.08570312 6.93359375 0.09765625 C6.93359375 1.08765625 6.93359375 2.07765625 6.93359375 3.09765625 C0.87890625 3.29296875 0.87890625 3.29296875 -1.06640625 3.09765625 C-1.72640625 2.43765625 -2.38640625 1.77765625 -3.06640625 1.09765625 C-2.06640625 0.09765625 -2.06640625 0.09765625 0 0 Z " fill="#A3D4E8" transform="translate(23.06640625,16.90234375)"/>
<path d="M0 0 C6.0546875 -0.1953125 6.0546875 -0.1953125 8 0 C8.66 0.66 9.32 1.32 10 2 C6.78548731 3.60725635 3.56387464 3.05748185 0 3 C0 2.01 0 1.02 0 0 Z " fill="#A3D3E8" transform="translate(32,17)"/>
</svg>
