<?xml version="1.0" encoding="UTF-8"?>
<svg version="1.1" xmlns="http://www.w3.org/2000/svg" width="79" height="58">
<path d="M0 0 C1.27617188 0.00483398 1.27617188 0.00483398 2.578125 0.00976562 C3.46757813 0.01814453 4.35703125 0.02652344 5.2734375 0.03515625 C6.170625 0.03966797 7.0678125 0.04417969 7.9921875 0.04882812 C10.21100398 0.06063034 12.42968768 0.0770947 14.6484375 0.09765625 C15.58992281 2.92211217 15.72155445 4.23937243 15.52734375 7.109375 C15.47900391 7.86669922 15.43066406 8.62402344 15.38085938 9.40429688 C15.32478516 10.18998047 15.26871094 10.97566406 15.2109375 11.78515625 C15.15873047 12.58244141 15.10652344 13.37972656 15.05273438 14.20117188 C14.92324728 16.16702147 14.78653709 18.1323929 14.6484375 20.09765625 C13.3284375 20.42765625 12.0084375 20.75765625 10.6484375 21.09765625 C10.7515625 19.88078125 10.8546875 18.66390625 10.9609375 17.41015625 C10.9937318 13.69128227 10.82682709 13.2938848 8.1484375 10.34765625 C7.3234375 9.60515625 6.4984375 8.86265625 5.6484375 8.09765625 C5.6484375 6.77765625 5.6484375 5.45765625 5.6484375 4.09765625 C4.9884375 4.09765625 4.3284375 4.09765625 3.6484375 4.09765625 C3.5659375 5.02578125 3.4834375 5.95390625 3.3984375 6.91015625 C2.6484375 10.09765625 2.6484375 10.09765625 0.5859375 11.47265625 C-1.54783233 12.89138639 -1.54783233 12.89138639 -1.61328125 15.0546875 C-1.60268834 17.07087086 -1.48348974 19.0857659 -1.3515625 21.09765625 C-2.6715625 21.09765625 -3.9915625 21.09765625 -5.3515625 21.09765625 C-5.33996094 19.90527344 -5.32835938 18.71289062 -5.31640625 17.484375 C-5.30702658 15.91797031 -5.29792657 14.35156394 -5.2890625 12.78515625 C-5.28068359 11.99947266 -5.27230469 11.21378906 -5.26367188 10.40429688 C-5.26044922 9.64697266 -5.25722656 8.88964844 -5.25390625 8.109375 C-5.24866943 7.41287842 -5.24343262 6.71638184 -5.23803711 5.9987793 C-5.28260259 3.87267657 -5.28260259 3.87267657 -6.3515625 1.09765625 C-4.00303722 -0.07660639 -2.61382185 -0.01742548 0 0 Z " fill="#ECF6FA" transform="translate(33.3515625,14.90234375)"/>
<path d="M0 0 C1.134375 0.020625 2.26875 0.04125 3.4375 0.0625 C3.6875 2.875 3.6875 2.875 3.4375 6.0625 C2.7775 6.51625 2.1175 6.97 1.4375 7.4375 C-0.76020325 8.84447957 -0.76020325 8.84447957 -0.828125 11.01953125 C-0.81400088 13.03574973 -0.69443095 15.05055302 -0.5625 17.0625 C-1.8825 17.0625 -3.2025 17.0625 -4.5625 17.0625 C-4.58934679 14.41659986 -4.60926357 11.77096904 -4.625 9.125 C-4.63337891 8.37025391 -4.64175781 7.61550781 -4.65039062 6.83789062 C-4.65902441 4.91255687 -4.61474333 2.98714419 -4.5625 1.0625 C-3.5625 0.0625 -3.5625 0.0625 0 0 Z " fill="#BBDDEA" transform="translate(32.5625,18.9375)"/>
<path d="M0 0 C1.27617188 0.00483398 1.27617188 0.00483398 2.578125 0.00976562 C3.46757813 0.01814453 4.35703125 0.02652344 5.2734375 0.03515625 C6.170625 0.03966797 7.0678125 0.04417969 7.9921875 0.04882812 C10.21100398 0.06063034 12.42968768 0.0770947 14.6484375 0.09765625 C14.9784375 0.75765625 15.3084375 1.41765625 15.6484375 2.09765625 C13.0084375 1.76765625 10.3684375 1.43765625 7.6484375 1.09765625 C7.3184375 3.40765625 6.9884375 5.71765625 6.6484375 8.09765625 C6.3184375 6.77765625 5.9884375 5.45765625 5.6484375 4.09765625 C4.9884375 4.09765625 4.3284375 4.09765625 3.6484375 4.09765625 C3.3184375 5.41765625 2.9884375 6.73765625 2.6484375 8.09765625 C2.6484375 6.77765625 2.6484375 5.45765625 2.6484375 4.09765625 C0.0084375 4.09765625 -2.6315625 4.09765625 -5.3515625 4.09765625 C-5.6815625 3.10765625 -6.0115625 2.11765625 -6.3515625 1.09765625 C-4.00303722 -0.07660639 -2.61382185 -0.01742548 0 0 Z " fill="#C7E7F5" transform="translate(33.3515625,14.90234375)"/>
<path d="M0 0 C2.31 0 4.62 0 7 0 C7 1.98 7 3.96 7 6 C5.00045254 6.04254356 2.99958364 6.04080783 1 6 C0 5 0 5 -0.0625 2.4375 C-0.041875 1.633125 -0.02125 0.82875 0 0 Z " fill="#2B9CCD" transform="translate(40,20)"/>
<path d="M0 0 C2.31 0 4.62 0 7 0 C6.67 1.65 6.34 3.3 6 5 C5.34 5 4.68 5 4 5 C3.67 5.66 3.34 6.32 3 7 C2.01 7 1.02 7 0 7 C0 4.69 0 2.38 0 0 Z " fill="#40ACD7" transform="translate(29,19)"/>
<path d="M0 0 C2.875 -0.125 2.875 -0.125 6 0 C6.66 0.66 7.32 1.32 8 2 C7.34 2 6.68 2 6 2 C6 2.66 6 3.32 6 4 C3.69 4 1.38 4 -1 4 C-0.67 2.68 -0.34 1.36 0 0 Z " fill="#93D1ED" transform="translate(41,16)"/>
<path d="M0 0 C0.99 0 1.98 0 3 0 C3 2.31 3 4.62 3 7 C2.01 7 1.02 7 0 7 C0 4.69 0 2.38 0 0 Z " fill="#86BDCF" transform="translate(44,29)"/>
<path d="M0 0 C1.65 0 3.3 0 5 0 C4.67 2.31 4.34 4.62 4 7 C3.67 5.68 3.34 4.36 3 3 C2.34 3 1.68 3 1 3 C0.67 4.32 0.34 5.64 0 7 C0 4.69 0 2.38 0 0 Z " fill="#C0E3F1" transform="translate(36,16)"/>
<path d="M0 0 C0.66 0.33 1.32 0.66 2 1 C2 2.32 2 3.64 2 5 C0.35 5 -1.3 5 -3 5 C-3 4.01 -3 3.02 -3 2 C-2.01 1.34 -1.02 0.68 0 0 Z " fill="#78C9E9" transform="translate(44,21)"/>
</svg>
