<?xml version="1.0" encoding="UTF-8"?>
<!DOCTYPE svg PUBLIC "-//W3C//DTD SVG 1.1//EN" "http://www.w3.org/Graphics/SVG/1.1/DTD/svg11.dtd">
<!-- Creator: CorelDRAW 2021 (64-Bit) -->
<svg xmlns="http://www.w3.org/2000/svg" xml:space="preserve" width="0.314961in" height="0.314961in" version="1.1" style="shape-rendering:geometricPrecision; text-rendering:geometricPrecision; image-rendering:optimizeQuality; fill-rule:evenodd; clip-rule:evenodd"
viewBox="0 0 6.85 6.85"
 xmlns:xlink="http://www.w3.org/1999/xlink"
 xmlns:xodm="http://www.corel.com/coreldraw/odm/2003">
 <defs>
  <style type="text/css">
   <![CDATA[
    .fil0 {fill:#00A0E3}
   ]]>
  </style>
 </defs>
 <g id="Layer_x0020_1">
  <metadata id="CorelCorpID_0Corel-Layer"/>
  <g id="_1807985567296">
   <circle class="fil0" cx="0.43" cy="3.42" r="0.43"/>
   <circle class="fil0" cx="6.42" cy="3.42" r="0.43"/>
   <circle class="fil0" cx="3.42" cy="0.43" r="0.43"/>
   <circle class="fil0" cx="3.42" cy="6.42" r="0.43"/>
   <circle class="fil0" transform="matrix(0.0539177 0.0311294 -0.0311294 0.0539177 4.92222 0.829425)" r="6.87"/>
   <circle class="fil0" transform="matrix(0.0539177 0.0311294 -0.0311294 0.0539177 1.92609 6.01888)" r="6.87"/>
   <circle class="fil0" transform="matrix(0.0311294 0.0539177 -0.0539177 0.0311294 6.01888 1.92609)" r="6.87"/>
   <circle class="fil0" transform="matrix(0.0311294 0.0539177 -0.0539177 0.0311294 0.829425 4.92222)" r="6.87"/>
   <circle class="fil0" transform="matrix(-0.0311294 0.0539177 -0.0539177 -0.0311294 6.01888 4.92222)" r="6.87"/>
   <circle class="fil0" transform="matrix(-0.0311294 0.0539177 -0.0539177 -0.0311294 0.829425 1.92609)" r="6.87"/>
   <circle class="fil0" transform="matrix(-0.0539177 0.0311294 -0.0311294 -0.0539177 4.92222 6.01888)" r="6.87"/>
   <circle class="fil0" transform="matrix(-0.0539177 0.0311294 -0.0311294 -0.0539177 1.92609 0.829425)" r="6.87"/>
   <circle class="fil0" cx="1.42" cy="3.42" r="0.29"/>
   <circle class="fil0" cx="5.43" cy="3.42" r="0.29"/>
   <circle class="fil0" cx="3.42" cy="1.42" r="0.29"/>
   <circle class="fil0" cx="3.42" cy="5.43" r="0.29"/>
   <circle class="fil0" transform="matrix(0.0360103 0.0207905 -0.0207905 0.0360103 4.42467 1.6912)" r="6.87"/>
   <circle class="fil0" transform="matrix(0.0360103 0.0207905 -0.0207905 0.0360103 2.42363 5.15711)" r="6.87"/>
   <circle class="fil0" transform="matrix(0.0207905 0.0360103 -0.0360103 0.0207905 5.15711 2.42363)" r="6.87"/>
   <circle class="fil0" transform="matrix(0.0207905 0.0360103 -0.0360103 0.0207905 1.6912 4.42467)" r="6.87"/>
   <circle class="fil0" transform="matrix(-0.0207905 0.0360103 -0.0360103 -0.0207905 5.15711 4.42467)" r="6.87"/>
   <circle class="fil0" transform="matrix(-0.0207905 0.0360103 -0.0360103 -0.0207905 1.6912 2.42363)" r="6.87"/>
   <circle class="fil0" transform="matrix(-0.0360103 0.0207905 -0.0207905 -0.0360103 4.42467 5.15711)" r="6.87"/>
   <circle class="fil0" transform="matrix(-0.0360103 0.0207905 -0.0207905 -0.0360103 2.42363 1.6912)" r="6.87"/>
   <circle class="fil0" cx="2.42" cy="3.42" r="0.14"/>
   <circle class="fil0" cx="4.43" cy="3.42" r="0.14"/>
   <circle class="fil0" cx="3.42" cy="2.42" r="0.14"/>
   <circle class="fil0" cx="3.42" cy="4.43" r="0.14"/>
   <circle class="fil0" transform="matrix(0.0181029 0.0104517 -0.0104517 0.0181029 3.92713 2.55297)" r="6.87"/>
   <circle class="fil0" transform="matrix(0.0181029 0.0104517 -0.0104517 0.0181029 2.92118 4.29533)" r="6.87"/>
   <circle class="fil0" transform="matrix(0.0104517 0.0181029 -0.0181029 0.0104517 4.29533 2.92118)" r="6.87"/>
   <circle class="fil0" transform="matrix(0.0104517 0.0181029 -0.0181029 0.0104517 2.55297 3.92713)" r="6.87"/>
   <circle class="fil0" transform="matrix(-0.0104517 0.0181029 -0.0181029 -0.0104517 4.29533 3.92713)" r="6.87"/>
   <circle class="fil0" transform="matrix(-0.0104517 0.0181029 -0.0181029 -0.0104517 2.55297 2.92118)" r="6.87"/>
   <circle class="fil0" transform="matrix(-0.0181029 0.0104517 -0.0104517 -0.0181029 3.92713 4.29533)" r="6.87"/>
   <circle class="fil0" transform="matrix(-0.0181029 0.0104517 -0.0104517 -0.0181029 2.92118 2.55297)" r="6.87"/>
  </g>
 </g>
</svg>
