<?xml version="1.0" encoding="UTF-8"?>
<!DOCTYPE svg PUBLIC "-//W3C//DTD SVG 1.1//EN" "http://www.w3.org/Graphics/SVG/1.1/DTD/svg11.dtd">
<!-- Creator: CorelDRAW 2021 (64-Bit) -->
<svg xmlns="http://www.w3.org/2000/svg" xml:space="preserve" width="0.370587in" height="0.237787in" version="1.1" style="shape-rendering:geometricPrecision; text-rendering:geometricPrecision; image-rendering:optimizeQuality; fill-rule:evenodd; clip-rule:evenodd"
viewBox="0 0 8.93 5.73"
 xmlns:xlink="http://www.w3.org/1999/xlink"
 xmlns:xodm="http://www.corel.com/coreldraw/odm/2003">
 <defs>
  <style type="text/css">
   <![CDATA[
    .fil0 {fill:#00A0E3;fill-rule:nonzero}
   ]]>
  </style>
 </defs>
 <g id="Layer_x0020_1">
  <metadata id="CorelCorpID_0Corel-Layer"/>
  <g id="_1807851717600">
   <path class="fil0" d="M3.94 4.59c-0.53,-0.27 -1.14,-0.41 -1.79,-0.41 -0.32,0 -0.65,0.03 -0.99,0.1l0 -3.78c1.22,-0.34 2.3,0 2.78,0.41l0 3.68zm-3.14 -4.36l0 4.51c1.5,-0.42 2.7,-0.13 3.51,0.51l0 -4.49c-0.51,-0.54 -1.91,-1.08 -3.51,-0.53z"/>
   <path class="fil0" d="M7.78 0.5l0 3.78c-1.03,-0.2 -1.99,-0.09 -2.78,0.31l0 -3.68c0.48,-0.41 1.56,-0.75 2.78,-0.41zm-3.14 0.26c0,0.99 0,3.59 0,4.49 0.81,-0.64 2.01,-0.92 3.51,-0.51 0,-1.05 0,-3.84 0,-4.51 -1.6,-0.56 -2.99,-0.02 -3.51,0.53z"/>
   <path class="fil0" d="M8.5 0.61c0,1.01 0,3.23 0,4.13l0 0.48 -0.46 -0.13c-0.46,-0.13 -1.87,-0.42 -2.65,0.26 1.04,-0.32 2.17,0 2.59,0.12l0.95 0.26 0 -5.08 -0.43 -0.04z"/>
   <path class="fil0" d="M0.43 0.61c0,1.01 0,3.23 0,4.13l0 0.48 0.46 -0.13c0.46,-0.13 1.87,-0.42 2.65,0.26 -1.04,-0.32 -2.17,0 -2.59,0.12l-0.95 0.26 0 -5.08 0.43 -0.04z"/>
   <path class="fil0" d="M6.78 1.73c-0.55,0 -1.07,0.1 -1.54,0.3l0 0.2c0.1,-0.05 0.2,-0.09 0.31,-0.12 0.37,-0.12 0.78,-0.19 1.23,-0.19 0.24,0 0.5,0.02 0.76,0.06l0 -0.19c-0.26,-0.04 -0.51,-0.06 -0.76,-0.06z"/>
   <path class="fil0" d="M6.79 1.23c-0.56,0 -1.08,0.1 -1.55,0.3l0 0.2c0.1,-0.05 0.21,-0.09 0.32,-0.13 0.37,-0.12 0.78,-0.19 1.23,-0.19 0.24,0 0.49,0.02 0.75,0.06l0 -0.19c-0.26,-0.04 -0.51,-0.06 -0.75,-0.06z"/>
   <path class="fil0" d="M6.72 0.72c-0.53,0.01 -1.03,0.12 -1.48,0.32l0 0.21c0.08,-0.04 0.17,-0.08 0.26,-0.11 0.37,-0.13 0.77,-0.21 1.22,-0.23 0.26,-0.01 0.53,0.01 0.81,0.05l0 -0.19c-0.28,-0.04 -0.55,-0.05 -0.82,-0.05z"/>
   <path class="fil0" d="M6.75 2.73c-0.54,0 -1.05,0.1 -1.51,0.29l0 0.2c0.09,-0.04 0.18,-0.08 0.28,-0.11 0.37,-0.12 0.78,-0.19 1.23,-0.19 0.25,0 0.52,0.02 0.79,0.07l0 -0.19c-0.27,-0.04 -0.53,-0.06 -0.79,-0.06z"/>
   <path class="fil0" d="M6.74 3.73c-0.54,0 -1.04,0.1 -1.5,0.28l0 0.2c0.09,-0.04 0.18,-0.07 0.27,-0.11 0.37,-0.12 0.78,-0.19 1.23,-0.19 0.26,0 0.52,0.02 0.8,0.07l0 -0.19c-0.27,-0.04 -0.54,-0.07 -0.8,-0.07z"/>
   <path class="fil0" d="M6.77 3.23c-0.55,0 -1.07,0.1 -1.53,0.29l0 0.2c0.1,-0.04 0.2,-0.08 0.3,-0.12 0.37,-0.12 0.78,-0.19 1.23,-0.19 0.25,0 0.5,0.02 0.77,0.07l0 -0.19c-0.26,-0.04 -0.52,-0.06 -0.77,-0.06z"/>
   <path class="fil0" d="M6.76 2.23c-0.55,0 -1.06,0.1 -1.52,0.29l0 0.2c0.09,-0.04 0.19,-0.08 0.29,-0.11 0.37,-0.12 0.78,-0.19 1.23,-0.19 0.25,0 0.51,0.02 0.78,0.07l0 -0.19c-0.27,-0.04 -0.53,-0.06 -0.78,-0.06z"/>
   <path class="fil0" d="M2.15 1.73c-0.25,0 -0.5,0.02 -0.76,0.06l0 0.19c0.26,-0.04 0.52,-0.06 0.76,-0.06 0.45,0 0.86,0.07 1.23,0.19 0.11,0.04 0.21,0.08 0.31,0.12l0 -0.2c-0.47,-0.2 -0.99,-0.3 -1.54,-0.3z"/>
   <path class="fil0" d="M3.42 4.11c0.09,0.03 0.19,0.07 0.27,0.11l0 -0.2c-0.46,-0.19 -0.96,-0.28 -1.5,-0.28 -0.26,0 -0.52,0.02 -0.8,0.07l0 0.19c0.28,-0.05 0.54,-0.07 0.8,-0.07 0.45,0 0.86,0.07 1.23,0.19z"/>
   <path class="fil0" d="M2.21 0.72c-0.26,-0.01 -0.54,0.01 -0.82,0.05l0 0.19c0.28,-0.04 0.55,-0.06 0.81,-0.05 0.45,0.01 0.86,0.09 1.22,0.23 0.09,0.03 0.18,0.07 0.27,0.11l0 -0.21c-0.45,-0.2 -0.95,-0.3 -1.48,-0.32z"/>
   <path class="fil0" d="M2.14 1.22c-0.24,0 -0.49,0.02 -0.75,0.06l0 0.19c0.26,-0.04 0.51,-0.06 0.75,-0.06 0.45,0 0.86,0.07 1.23,0.19 0.11,0.04 0.22,0.08 0.32,0.13l0 -0.2c-0.47,-0.2 -0.99,-0.3 -1.55,-0.3z"/>
   <path class="fil0" d="M2.17 2.23c-0.25,0 -0.51,0.02 -0.78,0.06l0 0.19c0.27,-0.04 0.53,-0.07 0.78,-0.07 0.45,0 0.86,0.07 1.23,0.19 0.1,0.03 0.2,0.07 0.29,0.11l0 -0.2c-0.46,-0.19 -0.97,-0.29 -1.52,-0.29z"/>
   <path class="fil0" d="M2.16 3.23c-0.25,0 -0.51,0.02 -0.77,0.06l0 0.19c0.27,-0.04 0.52,-0.06 0.77,-0.06 0.45,-0 0.86,0.07 1.23,0.19 0.1,0.04 0.21,0.08 0.3,0.12l0 -0.2c-0.46,-0.2 -0.98,-0.29 -1.53,-0.29z"/>
   <path class="fil0" d="M2.18 2.73c-0.26,0 -0.52,0.02 -0.79,0.06l0 0.19c0.27,-0.05 0.54,-0.07 0.79,-0.07 0.45,0 0.86,0.07 1.23,0.19 0.1,0.03 0.19,0.07 0.28,0.11l0 -0.2c-0.46,-0.19 -0.97,-0.29 -1.51,-0.29z"/>
  </g>
 </g>
</svg>
