<?xml version="1.0" encoding="UTF-8"?>
<!DOCTYPE svg PUBLIC "-//W3C//DTD SVG 1.1//EN" "http://www.w3.org/Graphics/SVG/1.1/DTD/svg11.dtd">
<!-- Creator: CorelDRAW 2021 (64-Bit) -->
<svg xmlns="http://www.w3.org/2000/svg" xml:space="preserve" width="0.324866in" height="0.362209in" version="1.1" style="shape-rendering:geometricPrecision; text-rendering:geometricPrecision; image-rendering:optimizeQuality; fill-rule:evenodd; clip-rule:evenodd"
viewBox="0 0 7.28 8.12"
 xmlns:xlink="http://www.w3.org/1999/xlink"
 xmlns:xodm="http://www.corel.com/coreldraw/odm/2003">
 <defs>
  <style type="text/css">
   <![CDATA[
    .str0 {stroke:#00A0E3;stroke-width:0.18;stroke-miterlimit:2.61313}
    .fil0 {fill:#00A0E3;fill-rule:nonzero}
   ]]>
  </style>
 </defs>
 <g id="Layer_x0020_1">
  <metadata id="CorelCorpID_0Corel-Layer"/>
  <path class="fil0 str0" d="M3.68 3.15c-0.5,-0.01 -0.9,0.38 -0.91,0.87 -0.01,0.49 0.37,0.88 0.86,0.9 0.49,0.01 0.89,-0.38 0.9,-0.88 0.01,-0.47 -0.38,-0.88 -0.85,-0.89l0 0zm-2.69 0.41c0.1,0 0.19,0.03 0.27,0.08 0.21,-0.19 0.43,-0.38 0.68,-0.56 0.03,-0.31 0.08,-0.6 0.15,-0.87 -0.16,-0.08 -0.27,-0.24 -0.27,-0.43 -0.7,-0.08 -1.24,0.04 -1.44,0.4 -0.2,0.35 -0.04,0.88 0.38,1.45 0.07,-0.04 0.15,-0.06 0.23,-0.06zm0.42 0.22c0.05,0.08 0.08,0.17 0.08,0.27 0,0.1 -0.03,0.2 -0.08,0.27 0.16,0.15 0.33,0.29 0.52,0.43 -0.02,-0.23 -0.03,-0.47 -0.03,-0.71 0,-0.24 0.01,-0.48 0.03,-0.71 -0.19,0.14 -0.36,0.29 -0.52,0.43zm-0.14 0.69c-0.08,0.05 -0.17,0.08 -0.27,0.08 -0.08,0 -0.16,-0.02 -0.23,-0.06 -0.42,0.57 -0.58,1.09 -0.38,1.44l0 0c0.21,0.36 0.75,0.48 1.46,0.39 0.11,-0.01 0.23,-0.03 0.34,-0.06 -0.11,-0.37 -0.19,-0.79 -0.24,-1.24 -0.25,-0.18 -0.48,-0.37 -0.68,-0.56zm-0.66 -0.11c-0.07,-0.09 -0.11,-0.19 -0.11,-0.31 0,-0.12 0.04,-0.23 0.11,-0.31 -0.47,-0.64 -0.64,-1.24 -0.4,-1.67 0.25,-0.43 0.86,-0.59 1.65,-0.5 0.07,-0.18 0.25,-0.32 0.46,-0.32 0.03,0 0.05,0 0.07,0.01 0.31,-0.73 0.76,-1.18 1.25,-1.18 0.5,0 0.94,0.45 1.25,1.18 0.02,-0 0.05,-0.01 0.07,-0.01 0.21,0 0.39,0.13 0.46,0.32 0.79,-0.09 1.4,0.06 1.65,0.5 0.25,0.43 0.08,1.05 -0.41,1.69 -0.07,0.1 -0.16,0.2 -0.24,0.3 0.09,0.1 0.17,0.2 0.24,0.3 0.48,0.64 0.65,1.25 0.41,1.69 -0.25,0.43 -0.86,0.59 -1.65,0.5 -0.07,0.18 -0.25,0.32 -0.46,0.32 -0.03,0 -0.05,-0 -0.07,-0.01 -0.31,0.73 -0.76,1.18 -1.25,1.18 -0.5,0 -0.94,-0.46 -1.26,-1.19 -0.05,-0.11 -0.09,-0.23 -0.14,-0.36 -0.13,0.03 -0.26,0.05 -0.38,0.06 -0.8,0.1 -1.41,-0.06 -1.66,-0.49 -0.25,-0.43 -0.08,-1.04 0.4,-1.67zm4.37 1.49c0.01,0 0.02,0 0.03,0 0.05,-0.21 0.09,-0.43 0.12,-0.66 -0.19,0.13 -0.39,0.26 -0.6,0.38 -0.21,0.12 -0.42,0.23 -0.63,0.33 0.22,0.09 0.43,0.17 0.63,0.23 0.08,-0.16 0.25,-0.27 0.44,-0.27zm0.22 0.05c0.16,0.08 0.27,0.24 0.27,0.43 0.7,0.08 1.24,-0.05 1.44,-0.4 0.21,-0.36 0.04,-0.89 -0.39,-1.47 -0.07,-0.09 -0.14,-0.18 -0.22,-0.27 -0.27,0.28 -0.59,0.56 -0.95,0.83 -0.03,0.31 -0.08,0.6 -0.15,0.87zm-0.49 0.87c-0.14,-0.09 -0.23,-0.24 -0.23,-0.42 0,-0.01 0,-0.02 0,-0.03 -0.27,-0.08 -0.55,-0.19 -0.83,-0.31 -0.41,0.18 -0.82,0.32 -1.2,0.41 0.04,0.11 0.08,0.22 0.12,0.32 0.28,0.66 0.66,1.07 1.07,1.07 0.41,0 0.78,-0.4 1.06,-1.05zm0.76 -5c-0.01,0.19 -0.12,0.35 -0.27,0.43 0.06,0.27 0.11,0.57 0.15,0.87 0.36,0.27 0.69,0.55 0.95,0.83 0.08,-0.09 0.15,-0.18 0.22,-0.27 0.43,-0.58 0.6,-1.11 0.39,-1.47 -0.2,-0.35 -0.74,-0.48 -1.44,-0.4zm-0.47 0.48c-0.01,0 -0.02,0 -0.03,0 -0.19,0 -0.36,-0.11 -0.44,-0.27 -0.21,0.06 -0.42,0.14 -0.63,0.23 0.21,0.1 0.42,0.21 0.63,0.33l0 0c0.21,0.12 0.41,0.25 0.6,0.38 -0.03,-0.23 -0.07,-0.45 -0.12,-0.66zm-0.53 -0.47c-0,-0.01 -0,-0.02 -0,-0.03 0,-0.18 0.09,-0.33 0.23,-0.42 -0.28,-0.65 -0.66,-1.05 -1.06,-1.05 -0.41,0 -0.78,0.4 -1.06,1.05 0.14,0.09 0.23,0.24 0.23,0.42 0,0.01 -0,0.02 -0,0.03 0.27,0.08 0.55,0.19 0.83,0.31 0.28,-0.12 0.56,-0.23 0.83,-0.31zm-1.71 0.2c-0.08,0.16 -0.25,0.27 -0.44,0.27 -0.01,0 -0.02,-0 -0.03,-0 -0.05,0.21 -0.09,0.43 -0.12,0.66 0.19,-0.13 0.39,-0.26 0.6,-0.38l0 -0c0.21,-0.12 0.42,-0.23 0.63,-0.33 -0.22,-0.09 -0.43,-0.17 -0.63,-0.23zm0.63 3.92c-0.21,-0.1 -0.42,-0.21 -0.63,-0.33 -0.21,-0.12 -0.41,-0.25 -0.6,-0.38 0.05,0.38 0.12,0.73 0.22,1.04 0.32,-0.08 0.66,-0.19 1.01,-0.33zm2.76 -1.85c-0.23,-0.24 -0.49,-0.48 -0.79,-0.71 0.02,0.23 0.03,0.47 0.03,0.71 0,0.24 -0.01,0.48 -0.03,0.71 0.3,-0.23 0.57,-0.47 0.79,-0.71zm-1.01 -0.87c-0.23,-0.16 -0.47,-0.32 -0.73,-0.47l-0 -0c-0.26,-0.15 -0.52,-0.28 -0.77,-0.4 -0.26,0.12 -0.52,0.25 -0.77,0.4l-0 0c-0.26,0.15 -0.5,0.31 -0.73,0.47 -0.03,0.28 -0.04,0.57 -0.04,0.87 0,0.3 0.01,0.59 0.04,0.87 0.23,0.16 0.47,0.32 0.73,0.47l0 0c0.26,0.15 0.52,0.28 0.77,0.4 0.26,-0.12 0.52,-0.25 0.77,-0.4 0.26,-0.15 0.5,-0.31 0.73,-0.47 0.03,-0.28 0.04,-0.57 0.04,-0.87 0,-0.3 -0.01,-0.59 -0.04,-0.87z"/>
 </g>
</svg>
