<?xml version="1.0" encoding="UTF-8"?>
<!DOCTYPE svg PUBLIC "-//W3C//DTD SVG 1.1//EN" "http://www.w3.org/Graphics/SVG/1.1/DTD/svg11.dtd">
<!-- Creator: CorelDRAW 2021 (64-Bit) -->
<svg xmlns="http://www.w3.org/2000/svg" xml:space="preserve" width="0.354323in" height="0.344in" version="1.1" style="shape-rendering:geometricPrecision; text-rendering:geometricPrecision; image-rendering:optimizeQuality; fill-rule:evenodd; clip-rule:evenodd"
viewBox="0 0 11.04 10.72"
 xmlns:xlink="http://www.w3.org/1999/xlink"
 xmlns:xodm="http://www.corel.com/coreldraw/odm/2003">
 <defs>
  <style type="text/css">
   <![CDATA[
    .fil0 {fill:#00A0E3;fill-rule:nonzero}
   ]]>
  </style>
 </defs>
 <g id="Layer_x0020_1">
  <metadata id="CorelCorpID_0Corel-Layer"/>
  <path class="fil0" d="M8.73 7.87c-0.24,0.02 -0.48,0 -0.72,0 -0.58,0.01 -0.97,0.38 -1,0.96 -0.01,0.16 -0.04,0.22 -0.21,0.22 -0.47,-0.01 -0.94,0 -1.41,-0 -0.33,-0 -0.57,-0.17 -0.75,-0.43 -0.15,-0.22 -0.12,-0.47 -0.14,-0.72l0 -0.31c0.12,0 0.43,-0.02 0.6,-0.06 0.55,-0.15 0.95,-0.36 1.44,-0.81 1.01,-0.93 1.3,-2.38 0.74,-3.64 -0.54,-1.23 -1.83,-1.98 -3.21,-1.87 -1.55,0.13 -2.81,1.42 -2.88,2.96 -0.08,1.64 0.94,3.08 2.5,3.37 0.12,0.02 0.41,0.05 0.55,0.05l0 0.46c0.02,0.77 0.5,1.23 1.27,1.23 0.42,0 0.83,0.01 1.25,0 0.18,-0 0.24,0.04 0.25,0.23 0.01,0.55 0.41,0.93 0.95,0.94 0.28,0.01 0.55,-0 0.83,0 0.14,0 0.18,-0.05 0.18,-0.18 -0.01,-0.36 -0,-0.73 -0,-1.09 0,-0.35 -0.01,-0.69 0,-1.04 0.01,-0.19 -0.04,-0.28 -0.25,-0.26l0 -0zm-4.5 -5.7c-1.1,0.07 -1.97,0.94 -2.05,2.04 0,0.01 0,0.02 0,0.03 -0.02,0.09 0.03,0.23 -0.11,0.23 -0.17,-0 -0.08,-0.16 -0.11,-0.24 0.04,-1.19 1.12,-2.25 2.27,-2.27 0.09,0 0.23,-0.05 0.24,0.09 0.01,0.16 -0.14,0.12 -0.24,0.13l-0 -0zm3.85 7.02c0,0.12 0,0.25 0,0.37 0,0.08 -0.02,0.15 -0.11,0.14 -0.07,-0 -0.1,-0.06 -0.1,-0.13 0,-0.28 0,-0.56 0,-0.85 0,-0.07 0.04,-0.12 0.11,-0.12 0.08,0 0.1,0.06 0.1,0.13 0,0.15 0,0.3 0,0.45l0 0zm0.55 0.39c0,0.07 -0.03,0.13 -0.11,0.13 -0.07,0 -0.11,-0.06 -0.11,-0.13 -0,-0.28 -0,-0.55 0,-0.82 0,-0.08 0.03,-0.14 0.13,-0.14 0.08,0 0.1,0.07 0.1,0.14 0,0.14 0,0.28 0,0.43 0,0.13 0,0.27 0,0.4l-0 -0zm0.92 -1.97c-0.19,0 -0.37,-0.02 -0.37,0.27 0.01,0.85 0.01,1.7 0,2.55 -0,0.26 0.13,0.29 0.34,0.28 0.19,-0.01 0.38,0.02 0.37,-0.27 -0.02,-0.42 -0,-0.85 -0,-1.27 0,-0.42 -0.01,-0.85 0,-1.27 0.01,-0.26 -0.13,-0.28 -0.34,-0.28zm1.24 2.1c-0.15,-0.01 -0.3,0 -0.45,-0.01 -0.18,-0.02 -0.26,0.04 -0.25,0.23 0.01,0.17 0.01,0.3 0.24,0.27 0.06,-0.01 0.12,0 0.19,0l0 0c0.09,-0 0.18,0 0.27,-0 0.14,-0.01 0.24,-0.08 0.25,-0.22 0.01,-0.16 -0.09,-0.25 -0.24,-0.26l0 -0zm0.03 -1.58c-0.1,-0 -0.19,0 -0.29,0l0 0c-0.1,0 -0.19,0 -0.29,-0 -0.12,-0 -0.15,0.08 -0.14,0.17 0.02,0.11 -0.08,0.28 0.11,0.3 0.21,0.02 0.42,0.01 0.63,-0 0.13,-0.01 0.2,-0.12 0.19,-0.24 -0.01,-0.13 -0.08,-0.22 -0.22,-0.22l0 0zm-6.43 -7.49c0.18,0 0.09,-0.21 0.12,-0.31 0,-0.04 0,-0.07 0,-0.1 -0.01,-0.1 0.04,-0.25 -0.12,-0.25 -0.17,0 -0.12,0.16 -0.13,0.26 0,0.02 -0,0.04 0,0.05 0.02,0.13 -0.07,0.34 0.14,0.34zm-1.93 6.92c-0.14,0.08 -0.18,0.24 -0.27,0.37 -0.04,0.06 -0.09,0.14 -0.03,0.22 0.05,0.06 0.12,0.06 0.16,0 0.09,-0.14 0.18,-0.28 0.26,-0.43 0.04,-0.08 -0.02,-0.13 -0.12,-0.16l0 0zm3.84 0c-0.06,0 -0.13,0.06 -0.11,0.12 0.07,0.18 0.15,0.36 0.29,0.49 0.05,0.05 0.12,0 0.15,-0.06 0.04,-0.09 -0.24,-0.54 -0.33,-0.55l0 0zm-3.87 -6.41c0.04,0.04 0.12,0.01 0.15,-0.06 0.04,-0.09 -0.23,-0.53 -0.32,-0.54 -0.07,0 -0.14,0.05 -0.12,0.11 0.06,0.18 0.15,0.36 0.29,0.49zm3.8 -0.01c0.04,0.03 0.09,0.04 0.12,0.01 0.13,-0.13 0.21,-0.3 0.28,-0.45 0,-0.07 -0.02,-0.11 -0.06,-0.12 -0.04,-0.01 -0.1,-0 -0.12,0.02 -0.09,0.14 -0.17,0.28 -0.25,0.43 -0.02,0.04 0.01,0.09 0.04,0.12l-0 0zm-5.53 0.98c-0.04,-0.02 -0.09,0.01 -0.11,0.05 -0.02,0.04 -0.02,0.09 0.01,0.12 0.14,0.12 0.3,0.2 0.47,0.28 0.1,-0.03 0.17,-0.09 0.1,-0.17 -0.12,-0.14 -0.3,-0.21 -0.47,-0.28l0 -0zm7.02 0.44c0.16,-0.07 0.32,-0.14 0.46,-0.28 0.03,-0.03 0.03,-0.08 0,-0.12 -0.04,-0.05 -0.09,-0.06 -0.14,-0.04 -0.13,0.07 -0.26,0.15 -0.39,0.23 -0.05,0.03 -0.07,0.08 -0.05,0.14 0.02,0.05 0.05,0.07 0.12,0.07l0 0zm0.34 4.04c0.06,0 0.11,0 0.13,-0.05 0.02,-0.05 0.01,-0.11 -0.04,-0.14 -0.14,-0.08 -0.27,-0.16 -0.41,-0.24 -0.05,-0.03 -0.1,-0.01 -0.13,0.05 -0.02,0.04 -0.02,0.1 0.01,0.12 0.14,0.11 0.29,0.2 0.44,0.26l0 0zm-7.4 -2.25c0,-0.19 -0.21,-0.07 -0.31,-0.11 -0.03,0 -0.05,-0 -0.07,0 -0.1,0.02 -0.27,-0.05 -0.28,0.11 -0.01,0.16 0.16,0.12 0.26,0.13 0.02,0 0.04,0 0.05,0 0.12,-0.02 0.34,0.07 0.34,-0.13l-0 -0zm7.44 0.01c0,0.1 0.09,0.12 0.17,0.12 0.11,0 0.23,0 0.34,0 0.08,-0 0.17,-0.02 0.16,-0.13 -0.01,-0.09 -0.08,-0.1 -0.16,-0.1 -0.05,0 -0.1,0 -0.16,0 -0.06,0 -0.12,0 -0.18,0 -0.09,0 -0.17,0.02 -0.17,0.12l0 0zm-7.07 1.82c-0.14,0.08 -0.29,0.16 -0.43,0.26 -0.02,0.01 -0.03,0.09 -0.01,0.12 0.02,0.03 0.09,0.06 0.11,0.04 0.15,-0.07 0.29,-0.15 0.44,-0.24 0.04,-0.02 0.04,-0.08 0.02,-0.12 -0.02,-0.04 -0.06,-0.06 -0.12,-0.07l-0 0z"/>
 </g>
</svg>
