<?xml version="1.0" encoding="UTF-8"?>
<!DOCTYPE svg PUBLIC "-//W3C//DTD SVG 1.1//EN" "http://www.w3.org/Graphics/SVG/1.1/DTD/svg11.dtd">
<!-- Creator: CorelDRAW 2021 (64-Bit) -->
<svg xmlns="http://www.w3.org/2000/svg" xml:space="preserve" width="0.287354in" height="0.334417in" version="1.1" style="shape-rendering:geometricPrecision; text-rendering:geometricPrecision; image-rendering:optimizeQuality; fill-rule:evenodd; clip-rule:evenodd"
viewBox="0 0 8.48 9.87"
 xmlns:xlink="http://www.w3.org/1999/xlink"
 xmlns:xodm="http://www.corel.com/coreldraw/odm/2003">
 <defs>
  <style type="text/css">
   <![CDATA[
    .fil0 {fill:#00A0E3;fill-rule:nonzero}
   ]]>
  </style>
 </defs>
 <g id="Layer_x0020_1">
  <metadata id="CorelCorpID_0Corel-Layer"/>
  <path class="fil0" d="M8.22 9.65c-0.37,0.04 -0.69,-0.01 -0.91,-0.42 -0.03,-0.06 -0.09,-0.1 -0.14,-0.14 -0.78,-0.73 -1.67,-1.05 -2.6,-1.1 -0.17,-0.01 -0.23,-0.04 -0.22,-0.22 0.01,-0.31 0,-0.61 0,-0.92 0,-0.23 0.11,-0.34 0.34,-0.36 0.78,-0.04 1.25,-0.47 1.32,-1.21 0.01,-0.13 -0.02,-0.26 0,-0.38 0.04,-0.21 -0.06,-0.26 -0.23,-0.25 -0.53,0.02 -1.05,0.07 -1.39,0.56 -0.16,-0.5 0.17,-0.86 0.26,-1.32 0.21,0.21 0.41,0.38 0.63,0.52 0.12,0.08 0.19,0.06 0.19,-0.1 0,-0.21 -0.02,-0.42 -0.08,-0.62 -0.04,-0.15 0,-0.17 0.13,-0.14 0.22,0.04 0.44,0.1 0.67,0.09 0.11,-0.01 0.15,-0.03 0.08,-0.14 -0.15,-0.24 -0.26,-0.5 -0.57,-0.68 0.32,-0.08 0.57,-0.16 0.8,-0.28 0.15,-0.07 0.18,-0.14 0.01,-0.24 -0.22,-0.13 -0.46,-0.22 -0.74,-0.29 0.23,-0.2 0.4,-0.41 0.52,-0.64 0.07,-0.13 0.03,-0.17 -0.1,-0.18 -0.27,-0.01 -0.52,0.03 -0.8,0.12 0.07,-0.27 0.13,-0.52 0.13,-0.78 0,-0.21 -0.08,-0.21 -0.23,-0.12 -0.24,0.14 -0.44,0.32 -0.64,0.54 -0.06,-0.31 -0.14,-0.59 -0.3,-0.84 -0.09,-0.15 -0.14,-0.14 -0.23,0 -0.15,0.23 -0.22,0.49 -0.29,0.77 -0.21,-0.21 -0.4,-0.39 -0.64,-0.51 -0.14,-0.07 -0.18,-0.04 -0.19,0.11 -0.01,0.28 0.06,0.54 0.13,0.82 -0.23,-0.05 -0.44,-0.12 -0.65,-0.12 -0.1,0 -0.23,-0.05 -0.29,0.05 -0.05,0.09 0.05,0.18 0.1,0.26 0.11,0.2 0.27,0.35 0.45,0.53 -0.28,0.06 -0.53,0.15 -0.76,0.29 -0.15,0.09 -0.13,0.15 0.01,0.23 0.23,0.14 0.48,0.22 0.76,0.29 -0.2,0.2 -0.37,0.38 -0.49,0.61 -0.08,0.15 -0.08,0.21 0.11,0.21 0.27,0 0.52,-0.04 0.81,-0.13 -0.07,0.25 -0.14,0.48 -0.13,0.71 0,0.08 -0.04,0.2 0.05,0.24 0.08,0.04 0.16,-0.05 0.24,-0.09 0.19,-0.1 0.34,-0.26 0.53,-0.42 0.04,0.39 0.33,0.66 0.3,1.05 -0.03,0.36 -0.01,0.72 -0.01,1.16 -0.42,-0.51 -0.92,-0.58 -1.45,-0.56 -0.09,0 -0.18,0.01 -0.19,0.14 -0.03,0.52 0.01,1.03 0.44,1.4 0.29,0.26 0.66,0.32 1.04,0.31 0.18,-0.01 0.18,0.11 0.16,0.22 -0.02,0.11 0.09,0.3 -0.15,0.31 -0.22,0.01 -0.44,0.02 -0.65,0.05 -0.7,0.14 -1.49,0.46 -2.11,1.18 -0.29,0.34 -0.59,0.48 -0.97,0.43 -0.09,-0.01 -0.27,-0.07 -0.26,0.11 0,0.11 0.01,0.12 0.27,0.12l7.95 0c0.17,0 0.26,-0.01 0.26,-0.11 -0,-0.17 -0.17,-0.12 -0.27,-0.1l0 -0zm-4.88 -7.22c0,-0.51 0.42,-0.93 0.93,-0.92 0.51,0.01 0.91,0.43 0.91,0.94 -0,0.51 -0.42,0.91 -0.94,0.9 -0.5,-0.01 -0.9,-0.42 -0.9,-0.92l0 0zm0.92 -0.72c-0.39,0 -0.72,0.33 -0.72,0.73 0,0.39 0.33,0.72 0.73,0.71 0.39,-0 0.71,-0.33 0.71,-0.71 0,-0.39 -0.33,-0.73 -0.72,-0.73l0 0z"/>
 </g>
</svg>
