<?xml version="1.0" encoding="UTF-8"?>
<!DOCTYPE svg PUBLIC "-//W3C//DTD SVG 1.1//EN" "http://www.w3.org/Graphics/SVG/1.1/DTD/svg11.dtd">
<!-- Creator: CorelDRAW 2021 (64-Bit) -->
<svg xmlns="http://www.w3.org/2000/svg" xml:space="preserve" width="0.320831in" height="0.33465in" version="1.1" style="shape-rendering:geometricPrecision; text-rendering:geometricPrecision; image-rendering:optimizeQuality; fill-rule:evenodd; clip-rule:evenodd"
viewBox="0 0 12.56 13.11"
 xmlns:xlink="http://www.w3.org/1999/xlink"
 xmlns:xodm="http://www.corel.com/coreldraw/odm/2003">
 <defs>
  <style type="text/css">
   <![CDATA[
    .fil0 {fill:#00A0E3;fill-rule:nonzero}
   ]]>
  </style>
 </defs>
 <g id="Layer_x0020_1">
  <metadata id="CorelCorpID_0Corel-Layer"/>
  <path class="fil0" d="M6.03 0.19c-0.82,1.18 -1.62,2.37 -2.17,3.71 -0.74,1.82 0.75,3.73 2.55,3.67 1.83,0.06 3.29,-1.88 2.56,-3.64 -0.57,-1.37 -1.4,-2.57 -2.28,-3.75 -0.18,-0.25 -0.48,-0.24 -0.66,0.01l-0 0zm0.29 6.69c-0.89,0.03 -1.83,-0.91 -1.81,-1.82 0,-0.09 -0.01,-0.19 0.1,-0.21 0.13,-0.02 0.15,0.09 0.17,0.19 0.18,1.01 0.5,1.34 1.56,1.56 0.09,0.02 0.21,0.02 0.19,0.16 -0.02,0.11 -0.12,0.11 -0.2,0.11l-0 -0zm5.72 3.12c-0.16,0.04 -0.32,0.08 -0.46,0.16 -0.61,0.35 -1.22,0.33 -1.83,-0.01 -0.35,-0.2 -0.69,-0.18 -1.08,-0.01 -0.47,0.21 -0.95,0.5 -1.49,0.15 -0.65,-0.42 -1.29,-0.29 -1.92,0.04 -0.3,0.16 -0.6,0.17 -0.89,0 -0.67,-0.38 -1.34,-0.4 -2.01,-0.01 -0.32,0.18 -0.62,0.16 -0.95,0 -0.31,-0.15 -0.64,-0.24 -0.94,-0.35 -0.25,0.02 -0.41,0.12 -0.45,0.35 -0.04,0.22 0.06,0.38 0.26,0.47 0.38,0.15 0.77,0.28 1.15,0.45 0.32,0.15 0.62,0.17 0.93,-0 0.66,-0.37 1.32,-0.41 1.98,-0.01 0.32,0.19 0.66,0.19 0.98,0 0.65,-0.38 1.3,-0.37 1.95,0 0.29,0.17 0.61,0.21 0.92,0.02 0.69,-0.41 1.38,-0.38 2.07,0 0.14,0.08 0.32,0.19 0.49,0.12 0.54,-0.19 1.08,-0.39 1.6,-0.61 0.21,-0.09 0.27,-0.31 0.17,-0.53 -0.09,-0.2 -0.26,-0.29 -0.48,-0.23l0 0.01zm-12.01 -1.46c-0.09,0.26 0.03,0.45 0.37,0.58 0.37,0.14 0.76,0.26 1.12,0.42 0.26,0.12 0.51,0.14 0.74,0 0.73,-0.43 1.46,-0.42 2.19,0.01 0.23,0.13 0.48,0.14 0.71,0.01 0.74,-0.43 1.48,-0.44 2.22,-0.01 0.22,0.13 0.46,0.15 0.68,0.02 0.76,-0.44 1.52,-0.45 2.28,-0.01 0.16,0.09 0.35,0.12 0.53,0.05 0.46,-0.18 0.93,-0.35 1.39,-0.53 0.18,-0.07 0.26,-0.21 0.29,-0.39 0,-0.31 -0.28,-0.5 -0.6,-0.4 -0.24,0.08 -0.48,0.15 -0.7,0.27 -0.41,0.21 -0.79,0.23 -1.19,-0.01 -0.58,-0.34 -1.17,-0.33 -1.75,0 -0.4,0.23 -0.79,0.22 -1.19,-0 -0.57,-0.32 -1.14,-0.34 -1.71,-0.01 -0.4,0.23 -0.8,0.25 -1.22,0.01 -0.57,-0.33 -1.13,-0.34 -1.71,0 -0.4,0.23 -0.81,0.24 -1.22,0 -0.18,-0.11 -0.4,-0.16 -0.6,-0.23 -0.33,-0.12 -0.55,-0.04 -0.65,0.21l-0.01 0.01zm11.89 3.21c-0.34,0.12 -0.67,0.24 -1,0.38 -0.17,0.07 -0.33,0.09 -0.49,-0.01 -0.81,-0.47 -1.63,-0.47 -2.44,0 -0.15,0.09 -0.31,0.1 -0.46,0.01 -0.82,-0.48 -1.65,-0.49 -2.47,-0.01 -0.15,0.09 -0.3,0.1 -0.46,0.01 -0.82,-0.47 -1.65,-0.48 -2.47,-0 -0.15,0.09 -0.3,0.07 -0.46,0.01 -0.34,-0.14 -0.68,-0.27 -1.03,-0.39 -0.28,-0.1 -0.5,-0.01 -0.59,0.23 -0.09,0.23 0.02,0.44 0.29,0.56 0.17,0.07 0.35,0.11 0.51,0.2 0.7,0.4 1.39,0.41 2.08,0.01 0.28,-0.16 0.57,-0.18 0.86,-0.01 0.69,0.4 1.38,0.41 2.08,0 0.28,-0.17 0.57,-0.17 0.85,0 0.69,0.41 1.39,0.4 2.08,0 0.29,-0.17 0.56,-0.14 0.86,-0.01 0.33,0.15 0.68,0.26 1,0.38 0.11,-0.03 0.19,-0.04 0.25,-0.06 0.44,-0.17 0.89,-0.34 1.33,-0.5 0.26,-0.1 0.4,-0.27 0.31,-0.55 -0.08,-0.25 -0.31,-0.34 -0.61,-0.23l-0 -0z"/>
 </g>
</svg>
