<?xml version="1.0" encoding="UTF-8"?>
<!DOCTYPE svg PUBLIC "-//W3C//DTD SVG 1.1//EN" "http://www.w3.org/Graphics/SVG/1.1/DTD/svg11.dtd">
<!-- Creator: CorelDRAW 2021 (64-Bit) -->
<svg xmlns="http://www.w3.org/2000/svg" xml:space="preserve" width="0.354327in" height="0.339433in" version="1.1" style="shape-rendering:geometricPrecision; text-rendering:geometricPrecision; image-rendering:optimizeQuality; fill-rule:evenodd; clip-rule:evenodd"
viewBox="0 0 18.88 18.08"
 xmlns:xlink="http://www.w3.org/1999/xlink"
 xmlns:xodm="http://www.corel.com/coreldraw/odm/2003">
 <defs>
  <style type="text/css">
   <![CDATA[
    .fil0 {fill:#00A0E3;fill-rule:nonzero}
   ]]>
  </style>
 </defs>
 <g id="Layer_x0020_1">
  <metadata id="CorelCorpID_0Corel-Layer"/>
  <path class="fil0" d="M17.31 10.28c-0.28,-0.08 -0.31,-0.15 -0.26,-0.42 0.33,-1.72 -0.84,-3.11 -2.58,-3.08 -0.26,0 -0.4,-0.04 -0.51,-0.31 -0.71,-1.62 -2.31,-2.6 -3.94,-2.44 -1.81,0.18 -3.18,1.38 -3.58,3.17 -0.05,0.21 -0.11,0.29 -0.33,0.33 -1.34,0.25 -2.03,0.99 -2.22,2.36 -0.03,0.19 -0.07,0.29 -0.27,0.35 -1.18,0.34 -1.83,1.3 -1.68,2.44 0.15,1.13 1.07,1.89 2.32,1.9 2.05,0 4.09,0 6.14,0l0 0c2.1,0 4.19,0.01 6.28,-0 1.14,-0.01 2.02,-0.79 2.18,-1.89 0.15,-1.06 -0.49,-2.09 -1.55,-2.4l0 0zm-15.46 -3.05c0.28,0.93 0.84,1.67 1.69,2.25 0.36,-1.25 1.11,-2.03 2.35,-2.3 0.19,-0.04 0.21,-0.19 0.26,-0.34 0.47,-1.58 1.5,-2.59 3.08,-3.04 0.34,-0.1 0.38,-0.21 0.16,-0.46 -0.07,-0.08 -0.13,-0.17 -0.21,-0.24 -1.41,-1.56 -3.57,-1.92 -5.38,-0.89 -1.73,0.98 -2.54,3.05 -1.94,5.02l0 0zm3.87 -4.59c0.15,0 0.39,-0.08 0.39,0.18 0,0.2 -0.21,0.18 -0.36,0.19 -1.55,0.17 -2.56,1.17 -2.72,2.72 -0.02,0.16 -0.01,0.4 -0.24,0.36 -0.23,-0.03 -0.11,-0.28 -0.14,-0.41 0.05,-1.57 1.53,-3.03 3.07,-3.04l-0 0zm7.46 14.06c-0.09,-0.04 -0.18,-0.02 -0.24,0.06 -0.15,0.19 -0.32,0.37 -0.44,0.58 -0.13,0.21 -0.54,0.45 -0.29,0.65 0.34,0.28 0.42,-0.24 0.6,-0.41 0.2,-0.2 0.35,-0.45 0.5,-0.65 -0,-0.13 -0.04,-0.2 -0.11,-0.23l0 0zm-2.94 -1.58c-0.16,0.2 -0.34,0.39 -0.47,0.61 -0.12,0.21 -0.54,0.43 -0.23,0.66 0.27,0.2 0.37,-0.24 0.53,-0.41 0.2,-0.22 0.36,-0.48 0.55,-0.73 -0.06,-0.08 -0.08,-0.16 -0.14,-0.2 -0.09,-0.06 -0.18,-0.02 -0.24,0.06l-0 0zm-5.21 2.26c-0.12,0.2 -0.52,0.42 -0.25,0.63 0.32,0.24 0.41,-0.24 0.58,-0.41 0.2,-0.2 0.35,-0.46 0.53,-0.7 -0.06,-0.08 -0.09,-0.15 -0.15,-0.19 -0.08,-0.05 -0.18,-0.03 -0.24,0.05 -0.16,0.2 -0.34,0.4 -0.47,0.62l0 0zm5.67 -0.68c-0.12,-0.04 -0.21,0.01 -0.28,0.1 -0.23,0.3 -0.46,0.6 -0.69,0.9 -0.08,0.1 -0.15,0.21 -0.02,0.32 0.14,0.11 0.25,0.04 0.34,-0.08 0.21,-0.28 0.42,-0.55 0.63,-0.83 0.05,-0.07 0.1,-0.15 0.13,-0.21 -0.01,-0.11 -0.05,-0.17 -0.13,-0.2l0 0zm-3.47 -0.27c0.33,-0.36 0.63,-0.73 0.87,-1.15 0.04,-0.07 -0,-0.15 -0.07,-0.2 -0.08,-0.06 -0.18,-0.05 -0.24,0.03 -0.27,0.34 -0.54,0.69 -0.79,1.05 -0.09,0.13 -0.02,0.26 0.15,0.3 0.03,-0.01 0.07,-0.01 0.09,-0.03l0 -0zm5.72 -1.37c-0.1,-0.05 -0.18,0.01 -0.24,0.08 -0.25,0.32 -0.5,0.64 -0.74,0.97 -0.1,0.14 -0.08,0.29 0.12,0.34 0.03,-0.01 0.07,-0.01 0.09,-0.03 0.34,-0.34 0.63,-0.72 0.87,-1.15 0.05,-0.08 -0.02,-0.18 -0.11,-0.22l0 0zm-4.69 1.66c-0.08,-0.06 -0.19,-0.05 -0.25,0.03 -0.27,0.34 -0.55,0.69 -0.8,1.05 -0.1,0.15 -0.02,0.26 0.16,0.29 0.04,-0.02 0.1,-0.02 0.12,-0.05 0.28,-0.36 0.55,-0.72 0.83,-1.08 0.07,-0.09 0.02,-0.18 -0.06,-0.24zm6.74 -0.68c0.21,-0.24 0.43,-0.48 0.54,-0.76 -0,-0.11 -0.03,-0.18 -0.11,-0.21 -0.1,-0.05 -0.18,-0.01 -0.24,0.07 -0.17,0.21 -0.35,0.42 -0.5,0.65 -0.12,0.18 -0.48,0.39 -0.21,0.6 0.27,0.21 0.38,-0.19 0.52,-0.35l0 0zm-9.71 -0.91c-0.25,0.32 -0.5,0.64 -0.74,0.97 -0.08,0.1 -0.1,0.23 0.03,0.32 0.13,0.09 0.23,0 0.31,-0.1 0.21,-0.28 0.42,-0.55 0.63,-0.83 0.05,-0.07 0.09,-0.15 0.12,-0.21 0,-0.11 -0.03,-0.18 -0.1,-0.22 -0.1,-0.05 -0.18,-0.02 -0.24,0.06l-0 0zm-3.81 -11.58c0.11,0.05 0.19,-0.06 0.2,-0.16 0,-0.13 -0.53,-0.53 -0.7,-0.52 -0.12,0 -0.24,0.09 -0.2,0.19 0.11,0.32 0.44,0.38 0.7,0.5l-0 -0zm1.88 -1.89c0.12,-0 0.23,-0.07 0.21,-0.15 -0.06,-0.29 -0.2,-0.54 -0.43,-0.73 -0.08,-0.07 -0.19,-0.01 -0.23,0.07 -0.09,0.17 0.05,0.29 0.12,0.41 0.09,0.15 0.13,0.35 0.33,0.39l0 0zm5.14 -0c0.18,0 0.54,-0.52 0.52,-0.71 -0.01,-0.13 -0.1,-0.23 -0.2,-0.18 -0.28,0.13 -0.37,0.42 -0.46,0.68 -0.04,0.11 0.04,0.2 0.15,0.2l-0 0zm1.88 1.9c0.19,0.02 0.75,-0.36 0.75,-0.49 0,-0.13 -0.07,-0.19 -0.19,-0.21 -0.14,-0.01 -0.72,0.38 -0.73,0.49 0,0.13 0.07,0.19 0.16,0.2l0 0zm-8.9 4.77c-0.2,0.01 -0.72,0.39 -0.69,0.51 0.03,0.12 0.12,0.17 0.28,0.15 0.19,-0.15 0.54,-0.16 0.62,-0.49 0.03,-0.13 -0.08,-0.18 -0.2,-0.18l-0 0zm4.46 -7.34c0.12,0 0.2,-0.07 0.21,-0.19 0.01,-0.09 0,-0.18 0,-0.27l0.01 0c0,-0.09 0,-0.18 0,-0.27 -0.01,-0.13 -0.03,-0.25 -0.2,-0.25 -0.17,0 -0.19,0.13 -0.19,0.25 -0.01,0.18 0,0.36 0.01,0.55 0.01,0.09 0.05,0.19 0.16,0.19l0 -0.01zm-5.5 5.15c0.19,-0.01 0.44,0.11 0.56,-0.16 0.05,-0.11 -0.05,-0.2 -0.16,-0.22 -0.1,-0.02 -0.21,-0.01 -0.31,-0.02 0,0 0,0.01 0,0.01 -0.1,0 -0.21,-0.01 -0.31,0 -0.12,0.01 -0.2,0.09 -0.17,0.21 0.06,0.23 0.26,0.17 0.41,0.16l-0 0z"/>
 </g>
</svg>
