<?xml version="1.0" encoding="UTF-8"?>
<!DOCTYPE svg PUBLIC "-//W3C//DTD SVG 1.1//EN" "http://www.w3.org/Graphics/SVG/1.1/DTD/svg11.dtd">
<!-- Creator: CorelDRAW 2021 (64-Bit) -->
<svg xmlns="http://www.w3.org/2000/svg" xml:space="preserve" width="0.344488in" height="0.344492in" version="1.1" style="shape-rendering:geometricPrecision; text-rendering:geometricPrecision; image-rendering:optimizeQuality; fill-rule:evenodd; clip-rule:evenodd"
viewBox="0 0 23.42 23.43"
 xmlns:xlink="http://www.w3.org/1999/xlink"
 xmlns:xodm="http://www.corel.com/coreldraw/odm/2003">
 <defs>
  <style type="text/css">
   <![CDATA[
    .fil0 {fill:#00A0E3;fill-rule:nonzero}
   ]]>
  </style>
 </defs>
 <g id="Layer_x0020_1">
  <metadata id="CorelCorpID_0Corel-Layer"/>
  <path class="fil0" d="M23.42 2.45c0,-0.65 0,-1.31 0,-1.96 -0,-0.36 -0.13,-0.49 -0.48,-0.49 -7.48,0 -14.97,0 -22.45,0 -0.37,0 -0.49,0.13 -0.49,0.5 -0,0.66 0,1.32 0,1.98 0,0.38 0.06,0.46 0.44,0.56 -0.06,0.15 -0.12,0.31 -0.17,0.46 -0.13,0.36 -0.15,0.75 0.08,1.04 0.28,0.34 0.19,0.63 0.03,0.95 -0.04,0.07 -0.06,0.14 -0.09,0.22 -0.19,0.49 -0.12,0.95 0.21,1.35 0.08,0.1 0.09,0.18 0.04,0.29 -0.1,0.22 -0.18,0.45 -0.27,0.68 -0.13,0.36 -0.16,0.75 0.08,1.04 0.27,0.34 0.2,0.63 0.03,0.95 -0.03,0.06 -0.05,0.12 -0.07,0.17 -0.21,0.51 -0.15,0.99 0.21,1.41 0.07,0.09 0.08,0.15 0.04,0.25 -0.1,0.23 -0.19,0.47 -0.28,0.7 -0.13,0.36 -0.16,0.75 0.08,1.04 0.29,0.35 0.19,0.65 0.02,0.97 -0.03,0.06 -0.05,0.12 -0.07,0.17 -0.2,0.51 -0.14,0.97 0.21,1.39 0.07,0.09 0.08,0.15 0.04,0.25 -0.1,0.23 -0.19,0.47 -0.28,0.7 -0.14,0.37 -0.16,0.77 0.08,1.06 0.28,0.33 0.17,0.6 0.03,0.91 -0.05,0.11 -0.09,0.22 -0.13,0.33 -0.12,0.36 -0.13,0.75 0.1,1.04 0.26,0.32 0.2,0.58 0.03,0.88 -0.05,0.1 -0.09,0.22 -0.13,0.33 -0.08,0.24 -0.1,0.48 -0.04,0.72 0.15,0.65 0.67,1.05 1.38,1.05 6.74,0 13.47,0 20.21,0 0.04,0 0.08,0 0.12,-0 0.92,-0.03 1.53,-0.9 1.23,-1.77 -0.08,-0.22 -0.16,-0.44 -0.26,-0.66 -0.06,-0.13 -0.06,-0.21 0.04,-0.33 0.32,-0.39 0.38,-0.83 0.21,-1.31 -0.08,-0.22 -0.17,-0.44 -0.26,-0.66 -0.05,-0.12 -0.03,-0.19 0.05,-0.29 0.32,-0.4 0.39,-0.85 0.21,-1.33 -0.08,-0.21 -0.16,-0.43 -0.25,-0.64 -0.06,-0.13 -0.04,-0.2 0.05,-0.31 0.32,-0.39 0.38,-0.83 0.21,-1.31 -0.08,-0.22 -0.17,-0.44 -0.26,-0.66 -0.05,-0.12 -0.04,-0.19 0.04,-0.29 0.32,-0.4 0.39,-0.85 0.21,-1.33 -0.08,-0.21 -0.16,-0.43 -0.25,-0.64 -0.06,-0.12 -0.04,-0.2 0.05,-0.31 0.32,-0.39 0.38,-0.83 0.21,-1.31 -0.08,-0.22 -0.17,-0.44 -0.26,-0.66 -0.05,-0.11 -0.04,-0.19 0.04,-0.29 0.33,-0.41 0.39,-0.86 0.21,-1.35 -0.08,-0.21 -0.15,-0.41 -0.25,-0.61 -0.06,-0.12 -0.04,-0.2 0.05,-0.31 0.32,-0.39 0.39,-0.83 0.21,-1.31 -0.08,-0.22 -0.17,-0.44 -0.26,-0.66 -0.05,-0.11 -0.04,-0.19 0.04,-0.29 0.33,-0.41 0.39,-0.86 0.21,-1.35 -0.05,-0.13 -0.1,-0.26 -0.15,-0.39 0.39,-0.12 0.44,-0.19 0.44,-0.61l0 0zm-19.27 1.92c0,0.14 -0.04,0.17 -0.17,0.17 -0.82,-0.01 -1.63,0 -2.45,-0.01 -0.44,-0 -0.69,-0.38 -0.55,-0.8 0.17,-0.47 0.5,-0.71 0.99,-0.71 0.24,0 0.49,0 0.73,0 0.42,0 0.85,0 1.27,-0 0.13,-0 0.18,0.03 0.18,0.17 -0.01,0.39 -0.01,0.79 0,1.18l0 0zm-3.17 1.63c0.08,-0.23 0.13,-0.51 0.29,-0.66 0.17,-0.15 0.46,-0.04 0.7,-0.04 0.24,-0.01 0.49,-0 0.73,-0 0.42,0 0.85,0.01 1.27,-0 0.13,-0 0.17,0.04 0.17,0.17 -0.01,0.39 -0.01,0.79 0,1.18 0,0.14 -0.05,0.17 -0.18,0.17 -0.81,-0 -1.62,0 -2.43,-0 -0.46,-0 -0.72,-0.38 -0.56,-0.8l0 -0zm3.17 2.88c0.01,0.16 -0.05,0.2 -0.2,0.19 -0.41,-0.01 -0.82,-0 -1.23,-0 -0.39,0 -0.79,0 -1.18,-0 -0.47,-0.01 -0.73,-0.38 -0.56,-0.82 0.09,-0.23 0.13,-0.51 0.3,-0.65 0.16,-0.13 0.45,-0.03 0.68,-0.03 0.66,-0.01 1.32,0 1.98,-0.01 0.15,-0 0.21,0.03 0.2,0.19 -0.01,0.38 -0.01,0.75 0,1.13l0 -0zm-0 6.82c0,0.14 -0.05,0.17 -0.18,0.17 -0.82,-0.01 -1.63,0 -2.45,-0.01 -0.44,-0 -0.7,-0.38 -0.54,-0.8 0.08,-0.23 0.13,-0.51 0.29,-0.66 0.17,-0.15 0.46,-0.04 0.7,-0.05 0.24,-0.01 0.49,-0 0.73,-0 0.42,0 0.85,0 1.27,-0 0.13,-0 0.18,0.03 0.18,0.17 -0.01,0.39 -0.01,0.79 0,1.18l0 -0zm-0 -2.26c0,0.12 -0.03,0.16 -0.16,0.16 -0.83,-0.01 -1.67,0 -2.5,-0.01 -0.4,-0 -0.65,-0.38 -0.53,-0.76 0.16,-0.5 0.5,-0.75 1.01,-0.75 0.24,0 0.49,0 0.73,0 0.42,0 0.83,0.01 1.25,-0 0.16,-0 0.2,0.05 0.19,0.2 -0.01,0.39 -0.01,0.77 -0,1.16l0 0zm0 6.79c0,0.13 -0.03,0.18 -0.17,0.17 -0.82,-0.01 -1.63,0 -2.45,-0.01 -0.44,-0 -0.7,-0.38 -0.55,-0.8 0.07,-0.19 0.16,-0.38 0.22,-0.57 0.04,-0.11 0.09,-0.16 0.22,-0.15 0.21,0.01 0.42,0.01 0.64,0.01 0.21,0 0.42,0 0.64,0 0.42,0 0.85,0.01 1.27,-0 0.15,-0 0.18,0.05 0.18,0.19 -0.01,0.38 -0.01,0.77 0,1.15l-0 0zm0 2.24c0,0.15 -0.03,0.2 -0.19,0.2 -0.8,-0.01 -1.6,0 -2.4,-0.01 -0.48,-0 -0.73,-0.38 -0.57,-0.82 0.08,-0.23 0.13,-0.51 0.29,-0.65 0.16,-0.14 0.45,-0.03 0.68,-0.04 0.24,-0.01 0.49,-0 0.73,-0 0.42,0 0.85,0.01 1.27,-0 0.15,-0 0.19,0.04 0.18,0.19 -0.01,0.38 -0.01,0.75 0,1.13l-0 0zm0 -4.5c0,0.13 -0.04,0.17 -0.17,0.17 -0.82,-0.01 -1.63,0 -2.45,-0.01 -0.44,-0 -0.7,-0.38 -0.54,-0.8 0.08,-0.23 0.13,-0.51 0.29,-0.66 0.17,-0.16 0.46,-0.04 0.7,-0.05 0.24,-0.01 0.49,-0 0.73,-0 0.42,0 0.83,0.01 1.25,-0 0.15,-0 0.21,0.03 0.2,0.19 -0.01,0.38 -0.01,0.77 -0,1.15l0 0zm0 -6.82c0,0.14 -0.03,0.19 -0.18,0.19 -0.41,-0.01 -0.82,-0 -1.23,-0 -0.39,0 -0.79,0 -1.18,-0 -0.49,-0 -0.75,-0.38 -0.57,-0.83 0.09,-0.23 0.13,-0.53 0.3,-0.65 0.16,-0.11 0.45,-0.03 0.69,-0.03 0.65,-0 1.3,0.01 1.96,-0.01 0.18,-0 0.22,0.05 0.22,0.22 -0.01,0.37 -0.01,0.74 -0,1.11l-0 0zm1.23 11.53c-0.47,-0.03 -0.48,-0.01 -0.48,-0.48l0 -9.37c0,-3.18 0,-6.36 -0.01,-9.54 0,-0.22 0.07,-0.27 0.27,-0.26 0.49,0.01 0.49,0 0.49,0.49 0,6.29 -0,12.58 0,18.86 0,0.22 -0.03,0.32 -0.28,0.3l0 0zm1.03 -19.41c-0.01,-0.19 0.04,-0.25 0.24,-0.25 1.68,0.01 3.37,0.01 5.05,0.01 1.68,0 3.37,0 5.05,-0.01 0.2,-0 0.25,0.05 0.24,0.25 -0.02,0.35 -0.01,0.71 -0,1.06 0.01,0.16 -0.03,0.22 -0.21,0.21 -0.31,-0.01 -0.63,-0 -0.94,-0 -3.06,0 -6.12,-0 -9.18,0.01 -0.21,0 -0.27,-0.05 -0.26,-0.26 0.02,-0.34 0.02,-0.68 0,-1.01l0 0zm10.59 10.1c0.01,0.18 -0.04,0.24 -0.23,0.24 -1.69,-0.01 -3.38,-0 -5.07,-0 -1.69,0 -3.37,-0 -5.05,0 -0.19,0 -0.24,-0.05 -0.23,-0.23 0.01,-0.35 0.02,-0.69 0,-1.04 -0.01,-0.19 0.04,-0.25 0.24,-0.25 1.55,0.01 3.1,0.01 4.65,0.01 1.82,0 3.63,0 5.45,-0.01 0.2,-0 0.25,0.05 0.24,0.25 -0.02,0.35 -0.01,0.69 -0,1.04l-0 0zm0 -2.27c0.01,0.18 -0.04,0.24 -0.23,0.24 -1.69,-0.01 -3.38,-0 -5.07,-0 -1.69,0 -3.37,-0 -5.05,0 -0.19,0 -0.24,-0.05 -0.23,-0.23 0.01,-0.35 0.02,-0.69 0,-1.04 -0.01,-0.19 0.04,-0.25 0.24,-0.25 1.57,0.01 3.13,0.01 4.7,0.01 1.8,0 3.6,0 5.41,-0.01 0.2,-0 0.25,0.05 0.24,0.25 -0.02,0.35 -0.01,0.69 -0,1.04l-0 -0zm0 -5.56c-0.02,0.35 -0.01,0.69 0,1.04 0.01,0.18 -0.04,0.22 -0.22,0.22 -1.69,-0.01 -3.38,-0 -5.07,-0 -1.68,0 -3.37,-0 -5.05,0.01 -0.2,0 -0.25,-0.06 -0.24,-0.25 0.02,-0.36 0.01,-0.72 0,-1.09 -0,-0.15 0.04,-0.19 0.18,-0.19 0.69,0.01 1.38,0 2.08,0 2.69,0 5.38,0 8.07,-0.01 0.22,-0 0.26,0.06 0.25,0.26l-0 0zm-10.59 2.26c-0.01,-0.19 0.04,-0.25 0.24,-0.25 1.68,0.01 3.37,0.01 5.05,0.01 1.68,0 3.37,0 5.05,-0.01 0.2,-0 0.25,0.05 0.24,0.25 -0.02,0.35 -0.01,0.71 -0,1.06 0,0.16 -0.03,0.22 -0.21,0.21 -0.31,-0.01 -0.63,-0 -0.94,-0 -3.06,0 -6.12,-0 -9.18,0 -0.21,0 -0.27,-0.05 -0.26,-0.26 0.02,-0.34 0.02,-0.68 0,-1.01l0 0zm10.59 13.6c-0.02,0.35 -0.02,0.69 0,1.04 0.01,0.18 -0.05,0.23 -0.23,0.23 -1.68,-0.01 -3.37,-0 -5.05,-0 -1.68,0 -3.37,-0 -5.05,0.01 -0.22,0 -0.26,-0.06 -0.25,-0.26 0.02,-0.35 0.01,-0.69 0,-1.04 -0.01,-0.18 0.04,-0.22 0.22,-0.22 1.85,0.01 3.7,0 5.55,0 1.53,0 3.05,0 4.58,-0.01 0.2,-0 0.25,0.06 0.24,0.25l0 0zm0 -2.27c-0.02,0.35 -0.01,0.69 0,1.04 0.01,0.18 -0.04,0.24 -0.23,0.23 -1.69,-0.01 -3.38,-0 -5.07,-0 -1.69,0 -3.37,-0 -5.05,0 -0.19,0 -0.24,-0.05 -0.23,-0.24 0.01,-0.35 0.02,-0.69 0,-1.04 -0.01,-0.19 0.04,-0.25 0.24,-0.25 1.75,0.01 3.49,0.01 5.24,0.01 1.62,0 3.24,0 4.86,-0.01 0.2,-0 0.25,0.05 0.24,0.25l-0 0zm0 -1.23c0.01,0.18 -0.04,0.24 -0.23,0.23 -1.69,-0.01 -3.38,-0 -5.07,-0 -1.69,0 -3.37,-0 -5.05,0 -0.19,0 -0.24,-0.06 -0.23,-0.24 0.01,-0.35 0.01,-0.71 0,-1.06 -0.01,-0.18 0.04,-0.22 0.22,-0.22 1.77,0.01 3.54,0 5.31,0 1.61,0 3.21,0 4.82,-0.01 0.2,-0 0.25,0.06 0.24,0.25 -0.02,0.35 -0.01,0.69 0,1.04l-0 0zm0 -2.28c0.01,0.19 -0.04,0.25 -0.24,0.25 -1.68,-0.01 -3.37,-0.01 -5.05,-0.01 -1.68,0 -3.37,-0 -5.05,0.01 -0.2,0 -0.25,-0.05 -0.24,-0.25 0.02,-0.35 0.01,-0.71 0,-1.06 -0.01,-0.16 0.03,-0.22 0.21,-0.21 0.38,0.01 0.75,0 1.13,0 3,0 6,0 8.99,-0.01 0.21,0 0.27,0.05 0.26,0.26 -0.02,0.34 -0.02,0.68 0,1.01l-0 0zm1.24 7.05c-0.49,-0.02 -0.49,-0 -0.49,-0.49 0,-6.3 0,-12.59 -0.01,-18.89 0,-0.23 0.06,-0.29 0.28,-0.28 0.48,0.02 0.48,0.01 0.48,0.48l0 9.37c0,3.18 -0,6.36 0.01,9.54 0,0.22 -0.06,0.27 -0.27,0.27l0 0zm2.07 -18.14c-0.02,0 -0.05,0.01 -0.08,0.01 -0.08,-0 -0.16,-0 -0.24,-0.01l-0.3 0c-0.09,0 -0.18,0 -0.27,0.01 -0.12,0 -0.16,-0.03 -0.16,-0.16 0.01,-0.4 0.01,-0.8 0,-1.2 -0,-0.13 0.04,-0.16 0.16,-0.16 0.09,0 0.18,0 0.27,0l0 -0 0.39 0c0.05,-0 0.1,-0 0.14,-0 0.03,-0 0.05,0 0.07,0l0.94 0c0.02,-0 0.04,-0 0.06,-0 0.23,0.01 0.47,0.01 0.71,0 0.1,-0 0.16,0.02 0.19,0.12 0.07,0.21 0.17,0.41 0.24,0.61 0.14,0.39 -0.11,0.76 -0.53,0.77 -0.21,0.01 -0.49,0.07 -0.65,0l-0.96 0zm-1.05 0.9c-0,-0.11 0.04,-0.15 0.15,-0.15 0.09,0 0.19,0 0.28,0l0 -0 0.39 0c0.06,-0 0.12,-0 0.18,-0 0.02,-0 0.04,0 0.05,0l0.91 0c0.02,-0.01 0.05,-0.01 0.08,-0 0.01,0 0.02,0 0.03,0l0.07 0c0.03,-0 0.07,-0 0.1,-0 0.22,0.01 0.51,-0.1 0.63,0.04 0.18,0.21 0.26,0.51 0.34,0.79 0.09,0.32 -0.16,0.63 -0.49,0.68l0 0c-0.02,0 -0.03,0 -0.05,0 -0.22,-0.01 -0.51,0.08 -0.67,-0l-0.93 0c-0.02,0 -0.04,0.01 -0.06,0.01 -0.28,-0.01 -0.57,-0.01 -0.85,0 -0.11,0 -0.15,-0.02 -0.15,-0.14 0.01,-0.41 0.01,-0.82 0,-1.23l-0 -0zm0.18 2.12c0.08,0 0.17,0.01 0.25,0.01l0 -0 0.32 0c0.08,-0 0.16,-0 0.24,-0.01 0.03,-0 0.06,0 0.08,0.01l0.94 0c0.15,-0.07 0.42,0.03 0.61,-0.01 0.24,-0.04 0.34,0.07 0.4,0.27 0.05,0.16 0.12,0.3 0.18,0.46 0.13,0.39 -0.11,0.76 -0.52,0.78 -0.21,0.01 -0.47,0.06 -0.64,0l-1 0c-0.16,0.06 -0.43,-0 -0.63,0 -0.38,0 -0.38,0 -0.38,-0.38 0,-0.31 0.01,-0.63 -0,-0.94 -0,-0.14 0.03,-0.2 0.18,-0.19l0 0zm0.85 3.78c-0.02,0 -0.04,0 -0.07,0 -0.03,-0 -0.07,-0 -0.1,-0l-0.43 0 0 -0c-0.09,0 -0.18,0 -0.27,0.01 -0.12,0 -0.17,-0.03 -0.16,-0.16 0.01,-0.4 0.01,-0.8 0,-1.2 -0,-0.13 0.04,-0.16 0.16,-0.16 0.13,0 0.26,0.01 0.39,0.01l0.01 0 0.01 0 0.01 0c0.13,0 0.25,-0 0.38,-0.01 0.03,-0 0.06,0 0.09,0.01l0.94 0c0.15,-0.07 0.42,0.02 0.62,-0.01 0.24,-0.04 0.34,0.07 0.4,0.27 0.05,0.16 0.12,0.3 0.18,0.46 0.14,0.39 -0.11,0.76 -0.52,0.78 -0.21,0.01 -0.47,0.06 -0.64,0l-0.99 0zm-1.03 1.51c0,-0.2 0.01,-0.39 -0,-0.59 -0,-0.12 0.02,-0.17 0.15,-0.17 0.09,0 0.18,0 0.27,0.01l0 -0 0.32 0c0.08,-0 0.17,-0 0.25,-0 0.02,-0 0.04,0 0.05,0l0.92 0c0.02,-0 0.04,-0 0.06,-0 0.24,0.01 0.49,0 0.73,-0.01 0.09,-0 0.13,0.03 0.16,0.1 0.09,0.23 0.19,0.45 0.26,0.68 0.11,0.36 -0.14,0.71 -0.51,0.73 -0.56,0.03 -1.06,0 -1.62,0 -0.02,0 -0.04,0 -0.06,0 -0.28,-0 -0.57,-0.01 -0.85,0 -0.11,0 -0.15,-0.03 -0.15,-0.15 0.01,-0.2 0,-0.41 0,-0.61l0 -0zm0.04 1.56c0.08,-0.09 0.23,-0.09 0.39,-0.07l0 -0 1.86 0c0.18,0 0.3,0.02 0.48,0.02 0.09,-0 0.13,0.03 0.16,0.1 0.09,0.23 0.19,0.45 0.26,0.68 0.11,0.36 -0.14,0.71 -0.52,0.73l0 0c-0.51,0.02 -1.21,0.03 -1.72,0.01 -0.26,-0.01 -0.52,-0.01 -0.78,0 -0.13,0 -0.18,-0.03 -0.18,-0.17 0.01,-0.2 0,-0.41 0,-0.61 0.01,0 0.01,0 0.02,0 0,-0.23 -0.09,-0.55 0.02,-0.68l0 -0zm-0.04 2.39c-0,-0.13 0.03,-0.18 0.17,-0.17 0.09,0 0.17,0.01 0.26,0.01l0 -0 0.31 0c0.08,-0 0.16,-0 0.23,-0.01 0.03,-0 0.06,0 0.08,0.01l0.94 0c0.14,-0.05 0.36,0.02 0.53,-0.01 0.3,-0.05 0.45,0.07 0.51,0.35 0.03,0.12 0.09,0.23 0.14,0.35 0.16,0.43 -0.09,0.81 -0.55,0.81 -0.41,0.01 -0.82,0 -1.23,0 -0.15,0 -0.3,-0 -0.46,-0l-0.41 0c-0.11,0 -0.23,0 -0.34,0.01 -0.15,0 -0.19,-0.04 -0.18,-0.19 0.01,-0.39 0.01,-0.77 0,-1.16l0 -0zm2.65 5.87c-0.83,0.01 -1.67,0 -2.5,0.01 -0.1,0 -0.16,-0.02 -0.16,-0.14 0.01,-0.41 0.01,-0.82 0,-1.23 -0,-0.14 0.06,-0.15 0.17,-0.15 0.43,0 0.86,0 1.3,0l0 -0c0.42,0 0.83,0 1.25,-0 0.12,-0 0.19,0.02 0.23,0.14 0.07,0.2 0.16,0.39 0.23,0.59 0.14,0.39 -0.11,0.78 -0.52,0.78l-0 -0zm0.02 -2.27c-0.84,0.01 -1.68,0 -2.52,0.01 -0.11,0 -0.15,-0.04 -0.15,-0.15 0.01,-0.4 0.01,-0.8 -0,-1.2 -0,-0.14 0.05,-0.17 0.18,-0.16 0.43,0.01 0.86,0 1.3,0 0,-0 0,-0 0,-0 0.42,0 0.83,0 1.25,-0 0.11,-0 0.17,0.01 0.21,0.13 0.07,0.21 0.18,0.42 0.25,0.64 0.12,0.37 -0.13,0.74 -0.52,0.75l0 0zm0.74 -19.36c-0.02,0.33 -0.02,0.66 -0,0.99 0.01,0.19 -0.04,0.25 -0.24,0.25 -1.45,-0.01 -2.9,-0.01 -4.34,-0.01l-6.37 0c-3.56,0 -7.13,-0 -10.69,0.01 -0.22,0 -0.28,-0.06 -0.27,-0.27 0.02,-0.36 0.01,-0.72 0,-1.09 -0,-0.12 0.03,-0.18 0.16,-0.16 0.04,0.01 0.08,0 0.12,0 7.12,0 14.24,0 21.37,-0.01 0.23,0 0.29,0.06 0.28,0.28l0 0z"/>
 </g>
</svg>
