<?xml version="1.0" encoding="UTF-8"?>
<!DOCTYPE svg PUBLIC "-//W3C//DTD SVG 1.1//EN" "http://www.w3.org/Graphics/SVG/1.1/DTD/svg11.dtd">
<!-- Creator: CorelDRAW 2021 (64-Bit) -->
<svg xmlns="http://www.w3.org/2000/svg" xml:space="preserve" width="0.344488in" height="0.344488in" version="1.1" style="shape-rendering:geometricPrecision; text-rendering:geometricPrecision; image-rendering:optimizeQuality; fill-rule:evenodd; clip-rule:evenodd"
viewBox="0 0 33.99 33.99"
 xmlns:xlink="http://www.w3.org/1999/xlink"
 xmlns:xodm="http://www.corel.com/coreldraw/odm/2003">
 <defs>
  <style type="text/css">
   <![CDATA[
    .fil0 {fill:#00A0E3;fill-rule:nonzero}
   ]]>
  </style>
 </defs>
 <g id="Layer_x0020_1">
  <metadata id="CorelCorpID_0Corel-Layer"/>
  <path class="fil0" d="M33.99 0.87c0,-0.75 -0.13,-0.87 -0.87,-0.87 -10.74,0 -21.49,0 -32.23,0 -0.08,0 -0.16,-0 -0.24,0 -0.43,0.01 -0.63,0.21 -0.63,0.63 -0.01,1.04 -0,2.08 0,3.12 0,0.43 0.2,0.63 0.63,0.64 0.38,0.01 0.75,0 1.16,0 -0.15,0.44 -0.25,0.87 -0.02,1.25 0.21,0.34 0.16,0.63 0.02,0.95 -0.17,0.41 -0.26,0.86 -0.02,1.25 0.21,0.33 0.15,0.61 0.02,0.92 -0.17,0.42 -0.27,0.88 -0.01,1.29 0.21,0.32 0.13,0.59 0.02,0.89 -0.17,0.43 -0.28,0.88 -0.03,1.29 0.21,0.33 0.15,0.61 0.02,0.92 -0.17,0.42 -0.27,0.88 -0.01,1.29 0.21,0.32 0.13,0.59 0.02,0.89 -0.16,0.43 -0.28,0.88 -0.03,1.29 0.21,0.33 0.15,0.61 0.02,0.92 -0.17,0.42 -0.27,0.88 -0.01,1.29 0.21,0.32 0.14,0.59 0.02,0.89 -0.16,0.43 -0.28,0.88 -0.03,1.29 0.21,0.33 0.15,0.61 0.02,0.92 -0.17,0.42 -0.27,0.88 -0.02,1.29 0.2,0.31 0.15,0.57 0.03,0.86 -0.05,0.12 -0.08,0.24 -0.11,0.36 -0.17,0.64 0.06,1.3 0.63,1.63 0.22,0.13 0.27,0.28 0.27,0.52 -0.01,2.23 -0.01,4.45 -0,6.68 0,0.56 0.17,0.73 0.74,0.73 9.06,0 18.11,0 27.16,0 0.58,0 0.75,-0.17 0.75,-0.76 0,-2.23 0,-4.45 -0,-6.68 0,-0.18 0.03,-0.3 0.23,-0.39 0.71,-0.32 1.02,-1.04 0.8,-1.8 -0.06,-0.21 -0.14,-0.41 -0.2,-0.62 -0.03,-0.08 -0.08,-0.16 -0.01,-0.26 0.43,-0.58 0.3,-1.19 0.06,-1.79 -0.08,-0.2 -0.09,-0.37 0.04,-0.57 0.21,-0.33 0.25,-0.71 0.13,-1.09 -0.07,-0.23 -0.14,-0.46 -0.22,-0.68 -0.04,-0.11 -0.04,-0.21 0.03,-0.32 0.29,-0.44 0.32,-0.91 0.13,-1.41 -0.14,-0.36 -0.27,-0.7 0.01,-1.08 0.17,-0.24 0.15,-0.57 0.06,-0.86 -0.07,-0.24 -0.15,-0.48 -0.23,-0.72 -0.03,-0.08 -0.08,-0.16 -0.01,-0.26 0.43,-0.58 0.3,-1.19 0.05,-1.79 -0.08,-0.2 -0.09,-0.37 0.04,-0.57 0.21,-0.33 0.25,-0.71 0.13,-1.09 -0.07,-0.23 -0.14,-0.46 -0.22,-0.68 -0.04,-0.12 -0.04,-0.21 0.03,-0.32 0.29,-0.44 0.31,-0.92 0.12,-1.41 -0.14,-0.36 -0.26,-0.7 0.01,-1.08 0.17,-0.24 0.15,-0.57 0.06,-0.86 -0.07,-0.24 -0.15,-0.48 -0.23,-0.72 -0.03,-0.08 -0.07,-0.16 -0.01,-0.26 0.34,-0.48 0.36,-0.99 0.13,-1.56 0.39,0 0.75,0 1.1,0 0.51,-0 0.7,-0.19 0.7,-0.7 0,-0.94 0,-1.87 0,-2.81l-0 -0.01zm-6.3 21.05c0.42,0 0.84,0 1.26,0 0.62,0 1.23,-0 1.85,0 0.24,0 0.44,0.29 0.44,0.67 0,0.26 -0.14,0.42 -0.39,0.42 -1.26,0.01 -2.53,0 -3.79,0.01 -0.15,0 -0.18,-0.06 -0.19,-0.2 -0.06,-0.9 -0.07,-0.9 0.83,-0.9l-0 0zm-0.01 -2.19c0.43,0 0.87,0 1.3,0 0.59,0 1.18,0 1.78,0 0.28,0 0.51,0.3 0.49,0.69 -0.01,0.3 -0.2,0.41 -0.48,0.41 -0.89,-0 -1.78,0 -2.67,0 -0.32,0 -0.64,-0.01 -0.96,0 -0.2,0.01 -0.28,-0.03 -0.28,-0.26 -0.01,-0.84 -0.02,-0.84 0.82,-0.84l0 -0zm0.29 10.66c0,0.23 -0.05,0.31 -0.3,0.31 -7.11,-0.01 -14.22,-0.01 -21.34,0 -0.24,0 -0.3,-0.07 -0.3,-0.3 0.01,-1.24 0.02,-2.49 -0,-3.73 -0.01,-0.33 0.11,-0.36 0.39,-0.36 3.53,0.01 7.06,0.01 10.58,0.01 3.54,0 7.08,0 10.62,-0.01 0.29,0 0.36,0.07 0.35,0.36 -0.02,1.24 -0.01,2.49 -0,3.73l0 0zm-21.65 -11.76c-1,0 -2.01,-0 -3.01,0 -0.23,0 -0.44,-0.02 -0.54,-0.27 -0.05,-0.11 0.11,-0.76 0.2,-0.81 0.07,-0.03 0.15,-0.02 0.23,-0.02 0.62,-0 1.23,0 1.85,0 0.62,0 1.23,0.01 1.85,-0 0.17,-0 0.23,0.05 0.24,0.23 0.03,0.87 0.04,0.87 -0.82,0.87l0 -0zm0.82 1.4c-0.01,0.79 0,0.79 -0.8,0.79 -1.01,0 -2.03,-0 -3.04,0 -0.23,0 -0.44,-0.03 -0.53,-0.28 -0.05,-0.12 0.12,-0.76 0.21,-0.8 0.07,-0.03 0.16,-0.02 0.23,-0.02 0.6,-0 1.21,0 1.81,0 0.6,0 1.21,0.01 1.81,-0.01 0.25,-0.01 0.3,0.08 0.3,0.31l-0 -0zm-0.84 -10.17c-0.99,0 -1.98,0 -2.97,0 -0.52,0 -0.64,-0.19 -0.51,-0.68 0.09,-0.33 0.24,-0.45 0.59,-0.42 0.54,0.04 1.09,0.01 1.64,0.01 0.62,0 1.23,0.01 1.85,-0 0.19,-0 0.25,0.05 0.25,0.25 0.02,0.85 0.03,0.85 -0.84,0.85l-0 -0zm0.03 2.19c-1.01,0 -2.03,0 -3.04,0 -0.47,-0 -0.6,-0.2 -0.48,-0.65 0.08,-0.33 0.21,-0.49 0.6,-0.46 0.53,0.05 1.07,0.01 1.61,0.01 0.63,0 1.25,0.01 1.88,-0 0.19,-0 0.25,0.06 0.25,0.25 0.02,0.85 0.02,0.85 -0.81,0.85l0 -0zm-3.52 1.51c0.09,-0.33 0.24,-0.45 0.59,-0.42 0.54,0.04 1.09,0.01 1.64,0.01 0.62,0 1.23,0.01 1.85,-0 0.19,-0 0.25,0.05 0.25,0.25 0.02,0.85 0.03,0.85 -0.84,0.85 -0.99,0 -1.98,0 -2.97,0 -0.52,0 -0.64,-0.19 -0.51,-0.68l0 -0zm3.49 2.88c-1,0 -2.01,0 -3.01,0 -0.49,-0 -0.61,-0.2 -0.49,-0.68 0.08,-0.33 0.22,-0.45 0.58,-0.43 0.54,0.04 1.09,0.01 1.64,0.01 0.62,0 1.23,0.01 1.85,-0 0.18,-0 0.26,0.03 0.26,0.24 0.02,0.86 0.03,0.86 -0.83,0.86l0 0zm3.03 8.38c0,0.34 -0.09,0.42 -0.41,0.4 -0.69,-0.03 -0.69,-0.01 -0.69,-0.7l0 -9.76c0,-3.33 0,-6.67 -0.01,-10 0,-0.27 0.03,-0.4 0.36,-0.39 0.74,0.03 0.74,0.01 0.74,0.75 0,6.56 -0,13.13 0.01,19.69l0 0zm1.08 -2.17c0.02,-0.73 0.01,-0.73 0.73,-0.73 1.96,0 3.93,0 5.89,0 2.07,0 4.13,0.01 6.2,-0.01 0.29,-0 0.36,0.08 0.35,0.36 -0.02,0.74 -0,0.74 -0.75,0.74 -4.02,0 -8.03,-0 -12.05,0.01 -0.31,0 -0.38,-0.09 -0.37,-0.38l0 0zm0 -2.15c0.02,-0.77 0,-0.77 0.76,-0.77 4.02,0 8.03,0 12.05,-0.01 0.28,0 0.37,0.06 0.36,0.35 -0.02,0.75 -0,0.75 -0.74,0.75 -1.95,0 -3.9,0 -5.86,0 -2.08,0 -4.16,-0 -6.23,0.01 -0.26,0 -0.35,-0.05 -0.34,-0.33l0 0zm0.76 3.62c4.01,0 8.01,0 12.02,-0.01 0.32,-0 0.4,0.09 0.39,0.39 -0.02,0.71 -0.01,0.71 -0.71,0.71l-5.89 0c-2.08,0 -4.15,-0.01 -6.23,0.01 -0.27,0 -0.34,-0.08 -0.34,-0.34 0.01,-0.76 0,-0.76 0.76,-0.76l0 -0zm11.69 -5.48l-5.89 0c-2.07,0 -4.13,-0.01 -6.2,0.01 -0.27,0 -0.37,-0.05 -0.36,-0.35 0.02,-0.75 0,-0.76 0.77,-0.76 3.99,0 7.99,0 11.98,-0.01 0.32,0 0.43,0.05 0.42,0.4 -0.03,0.7 -0.01,0.7 -0.72,0.7l0 0zm-11.7 -3.29c4.02,0 8.03,0 12.05,-0.01 0.31,0 0.38,0.08 0.37,0.38 -0.02,0.73 -0.01,0.73 -0.73,0.73l-5.86 0c-2.08,0 -4.15,-0.01 -6.23,0.01 -0.29,0 -0.36,-0.08 -0.35,-0.36 0.02,-0.74 0,-0.75 0.75,-0.75l0 0zm-0.75 -1.43c0.01,-0.76 0,-0.76 0.76,-0.76 4.01,0 8.01,0 12.02,-0.01 0.32,-0 0.4,0.09 0.39,0.39 -0.02,0.71 -0.01,0.71 -0.71,0.71 -1.96,0 -3.93,0 -5.89,0 -2.08,0 -4.15,-0.01 -6.23,0.01 -0.28,0 -0.34,-0.08 -0.33,-0.34l-0 0zm13.17 -2.59c-0.02,0.73 -0.01,0.73 -0.73,0.73 -1.95,0 -3.9,0 -5.86,0 -2.08,0 -4.15,-0.01 -6.23,0.01 -0.29,0 -0.36,-0.07 -0.35,-0.36 0.02,-0.75 0,-0.75 0.75,-0.75 4.02,0 8.03,0 12.05,-0.01 0.31,0 0.38,0.08 0.37,0.38l0 0zm0 -4.37c-0.02,0.71 -0.01,0.71 -0.71,0.71 -1.96,0 -3.93,0 -5.89,0 -2.08,0 -4.16,-0.01 -6.23,0.01 -0.28,0 -0.34,-0.08 -0.33,-0.34 0.01,-0.76 0,-0.76 0.76,-0.76 4.01,0 8.01,0 12.02,-0.01 0.32,-0 0.4,0.09 0.39,0.39l0 0zm-0.77 -1.48c-4.01,0 -8.01,-0 -12.02,0.01 -0.32,0 -0.4,-0.09 -0.39,-0.39 0.02,-0.71 0.01,-0.71 0.71,-0.71 1.96,0 3.93,0 5.89,0 2.08,0 4.15,0.01 6.23,-0.01 0.28,-0 0.34,0.08 0.33,0.34 -0.01,0.76 -0,0.76 -0.76,0.76l0 -0zm-11.68 3.29c1.95,0 3.9,0 5.86,0 2.09,0 4.18,0 6.27,-0.01 0.26,-0 0.32,0.06 0.32,0.32 -0.01,0.78 0,0.78 -0.78,0.78 -4.01,0 -8.01,-0 -12.02,0.01 -0.3,0 -0.38,-0.07 -0.37,-0.37 0.02,-0.73 0.01,-0.73 0.73,-0.73l0 0zm14.64 16.1c0,0.29 -0.07,0.36 -0.36,0.36 -0.75,-0.02 -0.75,-0 -0.75,-0.75 0,-6.56 0,-13.13 -0.01,-19.69 0,-0.33 0.08,-0.42 0.41,-0.41 0.69,0.03 0.69,0.01 0.69,0.69 0,3.24 0,6.48 0,9.73 0,3.36 -0,6.71 0.01,10.07l0 0zm5.04 -17.2c-1.25,0 -2.51,0 -3.76,0 -0.15,0 -0.18,-0.06 -0.2,-0.2 -0.06,-0.9 -0.07,-0.9 0.83,-0.9 0.43,0 0.87,0 1.3,0 0.59,0 1.18,0 1.78,0 0.27,0 0.47,0.26 0.48,0.67 0.01,0.28 -0.16,0.42 -0.43,0.42l0 0zm0.43 1.79c-0.01,0.3 -0.2,0.41 -0.48,0.41 -0.62,-0 -1.23,0 -1.85,0 -0.59,0 -1.18,-0.01 -1.78,0 -0.19,0 -0.28,-0.03 -0.28,-0.26 -0.01,-0.84 -0.02,-0.84 0.82,-0.84 1.02,0 2.05,0 3.08,0 0.28,0 0.51,0.3 0.49,0.69l0 -0zm-3.54 3.69c0.42,0 0.84,0 1.26,0 0.6,0 1.21,0 1.81,0 0.26,0 0.47,0.3 0.47,0.68 -0,0.28 -0.17,0.41 -0.44,0.41 -0.8,0 -1.59,0 -2.39,0 -0.44,0 -0.89,-0.01 -1.33,0 -0.16,0 -0.21,-0.05 -0.22,-0.21 -0.05,-0.89 -0.05,-0.89 0.84,-0.89l0 -0zm0 2.19c0.42,0 0.84,0 1.26,0 0.6,0 1.21,0 1.81,0 0.26,0 0.47,0.3 0.47,0.68 -0,0.28 -0.17,0.41 -0.44,0.41 -0.8,0 -1.59,0 -2.39,0 -0.44,0 -0.89,-0.01 -1.33,0 -0.16,0 -0.21,-0.05 -0.22,-0.21 -0.05,-0.89 -0.05,-0.89 0.84,-0.89l-0 0zm3.15 -3.3c-1.26,0.01 -2.53,0 -3.79,0.01 -0.15,0 -0.18,-0.06 -0.19,-0.2 -0.06,-0.9 -0.07,-0.9 0.83,-0.9 0.42,0 0.84,0 1.26,0 0.62,0 1.23,-0 1.85,0 0.24,0 0.44,0.29 0.44,0.67 0,0.26 -0.14,0.42 -0.39,0.42zm-0 -6.58c-1.26,0.01 -2.53,0 -3.79,0.01 -0.16,0 -0.18,-0.07 -0.19,-0.21 -0.06,-0.89 -0.06,-0.89 0.83,-0.89 0.42,0 0.84,0 1.26,0 0.62,0 1.23,-0 1.85,0 0.23,0 0.44,0.31 0.44,0.68 0,0.26 -0.15,0.41 -0.4,0.41l-0 0zm-26.35 -4.38c0.03,-0.01 0.08,-0.01 0.13,-0.01 0.06,0.01 0.11,0 0.17,0 8.14,0 16.28,0 24.42,-0.01 0.07,0 0.13,0 0.18,0.01l1.45 0c0.03,-0 0.06,-0.01 0.1,-0.01 0.17,0 0.34,0 0.5,0.01l0.35 0 0 0c0.29,0 0.57,-0 0.86,-0.01 0.19,-0 0.26,0.04 0.25,0.25 -0.02,0.28 -0,0.57 -0,0.85 0,0.28 -0.01,0.57 0,0.85 0.01,0.2 -0.07,0.25 -0.25,0.25l-0 -0c-0.28,-0.01 -0.57,-0.01 -0.85,-0.01 -0.29,0 -0.57,0 -0.86,0.01 -0.04,0 -0.08,-0 -0.11,-0.01l-1.42 0c-0.04,0.01 -0.09,0.01 -0.15,0.01 -3.35,-0.01 -6.69,-0.01 -10.03,-0.01l-2.26 0c-4.06,0 -8.13,-0 -12.19,0.01 -0.06,0 -0.12,-0 -0.16,-0.01l-1.44 0c-0.03,0.01 -0.06,0.01 -0.1,0.01 -0.21,-0 -0.42,-0.01 -0.63,-0.01l-0.49 0c-0.21,0 -0.42,0 -0.63,0.01l-0 0c-0.19,0 -0.23,-0.06 -0.23,-0.24 0.01,-0.57 0.01,-1.14 0,-1.71 -0,-0.19 0.04,-0.26 0.25,-0.25 0.3,0.02 0.59,0 0.89,0 0.14,0 0.27,0 0.41,0l0.16 0c0.08,-0 0.17,-0 0.25,-0.01 0.05,-0 0.09,-0 0.12,0.01l1.31 0zm-1.05 3.27c1.12,0.03 2.23,0.02 3.35,0.01 0.25,-0 0.36,0.04 0.35,0.33 -0.02,0.78 -0,0.78 -0.78,0.78 -0.43,0 -0.87,0 -1.3,0 -0.6,0 -1.21,0 -1.81,-0 -0.42,-0 -0.54,-0.21 -0.45,-0.62 0.08,-0.38 0.25,-0.49 0.65,-0.48l0 0zm-0.47 2.24c0.03,-0.07 0.15,-0.03 0.22,-0.03 0.6,-0 1.21,-0 1.81,0 0.63,0 1.25,0.01 1.88,-0 0.19,-0 0.25,0.06 0.25,0.25 0.02,0.85 0.03,0.85 -0.81,0.85 -1,0 -2.01,-0 -3.01,0 -0.23,0 -0.46,-0 -0.54,-0.26 -0.1,-0.3 0.08,-0.55 0.19,-0.81l-0 -0zm0 15.35c0.01,-0.04 0.14,-0.03 0.22,-0.03 0.62,-0 1.23,-0 1.85,-0 0.62,0 1.23,0.01 1.85,-0 0.2,-0 0.24,0.06 0.25,0.25 0.02,0.85 0.02,0.85 -0.81,0.85 -1,0 -2.01,-0 -3.01,0 -0.23,0 -0.46,-0.01 -0.54,-0.26 -0.1,-0.3 0.09,-0.55 0.19,-0.81l-0 0zm0.29 3.26c-0.44,-0 -0.56,-0.2 -0.47,-0.64 0.08,-0.36 0.24,-0.48 0.62,-0.47 1.14,0.03 2.28,0.02 3.42,0.01 0.25,-0 0.3,0.07 0.3,0.31 -0.01,0.8 0,0.8 -0.79,0.8 -0.42,0 -0.84,0 -1.26,0 -0.6,0 -1.21,0 -1.81,-0l0 -0zm26.56 7.68c-4.3,-0.01 -8.61,-0.01 -12.91,-0.01 -4.28,0 -8.56,-0 -12.84,0.01 -0.29,0 -0.39,-0.05 -0.38,-0.37 0.02,-1.95 0.01,-3.9 0,-5.86 -0,-0.27 0.04,-0.41 0.35,-0.37 0.29,0.04 0.67,-0.12 0.85,0.07 0.17,0.17 0.05,0.54 0.05,0.83 0,1.29 0,2.58 0,3.87 0,0.54 0.18,0.72 0.72,0.72 7.56,0 15.11,0 22.67,0 0.55,0 0.73,-0.18 0.73,-0.74 0,-1.47 0.01,-2.94 -0.01,-4.42 -0,-0.25 0.05,-0.33 0.31,-0.33 0.79,0.01 0.79,0 0.79,0.77 0,1.83 -0.01,3.65 0.01,5.48 0,0.27 -0.07,0.34 -0.34,0.34l0 0zm0.98 -7.68c-0.73,0 -1.46,0 -2.19,0 -0.5,0 -1,-0.01 -1.5,0 -0.19,0 -0.25,-0.05 -0.25,-0.25 -0.02,-0.85 -0.03,-0.85 0.81,-0.85 0.43,0 0.87,0 1.3,0 0.6,0 1.21,0 1.81,0 0.26,0 0.47,0.3 0.47,0.68 -0,0.28 -0.17,0.41 -0.44,0.41l0 0zm-0.06 -6.58c-0.57,0 -1.14,0 -1.71,0 -0.64,0 -1.28,-0.01 -1.91,0 -0.18,0 -0.26,-0.03 -0.26,-0.24 -0.02,-0.86 -0.03,-0.86 0.83,-0.86 0.43,0 0.87,0 1.3,0 0.58,0 1.16,0 1.74,0 0.3,0 0.5,0.25 0.51,0.67 0.01,0.27 -0.17,0.42 -0.5,0.42l0 0z"/>
 </g>
</svg>
