<?xml version="1.0" encoding="UTF-8"?>
<!DOCTYPE svg PUBLIC "-//W3C//DTD SVG 1.1//EN" "http://www.w3.org/Graphics/SVG/1.1/DTD/svg11.dtd">
<!-- Creator: CorelDRAW 2021 (64-Bit) -->
<svg xmlns="http://www.w3.org/2000/svg" xml:space="preserve" width="0.344488in" height="0.344488in" version="1.1" style="shape-rendering:geometricPrecision; text-rendering:geometricPrecision; image-rendering:optimizeQuality; fill-rule:evenodd; clip-rule:evenodd"
viewBox="0 0 61.92 61.92"
 xmlns:xlink="http://www.w3.org/1999/xlink"
 xmlns:xodm="http://www.corel.com/coreldraw/odm/2003">
 <defs>
  <style type="text/css">
   <![CDATA[
    .fil0 {fill:#00A0E3;fill-rule:nonzero}
   ]]>
  </style>
 </defs>
 <g id="Layer_x0020_1">
  <metadata id="CorelCorpID_0Corel-Layer"/>
  <path class="fil0" d="M61.92 1.59c0,-1.36 -0.23,-1.59 -1.59,-1.59 -19.57,0 -39.15,0 -58.72,0 -0.15,0 -0.29,-0 -0.44,0 -0.78,0.02 -1.15,0.37 -1.16,1.15 -0.01,1.89 -0.01,3.79 0,5.68 0,0.78 0.37,1.15 1.14,1.16 0.68,0.01 1.37,0 2.12,0 -0.27,0.79 -0.46,1.59 -0.03,2.28 0.38,0.62 0.29,1.14 0.04,1.74 -0.31,0.75 -0.48,1.57 -0.03,2.29 0.18,0.29 0.25,0.56 0.25,0.83l11.49 0c-0,-2.15 -0,-4.29 -0.01,-6.44 0,-0.5 0.05,-0.73 0.65,-0.71 1.35,0.05 1.35,0.01 1.35,1.37l0 5.78 27.96 0 -0.01 -6.4c0,-0.6 0.14,-0.77 0.75,-0.74 1.27,0.05 1.27,0.01 1.27,1.27l0 5.88 11.48 0c-0.01,-0.3 0.07,-0.61 0.3,-0.93 0.31,-0.43 0.27,-1.03 0.11,-1.57 -0.13,-0.44 -0.28,-0.87 -0.41,-1.31 -0.05,-0.15 -0.14,-0.3 -0.01,-0.47 0.62,-0.87 0.65,-1.81 0.23,-2.84 0.72,0 1.36,0 2,0 0.94,-0 1.28,-0.34 1.28,-1.28 0,-1.71 0,-3.41 0,-5.12l-0 -0.01zm-58.42 13.53c-0.01,0.27 -0.1,0.54 -0.21,0.82 -0.3,0.78 -0.51,1.6 -0.05,2.35 0.37,0.6 0.27,1.1 0.04,1.68 -0.31,0.77 -0.49,1.61 -0.03,2.34 0.36,0.56 0.28,1.03 0.06,1.56 -0.09,0.21 -0.15,0.43 -0.21,0.65 -0.31,1.17 0.11,2.36 1.14,2.98 0.23,0.14 0.42,0.29 0.48,0.46l2.26 0c0.09,-0.02 0.2,-0.03 0.35,-0.01l0.08 0.01 0.25 0c0.37,-0.02 0.77,-0.11 1.06,0l2.7 0c0.08,-0.01 0.16,-0.01 0.25,-0.01l6.02 0.01 0.9 0 24.74 0 0.6 0c2.12,-0 4.23,-0.01 6.35,-0.01 0.09,0 0.16,0 0.23,0.01l2.73 0c0.07,-0.01 0.14,-0.02 0.24,-0.01 0.23,0 0.43,0.01 0.59,0.01l2.84 0c0.06,-0.11 0.23,-0.2 0.41,-0.28 1.29,-0.59 1.85,-1.9 1.45,-3.27 -0.11,-0.38 -0.25,-0.75 -0.37,-1.12 -0.05,-0.15 -0.14,-0.3 -0.02,-0.47 0.78,-1.06 0.54,-2.16 0.1,-3.26 -0.15,-0.37 -0.17,-0.67 0.07,-1.04 0.38,-0.6 0.46,-1.29 0.24,-1.98 -0.13,-0.42 -0.26,-0.83 -0.4,-1.24 -0.02,-0.07 -0.04,-0.13 -0.05,-0.19l-11.43 0c0,3.4 0,6.81 0.01,10.21l0 0c0,0.52 -0.13,0.66 -0.65,0.65 -1.36,-0.04 -1.36,-0.01 -1.36,-1.36l0 -9.5 -27.96 0 0.01 10.13 0 0c0,0.62 -0.16,0.76 -0.75,0.74 -1.26,-0.05 -1.26,-0.01 -1.26,-1.27l0 -9.59 -11.49 0zm1.23 12.84c-0.01,3.14 -0,29.48 -0,32.62 0,1.02 0.31,1.33 1.34,1.33 16.5,0 32.99,0 49.49,0 1.05,0 1.36,-0.32 1.36,-1.38 0,-3.13 0,-29.44 -0,-32.57l-2 0c-0,2.72 -0.01,28.63 0.01,31.35 0,0.49 -0.12,0.62 -0.61,0.62l0 0c-7.84,-0.02 -15.68,-0.01 -23.52,-0.01 -7.8,0 -15.6,-0 -23.4,0.01 -0.53,0 -0.7,-0.09 -0.7,-0.67 0.02,-2.7 0.03,-28.6 0.02,-31.3l-2 0zm45.71 -7.99c0.77,0 1.53,0 2.3,0 1.12,0 2.24,-0 3.36,0 0.43,0 0.8,0.54 0.81,1.22 0.01,0.47 -0.25,0.76 -0.72,0.76 -2.3,0.01 -4.61,0 -6.91,0.01 -0.28,0 -0.34,-0.11 -0.35,-0.37 -0.11,-1.64 -0.12,-1.64 1.51,-1.64l-0 0zm-0.03 -3.99c0.79,0 1.58,0 2.37,0 1.08,0 2.16,0 3.24,0 0.51,0 0.92,0.55 0.9,1.26 -0.02,0.55 -0.37,0.74 -0.88,0.74 -1.62,-0 -3.24,0 -4.86,0 -0.58,0 -1.16,-0.02 -1.74,0.01 -0.36,0.01 -0.5,-0.06 -0.51,-0.47 -0.02,-1.54 -0.03,-1.54 1.49,-1.54l0 -0zm0.53 39.4c0,0.43 -0.09,0.56 -0.54,0.56 -12.96,-0.01 -25.91,-0.01 -38.87,0 -0.44,0 -0.55,-0.12 -0.55,-0.55 0.01,-1.41 0.02,-26.01 0.02,-27.42l-2.01 0c0,1.82 -0,26.82 0,28.64 0,0.98 0.33,1.32 1.3,1.32 13.77,0 27.54,0 41.3,0 1.01,0 1.33,-0.33 1.33,-1.35 0,-1.8 0.01,-26.8 0,-28.6l-2.01 0c-0,1.41 0,26 0.02,27.41l0 0zm-37.94 -38.85c-0.01,1.45 0.01,1.45 -1.45,1.45 -1.85,0 -3.69,-0 -5.54,0 -0.42,0 -0.79,-0.06 -0.97,-0.5 -0.08,-0.21 0.22,-1.39 0.39,-1.46 0.13,-0.05 0.28,-0.04 0.43,-0.04 1.1,-0 2.2,0 3.3,0 1.1,0 2.2,0.02 3.3,-0.01 0.45,-0.01 0.54,0.14 0.54,0.56l-0 -0zm5.97 4.77c0.04,-1.32 0.01,-1.32 1.33,-1.32 3.58,0 7.15,0 10.73,0 3.76,0 7.53,0.01 11.29,-0.01 0.53,-0 0.65,0.15 0.64,0.66 -0.03,1.35 -0.01,1.35 -1.37,1.35 -7.32,0 -14.64,-0.01 -21.96,0.01 -0.57,0 -0.69,-0.16 -0.67,-0.69l0 0zm0 -3.92c0.03,-1.4 0,-1.4 1.38,-1.4 7.32,0 14.64,0 21.96,-0.01 0.51,0 0.67,0.11 0.66,0.64 -0.04,1.37 -0.01,1.37 -1.35,1.37 -3.56,0 -7.11,0 -10.67,0 -3.78,0 -7.57,-0.01 -11.35,0.01 -0.47,0 -0.64,-0.1 -0.63,-0.61l0 0zm1.39 6.59c7.3,0 14.6,0.01 21.9,-0.01 0.58,-0 0.72,0.16 0.71,0.72 -0.04,1.29 -0.01,1.29 -1.3,1.29l-10.73 0c-3.78,0 -7.57,-0.01 -11.35,0.01 -0.5,0 -0.62,-0.14 -0.61,-0.62 0.03,-1.39 0,-1.39 1.39,-1.39l0 -0zm22.6 -11.28c-0.04,1.29 -0.01,1.29 -1.3,1.29 -3.58,0 -7.15,0 -10.73,0 -3.78,0 -7.57,-0.01 -11.35,0.01 -0.5,0 -0.62,-0.15 -0.61,-0.62 0.02,-1.39 0,-1.39 1.39,-1.39 7.3,0 14.6,0.01 21.9,-0.01 0.58,-0 0.72,0.16 0.7,0.72zm-1.39 -2.7c-7.3,0 -14.6,-0.01 -21.9,0.01 -0.58,0 -0.72,-0.16 -0.7,-0.72 0.04,-1.29 0.01,-1.29 1.3,-1.29 3.58,0 7.15,0 10.73,0 3.78,0 7.57,0.01 11.35,-0.01 0.51,-0 0.62,0.15 0.61,0.62 -0.02,1.38 -0,1.39 -1.39,1.39l0 -0zm14.57 3.99c-2.28,0.01 -4.56,0 -6.85,0.01 -0.28,0 -0.34,-0.1 -0.36,-0.36 -0.12,-1.64 -0.12,-1.64 1.5,-1.64 0.79,0 1.58,0 2.37,0 1.08,0 2.16,0 3.24,0 0.5,0 0.86,0.48 0.88,1.22 0.01,0.51 -0.28,0.77 -0.78,0.77l0 0zm0.05 -4c-2.3,0.01 -4.61,0 -6.91,0.01 -0.29,0 -0.33,-0.13 -0.34,-0.37 -0.11,-1.63 -0.11,-1.63 1.51,-1.63 0.77,0 1.53,0 2.3,0 1.12,0 2.24,-0 3.36,0 0.43,0 0.8,0.57 0.81,1.23 0,0.47 -0.27,0.75 -0.73,0.75l-0 0zm-48.01 -7.97c0.06,-0.02 0.14,-0.02 0.23,-0.01 0.1,0.01 0.21,0 0.31,0 14.83,0 29.66,0 44.49,-0.02 0.13,0 0.23,0.01 0.32,0.02l2.64 0c0.05,-0.01 0.11,-0.01 0.18,-0.01 0.31,0 0.61,0.01 0.92,0.01l0.64 0 0 0c0.52,0 1.04,-0 1.56,-0.01 0.34,-0.01 0.48,0.08 0.46,0.45 -0.03,0.52 -0.01,1.04 -0.01,1.56 0,0.52 -0.02,1.04 0.01,1.56 0.02,0.37 -0.12,0.45 -0.46,0.45l-0 -0c-0.52,-0.01 -1.04,-0.01 -1.56,-0.01 -0.52,0 -1.04,0 -1.56,0.01 -0.08,0 -0.14,-0 -0.19,-0.01l-2.58 0c-0.08,0.01 -0.17,0.02 -0.28,0.02 -6.09,-0.02 -12.19,-0.01 -18.28,-0.01l-4.12 0c-7.4,0 -14.81,-0.01 -22.21,0.01 -0.12,0 -0.22,-0.01 -0.3,-0.02l-2.62 0c-0.05,0.01 -0.11,0.01 -0.18,0.01 -0.38,-0.01 -0.76,-0.01 -1.14,-0.01l-0.89 0c-0.38,0 -0.76,0.01 -1.14,0.01l-0 0c-0.34,0.01 -0.42,-0.12 -0.42,-0.43 0.02,-1.04 0.02,-2.08 0,-3.11 -0.01,-0.34 0.08,-0.48 0.45,-0.46 0.54,0.03 1.08,0.01 1.62,0.01 0.25,0 0.5,0 0.75,0.01l0.3 0c0.15,-0 0.3,-0.01 0.45,-0.01 0.09,-0 0.16,-0 0.22,0.01l2.39 0zm-1.91 5.96c2.03,0.06 4.07,0.03 6.1,0.01 0.46,-0 0.65,0.07 0.64,0.59 -0.03,1.41 -0,1.41 -1.42,1.41 -0.79,0 -1.58,0 -2.37,0 -1.1,0 -2.2,0.01 -3.3,-0 -0.77,-0.01 -0.99,-0.38 -0.82,-1.14 0.15,-0.69 0.46,-0.9 1.18,-0.88l0 0zm-0.86 4.08c0.06,-0.13 0.27,-0.06 0.41,-0.06 1.1,-0 2.2,-0 3.3,0 1.14,0 2.28,0.01 3.43,-0.01 0.35,-0.01 0.45,0.1 0.46,0.45 0.03,1.55 0.05,1.55 -1.47,1.55 -1.83,0 -3.65,-0 -5.48,0 -0.41,0 -0.83,-0.01 -0.98,-0.47 -0.18,-0.54 0.15,-1 0.35,-1.47l-0 -0zm0.01 7.99c0.03,-0.07 0.26,-0.06 0.4,-0.06 1.12,-0 2.24,-0 3.36,-0 1.12,0 2.24,0.01 3.36,-0.01 0.36,-0.01 0.45,0.11 0.45,0.46 0.03,1.55 0.04,1.55 -1.47,1.55 -1.83,0 -3.65,-0 -5.48,0 -0.41,0 -0.83,-0.01 -0.98,-0.47 -0.17,-0.54 0.16,-1 0.35,-1.47l-0 0zm0.53 5.93c-0.81,-0.01 -1.03,-0.37 -0.85,-1.16 0.15,-0.66 0.44,-0.87 1.13,-0.85 2.07,0.06 4.15,0.03 6.23,0.01 0.45,-0 0.55,0.13 0.55,0.56 -0.01,1.45 0.01,1.45 -1.45,1.45 -0.77,0 -1.54,0 -2.3,0 -1.1,0 -2.2,0.01 -3.3,-0l0 -0zm50.16 0c-1.33,0 -2.66,0 -3.98,0 -0.91,0 -1.83,-0.01 -2.74,0.01 -0.35,0.01 -0.45,-0.1 -0.46,-0.45 -0.03,-1.55 -0.05,-1.55 1.47,-1.55 0.79,0 1.58,0 2.37,0 1.1,0 2.2,0 3.3,0 0.47,0 0.86,0.55 0.85,1.24 -0,0.51 -0.31,0.75 -0.8,0.75l0 0z"/>
 </g>
</svg>
