<?xml version="1.0" encoding="UTF-8"?>
<!DOCTYPE svg PUBLIC "-//W3C//DTD SVG 1.1//EN" "http://www.w3.org/Graphics/SVG/1.1/DTD/svg11.dtd">
<!-- Creator: CorelDRAW 2021 (64-Bit) -->
<svg xmlns="http://www.w3.org/2000/svg" xml:space="preserve" width="0.275591in" height="0.275591in" version="1.1" style="shape-rendering:geometricPrecision; text-rendering:geometricPrecision; image-rendering:optimizeQuality; fill-rule:evenodd; clip-rule:evenodd"
viewBox="0 0 5.26 5.26"
 xmlns:xlink="http://www.w3.org/1999/xlink"
 xmlns:xodm="http://www.corel.com/coreldraw/odm/2003">
 <defs>
  <style type="text/css">
   <![CDATA[
    .str0 {stroke:#00A0E3;stroke-width:0.26;stroke-linecap:round;stroke-miterlimit:2.61313}
    .fil1 {fill:none}
    .fil0 {fill:#00A0E3;fill-rule:nonzero}
   ]]>
  </style>
 </defs>
 <g id="Layer_x0020_1">
  <metadata id="CorelCorpID_0Corel-Layer"/>
  <g id="_1772029182480">
   <path class="fil0" d="M1.31 0l2.64 0c0.36,0 0.68,0.15 0.92,0.38l0 0 0 0c0.24,0.24 0.38,0.56 0.38,0.92l0 2.64c0,0.36 -0.15,0.69 -0.38,0.92l0 0c-0.24,0.24 -0.56,0.38 -0.92,0.38l-2.64 0c-0.36,0 -0.69,-0.15 -0.92,-0.38l0 -0c-0.24,-0.24 -0.38,-0.56 -0.38,-0.92l0 -2.64c0,-0.36 0.15,-0.68 0.38,-0.92l0 -0 0 -0c0.24,-0.24 0.56,-0.38 0.92,-0.38zm2.64 0.44l-2.64 0c-0.24,0 -0.45,0.1 -0.61,0.25l-0 0c-0.16,0.16 -0.25,0.37 -0.25,0.61l0 2.64c0,0.24 0.1,0.45 0.25,0.61l0 0c0.16,0.16 0.37,0.25 0.61,0.25l2.64 0c0.24,0 0.45,-0.1 0.61,-0.25l0 0c0.16,-0.16 0.25,-0.37 0.25,-0.61l0 -2.64c0,-0.24 -0.1,-0.45 -0.25,-0.61l-0 -0c-0.16,-0.16 -0.37,-0.25 -0.61,-0.25z"/>
   <g>
    <line class="fil1 str0" x1="2.63" y1="4.3" x2="2.63" y2= "0.96" />
    <line class="fil1 str0" x1="4.3" y1="2.63" x2="0.96" y2= "2.63" />
    <g>
     <path class="fil0" d="M3.57 3.57l0.57 -0.19 0.28 0.28 -0.57 0.19 -0.19 0.57 -0.28 -0.28 0.19 -0.57zm0.33 0.14c0.05,0.05 0.05,0.14 0,0.19 -0.05,0.05 -0.14,0.05 -0.19,0l0.19 -0.19zm-2.36 -2.36l2.36 2.36 -0.19 0.19 -2.36 -2.36 0.19 -0.19zm0.14 0.33l-0.57 0.19 -0.28 -0.28 0.57 -0.19 0.19 -0.57 0.28 0.28 -0.19 0.57zm-0.33 -0.14c-0.05,-0.05 -0.05,-0.14 0,-0.19 0.05,-0.05 0.14,-0.05 0.19,0l-0.19 0.19z"/>
    </g>
    <g>
     <path class="fil0" d="M1.68 3.57l0.19 0.57 -0.28 0.28 -0.19 -0.57 -0.57 -0.19 0.28 -0.28 0.57 0.19zm-0.14 0.33c-0.05,0.05 -0.14,0.05 -0.19,0 -0.05,-0.05 -0.05,-0.14 0,-0.19l0.19 0.19zm2.36 -2.36l-2.36 2.36 -0.19 -0.19 2.36 -2.36 0.19 0.19zm-0.33 0.14l-0.19 -0.57 0.28 -0.28 0.19 0.57 0.57 0.19 -0.28 0.28 -0.57 -0.19zm0.14 -0.33c0.05,-0.05 0.14,-0.05 0.19,0 0.05,0.05 0.05,0.14 0,0.19l-0.19 -0.19z"/>
    </g>
   </g>
  </g>
 </g>
</svg>
