<?xml version="1.0" encoding="UTF-8"?>
<!DOCTYPE svg PUBLIC "-//W3C//DTD SVG 1.1//EN" "http://www.w3.org/Graphics/SVG/1.1/DTD/svg11.dtd">
<!-- Creator: CorelDRAW 2021 (64-Bit) -->
<svg xmlns="http://www.w3.org/2000/svg" xml:space="preserve" width="0.354331in" height="0.354331in" version="1.1" style="shape-rendering:geometricPrecision; text-rendering:geometricPrecision; image-rendering:optimizeQuality; fill-rule:evenodd; clip-rule:evenodd"
viewBox="0 0 9.7 9.7"
 xmlns:xlink="http://www.w3.org/1999/xlink"
 xmlns:xodm="http://www.corel.com/coreldraw/odm/2003">
 <defs>
  <style type="text/css">
   <![CDATA[
    .fil0 {fill:#00A0E3;fill-rule:nonzero}
   ]]>
  </style>
 </defs>
 <g id="Layer_x0020_1">
  <metadata id="CorelCorpID_0Corel-Layer"/>
  <g id="_1807929566752">
   <path class="fil0" d="M2.41 0l4.88 0c0.66,0 1.26,0.27 1.7,0.71l0 0 0 0c0.44,0.44 0.71,1.04 0.71,1.7l0 4.88c0,0.66 -0.27,1.26 -0.71,1.7l0 0c-0.44,0.44 -1.04,0.71 -1.7,0.71l-4.88 0c-0.66,0 -1.27,-0.27 -1.7,-0.71l0 -0c-0.44,-0.44 -0.71,-1.04 -0.71,-1.7l0 -4.88c0,-0.66 0.27,-1.26 0.71,-1.7l0 -0 0 -0c0.44,-0.44 1.04,-0.71 1.7,-0.71zm4.88 0.81l-4.88 0c-0.44,0 -0.84,0.18 -1.13,0.47l-0 0c-0.29,0.29 -0.47,0.69 -0.47,1.13l0 4.88c0,0.44 0.18,0.84 0.47,1.13l0 0c0.29,0.29 0.69,0.47 1.13,0.47l4.88 0c0.44,0 0.84,-0.18 1.13,-0.47l0 0c0.29,-0.29 0.47,-0.69 0.47,-1.13l0 -4.88c0,-0.44 -0.18,-0.84 -0.47,-1.13l-0 -0c-0.29,-0.29 -0.69,-0.47 -1.13,-0.47z"/>
   <path class="fil0" d="M4.85 8.08c0.82,0 1.55,-0.33 2.09,-0.87l0 -0c0.53,-0.53 0.87,-1.27 0.87,-2.09 0,-0.6 -0.18,-1.15 -0.48,-1.62 -0.31,-0.48 -0.76,-0.86 -1.29,-1.09 -0.07,-0.03 -0.15,-0.06 -0.23,-0.09l0 0.83c0.36,0.17 0.66,0.44 0.88,0.77 0.22,0.34 0.36,0.75 0.36,1.2 0,0.6 -0.24,1.15 -0.64,1.55 -0.4,0.39 -0.94,0.64 -1.55,0.64 -0.6,0 -1.15,-0.24 -1.55,-0.64 -0.39,-0.4 -0.64,-0.94 -0.64,-1.55 0,-0.44 0.13,-0.86 0.36,-1.2 0.22,-0.33 0.52,-0.59 0.88,-0.77l0 -0.83c-0.07,0.02 -0.15,0.05 -0.22,0.08 -0.53,0.23 -0.98,0.61 -1.3,1.09 -0.31,0.47 -0.49,1.02 -0.49,1.62 0,0.82 0.33,1.55 0.87,2.09l0 0c0.53,0.53 1.27,0.87 2.09,0.87zm-0.51 -2.93l1.01 0 0 -3.53 -1.01 0 0 3.53z"/>
  </g>
 </g>
</svg>
