<?xml version="1.0" encoding="UTF-8"?>
<!DOCTYPE svg PUBLIC "-//W3C//DTD SVG 1.1//EN" "http://www.w3.org/Graphics/SVG/1.1/DTD/svg11.dtd">
<!-- Creator: CorelDRAW 2021 (64-Bit) -->
<svg xmlns="http://www.w3.org/2000/svg" xml:space="preserve" width="0.43078in" height="0.357815in" version="1.1" style="shape-rendering:geometricPrecision; text-rendering:geometricPrecision; image-rendering:optimizeQuality; fill-rule:evenodd; clip-rule:evenodd"
viewBox="0 0 18.79 15.61"
 xmlns:xlink="http://www.w3.org/1999/xlink"
 xmlns:xodm="http://www.corel.com/coreldraw/odm/2003">
 <defs>
  <style type="text/css">
   <![CDATA[
    .str0 {stroke:#00A0E3;stroke-width:0.13;stroke-miterlimit:22.9256}
    .fil0 {fill:#00A0E3;fill-rule:nonzero}
   ]]>
  </style>
 </defs>
 <g id="Layer_x0020_1">
  <metadata id="CorelCorpID_0Corel-Layer"/>
  <g id="_1771975274656">
   <polygon class="fil0 str0" points="6.27,11.6 7.18,11.6 8.03,11.6 6.72,13.63 5.42,11.6 "/>
   <path class="fil0 str0" d="M13.92 14.89c0.39,-0.11 0.58,-0.22 0.67,-0.37 0.09,-0.15 0.11,-0.39 0.12,-0.7 0.03,-0.9 0.02,-2 0.01,-3.1 -0.01,-1.04 -0.02,-2.08 0,-2.97l0.01 -0.31 2.14 0.01 -7.59 -6.51 -7.42 6.52 1.71 0.01 0.01 0.31c0.02,0.87 0.02,1.77 0.02,2.68 0,0.89 0,1.78 0.02,2.65 0.02,0.34 0.07,0.7 0.25,1.01 0.17,0.3 0.47,0.57 1.02,0.76l5.69 0.01 0.09 -0.01c0.28,-0.04 0.48,-0.07 0.63,-0.18 0.04,-0.03 0.09,-0.07 0.15,-0.14 0.05,-0.06 0.09,-0.14 0.13,-0.23l0 -4.05 0 -0.01c0.01,-0.27 -0.04,-0.45 -0.14,-0.56 -0.1,-0.1 -0.26,-0.16 -0.47,-0.17l-3.21 -0.03c-0.21,0.01 -0.38,0.05 -0.49,0.13 -0.09,0.07 -0.15,0.19 -0.16,0.38l-0.05 2.11 -0.64 0 0.05 -2.15c0.02,-0.4 0.17,-0.68 0.42,-0.86 0.23,-0.17 0.52,-0.24 0.85,-0.25 1.09,0 2.18,0.03 3.27,0.03 0.38,0.02 0.69,0.14 0.91,0.38 0.21,0.23 0.32,0.56 0.3,1l0 0 0 4.13 -0.01 0.05c-0.06,0.21 -0.16,0.37 -0.25,0.5 -0.1,0.12 -0.2,0.21 -0.27,0.26 -0.28,0.21 -0.54,0.24 -0.91,0.3l-0.12 0.02c-1.96,-0.01 -3.91,-0.01 -5.87,-0.01l-0.05 -0.02c-0.75,-0.26 -1.17,-0.64 -1.42,-1.07 -0.24,-0.42 -0.3,-0.87 -0.33,-1.29l0 -0.01c-0.02,-0.87 -0.02,-1.78 -0.02,-2.68 -0,-0.79 -0,-1.58 -0.02,-2.35l-2.77 -0.02 9.1 -8c3.11,2.67 6.22,5.34 9.34,8l-3.25 -0.01c-0.02,0.81 -0.01,1.72 0.01,2.63 0.01,1.11 0.03,2.22 -0.01,3.13 -0.01,0.4 -0.03,0.72 -0.21,1 -0.18,0.3 -0.48,0.51 -1.06,0.67l-0.17 -0.62z"/>
  </g>
 </g>
</svg>
