<?xml version="1.0" encoding="UTF-8"?>
<!DOCTYPE svg PUBLIC "-//W3C//DTD SVG 1.1//EN" "http://www.w3.org/Graphics/SVG/1.1/DTD/svg11.dtd">
<!-- Creator: CorelDRAW 2021 (64-Bit) -->
<svg xmlns="http://www.w3.org/2000/svg" xml:space="preserve" width="0.359587in" height="0.314961in" version="1.1" style="shape-rendering:geometricPrecision; text-rendering:geometricPrecision; image-rendering:optimizeQuality; fill-rule:evenodd; clip-rule:evenodd"
viewBox="0 0 15.71 13.76"
 xmlns:xlink="http://www.w3.org/1999/xlink"
 xmlns:xodm="http://www.corel.com/coreldraw/odm/2003">
 <defs>
  <style type="text/css">
   <![CDATA[
    .fil0 {fill:#00A0E3}
   ]]>
  </style>
 </defs>
 <g id="Layer_x0020_1">
  <metadata id="CorelCorpID_0Corel-Layer"/>
  <g id="_1771982523376">
   <path class="fil0" d="M1.17 12.46l12.71 0c-0.1,0.15 -0.38,0.37 -0.55,0.45 -0.3,0.13 -0.43,0.18 -0.82,0.18l-9.97 0c-0.53,0 -1.09,-0.2 -1.37,-0.62zm10.91 -2.17l0.23 -0.39c0.09,-0.14 0.14,-0.28 0.22,-0.43 0.04,-0.09 0.05,-0.11 0.09,-0.21 0.17,-0.44 0.29,-0.73 0.37,-1.23 0.11,-0.65 -0,-0.57 0.31,-0.66 0.46,-0.13 1.45,-0.35 1.65,0.29 0.25,0.8 -0.07,1.24 -0.69,1.69 -0.32,0.24 -1.06,0.59 -1.45,0.72l-0.73 0.22zm-9.47 -3.91c0,-0.31 0.09,-0.47 0.4,-0.47l9 0c0.52,0 0.4,0.38 0.4,1.15 0,0.61 -0.14,1.15 -0.29,1.63 -0.03,0.08 -0.04,0.09 -0.07,0.16l-0.22 0.53c-0.1,0.2 -0.23,0.42 -0.36,0.61l-0.43 0.54c-0.35,0.37 -0.56,0.61 -1.02,0.92 -0.12,0.08 -0.51,0.34 -0.63,0.34l-3.74 0c-0.13,0 -0.53,-0.27 -0.68,-0.37l-0.58 -0.47c-0.38,-0.38 -0.41,-0.4 -0.74,-0.83 -0.5,-0.66 -0.79,-1.44 -0.94,-2.25l-0.11 -1.49zm-0.67 -0.05c0,1.05 0.08,2.09 0.53,3.06 0.28,0.59 0.43,0.82 0.79,1.31 0.04,0.05 0.07,0.09 0.11,0.14 0.42,0.47 0.34,0.41 0.82,0.82 0.11,0.1 0.1,0.07 0.12,0.13l-3.99 -0c-0.29,0 -0.49,0.31 -0.15,0.65l0.76 0.74c0.3,0.29 0.86,0.58 1.44,0.58l10.29 0c0.28,0 0.63,-0.09 0.82,-0.17 0.57,-0.25 0.7,-0.47 1.11,-0.88 0.19,-0.19 0.45,-0.37 0.45,-0.62 0,-0.41 -0.61,-0.3 -0.87,-0.3l-3.46 0 0.54 -0.5c0.15,-0.15 0.11,-0.12 0.35,-0.17l0.85 -0.23c0.27,-0.09 0.48,-0.14 0.79,-0.26 0.15,-0.06 0.25,-0.11 0.38,-0.16 0.12,-0.05 0.24,-0.12 0.36,-0.17 0.34,-0.14 0.96,-0.6 1.22,-0.89 0.51,-0.58 0.63,-1.26 0.36,-2 -0.09,-0.25 -0.29,-0.5 -0.51,-0.63 -0.58,-0.34 -1.1,-0.25 -1.73,-0.12 -0.08,0.02 -0.05,0.01 -0.12,0.03 -0.07,0.02 0.01,0 -0.05,0.02 -0.12,0.03 -0.01,-0.13 -0.07,-0.55 -0.03,-0.22 -0.06,-0.33 -0.17,-0.48 -0.17,-0.25 -0.43,-0.44 -0.83,-0.44l-9.12 0c-0.3,0 -0.59,0.15 -0.74,0.3 -0.17,0.18 -0.28,0.45 -0.28,0.79z"/>
   <path class="fil0" d="M9.8 1.28c0,0.84 -0.57,0.96 -0.62,1.72 -0.02,0.32 -0.03,0.68 0.1,0.97 0.08,0.19 0.25,0.62 0.5,0.62 0.4,0 0.46,-0.31 0.27,-0.59 -0.08,-0.11 -0.07,-0.11 -0.12,-0.25 -0.29,-0.8 0.19,-1.17 0.4,-1.65 0.14,-0.32 0.22,-0.81 0.11,-1.23 -0.08,-0.29 -0.27,-0.86 -0.63,-0.86 -0.17,0 -0.44,0.24 -0.25,0.54 0.13,0.2 0.25,0.41 0.25,0.73z"/>
   <path class="fil0" d="M7.5 0.33c0,0.12 0.14,0.29 0.19,0.38 0.18,0.31 0.18,0.83 0.03,1.15 -0.14,0.29 -0.24,0.32 -0.39,0.7 -0.38,0.95 0.15,2.02 0.48,2.02 0.35,0 0.45,-0.25 0.34,-0.47 -0.12,-0.25 -0.17,-0.22 -0.25,-0.57 -0.24,-0.99 0.8,-1.19 0.6,-2.55 -0.03,-0.2 -0.12,-0.45 -0.21,-0.61 -0.12,-0.21 -0.21,-0.39 -0.46,-0.39 -0.15,0 -0.32,0.18 -0.32,0.32z"/>
   <path class="fil0" d="M5.56 0.35c0,0.23 0.68,0.82 0.07,1.74 -0.38,0.57 -0.39,0.74 -0.39,1.4 0,0.27 0.3,1.1 0.6,1.1 0.13,0 0.21,0.01 0.3,-0.1 0.32,-0.37 -0.23,-0.43 -0.23,-1.2 0,-0.52 0.21,-0.7 0.4,-1.02 0.27,-0.44 0.3,-1.25 0.12,-1.65 -0.03,-0.07 -0.05,-0.11 -0.09,-0.19 -0.03,-0.08 -0.08,-0.12 -0.11,-0.19 -0.28,-0.47 -0.67,-0.2 -0.67,0.1z"/>
  </g>
 </g>
</svg>
