<?xml version="1.0" encoding="UTF-8"?>
<!DOCTYPE svg PUBLIC "-//W3C//DTD SVG 1.1//EN" "http://www.w3.org/Graphics/SVG/1.1/DTD/svg11.dtd">
<!-- Creator: CorelDRAW 2021 (64-Bit) -->
<svg xmlns="http://www.w3.org/2000/svg" xml:space="preserve" width="0.354331in" height="0.354331in" version="1.1" style="shape-rendering:geometricPrecision; text-rendering:geometricPrecision; image-rendering:optimizeQuality; fill-rule:evenodd; clip-rule:evenodd"
viewBox="0 0 18.88 18.88"
 xmlns:xlink="http://www.w3.org/1999/xlink"
 xmlns:xodm="http://www.corel.com/coreldraw/odm/2003">
 <defs>
  <style type="text/css">
   <![CDATA[
    .fil0 {fill:#00A0E3}
   ]]>
  </style>
 </defs>
 <g id="Layer_x0020_1">
  <metadata id="CorelCorpID_0Corel-Layer"/>
  <g id="_1771986679200">
   <path class="fil0" d="M16.89 9.73c0,-0.43 0.02,-0.22 0.07,-0.44 0.25,0.07 0.6,0.66 0.73,0.9 0.54,1 0.5,1.98 -0.01,2.99 -0.32,0.63 -0.38,0.87 -1.04,0.87 -0.61,0 -1.19,-0.76 -1.25,-1.55 0.61,0 0.45,-0.53 0.35,-0.65 -0.12,-0.14 -0.12,-0 -0.13,-0.24 0.16,0 0.28,-0.02 0.38,-0.1 0.35,-0.28 0.06,-0.49 0.06,-0.82 0,-0.08 0.11,-0.18 0.15,-0.18 0.21,0 0.12,0.11 0.44,0.11 0.6,0 0.26,-0.77 0.26,-0.88zm1.99 1.75l0 0.32c-0.03,0.59 -0.21,1.2 -0.54,1.85 -0.08,0.15 -0.12,0.27 -0.22,0.41 -0.42,0.61 -0.81,0.59 -1.08,0.72 0,1.41 0.14,1.31 -0.62,1.59 -0.9,0.34 -6.78,2.5 -6.97,2.5 -0.23,0 -4.1,-1.45 -4.33,-1.53l-2.14 -0.78c-0.18,-0.07 -0.36,-0.14 -0.54,-0.2 -0.79,-0.28 -0.59,-0.29 -0.59,-1.58 -0.08,-0.04 -0.16,-0.04 -0.25,-0.08 -0.58,-0.21 -0.78,-0.52 -1.05,-1.05 -0.33,-0.65 -0.51,-1.26 -0.54,-1.86l0 -0.34c0.03,-0.61 0.23,-1.22 0.61,-1.86 0.36,-0.6 0.67,-0.92 1.24,-1.2 0,-0.55 0,-1.11 0,-1.66 0,-0.6 -0.13,-1.25 0.41,-1.25 0.25,0 3.39,1.34 3.62,1.43 0.37,0.15 3.47,1.44 3.57,1.44l6.27 -2.54c0.4,-0.16 1.33,-0.71 1.33,0.15l-0 2.44c0.57,0.27 0.91,0.63 1.25,1.22 0.37,0.65 0.56,1.25 0.59,1.86zm-17 -1.24c0,0.26 0.19,0.37 0.44,0.37 0.17,0 0.21,-0.11 0.33,-0.11 0.24,0 0.18,0.29 0.15,0.41 -0.04,0.13 -0.19,0.39 0.09,0.6 0.1,0.07 0.23,0.09 0.38,0.09 -0.01,0.15 -0.04,0.08 -0.04,0.22 0,0.07 0.37,0.22 0.2,1.05 -0.09,0.43 -0.65,1.16 -1.2,1.16 -0.67,0 -0.72,-0.24 -1.04,-0.87 -0.51,-1.01 -0.55,-1.99 -0.01,-2.99 0.13,-0.23 0.47,-0.83 0.73,-0.9 0.05,0.23 0.07,0.01 0.07,0.44 0,0.22 -0.11,0.29 -0.11,0.52zm13.35 0.59c-0.33,0.18 -0.48,0.56 -0.42,0.86 0.11,0.6 -0.17,0.22 -0.17,1.2 0,0.46 0.33,0.88 0.54,1.16 0.23,0.31 0.67,0.65 1.05,0.68l0 0.85c-0.15,0.03 -0.23,0.08 -0.38,0.13l-2.81 1.02c-0.55,0.19 -1.06,0.39 -1.59,0.58l-1.59 0.59 0 -8.85c0.19,-0.02 4.38,-1.77 4.78,-1.93 0.27,-0.11 0.53,-0.2 0.79,-0.32 0.13,-0.06 0.24,-0.1 0.39,-0.16 0.13,-0.05 0.3,-0.14 0.42,-0.17 0,0.49 0.06,2.31 -0.02,2.63 -0.02,0.09 -0.06,0.15 -0.07,0.26 -0.01,0.08 -0.01,0.27 -0.02,0.31 -0.06,0.18 -0.17,0.01 -0.46,0.21 -0.28,0.19 -0.42,0.49 -0.42,0.94zm-12.57 -4.35l4.77 1.94c0.28,0.11 0.5,0.21 0.78,0.32 0.19,0.08 0.66,0.3 0.83,0.32l0 8.85c-0.2,-0.11 -0.55,-0.21 -0.78,-0.29 -1.28,-0.46 -2.76,-1.04 -4,-1.46 -0.27,-0.09 -0.51,-0.2 -0.78,-0.29l-0.82 -0.29 0 -0.85c0.75,-0.06 1.59,-1.21 1.59,-1.84 0,-0.94 -0.28,-0.66 -0.18,-1.17 0.07,-0.35 -0.09,-0.78 -0.41,-0.85 0,-1.13 -0.78,-1.06 -0.85,-1.14 -0.05,-0.05 -0.02,-0.25 -0.11,-0.59 -0.09,-0.32 -0.03,-2.15 -0.03,-2.66z"/>
   <path class="fil0" d="M9.29 0.81c1,0 1.5,0.2 2.19,0.88 1.07,1.06 1.08,3.63 -0.94,4.53 -0.32,0.14 -0.77,0.22 -1.12,0.21 -0.59,-0.01 -1.31,-0.22 -1.73,-0.62 -0.48,-0.44 -0.76,-0.83 -0.92,-1.52 -0.05,-0.2 -0.05,-0.42 -0.07,-0.59 -0.08,-0.57 0.26,-1.57 0.69,-2.01 0.5,-0.51 1.09,-0.89 1.91,-0.89zm0.33 -0.81c-0.75,0 -1.09,0.05 -1.76,0.38 -0.94,0.47 -1.68,1.46 -1.91,2.51 -0.42,1.88 0.89,3.81 2.68,4.25 0.77,0.19 1.52,0.13 2.23,-0.23 0.78,-0.39 1.4,-0.97 1.78,-1.76 1.23,-2.49 -0.9,-5.16 -3.02,-5.16z"/>
  </g>
 </g>
</svg>
