<?xml version="1.0" encoding="UTF-8"?>
<!DOCTYPE svg PUBLIC "-//W3C//DTD SVG 1.1//EN" "http://www.w3.org/Graphics/SVG/1.1/DTD/svg11.dtd">
<!-- Creator: CorelDRAW 2021 (64-Bit) -->
<svg xmlns="http://www.w3.org/2000/svg" xml:space="preserve" width="0.354882in" height="0.354327in" version="1.1" style="shape-rendering:geometricPrecision; text-rendering:geometricPrecision; image-rendering:optimizeQuality; fill-rule:evenodd; clip-rule:evenodd"
viewBox="0 0 24.81 24.77"
 xmlns:xlink="http://www.w3.org/1999/xlink"
 xmlns:xodm="http://www.corel.com/coreldraw/odm/2003">
 <defs>
  <style type="text/css">
   <![CDATA[
    .fil0 {fill:#00A0E3}
   ]]>
  </style>
 </defs>
 <g id="Layer_x0020_1">
  <metadata id="CorelCorpID_0Corel-Layer"/>
  <g id="_1771982017760">
   <path class="fil0" d="M7.31 19.32c1.05,0.34 2,0.59 3.25,0.59 3.09,-0 5.97,-1.22 7.72,-3.75 0.69,-1 1.04,-1.94 1.33,-3.12 0.04,-0.16 0.08,-0.38 0.1,-0.53 0.13,-0.86 0.14,-1.51 0.1,-2.38 -0.01,-0.2 -0.12,-0.93 -0.16,-1.11 -0.09,-0.34 -0.15,-0.69 -0.26,-1.02 -0.05,-0.16 -0.09,-0.32 -0.15,-0.48 -0.4,-1.12 -0.6,-1.6 -1.17,-2.65 -0.04,-0.07 -0.08,-0.13 -0.12,-0.2 -0.05,-0.11 0.05,-0.04 0.11,-0 0.28,0.15 0.54,0.3 0.79,0.47 0.27,0.18 0.51,0.35 0.74,0.54 0.12,0.09 0.22,0.18 0.34,0.29 3.11,2.73 4.23,7.07 2.73,11 -0.19,0.5 -0.43,1 -0.68,1.42 -0.71,1.21 -1.61,2.21 -2.75,3.04 -0.1,0.07 -0.2,0.15 -0.31,0.22 -0.42,0.28 -0.86,0.53 -1.35,0.76 -0.24,0.11 -0.48,0.21 -0.74,0.31 -0.13,0.05 -0.26,0.08 -0.39,0.13 -0.13,0.05 -0.28,0.09 -0.4,0.12 -0.27,0.07 -0.59,0.16 -0.86,0.2 -0.09,0.01 -0.15,0.03 -0.22,0.04 -0.68,0.11 -1.56,0.14 -2.25,0.1 -0.16,-0.01 -0.31,-0.03 -0.48,-0.05 -0.29,-0.02 -0.61,-0.1 -0.9,-0.14 -0.38,-0.06 -1.28,-0.35 -1.62,-0.49 -0.82,-0.33 -1.99,-0.97 -2.65,-1.56 -0.05,-0.04 -0.09,-0.08 -0.14,-0.12 -0.39,-0.31 -1.1,-1.06 -1.41,-1.48 -0.15,-0.21 -0.8,-1.09 -0.83,-1.29 0.07,0.01 0.55,0.27 0.64,0.32 0.51,0.28 1.44,0.67 1.98,0.84zm17.49 -6.47l0 1.32c-0,0.09 -0.01,0.15 -0.01,0.17 -0.05,0.15 -0,0.19 -0.02,0.36l-0.04 0.23c-0.02,0.18 -0.1,0.53 -0.1,0.58l-0.06 0.33c-0.01,0.04 -0.02,0.05 -0.04,0.1 -0.01,0.05 -0.01,0.07 -0.02,0.12 -0.01,0.05 -0.02,0.04 -0.03,0.11l-0.45 1.41c-0.02,0.05 -0.01,0.01 -0.03,0.05l-0.19 0.43c-0,0 -0,0.01 -0.01,0.01l-0.39 0.79c-0,0 -0.02,0.04 -0.03,0.05l-0.31 0.53c-0.11,0.19 -0.07,0.13 -0.12,0.13 -0.08,0.08 -0.15,0.21 -0.21,0.3 -0.41,0.56 -0.82,1.09 -1.32,1.58 -0.08,0.08 -0.17,0.15 -0.24,0.23l-0.56 0.5c-0.27,0.22 -0.74,0.56 -1.01,0.74 -0.07,0.05 -0.14,0.08 -0.22,0.13 -0.07,0.05 -0.14,0.09 -0.22,0.13 -0.5,0.27 -0.84,0.48 -1.41,0.71 -1.33,0.55 -3.12,0.96 -4.73,0.87 -0.22,-0.01 -0.46,-0.01 -0.67,-0.03 -0.74,-0.07 -1.65,-0.24 -2.35,-0.46 -1.04,-0.33 -1.5,-0.56 -2.45,-1.08 -0.23,-0.13 -1.05,-0.67 -1.26,-0.87 -0.1,-0.1 -0.24,-0.18 -0.39,-0.31 -0.22,-0.21 -0.51,-0.44 -0.73,-0.69 -0.24,-0.26 -0.36,-0.38 -0.58,-0.65 -0.03,-0.04 -0.05,-0.06 -0.08,-0.09 -0.06,-0.07 -0.1,-0.13 -0.16,-0.19l-0.15 -0.2c-0.25,-0.3 -0.64,-0.95 -0.83,-1.27 -0.3,-0.5 -0.67,-1.39 -0.86,-1.96 -0.1,-0.3 -0.32,-0.83 -0.19,-1.17 0.18,-0.48 0.8,-0.62 1.15,-0.3 0.07,0.07 0.12,0.1 0.19,0.16 0.37,0.33 0.82,0.64 1.24,0.89l0.44 0.26c1.49,0.79 2.98,1.43 4.71,1.64 0.46,0.05 1.78,-0.02 2.29,-0.16 0.07,-0.02 0.23,-0.05 0.3,-0.07 0.19,-0.03 0.38,-0.1 0.55,-0.14 0.36,-0.1 0.92,-0.33 1.25,-0.5 0.45,-0.23 0.67,-0.37 1.08,-0.67 0.51,-0.38 1.02,-0.9 1.4,-1.43 0.05,-0.07 0.1,-0.14 0.15,-0.21l0.14 -0.21c0.04,-0.07 0.09,-0.15 0.13,-0.22 0.04,-0.08 0.09,-0.15 0.13,-0.24 0.27,-0.52 0.64,-1.52 0.71,-2.11 0.05,-0.47 0.13,-0.66 0.14,-1.26 0.02,-0.92 -0.01,-1.08 -0.19,-1.92 -0.23,-1.08 -0.84,-2.62 -1.37,-3.58l-0.38 -0.67c-0.14,-0.23 -0.25,-0.43 -0.41,-0.64 -0.16,-0.22 -0.43,-0.59 -0.63,-0.79 -0.11,-0.11 -0.23,-0.23 -0.27,-0.43 -0.08,-0.39 0.17,-0.79 0.53,-0.86 0.34,-0.06 0.81,0.11 1.14,0.21 0.64,0.2 1.39,0.51 1.99,0.84 0.31,0.17 0.62,0.34 0.89,0.53l1.58 1.25c0.23,0.22 0.48,0.48 0.69,0.72 0.29,0.34 0.69,0.82 0.92,1.18 0.27,0.41 0.57,0.9 0.78,1.35 0.3,0.64 0.6,1.35 0.78,2.05 0.09,0.34 0.21,0.81 0.25,1.16 0.02,0.19 0.05,0.43 0.08,0.62 0.03,0.16 -0,0.54 0.07,0.64z"/>
   <path class="fil0" d="M10.53 8.2c0.43,-0.03 0.7,0.03 1.06,0.16 1.2,0.43 1.94,1.9 1.41,3.22 -0.12,0.32 -0.29,0.56 -0.48,0.77 -0.21,0.22 -0.43,0.4 -0.7,0.54 -2,1 -4.28,-0.89 -3.45,-3.12 0.33,-0.9 1.19,-1.5 2.16,-1.57zm-3.79 2.76c0.06,1.24 0.83,2.43 1.87,3.07 0.72,0.44 1.46,0.62 2.37,0.58 1.1,-0.06 2.09,-0.68 2.64,-1.3 0.3,-0.34 0.55,-0.72 0.75,-1.22 0.05,-0.14 0.2,-0.62 0.21,-0.76 0.12,-0.9 0.01,-1.66 -0.4,-2.47 -0.45,-0.89 -1.2,-1.5 -2.09,-1.86 -1.02,-0.42 -2.27,-0.32 -3.24,0.19 -0.45,0.24 -0.83,0.55 -1.1,0.86 -0.72,0.84 -1.07,1.75 -1.01,2.92z"/>
   <path class="fil0" d="M3.06 3.49c0.02,0.14 0.37,0.45 0.48,0.57 0.16,0.16 0.34,0.33 0.53,0.53 0.4,0.4 0.72,0.72 1.05,1.06 0.13,0.14 1.47,1.51 1.58,1.57 0.29,0.17 0.61,-0.09 0.56,-0.4 -0.03,-0.16 -0.36,-0.44 -0.49,-0.57l-1.05 -1.05c-0.29,-0.28 -2.02,-2.04 -2.12,-2.09 -0.29,-0.16 -0.6,0.06 -0.54,0.39z"/>
   <path class="fil0" d="M10.41 0.44c-0,1.6 -0.03,3.22 -0.02,4.81 0,0.45 0.51,0.52 0.69,0.24 0.09,-0.14 0.06,-0.32 0.06,-0.52l-0 -3.26c-0,-0.28 0.03,-1.2 -0.02,-1.41 -0.1,-0.4 -0.71,-0.42 -0.71,0.15z"/>
   <path class="fil0" d="M-0 10.65l0 0.22c0.13,0.05 -0.02,0.25 0.53,0.25l4.7 0.01c0.23,0 0.42,-0.09 0.43,-0.36 0,-0.13 -0.04,-0.22 -0.12,-0.29 -0.1,-0.09 -0.16,-0.09 -0.31,-0.09l-4.7 0.01c-0.15,0 -0.24,-0.02 -0.34,0.05 -0.05,0.03 -0.07,0.05 -0.1,0.09 -0.04,0.05 -0.03,0.08 -0.08,0.11z"/>
   <path class="fil0" d="M7.25 14.75c0.1,-0.22 -0.1,-0.44 -0.26,-0.48 -0.25,-0.06 -0.36,0.09 -0.51,0.23 -0.12,0.11 -0.72,0.65 -0.76,0.77 -0.13,0.36 0.25,0.63 0.56,0.42l0.6 -0.54c0.12,-0.12 0.29,-0.23 0.37,-0.39z"/>
   <path class="fil0" d="M10.39 16.67c0.02,0.38 -0.08,0.9 0.29,0.99 0.2,0.05 0.36,-0.08 0.41,-0.2 0.06,-0.16 0.04,-0.39 0.05,-0.58 0,-0.36 0.1,-0.94 -0.27,-1 -0.54,-0.08 -0.49,0.42 -0.47,0.79z"/>
   <path class="fil0" d="M14.26 14.72c0.04,0.16 0.53,0.64 0.67,0.78 0.1,0.11 0.23,0.31 0.48,0.25 0.18,-0.05 0.33,-0.22 0.27,-0.46 -0.03,-0.12 -0.55,-0.67 -0.66,-0.8 -0.04,-0.05 -0.14,-0.15 -0.18,-0.19 -0.24,-0.18 -0.68,0.06 -0.58,0.41z"/>
   <path class="fil0" d="M15.67 6.4c0.04,-0.05 0.04,-0.23 0.01,-0.3 -0.03,-0.07 -0.09,-0.14 -0.17,-0.18 -0.19,-0.11 -0.36,0 -0.51,0.13 -0.14,0.13 -0.65,0.54 -0.71,0.67 -0.14,0.29 0.14,0.62 0.48,0.51 0.09,-0.03 0.28,-0.23 0.39,-0.32l0.36 -0.34c0.17,-0.16 0.07,-0.07 0.16,-0.18z"/>
   <path class="fil0" d="M15.88 10.86c0.09,0.36 0.45,0.27 0.85,0.26 0.18,-0 0.37,0.02 0.5,-0.06 0.12,-0.08 0.18,-0.21 0.15,-0.39 -0.06,-0.35 -0.55,-0.27 -0.86,-0.27 -0.18,-0 -0.39,-0.03 -0.51,0.06 -0.1,0.08 -0.18,0.21 -0.13,0.41z"/>
  </g>
 </g>
</svg>
