<?xml version="1.0" encoding="UTF-8"?>
<!DOCTYPE svg PUBLIC "-//W3C//DTD SVG 1.1//EN" "http://www.w3.org/Graphics/SVG/1.1/DTD/svg11.dtd">
<!-- Creator: CorelDRAW 2021 (64-Bit) -->
<svg xmlns="http://www.w3.org/2000/svg" xml:space="preserve" width="0.324969in" height="0.354331in" version="1.1" style="shape-rendering:geometricPrecision; text-rendering:geometricPrecision; image-rendering:optimizeQuality; fill-rule:evenodd; clip-rule:evenodd"
viewBox="0 0 30.42 33.17"
 xmlns:xlink="http://www.w3.org/1999/xlink"
 xmlns:xodm="http://www.corel.com/coreldraw/odm/2003">
 <defs>
  <style type="text/css">
   <![CDATA[
    .fil0 {fill:#00A0E3;fill-rule:nonzero}
   ]]>
  </style>
 </defs>
 <g id="Layer_x0020_1">
  <metadata id="CorelCorpID_0Corel-Layer"/>
  <path class="fil0" d="M9.74 23.99l-0.34 -0.05c-2.08,-0.29 -3.7,-0.52 -5.94,1.15 -0.64,0.48 -1.54,1.44 -1.9,2.59 -0.23,0.73 -0.24,1.55 0.23,2.35 0.42,0.72 1.2,1.25 2.17,1.52 1.02,0.29 2.23,0.29 3.45,-0.04 0.97,-0.26 1.87,-0.75 2.6,-1.39 0.67,-0.6 1.18,-1.33 1.41,-2.13 0.28,-0.96 0.23,-4.39 0.2,-6.62 -0.01,-0.6 -0.01,-1.13 -0.01,-1.5l0.02 -4.34c0.01,-2.05 0.02,-2.7 1.85,-3.37 1.12,-0.41 5.47,-1.87 8.92,-2.87 2.15,-0.63 3.98,-1.07 4.57,-1l0.29 0.04 0.18 0.24c0.67,0.88 0.6,3.01 0.54,4.61 -0.01,0.36 -0.02,0.68 -0.02,1.03l0 1.69c0.01,1.27 0.01,2.55 -0.01,3.81l-0.02 0.8 -0.78 -0.12c-0.37,-0.05 -0.77,-0.13 -1.14,-0.2 -1.34,-0.24 -2.15,-0.39 -3.9,0.29 -1.08,0.42 -1.91,1.03 -2.5,1.74 -0.49,0.6 -0.81,1.25 -0.95,1.9 -0.13,0.63 -0.09,1.24 0.11,1.78 0.16,0.41 0.41,0.77 0.77,1.07 0.55,0.45 1.2,0.77 1.94,0.93 0.75,0.17 1.61,0.18 2.55,0.03 0.87,-0.14 1.53,-0.38 2.1,-0.71 0.58,-0.34 1.1,-0.79 1.65,-1.33 1.15,-1.12 1.16,-2.16 1.17,-4.15l0 -0.39c0.03,-2.91 0.15,-16.93 -0.02,-18.65 -0.08,-0.78 -0.41,-1.14 -0.88,-1.25 -0.62,-0.15 -1.47,0.02 -2.34,0.29 -1.38,0.43 -2.93,0.9 -4.48,1.37 -1.62,0.49 -3.23,0.98 -5.17,1.59 -0.36,0.11 -0.69,0.21 -1.01,0.3 -1.25,0.36 -2.49,0.72 -3.29,1.39 -1.18,1 -1.18,1.97 -1.18,3.97l0 0.28c-0,2.01 -0.02,4.03 -0.03,6.04 -0.01,2.2 -0.03,4.41 -0.03,6.61l0 0.8 -0.79 -0.11zm-7.12 -0.01c2.53,-1.89 4.32,-1.78 6.51,-1.48 0,-1.94 0.01,-3.88 0.03,-5.81 0.01,-2.01 0.02,-4.02 0.03,-6.03l-0 -0.28c0,-2.44 0,-3.62 1.67,-5.03 1.03,-0.87 2.42,-1.27 3.81,-1.67 0.34,-0.1 0.69,-0.2 0.98,-0.29 1.53,-0.48 3.36,-1.03 5.18,-1.59 1.41,-0.43 2.83,-0.86 4.47,-1.37 1.08,-0.34 2.18,-0.54 3.07,-0.32 1.05,0.25 1.79,0.97 1.95,2.47 0.18,1.78 0.05,15.87 0.03,18.8l-0 0.39c-0.02,2.37 -0.03,3.61 -1.59,5.14 -0.62,0.61 -1.21,1.13 -1.92,1.54 -0.72,0.42 -1.54,0.72 -2.6,0.89 -1.12,0.18 -2.14,0.15 -3.06,-0.05 -0.97,-0.21 -1.82,-0.63 -2.53,-1.22 -0.55,-0.45 -0.94,-1.02 -1.18,-1.64 -0.31,-0.79 -0.37,-1.68 -0.18,-2.57 0.18,-0.87 0.6,-1.74 1.24,-2.51 0.73,-0.88 1.75,-1.64 3.07,-2.15 2.11,-0.82 3.07,-0.64 4.65,-0.36l0.31 0.06c0.01,-0.99 0.01,-1.98 0,-2.97l-0.01 -1.69c0,-0.24 0.01,-0.64 0.03,-1.08 0.04,-1.19 0.09,-2.71 -0.12,-3.43 -0.67,0.09 -2.06,0.46 -3.68,0.93 -3.4,0.99 -7.71,2.43 -8.83,2.84 -0.93,0.34 -0.93,0.76 -0.94,2.06l-0.02 4.34 0.01 1.48c0.03,2.32 0.08,5.87 -0.26,7.03 -0.31,1.07 -0.97,2.03 -1.82,2.79 -0.88,0.79 -1.99,1.38 -3.16,1.7 -1.46,0.4 -2.94,0.39 -4.19,0.03 -1.31,-0.37 -2.39,-1.11 -3,-2.16 -0.69,-1.19 -0.69,-2.39 -0.35,-3.47 0.47,-1.46 1.59,-2.68 2.39,-3.29z"/>
 </g>
</svg>
