<?xml version="1.0" encoding="UTF-8"?>
<!DOCTYPE svg PUBLIC "-//W3C//DTD SVG 1.1//EN" "http://www.w3.org/Graphics/SVG/1.1/DTD/svg11.dtd">
<!-- Creator: CorelDRAW 2021 (64-Bit) -->
<svg xmlns="http://www.w3.org/2000/svg" xml:space="preserve" width="0.357571in" height="0.314965in" version="1.1" style="shape-rendering:geometricPrecision; text-rendering:geometricPrecision; image-rendering:optimizeQuality; fill-rule:evenodd; clip-rule:evenodd"
viewBox="0 0 360.42 317.47"
 xmlns:xlink="http://www.w3.org/1999/xlink"
 xmlns:xodm="http://www.corel.com/coreldraw/odm/2003">
 <defs>
  <style type="text/css">
   <![CDATA[
    .fil0 {fill:#00A0E3}
   ]]>
  </style>
 </defs>
 <g id="Layer_x0020_1">
  <metadata id="CorelCorpID_0Corel-Layer"/>
  <path class="fil0" d="M-0 24.39l0 18.91c7.69,16.5 2.97,25.44 22.83,53.48 10.11,14.27 22.54,28.85 37.97,37.82 26.37,15.33 49.56,0.53 63.24,12.47 11.5,10.05 29.37,27.22 37.56,37.72 -11.46,13.82 -71.12,57.21 -88,69.04 -5.55,3.89 -13.13,9.56 -16.82,13.43 -32.46,33.99 7.49,82.69 51.45,19.68 31.39,-44.99 37.22,-50.43 67.62,-86.66 28.06,26.42 54.56,74.94 77.8,98.76 9.94,10.19 30.08,16.79 42.08,2.75 27.25,-31.89 -40.92,-65.93 -73.78,-92.13l-30.39 -25.67c8.78,-8.62 27.29,-31.42 41.65,-35.55 27.09,-7.78 37.58,-1.74 56.97,-20.34 26.67,-25.59 46.2,-55.48 70.24,-83.93l0 -3.19c-6.64,0.73 -22.32,16.84 -31.14,24.85l-28.5 27.43c-3.22,3.29 -6.29,5.2 -9.84,8.44 -4.38,4 -5.16,7.1 -10.05,3.58 2.08,-6.99 10.64,-13.11 15.99,-18.86l17.46 -18.88c3.24,-3.37 5.5,-6.26 8.41,-9.86 5.56,-6.88 22.84,-20.11 24.08,-30.38 -9.77,1.69 -13.68,9.97 -20.64,15.66l-37.48 35.21c-3.29,3.41 -15.54,14.81 -20.12,15.18 -1.33,-5.39 2.09,-7.84 5.5,-11.65l35.08 -37.59c3.6,-4.47 4.94,-5.01 9.02,-9.08 4.22,-4.21 14.31,-13.75 15.04,-21.36 -7.34,1.33 -22.07,16.6 -31.21,24.88l-38.37 35.85c-4.35,3.96 -5.2,7.08 -9.99,3.59 1.44,-6.02 27.2,-30.9 33.36,-37.77 3.29,-3.67 5.24,-6.27 8.36,-9.92 5.89,-6.89 24.03,-21.37 23.87,-30.3l-2.1 0c-14.91,11.35 -28.22,22.96 -43.23,34.61 -14.96,11.6 -27.94,23.58 -40.68,36.6 -19.97,20.39 -12.94,28.77 -20.46,56.76 -3.39,12.61 -27.82,34.39 -35.58,41.8 -4.87,-2.95 -41.55,-37.55 -43.4,-47.51 -2.54,-13.61 4.17,-22.72 -1.54,-40.93 -11.24,-35.86 -63.62,-71.85 -105.16,-73.51 -26.67,-1.06 -24.14,10.83 -27.08,16.58z"/>
 </g>
</svg>
