<?xml version="1.0" encoding="UTF-8"?>
<!DOCTYPE svg PUBLIC "-//W3C//DTD SVG 1.1//EN" "http://www.w3.org/Graphics/SVG/1.1/DTD/svg11.dtd">
<!-- Creator: CorelDRAW 2021 (64-Bit) -->
<svg xmlns="http://www.w3.org/2000/svg" xml:space="preserve" width="0.354331in" height="0.302571in" version="1.1" style="shape-rendering:geometricPrecision; text-rendering:geometricPrecision; image-rendering:optimizeQuality; fill-rule:evenodd; clip-rule:evenodd"
viewBox="0 0 28.71 24.52"
 xmlns:xlink="http://www.w3.org/1999/xlink"
 xmlns:xodm="http://www.corel.com/coreldraw/odm/2003">
 <defs>
  <style type="text/css">
   <![CDATA[
    .fil0 {fill:#00A0E3}
   ]]>
  </style>
 </defs>
 <g id="Layer_x0020_1">
  <metadata id="CorelCorpID_0Corel-Layer"/>
  <g id="_1807852451936">
   <path class="fil0" d="M28.71 17.88c-2.55,-0.1 -4.34,-0.63 -6.14,-1.73 -3.35,-2.03 -5.69,-5.78 -5.74,-9.9 -0.02,-1.67 0.28,-3.48 0.95,-4.96l0.62 -1.28c-1.75,-0.1 -3.67,0.52 -5.02,1.1 -1.35,0.59 -2.8,1.72 -3.59,2.57 -1,1.07 -1.74,2.19 -2.4,3.75 -0.46,1.08 -1.13,3.88 -0.84,5.23 0.35,0.12 0.62,0.02 1.38,0.31 1.38,0.53 0.81,0.88 1.67,0.49 0.2,-0.09 0.39,-0.15 0.62,-0.21 2.33,-0.6 4.59,0.64 5.45,2.56 0.1,0.23 0.16,0.43 0.24,0.63 0.08,0.18 0.34,0.21 0.52,0.29 1.1,0.51 1.91,1.63 2.05,2.91 0.11,1.04 -0.26,1.96 -0.73,2.59 -0.68,0.92 -1.4,1.03 -1.94,1.33 0.54,0.19 1.91,0.3 2.56,0.29 2.58,-0 4.68,-0.72 6.48,-1.87 1.21,-0.77 2.23,-1.73 3.1,-2.87 0.16,-0.21 0.71,-0.99 0.76,-1.21z"/>
   <path class="fil0" d="M-0 19.27l0 0.75c0.16,0.29 0.07,0.64 0.52,1.37 0.47,0.77 1.33,1.36 2.26,1.5 0.84,0.13 1.02,-0.07 1.68,-0.13 0.15,0.13 0.27,0.29 0.41,0.43 0.95,0.94 2.34,1.17 3.61,0.66 0.22,-0.09 0.32,-0.2 0.53,-0.26 0.14,0.01 1.12,1.25 3.07,0.83 0.56,-0.12 1.03,-0.38 1.36,-0.66 0.28,-0.23 0.75,-0.74 0.88,-1.15 0.5,0.01 0.82,0.08 1.3,-0.08 2.66,-0.89 2.37,-4.35 0.02,-5.05 -0.1,-0.03 -0.17,-0.04 -0.28,-0.06 -0.45,-0.09 -0.19,-0.3 -0.53,-1.07 -0.81,-1.88 -2.97,-2.84 -5.03,-1.88 -0.34,0.16 -0.51,0.34 -0.79,0.47 -0.13,-0.1 -0.2,-0.22 -0.32,-0.33 -1.11,-1.05 -2.89,-1.23 -4.06,-0.43 -0.58,0.39 -1.15,1 -1.37,1.67 -0.06,0.19 -0.07,0.32 -0.17,0.43 -0.11,0.07 -1.18,0.06 -2.1,0.97 -0.89,0.88 -0.86,1.75 -0.98,2.03z"/>
   <path class="fil0" d="M23.7 10.32l0.21 1.11c-0.18,0.22 -0.66,0.62 -0.77,0.82 0.29,0.03 1.03,0.03 1.17,0.22 0.15,0.19 0.31,0.71 0.49,0.87l0.48 -1.01 1.08 -0.17c-0.07,-0.22 -0.7,-0.62 -0.77,-0.77 -0.04,-0.32 0.11,-0.8 0.12,-1.14 -0.15,0.06 -0.86,0.51 -0.97,0.52 -0.13,0.02 -0.83,-0.37 -1.04,-0.45z"/>
   <path class="fil0" d="M1.47 9.02c0.06,0.21 0.44,0.45 0.57,0.67l-0.12 0.86c0.19,-0.07 0.63,-0.34 0.77,-0.36 0.14,-0.02 0.56,0.3 0.82,0.36l-0.13 -0.85c0.18,-0.19 0.5,-0.42 0.62,-0.64 -0.23,-0.03 -0.73,-0.03 -0.88,-0.18 -0.05,-0.05 -0.32,-0.64 -0.37,-0.74 -0.18,0.18 -0.22,0.47 -0.37,0.68 -0.14,0.19 -0.63,0.18 -0.91,0.21z"/>
   <path class="fil0" d="M20.04 7.15c0.03,0.23 0.19,0.6 0.07,0.8 -0.1,0.18 -0.34,0.27 -0.45,0.5 0.22,0.04 0.64,0.01 0.77,0.15 0.13,0.14 0.19,0.49 0.37,0.59l0.3 -0.64c0.19,-0.1 0.54,-0.08 0.72,-0.18 -0.13,-0.25 -0.36,-0.31 -0.46,-0.47 -0.09,-0.15 0.02,-0.56 0.04,-0.79 -0.24,0.07 -0.52,0.3 -0.66,0.32 -0.14,0.01 -0.48,-0.22 -0.71,-0.28z"/>
   <path class="fil0" d="M23.94 5.64c0.1,0.76 -0.03,0.36 -0.23,0.78 0.67,0.11 0.33,0 0.67,0.43 0.1,-0.11 0.12,-0.28 0.2,-0.35 0.12,-0.11 0.24,-0.03 0.42,-0.15 -0.32,-0.44 -0.29,-0.01 -0.24,-0.75 -0.59,0.29 -0.24,0.2 -0.82,0.05z"/>
   <path class="fil0" d="M6.75 2.74l0.07 0.49 -0.28 0.25c0.12,0.1 0.21,0.07 0.43,0.11 0.12,0.2 0.09,0.27 0.26,0.36 0.2,-0.52 0.09,-0.33 0.61,-0.48 -0.36,-0.39 -0.31,-0.12 -0.28,-0.78 -0.57,0.23 -0.19,0.27 -0.82,0.03z"/>
  </g>
 </g>
</svg>
