<?xml version="1.0" encoding="UTF-8"?>
<!DOCTYPE svg PUBLIC "-//W3C//DTD SVG 1.1//EN" "http://www.w3.org/Graphics/SVG/1.1/DTD/svg11.dtd">
<!-- Creator: CorelDRAW 2021 (64-Bit) -->
<svg xmlns="http://www.w3.org/2000/svg" xml:space="preserve" width="0.354335in" height="0.309697in" version="1.1" style="shape-rendering:geometricPrecision; text-rendering:geometricPrecision; image-rendering:optimizeQuality; fill-rule:evenodd; clip-rule:evenodd"
viewBox="0 0 21.11 18.45"
 xmlns:xlink="http://www.w3.org/1999/xlink"
 xmlns:xodm="http://www.corel.com/coreldraw/odm/2003">
 <defs>
  <style type="text/css">
   <![CDATA[
    .fil0 {fill:#00A0E3}
   ]]>
  </style>
 </defs>
 <g id="Layer_x0020_1">
  <metadata id="CorelCorpID_0Corel-Layer"/>
  <g id="_1771749452912">
   <path class="fil0" d="M0.87 13.44c0,-0.26 0.68,-0.78 1,-1.11l1.65 -1.53c0.19,-0.17 0.34,-0.37 0.55,-0.53 0.53,-0.41 1.1,-1.32 1.48,-0.82 0.21,0.27 -0.07,1.88 0.16,2.2 0.17,0.24 0.39,0.17 0.78,0.17l7.53 0c0.9,-0 1.57,0.07 1.99,0.87 0.06,0.11 0.1,0.18 0.13,0.32 0.17,0.7 -0.02,1.21 -0.54,1.68 -0.4,0.36 -0.8,0.36 -1.54,0.36l-7.53 0c-1.06,-0 -0.93,0.02 -0.91,1.95 0,0.47 -0.11,0.58 -0.46,0.58 -0.12,0 -0.96,-0.81 -1.13,-0.98 -0.09,-0.09 -0.16,-0.17 -0.25,-0.25 -0.13,-0.11 -0.17,-0.13 -0.29,-0.25l-1.63 -1.55c-0.11,-0.11 -0.16,-0.13 -0.27,-0.23 -0.2,-0.18 -0.73,-0.66 -0.73,-0.88zm-0.87 0c0,0.76 0.7,1.18 1.33,1.81l2.11 1.98c0.34,0.28 0.48,0.47 0.66,0.62 0.08,0.07 0.1,0.07 0.18,0.15 0.34,0.31 0.44,0.45 1,0.45 0.64,0 1.2,-0.56 1.2,-1.2l0 -1.32 8.19 0c0.72,0 1.37,-0.41 1.73,-0.8 0.94,-1.02 0.85,-2.64 -0.18,-3.52 -0.56,-0.47 -1.08,-0.65 -1.88,-0.65l-7.86 0c0,-0.8 0.14,-1.69 -0.37,-2.16 -0.54,-0.49 -1.26,-0.47 -1.78,0.02l-2.65 2.48c-0.11,0.11 -0.2,0.2 -0.31,0.31 -0.13,0.13 -0.22,0.18 -0.35,0.31l-0.48 0.47c-0.32,0.26 -0.57,0.55 -0.57,1.05z"/>
   <path class="fil0" d="M14.6 1.2l0 1.32 -8.19 0c-1.66,0 -2.93,1.9 -2.17,3.49 0.29,0.6 0.75,1.05 1.36,1.29 0.33,0.13 0.7,0.19 1.14,0.19l5.05 0c0.61,0 0.68,-0.62 0.32,-0.82 -0.38,-0.21 -5.4,0.18 -6.28,-0.22 -1.53,-0.68 -1.12,-3.06 0.75,-3.06l6.29 0.04c0.28,0 0.38,-0.04 0.62,-0.04l1.41 0c0.26,-0 0.4,-0.04 0.5,-0.2 0.33,-0.51 -0.31,-2.33 0.45,-2.33 0.26,0 0.42,0.23 0.65,0.47l2.73 2.56c0.11,0.11 0.16,0.13 0.27,0.23 1.24,1.09 0.72,0.99 -0.27,1.99l-2.75 2.59c-0.11,0.11 -0.18,0.13 -0.29,0.25 -0.38,0.38 -0.7,0.13 -0.72,-0.22 -0.1,-2.32 0.47,-2.11 -1.53,-2.11 -0.36,0 -0.58,0.87 0.21,0.87l0.46 0c0,0.89 -0.14,1.63 0.35,2.13 0.53,0.53 1.24,0.5 1.77,0.03l2.96 -2.79c0.34,-0.34 1.09,-0.93 1.29,-1.31 0.57,-1.09 -0.8,-1.89 -1.54,-2.64 -0.7,-0.7 -1.6,-1.47 -2.27,-2.15 -0.06,-0.06 -0.1,-0.11 -0.17,-0.16 -0.42,-0.35 -0.57,-0.59 -1.19,-0.59 -0.63,0 -1.2,0.57 -1.2,1.2z"/>
  </g>
 </g>
</svg>
