<?xml version="1.0" encoding="UTF-8"?>
<!DOCTYPE svg PUBLIC "-//W3C//DTD SVG 1.1//EN" "http://www.w3.org/Graphics/SVG/1.1/DTD/svg11.dtd">
<!-- Creator: CorelDRAW 2021 (64-Bit) -->
<svg xmlns="http://www.w3.org/2000/svg" xml:space="preserve" width="0.354331in" height="0.315575in" version="1.1" style="shape-rendering:geometricPrecision; text-rendering:geometricPrecision; image-rendering:optimizeQuality; fill-rule:evenodd; clip-rule:evenodd"
viewBox="0 0 16.69 14.86"
 xmlns:xlink="http://www.w3.org/1999/xlink"
 xmlns:xodm="http://www.corel.com/coreldraw/odm/2003">
 <defs>
  <style type="text/css">
   <![CDATA[
    .fil0 {fill:#00A0E3}
   ]]>
  </style>
 </defs>
 <g id="Layer_x0020_1">
  <metadata id="CorelCorpID_0Corel-Layer"/>
  <g id="_1771910793040">
   <path class="fil0" d="M11.51 0.55l0 1.56 -6.91 0c-0.14,0 -0.3,0.11 -0.36,0.19 -0.08,0.11 -0.13,0.24 -0.13,0.43l0 2.48c0,0.38 0.22,0.65 0.59,0.65l6.81 0 0 1.56c0,0.48 0.56,0.69 0.92,0.37l3.94 -3.29c0.07,-0.06 0.09,-0.06 0.15,-0.12 0.1,-0.08 0.15,-0.2 0.17,-0.32l0 -0.14c-0.02,-0.12 -0.08,-0.25 -0.19,-0.35 -0.09,-0.09 -0.18,-0.16 -0.28,-0.24l-2.92 -2.43c-0.2,-0.17 -0.39,-0.32 -0.59,-0.49 -0.14,-0.12 -0.47,-0.42 -0.66,-0.42 -0.31,0 -0.55,0.24 -0.55,0.55z"/>
   <path class="fil0" d="M-0 10.85c0,0.31 0.1,0.37 0.33,0.55 0.06,0.05 0.08,0.07 0.14,0.12 0.21,0.17 0.38,0.32 0.59,0.49 0.64,0.5 1.39,1.19 2.03,1.69l0.89 0.74c0.14,0.12 0.47,0.42 0.66,0.42 0.31,0 0.55,-0.24 0.55,-0.55l0 -1.56 6.91 0c0.17,0 0.29,-0.11 0.37,-0.22 0.09,-0.12 0.12,-0.27 0.12,-0.47l0 -2.41c0,-0.38 -0.22,-0.65 -0.59,-0.65l-6.81 0 0 -1.56c0,-0.43 -0.5,-0.72 -0.92,-0.37l-3.8 3.17c-0.23,0.19 -0.46,0.31 -0.46,0.61z"/>
  </g>
 </g>
</svg>
