<?xml version="1.0" encoding="UTF-8"?>
<!DOCTYPE svg PUBLIC "-//W3C//DTD SVG 1.1//EN" "http://www.w3.org/Graphics/SVG/1.1/DTD/svg11.dtd">
<!-- Creator: CorelDRAW 2021 (64-Bit) -->
<svg xmlns="http://www.w3.org/2000/svg" xml:space="preserve" width="0.358697in" height="0.249618in" version="1.1" style="shape-rendering:geometricPrecision; text-rendering:geometricPrecision; image-rendering:optimizeQuality; fill-rule:evenodd; clip-rule:evenodd"
viewBox="0 0 9.31 6.48"
 xmlns:xlink="http://www.w3.org/1999/xlink"
 xmlns:xodm="http://www.corel.com/coreldraw/odm/2003">
 <defs>
  <style type="text/css">
   <![CDATA[
    .fil0 {fill:#00A0E3}
    .fil1 {fill:#00A0E3;fill-rule:nonzero}
   ]]>
  </style>
 </defs>
 <g id="Layer_x0020_1">
  <metadata id="CorelCorpID_0Corel-Layer"/>
  <g id="_1771975558624">
   <polygon class="fil0" points="-0,6.48 0.4,6.48 0.4,2.87 -0,2.87 "/>
   <polygon class="fil0" points="8.91,6.48 9.31,6.48 9.31,2.87 8.91,2.87 "/>
   <path class="fil0" d="M8.76 5.55l0 0.34 -8.21 0 0 -0.9 3.09 0c0.01,0.04 0.03,0.07 0.06,0.1 0.1,0.11 0.27,0.16 0.52,0.16 0.06,0 0.1,-0 0.12,-0.01 0.16,-0.01 0.31,-0.04 0.45,-0.08 0.16,-0.04 0.3,-0.07 0.46,-0.07l0.03 -0c0.16,0 0.3,0.08 0.46,0.16 0.09,0.05 0.17,0.09 0.27,0.14 0.2,0.08 0.51,0.18 0.82,0.18 0.16,0 0.3,-0.02 0.43,-0.07 0.2,-0.06 0.38,-0.09 0.57,-0.09 0.08,0 0.16,0.01 0.24,0.02 0.07,0.01 0.14,0.04 0.22,0.07 0.1,0.04 0.21,0.09 0.33,0.09 0.05,0 0.09,-0.01 0.13,-0.02l0.02 -0.01z"/>
   <path class="fil0" d="M3.72 4.42l0 0 -0 0.02c-0,0.06 -0.01,0.11 -0.03,0.16 -0.01,0.04 -0.02,0.07 -0.04,0.11 -0.02,0.04 -0.03,0.09 -0.03,0.13l0 0.01 -3.07 0 0 -0.43 0.12 0c-0.04,-0.03 -0.08,-0.07 -0.1,-0.09l-0.02 -0.02 0 -0.49 0.02 -0.01c0.08,-0.06 0.14,-0.11 0.24,-0.16 0.08,-0.03 0.18,-0.05 0.28,-0.05 0.03,0.04 0.05,0.09 0.06,0.14 0,0.02 0,0.05 0.01,0.07 0.01,0.03 0.04,0.07 0.06,0.09 0.04,0.04 0.11,0.08 0.16,0.11 0.05,0.03 0.11,0.04 0.17,0.03 0.11,-0.01 0.19,0.03 0.29,0.05 0.03,0 0.05,-0 0.07,-0.01 0.02,-0 0.04,-0.01 0.07,-0.01 0.04,0 0.07,0.01 0.1,0.02 0.04,-0.01 0.08,-0.02 0.12,-0.04l0.01 -0.01 0 -0 0 -0 0 0 0 -0 -0 0 -0.01 0c-0.04,0 -0.07,0 -0.11,-0.01 -0.02,-0 -0.03,-0 -0.05,-0.01 -0.02,-0 -0.03,-0 -0.05,-0l-0.03 0 -0.03 -0 -0.01 0 -0.02 -0c-0.02,-0 -0.03,-0.01 -0.05,-0.01l-0.02 -0.01c-0.02,-0 -0.03,-0.01 -0.05,-0.01l-0 0 -0.02 -0.01c-0.02,-0 -0.03,-0.01 -0.05,-0.01l-0.02 0c-0.05,0 -0.1,-0 -0.16,-0l-0.03 -0c-0.02,-0.01 -0.05,-0.02 -0.07,-0.03 -0.01,-0.01 -0.03,-0.02 -0.04,-0.03 -0.01,-0.01 -0.03,-0.02 -0.04,-0.03l-0.02 -0.02c-0.02,-0.02 -0.05,-0.03 -0.06,-0.05 -0.02,-0.02 -0.01,-0.03 -0.01,-0.05 0,-0.01 0,-0.02 0,-0.03l-0.01 -0.02 -0.01 -0.02 -0.02 -0.03 -0.01 -0.03 -0.01 -0.02c-0,-0.01 0,-0.03 0.01,-0.04 0.01,-0.01 0.03,-0.01 0.04,-0.03l-0.01 -0.05c0,-0.03 0.02,-0.05 0.03,-0.08 0.04,-0.12 0.16,-0.21 0.28,-0.21 0.11,-0 0.23,0.01 0.34,0.05 0.05,0.02 0.09,0.04 0.14,0.06l0.03 0.01c0.04,0.02 0.08,0.06 0.12,0.07 0.02,0.01 0.05,0.02 0.07,0.04 -0.02,-0.09 0.08,-0.16 0.1,-0.23 0.02,-0.07 0.02,-0.16 0.07,-0.21 0.05,-0.05 0.14,-0.08 0.21,-0.09 0.08,-0.02 0.16,-0.03 0.24,-0.01 0.11,0.02 0.22,0.04 0.32,0.06l-0 0.02c-0.02,0.14 0.08,0.29 0.16,0.4 0.02,0.03 0.03,0.05 0.04,0.07 0.01,0.02 0.02,0.03 0.02,0.05 0.03,0.07 0.06,0.15 0.09,0.24 0.02,0.07 0.04,0.13 0.07,0.2 0.07,0.18 0.1,0.34 0.1,0.48l-0 0.02z"/>
   <path class="fil0" d="M8.76 3.98l0 1.33c-0.02,0.04 -0.04,0.07 -0.06,0.11 -0.03,0.01 -0.06,0.01 -0.09,0.01 -0.17,0 -0.34,-0.13 -0.53,-0.15 -0.31,-0.04 -0.58,-0.01 -0.87,0.09 -0.36,0.13 -0.79,0.04 -1.14,-0.1 -0.29,-0.12 -0.51,-0.33 -0.83,-0.31 -0.31,0.01 -0.6,0.13 -0.91,0.15 -0.09,0.01 -0.58,0.03 -0.56,-0.24 0,-0.03 0.01,-0.05 0.02,-0.09 0.02,-0.04 0.04,-0.09 0.05,-0.13 0.02,-0.07 0.03,-0.14 0.03,-0.22l0 -0c0.01,-0.18 -0.04,-0.38 -0.11,-0.56 -0.06,-0.14 -0.09,-0.3 -0.16,-0.44 -0.01,-0.02 -0.02,-0.04 -0.03,-0.06 -0.04,-0.08 -0.2,-0.27 -0.18,-0.39 0,-0.02 0.01,-0.05 0.03,-0.06l0 0 0.02 -0.02 0 -0c0.11,-0.06 0.21,0 0.32,0.03 0.14,0.04 0.26,0.04 0.41,0.04 0.28,0 0.56,0.01 0.85,-0.04 0.29,-0.05 2.87,0.37 3.47,0.52 0.16,0.16 0.23,0.34 0.27,0.53z"/>
   <polygon class="fil1" points="2.23,4.04 2.23,4.04 2.23,4.04 "/>
   <path class="fil1" d="M6.46 1.08c-0.14,0.09 -0.31,0.12 -0.47,0.13 -0.49,0 -0.98,0.02 -1.46,0.1 -0.29,0.05 -0.57,0.09 -0.86,0.07 -0.13,-0.01 -0.14,-0.08 -0.04,-0.15 0.54,-0.37 1.19,-0.56 1.71,-0.96 -0.51,-0.01 -1.01,0 -1.52,0 -0.13,0 -0.14,-0.08 -0.04,-0.14 0.14,-0.09 0.31,-0.12 0.47,-0.13 0.58,-0 1.15,-0.02 1.73,0 0.07,0 0.17,0.04 0.08,0.11 -0.5,0.44 -1.13,0.66 -1.69,0.99 0.32,-0.02 0.63,-0.1 0.95,-0.12 0.37,-0.03 0.73,-0.04 1.1,-0.04 0.13,-0 0.14,0.08 0.04,0.15z"/>
   <path class="fil1" d="M3.11 1.34c-0.33,0.33 -0.76,0.52 -1.15,0.75 0.33,0.03 0.67,0.01 1,0.01 0.11,0 0.12,0.07 0.03,0.12 -0.12,0.07 -0.27,0.11 -0.41,0.11 -0.42,0 -0.83,0.02 -1.25,-0.03 -0.1,-0.01 -0.02,-0.09 0.02,-0.12 0.38,-0.25 0.82,-0.42 1.16,-0.73 -0.32,-0.06 -0.65,-0.01 -0.98,0 -0.11,0 -0.12,-0.07 -0.03,-0.12 0.12,-0.07 0.27,-0.11 0.41,-0.11 0.39,-0.01 0.79,-0.06 1.17,0.03 0.06,0.01 0.06,0.05 0.02,0.09z"/>
  </g>
 </g>
</svg>
