<?xml version="1.0" encoding="UTF-8"?>
<!DOCTYPE svg PUBLIC "-//W3C//DTD SVG 1.1//EN" "http://www.w3.org/Graphics/SVG/1.1/DTD/svg11.dtd">
<!-- Creator: CorelDRAW 2021 (64-Bit) -->
<svg xmlns="http://www.w3.org/2000/svg" xml:space="preserve" width="0.246134in" height="0.354323in" version="1.1" style="shape-rendering:geometricPrecision; text-rendering:geometricPrecision; image-rendering:optimizeQuality; fill-rule:evenodd; clip-rule:evenodd"
viewBox="0 0 45.5 65.5"
 xmlns:xlink="http://www.w3.org/1999/xlink"
 xmlns:xodm="http://www.corel.com/coreldraw/odm/2003">
 <defs>
  <style type="text/css">
   <![CDATA[
    .fil0 {fill:#00A0E3}
   ]]>
  </style>
 </defs>
 <g id="Layer_x0020_1">
  <metadata id="CorelCorpID_0Corel-Layer"/>
  <g id="_1771980333792">
   <path class="fil0" d="M32.43 62.82l-19.38 0.03c0.36,-1.85 1.55,-3.25 2.99,-3.97 1.97,-0.98 11.43,-0.94 13.24,-0.06 1.53,0.74 2.69,2.02 3.15,4zm-12.85 -17.53c2.45,0.27 3.98,0.04 6.28,0.08l0 10.24 -5.4 0.06 -0.87 -0.01 -0 -10.37zm-17.02 -21.95c0,-11.87 8.9,-20.71 20.08,-20.77 11.32,-0.06 20.11,8.92 20.3,20.34 0.18,10.87 -9.15,19.87 -19.86,20.07 -10.9,0.2 -20.52,-8.85 -20.52,-19.64zm32.55 40.82c0.29,-4.04 -3.25,-7.76 -6.68,-8.25l0.03 -11.17c5.23,-1.08 10.24,-5.16 12.49,-8.32 11.91,-16.76 -1.59,-35.97 -16.38,-36.26 -11,-1.4 -22.37,7.13 -24.26,18.96 -1.49,9.34 2.66,17.57 9.62,22.41 3.41,2.38 3.78,1.97 6.35,3.02 1.2,0.49 0.42,-0.09 0.8,0.62l-0.01 10.72c-5.09,0.76 -7.66,7.05 -6.45,8.89 0.58,0.88 1.31,0.64 2.63,0.63 4.11,-0.03 20.04,0.37 21.61,-0.36l0.25 -0.9z"/>
   <path class="fil0" d="M25.46 27.23c1.55,-0.65 2.47,-2.63 2.25,-5.15 2.91,-0.51 7.93,0.88 9.2,2.7 3.82,5.47 -5.8,14.72 -9.78,12.18 -2.57,-1.64 1.21,-4.36 -1.67,-9.73zm-5.88 -8.26c-1.49,-1.72 -3.06,-7.22 -1.54,-9.61 3.74,-5.87 17.5,-0.22 14.82,4.33 -1.11,1.88 -5.93,1.28 -7.33,4.95 -3.47,-0.75 -2.7,-1.08 -5.95,0.33zm3.01 10.7c-0.48,-0.5 -0.37,-0.2 -1.3,-0.46l-0.54 -0.19c-0.92,1.83 -3.88,5.49 -6.19,5.74 -4.03,0.44 -8.23,-5.08 -7.84,-10.54 0.11,-1.62 0.71,-3.58 2.1,-4 1.77,-0.53 3.06,1.25 3.93,1.89 1.31,0.97 2.84,1.29 4.89,1.29 0.72,2.55 1.07,3.31 3.26,4.37l0.99 -2.33c-0.98,-0.57 -1.79,-1.13 -1.62,-2.71 0.13,-1.23 1.09,-2.13 2.39,-2.17 2.81,-0.08 3.65,3.72 0.92,4.86 0.75,0.4 1.16,0.78 0.82,2.72 -0.24,1.39 0.29,-0.15 -0.16,0.5 0.03,0.86 0.6,1.7 0.62,2.79 0.02,1.07 -2.11,6.45 2.45,7.56 4.36,1.06 8.35,-2.89 9.74,-4.72 2.1,-2.77 3.61,-7.28 1.17,-10.76 -2.55,-3.63 -10.47,-3.14 -11.31,-3.32 -0.2,-1.28 1.99,-2.87 4.07,-3.33 7.27,-1.61 3.73,-9.89 -4.1,-11.48 -4.64,-0.94 -9.5,0.48 -10.85,3.94 -1.05,2.68 0.12,7.15 1.41,9.64 0.7,1.35 0.94,1.11 0.5,2.67 -3.3,0.14 -3.8,-0.71 -5.44,-2.1 -1.44,-1.23 -3.76,-1.54 -5.44,-0.4 -5.16,3.51 -0.6,18.59 7.83,17.41 4.18,-0.58 7.4,-6.72 7.71,-6.85z"/>
   <path class="fil0" d="M20.89 27.76l0.35 0.37 -0.48 0.89 0.54 0.19c0.93,0.25 0.82,-0.05 1.3,0.46l0.63 -1.58 1.01 0.54c0.45,-0.65 -0.08,0.89 0.16,-0.5 0.33,-1.94 -0.07,-2.32 -0.82,-2.72l-1.69 0.02 -0.99 2.33z"/>
   <polygon class="fil0" points="23.5,49.37 23.49,47.78 21.92,47.8 21.92,49.37 "/>
   <polygon class="fil0" points="21.9,52.64 23.56,52.66 23.57,51.15 21.95,51.14 "/>
  </g>
 </g>
</svg>
