<?xml version="1.0" encoding="UTF-8"?>
<!DOCTYPE svg PUBLIC "-//W3C//DTD SVG 1.1//EN" "http://www.w3.org/Graphics/SVG/1.1/DTD/svg11.dtd">
<!-- Creator: CorelDRAW 2021 (64-Bit) -->
<svg xmlns="http://www.w3.org/2000/svg" xml:space="preserve" width="0.391752in" height="0.354335in" version="1.1" style="shape-rendering:geometricPrecision; text-rendering:geometricPrecision; image-rendering:optimizeQuality; fill-rule:evenodd; clip-rule:evenodd"
viewBox="0 0 22.95 20.75"
 xmlns:xlink="http://www.w3.org/1999/xlink"
 xmlns:xodm="http://www.corel.com/coreldraw/odm/2003">
 <defs>
  <style type="text/css">
   <![CDATA[
    .fil0 {fill:#00A0E3}
   ]]>
  </style>
 </defs>
 <g id="Layer_x0020_1">
  <metadata id="CorelCorpID_0Corel-Layer"/>
  <g id="_1808358557648">
   <path class="fil0" d="M6.94 1.35c-0.42,-1.79 8.93,-1.77 8.6,-0.1l-1.36 6.8c-2.03,-1.31 -3.9,-1.15 -5.66,0l-1.58 -6.7z"/>
   <path class="fil0" d="M11.42 8.98c1.45,0 2.63,1.18 2.63,2.63 0,1.45 -1.18,2.63 -2.63,2.63 -1.45,0 -2.63,-1.18 -2.63,-2.63 0,-1.45 1.18,-2.63 2.63,-2.63z"/>
   <path class="fil0" d="M22.56 12.87c1.76,0.53 -2.93,8.62 -4.21,7.5l-5.21 -4.58c2.15,-1.11 2.95,-2.8 2.83,-4.9l6.59 1.98z"/>
   <path class="fil0" d="M4.72 20.62c-1.33,1.26 -6,-6.85 -4.39,-7.39l6.57 -2.23c-0.12,2.42 0.95,3.95 2.83,4.9l-5.01 4.72z"/>
  </g>
 </g>
</svg>
