<?xml version="1.0" encoding="UTF-8"?>
<!DOCTYPE svg PUBLIC "-//W3C//DTD SVG 1.1//EN" "http://www.w3.org/Graphics/SVG/1.1/DTD/svg11.dtd">
<!-- Creator: CorelDRAW 2021 (64-Bit) -->
<svg xmlns="http://www.w3.org/2000/svg" xml:space="preserve" width="0.393638in" height="0.354331in" version="1.1" style="shape-rendering:geometricPrecision; text-rendering:geometricPrecision; image-rendering:optimizeQuality; fill-rule:evenodd; clip-rule:evenodd"
viewBox="0 0 30.29 27.27"
 xmlns:xlink="http://www.w3.org/1999/xlink"
 xmlns:xodm="http://www.corel.com/coreldraw/odm/2003">
 <defs>
  <style type="text/css">
   <![CDATA[
    .fil0 {fill:#00A0E3}
   ]]>
  </style>
 </defs>
 <g id="Layer_x0020_1">
  <metadata id="CorelCorpID_0Corel-Layer"/>
  <g id="_1808354893280">
   <path class="fil0" d="M9.76 3.86c0,2.01 0.44,6.12 1.14,7.44 0.28,-0.07 0.19,-0.1 0.4,-0.28 1.66,-1.44 4.38,-1.67 6.37,-0.8l1.28 0.77c0.22,0.18 0.17,0.17 0.44,0.31 0.55,-1.03 1.73,-7.16 0.78,-9.36 -0.21,-0.5 -0.65,-0.99 -1.11,-1.24 -1.32,-0.72 -2.17,-0.56 -3.39,-0.63 -0.32,-0.02 -0.27,-0.07 -0.53,-0.07l-2.13 0.14c-1.21,0.13 -2.37,0.63 -2.88,1.74 -0.23,0.49 -0.38,1.25 -0.38,1.97z"/>
   <path class="fil0" d="M13.25 21.85c-0.67,-0.32 -0.82,-0.24 -1.67,-0.83 -2.04,-1.44 -3.09,-3.92 -2.5,-6.45 -0.98,0 -3.03,0.83 -3.85,1.16 -0.31,0.12 -0.57,0.23 -0.85,0.36 -1.81,0.81 -4.7,2.03 -4.34,4.49 0.19,1.27 0.96,2.63 1.52,3.57 1.43,2.39 2.88,4.27 6.14,2.31 0.28,-0.17 0.48,-0.28 0.75,-0.46 1.18,-0.78 1.84,-1.34 2.9,-2.18 0.42,-0.33 1.79,-1.53 1.91,-1.96z"/>
   <path class="fil0" d="M21.37 15.7c0,2.22 -0.92,4.17 -2.61,5.28 -0.46,0.3 -1.14,0.73 -1.72,0.86 0.18,0.66 1.84,1.87 2.45,2.41 0.56,0.5 2.24,1.64 2.88,2.05 3.12,2.02 4.83,0.61 6.46,-2.31 2.29,-4.11 2.22,-5.6 -2.6,-7.77 -0.97,-0.44 -3.78,-1.67 -5.01,-1.67 0.08,0.36 0.15,0.69 0.15,1.14z"/>
   <path class="fil0" d="M9.76 15.62c0,2.31 1.1,4.35 3.14,5.21 2.12,0.89 4.39,0.55 6.02,-1.05 2.62,-2.56 1.98,-7.01 -1.37,-8.69 -1.49,-0.74 -3.27,-0.77 -4.76,-0.03 -1.12,0.56 -1.95,1.37 -2.51,2.5 -0.24,0.49 -0.53,1.32 -0.53,2.05z"/>
  </g>
 </g>
</svg>
