<?xml version="1.0" encoding="UTF-8"?>
<!DOCTYPE svg PUBLIC "-//W3C//DTD SVG 1.1//EN" "http://www.w3.org/Graphics/SVG/1.1/DTD/svg11.dtd">
<!-- Creator: CorelDRAW 2021 (64-Bit) -->
<svg xmlns="http://www.w3.org/2000/svg" xml:space="preserve" width="0.38848in" height="0.354335in" version="1.1" style="shape-rendering:geometricPrecision; text-rendering:geometricPrecision; image-rendering:optimizeQuality; fill-rule:evenodd; clip-rule:evenodd"
viewBox="0 0 42.69 38.94"
 xmlns:xlink="http://www.w3.org/1999/xlink"
 xmlns:xodm="http://www.corel.com/coreldraw/odm/2003">
 <defs>
  <style type="text/css">
   <![CDATA[
    .fil0 {fill:#00A0E3}
   ]]>
  </style>
 </defs>
 <g id="Layer_x0020_1">
  <metadata id="CorelCorpID_0Corel-Layer"/>
  <g id="_1771763967376">
   <path class="fil0" d="M30.55 23.28c0,2.65 -0.6,4.42 -2.04,6.2 -0.92,1.14 -2.37,2.21 -3.75,2.76 -0.29,0.12 -0.47,0.14 -0.71,0.26 0.38,1.65 3.48,4.13 5.2,4.99 1.29,0.64 2.3,1.05 3.79,1.3 0.67,0.12 2.27,0.18 3.13,0.09 4.38,-0.44 7.53,-4.24 6.21,-8.68 -0.28,-0.95 -0.59,-1.63 -1.03,-2.44 -0.75,-1.41 -1.98,-2.63 -3.25,-3.58 -0.67,-0.5 -1.38,-0.97 -2.14,-1.33 -1.9,-0.93 -3.46,-1.3 -5.64,-1.3 0.05,0.62 0.22,0.97 0.22,1.74z"/>
   <path class="fil0" d="M13.31 9.95c0,3.12 0.33,4.5 1.63,6.94 0.36,-0.1 0.64,-0.49 1.26,-0.91 0.82,-0.56 2.11,-1.09 3.13,-1.32 5.06,-1.13 7.89,2.09 8.41,2.23 1.29,-2.44 1.63,-3.84 1.63,-6.94 0,-2.5 -1.15,-5.33 -2.26,-6.74 -5.7,-7.25 -13.79,-0.98 -13.79,6.74z"/>
   <path class="fil0" d="M18.62 32.5c-0.87,-0.42 -1.09,-0.29 -2.47,-1.21 -0.77,-0.51 -1.42,-1.1 -1.99,-1.81 -1.44,-1.78 -2.04,-3.55 -2.04,-6.2 0,-0.76 0.17,-1.11 0.22,-1.74 -2.98,0 -5.29,0.83 -7.65,2.54 -0.39,0.28 -0.6,0.49 -0.96,0.78 -0.36,0.29 -0.61,0.49 -0.9,0.84 -1.06,1.27 -1.97,2.53 -2.49,4.34 -1.15,3.97 0.79,7.26 4.56,8.49 0.88,0.29 2,0.43 2.95,0.39 3.66,-0.14 7.05,-1.68 9.4,-4.34 0.37,-0.42 1.26,-1.54 1.38,-2.09z"/>
   <path class="fil0" d="M13.31 23.39c0,8.39 10.09,11.12 14.53,4.99 0.29,-0.4 0.48,-0.73 0.72,-1.23 3.15,-6.32 -3.24,-13.88 -10.44,-10.87 -2.61,1.09 -4.82,3.95 -4.82,7.11z"/>
  </g>
 </g>
</svg>
