<?xml version="1.0" encoding="UTF-8"?>
<!DOCTYPE svg PUBLIC "-//W3C//DTD SVG 1.1//EN" "http://www.w3.org/Graphics/SVG/1.1/DTD/svg11.dtd">
<!-- Creator: CorelDRAW 2021 (64-Bit) -->
<svg xmlns="http://www.w3.org/2000/svg" xml:space="preserve" width="0.354323in" height="0.354331in" version="1.1" style="shape-rendering:geometricPrecision; text-rendering:geometricPrecision; image-rendering:optimizeQuality; fill-rule:evenodd; clip-rule:evenodd"
viewBox="0 0 11.04 11.04"
 xmlns:xlink="http://www.w3.org/1999/xlink"
 xmlns:xodm="http://www.corel.com/coreldraw/odm/2003">
 <defs>
  <style type="text/css">
   <![CDATA[
    .fil0 {fill:#00A0E3}
   ]]>
  </style>
 </defs>
 <g id="Layer_x0020_1">
  <metadata id="CorelCorpID_0Corel-Layer"/>
  <path class="fil0" d="M6.42 7.14c0.06,-0.09 0.34,-0.33 0.37,-0.65 0.4,0.01 2.56,0.83 3.08,1.11l0.23 0.16c0.02,0.03 0.02,0.03 0.05,0.06 0.02,0.03 0.03,0.03 0.05,0.06 0.32,0.39 0.23,1.05 -0.22,1.36 -0.09,0.06 -0.16,0.09 -0.28,0.13 -0.13,0.04 -0.2,0.05 -0.32,0.03 -0.39,-0.04 -0.49,-0.14 -0.82,-0.39l-1.31 -1.08c-0.08,-0.06 -0.13,-0.12 -0.2,-0.19 -0.05,-0.05 -0.06,-0.05 -0.11,-0.09l-0.51 -0.52zm-6.42 1.4l0 -0.19c0.02,-0.26 0.1,-0.53 0.25,-0.76 0.1,-0.16 0.32,-0.44 0.5,-0.49 0,-0.14 -0.03,-0.23 -0.04,-0.35 -0.03,-0.24 -0.03,-0.5 -0.03,-0.75 0,-0.74 0.22,-1.44 0.54,-2.05 0.1,-0.19 0.21,-0.36 0.33,-0.53 0.06,-0.09 0.12,-0.16 0.18,-0.25 0.18,-0.25 0.42,-0.45 0.64,-0.66 0.08,-0.07 0.15,-0.13 0.24,-0.19 0.07,-0.05 0.18,-0.14 0.25,-0.18 0.22,-0.11 0.47,0.05 0.47,0.3 0,0.19 -0.21,0.31 -0.33,0.4 -0.07,0.05 -0.14,0.11 -0.2,0.16 -0.07,0.06 -0.11,0.09 -0.18,0.16 -0.31,0.31 -0.55,0.65 -0.78,1.03 -0.24,0.41 -0.37,0.86 -0.45,1.34 -0.11,0.63 -0.01,0.75 -0.01,1.24 0.21,-0.05 0.4,-0.19 0.6,-0.24 0,-0.35 -0,-0.65 0.06,-1 0.09,-0.53 0.33,-1.05 0.64,-1.47 0.13,-0.18 0.32,-0.48 0.57,-0.48 0.21,0 0.5,0.28 0.17,0.62l-0.19 0.22c-0.4,0.54 -0.61,1.08 -0.61,1.85 0.1,-0.01 0.32,-0.1 0.41,-0.13 0.26,-0.09 1,-0.33 1.27,-0.35 0.02,-0.19 0.26,-0.47 0.26,-0.47 0,-0.11 -0.08,-0.33 -0.11,-0.43 -0.22,-0.71 -0.34,-1.48 -0.44,-2.21 -0.05,-0.37 -0.1,-0.77 -0.1,-1.16 0,-0.82 0.74,-1.53 1.55,-1.53 0.45,0 0.79,0.13 1.12,0.39 0.18,0.14 0.33,0.34 0.42,0.55 0.08,0.18 0.14,0.38 0.14,0.63 0.19,0.05 0.37,0.15 0.55,0.23 0.38,0.16 0.91,0.55 1.2,0.84 0.49,0.5 0.85,1.04 1.14,1.69 0.13,0.29 0.43,1.37 0.3,1.64 -0.11,0.23 -0.44,0.25 -0.57,0.03 -0.07,-0.11 -0.08,-0.95 -0.46,-1.7 -0.14,-0.27 -0.3,-0.54 -0.49,-0.78l-0.3 -0.35c-0.37,-0.34 -0.95,-0.81 -1.41,-0.92 -0.02,0.1 -0.03,0.21 -0.05,0.32 -0.01,0.08 -0.04,0.23 -0.04,0.33 0.51,0.27 0.84,0.5 1.23,0.94 0.27,0.3 0.73,1.1 0.73,1.45 0,0.17 -0.16,0.32 -0.34,0.32 -0.3,0 -0.32,-0.34 -0.4,-0.55 -0.1,-0.22 -0.2,-0.43 -0.34,-0.61 -0.04,-0.05 -0.06,-0.09 -0.1,-0.14 -0.19,-0.24 -0.64,-0.67 -0.91,-0.73 0,0.12 -0.06,0.35 -0.08,0.46 -0.04,0.15 -0.06,0.29 -0.1,0.44l-0.23 0.83c0.12,0.08 0.24,0.31 0.28,0.47 0.24,0.06 0.46,0.11 0.69,0.18 0.11,0.03 0.22,0.06 0.33,0.1 0.12,0.04 0.21,0.07 0.32,0.11 0.43,0.14 0.85,0.29 1.24,0.46 0.59,0.26 1.2,0.46 1.51,1.08 0.31,0.62 0.19,1.41 -0.31,1.89 -0.4,0.39 -1.05,0.57 -1.59,0.4 -0.1,-0.03 -0.22,-0.06 -0.3,-0.13 -0.11,0.07 -0.2,0.16 -0.3,0.24 -1.4,1.01 -3.19,1.2 -4.8,0.53 -0.15,-0.06 -0.38,-0.14 -0.38,-0.34 0,-0.14 0.03,-0.27 0.16,-0.34 0.2,-0.11 0.39,0.03 0.57,0.11 0.49,0.21 1.04,0.32 1.58,0.32 0.85,0 1.65,-0.26 2.34,-0.72 0.06,-0.04 0.22,-0.14 0.25,-0.19 -0.14,-0.09 -0.38,-0.35 -0.54,-0.39l-0.4 0.24c-0.08,0.04 -0.13,0.07 -0.22,0.11 -0.08,0.04 -0.15,0.06 -0.23,0.09 -0.26,0.1 -0.74,0.2 -1.09,0.2 -0.27,0 -0.91,-0.02 -1.11,-0.16 -0.22,-0.15 -0.17,-0.6 0.14,-0.6 0.15,0 0.29,0.04 0.43,0.06 0.4,0.07 0.92,0.03 1.29,-0.09 0.14,-0.05 0.23,-0.08 0.36,-0.14 0.11,-0.05 0.2,-0.13 0.32,-0.16 -0.04,-0.13 -0.2,-0.21 -0.3,-0.31 -0.06,-0.07 -0.09,-0.09 -0.16,-0.14 -0.18,-0.15 -0.62,-0.6 -0.73,-0.76 -0.11,0 -0.12,0.02 -0.24,0.02 -0.34,0 -0.3,-0.1 -0.53,0.16 -0.04,0.05 -0.05,0.06 -0.09,0.11 -0.23,0.26 -0.75,0.7 -1.05,0.96l-0.21 0.18c-0.52,0.41 -1.33,1.19 -2.01,1.19 -0.4,0 -0.74,-0.08 -1.04,-0.29 -0.41,-0.29 -0.65,-0.76 -0.68,-1.24zm4.27 -2.04c0.06,0.12 0.07,0.22 0.15,0.35 0.07,0.12 0.15,0.19 0.22,0.3 -0.05,0.08 -0.12,0.12 -0.18,0.2l-1.71 1.48c-0.28,0.23 -0.66,0.55 -1.02,0.58 -0.16,0.01 -0.2,0.02 -0.35,-0.02 -0.12,-0.03 -0.19,-0.07 -0.28,-0.13 -0.05,-0.03 -0.18,-0.15 -0.22,-0.19 -0.07,-0.1 -0.09,-0.13 -0.14,-0.25 -0.12,-0.28 -0.09,-0.68 0.11,-0.93 0.23,-0.31 0.67,-0.46 1.02,-0.6 0.59,-0.24 1.46,-0.57 2.08,-0.72 0.1,-0.03 0.24,-0.07 0.33,-0.08zm0.63 -0.3c0,-0.31 0.27,-0.64 0.65,-0.64 0.84,0 0.84,1.28 0,1.28 -0.17,0 -0.36,-0.09 -0.45,-0.19 -0.1,-0.1 -0.19,-0.31 -0.19,-0.45zm1.03 -1.25c-0.11,-0 -0.18,-0.04 -0.5,-0.04 -0.13,0 -0.16,0.04 -0.28,0.04l-0.28 -1.17c-0.08,-0.42 -0.14,-0.81 -0.2,-1.26 -0.06,-0.4 -0.16,-0.94 -0.01,-1.28 0.42,-0.93 1.76,-0.63 1.83,0.28 0.01,0.13 0,0.17 -0,0.32 -0,0.48 -0.3,1.97 -0.42,2.52l-0.15 0.59z"/>
 </g>
</svg>
