<?xml version="1.0" encoding="UTF-8"?>
<!DOCTYPE svg PUBLIC "-//W3C//DTD SVG 1.1//EN" "http://www.w3.org/Graphics/SVG/1.1/DTD/svg11.dtd">
<!-- Creator: CorelDRAW 2021 (64-Bit) -->
<svg xmlns="http://www.w3.org/2000/svg" xml:space="preserve" width="0.402705in" height="0.354331in" version="1.1" style="shape-rendering:geometricPrecision; text-rendering:geometricPrecision; image-rendering:optimizeQuality; fill-rule:evenodd; clip-rule:evenodd"
viewBox="0 0 405.56 356.84"
 xmlns:xlink="http://www.w3.org/1999/xlink"
 xmlns:xodm="http://www.corel.com/coreldraw/odm/2003">
 <defs>
  <style type="text/css">
   <![CDATA[
    .fil0 {fill:#00A0E3}
   ]]>
  </style>
 </defs>
 <g id="Layer_x0020_1">
  <metadata id="CorelCorpID_0Corel-Layer"/>
  <g id="_1808352209184">
   <path class="fil0" d="M187.95 181.71c-6.68,1.56 -6.58,5.14 -6.58,13.16 -2.36,-0.63 -7.61,-4.75 -10.53,-6.73 -16.49,-11.17 -35.45,-25.67 -51.63,-36.35l-20.76 -14.6c-15.4,-11.39 -36.09,-24.66 -51.23,-35.93 -3.68,-2.74 -6.72,-5.46 -12.2,-5.49 -14.26,-0.05 -32.08,18.96 -34.82,34.74 -0.47,2.74 -0.2,6.55 1.7,9.49 0.95,1.47 1.17,1.56 2.35,2.59l128.77 83.35c3.21,2.01 7.81,5.91 11.35,6.74 4.51,-8.52 9.98,-14.4 19.6,-18.22 23.1,-9.18 69.39,-11.1 88.73,6.9 3.08,2.87 7.26,6.97 8.42,11.32 3.4,-0.79 7.62,-4.35 10.95,-6.32l74.89 -48.44c10.17,-6.79 54.44,-33.13 57.23,-38.97 5.07,-10.63 -5.31,-24.27 -10.82,-30.3l-1.6 -1.69c-0.12,-0.11 -0.3,-0.28 -0.43,-0.39 -0.94,-0.88 -1.24,-1.1 -2.15,-1.96 -8.51,-8.11 -18.9,-12.42 -29.53,-4.43l-129.9 91.27c-1.94,1.46 -3.04,2.72 -5.63,3.41 0,-10.8 -0.06,-10.09 -7.4,-13.98l0 -133.2c-4.47,-2.14 -26.2,-5.16 -28.37,2.05 -1.24,4.13 -0.41,124.61 -0.41,131.96z"/>
   <path class="fil0" d="M38.31 330.53c0,13.53 14.68,26.31 27.96,26.31 5.94,0 10.37,-4.24 14.46,-6.92 2.51,-1.64 4.09,-2.42 6.59,-4.1l26.48 -17.1c6.01,-3.85 57.35,-36.31 59.36,-39.31 -2.93,-0.78 -7.73,-4.21 -10.34,-6.1 -8.43,-6.09 -19.95,-17.88 -20.9,-29.26 -3.07,0.72 -10.56,6.56 -13.5,8.7 -4.59,3.34 -8.54,5.78 -13.04,9.16l-72.96 51.19c-1.74,1.38 -4.1,4.31 -4.1,7.41z"/>
   <path class="fil0" d="M150.95 245.84c0,14.54 6.11,22.11 18.58,30.76 7.5,5.21 23.48,12.82 32.4,12.82 11.87,0 26.77,-7.49 34.07,-12.8 4.77,-3.47 8.58,-6.57 12.57,-11.27 11.22,-13.21 8.68,-32.72 -9.62,-41.73 -21.76,-10.7 -88,-11.63 -88,22.22z"/>
   <path class="fil0" d="M232.35 289.42c1.69,2.52 8.77,6.4 12.5,8.88 25.62,17.1 54,34.25 79.43,51.31 5.94,3.98 8.68,7.24 16.6,7.24 14.46,0 34.84,-22.77 22.67,-33.36l-59.33 -41.8c-5.47,-3.78 -37.55,-26.9 -40.62,-27.62 -0.31,13.75 -21.95,33.19 -31.24,35.35z"/>
   <path class="fil0" d="M172.33 19.73c0,11.1 7.57,16.3 9.86,19.73 12.62,-2.94 21.01,-5.12 34.55,-1.64 4.48,1.15 5.27,2.28 8.42,-0.55 14.34,-12.93 9.81,-37.27 -19.95,-37.27 -11.61,0 -23.12,0.61 -29.76,10.53 -1,1.48 -3.13,7.24 -3.13,9.2z"/>
  </g>
 </g>
</svg>
