<?xml version="1.0" encoding="UTF-8"?>
<!DOCTYPE svg PUBLIC "-//W3C//DTD SVG 1.1//EN" "http://www.w3.org/Graphics/SVG/1.1/DTD/svg11.dtd">
<!-- Creator: CorelDRAW 2021 (64-Bit) -->
<svg xmlns="http://www.w3.org/2000/svg" xml:space="preserve" width="0.343016in" height="0.354331in" version="1.1" style="shape-rendering:geometricPrecision; text-rendering:geometricPrecision; image-rendering:optimizeQuality; fill-rule:evenodd; clip-rule:evenodd"
viewBox="0 0 19.74 20.4"
 xmlns:xlink="http://www.w3.org/1999/xlink"
 xmlns:xodm="http://www.corel.com/coreldraw/odm/2003">
 <defs>
  <style type="text/css">
   <![CDATA[
    .fil0 {fill:#00A0E3}
   ]]>
  </style>
 </defs>
 <g id="Layer_x0020_1">
  <metadata id="CorelCorpID_0Corel-Layer"/>
  <g id="_1771964158464">
   <path class="fil0" d="M6.3 2.98c0,1.13 0.06,1.68 0.46,2.73 0.22,0.57 0.85,1.74 0.86,1.79 0.29,-0.02 0.37,-0.25 0.87,-0.45 0.78,-0.31 0.88,-0.27 1.72,-0.27 0,-1.62 0.02,-2.5 0.61,-4.07l0.8 -1.85c0.09,-0.17 0.25,-0.44 0.29,-0.59 -0.21,-0 -0.35,-0.06 -0.51,-0.1 -1.19,-0.26 -2.8,-0.23 -3.98,0.07 -0.28,0.07 -0.3,0.15 -0.41,0.36 -0.33,0.6 -0.72,1.45 -0.72,2.37z"/>
   <path class="fil0" d="M13.3 9.65c0,0.83 0.03,1.48 -0.39,2.2 -0.08,0.14 -0.17,0.21 -0.22,0.39 0.71,0.37 0.67,0.26 1.46,0.86l0.93 0.78c0.11,0.11 0.19,0.19 0.3,0.3l1.06 1.25c0.18,0.25 0.87,1.2 0.94,1.43 0.47,-0.13 1.48,-1.8 1.73,-2.3 0.25,-0.5 0.41,-0.9 0.6,-1.45 0.15,-0.43 -0.17,-0.8 -0.54,-1.3 -0.88,-1.17 -2.51,-1.94 -4,-2.12l-1.37 -0.12c-0.27,-0 -0.25,0.05 -0.5,0.06z"/>
   <path class="fil0" d="M6.47 10.75c0,-0.83 -0.04,-1.48 0.39,-2.2 0.08,-0.13 0.17,-0.22 0.22,-0.39 -1.02,-0.54 -1.53,-0.82 -2.39,-1.64 -0.37,-0.35 -0.33,-0.37 -0.55,-0.61 -0.68,-0.73 -1.28,-1.5 -1.75,-2.38 -0.47,0.13 -1.48,1.8 -1.73,2.3 -0.25,0.5 -0.41,0.9 -0.6,1.45 -0.12,0.35 -0.06,0.33 0.12,0.67 0.12,0.23 0.26,0.42 0.42,0.63 0.88,1.17 2.51,1.94 4,2.12l1.37 0.12c0.27,0 0.25,-0.05 0.5,-0.06z"/>
   <path class="fil0" d="M0.29 13.4c0.24,0.51 0.16,0.91 0.98,2.27 0.23,0.38 0.42,0.65 0.67,0.98 0.7,0.91 0.69,0.83 1.27,0.83 1.85,0 3.48,-1.16 4.54,-2.57 0.22,-0.3 0.84,-1.17 0.92,-1.5 -0.85,-0.2 -1.54,-1.03 -1.93,-1.76l-0.62 0.38c-1.23,0.75 -3.39,1.26 -4.84,1.33 -0.16,0.01 -0.34,-0.01 -0.5,-0 -0.22,0.01 -0.26,0.06 -0.5,0.06z"/>
   <path class="fil0" d="M11.1 7c0.86,0.2 1.53,1.02 1.93,1.76 0.18,-0.05 0.14,-0.07 0.31,-0.18 0.93,-0.59 1.38,-0.75 2.5,-1.08 1.18,-0.35 1.99,-0.39 3.14,-0.45 0.22,-0.01 0.26,-0.06 0.5,-0.06 -0.25,-0.51 -0.16,-0.91 -0.98,-2.27 -0.18,-0.3 -1.18,-1.81 -1.5,-1.81 -1.59,0 -2.3,0.26 -3.5,1.08 -0.47,0.32 -1.14,1.03 -1.48,1.5 -0.22,0.3 -0.84,1.17 -0.92,1.5z"/>
   <path class="fil0" d="M10.16 13.62l-0.61 0c0,2.24 -0.21,3.28 -1.1,5.29 -0.09,0.2 -0.19,0.38 -0.29,0.59 -0.09,0.17 -0.27,0.48 -0.31,0.62 0.21,0 0.35,0.06 0.51,0.1 1.03,0.23 2.29,0.23 3.33,0.05 0.64,-0.11 0.81,-0.04 1.06,-0.48 0.92,-1.64 0.92,-3.35 0.25,-5.1 -0.22,-0.57 -0.85,-1.74 -0.86,-1.79 -0.32,0.03 -0.9,0.72 -1.98,0.72z"/>
   <path class="fil0" d="M8.67 10.31c0,-1.9 2.43,-1.57 2.43,-0.22 0,1.9 -2.43,1.57 -2.43,0.22zm-1.76 -0.17c0,1.71 1.33,3.03 3.03,3.03 1.56,0 2.92,-1.33 2.92,-3.03 0,-1.55 -1.32,-2.92 -3.03,-2.92 -1.55,0 -2.92,1.37 -2.92,2.92z"/>
  </g>
 </g>
</svg>
