<?xml version="1.0" encoding="UTF-8"?>
<!DOCTYPE svg PUBLIC "-//W3C//DTD SVG 1.1//EN" "http://www.w3.org/Graphics/SVG/1.1/DTD/svg11.dtd">
<!-- Creator: CorelDRAW 2021 (64-Bit) -->
<svg xmlns="http://www.w3.org/2000/svg" xml:space="preserve" width="0.354331in" height="0.354331in" version="1.1" style="shape-rendering:geometricPrecision; text-rendering:geometricPrecision; image-rendering:optimizeQuality; fill-rule:evenodd; clip-rule:evenodd"
viewBox="0 0 16.69 16.69"
 xmlns:xlink="http://www.w3.org/1999/xlink"
 xmlns:xodm="http://www.corel.com/coreldraw/odm/2003">
 <defs>
  <style type="text/css">
   <![CDATA[
    .fil0 {fill:#00A0E3}
   ]]>
  </style>
 </defs>
 <g id="Layer_x0020_1">
  <metadata id="CorelCorpID_0Corel-Layer"/>
  <path class="fil0" d="M4.27 13.5c0.19,-0.22 0.24,-0.09 0.57,-0.15 0.6,-0.1 1.05,-0.25 1.54,-0.61 0.28,-0.2 0.51,-0.44 0.71,-0.72 0.14,-0.2 0.45,-0.72 0.47,-1 0.15,0 0.26,0.04 0.37,0.06 0.81,0.11 0.85,-0.05 1.26,-0.09 0.14,0.26 0.29,0.7 0.37,1.03 0.23,0.92 0.34,2.35 -0.45,3 -0.41,0.35 -1.23,0.51 -1.92,0.38 -1.07,-0.21 -2,-0.73 -2.67,-1.53 -0.1,-0.12 -0.21,-0.19 -0.25,-0.37zm4.52 -13.5l0.37 0c0.54,0.02 1.07,0.14 1.55,0.34 0.49,0.2 0.83,0.38 1.24,0.65 0.4,0.27 0.69,0.53 1.03,0.87l0.43 0.52c0.43,0.63 0.3,1.47 -0.33,1.94 -0.74,0.55 -1.48,-0.03 -2.33,0.93 -0.36,0.4 -0.38,0.72 -0.54,1.08l0.09 0.1c0.18,-0.09 0.43,-0.18 0.62,-0.26 0.87,-0.35 1.55,-0.46 2.51,-0.46 1.3,0 2.54,0.65 2.99,1.77 0.16,0.4 0.25,0.81 0.27,1.22l0 0.51c-0.06,0.97 -0.44,1.92 -0.98,2.74 -0.27,0.4 -0.53,0.69 -0.87,1.03 -0.1,0.1 -0.16,0.14 -0.26,0.23 -0.09,0.08 -0.15,0.13 -0.26,0.2 -0.62,0.44 -1.47,0.3 -1.94,-0.33 -0.55,-0.74 0.03,-1.48 -0.93,-2.33 -0.4,-0.36 -0.72,-0.38 -1.08,-0.54l-0.1 0.09c0.78,1.47 1.17,4.17 -0.14,5.47 -0.74,0.73 -1.48,0.92 -2.57,0.92 -1.51,0 -2.91,-0.92 -3.85,-1.85 -0.1,-0.1 -0.14,-0.16 -0.23,-0.26 -0.65,-0.72 -0.6,-1.71 0.13,-2.2 0.81,-0.54 1.49,0.01 2.33,-0.93 0.36,-0.4 0.38,-0.72 0.54,-1.08l-0.09 -0.1c-0.27,0.14 -0.97,0.4 -1.28,0.48 -1.13,0.31 -2.12,0.34 -3.23,-0.02 -0.2,-0.07 -0.36,-0.14 -0.53,-0.25 -0.38,-0.25 -0.35,-0.26 -0.63,-0.54 -0.18,-0.18 -0.36,-0.48 -0.45,-0.72 -0.16,-0.4 -0.25,-0.81 -0.27,-1.23l0 -0.51c0.06,-0.97 0.44,-1.92 0.98,-2.74 0.35,-0.53 0.68,-0.85 1.13,-1.25 0.72,-0.65 1.71,-0.6 2.2,0.13 0.54,0.81 -0.01,1.49 0.93,2.33 0.4,0.36 0.72,0.38 1.08,0.54l0.1 -0.09c-0.1,-0.19 -0.18,-0.42 -0.26,-0.62 -0.37,-0.92 -0.46,-1.57 -0.46,-2.58 0,-0.49 0.14,-0.95 0.26,-1.31 0.23,-0.69 0.85,-1.35 1.52,-1.61 0.42,-0.17 0.86,-0.25 1.31,-0.27zm-1.95 8.38c0,-1.45 1.67,-1.99 2.57,-1.1 0.88,0.88 0.36,2.57 -1.1,2.57 -0.79,0 -1.47,-0.68 -1.47,-1.47zm-1.27 -0.07c0,0.43 0.11,0.67 0.13,0.88 -0.15,0.08 -0.32,0.14 -0.48,0.2 -0.88,0.32 -1.89,0.5 -2.8,0.19 -0.32,-0.11 -0.54,-0.22 -0.74,-0.46 -0.82,-0.97 -0.3,-2.7 0.32,-3.64l0.52 -0.68c0.11,-0.13 0.52,-0.5 0.68,-0.53l0.13 0.1c0.01,1.2 0.53,2.15 1.39,2.75 0.2,0.14 0.68,0.42 0.96,0.44 0,0.24 -0.1,0.49 -0.1,0.75zm5.41 -0.81c1.02,-0.54 3.16,-0.91 4.02,0.06 0.88,1 0.3,2.97 -0.54,3.98 -0.24,0.29 -0.61,0.72 -0.94,0.89 -0.07,-0.04 -0.1,-0.05 -0.16,-0.1 0,-1.2 -0.52,-2.15 -1.39,-2.75 -0.2,-0.14 -0.68,-0.42 -0.96,-0.44 0,-0.18 0.1,-0.47 0.1,-0.78 0,-0.32 -0.1,-0.58 -0.13,-0.85zm1.34 -4.17c-1.21,0 -2.15,0.52 -2.75,1.39 -0.14,0.2 -0.42,0.68 -0.44,0.96 -0.46,0 -0.33,-0.16 -1.2,-0.06 -0.14,0.02 -0.28,0.08 -0.43,0.09 -0.54,-1.02 -0.91,-3.16 0.06,-4.02 0.71,-0.63 1.96,-0.48 2.85,-0.13 0.66,0.26 0.96,0.55 1.47,0.95 0.13,0.1 0.47,0.52 0.55,0.66 -0.04,0.07 -0.05,0.1 -0.1,0.16z"/>
 </g>
</svg>
