<?xml version="1.0" encoding="UTF-8"?>
<!DOCTYPE svg PUBLIC "-//W3C//DTD SVG 1.1//EN" "http://www.w3.org/Graphics/SVG/1.1/DTD/svg11.dtd">
<!-- Creator: CorelDRAW 2021 (64-Bit) -->
<svg xmlns="http://www.w3.org/2000/svg" xml:space="preserve" width="0.315465in" height="0.314961in" version="1.1" style="shape-rendering:geometricPrecision; text-rendering:geometricPrecision; image-rendering:optimizeQuality; fill-rule:evenodd; clip-rule:evenodd"
viewBox="0 0 9.29 9.28"
 xmlns:xlink="http://www.w3.org/1999/xlink"
 xmlns:xodm="http://www.corel.com/coreldraw/odm/2003">
 <defs>
  <style type="text/css">
   <![CDATA[
    .fil0 {fill:#00A0E3}
   ]]>
  </style>
 </defs>
 <g id="Layer_x0020_1">
  <metadata id="CorelCorpID_0Corel-Layer"/>
  <path class="fil0" d="M5.77 2.55c0.09,-0.26 0.77,-1.41 0.94,-1.6 0.51,-0.55 1.31,-0.48 1.74,0.04 0.56,0.67 0.14,1.25 -0.18,1.82l-1.85 3.23c-0.21,0.37 -0.25,0.52 -0.57,0.7 -1.07,0.6 -2.17,-0.48 -1.61,-1.56l0.92 -1.61 0.66 0.36 -0.83 1.15c-0.12,0.17 -0.32,0.39 -0.26,0.7 0.05,0.23 0.26,0.44 0.53,0.45 0.57,0.03 0.72,-0.64 0.91,-1.09 0.1,-0.25 0.19,-0.46 0.29,-0.73 0.11,-0.28 0.01,-0.15 0.24,-0.26 0.32,-0.16 0.31,-0.31 0.31,-0.61 -0.01,-0.45 1.41,-1.44 1.13,-2.14 -0.14,-0.35 -0.78,-0.62 -1.13,0.12 -0.16,0.34 -0.51,1.07 -0.59,1.44l-0.66 -0.4zm-0.25 -0.81c-1.11,-0.46 -1.94,-1.51 -2.86,-0.93 -0.37,0.23 -0.74,0.78 -0.48,1.42 0.25,0.61 0.71,0.54 1.1,0.93 -0.11,0.31 -0.32,0.61 -0.47,0.91l-0.93 1.71c-0.22,0.38 -0.2,0.68 -0.72,0.56 0,-0.83 0.2,-0.84 -0.58,-0.84 0,-1.56 -0,-3.12 0,-4.68 0,-0.31 0.1,-0.9 -0.35,-0.82 -0.34,0.06 -0.23,0.64 -0.23,0.97 0,1.11 -0.06,7.95 0.04,8.15 0.07,0.14 0.28,0.2 0.43,0.08 0.31,-0.24 -0.18,-0.89 0.33,-1.4 0.28,-0.28 0.35,-0.3 0.35,-0.83 0.66,-0.15 0.71,0.03 1.03,-0.54l1.07 -1.98c0.14,-0.25 0.44,-0.76 0.52,-1 0.22,0.08 0.36,0.21 0.57,0.29 -0.25,0.7 -0.9,1.17 -0.85,2.1 0.04,0.82 0.6,1.4 1.29,1.59 0.95,0.25 1.67,-0.31 1.99,-0.87 0.36,-0.62 0.7,-1.2 1.05,-1.84 0.35,-0.63 0.71,-1.26 1.07,-1.87 1.18,-1.99 -0.76,-3.33 -2.09,-2.7 -0.87,0.41 -0.94,1.21 -1.31,1.59z"/>
 </g>
</svg>
