<?xml version="1.0" encoding="UTF-8"?>
<!DOCTYPE svg PUBLIC "-//W3C//DTD SVG 1.1//EN" "http://www.w3.org/Graphics/SVG/1.1/DTD/svg11.dtd">
<!-- Creator: CorelDRAW 2021 (64-Bit) -->
<svg xmlns="http://www.w3.org/2000/svg" xml:space="preserve" width="0.386626in" height="0.337634in" version="1.1" style="shape-rendering:geometricPrecision; text-rendering:geometricPrecision; image-rendering:optimizeQuality; fill-rule:evenodd; clip-rule:evenodd"
viewBox="0 0 54.05 47.2"
 xmlns:xlink="http://www.w3.org/1999/xlink"
 xmlns:xodm="http://www.corel.com/coreldraw/odm/2003">
 <defs>
  <style type="text/css">
   <![CDATA[
    .str0 {stroke:#00A0E3;stroke-width:0.42;stroke-miterlimit:22.9256}
    .fil0 {fill:#00A0E3;fill-rule:nonzero}
   ]]>
  </style>
 </defs>
 <g id="Layer_x0020_1">
  <metadata id="CorelCorpID_0Corel-Layer"/>
  <g id="ceiling-fan.svg">
   <g>
    <path class="fil0 str0" d="M25.76 0.31c-1.65,0.28 -2.55,1.19 -2.56,2.58 0,1.02 0.49,1.86 1.48,2.53l0.53 0.36 0.01 8.99 0 8.99 -0.66 0.35 -0.66 0.35 -0.48 -0.34c-1.4,-0.99 -11.51,-8.09 -13.95,-9.8 -1.55,-1.09 -2.98,-2.05 -3.18,-2.16 -0.27,-0.14 -0.55,-0.17 -1.13,-0.14 -1.07,0.05 -1.97,0.52 -3.03,1.57 -1.99,1.99 -2.5,4.28 -1.21,5.44 0.24,0.21 15.57,10.16 18.16,11.79 0.52,0.33 0.61,0.43 0.6,0.7 0,0.3 -0.41,0.61 -6.92,5.16 -3.81,2.66 -7.03,4.98 -7.17,5.14 -0.83,0.96 -0.48,2.51 0.86,3.8 0.88,0.85 1.81,1.29 2.72,1.3 0.37,0 0.81,-0.05 0.98,-0.12 0.16,-0.06 3.61,-2.27 7.66,-4.88 5.11,-3.3 7.44,-4.75 7.62,-4.74 0.15,0 0.66,0.04 1.14,0.08 0.59,0.05 1.09,0.04 1.51,-0.05l0.63 -0.13 7.49 4.84c4.81,3.11 7.66,4.88 7.96,4.97 2.2,0.6 5.26,-2.23 4.69,-4.34 -0.07,-0.24 -0.28,-0.61 -0.48,-0.8 -0.19,-0.18 -3.42,-2.5 -7.17,-5.13 -6.45,-4.52 -6.83,-4.81 -6.83,-5.11 0,-0.27 0.09,-0.37 0.46,-0.6 0.24,-0.16 2.24,-1.45 4.44,-2.86 2.19,-1.42 6.15,-3.97 8.78,-5.67 2.64,-1.69 4.95,-3.22 5.13,-3.4 0.8,-0.76 0.88,-2 0.21,-3.38 -0.71,-1.49 -2.17,-2.9 -3.48,-3.4 -0.32,-0.12 -0.81,-0.2 -1.2,-0.2 -0.57,0 -0.76,0.05 -1.26,0.35 -0.32,0.19 -4.31,2.98 -8.86,6.18 -4.57,3.2 -8.35,5.85 -8.42,5.88 -0.07,0.02 -0.31,-0.07 -0.52,-0.22 -0.22,-0.15 -0.49,-0.3 -0.61,-0.33 -0.2,-0.06 -0.2,-0.28 -0.2,-9.08l0.01 -9.01 0.53 -0.36c0.99,-0.67 1.48,-1.51 1.48,-2.53 0,-0.71 -0.26,-1.33 -0.7,-1.76 -0.82,-0.77 -2.65,-1.11 -4.39,-0.82l-0 0zm2.95 1.43c0.93,0.37 1.16,1.22 0.55,2.05 -0.18,0.24 -0.36,0.45 -0.41,0.45 -0.05,0 -0.22,-0.17 -0.37,-0.37 -0.38,-0.5 -0.79,-0.69 -1.45,-0.69 -0.66,0 -1.04,0.19 -1.48,0.71 -0.31,0.38 -0.33,0.38 -0.53,0.2 -0.3,-0.27 -0.54,-0.83 -0.54,-1.26 0,-0.64 0.48,-1.05 1.41,-1.26 0.67,-0.15 2.29,-0.05 2.82,0.16l0 0zm-1.28 2.84c0.1,0.1 0.13,2.37 0.13,9.58l0 9.45 -0.53 0 -0.53 0 0 -9.45c0,-7.2 0.03,-9.48 0.13,-9.58 0.07,-0.07 0.26,-0.13 0.4,-0.13 0.15,0 0.33,0.05 0.4,0.13zm-12 15.49c5.3,3.71 9.64,6.77 9.65,6.78 0.02,0.01 -0.47,0.12 -1.07,0.23 -1.86,0.37 -3.47,1.34 -3.88,2.36 -0.09,0.18 -0.19,0.33 -0.24,0.33 -0.05,0 -3.19,-2 -6.98,-4.45 -3.79,-2.45 -7.79,-5.04 -8.91,-5.76 -1.11,-0.72 -2.13,-1.4 -2.26,-1.53 -0.61,-0.55 -0.03,-2.19 1.18,-3.43 0.97,-0.98 1.92,-1.47 2.62,-1.35 0.15,0.03 4.6,3.1 9.9,6.81l0 0zm34.38 -6.5c0.76,0.38 1.86,1.51 2.31,2.35 0.41,0.78 0.56,1.71 0.33,2.01 -0.17,0.21 -0.5,0.43 -10.49,6.87 -4.23,2.73 -7.73,4.97 -7.78,4.97 -0.04,0 -0.17,-0.17 -0.28,-0.37 -0.64,-1.18 -2.16,-2.05 -4.19,-2.39l-0.77 -0.13 2.84 -2c1.58,-1.11 5.92,-4.16 9.66,-6.8 6.52,-4.59 6.83,-4.79 7.3,-4.8 0.32,0 0.67,0.1 1.06,0.29l0 0zm-21.16 11.52c0.16,0.07 0.27,0.17 0.24,0.22 -0.1,0.14 -1.75,1.27 -1.86,1.27 -0.2,0 -2.09,-1.37 -1.89,-1.38 0.02,0 0.22,-0.07 0.46,-0.16 0.53,-0.2 2.62,-0.16 3.05,0.05zm1.45 3.3c2.03,0.49 3,1.47 3,3.03 0,1.71 -2.09,3.59 -5,4.48 -1.07,0.33 -2.37,0.09 -4.03,-0.74 -1.4,-0.71 -2.73,-2.01 -2.99,-2.92 -0.05,-0.21 -0.11,-0.65 -0.11,-0.96 0,-1.69 1.43,-2.76 4.15,-3.11 1.17,-0.16 3.98,-0.03 4.98,0.21l0 0zm-9.74 5.27c0.41,0.65 1.71,1.84 2.51,2.29 0.36,0.2 0.72,0.41 0.81,0.48 0.12,0.09 -1.34,1.07 -6.35,4.31 -8.32,5.38 -7.57,4.93 -8.12,4.92 -0.66,-0.02 -1.42,-0.44 -2.05,-1.14 -0.61,-0.67 -0.86,-1.29 -0.69,-1.68 0.06,-0.13 1.51,-1.22 3.23,-2.44 1.72,-1.2 4.74,-3.32 6.69,-4.7 1.96,-1.38 3.59,-2.51 3.62,-2.51 0.03,0 0.19,0.21 0.35,0.48l0 0zm20.45 4.27c5.08,3.56 6.78,4.81 6.82,5.01 0.11,0.4 -0.24,1.16 -0.8,1.72 -0.66,0.68 -1.3,1 -1.98,1.01 -0.52,0.01 -0.64,-0.06 -7.5,-4.5 -3.83,-2.48 -7.01,-4.54 -7.05,-4.59 -0.04,-0.04 0.32,-0.32 0.82,-0.62 1.07,-0.66 1.92,-1.4 2.46,-2.2 0.22,-0.32 0.43,-0.59 0.45,-0.59 0.02,0 3.08,2.14 6.79,4.75l0 0z"/>
   </g>
  </g>
 </g>
</svg>
