<?xml version="1.0" encoding="UTF-8"?>
<!DOCTYPE svg PUBLIC "-//W3C//DTD SVG 1.1//EN" "http://www.w3.org/Graphics/SVG/1.1/DTD/svg11.dtd">
<!-- Creator: CorelDRAW 2021 (64-Bit) -->
<svg xmlns="http://www.w3.org/2000/svg" xml:space="preserve" width="0.354323in" height="0.354331in" version="1.1" style="shape-rendering:geometricPrecision; text-rendering:geometricPrecision; image-rendering:optimizeQuality; fill-rule:evenodd; clip-rule:evenodd"
viewBox="0 0 44.87 44.87"
 xmlns:xlink="http://www.w3.org/1999/xlink"
 xmlns:xodm="http://www.corel.com/coreldraw/odm/2003">
 <defs>
  <style type="text/css">
   <![CDATA[
    .fil0 {fill:#00A0E3}
   ]]>
  </style>
 </defs>
 <g id="Layer_x0020_1">
  <metadata id="CorelCorpID_0Corel-Layer"/>
  <g id="_1771747184928">
   <path class="fil0" d="M11.19 36.18c0.26,-0.14 2.88,-0.45 5.11,-2.66 1.11,-1.1 2.37,-2.85 2.81,-4.95 0.21,0.05 0.52,0.24 0.76,0.33 0.26,0.1 0.55,0.2 0.82,0.27 2.27,0.57 1.78,-0.48 2.73,1.31 1.26,2.37 1.23,5.06 0.17,7.52 -0.15,0.35 -0.47,0.9 -0.67,1.18 -0.07,0.1 -0.11,0.15 -0.18,0.25 -0.13,0.18 -0.52,0.71 -0.69,0.76 -0.48,0.12 -2.79,-0.27 -3.35,-0.38 -1.67,-0.33 -3.98,-1.21 -5.33,-2.09 -0.45,-0.29 -1.91,-1.19 -2.18,-1.55zm21 -6.78c0.46,-0.2 0.63,0.22 0.71,0.55 0.12,0.04 0.16,0.06 0.26,0.1 0.16,0.07 0.2,0.05 0.26,0.18 -0.13,0.16 -0.14,0.17 -0.39,0.14 0.05,0.11 0.69,0.87 1.18,2.11 0.27,0.7 0.58,1.89 0.55,2.74 -0.06,0.08 -0.39,0.4 -0.49,0.47 -0.53,0.42 -0.99,0.88 -1.62,1.28 -0.95,0.61 -1.3,0.89 -2.42,1.43 -1.71,0.83 -3.88,1.53 -6.04,1.7 0.17,-0.42 0.63,-0.93 1.18,-2.38 0.09,-0.25 0.14,-0.49 0.17,-0.6 0.82,-2.62 0.26,-5.94 -1.11,-8 0.03,-0.03 0.02,-0.02 0.08,-0.06l0.34 -0.13c0.17,-0.06 0.33,-0.13 0.47,-0.2 0.32,-0.15 0.53,-0.27 0.83,-0.45 0.25,-0.15 0.54,-0.37 0.74,-0.54l0.66 -0.62c0.81,0.04 1.95,0.53 2.59,0.83 0.82,0.39 1.29,0.83 1.9,1.33l0.13 0.09zm-15.59 1.35c0.04,0.24 -0.03,0.43 -0.18,0.6 -0.06,0.07 -0.15,0.16 -0.21,0.22l-1.93 1.92c-0.32,0.31 -0.56,0.74 -1.14,0.4 -0.04,0 -1.14,0.47 -1.58,0.58 -0.55,0.14 -1.29,0.3 -1.92,0.28 -0.1,-0.08 -0.35,-0.35 -0.47,-0.49 -1.04,-1.17 -2.03,-2.61 -2.72,-4.04 -0.79,-1.64 -1.58,-3.94 -1.7,-6.04l1.12 0.64c0.42,0.21 0.78,0.35 1.23,0.53 2.68,1.04 6.43,0.57 8.63,-0.92 0.1,0.1 0.13,0.26 0.17,0.39 0.05,0.15 0.11,0.28 0.16,0.41 0.12,0.27 0.25,0.54 0.4,0.79 1.24,2.03 1.4,1 1.13,2.19 -0.07,0.33 -0.15,0.63 -0.26,0.92 -0.11,0.28 -0.22,0.56 -0.35,0.84 -0.09,0.17 -0.38,0.68 -0.39,0.78zm16.91 -2.13c-0.15,-0.03 -0.04,-0.04 -0.17,0.03 -0.03,0.01 -0.09,0.09 -0.12,0.12 -0.1,0.11 -0.17,0.15 -0.23,0.29 0.05,0.14 0.08,0.15 0.18,0.21 0.16,-0.15 0.3,-0.36 0.48,-0.4 0.07,0.05 0.07,0.05 0.14,0.09 -0.07,0.23 -0.29,0.31 -0.41,0.52l0.37 0.41 -0.19 0.2c-0.17,-0.14 -0.68,-0.63 -0.82,-0.8 -0.29,-0.37 0.34,-0.68 0.42,-0.82 0.06,-0.12 0.07,-0.02 0.01,-0.18 -0.03,-0.17 -0.73,-0.66 -0.91,-0.81 -0.81,-0.67 -2.65,-1.54 -3.71,-1.71 0.07,-0.24 0.23,-0.51 0.34,-0.76 0.57,-1.43 0.45,-2.76 0.49,-2.85 0.42,-0.42 1.7,-1.05 2.44,-1.26 1.06,-0.31 2.06,-0.47 3.27,-0.37 1.45,0.12 3,0.64 4.11,1.45 0.25,0.19 0.94,0.64 0.99,0.86 0.1,0.47 -0.27,2.74 -0.38,3.3 -0.51,2.57 -1.45,4.39 -2.81,6.46 -0.18,0.27 -0.64,0.93 -0.84,1.08 -0.11,-0.19 -0.13,-0.51 -0.2,-0.77 -0.19,-0.72 -0.49,-1.44 -0.82,-2.08 -0.48,-0.92 -0.82,-1.29 -1.39,-1.99 -0.09,-0.11 -0.13,-0.21 -0.25,-0.23zm-16.49 -5.94c-0.05,-0.82 0.14,-1.64 0.4,-2.29 0.23,-0.56 0.63,-1.21 1.06,-1.65 0.08,-0.08 0.25,-0.25 0.34,-0.32 0.43,-0.32 0.57,-0.51 1.22,-0.83 2.18,-1.06 4.49,-0.52 6.1,0.91 0.4,0.36 0.91,1.08 1.14,1.56 0.98,2.02 0.65,4.18 -0.74,5.88 -0.26,0.32 -0.54,0.6 -0.87,0.84 -0.24,0.17 -0.55,0.37 -0.86,0.52 -1.94,0.97 -4.24,0.65 -5.88,-0.74 -0.96,-0.81 -1.81,-2.07 -1.91,-3.88zm10.12 -5.32c-0.01,-0.77 0.64,-2.33 0.96,-2.89 0.34,-0.6 0.59,-0.95 1.01,-1.41 0.85,-0.96 1.68,-1.66 3.03,-2.25 0.42,-0.18 2.68,-0.93 3.14,-0.64l0.91 1.04c0.77,0.88 1.73,2.41 2.25,3.51 0.77,1.64 1.56,3.94 1.67,5.98 -0.19,-0.07 -0.39,-0.23 -0.56,-0.33 -2.83,-1.66 -6.32,-1.88 -9.29,-0.5 -0.23,0.11 -0.39,0.17 -0.61,0.3 -0.15,0.08 -0.41,0.25 -0.56,0.29 -0.2,-0.75 -0.63,-1.55 -1.06,-2.12 -0.13,-0.17 -0.14,-0.21 -0.27,-0.35l-0.45 -0.49c-0.09,-0.09 -0.05,-0.06 -0.16,-0.12zm-15.21 -0.52c0.6,0.81 3.08,2.05 4.37,2.28 -0.08,0.26 -0.25,0.52 -0.35,0.79 -0.52,1.39 -0.45,2.78 -0.47,2.82 -0.38,0.41 -1.75,1.05 -2.44,1.26 -2.12,0.63 -4.2,0.52 -6.21,-0.4 -0.7,-0.32 -1.75,-1.02 -2.16,-1.48 -0.07,-1.85 0.6,-4.71 1.24,-6.21 0.64,-1.49 1.08,-2.37 1.97,-3.65 0.19,-0.28 0.61,-0.9 0.82,-1.05 0.09,0.15 0.14,0.51 0.18,0.69 0.3,1.17 1.15,3.01 1.99,3.85 0.16,-0.04 0.1,-0.01 0.31,-0.23 0.07,-0.08 0.16,-0.18 0.23,-0.24 0.13,-0.1 0.15,-0.1 0.32,-0.05 0.26,0.06 0.1,0.01 0.38,0.01 0.27,0.28 0.62,0.52 0.59,0.75 -0.03,0.2 -0.67,0.63 -0.76,0.86zm10.5 -1.35c-0.23,-0 -0.24,0.07 -0.38,-0.09 -0.36,-0.41 -0.95,-1.67 -1.13,-2.2 -0.71,-2.17 -0.56,-4.23 0.33,-6.29 0.22,-0.5 1.21,-2.12 1.53,-2.22 0.41,-0.12 2.65,0.24 3.26,0.35 1.02,0.2 2,0.5 2.9,0.86 0.81,0.32 1.84,0.8 2.52,1.23 0.52,0.33 1.92,1.2 2.21,1.57 -0.13,0.07 -0.28,0.09 -0.42,0.12 -0.85,0.18 -1.71,0.54 -2.45,0.92 -1.67,0.86 -3,2.21 -3.95,3.8 -0.4,0.67 -0.95,1.9 -1.09,2.77 -1.12,-0.36 -1.48,-0.82 -3.33,-0.83zm-12.31 -5.88c0.37,-0.28 0.32,-0.29 0.53,-0.47 1.34,-1.11 2.31,-1.86 4.02,-2.69 1.81,-0.87 3.75,-1.46 6.02,-1.69l-0.66 1.15c-0.2,0.41 -0.36,0.78 -0.53,1.23 -0.7,1.89 -0.71,4.29 -0.14,6.2 0.43,1.44 0.67,1.52 1.08,2.44 -0.79,0.19 -1.87,0.81 -2.48,1.33l-0.5 0.45c-0.08,0.08 -0.06,0.07 -0.12,0.16 -0.74,0.01 -2.36,-0.64 -2.89,-0.96 -0.41,-0.25 -1.32,-0.86 -1.68,-1.22 -0.09,-0.09 -0.13,-0.16 -0.23,-0.25 -0.58,-0.52 -1.38,-1.7 -1.75,-2.57 -0.31,-0.73 -0.78,-2.22 -0.68,-3.12zm10.84 32.08c0.15,-0.35 1.27,-1.22 1.52,-1.61 0.33,0.1 1.15,1.03 1.44,1.31 0.13,0.13 0.13,0.14 0.16,0.27 0.96,0.06 3.07,-0.48 3.96,-0.74 1.09,-0.31 2.43,-0.86 3.34,-1.37 0.52,-0.29 1,-0.54 1.47,-0.86 1.06,-0.72 1.07,-0.75 2.05,-1.51l0.63 -0.56c0.09,-0.09 0.18,-0.19 0.29,-0.28 0.47,-0.39 0.87,-0.91 1.3,-1.37l0.66 -0.82c1.05,-1.46 1.9,-2.75 2.59,-4.54 0.96,-2.52 1.5,-5.01 1.36,-8.09 -0.12,-2.68 -0.84,-5.47 -1.92,-7.54 -0.93,-1.79 -1.56,-2.82 -2.82,-4.26 -7.3,-8.33 -19.95,-8.91 -28.05,-1.13l-1.13 1.2c-0.9,0.92 -2.27,3.2 -2.82,4.32 -1.06,2.16 -1.76,4.84 -1.86,7.6 -0.13,3.91 0.96,8.07 3.03,11.13 0.63,0.93 1.31,1.91 2.07,2.69l2.46 2.25c1.14,0.81 1.63,1.16 2.92,1.84 1.02,0.53 2.2,1.01 3.36,1.35 0.87,0.25 3.05,0.77 3.99,0.71z"/>
   <path class="fil0" d="M3.62 1.6c0.53,-0.09 9.61,-0.03 10.4,-0.03l26.15 0c0.99,0 1.46,-0.04 2.17,0.44 1.29,0.88 0.96,2.63 0.96,4.21l0 34c0,1 0.02,1.44 -0.46,2.15 -0.3,0.44 -0.92,0.85 -1.64,0.92 -0.56,0.06 -9.61,0.01 -10.44,0.01l-26.06 0c-1.01,0 -1.44,0.05 -2.17,-0.44 -1.29,-0.88 -0.97,-2.64 -0.97,-4.21l0 -33.9c-0,-0.96 -0.05,-1.49 0.42,-2.19 0.36,-0.53 0.85,-0.83 1.63,-0.96zm-0.28 -1.51c-1.43,0.22 -2.61,1.13 -3.09,2.5 -0.37,1.08 -0.22,4.05 -0.22,5.4l0 30.81c0,0.82 -0.07,2 0.04,2.77 0.21,1.49 1.29,2.63 2.51,3.06 1.08,0.37 4.05,0.22 5.4,0.22l30.81 0c0.81,0 2.01,0.07 2.77,-0.04 1.48,-0.22 2.63,-1.28 3.05,-2.51 0.37,-1.08 0.22,-4.05 0.22,-5.4l0 -30.81c0,-0.82 0.07,-1.99 -0.05,-2.77 -0.22,-1.49 -1.27,-2.6 -2.51,-3.05 -1.02,-0.37 -4.1,-0.22 -5.4,-0.22l-30.81 0c-0.81,0 -1.98,-0.06 -2.73,0.05z"/>
   <path class="fil0" d="M39.28 38.69c0.9,-0.22 1.37,1.22 0.33,1.5 -0.92,0.24 -1.41,-1.23 -0.33,-1.5zm-0.28 -1.52c-0.37,0.08 -0.57,0.14 -0.84,0.33 -0.24,0.16 -0.44,0.33 -0.59,0.55 -1.23,1.76 0.22,4.06 2.33,3.65 1.12,-0.22 2.09,-1.34 1.8,-2.73 -0.22,-1.09 -1.28,-2.1 -2.7,-1.81z"/>
   <path class="fil0" d="M5.34 4.67c0.31,-0.13 0.79,0.28 0.86,0.63 0.19,0.96 -1.33,1.37 -1.53,0.2 -0.1,-0.59 0.52,-0.77 0.68,-0.83zm-0.3 -1.5c-1.16,0.21 -2.13,1.25 -1.88,2.7 0.2,1.14 1.29,2.09 2.7,1.85 1.14,-0.2 2.1,-1.3 1.85,-2.7 -0.2,-1.14 -1.29,-2.1 -2.67,-1.85z"/>
   <g>
    <path class="fil0" d="M40.22 5.32c0,-0 0.01,-0.01 0.01,-0.01 -0.21,-0.27 -0.19,-0.52 -0.63,-0.61 -0.57,-0.24 -1.3,0.64 -0.73,1.26 0.2,0.22 0.58,0.33 0.92,0.16 0.31,-0.15 0.37,-0.4 0.45,-0.79l-0.01 -0.01zm0.01 -0.01c0.03,-0.04 0.02,-0.07 0.01,0.01l-0.01 -0.01zm-1.83 -1.93c-1.09,0.37 -1.92,2.41 -0.58,3.73 0.79,0.78 2.15,0.89 3.12,0.12 0.11,-0.09 0.62,-0.61 0.54,-0.78 0.08,-0.05 0.04,-0.01 0.1,-0.1 0.35,-0.59 0.19,-1.85 -0.49,-2.55 -0.52,-0.53 -1.76,-0.98 -2.68,-0.42z"/>
   </g>
   <path class="fil0" d="M4.64 39.55c0.09,-0.41 0.09,-0.6 0.42,-0.79 0.29,-0.16 0.63,-0.11 0.85,0.06 0.2,0.16 0.37,0.46 0.28,0.79 -0.08,0.32 -0.27,0.45 -0.53,0.58 -0.83,0.08 -0.87,-0.42 -1.01,-0.64zm1.9 1.88c0.15,-0.02 0.08,0 0.23,-0.1 0.07,-0.05 0.14,-0.1 0.19,-0.14 1.69,-1.45 0.49,-4.5 -1.98,-4.03 -0.68,0.13 -1.44,0.69 -1.58,1.21 -0.52,0.55 -0.44,2.97 1.62,3.33 0.48,0.08 1.25,0.03 1.52,-0.28z"/>
   <path class="fil0" d="M20.96 41.68c0.68,0.07 2.5,0.13 3.12,-0.02 -0.03,-0.14 -0.03,-0.14 -0.16,-0.27 -0.29,-0.28 -1.11,-1.22 -1.44,-1.31 -0.26,0.38 -1.37,1.26 -1.52,1.61z"/>
   <path class="fil0" d="M13.14 33.9c0.58,0.34 0.82,-0.09 1.14,-0.4l1.93 -1.92c0.06,-0.06 0.15,-0.15 0.21,-0.22 0.15,-0.17 0.22,-0.36 0.18,-0.6 -0.18,0.14 -0.52,0.74 -0.73,0.96 -0.3,0.32 -0.89,0.96 -1.25,1.22 -0.58,0.42 -1.24,0.78 -1.48,0.97z"/>
   <path class="fil0" d="M11.3 16.02c0,-0.15 0.15,-0.33 0.34,-0.33 0.19,0 0.36,0.16 0.34,0.37 -0.02,0.4 -0.69,0.44 -0.68,-0.04zm-0.27 -0.09c0.06,0.09 0.52,0.61 0.63,0.67l0.39 -0.37c0.25,-0.27 0.25,-0.04 0.54,-0.22 0.02,-0.23 -0.41,-0.68 -0.65,-0.65 -0.27,0.03 -0.08,-0.03 -0.39,-0.06l-0.34 0.33c-0.14,0.14 -0,0.08 -0.19,0.15l0.02 0.15z"/>
   <path class="fil0" d="M33.51 28.62c-0.11,-0.18 -0.14,-0.22 -0.33,-0.33 0.06,0.15 0.05,0.06 -0.01,0.18 -0.08,0.15 -0.71,0.45 -0.42,0.82 0.13,0.17 0.65,0.66 0.82,0.8l0.19 -0.2 -0.37 -0.41c0.12,-0.21 0.34,-0.29 0.41,-0.52 -0.08,-0.04 -0.07,-0.04 -0.14,-0.09 -0.17,0.04 -0.32,0.25 -0.48,0.4 -0.1,-0.06 -0.13,-0.08 -0.18,-0.21 0.06,-0.13 0.13,-0.18 0.23,-0.29 0.03,-0.03 0.09,-0.1 0.12,-0.12 0.12,-0.07 0.02,-0.06 0.17,-0.03z"/>
   <path class="fil0" d="M10.86 15.73c0.04,0.07 0.01,0.04 0.06,0.09 0.1,0.12 0.03,0.04 0.11,0.1l-0.02 -0.15c0.19,-0.07 0.05,-0 0.19,-0.15l0.34 -0.33c0.31,0.02 0.12,0.09 0.39,0.06 0.24,-0.03 0.68,0.42 0.65,0.65 -0.29,0.18 -0.29,-0.04 -0.54,0.22l-0.39 0.37 0.28 0.23c0.09,-0.23 0.73,-0.66 0.76,-0.86 0.04,-0.23 -0.31,-0.46 -0.59,-0.75 -0.28,0 -0.12,0.05 -0.38,-0.01 -0.18,-0.04 -0.19,-0.05 -0.32,0.05 -0.08,0.06 -0.16,0.17 -0.23,0.24 -0.21,0.22 -0.15,0.19 -0.31,0.23z"/>
   <path class="fil0" d="M32.19 29.4l0.84 0.98c0.25,0.03 0.26,0.02 0.39,-0.14 -0.06,-0.13 -0.1,-0.11 -0.26,-0.18 -0.1,-0.05 -0.14,-0.06 -0.26,-0.1 -0.07,-0.33 -0.25,-0.75 -0.71,-0.55z"/>
   <path class="fil0" d="M11.3 16.02c-0.01,0.49 0.66,0.44 0.68,0.04 0.01,-0.21 -0.16,-0.37 -0.34,-0.37 -0.18,-0 -0.34,0.18 -0.34,0.33z"/>
  </g>
 </g>
</svg>
