<?xml version="1.0" encoding="UTF-8"?>
<!DOCTYPE svg PUBLIC "-//W3C//DTD SVG 1.1//EN" "http://www.w3.org/Graphics/SVG/1.1/DTD/svg11.dtd">
<!-- Creator: CorelDRAW 2021 (64-Bit) -->
<svg xmlns="http://www.w3.org/2000/svg" xml:space="preserve" width="0.358268in" height="0.358039in" version="1.1" style="shape-rendering:geometricPrecision; text-rendering:geometricPrecision; image-rendering:optimizeQuality; fill-rule:evenodd; clip-rule:evenodd"
viewBox="0 0 29.38 29.36"
 xmlns:xlink="http://www.w3.org/1999/xlink"
 xmlns:xodm="http://www.corel.com/coreldraw/odm/2003">
 <defs>
  <style type="text/css">
   <![CDATA[
    .str0 {stroke:#00A0E3;stroke-width:0.32;stroke-miterlimit:2.61313}
    .fil0 {fill:#00A0E3}
   ]]>
  </style>
 </defs>
 <g id="Layer_x0020_1">
  <metadata id="CorelCorpID_0Corel-Layer"/>
  <path class="fil0 str0" d="M11.88 26.63c0.49,0.19 0.84,0.67 0.84,1.24 0,0.73 -0.59,1.33 -1.33,1.33 -0.73,0 -1.33,-0.59 -1.33,-1.33 0,-0.59 0.38,-1.09 0.91,-1.26 -0.02,-1.6 -0.01,-4.08 0,-5.64 0,-0.75 -0.51,-1.26 -0.83,-1.86 -0.13,-0.24 -0.46,-0.2 -0.73,-0.2 -1.28,0 -2.56,0 -3.83,0l0 -0.01c-1.26,0 -2.52,-0.01 -3.78,0 -0.7,0.01 -1.19,-0.33 -1.51,-0.9 -0.31,-0.57 -0.06,-1.09 0.33,-1.54 0.91,-1.07 2.02,-1.7 3.46,-1.72 1.99,-0.03 3.98,0.03 5.95,0.36 0.36,0.06 0.67,-0.02 0.93,-0.28 0.53,-0.51 1.17,-0.82 1.87,-0.99 0.36,-0.09 0.48,-0.31 0.48,-0.65 0,-2.12 0,-4.24 0,-6.37 0,-0.23 -0.05,-0.44 -0.2,-0.63 -0.74,-0.95 -1.36,-1.98 -1.94,-3.03 -0.36,-0.65 -0.62,-1.37 -0.65,-2.13 -0.02,-0.62 0.18,-0.85 0.78,-0.85 2.25,-0.01 4.5,-0.01 6.76,0 0.62,0 0.85,0.25 0.78,0.9 -0.09,1.01 -0.48,1.92 -1.04,2.76 -0.52,0.78 -0.93,1.63 -1.55,2.35 -0.15,0.18 -0.19,0.4 -0.19,0.63 0,2.1 0.01,4.21 0,6.31 0,0.42 0.23,0.55 0.58,0.75 1.2,0.71 1.94,0.07 2.75,-0.71 1.3,-1.25 2.66,-2.43 4.02,-3.61 1.01,-0.88 2.19,-1.09 3.48,-0.78 0.31,0.08 0.62,0.14 0.93,0.21 0.74,0.16 1.29,0.64 1.35,1.23l0 0c0.08,0.74 -0.36,1.22 -0.92,1.56 -2.7,1.65 -5.42,3.28 -8.13,4.91 -0.08,0.05 -0.15,0.1 -0.23,0.16 -0.2,0.17 -0.54,0.25 -0.46,0.63 0.07,0.36 0.37,0.43 0.65,0.54 1.38,0.55 2.75,1.1 4.11,1.67 0.43,0.18 0.89,0.27 1.31,0.52 0.6,0.36 0.93,0.9 0.84,1.46 -0.09,0.55 -0.54,0.95 -1.21,1.09 -0.54,0.11 -1.07,0.24 -1.6,0.32 -1.38,0.24 -2.53,-0.31 -3.61,-1.09 -0.46,-0.33 -0.93,-0.63 -1.39,-0.96 -0.27,-0.19 -0.52,-0.16 -0.79,-0.01 -1.69,0.99 -3.47,0.9 -5.28,0.43 -0.43,-0.11 -0.63,0.01 -0.63,0.42 -0.01,1.28 -0.01,3.4 -0,4.77zm-1.81 -9.85c-0.05,0.82 -0.49,1.23 -1.3,1.23 -1.05,0 -2.1,0 -3.15,0 0,0 0,0.01 0,0.01 -1.2,0 -2.4,0 -3.6,0 -0.31,0 -0.66,0.05 -0.84,-0.31 -0.18,-0.39 0.07,-0.63 0.3,-0.88 0.73,-0.8 1.59,-1.25 2.72,-1.22 1.7,0.06 3.42,-0.03 5.12,0.22 0.74,0.11 0.81,0.21 0.76,0.95l-0 -0zm1.58 -14.64c-0.36,-0.82 -0.18,-1.09 0.72,-1.09 0.79,0 1.57,0 2.36,0 0.85,0 1.69,-0.01 2.53,0 0.64,0.01 0.81,0.25 0.6,0.85 -0.42,1.16 -1.17,2.13 -1.82,3.16 -0.06,0.1 -0.2,0.2 -0.31,0.22 -0.69,0.1 -1.38,0.09 -2.07,-0 -0.11,-0.01 -0.24,-0.13 -0.3,-0.24 -0.6,-0.95 -1.25,-1.87 -1.71,-2.9zm3.57 7.87c0,1.03 0,2.06 0,3.09 0,0.35 -0.03,0.7 -0.53,0.69 -0.46,-0.02 -0.47,-0.35 -0.47,-0.68 0,-2.06 -0,-4.12 0,-6.18 0,-0.32 0,-0.66 0.46,-0.68 0.49,-0.02 0.53,0.32 0.53,0.68 0,1.03 0,2.06 0,3.09l0 -0 0 -0zm-4.11 6.13c0.45,-0.88 1.12,-1.44 2.16,-1.45 1.03,0 2.06,0 3.09,0.01 0.23,0 0.53,0 0.61,0.3 0.07,0.26 -0.11,0.44 -0.28,0.63 -0.71,0.79 -1.44,1.01 -2.49,0.97 -0.94,-0.04 -1.72,0.09 -2.48,0.32 -0.21,0.06 -0.46,0.14 -0.62,-0.08 -0.15,-0.22 -0.09,-0.47 0.02,-0.7l0 0zm7.28 2.6c-0.29,1.12 -1.37,2.03 -2.52,2.07 -0.75,0.03 -1.5,-0.02 -2.26,0.01 -1.13,0.04 -2.24,-0.96 -2.57,-2.03 -0.15,-0.46 -0.05,-0.76 0.46,-0.95 1.06,-0.39 2.15,-0.35 3.18,-0.37 1.11,-0.02 2.18,-0.02 3.22,0.36 0.48,0.18 0.59,0.45 0.47,0.9l0 0zm1.63 0.15c1.39,0.55 2.78,1.1 4.17,1.65 0.26,0.1 0.52,0.2 0.78,0.31 0.27,0.12 0.5,0.3 0.5,0.62 0,0.31 -0.28,0.37 -0.5,0.46 -0.64,0.24 -1.32,0.25 -1.99,0.32 -1.04,0.09 -1.81,-0.5 -2.61,-1.03 -0.37,-0.25 -0.71,-0.55 -1.1,-0.78 -0.52,-0.31 -0.38,-0.72 -0.2,-1.12 0.18,-0.41 0.48,-0.61 0.95,-0.42l0 0.01zm7.92 -7.94c-1.81,1.1 -3.62,2.19 -5.43,3.3 -1.18,0.72 -2.36,1.46 -3.54,2.18 -0.41,0.25 -0.82,0.54 -1.35,0.46 -0.19,-0.03 -0.37,-0.08 -0.44,-0.29 -0.07,-0.22 0.04,-0.35 0.19,-0.48 2.21,-1.97 4.41,-3.97 6.63,-5.93 0.51,-0.45 1.12,-0.76 1.64,-0.69 0.88,0.06 1.55,0.13 2.19,0.37 0.23,0.09 0.46,0.19 0.46,0.49 0,0.27 -0.13,0.45 -0.36,0.59l-0 -0.01zm-16.55 16.5c0.23,0 0.42,0.19 0.42,0.42 0,0.23 -0.19,0.42 -0.42,0.42 -0.23,0 -0.42,-0.19 -0.42,-0.42 0,-0.23 0.19,-0.42 0.42,-0.42z"/>
 </g>
</svg>
