<?xml version="1.0" encoding="UTF-8"?>
<!DOCTYPE svg PUBLIC "-//W3C//DTD SVG 1.1//EN" "http://www.w3.org/Graphics/SVG/1.1/DTD/svg11.dtd">
<!-- Creator: CorelDRAW 2021 (64-Bit) -->
<svg xmlns="http://www.w3.org/2000/svg" xml:space="preserve" width="0.334646in" height="0.334646in" version="1.1" style="shape-rendering:geometricPrecision; text-rendering:geometricPrecision; image-rendering:optimizeQuality; fill-rule:evenodd; clip-rule:evenodd"
viewBox="0 0 7.26 7.26"
 xmlns:xlink="http://www.w3.org/1999/xlink"
 xmlns:xodm="http://www.corel.com/coreldraw/odm/2003">
 <defs>
  <style type="text/css">
   <![CDATA[
    .fil0 {fill:#00A0E3}
   ]]>
  </style>
 </defs>
 <g id="Layer_x0020_1">
  <metadata id="CorelCorpID_0Corel-Layer"/>
  <path class="fil0" d="M4.97 1.41c-0.41,-0.49 -1.71,-0.77 -2.3,-0.5 -0.52,0.23 -0.66,0.8 -0.52,1.37 0.06,0.25 0.19,0.48 0.34,0.68 0.12,0.16 0.12,0.33 0.01,0.46 -0.11,0.13 -0.27,0.06 -0.41,-0.02 -0.08,-0.05 -0.17,-0.1 -0.25,-0.14 -0.4,-0.18 -0.78,-0.01 -0.83,0.42 -0.09,0.73 0.08,1.42 0.57,1.98 0.44,0.5 1.14,0.44 1.63,-0.1 0.17,-0.19 0.31,-0.41 0.41,-0.64 0.08,-0.19 0.24,-0.22 0.38,-0.22 0.15,0 0.16,0.19 0.19,0.31 0.02,0.09 0.01,0.18 0.01,0.26 0.02,0.53 0.36,0.8 0.84,0.58 0.71,-0.34 1.24,-0.88 1.42,-1.69 0.1,-0.45 -0.31,-0.97 -0.84,-1.12 -0.22,-0.06 -0.44,-0.11 -0.69,-0.07l-0 0.01c-0.08,0 -0.18,-0 -0.27,0 -0.15,0.01 -0.22,-0.11 -0.28,-0.21 -0.05,-0.1 0.02,-0.19 0.1,-0.25 0.13,-0.1 0.28,-0.18 0.41,-0.28 0.29,-0.22 0.32,-0.55 0.09,-0.83zm-1.38 1.72c0.3,-0.01 0.53,0.19 0.54,0.47 0.01,0.29 -0.21,0.53 -0.49,0.54 -0.27,0.02 -0.53,-0.23 -0.54,-0.5 -0.01,-0.27 0.22,-0.51 0.48,-0.52zm0.03 -2.75c1.8,-0 3.24,1.44 3.24,3.23 0,1.8 -1.43,3.27 -3.21,3.28 -1.84,0.01 -3.25,-1.42 -3.29,-3.2 -0.03,-1.85 1.42,-3.3 3.25,-3.31 0,0 0,0 0,0zm-0.01 6.88c1.04,0 2.08,0 3.12,0 0.38,0 0.53,-0.14 0.53,-0.52 0,-2.06 0,-4.13 0,-6.19 0,-0.41 -0.15,-0.55 -0.56,-0.55 -2.05,0 -4.09,0 -6.14,0 -0.46,0 -0.57,0.11 -0.57,0.58 0,2.04 0,4.07 0,6.11 0,0.45 0.12,0.57 0.57,0.58 1.01,0 2.03,0 3.04,0l0 -0z"/>
 </g>
</svg>
