<?xml version="1.0" encoding="UTF-8"?>
<!DOCTYPE svg PUBLIC "-//W3C//DTD SVG 1.1//EN" "http://www.w3.org/Graphics/SVG/1.1/DTD/svg11.dtd">
<!-- Creator: CorelDRAW 2021 (64-Bit) -->
<svg xmlns="http://www.w3.org/2000/svg" xml:space="preserve" width="0.374016in" height="0.374016in" version="1.1" style="shape-rendering:geometricPrecision; text-rendering:geometricPrecision; image-rendering:optimizeQuality; fill-rule:evenodd; clip-rule:evenodd"
viewBox="0 0 14.25 14.25"
 xmlns:xlink="http://www.w3.org/1999/xlink"
 xmlns:xodm="http://www.corel.com/coreldraw/odm/2003">
 <defs>
  <style type="text/css">
   <![CDATA[
    .str0 {stroke:#00A0E3;stroke-width:0.75;stroke-miterlimit:22.9256}
    .str1 {stroke:#00A0E3;stroke-width:0.26;stroke-linecap:round;stroke-linejoin:round;stroke-miterlimit:2.61313}
    .fil0 {fill:none}
    .fil1 {fill:black}
    .fil2 {fill:#FCFCFC}
   ]]>
  </style>
 </defs>
 <g id="Layer_x0020_1">
  <metadata id="CorelCorpID_0Corel-Layer"/>
  <g id="_1807842922640">
   <circle class="fil0 str0" cx="7.12" cy="7.12" r="6.75"/>
   <g>
    <path class="fil1 str1" d="M4.66 7.9l0.14 0.27c0.13,0.37 0.25,0.53 0.53,0.77 -0.14,0.18 -0.96,0.61 -1.23,0.76 -0.43,0.24 -0.99,0.64 -1.35,0.06 -0.54,-0.87 1.06,-1.18 1.91,-1.86zm1.96 1.03c-1.31,-0.33 -1.38,-1.13 -1.23,-2.15 -0.33,0.15 -0.76,0.43 -1.1,0.62 -0.49,0.29 -1.81,0.93 -2.05,1.34 -0.25,0.44 -0.28,0.87 -0.04,1.32 0.18,0.33 0.57,0.64 1.11,0.63 0.56,-0.01 1.72,-0.81 2.25,-1.11l1.06 -0.66z"/>
    <path class="fil1 str1" d="M8.93 8.95c0.28,-0.24 0.49,-0.55 0.61,-1.05 0.33,0.12 0.94,0.52 1.28,0.72 0.34,0.2 1.08,0.52 0.68,1.14 -0.35,0.56 -0.93,0.19 -1.36,-0.06 -0.27,-0.16 -1.09,-0.59 -1.22,-0.75zm2.07 -0.95l-2.13 -1.22c0.22,1.34 -0.16,1.8 -1.23,2.15 0.12,0.16 0.92,0.58 1.08,0.67 0.37,0.21 0.71,0.41 1.06,0.61 0.37,0.22 0.71,0.51 1.26,0.48 0.48,-0.03 0.85,-0.33 1.02,-0.66 0.22,-0.44 0.16,-1 -0.1,-1.35 -0.23,-0.3 -0.64,-0.49 -0.98,-0.69z"/>
    <path class="fil1 str1" d="M6.51 4.78c-0.03,-0.53 -0.01,-1.12 -0.01,-1.66 -0,-0.55 0.06,-0.99 0.65,-0.97 0.57,0.02 0.61,0.51 0.61,1.02 -0,0.49 0.04,1.13 -0.01,1.61 -0.51,-0.13 -0.73,-0.13 -1.25,0zm-0.62 1.12c0.31,-0.21 0.65,-0.57 1.22,-0.58 0.63,-0.01 0.9,0.35 1.29,0.58 0,-0.94 -0,-1.88 0,-2.82 0.01,-1.86 -1.64,-1.79 -2.21,-1.12 -0.26,0.31 -0.31,0.62 -0.31,1.12 0,0.83 -0.07,2.04 0.01,2.82z"/>
    <path class="fil1 str1" d="M6.51 7.38c-0.21,-0.84 1.04,-1.11 1.23,-0.33 0.21,0.87 -1.04,1.11 -1.23,0.33zm0.31 -1.38c-1.66,0.45 -0.95,2.85 0.63,2.43 0.59,-0.15 1.11,-0.74 0.9,-1.54 -0.15,-0.59 -0.77,-1.09 -1.53,-0.89z"/>
    <path class="fil2 str1" d="M8.93 8.95c0.13,0.17 0.95,0.59 1.22,0.75 0.43,0.25 1,0.63 1.36,0.06 0.39,-0.63 -0.34,-0.94 -0.68,-1.14 -0.34,-0.2 -0.95,-0.6 -1.28,-0.72 -0.12,0.49 -0.33,0.81 -0.61,1.05z"/>
    <path class="fil2 str1" d="M6.51 4.78c0.51,-0.13 0.73,-0.13 1.25,0 0.05,-0.48 0.01,-1.11 0.01,-1.61 0,-0.52 -0.04,-1.01 -0.61,-1.02 -0.59,-0.02 -0.66,0.42 -0.65,0.97 0,0.54 -0.02,1.12 0.01,1.66z"/>
    <path class="fil2 str1" d="M4.66 7.9c-0.85,0.68 -2.44,0.99 -1.91,1.86 0.36,0.58 0.92,0.18 1.35,-0.06 0.27,-0.15 1.09,-0.58 1.23,-0.76 -0.28,-0.25 -0.4,-0.41 -0.53,-0.77l-0.14 -0.27z"/>
    <path class="fil2 str1" d="M6.51 7.38c0.19,0.77 1.44,0.53 1.23,-0.33 -0.19,-0.77 -1.43,-0.51 -1.23,0.33z"/>
   </g>
  </g>
 </g>
</svg>
