<?xml version="1.0" encoding="UTF-8"?>
<!DOCTYPE svg PUBLIC "-//W3C//DTD SVG 1.1//EN" "http://www.w3.org/Graphics/SVG/1.1/DTD/svg11.dtd">
<!-- Creator: CorelDRAW 2021 (64-Bit) -->
<svg xmlns="http://www.w3.org/2000/svg" xml:space="preserve" width="0.346701in" height="0.354331in" version="1.1" style="shape-rendering:geometricPrecision; text-rendering:geometricPrecision; image-rendering:optimizeQuality; fill-rule:evenodd; clip-rule:evenodd"
viewBox="0 0 8.28 8.46"
 xmlns:xlink="http://www.w3.org/1999/xlink"
 xmlns:xodm="http://www.corel.com/coreldraw/odm/2003">
 <defs>
  <style type="text/css">
   <![CDATA[
    .fil2 {fill:none;fill-rule:nonzero}
    .fil1 {fill:#00A0E3}
    .fil0 {fill:#00A0E3;fill-rule:nonzero}
   ]]>
  </style>
 </defs>
 <g id="Layer_x0020_1">
  <metadata id="CorelCorpID_0Corel-Layer"/>
  <g id="_1807929572608">
   <path class="fil0" d="M7.95 5.75l0.15 0.09 0.08 0.05 -0.05 0.08c-0.2,0.34 -0.45,0.65 -0.74,0.91l0 0c-0.29,0.26 -0.62,0.49 -0.98,0.66l0 0c-0.11,0.05 -0.22,0.1 -0.34,0.14 -0.08,0.03 -0.16,0.05 -0.23,0.08l0.34 0.49 0.15 0.22 -0.26 -0.08 -1.81 -0.57 -0.21 -0.07 0.2 -0.1 1.7 -0.86 0.24 -0.12 -0.12 0.24 -0.23 0.48c0.04,-0.01 0.08,-0.03 0.12,-0.04 0.1,-0.04 0.2,-0.08 0.3,-0.13l0 0c0.33,-0.16 0.63,-0.36 0.89,-0.6 0.26,-0.24 0.49,-0.52 0.67,-0.83l0.05 -0.08 0.08 0.05z"/>
   <path class="fil0" d="M1.78 1.66l-0.14 1.9 -0.02 0.27 -0.15 -0.22 -0.29 -0.44c-0.08,0.36 -0.11,0.73 -0.08,1.09 0.04,0.43 0.15,0.85 0.34,1.25l0 0c0.03,0.06 0.06,0.12 0.09,0.18 0.03,0.06 0.07,0.12 0.1,0.17l0.05 0.08 -0.08 0.05 -0.15 0.09 -0.08 0.05 -0.05 -0.08c-0.04,-0.06 -0.08,-0.13 -0.11,-0.19 -0.04,-0.07 -0.07,-0.13 -0.1,-0.2 -0.21,-0.44 -0.34,-0.91 -0.37,-1.39 -0.03,-0.44 0,-0.88 0.11,-1.31l-0.59 0.04 -0.27 0.02 0.2 -0.18 1.43 -1.26 0.17 -0.15 -0.02 0.22z"/>
   <path class="fil0" d="M7.35 0.98l0.24 -0.55 0.11 -0.25 0.06 0.26 0.46 1.85 0.05 0.22 -0.19 -0.12 -1.62 -1 -0.23 -0.14 0.27 -0.03 0.51 -0.05c-0.23,-0.19 -0.48,-0.35 -0.74,-0.48 -0.33,-0.16 -0.67,-0.27 -1.04,-0.32l-0.09 -0.01 0.01 -0.09 0.03 -0.17 0.01 -0.09 0.09 0.01c0.4,0.06 0.79,0.18 1.16,0.36 0.33,0.16 0.63,0.36 0.9,0.6z"/>
   <g>
    <g>
     <path class="fil1" d="M5.2 3.16c0.4,-1.49 -0.45,-2.44 -1.59,-2.33 -0.54,0.05 -1.08,0.74 -0.75,1.37 0.31,0.59 0.96,0.53 1.16,1.2 0.19,-0.25 0.56,-0.54 1.18,-0.24z"/>
     <path class="fil1" d="M3.74 4.09c-1.49,0.4 -1.89,1.61 -1.22,2.54 0.31,0.44 1.18,0.56 1.56,-0.04 0.35,-0.56 -0.02,-1.1 0.46,-1.61 -0.31,-0.03 -0.75,-0.21 -0.8,-0.9z"/>
     <path class="fil1" d="M5.28 4.89c1.09,1.09 2.34,0.83 2.81,-0.21 0.22,-0.49 -0.1,-1.3 -0.81,-1.33 -0.66,-0.02 -0.94,0.57 -1.62,0.4 0.13,0.29 0.19,0.75 -0.38,1.14z"/>
     <path class="fil1" d="M5.34 4.05c0,0.33 -0.27,0.59 -0.6,0.59 -0.33,0 -0.59,-0.26 -0.59,-0.59 0,-0.33 0.27,-0.59 0.59,-0.59 0.33,0 0.6,0.26 0.6,0.59z"/>
    </g>
    <line class="fil2" x1="8.2" y1="4.07" x2="8.2" y2= "4.07" />
    <line class="fil2" x1="1.12" y1="3.98" x2="1.12" y2= "3.98" />
   </g>
  </g>
 </g>
</svg>
