<?xml version="1.0" encoding="UTF-8"?>
<!DOCTYPE svg PUBLIC "-//W3C//DTD SVG 1.1//EN" "http://www.w3.org/Graphics/SVG/1.1/DTD/svg11.dtd">
<!-- Creator: CorelDRAW 2021 (64-Bit) -->
<svg xmlns="http://www.w3.org/2000/svg" xml:space="preserve" width="0.354331in" height="0.354331in" version="1.1" style="shape-rendering:geometricPrecision; text-rendering:geometricPrecision; image-rendering:optimizeQuality; fill-rule:evenodd; clip-rule:evenodd"
viewBox="0 0 65.18 65.18"
 xmlns:xlink="http://www.w3.org/1999/xlink"
 xmlns:xodm="http://www.corel.com/coreldraw/odm/2003">
 <defs>
  <style type="text/css">
   <![CDATA[
    .fil0 {fill:#00A0E3}
   ]]>
  </style>
 </defs>
 <g id="Layer_x0020_1">
  <metadata id="CorelCorpID_0Corel-Layer"/>
  <g id="_1808353611744">
   <path class="fil0" d="M43.92 36.41c0,2.25 -0.92,4.72 -2.06,6.47 -0.82,1.26 -3.24,3.63 -4.69,3.97 0.14,0.51 2.74,2.84 3.11,3.13 0.44,0.34 0.68,0.8 1.22,0.95l0 0.25c-1.58,0.37 -3.02,2.42 -9.68,2.42 -2.28,0 -2.77,-0.51 -4.2,-0.51 -1.44,0 -2.68,2.39 -0.77,3.57 1.11,0.68 4.61,0.89 6.37,0.89 3.78,0 7.67,-1.5 10.75,-3.51l0.58 -0.44 2.74 2.1c0.31,0.27 0.21,0.03 0.32,0.44 -0.33,0.09 -1.96,1.37 -3.06,1.91 -2.09,1.03 -2.96,1.55 -5.4,2.24 -5.55,1.56 -10.85,1.15 -16.04,-0.91 -1.2,-0.48 -2.11,-1.23 -3.33,-0.39 -0.9,0.61 -1.12,2.02 -0.15,2.98 0.53,0.53 3.76,1.71 4.54,1.95 2.56,0.78 5.29,1.21 8.04,1.26l1.05 0c3.7,-0.07 7.37,-0.82 10.62,-2.33 2.44,-1.14 4.26,-2.21 6.41,-3.9 0.18,-0.15 0.32,-0.29 0.49,-0.42 0.82,-0.59 0.98,0.93 5.24,0.93 4.79,0 9.17,-4.38 9.17,-9.17 0,-3.71 -1.2,-6.18 -3.73,-8.24 -0.43,-0.35 -0.89,-0.63 -1.4,-0.89 -3.03,-1.51 -6.21,-2.81 -9.46,-3.91 -1.14,-0.38 -2.13,-0.76 -3.31,-1.15l-3.48 -1.1c0,0.7 0.13,0.88 0.13,1.4z"/>
   <path class="fil0" d="M4.07 35.9c0,2.1 0.08,4 0.51,5.86l-1.31 0.98c-2.21,1.84 -3.27,4.47 -3.27,7.55 0,4.79 4.38,9.17 9.17,9.17 3.08,0 4.17,-0.57 6.36,-2.04 2.95,-1.97 5.81,-4.53 8.55,-6.73l3 -2.72c0.35,-0.35 0.79,-0.6 0.92,-1.11 -1.69,-0.39 -3.62,-2.46 -4.62,-3.78 -1.16,-1.54 -2.13,-4.27 -2.13,-6.27 0,-0.64 0.13,-0.78 0.13,-1.53l-4.27 1.33c-0.55,0.16 -0.93,0.33 -1.45,0.46 0,-3.96 0.37,-5.01 1.64,-8.17 0.4,-0.99 1.18,-2.17 1.82,-3.02 0.63,-0.85 2.02,-2.05 2.02,-2.94 0,-1.09 -1.52,-3.36 -3.73,-1.05 -3.7,3.87 -5.69,9.27 -5.69,14.8 0,0.85 0.13,1.1 0.13,1.91 -0.76,0.06 -2.87,1.21 -3.69,1.4 0,-2.67 -0.33,-3.14 -0.01,-6.5 0.18,-1.86 0.71,-4.08 1.37,-5.75 1.81,-4.61 4.19,-7.94 7.97,-11 0.78,-0.63 2.25,-1.29 2.25,-2.58 0,-1.48 -1.5,-2.4 -2.8,-1.78 -0.58,0.28 -2.44,1.77 -2.96,2.26 -0.29,0.27 -0.41,0.3 -0.7,0.57 -0.24,0.22 -0.4,0.4 -0.64,0.64 -1.23,1.23 -2.63,2.9 -3.57,4.32 -3,4.52 -4.99,9.93 -4.99,15.76z"/>
   <path class="fil0" d="M23.17 9.04c0,2.44 0.09,3.15 0.44,5.55l1.85 10.5c0.12,0.51 0.33,1.65 0.51,2.03 3.21,-2.15 6.52,-3.07 10.35,-1.57 1.48,0.58 1.72,0.79 2.89,1.57 0.22,-0.45 1.26,-5.16 1.27,-5.86 1.43,0.12 4.8,3.43 6.01,5.19 0.24,0.35 0.36,0.44 0.57,0.83 1.72,3.13 1.45,3.53 2.12,4.89 0.85,1.71 3.65,1.23 3.65,-0.98 0,-1.43 -1.93,-5.23 -2.91,-6.64 -1.57,-2.26 -2.63,-3.21 -4.64,-4.91 -0.87,-0.74 -1.97,-1.32 -2.98,-1.86 -0.4,-0.22 -0.67,-0.39 -1.06,-0.6 0,-1.2 0.48,-2.64 0.51,-3.82 2.31,1.22 3.91,1.67 6.33,3.73 1.7,1.45 3.58,3.35 4.83,5.23 2.32,3.48 3.62,6.69 4.15,11 0.12,0.94 0.15,3.08 2.01,3.08 2.42,0 2.02,-2.48 1.84,-3.75 -0.91,-6.22 -3.41,-11.76 -7.85,-16.21 -0.53,-0.53 -0.99,-1.03 -1.53,-1.53 -2.13,-1.97 -4.75,-3.46 -7.35,-4.74 -0.68,-0.34 -1.48,-0.56 -2.17,-0.89 0,-4.88 -4.07,-9.29 -8.91,-9.29 -3.03,0 -5.25,0.85 -7.16,2.77 -1.3,1.3 -2.77,3.73 -2.77,6.27z"/>
   <path class="fil0" d="M25.08 36.03c0,2.57 0.4,4.1 2.1,5.92 0.47,0.5 1.41,1.19 2.06,1.51 3.37,1.64 7.31,0.44 9.39,-2.54 0.29,-0.42 0.5,-0.75 0.71,-1.2 1.34,-2.75 0.95,-6.15 -1.11,-8.44l-0.36 -0.4c-0.02,-0.02 -0.05,-0.04 -0.07,-0.06 -0.69,-0.66 -1.13,-1.03 -2.1,-1.47 -2.14,-0.97 -4.32,-0.99 -6.42,0.05 -0.95,0.47 -1.28,0.85 -2,1.56 -0.35,0.34 -0.56,0.54 -0.82,0.96 -0.75,1.21 -1.37,2.52 -1.37,4.1z"/>
  </g>
 </g>
</svg>
