<?xml version="1.0" encoding="UTF-8"?>
<!DOCTYPE svg PUBLIC "-//W3C//DTD SVG 1.1//EN" "http://www.w3.org/Graphics/SVG/1.1/DTD/svg11.dtd">
<!-- Creator: CorelDRAW 2021 (64-Bit) -->
<svg xmlns="http://www.w3.org/2000/svg" xml:space="preserve" width="0.293591in" height="0.295547in" version="1.1" style="shape-rendering:geometricPrecision; text-rendering:geometricPrecision; image-rendering:optimizeQuality; fill-rule:evenodd; clip-rule:evenodd"
viewBox="0 0 7.62 7.67"
 xmlns:xlink="http://www.w3.org/1999/xlink"
 xmlns:xodm="http://www.corel.com/coreldraw/odm/2003">
 <defs>
  <style type="text/css">
   <![CDATA[
    .fil0 {fill:#00A0E3;fill-rule:nonzero}
   ]]>
  </style>
 </defs>
 <g id="Layer_x0020_1">
  <metadata id="CorelCorpID_0Corel-Layer"/>
  <g id="_1807987318272">
   <path class="fil0" d="M0.55 5.8c-0.13,-0.21 -0.23,-0.43 -0.32,-0.66 -0.08,-0.23 -0.15,-0.47 -0.18,-0.71 -0.11,-0.66 -0.03,-1.33 0.2,-1.94 0.23,-0.61 0.61,-1.16 1.13,-1.59l0.33 0.39c-0.45,0.37 -0.78,0.85 -0.98,1.38 -0.2,0.53 -0.26,1.11 -0.17,1.68 0.03,0.21 0.09,0.42 0.16,0.62 0.07,0.2 0.16,0.39 0.27,0.57l-0.44 0.26z"/>
   <path class="fil0" d="M3.81 0c0.95,-0.01 1.84,0.34 2.52,0.92 0.68,0.58 1.16,1.41 1.29,2.35l-0.5 0.07c-0.12,-0.82 -0.53,-1.53 -1.12,-2.04 -0.59,-0.51 -1.36,-0.81 -2.18,-0.8l-0 -0.51z"/>
   <path class="fil0" d="M7.1 5.83c-0.29,0.47 -0.67,0.87 -1.12,1.18 -0.45,0.3 -0.96,0.51 -1.51,0.61 -0.32,0.05 -0.64,0.07 -0.96,0.04 -0.32,-0.03 -0.64,-0.1 -0.95,-0.2l0.17 -0.48c0.26,0.09 0.54,0.15 0.82,0.18 0.28,0.02 0.56,0.01 0.84,-0.03 0.47,-0.08 0.92,-0.26 1.31,-0.52 0.39,-0.26 0.72,-0.61 0.97,-1.02l0.43 0.27z"/>
   <path class="fil0" d="M3.81 1.54c0.63,0 1.21,0.26 1.62,0.67l0 0c0.42,0.42 0.67,0.99 0.67,1.62 0,0.63 -0.26,1.21 -0.67,1.62l-0 0c-0.42,0.42 -0.99,0.67 -1.62,0.67 -0.63,0 -1.21,-0.26 -1.62,-0.67 -0.42,-0.42 -0.67,-0.99 -0.67,-1.62 0,-0.63 0.26,-1.21 0.67,-1.63 0.42,-0.42 0.99,-0.67 1.63,-0.67zm1.26 1.03c-0.32,-0.32 -0.77,-0.52 -1.26,-0.52 -0.49,0 -0.94,0.2 -1.26,0.52 -0.32,0.32 -0.52,0.77 -0.52,1.27 0,0.49 0.2,0.94 0.52,1.26 0.32,0.32 0.77,0.52 1.26,0.52 0.49,0 0.94,-0.2 1.26,-0.52l0 -0c0.32,-0.32 0.52,-0.77 0.52,-1.26 0,-0.49 -0.2,-0.94 -0.52,-1.26l-0 -0z"/>
  </g>
 </g>
</svg>
