<?xml version="1.0" encoding="UTF-8"?>
<!DOCTYPE svg PUBLIC "-//W3C//DTD SVG 1.1//EN" "http://www.w3.org/Graphics/SVG/1.1/DTD/svg11.dtd">
<!-- Creator: CorelDRAW 2021 (64-Bit) -->
<svg xmlns="http://www.w3.org/2000/svg" xml:space="preserve" width="0.323425in" height="0.354362in" version="1.1" style="shape-rendering:geometricPrecision; text-rendering:geometricPrecision; image-rendering:optimizeQuality; fill-rule:evenodd; clip-rule:evenodd"
viewBox="0 0 15.8 17.31"
 xmlns:xlink="http://www.w3.org/1999/xlink"
 xmlns:xodm="http://www.corel.com/coreldraw/odm/2003">
 <defs>
  <style type="text/css">
   <![CDATA[
    .str0 {stroke:#00A0E3;stroke-width:0;stroke-miterlimit:22.9256}
    .fil0 {fill:#00A0E3}
   ]]>
  </style>
 </defs>
 <g id="Layer_x0020_1">
  <metadata id="CorelCorpID_0Corel-Layer"/>
  <g id="_1771916500048">
   <path class="fil0 str0" d="M9.44 8.14c0.03,0.85 -0.68,1.68 -1.59,1.59 -0.91,-0.09 -1.49,-0.77 -1.49,-1.55l0.04 -1.4 0.94 0.01 0 -1.01c-0.99,-0.24 -1.6,-1.01 -1.65,-2.04 -0.05,-1.03 0.29,-1.28 0.78,-1.75l0.02 -1.96 2.89 -0.01 -0.03 1.93c-0.01,0 0.76,0.62 0.76,1.7 0,1.09 -0.71,1.99 -1.64,2.13l-0 1.01 0.96 0.01 0 1.35z"/>
   <path class="fil0 str0" d="M2.81 13.2l0.32 0.04 0.45 0.14 0 -0.32 1.64 0 0 0.33 0 1.28 0 1.76 0 0.88 -1.62 0 0.01 -0.95 -0.76 0.15c-0.34,0.07 -0.85,-0.11 -1.12,-0.33l-1.73 0.01 0.01 -2.64 1.73 0.03c0.17,-0.2 0.7,-0.42 1.07,-0.37z"/>
   <path class="fil0 str0" d="M12.99 13.2l-0.32 0.04 -0.45 0.14 0 -0.32 -1.64 0 0 0.33 0 1.28 0 1.76 0 0.88 1.62 0 -0.01 -0.95 0.76 0.15c0.34,0.07 0.85,-0.11 1.12,-0.33l1.73 0.01 -0.01 -2.64 -1.73 0.03c-0.17,-0.2 -0.7,-0.42 -1.07,-0.37z"/>
  </g>
 </g>
</svg>
