<?xml version="1.0" encoding="UTF-8"?>
<!DOCTYPE svg PUBLIC "-//W3C//DTD SVG 1.1//EN" "http://www.w3.org/Graphics/SVG/1.1/DTD/svg11.dtd">
<!-- Creator: CorelDRAW 2021 (64-Bit) -->
<svg xmlns="http://www.w3.org/2000/svg" xml:space="preserve" width="0.342843in" height="0.354339in" version="1.1" style="shape-rendering:geometricPrecision; text-rendering:geometricPrecision; image-rendering:optimizeQuality; fill-rule:evenodd; clip-rule:evenodd"
viewBox="0 0 345.69 357.28"
 xmlns:xlink="http://www.w3.org/1999/xlink"
 xmlns:xodm="http://www.corel.com/coreldraw/odm/2003">
 <defs>
  <style type="text/css">
   <![CDATA[
    .fil0 {fill:#00A0E3;fill-rule:nonzero}
   ]]>
  </style>
 </defs>
 <g id="Layer_x0020_1">
  <metadata id="CorelCorpID_0Corel-Layer"/>
  <path class="fil0" d="M3.52 24.22c11.17,10.75 18.41,23.85 23.21,38.54 5.09,15.62 3.8,31.66 3.44,47.71 -0.5,27.58 9.74,50.79 28.8,70.28 24.79,25.43 66.05,29.3 95.28,9.17 2.15,-1.5 5.66,-2.51 5.16,-6.02 -2.5,-4.66 -8.37,-10.21 -15.97,-16.37 -2.29,-0.72 -6.53,2.47 -8.01,2.92 -5.38,1.65 -9.11,1.06 -14.56,0.56 -6.38,-0.58 -12.04,-2.79 -13.11,-10.03 -1,-7.24 3.22,-11.1 10.53,-13.04 -6.02,-6.16 -11.39,-9.82 -19.99,-5.59 -5.8,2.86 -12.89,2.29 -19.41,0.79 -5.16,-1.14 -8.96,-4.01 -10.03,-9.38 -1.08,-5.16 1.43,-9.03 5.88,-11.25 3.01,-1.5 3.58,-3.44 4.01,-6.59 1.22,-9.03 8.02,-12.54 16.26,-8.81 3.87,1.72 7.88,3.65 11.25,6.16 5.66,4.23 8.45,3.73 11.32,-3.37 3.51,-8.81 9.74,-11.32 16.05,-8.24 6.73,3.29 7.67,8.1 3.51,17.41 -3.08,6.88 -3.15,12.82 4.01,17.98 11.18,8.02 21.21,17.48 30.59,27.51 2.79,3.01 4.51,3.66 6.81,-0.57 5.66,-10.17 9.38,-20.85 9.88,-32.52 1.5,-35.18 -15.69,-60.24 -44.2,-78.09 -41.98,-26.29 -89.55,-33.17 -137.69,-37.32 -2.15,-0.21 -4.87,-0.64 -5.73,2.37 -0.79,2.65 1,4.22 2.65,5.88l0.07 -0.07zm234.25 98.64c2.5,-3.51 2.08,-5.95 -0.65,-8.88 -5.01,-5.37 -7.81,-11.96 -8.31,-19.34 -0.29,-5.09 2,-9.1 6.81,-10.82 4.66,-1.72 9.24,-0.86 12.25,3.44 1.29,1.79 1.87,4.08 2.51,6.3 1.58,5.66 3.87,6.59 7.45,1.36 5.51,-8.02 12.61,-14.68 19.49,-21.49 3.44,-3.37 7.67,-5.23 12.46,-3.01 4.87,2.29 7.74,6.3 6.52,11.75 -0.79,3.66 0.79,5.09 3.37,6.74 2.15,1.36 4.16,3.08 5.95,4.87 4.58,4.87 5.23,10.46 0.79,15.4 -4.51,5.01 -9.96,4.66 -15.33,0.64 -10.03,-7.45 -11.89,-7.16 -19.27,2.29 -8.96,11.54 -16.84,23.78 -24.28,36.32 -1.86,3.14 -2.56,5.42 -3.53,7.39 3.97,1.57 6.94,2.13 10.09,2.97 16.55,3.37 30.4,0.96 44.59,-7.93 22.71,-14.11 36.54,-45.99 31.45,-73.93 -4.66,-25.29 -3.44,-49 13.9,-69.7 1.36,-1.58 2.37,-3.29 1.08,-5.45 -1.29,-2.15 -3.37,-1.93 -5.3,-1.5 -8.38,1.79 -16.84,3.29 -25.07,5.51 -29.37,7.96 -58.1,17.48 -82.1,37.33 -17.26,14.33 -28.37,31.95 -28.65,47.49 -0.14,23.5 5.37,37.18 15.76,49.15 1.64,1.91 3.56,3.21 4.34,4.05 2.47,-2.33 11.83,-18.29 13.7,-20.96zm-101.51 19.05c-8.02,-6.23 -10.1,-12.68 -6.88,-22.42 0.5,-1.65 1.29,-3.15 2.15,-4.66 1.36,-2.5 2.22,-4.94 -0.86,-6.59 -3.22,-1.65 -4.59,1.15 -5.95,3.22 -2.22,3.44 -3.65,7.24 -3.51,11.32 0.21,7.52 -2.79,6.23 -7.38,3.29 -6.74,-4.3 -13.76,-8.17 -20.7,-12.1 -2.37,-1.36 -4.95,-2.15 -6.52,1.14 -1.36,2.79 0.86,4.16 2.72,5.45 2.72,1.86 6.38,2.37 8.52,6.23 -5.16,2.65 -10.31,3.44 -15.68,2.01 -2.51,-0.65 -4.73,-0.58 -5.66,2.15 -1.08,3.37 1.43,4.8 4.08,5.3 5.37,1 11.53,2.15 15.97,-0.72 9.6,-6.16 16.47,-1.65 23.57,4.01 3.15,2.5 6.52,4.66 9.6,7.23 2.51,2.08 7.52,3.73 6.23,6.95 -1.22,3.08 -6.23,3.23 -9.96,3.15 -1.43,0 -2.86,-0.14 -4.22,-0.57 -3.08,-0.93 -6.23,-1.22 -6.74,2.65 -0.5,3.58 3.01,4.51 5.8,5.02 6.38,1.07 12.75,0.57 18.41,-2.37 4.3,-2.22 6.88,-1.65 10.38,1.72 7.52,7.09 15.05,14.26 21.21,22.42 17.05,22.57 33.31,44.77 33.1,75.94 -0.21,28.37 -5.95,44.56 -40.26,42.05 -11.18,-0.79 -24.22,4.73 -31.74,-9.17 -0.86,-1.58 -3.29,-2.44 -5.37,-1.36 -1.93,1 -1.29,3.01 -1.29,4.59 0.15,6.3 0.29,12.61 0.72,18.84 0.14,2.37 -1.43,5.73 1.65,6.73 2.51,0.86 5.45,-1.29 6.38,-3.44 4.01,-8.88 11.46,-8.38 19.27,-8.24 8.31,0.14 16.62,-0.21 24.86,-0.72 19.55,-1.29 32.6,-15.33 32.81,-34.82 0.14,-12.61 -0.58,-25.29 0.64,-37.75 5.02,-50.51 25.86,-94.42 57.24,-133.68 6.73,-8.45 10.67,-9.38 20.34,-4.66 2,1 3.94,2.36 5.73,3.8 1.86,1.5 3.8,3.08 5.95,0.79 2.36,-2.51 0.71,-4.73 -1.15,-6.67 -4.44,-4.59 -10.6,-6.09 -16.76,-8.38 1.14,-1.57 1.79,-2.5 2.43,-3.37 1.87,-2.51 6.45,-4.73 2.37,-8.38 -3.44,-3.08 -5.73,0.93 -7.67,2.94 -6.45,6.88 -12.75,13.9 -18.77,21.21 -7.52,9.03 -10.67,8.74 -15.97,-2.08 -0.72,-1.5 -1.36,-3.15 -1.72,-4.8 -0.65,-2.65 -1.58,-5.37 -4.95,-4.44 -3.29,0.93 -2.72,4.08 -2.22,6.52 1.08,5.44 3.44,10.53 7.81,13.97 5.66,4.37 4.8,8.02 1.08,13.4 -9.6,13.54 -16.98,28.44 -23.64,43.7 -7.67,17.62 -12.46,36.1 -16.34,56.16 -1.58,-2.5 -2.58,-3.87 -3.37,-5.3 -15.47,-31.16 -38.47,-55.95 -65.69,-77.08l-0.08 -0.14zm-18.41 141.63c-0.29,-9.46 -5.73,-14.76 -15.19,-14.9 -10.89,-0.14 -21.78,0.29 -32.6,0.14 -4.59,0 -5.95,1.79 -5.88,6.09 0.29,22.64 0.5,45.2 0.5,67.84 0,4.44 1.43,6.16 5.95,6.02 10.6,-0.36 21.21,-0.14 31.73,-0.5 11.25,-0.36 16.47,-6.16 16.34,-17.48 0,-7.45 0,-14.9 0,-22.28 -0.29,0 -0.58,0 -0.86,0 0,-8.31 0.21,-16.62 0,-24.93l0 0zm-69.92 -22.21c-6.81,-1.22 -12.61,4.3 -12.54,12.75 0.21,23.79 0.79,47.57 1.22,71.28 0.14,7.17 3.29,11.54 10.6,11.89 6.52,0.36 10.46,-4.51 10.53,-12.75 0.07,-11.46 0,-22.93 0,-34.39l-1.14 0c0,-12.61 0,-25.22 0,-37.82 0,-5.8 -2.65,-9.88 -8.67,-11.04l-0 0.08zm-36.46 31.31c1.14,-0.14 2.29,0 3.44,0l0 0.21c1.14,0 2.29,0 3.44,0 5.09,-0.14 10.53,1.86 10.6,-7.38 0,-9.38 -5.37,-8.09 -10.96,-8.17 -2.29,0 -4.59,0 -6.81,0 -5.66,-0.21 -11.03,1.08 -11.17,7.59 -0.14,7.17 5.45,8.38 11.46,7.74l0 -0zm-4.01 34.53c-4.37,0.29 -6.67,2.94 -6.73,7.24 0,4.37 2.44,6.95 6.66,7.45 3.08,0.36 6.23,0 10.03,0 4.4,-0.38 12.1,0.86 12.1,-6.74 0,-5.93 -2.29,-7.74 -7.17,-7.78 -4.55,-0.03 -10.71,-0.46 -14.89,-0.17z"/>
 </g>
</svg>
