<?xml version="1.0" encoding="UTF-8"?>
<!DOCTYPE svg PUBLIC "-//W3C//DTD SVG 1.1//EN" "http://www.w3.org/Graphics/SVG/1.1/DTD/svg11.dtd">
<!-- Creator: CorelDRAW 2021 (64-Bit) -->
<svg xmlns="http://www.w3.org/2000/svg" xml:space="preserve" width="0.334638in" height="0.245787in" version="1.1" style="shape-rendering:geometricPrecision; text-rendering:geometricPrecision; image-rendering:optimizeQuality; fill-rule:evenodd; clip-rule:evenodd"
viewBox="0 0 90.09 66.17"
 xmlns:xlink="http://www.w3.org/1999/xlink"
 xmlns:xodm="http://www.corel.com/coreldraw/odm/2003">
 <defs>
  <style type="text/css">
   <![CDATA[
    .fil0 {fill:#00A0E3;fill-rule:nonzero}
   ]]>
  </style>
 </defs>
 <g id="Layer_x0020_1">
  <metadata id="CorelCorpID_0Corel-Layer"/>
  <path class="fil0" d="M90.06 45.63c0,-12.65 0.04,-25.28 0,-37.94 0,-4.74 -2.78,-7.66 -7.18,-7.68 -25.13,-0.02 -50.27,-0.02 -75.4,0 -4.48,0 -7.41,2.78 -7.43,7.2 -0.06,17.13 -0.08,34.28 0,51.41 0,4.9 2.88,7.55 7.77,7.55 12.4,0 24.83,0 37.23,0 12.42,0 24.83,0 37.25,0 5.05,0 7.76,-2.7 7.77,-7.76 0.02,-4.27 0,-8.54 0,-12.8l-0.02 0.02zm-82.8 13.22c-0.33,-0.4 -0.36,-1.13 -0.36,-2.48 0,-15.53 0.08,-31.08 0,-46.61 0,-2.31 0.65,-2.99 2.97,-2.99 23.46,0.08 46.91,0.04 70.37,0.06 1.68,0 2.38,0.02 2.67,0.63l0.01 0.01 0 0.01c0.21,0.43 0.22,1.14 0.22,2.36l0.02 -0.02c-0.02,15.62 -0.06,31.23 0.02,46.84 0.02,2.1 -0.53,2.73 -2.69,2.73 -11.81,-0.1 -23.61,-0.04 -35.42,-0.02l0 -0c-11.74,0 -23.46,0 -35.19,0 -1.52,-0.01 -2.26,-0.05 -2.62,-0.52zm72.03 -50.02c-22.77,0.04 -45.54,0.04 -68.29,0 -1.73,0 -2.17,0.55 -2.15,2.21 0.06,14.77 0.06,29.55 0,44.32 0,1.77 0.59,2.13 2.23,2.13 11.34,-0.06 22.69,-0.04 34.03,-0.04l0 -0.06c11.41,0 22.85,-0.02 34.26,0.04 1.32,0 1.91,-0.17 1.91,-1.7 -0.04,-15 -0.04,-30.01 0,-45.01 0,-1.54 -0.53,-1.9 -1.98,-1.9l0 0zm-61.53 19.24l-0 -0.02 -0.03 -0.26 -0 -0.02 -0.01 -0.12 -0 -0.02 -0.01 -0.12 -0 -0.02 -0.01 -0.12 -0 -0.02c-0.18,-2.16 -0.09,-4.35 0.3,-6.49 0.04,-0.23 0.1,-0.45 0.17,-0.66l0.01 -0.02 0.03 -0.09c0.71,-2.04 2.62,-3.21 4.71,-3 2.38,0.23 4.12,2.02 4.27,4.54 0.08,1.2 0,2.42 0,3.64l-0 0 0 0.02 0 0.04 0 0.02 0 0.04 0 0.02 0 0.04 0 0.02 0 0.04 0 0.02 0 0.04 0 0.02 0 0.04 0 0.02 0 0.04 0 0.02 0 0.04 0 0.02 0 0.04 0 0.02c0.01,1.05 0.06,2.09 -0,3.12l0 0.02c-0.15,2.52 -1.9,4.33 -4.27,4.5 -2.5,0.17 -4.46,-1.18 -4.92,-3.74 -0.1,-0.55 -0.17,-1.1 -0.23,-1.65zm18.22 21.12l-0.02 0 -0.2 0.01 -0.02 0 -0.09 0 -0.02 0 -0.09 0 -0.02 0 -0.09 0 -0.02 0 -0.09 0 -0.02 0 -0.31 0.01 -0.02 0 -0.09 0 -0.02 0 -0.09 0 -0.02 0 -0.09 0 -0.02 0 -0.09 0 -0.02 0 -0.09 0 -0.02 0 -0.2 0 -0.02 0 -0.09 0 -0.02 0 -0.2 0 -0.02 0 -0.09 0 -0.02 0 -0.09 0 -0.02 0 -0.09 0 -0.02 0 -0.09 0 -0.02 0 -0.09 0 -0.02 0 -0.09 0 -0.02 -0 -0.09 0 -0.02 -0 -0.09 0 -0.02 0 -0.09 -0 -0.02 0 -0.09 -0 -0.02 0 -0.09 -0 -0.02 0 -0.09 -0 -0.02 0 -0.09 -0 -0.02 0 -0.09 -0 -0.02 0 -0.09 -0 -0.02 0 -0.09 -0 -0.02 0 -0.09 -0 -0.02 0 -0.09 -0 -0.02 0 -0.09 -0 -0.02 0 -0.09 -0 -0.02 0 -0.09 -0 -0.02 0 -0.09 -0 -0.02 0 -0.09 -0 -0.02 0 -0.09 -0 -0.02 -0 -0.09 -0 -0.02 0 -0.09 -0 -0.02 -0 -0.09 -0 -0.02 -0 -0.09 -0 -0.02 -0 -0.09 -0 -0.02 -0 -0.09 -0 -0.02 0 -0.09 -0 -0.02 -0 -0.09 -0 -0.02 -0 -0.09 -0 -0.02 -0 -0.02 -0 -0.11 -0.01 -0.11 -0.01 -0.02 -0c-0.57,-0.05 -1.1,-0.18 -1.58,-0.37l-0.09 -0.04 -0.02 -0.01 -0.09 -0.04 -0.02 -0.01 -0.09 -0.04 -0.02 -0.01 -0.09 -0.04c-1.59,-0.8 -2.59,-2.36 -2.56,-4.15 0.04,-2.57 2.1,-4.52 4.94,-4.63 0.4,-0.01 0.79,-0.02 1.18,-0.02l0.04 0 0.17 0 0.04 0 0.12 0 0.04 0 0.01 0 0.04 0 0.06 0 0.04 0 0.07 0 0.04 0 0.01 0 0.04 0 0.01 0 0.04 0 0.07 0 0.04 0 0.01 0 0.04 0 0.01 0 0.04 0 0.01 0 0.04 0 0.07 0 0.04 0 0.02 0 0.04 0 0.02 0 0.04 0 0.02 0 0.04 0 0.02 0 0.04 0 0.07 0 0.04 0 0.02 0 0.04 0 0.07 0 0.04 0 0.02 0 0.04 0 0.07 0 0.03 0 0.07 0 0.03 0 0.13 0 0.03 0 0.16 0c0.81,0 1.61,-0.03 2.42,-0.03l0.04 0 0.06 0 0.04 0 0.06 0 0.04 0 0.01 0 0.04 0 0.01 0 0.04 0 0.01 0 0.04 0 0.01 0 0.04 0 0.01 0 0.04 0 0.01 0 0.04 0 0.01 0 0.04 0 0.01 0 0.04 0 0.02 0 0.04 0 0.01 0 0.04 0 0.02 0 0.04 0 0.02 0 0.04 0 0.02 0 0.04 0 0.02 0 0.03 0 0.02 0 0.02 0c2.65,0.15 4.65,2.15 4.69,4.63 0.02,2.5 -1.92,4.57 -4.59,4.71 -0.44,0.02 -0.88,0.04 -1.32,0.05zm11.66 -17l-0.02 0.02 -0.05 0.05c-0.89,0.86 -2.17,1.28 -3.65,1.17 -2.29,-0.15 -4.06,-1.87 -4.27,-4.25 -0.11,-1.28 0,-2.57 -0.02,-3.87 0,-1.22 -0.08,-2.44 0,-3.64 0.09,-1.34 0.6,-2.46 1.39,-3.25l0.05 -0.05 0.02 -0.02 0.06 -0.05c0.72,-0.67 1.67,-1.08 2.75,-1.16l0.02 0c2.53,-0.19 4.67,1.33 4.97,3.94 0.34,2.86 0.4,5.77 -0.06,8.61 -0.16,1.04 -0.58,1.87 -1.19,2.49zm20.76 16.42l-0.03 0.03 -0.01 0.01 -0.04 0.03 -0.01 0.01 -0.04 0.03c-0.4,0.28 -0.92,0.44 -1.55,0.46l-0.02 0 -0.06 0 -0.02 0 -0.02 0 -0.02 0 -0.02 0 -0.02 0 -0.02 0 -0.02 0 -0.02 0 -0.02 0 -0.02 0 -0.02 0 -0.02 0 -0.02 0 -0.02 0c-0.73,0.01 -1.45,-0.02 -2.18,0.01l-0.02 0 -0.02 0 -0.02 0 -0.1 0 -0.02 0c-2.1,0.09 -3.14,-0.95 -3.37,-3.03 -0.61,-5.89 -1.26,-11.79 -1.89,-17.68 -0.27,-2.5 -0.61,-4.97 -0.82,-7.47 -0.25,-3.04 0.29,-3.77 3.04,-3.89l0.12 -0.01 0.02 0 0.12 -0 0.02 0 0.13 -0.01 0.02 0c1.08,-0.03 2.17,-0.01 3.24,0l0.04 0 0.01 0 0.04 0 0.07 0 0.04 0 0.02 0 0.04 0 0.02 0 0.04 0 0.02 0 0.04 0 0.02 0 0.05 0 0.02 0 0.05 0 0.02 0 0.05 0 0.02 0 0.05 0 0.02 0 0.05 0 0.02 -0 0.05 0 0.02 -0 0.05 0 0.02 0 0.05 0 0.02 0 0.05 0 0.02 -0c1.31,-0.01 2.62,-0.06 3.93,0l0 0c0.59,0.03 1.08,0.16 1.48,0.39l0.02 0.01 0.03 0.02 0.02 0.01c0.8,0.48 1.14,1.37 1.01,2.59 -0.93,8.84 -1.89,17.68 -2.84,26.52 -0.09,0.87 -0.41,1.53 -0.95,1.95zm-1.54 -29.58l-1.83 0 0 0.04c-1.3,0 -2.59,0.04 -3.89,0 -1.14,-0.06 -1.43,0.44 -1.32,1.51 0.9,8.31 1.81,16.62 2.63,24.94 0.21,2.15 1.68,1.68 2.99,1.73 1.26,0.06 2,-0.09 2.15,-1.77 0.7,-7.64 1.62,-15.26 2.5,-22.88 0.4,-3.56 0.46,-3.56 -3.24,-3.56l0 0zm-19.87 2.48c-0.11,-1.47 -0.99,-2.36 -2.5,-2.46 -1.6,-0.09 -2.76,0.72 -2.88,2.29 -0.17,2.65 -0.17,5.32 0,7.96 0.1,1.45 1.2,2.27 2.71,2.25 1.51,0 2.48,-0.84 2.63,-2.3 0.13,-1.28 0.04,-2.57 0.04,-3.87 0,0 0,0 0.02,0 0,-1.3 0.08,-2.59 -0.02,-3.87l0 -0zm-9.37 20.31c-2.65,-0.34 -5.32,-0.32 -7.97,-0.02 -1.54,0.17 -2.42,1.33 -2.27,2.91 0.13,1.45 1.01,2.38 2.53,2.46 1.22,0.06 2.44,0 3.64,0 1.22,0 2.44,0 3.66,0 1.64,-0.02 2.57,-0.99 2.74,-2.52 0.19,-1.62 -0.82,-2.65 -2.34,-2.86l0 0.02zm-12.31 -16.6c0,-1.22 0.11,-2.44 -0.02,-3.64 -0.19,-1.66 -1.16,-2.63 -2.91,-2.53 -1.64,0.08 -2.5,1.09 -2.53,2.65 -0.08,2.36 -0.06,4.71 0,7.07 0.04,1.7 0.93,2.74 2.67,2.76 1.74,0.04 2.67,-1.01 2.8,-2.67 0.11,-1.2 0.02,-2.44 0.02,-3.64l0 0 -0.02 0z"/>
 </g>
</svg>
