<?xml version="1.0" encoding="UTF-8"?>
<!DOCTYPE svg PUBLIC "-//W3C//DTD SVG 1.1//EN" "http://www.w3.org/Graphics/SVG/1.1/DTD/svg11.dtd">
<!-- Creator: CorelDRAW 2021 (64-Bit) -->
<svg xmlns="http://www.w3.org/2000/svg" xml:space="preserve" width="0.301606in" height="0.300709in" version="1.1" style="shape-rendering:geometricPrecision; text-rendering:geometricPrecision; image-rendering:optimizeQuality; fill-rule:evenodd; clip-rule:evenodd"
viewBox="0 0 31.91 31.81"
 xmlns:xlink="http://www.w3.org/1999/xlink"
 xmlns:xodm="http://www.corel.com/coreldraw/odm/2003">
 <defs>
  <style type="text/css">
   <![CDATA[
    .str0 {stroke:#00A0E3;stroke-width:1.1;stroke-miterlimit:22.9256}
    .fil0 {fill:#00A0E3}
   ]]>
  </style>
 </defs>
 <g id="Layer_x0020_1">
  <metadata id="CorelCorpID_0Corel-Layer"/>
  <g id="_1807925994224">
   <path class="fil0 str0" d="M7.27 24.89l3.08 0 0 1.79 -3.08 0 0 -1.79zm7.89 -0.99l-12.69 0c-1.11,0 -0.86,-1.12 -0.86,-2.28l14.42 0c0,1.06 0.23,2.28 -0.86,2.28zm-13.56 -19.04l14.42 0 0 15.77 -14.42 0 0 -15.77zm22.37 0l6.22 0 0 10.78 -6.22 0 0 -10.78zm-2.4 1.48l1.42 0 0 4.5 -1.42 0 0 -4.5zm-19.96 -4.07c0,-0.31 0.36,-0.68 0.68,-0.68l13 0c0.95,0 0.74,1.4 0.74,2.28l-14.42 0 0 -1.6zm-1.05 0.49l0 19.84c0,0.71 0.11,1.13 0.4,1.57 0.22,0.32 0.82,0.71 1.32,0.71l4 0 0 2.4c0,0.54 1.36,0.37 2.03,0.37 0,0.75 -0.07,1.41 0.26,2.08 0.94,1.86 2.87,1.5 5.1,1.5 1.23,0 2.18,-0.44 2.63,-1.56 0.21,-0.55 0.13,-1.26 0.36,-1.73 0.19,-0.39 0.72,-0.83 1.26,-0.83l2.83 0c0.8,0 1.38,0.65 1.42,1.6 0.03,0.79 0.45,1.56 1.09,1.99 1.69,1.13 4.45,0.24 4.45,-2.11l0 -11.89 2.46 0c0.66,0 1.17,-0.4 1.17,-1.05l0 -10.66c0,-0.4 -0.47,-1.11 -1.17,-1.11l-6.16 0c-1,0 -1.05,0.86 -1.05,1.54 -2.49,0 -2.4,-0.27 -2.4,1.29 -0.59,0 -1.33,-0.1 -1.43,0.41 -0.15,0.78 0.83,0.64 1.43,0.64l0 1.79 -0.8 0c-0.88,0 -0.8,0.99 -0.18,0.99l0.99 0c0,1.63 -0.11,1.36 2.4,1.36l0 3.63c0,0.73 0.44,1.17 1.17,1.17l2.46 0 0 12.14c0,0.7 -0.72,1.42 -1.42,1.42 -0.73,0 -1.45,0.07 -1.93,-0.78 -0.28,-0.49 -0.04,-0.85 -0.37,-1.66 -0.81,-2 -2.77,-1.63 -4.9,-1.63 -1.28,0 -2.12,0.7 -2.44,1.68 -0.17,0.52 0.01,2.44 -1.75,2.44l-3.08 0c-0.73,0 -1.48,-0.69 -1.48,-1.42l0 -1.11c2.44,0 2.03,0.4 2.03,-2.77l3.7 0c1.12,0 1.97,-0.8 1.97,-1.66l0 -21.13c0,-0.67 -0.63,-1.37 -1.28,-1.55 -0.23,-0.07 -0.55,-0.11 -0.87,-0.11l-12.01 0c-1.47,0 -2.22,0.75 -2.22,2.22z"/>
   <path class="fil0 str0" d="M9.05 16.76c-0.86,0 -1.31,0 -2.12,-0.41 -0.55,-0.28 -0.91,-0.57 -1.26,-1.02 -0.1,-0.12 -0.12,-0.13 -0.22,-0.27 -1.07,-1.53 -0.93,-3.54 0.29,-4.94 0.09,-0.1 0.13,-0.18 0.22,-0.27 1.59,-1.45 4,-1.62 5.6,-0.04 1.21,1.2 1.62,3.08 0.9,4.57 -0.65,1.34 -1.9,2.38 -3.41,2.38zm4.74 -3.82c0,-0.91 -0.09,-1.57 -0.47,-2.36 -0.15,-0.31 -0.28,-0.5 -0.46,-0.77l-0.56 -0.68c-3.74,-3.5 -9.44,-0.07 -8.41,4.66 0.2,0.94 0.66,1.77 1.29,2.46 1.37,1.5 3.73,1.86 5.54,1.13 1.5,-0.61 3.07,-2.36 3.07,-4.45z"/>
   <path class="fil0 str0" d="M25.01 10.22c0,0.6 0.62,0.56 1.17,0.55 0.53,-0 1.07,0 1.6,0l-0.91 1.43c-0.19,0.3 -0.26,0.26 -0.26,0.67 0,0.33 0.38,0.37 0.62,0.37 0.29,0 1.97,-2.86 1.97,-2.9 0,-0.71 -0.6,-0.62 -1.17,-0.62 -0.55,0 -1.11,0 -1.66,0 0.22,-0.41 0.47,-0.78 0.72,-1.19 0.08,-0.14 0.32,-0.49 0.35,-0.63 0.05,-0.24 -0.03,-0.58 -0.52,-0.58 -0.37,0 -0.45,0.31 -0.6,0.57 -0.16,0.27 -0.3,0.49 -0.46,0.77 -0.17,0.29 -0.84,1.3 -0.84,1.56z"/>
   <path class="fil0 str0" d="M6.65 12.69c0,0.6 0.59,0.49 1.17,0.49 0.55,-0 1.11,0 1.66,0 -0.34,0.64 -1.17,1.65 -1.17,2.03 0,0.26 0.19,0.49 0.43,0.49 0.39,0 0.48,-0.32 0.64,-0.59 0.17,-0.29 1.45,-2.18 1.45,-2.31 0,-0.73 -0.37,-0.62 -1.23,-0.62 -0.53,0 -1.07,0 -1.6,0 0.23,-0.44 0.49,-0.83 0.76,-1.27 0.09,-0.16 0.32,-0.5 0.33,-0.65 0.02,-0.25 -0.22,-0.55 -0.47,-0.55 -0.45,0 -0.76,0.77 -1.11,1.35 -0.15,0.26 -0.86,1.33 -0.86,1.61z"/>
   <path class="fil0 str0" d="M7.08 2.71c0,0.32 0.26,0.49 0.55,0.49l2.34 0c0.64,0 0.68,-0.99 0,-0.99l-2.4 0c-0.3,0 -0.49,0.19 -0.49,0.49z"/>
   <path class="fil0 str0" d="M7.08 22.79c0,0.31 0.34,0.49 0.55,0.49l2.28 0c0.78,0 0.62,-0.99 0.18,-0.99l-2.65 0c-0.2,0 -0.37,0.27 -0.37,0.49z"/>
  </g>
 </g>
</svg>
