<?xml version="1.0" encoding="UTF-8"?>
<!DOCTYPE svg PUBLIC "-//W3C//DTD SVG 1.1//EN" "http://www.w3.org/Graphics/SVG/1.1/DTD/svg11.dtd">
<!-- Creator: CorelDRAW 2021 (64-Bit) -->
<svg xmlns="http://www.w3.org/2000/svg" xml:space="preserve" width="0.347378in" height="0.36822in" version="1.1" style="shape-rendering:geometricPrecision; text-rendering:geometricPrecision; image-rendering:optimizeQuality; fill-rule:evenodd; clip-rule:evenodd"
viewBox="0 0 6.23 6.61"
 xmlns:xlink="http://www.w3.org/1999/xlink"
 xmlns:xodm="http://www.corel.com/coreldraw/odm/2003">
 <defs>
  <style type="text/css">
   <![CDATA[
    .str0 {stroke:#00A0E3;stroke-width:0;stroke-miterlimit:22.9256}
    .str1 {stroke:#00A0E3;stroke-width:0.25;stroke-miterlimit:22.9256}
    .fil1 {fill:none}
    .fil0 {fill:#00A0E3}
   ]]>
  </style>
 </defs>
 <g id="Layer_x0020_1">
  <metadata id="CorelCorpID_0Corel-Layer"/>
  <g id="_1807992528048">
   <path class="fil0 str0" d="M3.45 3.15c0.01,0.19 -0.15,0.38 -0.36,0.36 -0.21,-0.02 -0.34,-0.17 -0.34,-0.35l0.01 -0.32 0.21 0 0 -0.23c-0.22,-0.06 -0.36,-0.23 -0.37,-0.46 -0.01,-0.23 0.07,-0.29 0.18,-0.4l0 -0.44 0.65 -0 -0.01 0.44c-0,0 0.17,0.14 0.17,0.39 0,0.25 -0.16,0.45 -0.37,0.48l-0 0.23 0.22 0 0 0.3z"/>
   <path class="fil0 str0" d="M1.95 4.3l0.07 0.01 0.1 0.03 0 -0.07 0.37 0 0 0.07 0 0.29 0 0.4 0 0.2 -0.37 0 0 -0.21 -0.17 0.03c-0.08,0.01 -0.19,-0.03 -0.25,-0.07l-0.39 0 0 -0.6 0.39 0.01c0.04,-0.05 0.16,-0.09 0.24,-0.08z"/>
   <path class="fil0 str0" d="M4.25 4.3l-0.07 0.01 -0.1 0.03 0 -0.07 -0.37 0 0 0.07 0 0.29 0 0.4 0 0.2 0.37 0 -0 -0.21 0.17 0.03c0.08,0.01 0.19,-0.03 0.25,-0.07l0.39 0 -0 -0.6 -0.39 0.01c-0.04,-0.05 -0.16,-0.09 -0.24,-0.08z"/>
   <rect class="fil1 str1" x="0.12" y="0.12" width="5.99" height="6.36"/>
  </g>
 </g>
</svg>
