<?xml version="1.0" encoding="UTF-8"?>
<!DOCTYPE svg PUBLIC "-//W3C//DTD SVG 1.1//EN" "http://www.w3.org/Graphics/SVG/1.1/DTD/svg11.dtd">
<!-- Creator: CorelDRAW 2021 (64-Bit) -->
<svg xmlns="http://www.w3.org/2000/svg" xml:space="preserve" width="0.347378in" height="0.36822in" version="1.1" style="shape-rendering:geometricPrecision; text-rendering:geometricPrecision; image-rendering:optimizeQuality; fill-rule:evenodd; clip-rule:evenodd"
viewBox="0 0 10.61 11.25"
 xmlns:xlink="http://www.w3.org/1999/xlink"
 xmlns:xodm="http://www.corel.com/coreldraw/odm/2003">
 <defs>
  <style type="text/css">
   <![CDATA[
    .str0 {stroke:#00A0E3;stroke-width:0;stroke-miterlimit:22.9256}
    .str1 {stroke:#00A0E3;stroke-width:0.42;stroke-miterlimit:22.9256}
    .fil1 {fill:none}
    .fil0 {fill:#00A0E3}
   ]]>
  </style>
 </defs>
 <g id="Layer_x0020_1">
  <metadata id="CorelCorpID_0Corel-Layer"/>
  <path class="fil0 str0" d="M7.99 7.09c0.48,0 0.86,0.4 0.86,0.89 0,0.49 -0.39,0.89 -0.86,0.89 -0.04,0 -0.09,-0 -0.13,-0.01 -0.11,0.22 -0.33,0.36 -0.59,0.36 -0.37,0 -0.67,-0.31 -0.67,-0.69 0,-0.33 0.23,-0.61 0.53,-0.67 0.05,-0.44 0.42,-0.78 0.86,-0.78z"/>
  <path class="fil0 str0" d="M2.56 7.09c-0.48,0 -0.86,0.4 -0.86,0.89 0,0.49 0.39,0.89 0.86,0.89 0.04,0 0.09,-0 0.13,-0.01 0.11,0.22 0.33,0.36 0.59,0.36 0.37,0 0.67,-0.31 0.67,-0.69 0,-0.33 -0.23,-0.61 -0.53,-0.67 -0.05,-0.44 -0.42,-0.78 -0.86,-0.78z"/>
  <path class="fil0 str0" d="M5.88 3.68c0.02,0.04 0.05,0.08 0.09,0.11 0.11,0.15 0.17,0.33 0.17,0.52 0,0.48 -0.39,0.87 -0.87,0.87 -0.01,0 -0.02,-0 -0.03,-0 -0.01,0 -0.02,0 -0.03,0 -0.48,0 -0.87,-0.39 -0.87,-0.87 0,-0.2 0.06,-0.38 0.17,-0.52 0.04,-0.02 0.08,-0.06 0.09,-0.11l0.01 -0.02 0.01 -0.02 0 -0.02 0 -0.02c-0,-0.03 -0.01,-0.06 -0.03,-0.1 -0.12,-0.09 -0.22,-0.21 -0.29,-0.35l-0 -0c-0.01,-0.03 -0.03,-0.06 -0.04,-0.08l-0 -0 -0 -0.01 -0.01 -0.01 -0 -0.01 -0 -0.01 -0 -0.01 -0 -0 -0.01 -0.02 -0 -0.01 -0 -0.01 -0 -0.01 -0 -0.02 -0 -0.01 -0 -0.01 -0 -0.01 -0 -0.01 -0 -0.01 -0 -0.01 -0 -0.02 -0 -0 -0 -0.01 -0 -0 -0 -0.02 -0 -0 -0 -0.01 -0 -0.01 -0 -0.01 -0 -0.01 -0 -0.01 -0 -0.01 -0 -0.01 -0 -0 -0 -0.02 -0 -0 -0 -0.01 -0 -0.01 -0 -0.01 -0 -0.01 -0 -0.02 0 -0 -0 -0.02 -0 -0 -0 -0.02 0 -0 -0 -0.02 -0 -0.01 -0 -0.02c0,-0.61 0.48,-1.11 1.07,-1.11 0.59,0 1.07,0.5 1.07,1.11l-0 0.02 -0 0.01 -0 0.02 0 0 -0 0.02 -0 0 -0 0.02 0 0 -0 0.02 -0 0.01 -0 0.01 -0 0.01 -0 0.01 -0 0 -0 0.02 -0 0 -0 0.01 -0 0.01 -0 0.01 -0 0.01 -0 0.01 -0 0.01 -0 0.01 -0 0 -0 0.02 -0 0 -0 0.01 -0 0 -0 0.02 -0 0.01 -0 0.01 -0 0.01 -0 0.01 -0 0.01 -0 0.01 -0 0.02 -0 0.01 -0 0.01 -0 0.01 -0.01 0.02 -0 0 -0 0.01 -0 0.01 -0 0.01 -0.01 0.01 -0 0.01 -0 0c-0.01,0.03 -0.03,0.06 -0.04,0.08l-0 0c-0.07,0.14 -0.17,0.26 -0.29,0.35 -0.02,0.04 -0.02,0.06 -0.03,0.1l0 0.02 0 0.02 0.01 0.02 0.01 0.02z"/>
  <rect class="fil1 str1" x="0.21" y="0.21" width="10.19" height="10.83"/>
 </g>
</svg>
