<?xml version="1.0" encoding="UTF-8"?>
<!DOCTYPE svg PUBLIC "-//W3C//DTD SVG 1.1//EN" "http://www.w3.org/Graphics/SVG/1.1/DTD/svg11.dtd">
<!-- Creator: CorelDRAW 2021 (64-Bit) -->
<svg xmlns="http://www.w3.org/2000/svg" xml:space="preserve" width="0.327787in" height="0.354335in" version="1.1" style="shape-rendering:geometricPrecision; text-rendering:geometricPrecision; image-rendering:optimizeQuality; fill-rule:evenodd; clip-rule:evenodd"
viewBox="0 0 13.1 14.17"
 xmlns:xlink="http://www.w3.org/1999/xlink"
 xmlns:xodm="http://www.corel.com/coreldraw/odm/2003">
 <defs>
  <style type="text/css">
   <![CDATA[
    .fil0 {fill:#00A0E3}
   ]]>
  </style>
 </defs>
 <g id="Layer_x0020_1">
  <metadata id="CorelCorpID_0Corel-Layer"/>
  <path class="fil0" d="M5.02 1.41l1.74 1.46 2.19 -2.62c0.24,-0.28 0.64,-0.34 0.88,-0.13l0 0c0.25,0.21 0.26,0.61 0.03,0.9l-2.19 2.62 2.2 1.83 2.17 -2.59c0.23,-0.28 0.63,-0.34 0.88,-0.13l0 0c0.25,0.21 0.26,0.61 0.03,0.89l-2.16 2.6 1.74 1.46c0.31,0.26 0.36,0.73 0.1,1.04l0 0c-0.26,0.32 -0.73,0.36 -1.04,0.09l-7.51 -6.28c-0.31,-0.26 -0.36,-0.73 -0.09,-1.04l0 0c0.26,-0.31 0.73,-0.36 1.04,-0.09l0 0 0 0zm-5.02 12.03l3.25 -3.27 0.74 0.73 -3.25 3.27 -0.74 -0.73 0 0zm4.56 -8.73l-1.51 1.81c-0.4,0.48 -0.27,1.25 0.28,1.71l2.78 2.32c0.55,0.46 1.33,0.45 1.73,-0.03l1.51 -1.81 -4.79 -4.01 0 0zm-0.15 -0.84l-2 2.39c-0.53,0.64 -0.41,1.62 0.25,2.18l3.36 2.81c0.67,0.56 1.65,0.5 2.18,-0.13l2.01 -2.4 -5.79 -4.85 0 0zm-0.17 -0.78l-2.47 2.96c-0.66,0.78 -0.55,1.95 0.23,2.61l3.93 3.29c0.77,0.66 1.95,0.55 2.6,-0.23l2.48 -2.96 -6.77 -5.67z"/>
 </g>
</svg>
