<?xml version="1.0" encoding="UTF-8"?>
<!DOCTYPE svg PUBLIC "-//W3C//DTD SVG 1.1//EN" "http://www.w3.org/Graphics/SVG/1.1/DTD/svg11.dtd">
<!-- Creator: CorelDRAW 2021 (64-Bit) -->
<svg xmlns="http://www.w3.org/2000/svg" xml:space="preserve" width="0.328366in" height="0.354374in" version="1.1" style="shape-rendering:geometricPrecision; text-rendering:geometricPrecision; image-rendering:optimizeQuality; fill-rule:evenodd; clip-rule:evenodd"
viewBox="0 0 21.34 23.03"
 xmlns:xlink="http://www.w3.org/1999/xlink"
 xmlns:xodm="http://www.corel.com/coreldraw/odm/2003">
 <defs>
  <style type="text/css">
   <![CDATA[
    .str0 {stroke:#00A0E3;stroke-width:0;stroke-miterlimit:22.9256}
    .fil0 {fill:#00A0E3}
   ]]>
  </style>
 </defs>
 <g id="Layer_x0020_1">
  <metadata id="CorelCorpID_0Corel-Layer"/>
  <g id="_1807987687680">
   <path class="fil0 str0" d="M18.77 16.66c1.42,0 2.58,1.19 2.58,2.66 0,1.47 -1.15,2.66 -2.58,2.66 -0.13,0 -0.26,-0.01 -0.39,-0.03 -0.33,0.64 -0.99,1.08 -1.75,1.08 -1.1,0 -1.98,-0.92 -1.98,-2.05 0,-0.99 0.67,-1.81 1.57,-2.01 0.16,-1.31 1.24,-2.32 2.55,-2.32z"/>
   <path class="fil0 str0" d="M2.58 16.66c-1.42,0 -2.58,1.19 -2.58,2.66 0,1.47 1.15,2.66 2.58,2.66 0.13,0 0.26,-0.01 0.39,-0.03 0.33,0.64 0.99,1.08 1.75,1.08 1.1,0 1.98,-0.92 1.98,-2.05 0,-0.99 -0.67,-1.81 -1.57,-2.01 -0.16,-1.31 -1.24,-2.32 -2.55,-2.32z"/>
   <path class="fil0 str0" d="M12.47 6.47c0.05,0.13 0.16,0.25 0.28,0.32 0.32,0.43 0.51,0.97 0.51,1.55 0,1.44 -1.17,2.6 -2.6,2.6 -0.03,0 -0.07,-0 -0.1,-0 -0.03,0 -0.07,0 -0.1,0 -1.44,0 -2.6,-1.17 -2.6,-2.6 0,-0.58 0.19,-1.12 0.51,-1.55 0.12,-0.07 0.22,-0.19 0.28,-0.32l0.02 -0.05 0.02 -0.06 0.01 -0.07 0 -0.06c-0.01,-0.1 -0.02,-0.18 -0.08,-0.29 -0.35,-0.28 -0.65,-0.64 -0.86,-1.04l-0 -0c-0.04,-0.08 -0.08,-0.16 -0.12,-0.25l-0 -0 -0.01 -0.03 -0.02 -0.04 -0.01 -0.02 -0.01 -0.02 -0.01 -0.03 -0 -0.01 -0.02 -0.05 -0.01 -0.02 -0.01 -0.02 -0.01 -0.02 -0.01 -0.05 -0.01 -0.02 -0 -0.02 -0.01 -0.03 -0.01 -0.02 -0.01 -0.03 -0 -0.02 -0.01 -0.05 -0 -0.01 -0.01 -0.04 -0 -0.01 -0.01 -0.05 -0 -0.01 -0.01 -0.04 -0 -0.02 -0.01 -0.04 -0 -0.02 -0.01 -0.04 -0 -0.02 -0.01 -0.04 -0 -0.01 -0.01 -0.05 -0 -0.01 -0 -0.04 -0 -0.02 -0 -0.04 -0 -0.02 -0 -0.05 -0 -0 -0 -0.05 -0 -0.01 -0 -0.06 0 -0 -0 -0.05 -0 -0.02 -0 -0.05c0,-1.83 1.43,-3.31 3.2,-3.31 1.77,0 3.2,1.48 3.2,3.31l-0 0.05 -0 0.02 -0 0.05 0 0 -0 0.06 -0 0.01 -0 0.05 -0 0 -0 0.05 -0 0.02 -0 0.04 -0 0.02 -0 0.04 -0 0.01 -0.01 0.05 -0 0.01 -0.01 0.04 -0 0.02 -0.01 0.04 -0 0.02 -0.01 0.04 -0 0.02 -0.01 0.04 -0 0.01 -0.01 0.05 -0 0.01 -0.01 0.04 -0 0.01 -0.01 0.05 -0 0.02 -0.01 0.03 -0.01 0.02 -0.01 0.03 -0 0.02 -0.01 0.02 -0.01 0.05 -0.01 0.02 -0.01 0.02 -0.01 0.02 -0.02 0.05 -0 0.01 -0.01 0.03 -0.01 0.02 -0.01 0.02 -0.02 0.04 -0.01 0.03 -0 0c-0.04,0.09 -0.08,0.17 -0.12,0.25l-0 0c-0.22,0.41 -0.51,0.76 -0.86,1.04 -0.06,0.11 -0.07,0.19 -0.08,0.29l0 0.06 0.01 0.07 0.02 0.06 0.02 0.05z"/>
  </g>
 </g>
</svg>
