<?xml version="1.0" encoding="UTF-8"?>
<!DOCTYPE svg PUBLIC "-//W3C//DTD SVG 1.1//EN" "http://www.w3.org/Graphics/SVG/1.1/DTD/svg11.dtd">
<!-- Creator: CorelDRAW 2021 (64-Bit) -->
<svg xmlns="http://www.w3.org/2000/svg" xml:space="preserve" width="0.203575in" height="0.354331in" version="1.1" style="shape-rendering:geometricPrecision; text-rendering:geometricPrecision; image-rendering:optimizeQuality; fill-rule:evenodd; clip-rule:evenodd"
viewBox="0 0 12.37 21.53"
 xmlns:xlink="http://www.w3.org/1999/xlink"
 xmlns:xodm="http://www.corel.com/coreldraw/odm/2003">
 <defs>
  <style type="text/css">
   <![CDATA[
    .fil0 {fill:#00A0E3}
   ]]>
  </style>
 </defs>
 <g id="Layer_x0020_1">
  <metadata id="CorelCorpID_0Corel-Layer"/>
  <g id="socket.svg">
   <path class="fil0" d="M11.95 4.86l-1.49 0 0 -3.49c0,-0.76 -0.61,-1.37 -1.37,-1.37 -0.76,0 -1.37,0.61 -1.37,1.37l0 3.49 -3.08 0 0 -3.49c0,-0.76 -0.61,-1.37 -1.37,-1.37 -0.75,0 -1.37,0.61 -1.37,1.37l0 3.49 -1.49 0c-0.23,0 -0.42,0.19 -0.42,0.42l0 1.73c0,0.23 0.19,0.42 0.42,0.42l0.47 0 0 3.38c0,0.81 0.36,1.57 0.99,2.07 0.3,0.24 0.64,0.45 0.99,0.6l0 0.11c0,0.81 0.63,1.48 1.43,1.53l0 1.63c0,0.23 0.19,0.42 0.42,0.42l0.33 0 0 3.94c0,0.23 0.19,0.42 0.42,0.42l1.43 0c0.23,0 0.42,-0.19 0.42,-0.42l0 -3.94 0.33 0c0.23,0 0.42,-0.19 0.42,-0.42l0 -1.63c0.8,-0.05 1.43,-0.72 1.43,-1.53l0 -0.11c0.36,-0.15 0.69,-0.36 0.99,-0.6 0.63,-0.5 0.99,-1.26 0.99,-2.07l0 -3.38 0.47 0c0.23,0 0.42,-0.19 0.42,-0.42l0 -1.73c0,-0.23 -0.19,-0.42 -0.42,-0.42zm-3.38 -3.49c0,-0.29 0.24,-0.53 0.53,-0.53 0.29,0 0.53,0.24 0.53,0.53l0 3.49 -1.06 0 0 -3.49zm-5.82 0c0,-0.29 0.24,-0.53 0.53,-0.53 0.29,0 0.53,0.24 0.53,0.53l0 3.49 -1.06 0 0 -3.49zm4.48 14.96l-2.09 0 0 -1.21 2.09 0 0 1.21zm-0.75 4.36l-0.59 0 0 -3.52 0.59 0 0 3.52zm5.05 -14.1l-1.34 0c-0.23,0 -0.42,0.19 -0.42,0.42 0,0.23 0.19,0.42 0.42,0.42l0.45 0 0 3.38c0,0.56 -0.25,1.07 -0.67,1.42 -0.31,0.25 -0.65,0.44 -1.03,0.57 -0.17,0.06 -0.28,0.22 -0.28,0.4l0 0.39c0,0.38 -0.31,0.69 -0.69,0.69l-3.57 0c-0.36,0 -0.66,-0.28 -0.69,-0.63l2.79 0c0.23,0 0.42,-0.19 0.42,-0.42 0,-0.23 -0.19,-0.42 -0.42,-0.42l-3.05 0c-0.01,-0 -0.02,-0.01 -0.02,-0.01 -0.37,-0.13 -0.72,-0.32 -1.03,-0.57 -0.43,-0.34 -0.67,-0.86 -0.67,-1.42l0 -3.37 4.77 0c0.23,0 0.42,-0.19 0.42,-0.42 0,-0.23 -0.19,-0.42 -0.42,-0.42l-5.66 0 0 -0.89 10.69 0 0 0.89z"/>
   <path class="fil0" d="M8.41 7.43c-0.11,0 -0.22,-0.05 -0.3,-0.12 -0.02,-0.02 -0.04,-0.04 -0.05,-0.06 -0.01,-0.02 -0.03,-0.05 -0.04,-0.07 -0.01,-0.02 -0.02,-0.05 -0.02,-0.08 -0.01,-0.03 -0.01,-0.06 -0.01,-0.08 0,-0.03 0,-0.06 0.01,-0.08 0.01,-0.03 0.01,-0.05 0.02,-0.08 0.01,-0.02 0.02,-0.05 0.04,-0.07 0.02,-0.02 0.03,-0.04 0.05,-0.06 0.02,-0.02 0.04,-0.04 0.06,-0.05 0.02,-0.02 0.05,-0.03 0.07,-0.04 0.03,-0.01 0.05,-0.02 0.08,-0.02 0.05,-0.01 0.11,-0.01 0.16,0 0.03,0.01 0.05,0.01 0.08,0.02 0.03,0.01 0.05,0.02 0.07,0.04 0.02,0.02 0.04,0.03 0.06,0.05 0.02,0.02 0.04,0.04 0.05,0.06 0.02,0.02 0.03,0.05 0.04,0.07 0.01,0.03 0.02,0.05 0.02,0.08 0.01,0.03 0.01,0.05 0.01,0.08 0,0.03 -0,0.05 -0.01,0.08 -0.01,0.03 -0.01,0.05 -0.02,0.08 -0.01,0.03 -0.02,0.05 -0.04,0.07 -0.01,0.02 -0.03,0.04 -0.05,0.06 -0.02,0.02 -0.04,0.04 -0.06,0.05 -0.02,0.02 -0.05,0.03 -0.07,0.04 -0.03,0.01 -0.05,0.02 -0.08,0.02 -0.03,0.01 -0.06,0.01 -0.08,0.01z"/>
  </g>
 </g>
</svg>
