<?xml version="1.0" encoding="UTF-8"?>
<!DOCTYPE svg PUBLIC "-//W3C//DTD SVG 1.1//EN" "http://www.w3.org/Graphics/SVG/1.1/DTD/svg11.dtd">
<!-- Creator: CorelDRAW 2021 (64-Bit) -->
<svg xmlns="http://www.w3.org/2000/svg" xml:space="preserve" width="0.354335in" height="0.30022in" version="1.1" style="shape-rendering:geometricPrecision; text-rendering:geometricPrecision; image-rendering:optimizeQuality; fill-rule:evenodd; clip-rule:evenodd"
viewBox="0 0 65.18 55.22"
 xmlns:xlink="http://www.w3.org/1999/xlink"
 xmlns:xodm="http://www.corel.com/coreldraw/odm/2003">
 <defs>
  <style type="text/css">
   <![CDATA[
    .fil0 {fill:#00A0E3;fill-rule:nonzero}
   ]]>
  </style>
 </defs>
 <g id="Layer_x0020_1">
  <metadata id="CorelCorpID_0Corel-Layer"/>
  <path class="fil0" d="M63.28 42.96c-2.34,0 -3.95,-2.41 -3.76,-5.03 0.05,-0.74 -0.03,-1.35 -0.01,-1.95 -0.44,-0.25 -0.83,-0.43 -1.52,-0.67 -3.97,-1.12 -8,-1.87 -12.08,-2.4 -0.92,-0.12 -1.53,-0.48 -2.13,-1.13 -2.39,-2.63 -5.06,-4.94 -7.92,-7.01 -1.27,-0.91 -2.63,-1.49 -4.22,-1.61 -3.64,-0.26 -7.27,-0.13 -10.92,-0.04 -2.98,0.08 -5.79,0.87 -8.1,2.6 -0.95,0.71 -1.6,1.12 -2.37,1.68l-4.86 -0.01c-0.73,-0.27 -0.9,-0.98 -0.9,-2.2 0,-4.33 0,-8.66 0,-12.97 0,-1.84 0.38,-2.21 2.26,-2.21 7.6,0 15.21,0.01 22.8,-0.03 1.13,0 1.61,0.16 1.7,1.49 0.2,3.26 2.53,5.36 5.83,5.48 1.53,0.05 3.06,-0.03 4.59,0.03 0.9,0.03 1.19,-0.3 1.19,-1.2 -0.03,-4.33 -0.03,-8.66 0,-12.99 0,-0.86 -0.21,-1.25 -1.15,-1.23 -1.53,0.05 -3.06,-0.04 -4.59,0.03 -3.42,0.12 -5.65,2.18 -5.89,5.6 -0.08,1.14 -0.48,1.36 -1.5,1.36 -7.55,-0.04 -15.09,-0.03 -22.64,-0.03 -3.02,0 -4.01,0.96 -4.03,3.97 -0.03,3.8 0,7.6 0,11.4 0,2.56 -0.28,4.9 2.97,4.9l1.9 0 0.49 0c-0.71,0.73 -1.64,1.54 -2.22,2.22 -1.03,1.2 -2.15,1.97 -3.87,1.99 -1.45,0.01 -2.32,0.89 -2.32,1.72 0.04,0.09 -0.05,2.36 0,2.49l1.07 0c2.07,0 3.31,0.94 3.37,2.49 0.05,1.58 -1.07,2.59 -3.21,2.72l-1.23 0c-0.01,0.01 -0.02,4.23 0,4.35 0.18,1.4 0.85,2.47 2.73,2.47l3.68 0c0,-0.54 0.04,-0.94 0.11,-1.4 0.57,-3.67 3.72,-5.92 7.36,-6.04 2.99,-0.09 5.74,1.73 6.9,4.5 0.48,1.14 0.58,1.99 0.67,2.94l22.26 0c0.01,-1.08 0.33,-2.64 1.43,-4.26 1.73,-2.55 4.81,-3.64 7.75,-2.99 3.02,0.66 5.24,2.9 5.73,6.02l0.07 1.23 2.77 0c1.88,-0.12 3.08,-1 3.57,-4.77 0.08,-0.59 0.11,-0.98 0.12,-1.53l-1.9 0zm-23.12 -36.95c0.44,-0.03 0.69,0.26 0.7,0.67 0.03,0.88 0,1.78 0,2.67l0 0c0,0.78 0,1.57 0,2.35 0,0.41 -0.17,0.74 -0.59,0.79 -0.48,0.07 -0.67,-0.28 -0.67,-0.67 -0.01,-1.73 0,-3.45 0,-5.17 0,-0.34 0.18,-0.62 0.55,-0.65l0.01 0.01zm-3.87 0.77c0,-0.38 0.18,-0.75 0.63,-0.75 0.45,0 0.63,0.36 0.65,0.74 0.03,0.83 0,1.68 0,2.51 0,0.83 0.01,1.68 0,2.51 0,0.4 -0.21,0.74 -0.63,0.75 -0.45,0.01 -0.65,-0.36 -0.65,-0.74 -0.03,-1.68 -0.01,-3.34 0,-5.02zm-18.08 30.36c-0.42,0.03 -0.84,0 -1.27,0 -0.48,0 -0.95,0.03 -1.43,0 -0.42,-0.03 -0.91,-0.12 -0.87,-0.69 0.03,-0.51 0.48,-0.66 0.91,-0.67 0.9,-0.03 1.79,-0.03 2.69,-0.01 0.49,0 1.06,0.05 1.1,0.65 0.05,0.78 -0.62,0.7 -1.13,0.73l-0 0zm10.06 -0.01c-0.53,0.01 -1.06,0 -1.74,0 -0.58,-0.21 -1.97,0.49 -1.98,-0.59 -0.03,-1.28 1.39,-0.62 2.16,-0.75 0.51,-0.09 1.06,-0.01 1.58,0 0.46,0.01 0.88,0.18 0.88,0.7 0,0.55 -0.48,0.63 -0.91,0.65l0 0zm11.63 -3.12c-5.11,0 -10.23,0 -15.34,0 -5.11,0 -10.23,0 -15.34,0 -0.74,0 -1.42,-0.07 -1.56,-0.44 -0.28,-0.77 0.4,-1.14 0.85,-1.53 1.61,-1.44 3.31,-2.76 5.13,-3.95 2.52,-1.64 5.17,-2.64 8.29,-2.61 3.05,0.03 6.11,-0.13 9.16,0.05 1.15,0.07 2.15,0.36 3.09,1.03 2.32,1.66 4.51,3.47 6.51,5.5 0.41,0.42 1.17,1.04 0.82,1.54 -0.17,0.25 -0.68,0.4 -1.61,0.4zm-25.78 9.27c-3.27,-0.07 -6.1,2.71 -6.1,5.98 0,3.22 2.75,5.94 5.97,5.94 3.27,0 5.97,-2.64 5.98,-5.9 0.03,-3.26 -2.6,-5.97 -5.85,-6.03l0 0.01zm-0.11 8.49c-1.37,0 -2.53,-1.15 -2.53,-2.51 0,-1.4 1.1,-2.48 2.52,-2.49 1.4,0 2.51,1.07 2.52,2.47 0,1.36 -1.15,2.52 -2.51,2.52l0 0.01zm37.26 3.46c3.18,0.09 5.98,-2.63 6.05,-5.86 0.07,-3.23 -2.6,-5.99 -5.83,-6.07 -3.22,-0.08 -6.02,2.57 -6.11,5.78 -0.09,3.33 2.52,6.06 5.9,6.15zm0.13 -8.45c1.43,0.03 2.49,1.14 2.46,2.53 -0.03,1.35 -1.21,2.48 -2.59,2.46 -1.35,-0.03 -2.51,-1.23 -2.48,-2.57 0.03,-1.37 1.19,-2.44 2.6,-2.42l0.01 0zm-5.08 -28.25c1.11,0.03 1.98,-0.07 1.93,-1.56 -0.08,-2.57 -0.03,-5.16 -0.01,-7.73 0,-2.52 -0.05,-5.06 0.03,-7.58 0.05,-1.41 -0.63,-1.72 -1.84,-1.65 -1.1,0.07 -2.3,-0.24 -2.28,1.54 0.04,5.16 0.03,10.32 0,15.47 0,1.64 1.1,1.48 2.16,1.5l0.01 0zm7.13 -5.99c-0.85,0.01 -1.69,0.07 -2.52,0 -1.07,-0.09 -1.48,0.24 -1.45,1.37 0.03,1.06 0.13,1.77 1.44,1.57 0.36,-0.05 0.74,0 1.1,0l0 0c0.48,0 0.95,0 1.41,0 0.99,0 1.68,-0.48 1.69,-1.47 0,-1 -0.66,-1.47 -1.66,-1.45l0 -0.03zm-2.22 -6.57c0.84,0 1.69,0 2.53,0 0.82,-0.01 1.28,-0.51 1.36,-1.27 0.08,-0.84 -0.4,-1.43 -1.24,-1.56 -0.62,-0.09 -1.27,-0.01 -2.16,-0.01 -0.49,0.36 -1.62,-0.66 -2.14,0.5 -0.63,1.44 0.05,2.36 1.65,2.36l0 -0.03zm11.23 35.61c0.57,0.27 1.78,0.1 2.35,0.13 0.17,-1.06 -0.84,-3.14 -1.62,-3.81 -0.47,-0.4 -2.08,-1.78 -2.37,-1.46 -0.1,0.32 -0.12,1.09 -0.1,1.31 0.2,2.75 1.12,3.54 1.74,3.83zm-61.27 -0.51c1,0.07 1.82,-0.17 1.85,-1.27 0.03,-0.87 -0.58,-1.24 -1.48,-1.22l-1.55 0c-0.02,0.03 -0,2.49 0,2.49l1.18 0 0 0zm30.09 -14.25c-1.99,-0.05 -4,0.05 -5.99,0l-1.1 0 0 5.64c4.57,-0.01 9.86,0 14.87,0 -2.17,-2.31 -3.45,-3.42 -5.67,-4.89 -0.69,-0.46 -1.37,-0.73 -2.1,-0.75zm-8.67 -0.05l-1.1 0c-4.69,0 -7.91,2.88 -11.6,5.69l12.7 0 0 -5.69zm-8.69 21.3c-0.71,0.08 -1.19,0.53 -1.13,1.25 0.05,0.71 0.59,1.06 1.28,1.13 0.71,-0.16 1.21,-0.53 1.13,-1.28 -0.08,-0.69 -0.5,-1.17 -1.27,-1.1l-0.01 -0.01zm37.46 2.35c0.7,-0.04 1.21,-0.5 1.13,-1.24 -0.07,-0.69 -0.53,-1.12 -1.4,-1.13 -0.57,0.16 -1.07,0.53 -1.02,1.27 0.04,0.74 0.57,1.15 1.28,1.11l0 0z"/>
 </g>
</svg>
