<?xml version="1.0" encoding="UTF-8"?>
<!DOCTYPE svg PUBLIC "-//W3C//DTD SVG 1.1//EN" "http://www.w3.org/Graphics/SVG/1.1/DTD/svg11.dtd">
<!-- Creator: CorelDRAW 2021 (64-Bit) -->
<svg xmlns="http://www.w3.org/2000/svg" xml:space="preserve" width="0.396319in" height="0.354331in" version="1.1" style="shape-rendering:geometricPrecision; text-rendering:geometricPrecision; image-rendering:optimizeQuality; fill-rule:evenodd; clip-rule:evenodd"
viewBox="0 0 15.96 14.27"
 xmlns:xlink="http://www.w3.org/1999/xlink"
 xmlns:xodm="http://www.corel.com/coreldraw/odm/2003">
 <defs>
  <style type="text/css">
   <![CDATA[
    .fil0 {fill:#00A0E3}
   ]]>
  </style>
 </defs>
 <g id="Layer_x0020_1">
  <metadata id="CorelCorpID_0Corel-Layer"/>
  <g id="_1807989475536">
   <path class="fil0" d="M3.01 8.14c1.39,-0.03 2.3,-0.76 3.15,-1.33 0,2.13 -0.28,3.85 0.62,5.35 1.56,2.6 5.95,3.1 7.79,-0.25 0.8,-1.45 0.55,-3.6 0.55,-5.76 0.67,-0.18 0.81,-0.5 0.83,-1.33l-2.32 0c-0.87,0 -0.31,1.11 0.5,1.33 0,2.58 0.43,5.18 -1.52,6.45 -2.2,1.43 -4.37,0.31 -5.13,-1.3 -1.07,-2.26 0.56,-7 -0.99,-9.47 -0.63,-1 -1.84,-1.83 -3.48,-1.83l0 8.14z"/>
   <polygon class="fil0" points="2.35,1.72 0.02,1.72 0.02,2.58 2.35,2.58 "/>
   <polygon class="fil0" points="2.33,5.48 -0,5.48 -0,6.35 2.33,6.35 "/>
  </g>
 </g>
</svg>
