<?xml version="1.0" encoding="UTF-8"?>
<!DOCTYPE svg PUBLIC "-//W3C//DTD SVG 1.1//EN" "http://www.w3.org/Graphics/SVG/1.1/DTD/svg11.dtd">
<!-- Creator: CorelDRAW 2021 (64-Bit) -->
<svg xmlns="http://www.w3.org/2000/svg" xml:space="preserve" width="0.382102in" height="0.382043in" version="1.1" style="shape-rendering:geometricPrecision; text-rendering:geometricPrecision; image-rendering:optimizeQuality; fill-rule:evenodd; clip-rule:evenodd"
viewBox="0 0 7.38 7.38"
 xmlns:xlink="http://www.w3.org/1999/xlink"
 xmlns:xodm="http://www.corel.com/coreldraw/odm/2003">
 <defs>
  <style type="text/css">
   <![CDATA[
    .str0 {stroke:#00A0E3;stroke-width:0.54;stroke-miterlimit:22.9256}
    .str1 {stroke:#00A0E3;stroke-width:0.06;stroke-miterlimit:22.9256}
    .fil0 {fill:none}
    .fil1 {fill:#00A0E3}
   ]]>
  </style>
 </defs>
 <g id="Layer_x0020_1">
  <metadata id="CorelCorpID_0Corel-Layer"/>
  <g id="_1807995965696">
   <path class="fil0 str0" d="M3.99 7.11l0.05 -0 0 0c0.78,-0.08 1.52,-0.43 2.07,-0.99 1.34,-1.34 1.34,-3.51 0,-4.85 -1.34,-1.34 -3.5,-1.34 -4.84,0 -1.34,1.34 -1.34,3.51 0,4.85 -1.34,-1.34 -1.34,-3.51 0,-4.85m2.28 4.06c0.06,0.56 -0.25,1.78 0.49,1.77"/>
   <path class="fil1 str1" d="M2.19 3.09l2.88 0 0 1.26c0,0.58 -0.48,1.06 -1.06,1.06l-0.83 0c-0.55,0 -0.99,-0.45 -0.99,-1l0 -1.33z"/>
   <path class="fil1 str1" d="M2.5 2.78l0.53 0 0 -1.01c0,-0.13 -0.11,-0.24 -0.24,-0.24l-0.06 0c-0.12,0 -0.23,0.1 -0.23,0.23l0 1.02z"/>
   <path class="fil1 str1" d="M4.23 2.78l0.53 0 0 -1.01c0,-0.13 -0.11,-0.24 -0.24,-0.24l-0.06 0c-0.12,0 -0.23,0.1 -0.23,0.23l0 1.02z"/>
  </g>
 </g>
</svg>
