<?xml version="1.0" encoding="UTF-8"?>
<!DOCTYPE svg PUBLIC "-//W3C//DTD SVG 1.1//EN" "http://www.w3.org/Graphics/SVG/1.1/DTD/svg11.dtd">
<!-- Creator: CorelDRAW 2021 (64-Bit) -->
<svg xmlns="http://www.w3.org/2000/svg" xml:space="preserve" width="1.15421in" height="1.23381in" version="1.1" style="shape-rendering:geometricPrecision; text-rendering:geometricPrecision; image-rendering:optimizeQuality; fill-rule:evenodd; clip-rule:evenodd"
viewBox="0 0 135.13 144.45"
 xmlns:xlink="http://www.w3.org/1999/xlink"
 xmlns:xodm="http://www.corel.com/coreldraw/odm/2003">
 <defs>
  <style type="text/css">
   <![CDATA[
    .fil0 {fill:#00A0E3}
   ]]>
  </style>
 </defs>
 <g id="Layer_x0020_1">
  <metadata id="CorelCorpID_0Corel-Layer"/>
  <g id="_1517510006768">
   <path class="fil0" d="M27.96 104.84l4.66 0 0 6.99 -4.66 0 0 -6.99zm65.24 -2.62l0 -2.04 18.64 0c0,6.06 -0.83,4.66 -16.02,4.66 -1.44,0 -2.62,-1.18 -2.62,-2.62zm-88.53 -4.66l0 -2.04 51.26 0c0,1.54 0.34,4.66 -2.62,4.66l-46.01 0c-1.44,0 -2.62,-1.18 -2.62,-2.62zm69.9 -4.66l0 -85.62c0,-1.44 1.18,-2.62 2.62,-2.62l50.67 0c1.44,0 2.62,1.18 2.62,2.62l0 85.62c0,1.44 -1.18,2.62 -2.62,2.62l-50.67 0c-1.44,0 -2.62,-1.18 -2.62,-2.62zm-69.9 -69.6l51.26 0 0 67.57 -51.26 0 0 -67.57zm0 -6.7c0,-1.44 1.18,-2.62 2.62,-2.62l46.01 0c2.96,0 2.62,3.12 2.62,4.66l-51.26 0 0 -2.04zm65.24 -10.19l0 87.37c0,3.2 3.2,6.41 6.41,6.41l12.23 0 0 2.91c0,3.2 3.2,6.41 6.41,6.41l5.24 0 0 12.81c0,10.39 -7.08,17.47 -17.47,17.47l-32.62 0c-10.39,0 -17.47,-7.08 -17.47,-17.47l0 -5.82c6.07,0 4.66,-7.43 4.66,-11.65l16.89 0c3.2,0 6.41,-3.2 6.41,-6.41l0 -82.71c0,-3.2 -3.2,-6.41 -6.41,-6.41l-47.76 0c-3.2,0 -6.41,3.2 -6.41,6.41l0 82.71c0,3.2 3.2,6.41 6.41,6.41l16.89 0c0,5.09 -0.78,8.26 1.51,10.43 0.85,0.8 1.54,1.22 3.15,1.22 0,8.06 -0.82,12.32 3.84,19.17 0.46,0.68 0.53,0.7 1.02,1.31 3.39,4.17 9.14,7.48 14.65,7.48l37.86 0c2.52,0 5.86,-1.09 7.65,-1.96 1,-0.48 2.17,-1.27 3.07,-1.88 4.84,-3.29 8.79,-9.78 8.79,-15.67l0 -15.44 5.24 0c3.2,0 6.41,-3.2 6.41,-6.41l0 -2.91 12.23 0c3.2,0 6.41,-3.2 6.41,-6.41l0 -87.37c0,-3.2 -3.2,-6.41 -6.41,-6.41l-52.42 0c-3.2,0 -6.41,3.2 -6.41,6.41z"/>
   <path class="fil0" d="M100.18 59.41zm0 0zm0 0c0.09,-1.07 3.09,-8.2 3.87,-10.11 0.43,-1.06 1.18,-2.25 0.62,-3.68 -0.82,-2.1 -5.28,-1.35 -7.98,-1.35 -3.11,0 -6.21,0 -9.32,0l19.15 -19.29c-0.02,1.14 -1.49,5.67 -1.93,7.1 -3.58,11.59 -4.46,9.87 13.07,9.87l-17.47 17.47zm-20.97 -12.81c0,3.19 4.28,2.33 8.74,2.33 3.69,0 7.38,0 11.07,0 -0.74,1.39 -1.43,3.42 -2.04,4.95 -1.11,2.78 -6.12,14.57 -6.12,16.02 0,1.41 0.92,2.33 2.33,2.33 1.75,0 7.19,-6.18 8.66,-7.64l20.39 -20.39c1.02,-1.02 3.57,-2.94 3.57,-4.59 0,-3.2 -4.3,-2.33 -7.57,-2.33 -3.4,0 -6.8,0 -10.19,0l4.66 -15.44c0.56,-2.03 3.32,-7.86 -0.87,-7.86 -1.65,0 -3.57,2.55 -4.59,3.57l-24.46 24.46c-1.02,1.02 -3.57,2.94 -3.57,4.59z"/>
   <polygon class="fil0" points="11.65,65.24 16.31,65.24 16.31,46.6 11.65,46.6 "/>
   <polygon class="fil0" points="20.97,65.24 25.63,65.24 25.63,46.6 20.97,46.6 "/>
   <polygon class="fil0" points="30.29,65.24 34.95,65.24 34.95,46.6 30.29,46.6 "/>
   <polygon class="fil0" points="39.61,65.24 44.27,65.24 44.27,46.6 39.61,46.6 "/>
   <polygon class="fil0" points="46.6,60.58 51.26,60.58 51.26,51.26 46.6,51.26 "/>
   <polygon class="fil0" points="109.5,90.86 114.16,90.86 114.16,86.2 109.5,86.2 "/>
   <polygon class="fil0" points="90.86,90.86 95.52,90.86 95.52,86.2 90.86,86.2 "/>
   <polygon class="fil0" points="81.54,90.86 86.2,90.86 86.2,86.2 81.54,86.2 "/>
   <polygon class="fil0" points="100.18,90.86 104.84,90.86 104.84,86.2 100.18,86.2 "/>
   <polygon class="fil0" points="118.82,90.86 123.48,90.86 123.48,86.2 118.82,86.2 "/>
  </g>
 </g>
</svg>
