<?xml version="1.0" encoding="UTF-8"?>
<!DOCTYPE svg PUBLIC "-//W3C//DTD SVG 1.1//EN" "http://www.w3.org/Graphics/SVG/1.1/DTD/svg11.dtd">
<!-- Creator: CorelDRAW 2021 (64-Bit) -->
<svg xmlns="http://www.w3.org/2000/svg" xml:space="preserve" width="0.291189in" height="0.290295in" version="1.1" style="shape-rendering:geometricPrecision; text-rendering:geometricPrecision; image-rendering:optimizeQuality; fill-rule:evenodd; clip-rule:evenodd"
viewBox="0 0 5.82 5.8"
 xmlns:xlink="http://www.w3.org/1999/xlink"
 xmlns:xodm="http://www.corel.com/coreldraw/odm/2003">
 <defs>
  <style type="text/css">
   <![CDATA[
    .fil0 {fill:#00A0E3}
   ]]>
  </style>
 </defs>
 <g id="Layer_x0020_1">
  <metadata id="CorelCorpID_0Corel-Layer"/>
  <g id="_1517517805504">
   <path class="fil0" d="M1.27 4.6l0.58 0 0 0.34 -0.58 0 0 -0.34zm1.49 -0.19l-2.4 0c-0.21,0 -0.16,-0.21 -0.16,-0.43l2.73 0c0,0.2 0.04,0.43 -0.16,0.43zm-2.56 -3.6l2.73 0 0 2.98 -2.73 0 0 -2.98zm4.23 0l1.18 0 0 2.04 -1.18 0 0 -2.04zm-0.45 0.28l0.27 0 0 0.85 -0.27 0 0 -0.85zm-3.77 -0.77c0,-0.06 0.07,-0.13 0.13,-0.13l2.46 0c0.18,0 0.14,0.26 0.14,0.43l-2.73 0 0 -0.3zm-0.2 0.09l0 3.75c0,0.13 0.02,0.21 0.08,0.3 0.04,0.06 0.15,0.13 0.25,0.13l0.76 0 0 0.45c0,0.1 0.26,0.07 0.38,0.07 0,0.14 -0.01,0.27 0.05,0.39 0.18,0.35 0.54,0.28 0.96,0.28 0.23,0 0.41,-0.08 0.5,-0.3 0.04,-0.1 0.02,-0.24 0.07,-0.33 0.04,-0.07 0.14,-0.16 0.24,-0.16l0.54 0c0.15,0 0.26,0.12 0.27,0.3 0.01,0.15 0.08,0.29 0.21,0.38 0.32,0.21 0.84,0.05 0.84,-0.4l0 -2.25 0.47 0c0.13,0 0.22,-0.08 0.22,-0.2l0 -2.01c0,-0.08 -0.09,-0.21 -0.22,-0.21l-1.16 0c-0.19,0 -0.2,0.16 -0.2,0.29 -0.47,0 -0.45,-0.05 -0.45,0.24 -0.11,0 -0.25,-0.02 -0.27,0.08 -0.03,0.15 0.16,0.12 0.27,0.12l0 0.34 -0.15 0c-0.17,0 -0.15,0.19 -0.03,0.19l0.19 0c0,0.31 -0.02,0.26 0.45,0.26l0 0.69c0,0.14 0.08,0.22 0.22,0.22l0.47 0 0 2.29c0,0.13 -0.14,0.27 -0.27,0.27 -0.14,0 -0.27,0.01 -0.37,-0.15 -0.05,-0.09 -0.01,-0.16 -0.07,-0.31 -0.15,-0.38 -0.52,-0.31 -0.93,-0.31 -0.24,0 -0.4,0.13 -0.46,0.32 -0.03,0.1 0,0.46 -0.33,0.46l-0.58 0c-0.14,0 -0.28,-0.13 -0.28,-0.27l0 -0.21c0.46,0 0.38,0.07 0.38,-0.52l0.7 0c0.21,0 0.37,-0.15 0.37,-0.31l0 -3.99c0,-0.13 -0.12,-0.26 -0.24,-0.29 -0.04,-0.01 -0.1,-0.02 -0.17,-0.02l-2.27 0c-0.28,0 -0.42,0.14 -0.42,0.42z"/>
   <path class="fil0" d="M1.61 3.06c-0.16,0 -0.25,0 -0.4,-0.08 -0.1,-0.05 -0.17,-0.11 -0.24,-0.19 -0.02,-0.02 -0.02,-0.02 -0.04,-0.05 -0.2,-0.29 -0.18,-0.67 0.05,-0.93 0.02,-0.02 0.02,-0.03 0.04,-0.05 0.3,-0.27 0.76,-0.31 1.06,-0.01 0.23,0.23 0.31,0.58 0.17,0.86 -0.12,0.25 -0.36,0.45 -0.64,0.45zm0.9 -0.72c0,-0.17 -0.02,-0.3 -0.09,-0.45 -0.03,-0.06 -0.05,-0.09 -0.09,-0.15l-0.11 -0.13c-0.71,-0.66 -1.78,-0.01 -1.59,0.88 0.04,0.18 0.12,0.33 0.24,0.47 0.26,0.28 0.71,0.35 1.05,0.21 0.28,-0.11 0.58,-0.45 0.58,-0.84z"/>
   <path class="fil0" d="M4.62 1.83c0,0.11 0.12,0.11 0.22,0.1 0.1,-0 0.2,0 0.3,0l-0.17 0.27c-0.04,0.06 -0.05,0.05 -0.05,0.13 0,0.06 0.07,0.07 0.12,0.07 0.05,0 0.37,-0.54 0.37,-0.55 0,-0.13 -0.11,-0.12 -0.22,-0.12 -0.1,0 -0.21,0 -0.31,0 0.04,-0.08 0.09,-0.15 0.14,-0.22 0.02,-0.03 0.06,-0.09 0.07,-0.12 0.01,-0.05 -0.01,-0.11 -0.1,-0.11 -0.07,0 -0.09,0.06 -0.11,0.11 -0.03,0.05 -0.06,0.09 -0.09,0.15 -0.03,0.05 -0.16,0.25 -0.16,0.29z"/>
   <path class="fil0" d="M1.15 2.29c0,0.11 0.11,0.09 0.22,0.09 0.1,-0 0.21,0 0.31,0 -0.06,0.12 -0.22,0.31 -0.22,0.38 0,0.05 0.04,0.09 0.08,0.09 0.07,0 0.09,-0.06 0.12,-0.11 0.03,-0.05 0.27,-0.41 0.27,-0.44 0,-0.14 -0.07,-0.12 -0.23,-0.12 -0.1,0 -0.2,0 -0.3,0 0.04,-0.08 0.09,-0.16 0.14,-0.24 0.02,-0.03 0.06,-0.09 0.06,-0.12 0,-0.05 -0.04,-0.1 -0.09,-0.1 -0.09,0 -0.14,0.15 -0.21,0.26 -0.03,0.05 -0.16,0.25 -0.16,0.3z"/>
   <path class="fil0" d="M1.23 0.41c0,0.06 0.05,0.09 0.1,0.09l0.44 0c0.12,0 0.13,-0.19 0,-0.19l-0.45 0c-0.06,0 -0.09,0.04 -0.09,0.09z"/>
   <path class="fil0" d="M1.23 4.2c0,0.06 0.06,0.09 0.1,0.09l0.43 0c0.15,0 0.12,-0.19 0.03,-0.19l-0.5 0c-0.04,0 -0.07,0.05 -0.07,0.09z"/>
  </g>
 </g>
</svg>
